<svg width="50" height="50" viewBox="0 0 50 50" fill="none" xmlns="http://www.w3.org/2000/svg">
<path d="M27.0009 43.0451L33.2239 45.7457C33.4941 45.8631 33.8133 45.8631 34.0835 45.7457L40.3066 43.0492C43.9008 41.5052 46.169 38.323 46.1537 34.8467V19.1648C46.1537 18.7049 45.7229 18.3315 45.1921 18.3315H22.1152C21.5844 18.3315 21.1536 18.7049 21.1536 19.1648V34.8467C21.1402 38.3222 23.4075 41.5011 27.0009 43.0451ZM39.447 41.5544L34.6153 43.6475V32.4969H44.2306V34.8467C44.2412 37.6898 42.3864 40.2911 39.447 41.5544ZM44.2306 30.8304H34.6153V19.9981H44.2306V30.8304ZM32.6921 19.9981V30.8304H23.0768V19.9981H32.6921ZM23.0768 32.4969H32.6921V43.6475L27.8605 41.5544C24.9211 40.2912 23.0662 37.6898 23.0768 34.8467V32.4969Z" fill="#EB0029"/>
<path d="M0.96158 46.6622H25.7404C25.7654 46.6731 25.7875 46.6856 25.8125 46.6964L33.224 49.9119C33.4943 50.0294 33.8134 50.0294 34.0836 49.9119L41.4951 46.7005C46.723 44.454 50.0211 39.827 49.9999 34.7708V15.8318C49.9999 15.3719 49.5691 14.9985 49.0383 14.9985H42.3076V7.49932C42.3076 7.03937 41.8768 6.66603 41.346 6.66603H38.4615V4.16626C38.4615 3.7063 38.0307 3.33297 37.4999 3.33297H11.5385C11.5385 1.49227 9.81639 0 7.69241 0C5.56844 0 3.84632 1.49236 3.84632 3.33297H0.96158C0.430812 3.33297 0 3.7063 0 4.16626V45.8289C0 46.2889 0.429798 46.6622 0.96158 46.6622ZM48.0769 34.7709C48.0942 39.1938 45.2086 43.2409 40.6355 45.2048L33.6538 48.2304L26.6721 45.2048C22.0991 43.2409 19.2135 39.1938 19.2308 34.7709V16.665H48.077V34.7709H48.0769ZM40.3845 8.33252V14.9985H38.4615V8.33252H40.3845ZM7.6923 1.66648C8.75485 1.66648 9.61535 2.41228 9.61535 3.33297H5.76925C5.76925 2.41228 6.62975 1.66648 7.6923 1.66648ZM1.92305 4.99955H9.61535V7.49932C9.61535 7.95928 9.18454 8.33261 8.65377 8.33261C8.123 8.33261 7.69219 7.95928 7.69219 7.49932V6.66603H5.76925V7.49932C5.76925 8.88007 7.06056 9.9991 8.65388 9.9991C10.2472 9.9991 11.5385 8.88007 11.5385 7.49932V4.99955H36.5385V14.9985H18.2692C17.7385 14.9985 17.3076 15.3719 17.3076 15.8318V34.7709C17.2942 38.7213 19.3163 42.4701 22.8211 44.9957H1.92305V4.99955Z" fill="#291956"/>
<path d="M8.65083 15.832H6.72778V17.4985H8.65083V15.832Z" fill="#291956"/>
<path d="M14.4198 15.832H10.5737V17.4985H14.4198V15.832Z" fill="#291956"/>
<path d="M14.4205 19.1646H4.80518V20.831H14.4205V19.1646Z" fill="#291956"/>
<path d="M21.1508 7.49902H19.2278V9.16551H21.1508V7.49902Z" fill="#291956"/>
<path d="M33.6506 7.49902H23.0737V9.16551H33.6506V7.49902Z" fill="#291956"/>
<path d="M31.7277 10.832H17.3047V12.4985H31.7277V10.832Z" fill="#291956"/>
<path d="M14.4205 22.498H4.80518V24.1645H14.4205V22.498Z" fill="#291956"/>
<path d="M12.4975 25.8311H4.80518V27.4975H12.4975V25.8311Z" fill="#291956"/>
<path d="M8.65083 30.8306H6.72778V32.497H8.65083V30.8306Z" fill="#291956"/>
<path d="M14.4198 30.8306H10.5737V32.497H14.4198V30.8306Z" fill="#291956"/>
<path d="M14.4205 34.1636H4.80518V35.8301H14.4205V34.1636Z" fill="#291956"/>
<path d="M14.4205 37.4961H4.80518V39.1626H14.4205V37.4961Z" fill="#291956"/>
<path d="M12.4975 40.8296H4.80518V42.4961H12.4975V40.8296Z" fill="#291956"/>
</svg>
