<svg width="50" height="50" viewBox="0 0 50 50" fill="none" xmlns="http://www.w3.org/2000/svg">
<path d="M21.3634 24.3664C19.7434 26.1172 19.7551 28.9439 21.3893 30.6795C23.0134 32.4044 25.6318 32.4044 27.256 30.6795L28.4343 31.942L26.6668 33.8365L27.8451 35.099L30.2018 32.5741C30.5268 32.2259 30.5268 31.6599 30.2018 31.3117L28.4343 29.4171L29.6126 28.1537L31.381 30.0483C31.706 30.3965 32.2343 30.3965 32.5593 30.0483L34.9168 27.5225L33.7385 26.2601L31.971 28.1546L30.7918 26.8913C31.5444 26.0931 31.7376 24.87 31.2735 23.8503L31.9701 23.103C32.9543 22.0655 32.9668 20.3692 31.9985 19.3148C31.0301 18.2603 29.4468 18.247 28.4626 19.2844C28.4527 19.2943 28.4435 19.3049 28.4334 19.3157L27.736 20.0639C26.7851 19.5782 25.6518 19.7845 24.9027 20.5782L23.7235 19.3157L25.4918 17.4221L24.3093 16.1587L21.9518 18.6836C21.6268 19.0318 21.6268 19.5978 21.9518 19.946L23.7202 21.8396L22.541 23.1039L20.7735 21.2093C20.4426 20.8745 19.926 20.8745 19.5952 21.2093L17.2385 23.7351L18.4161 24.9975L20.1835 23.1039L21.3634 24.3664ZM26.0776 29.4172C25.3284 30.2109 24.1951 30.4171 23.2443 29.9314L26.6667 26.2602L27.845 27.5226L26.0776 29.4172ZM29.6125 20.5782C29.9375 20.229 30.4658 20.229 30.7917 20.5772C31.1176 20.9254 31.1176 21.4914 30.7917 21.8406L30.2017 22.4727L29.6125 21.8415L29.0234 21.2094L29.6125 20.5782ZM26.0776 21.8407C26.4026 21.4925 26.9309 21.4925 27.2559 21.8407L29.6125 24.3665C29.9375 24.7147 29.9375 25.2807 29.6125 25.6289L29.0234 26.2602L25.4884 22.4719L26.0776 21.8407ZM22.5417 25.6289L24.3101 23.7343L25.4884 24.9977L22.0609 28.669C21.6059 27.6485 21.7984 26.4315 22.5417 25.6289Z" fill="#EB0029"/>
<path d="M49.0657 44.1616L41.0832 35.6074C46.5665 27.0962 44.5716 15.4333 36.6266 9.55842C32.2566 6.32731 26.7516 5.39875 21.6667 7.03711V2.67749C21.6667 1.19805 20.5475 -0.000976562 19.1667 -0.000976562H2.5C1.11914 -0.000976562 0 1.19805 0 2.67749V13.3913C0 14.8708 1.11914 16.0698 2.5 16.0698H11.2816C6.67001 25.1614 9.81083 36.5368 18.2967 41.4778C24.0833 44.8473 31.1458 44.4473 36.5691 40.4438L44.554 48.998C45.7998 50.3327 47.8199 50.3327 49.0657 48.998C50.3114 47.6632 50.3114 45.499 49.0657 44.1643L49.0657 44.1616ZM16.1941 19.484L16.2041 19.4911C16.5866 19.7653 17.1041 19.6546 17.3599 19.2438C17.4516 19.0974 17.5 18.9251 17.5 18.7483V16.0698H19.1667C20.4175 16.0653 21.4725 15.0699 21.6334 13.7405C27.4267 10.7951 34.3517 13.4396 37.1008 19.6465C39.8499 25.8534 37.3817 33.2728 31.5883 36.2181C25.795 39.1635 18.87 36.5191 16.1209 30.3121C14.6009 26.8801 14.6275 22.8918 16.1941 19.484ZM1.6667 13.3913V2.67749C1.6667 2.18469 2.04004 1.7847 2.5 1.7847H19.1667C19.6266 1.7847 20 2.18469 20 2.67749V13.3913C20 13.8841 19.6266 14.2841 19.1667 14.2841H16.6667C16.2067 14.2841 15.8334 14.6841 15.8334 15.1769V17.0796L12.1292 14.4342C11.9917 14.3369 11.8308 14.2841 11.6667 14.2841H2.5C2.04004 14.2842 1.6667 13.8842 1.6667 13.3913ZM26.6667 41.9617C17.9225 41.9617 10.8334 34.3664 10.8334 24.9981C10.8334 22.2054 11.4767 19.4555 12.7075 16.993L14.8009 18.4885C11.4367 25.5167 14.0275 34.1361 20.5875 37.7395C27.1474 41.343 35.1924 38.5681 38.5558 31.5398C41.9192 24.5116 39.3291 15.8923 32.7692 12.2888C29.3167 10.3916 25.2633 10.1986 21.6667 11.7594V8.91486C29.96 5.95421 38.9233 10.7577 41.6867 19.643C44.45 28.5284 39.9666 38.1316 31.6733 41.0922C30.0591 41.6688 28.3683 41.9617 26.6667 41.9617ZM44.1666 46.0562L37.9067 39.3493C38.6859 38.6476 39.4067 37.8752 40.0617 37.0405L46.3216 43.7473L44.1666 46.0562ZM46.8099 48.2114C46.4057 48.2104 46.0182 48.0382 45.7323 47.7328L45.3449 47.3186L47.4998 45.0098L47.8873 45.424C48.4823 46.0615 48.4823 47.0953 47.8865 47.7338C47.6016 48.0391 47.2141 48.2114 46.8099 48.2114Z" fill="#291956"/>
<path d="M7.50019 3.57031H5.8335V5.35599H7.50019V3.57031Z" fill="#291956"/>
<path d="M17.4998 3.57031H9.1665V5.35599H17.4998V3.57031Z" fill="#291956"/>
<path d="M17.5003 7.1416H4.16699V8.92728H17.5003V7.1416Z" fill="#291956"/>
<path d="M15.8337 10.7129H4.16699V12.4986H15.8337V10.7129Z" fill="#291956"/>
</svg>
