<svg width="50" height="51" viewBox="0 0 50 51" fill="none" xmlns="http://www.w3.org/2000/svg">
<path d="M44.3548 13.8974H40.0403C39.3742 12.0208 37.5863 10.6716 35.4839 10.6716C33.3815 10.6716 31.5935 12.0208 30.9274 13.8974H26.6129C26.3371 13.8974 26.0669 13.9256 25.8065 13.9788V8.25221C25.8065 6.02882 23.9976 4.21995 21.7742 4.21995H17.4597C16.7935 2.34333 15.0056 0.994141 12.9032 0.994141C10.8008 0.994141 9.0129 2.34333 8.34678 4.21995H4.03226C1.80887 4.21995 0 6.02882 0 8.25221V17.9296C0 20.153 1.80887 21.9619 4.03226 21.9619H12.2613V20.349H4.03226C2.69839 20.349 1.6129 19.2635 1.6129 17.9296V8.25221C1.6129 6.91833 2.69839 5.83285 4.03226 5.83285H8.06452C8.06452 7.3764 8.79355 8.74979 9.92258 9.63688C6.94839 10.8256 4.83871 13.7304 4.83871 17.1232V18.7361H20.9677V17.1232C20.9677 13.7304 18.8581 10.8256 15.8839 9.63688C17.0129 8.74979 17.7419 7.3764 17.7419 5.83285H21.7742C23.1081 5.83285 24.1936 6.91833 24.1936 8.25221V14.7248C23.2202 15.4619 22.5806 16.6183 22.5806 17.9296V18.3982H24.1936V17.9296C24.1936 16.5958 25.279 15.5103 26.6129 15.5103H30.6452C30.6452 17.053 31.3734 18.4256 32.5008 19.3127C31.0177 19.9038 29.7194 20.9264 28.7968 22.2909L30.1331 23.1933C30.9766 21.9449 32.2153 21.0595 33.6177 20.6353L33.1258 26.8006H31.3363V28.4135H43.5484V26.8006C43.5484 23.4079 41.4387 20.503 38.4645 19.3143C39.5936 18.4272 40.3226 17.0538 40.3226 15.5103H44.3548C45.6887 15.5103 46.7742 16.5958 46.7742 17.9296V27.607C46.7742 28.9409 45.6887 30.0264 44.3548 30.0264H42.4976L38.7097 32.5522V30.0264H31.3363V31.6393H37.0968V35.5651L42.9863 31.6393H44.3548C46.5782 31.6393 48.3871 29.8304 48.3871 27.607V17.9296C48.3871 15.7062 46.5782 13.8974 44.3548 13.8974ZM13.1282 10.6828L13.6427 17.1232H12.1637L12.6782 10.6828C12.7532 10.6804 12.8274 10.6716 12.9032 10.6716C12.979 10.6716 13.0532 10.6804 13.1282 10.6828ZM11.0387 10.949L10.5452 17.1232H6.45161C6.45161 14.2143 8.3879 11.7514 11.0387 10.949ZM19.3548 17.1232H15.2613L14.7685 10.949C17.4186 11.7514 19.3548 14.2143 19.3548 17.1232ZM12.9032 9.05866C11.1242 9.05866 9.67742 7.61188 9.67742 5.83285C9.67742 4.05382 11.1242 2.60704 12.9032 2.60704C14.6823 2.60704 16.129 4.05382 16.129 5.83285C16.129 7.61188 14.6823 9.05866 12.9032 9.05866ZM35.2581 20.3627C35.3339 20.3603 35.4081 20.349 35.4839 20.349C35.5597 20.349 35.6339 20.3579 35.7089 20.3603L36.2234 26.8006H34.7444L35.2581 20.3627ZM41.9355 26.8006H37.8419L37.3492 20.6264C39.9992 21.4288 41.9355 23.8917 41.9355 26.8006ZM35.4839 18.7361C33.7048 18.7361 32.2581 17.2893 32.2581 15.5103C32.2581 13.7312 33.7048 12.2845 35.4839 12.2845C37.2629 12.2845 38.7097 13.7312 38.7097 15.5103C38.7097 17.2893 37.2629 18.7361 35.4839 18.7361Z" fill="#381E54"/>
<path d="M43.5483 17.123H45.1612V18.7359H43.5483V17.123Z" fill="#381E54"/>
<path d="M43.5483 20.3491H45.1612V21.962H43.5483V20.3491Z" fill="#381E54"/>
<path d="M3.22583 7.4458H4.83873V9.0587H3.22583V7.4458Z" fill="#381E54"/>
<path d="M3.22583 10.6714H4.83873V12.2843H3.22583V10.6714Z" fill="#381E54"/>
<path d="M14.0589 38.8819L12.9185 37.7416L11.2903 39.3698L10.0113 38.0908L11.6395 36.4626L10.4992 35.3223L8.87097 36.9505L8.06452 36.144L1.07177 43.1376C0.380645 43.8279 0 44.7473 0 45.7239C0 47.7408 1.64113 49.3811 3.65806 49.3811C4.63548 49.3811 5.55403 49.0005 6.24435 48.3102L13.2371 41.3166L12.4306 40.5102L14.0589 38.8819ZM5.10403 47.1698C4.71774 47.5553 4.20403 47.7682 3.65806 47.7682C2.53064 47.7682 1.6129 46.8505 1.6129 45.7239C1.6129 45.1779 1.82581 44.665 2.2121 44.2779L8.06452 38.4247L10.9565 41.3166L5.10403 47.1698Z" fill="#381E54"/>
<path d="M20.1612 41.3166C13.4911 41.3166 8.06445 35.89 8.06445 29.2198C8.06445 22.5497 13.4911 17.123 20.1612 17.123C26.8314 17.123 32.258 22.5497 32.258 29.2198C32.258 35.89 26.8314 41.3166 20.1612 41.3166ZM20.1612 21.1553C15.7145 21.1553 12.0967 24.773 12.0967 29.2198C12.0967 33.6666 15.7145 37.2843 20.1612 37.2843C24.608 37.2843 28.2257 33.6666 28.2257 29.2198C28.2257 24.773 24.608 21.1553 20.1612 21.1553Z" fill="#EB0029"/>
<path d="M20.1613 38.0911C15.2701 38.0911 11.2903 34.1112 11.2903 29.2201C11.2903 24.329 15.2701 20.3491 20.1613 20.3491C25.0524 20.3491 29.0322 24.329 29.0322 29.2201C29.0322 34.1112 25.0524 38.0911 20.1613 38.0911ZM20.1613 21.962C16.1596 21.962 12.9032 25.2177 12.9032 29.2201C12.9032 33.2225 16.1596 36.4782 20.1613 36.4782C24.1629 36.4782 27.4193 33.2225 27.4193 29.2201C27.4193 25.2177 24.1629 21.962 20.1613 21.962Z" fill="#381E54"/>
<path d="M47.5805 36.478H33.0644C31.7305 36.478 30.645 37.5635 30.645 38.8974V48.5748C30.645 49.9087 31.7305 50.9942 33.0644 50.9942H47.5805C48.9144 50.9942 49.9999 49.9087 49.9999 48.5748V38.8974C49.9999 37.5635 48.9144 36.478 47.5805 36.478ZM48.387 48.5748C48.387 49.02 48.0249 49.3813 47.5805 49.3813H33.0644C32.62 49.3813 32.2579 49.02 32.2579 48.5748V38.8974C32.2579 38.4522 32.62 38.0909 33.0644 38.0909H47.5805C48.0249 38.0909 48.387 38.4522 48.387 38.8974V48.5748Z" fill="#381E54"/>
<path d="M45.1612 41.3165H43.5483V46.1552H41.9354V42.9294H40.3225V46.1552H38.7096V44.5423H37.0967V46.1552H35.4838V39.7036H33.8708V47.7681H46.7741V46.1552H45.1612V41.3165Z" fill="#381E54"/>
</svg>
