<svg width="50" height="50" viewBox="0 0 50 50" fill="none" xmlns="http://www.w3.org/2000/svg">
<path d="M40.322 46.7727H35.4834V41.9341H40.322V46.7727Z" fill="#EB0029"/>
<path d="M24.9998 37.0952C17.4402 37.0952 11.2903 30.9453 11.2903 23.3857C11.2903 15.8262 17.4402 9.67627 24.9998 9.67627C32.5593 9.67627 38.7092 15.8262 38.7092 23.3857C38.7092 30.9453 32.5593 37.0952 24.9998 37.0952ZM24.9998 13.7085C19.6635 13.7085 15.3225 18.0495 15.3225 23.3857C15.3225 28.722 19.6635 33.063 24.9998 33.063C30.336 33.063 34.677 28.722 34.677 23.3857C34.677 18.0495 30.336 13.7085 24.9998 13.7085Z" fill="#EB0029"/>
<path d="M24.9998 37.0952C17.4402 37.0952 11.2903 30.9453 11.2903 23.3857C11.2903 15.8262 17.4402 9.67627 24.9998 9.67627C32.5593 9.67627 38.7092 15.8262 38.7092 23.3857C38.7092 30.9453 32.5593 37.0952 24.9998 37.0952ZM24.9998 13.7085C19.6635 13.7085 15.3225 18.0495 15.3225 23.3857C15.3225 28.722 19.6635 33.063 24.9998 33.063C30.336 33.063 34.677 28.722 34.677 23.3857C34.677 18.0495 30.336 13.7085 24.9998 13.7085Z" fill="#EB0029"/>
<path d="M3.22583 37.0952H14.516V44.3532H3.22583V37.0952Z" fill="#EB0029"/>
<path d="M27.9021 39.0885C28.1021 38.7361 28.2255 38.3353 28.2255 37.9022V36.6958C27.6981 36.824 27.1618 36.9264 26.6126 36.9918V37.9022C26.6126 38.3474 26.2505 38.7087 25.8062 38.7087H24.1933C23.7489 38.7087 23.3868 38.3474 23.3868 37.9022V36.9918C22.8377 36.9272 22.3014 36.824 21.774 36.6958V37.9022C21.774 38.3353 21.8974 38.7361 22.0974 39.0885C21.4207 39.5175 20.9675 40.2691 20.9675 41.128V45.9666C20.9675 48.19 22.7764 49.9988 24.9997 49.9988C27.2231 49.9988 29.0319 48.19 29.0319 45.9666V41.128C29.0319 40.2691 28.5787 39.5175 27.9021 39.0885ZM27.419 45.9666C27.419 47.3005 26.3336 48.386 24.9997 48.386C23.6659 48.386 22.5804 47.3005 22.5804 45.9666V41.128C22.5804 40.6828 22.9425 40.3216 23.3868 40.3216H24.1933H25.8062H26.6126C27.057 40.3216 27.419 40.6828 27.419 41.128V45.9666Z" fill="#381E54"/>
<path d="M30.0746 18.7832L22.5803 26.2774L19.9247 23.6218L18.7844 24.7621L22.5803 28.5581L31.2149 19.9235L30.0746 18.7832Z" fill="#381E54"/>
<path d="M38.6682 22.5791C38.6843 22.8476 38.7093 23.113 38.7093 23.3855C38.7093 23.6581 38.6843 23.9234 38.6682 24.192H48.3866V41.9336H41.9351V48.3852H33.8707V33.8193C33.3642 34.2507 32.8239 34.6394 32.2578 34.995V49.998H43.0754L49.9995 43.074V22.5791H38.6682ZM47.2463 43.5465L43.548 47.2449V43.5465H47.2463Z" fill="#381E54"/>
<path d="M35.4834 35.4824H46.7736V37.0953H35.4834V35.4824Z" fill="#381E54"/>
<path d="M35.4834 38.708H46.7736V40.3209H35.4834V38.708Z" fill="#381E54"/>
<path d="M11.5168 20.9664H2.41932C1.97497 20.9664 1.61288 20.6052 1.61288 20.16V18.5471C1.61288 18.102 1.97497 17.7407 2.41932 17.7407H12.5208C12.7748 17.1818 13.0667 16.6439 13.3901 16.1278H4.0322V14.5149H14.5659C15.0603 13.9343 15.6006 13.3932 16.1836 12.9021H2.41932C1.97497 12.9021 1.61288 12.5408 1.61288 12.0956V10.4827C1.61288 10.0376 1.97497 9.6763 2.41932 9.6763H20.161C20.5384 9.6763 20.8416 9.94242 20.9287 10.2932C21.4408 10.1335 21.9698 10.0134 22.5053 9.915C22.2489 8.85534 21.2989 8.06342 20.161 8.06342V6.45054C21.4948 6.45054 22.5803 5.36507 22.5803 4.03122V2.41834C22.5803 1.08449 21.4948 -0.000976562 20.161 -0.000976562H2.41932C1.08547 -0.000976562 0 1.08449 0 2.41834V4.03122C0 5.36507 1.08547 6.45054 2.41932 6.45054V8.06342C1.08547 8.06342 0 9.14889 0 10.4827V12.0956C0 13.4295 1.08547 14.5149 2.41932 14.5149V16.1278C1.08547 16.1278 0 17.2133 0 18.5471V20.16C0 21.4939 1.08547 22.5793 2.41932 22.5793H11.3313C11.3627 22.0326 11.4224 21.4939 11.5168 20.9664ZM18.5481 8.06342H4.0322V6.45054H18.5481V8.06342ZM1.61288 4.03122V2.41834C1.61288 1.97319 1.97497 1.6119 2.41932 1.6119H20.161C20.6053 1.6119 20.9674 1.97319 20.9674 2.41834V4.03122C20.9674 4.47638 20.6053 4.83766 20.161 4.83766H2.41932C1.97497 4.83766 1.61288 4.47638 1.61288 4.03122Z" fill="#381E54"/>
<path d="M35.4834 32.2019V33.8696H46.7736V25.8052H38.4825C38.3842 26.3536 38.264 26.8939 38.1027 27.4181H45.1607V32.2567H37.0963V29.8237C36.6414 30.6745 36.1003 31.4696 35.4834 32.2019Z" fill="#381E54"/>
<path d="M35.4835 23.3856C35.4835 17.605 30.7804 12.9019 24.9998 12.9019C19.2193 12.9019 14.5161 17.605 14.5161 23.3856C14.5161 29.1661 19.2193 33.8693 24.9998 33.8693C30.7804 33.8693 35.4835 29.1661 35.4835 23.3856ZM16.129 23.3856C16.129 18.4945 20.1088 14.5147 24.9998 14.5147C29.8909 14.5147 33.8707 18.4945 33.8707 23.3856C33.8707 28.2766 29.8909 32.2564 24.9998 32.2564C20.1088 32.2564 16.129 28.2766 16.129 23.3856Z" fill="#381E54"/>
<path d="M3.22583 36.2886H14.516V37.9015H3.22583V36.2886Z" fill="#381E54"/>
<path d="M3.22583 39.5146H14.516V41.1275H3.22583V39.5146Z" fill="#381E54"/>
<path d="M12.9031 42.7402H14.516V44.3531H12.9031V42.7402Z" fill="#381E54"/>
<path d="M9.67725 42.7402H11.2901V44.3531H9.67725V42.7402Z" fill="#381E54"/>
<path d="M3.22583 42.7402H4.83871V44.3531H3.22583V42.7402Z" fill="#381E54"/>
<path d="M6.45142 42.7402H8.06429V44.3531H6.45142V42.7402Z" fill="#381E54"/>
</svg>
