<svg width="50" height="51" viewBox="0 0 50 51" fill="none" xmlns="http://www.w3.org/2000/svg">
<path d="M24.1808 19.52C24.1808 13.7369 19.4824 9.03613 13.7022 9.03613C7.92206 9.03613 3.22363 13.7369 3.22363 19.52C3.22363 25.303 7.92206 30.0038 13.7022 30.0038C19.4824 30.0038 24.1808 25.303 24.1808 19.52ZM4.82984 19.52C4.82984 14.6333 8.80712 10.6431 13.7022 10.6431C18.5973 10.6431 22.5746 14.6224 22.5746 19.52C22.5746 24.4175 18.5973 28.3968 13.7022 28.3968C8.80712 28.3968 4.82984 24.4066 4.82984 19.52Z" fill="#291956"/>
<path d="M18.7871 14.7119L10.4939 23.0094L8.64729 21.1619L7.5 22.2988L10.4939 25.2942L19.9344 15.8489L18.7871 14.7119Z" fill="#EB0029"/>
<path d="M47.5524 6.50013L47.4541 5.81141H44.5149C40.4283 5.81141 36.4838 4.34654 33.3807 1.69008C32.299 0.76086 30.5726 0.76086 29.4908 1.69008C26.3877 4.34654 22.4432 5.81141 18.3566 5.81141H13.7019C6.14073 5.81141 0 11.9661 0 19.5201C0 25.9699 4.4799 31.3813 10.4786 32.8352V35.6556C10.4786 36.0929 10.5988 36.4865 10.8064 36.8472C10.1289 37.2736 9.68094 38.0279 9.68094 38.8915V46.9593C9.68094 49.1785 11.4838 50.9932 13.7128 50.9932C15.9419 50.9932 17.7448 49.1894 17.7448 46.9593V38.8915C17.7448 38.0279 17.2968 37.2845 16.6193 36.8472C16.816 36.4974 16.9471 36.0929 16.9471 35.6556V34.3329C20.542 37.4922 25.7102 40.6406 27.9939 41.9743C29.0428 42.5865 30.2448 42.9145 31.4576 42.9145C32.6705 42.9145 33.8724 42.5865 34.9213 41.9743C40.5485 38.6838 50 32.54 50 28.3968C49.9781 23.554 47.6508 7.18884 47.5524 6.50013ZM1.60621 19.5201C1.60621 12.8516 7.02579 7.41841 13.7019 7.41841C20.3781 7.41841 25.7976 12.8407 25.7976 19.5201C25.7976 26.1995 20.3781 31.6218 13.7019 31.6218C7.02579 31.6218 1.60621 26.1886 1.60621 19.5201ZM24.1805 28.3312C26.191 25.9481 27.4038 22.8653 27.4038 19.5091C27.4038 17.1806 26.8138 14.9833 25.7867 13.0593H38.691V30.8019H24.1805V28.3312ZM40.3081 32.4198V11.4523H24.7596C24.3881 10.9385 23.9838 10.4575 23.5468 9.99833C26.3986 9.29869 29.0975 8.05245 31.4357 6.31427C34.8558 8.85048 38.9969 10.3482 43.2365 10.5996C43.7719 14.546 45.0721 24.5488 45.1377 28.1235C44.635 29.2058 41.0621 32.7587 32.4628 37.7764C31.84 38.1372 31.0315 38.1372 30.4087 37.7764C25.6337 34.9779 22.6071 32.7587 20.7605 31.2282C21.3942 30.8456 22.0061 30.4192 22.5634 29.9382V32.4088H40.3081V32.4198ZM13.7019 33.2287C14.2483 33.2287 14.7837 33.185 15.3191 33.1304V35.6556C15.3191 36.1038 14.9585 36.4646 14.5105 36.4646H12.8934C12.4454 36.4646 12.0848 36.1038 12.0848 35.6556V33.1304C12.6202 33.185 13.1556 33.2287 13.7019 33.2287ZM16.1167 46.9374C16.1167 48.2711 15.035 49.3534 13.7019 49.3534C12.3689 49.3534 11.2872 48.2711 11.2872 46.9374V38.8696C11.2872 38.4214 11.6477 38.0607 12.0957 38.0607H12.9043H14.5214H15.33C15.778 38.0607 16.1385 38.4214 16.1385 38.8696V46.9374H16.1167ZM34.0909 40.575C32.4847 41.5152 30.3868 41.5152 28.7806 40.575C26.4314 39.1976 20.979 35.8743 17.5044 32.6821C18.0944 32.5072 18.6735 32.2995 19.2308 32.059C21.0664 33.6442 24.2788 36.0711 29.6001 39.1867C30.1573 39.5146 30.7911 39.6786 31.4467 39.6786C32.0913 39.6786 32.736 39.5037 33.2933 39.1757C41.7504 34.2345 46.1866 30.1897 46.733 28.528L46.7767 28.3968V28.2657C46.7439 24.516 45.236 13.114 44.7662 9.71413L44.6788 9.03635L43.9904 9.01447C39.6416 8.89421 35.3693 7.35283 31.9602 4.66357L31.4576 4.27L30.955 4.66357C28.3872 6.68598 25.3169 8.06341 22.0717 8.66467C21.427 8.1618 20.7386 7.71356 20.0066 7.34188C23.8855 7.00299 27.5896 5.46158 30.5616 2.90351C31.0533 2.47716 31.851 2.47716 32.3536 2.90351C35.7408 5.81141 40.0677 7.41841 44.5367 7.41841H46.0774C46.5253 10.6433 48.3938 24.2099 48.3938 28.3859C48.361 30.7253 42.7666 35.5135 34.0909 40.575Z" fill="#291956"/>
<path d="M29.021 14.6772H37.0848V16.2951H29.021V14.6772Z" fill="#291956"/>
<path d="M29.021 17.9019H37.0848V19.5199H29.021V17.9019Z" fill="#291956"/>
<path d="M29.021 21.127H30.6381V22.7448H29.021V21.127Z" fill="#291956"/>
<path d="M32.2439 21.127H37.0844V22.7448H32.2439V21.127Z" fill="#291956"/>
<path d="M29.021 24.3628H37.0848V25.9807H29.021V24.3628Z" fill="#291956"/>
<path d="M28.75 27.8071H36.8138V29.4251H28.75V27.8071Z" fill="#291956"/>
</svg>
