<svg width="50" height="50" viewBox="0 0 50 50" fill="none" xmlns="http://www.w3.org/2000/svg">
<path d="M50 9.67633H40.3225V1.61182H50V9.67633Z" fill="#EB0029"/>
<path d="M50 20.9669H40.3225V12.9023H50V20.9669Z" fill="#EB0029"/>
<path d="M50 32.2569H40.3225V24.1924H50V32.2569Z" fill="#EB0029"/>
<path d="M17.7417 3.22461H32.2579V7.25687H17.7417V3.22461Z" fill="#EB0029"/>
<path d="M14.5161 11.2891V22.7891C15.55 23.5108 16.3298 24.5681 16.6984 25.8052H19.3548V11.2891H14.5161Z" fill="#EB0029"/>
<path d="M25.8067 24.192V16.1274H20.968V25.8049H24.1938L25.8067 24.192Z" fill="#EB0029"/>
<path d="M27.4192 9.67627V22.423L27.5144 22.4843L27.5571 22.4416C27.9845 22.0142 28.5652 21.7738 29.17 21.7738C30.4305 21.773 31.4515 22.794 31.4515 24.0537C31.4515 24.3488 31.3926 24.6368 31.2845 24.9053L32.2579 24.1859V9.67627H27.4192Z" fill="#EB0029"/>
<path d="M43.5483 4.8374H46.7742V6.45031H43.5483V4.8374Z" fill="#381E54"/>
<path d="M43.5483 16.1279H46.7742V17.7408H43.5483V16.1279Z" fill="#381E54"/>
<path d="M43.5483 27.4185H46.7742V29.0314H43.5483V27.4185Z" fill="#381E54"/>
<path d="M37.0969 16.1281H35.484V-0.000976562H14.9888L6.45164 8.53612V23.1652C5.45083 24.3022 4.83873 25.7885 4.83873 27.4184C4.83873 29.4329 5.76777 31.2329 7.21858 32.4176C3.11534 33.1942 0 36.8014 0 41.1281V49.999H18.5485V39.6531C18.5485 39.2595 18.7017 38.8893 18.9807 38.6103L23.7211 33.87H35.484V17.741H37.0969V29.0313H40.3228V27.4184H38.7099V17.741H40.3228V16.1281H38.7099V6.45064H40.3228V4.83773H37.0969V16.1281ZM14.5162 2.75225V8.06354H9.20488L14.5162 2.75225ZM6.45164 27.4184C6.45164 24.7498 8.62181 22.5797 11.2904 22.5797C13.9589 22.5797 16.1291 24.7498 16.1291 27.4184C16.1291 30.0869 13.9589 32.2571 11.2904 32.2571C8.62181 32.2571 6.45164 30.0869 6.45164 27.4184ZM13.6751 33.4079C13.5057 34.5781 12.5065 35.4829 11.2904 35.4829C10.0742 35.4829 9.07504 34.5781 8.90569 33.4079C9.6444 33.7031 10.4476 33.87 11.2904 33.87C12.1331 33.87 12.9363 33.7031 13.6751 33.4079ZM17.8404 37.47C17.2565 38.0539 16.9356 38.8289 16.9356 39.6531V48.3861H5.64519V38.7087H4.03228V48.3861H1.61291V41.1281C1.61291 37.6345 4.09437 34.7111 7.38632 34.024C7.8202 35.7829 9.40004 37.0958 11.2904 37.0958C13.4138 37.0958 15.1404 35.4402 15.2928 33.3547C17.4291 32.8289 19.4146 31.724 20.9727 30.166L28.1275 23.0111C28.4066 22.7329 28.7767 22.5797 29.1703 22.5797C29.984 22.5797 30.6453 23.241 30.6453 24.0547C30.6453 24.4482 30.4921 24.8184 30.213 25.0974L17.8404 37.47ZM33.8711 32.2571H25.334L31.3534 26.2377C31.9372 25.6539 32.2582 24.8789 32.2582 24.0547C32.2582 22.3514 30.8735 20.9668 29.1703 20.9668C28.3461 20.9668 27.5703 21.2877 26.9872 21.8716L19.8323 29.0264C18.863 29.9958 17.7025 30.7619 16.4404 31.2877C17.2541 30.2071 17.742 28.8708 17.742 27.4184C17.742 23.8611 14.8476 20.9668 11.2904 20.9668C10.1146 20.9668 9.01456 21.2877 8.06455 21.8393V9.67644H16.1291V1.61193H33.8711V32.2571Z" fill="#381E54"/>
<path d="M30.645 3.22461H32.2579V4.83751H30.645V3.22461Z" fill="#381E54"/>
<path d="M27.4194 3.22461H29.0323V4.83751H27.4194V3.22461Z" fill="#381E54"/>
<path d="M17.7419 3.22461H25.8065V4.83751H17.7419V3.22461Z" fill="#381E54"/>
<path d="M17.7419 6.45068H32.2581V8.06359H17.7419V6.45068Z" fill="#381E54"/>
<path d="M9.67749 11.2891H11.2904V12.902H9.67749V11.2891Z" fill="#381E54"/>
<path d="M9.67749 14.5151H11.2904V16.128H9.67749V14.5151Z" fill="#381E54"/>
<path d="M9.67749 17.7407H11.2904V19.3536H9.67749V17.7407Z" fill="#381E54"/>
</svg>
