<svg width="60" height="60" viewBox="0 0 60 60" fill="none" xmlns="http://www.w3.org/2000/svg">
<path d="M32.3996 51.6542L39.8672 54.8949C40.1915 55.0358 40.5745 55.0358 40.8987 54.8949L48.3664 51.6591C52.6795 49.8063 55.4013 45.9877 55.383 41.8161V22.9979C55.383 22.4459 54.866 21.9979 54.2291 21.9979H26.5368C25.8999 21.9979 25.3829 22.4459 25.3829 22.9979V41.8161C25.3668 45.9867 28.0876 49.8014 32.3996 51.6542ZM47.3349 49.8654L41.5369 52.3771V38.9963H53.0753V41.8161C53.088 45.2278 50.8622 48.3494 47.3349 49.8654ZM53.0753 36.9966H41.5369V23.9978H53.0753V36.9966ZM39.2291 23.9978V36.9966H27.6907V23.9978H39.2291ZM27.6907 38.9963H39.2291V52.3771L33.4311 49.8654C29.9038 48.3496 27.678 45.2278 27.6907 41.8161V38.9963Z" fill="#EB0029"/>
<path d="M1.1539 55.9947H30.8885C30.9185 56.0077 30.945 56.0227 30.9751 56.0357L39.8688 59.8943C40.1931 60.0352 40.5761 60.0352 40.9003 59.8943L49.7941 56.0406C56.0676 53.3449 60.0253 47.7924 59.9999 41.7249V18.9982C59.9999 18.4463 59.4829 17.9983 58.846 17.9983H50.7691V8.99919C50.7691 8.44724 50.2521 7.99924 49.6152 7.99924H46.1538V4.99951C46.1538 4.44756 45.6368 3.99956 44.9999 3.99956H13.8462C13.8462 1.79072 11.7797 0 9.2309 0C6.68213 0 4.61558 1.79084 4.61558 3.99956H1.1539C0.516975 3.99956 0 4.44756 0 4.99951V54.9947C0 55.5467 0.515758 55.9947 1.1539 55.9947ZM57.6922 41.725C57.713 47.0325 54.2503 51.8891 48.7626 54.2458L40.3846 57.8764L32.0066 54.2458C26.5189 51.8891 23.0561 47.0325 23.077 41.725V19.998H57.6924V41.725H57.6922ZM48.4615 9.99902V17.9983H46.1538V9.99902H48.4615ZM9.23076 1.99978C10.5058 1.99978 11.5384 2.89473 11.5384 3.99956H6.9231C6.9231 2.89473 7.9557 1.99978 9.23076 1.99978ZM2.30766 5.99946H11.5384V8.99919C11.5384 9.55113 11.0214 9.99914 10.3845 9.99914C9.7476 9.99914 9.23063 9.55113 9.23063 8.99919V7.99924H6.9231V8.99919C6.9231 10.6561 8.47268 11.9989 10.3847 11.9989C12.2966 11.9989 13.8462 10.6561 13.8462 8.99919V5.99946H43.8461V17.9983H21.9231C21.2862 17.9983 20.7692 18.4463 20.7692 18.9982V41.725C20.7531 46.4656 23.1796 50.9641 27.3853 53.9949H2.30766V5.99946Z" fill="#291956"/>
<path d="M10.3819 18.9983H8.07422V20.9981H10.3819V18.9983Z" fill="#291956"/>
<path d="M17.3028 18.9983H12.6875V20.9981H17.3028V18.9983Z" fill="#291956"/>
<path d="M17.304 22.9977H5.76562V24.9975H17.304V22.9977Z" fill="#291956"/>
<path d="M25.3819 8.9989H23.0742V10.9987H25.3819V8.9989Z" fill="#291956"/>
<path d="M40.3798 8.9989H27.6875V10.9987H40.3798V8.9989Z" fill="#291956"/>
<path d="M38.0732 12.9987H20.7656V14.9984H38.0732V12.9987Z" fill="#291956"/>
<path d="M17.304 26.9974H5.76562V28.9972H17.304V26.9974Z" fill="#291956"/>
<path d="M14.9964 30.9972H5.76562V32.997H14.9964V30.9972Z" fill="#291956"/>
<path d="M10.3819 36.9965H8.07422V38.9962H10.3819V36.9965Z" fill="#291956"/>
<path d="M17.3028 36.9965H12.6875V38.9962H17.3028V36.9965Z" fill="#291956"/>
<path d="M17.304 40.9962H5.76562V42.996H17.304V40.9962Z" fill="#291956"/>
<path d="M17.304 44.9956H5.76562V46.9954H17.304V44.9956Z" fill="#291956"/>
<path d="M14.9964 48.9954H5.76562V50.9951H14.9964V48.9954Z" fill="#291956"/>
</svg>
