<svg width="60" height="60" viewBox="0 0 60 60" fill="none" xmlns="http://www.w3.org/2000/svg">
<path d="M53.2258 15.4839H48.0484C47.249 13.2319 45.1035 11.6129 42.5806 11.6129C40.0577 11.6129 37.9123 13.2319 37.1129 15.4839H31.9355C31.6045 15.4839 31.2803 15.5177 30.9677 15.5816V8.70968C30.9677 6.04161 28.7971 3.87097 26.129 3.87097H20.9516C20.1523 1.61903 18.0068 0 15.4839 0C12.961 0 10.8155 1.61903 10.0161 3.87097H4.83871C2.17065 3.87097 0 6.04161 0 8.70968V20.3226C0 22.9906 2.17065 25.1613 4.83871 25.1613H14.7135V23.2258H4.83871C3.23806 23.2258 1.93548 21.9232 1.93548 20.3226V8.70968C1.93548 7.10903 3.23806 5.80645 4.83871 5.80645H9.67742C9.67742 7.65871 10.5523 9.30677 11.9071 10.3713C8.33807 11.7977 5.80645 15.2835 5.80645 19.3548V21.2903H25.1613V19.3548C25.1613 15.2835 22.6297 11.7977 19.0606 10.3713C20.4155 9.30677 21.2903 7.65871 21.2903 5.80645H26.129C27.7297 5.80645 29.0323 7.10903 29.0323 8.70968V16.4768C27.8642 17.3613 27.0968 18.749 27.0968 20.3226V20.8848H29.0323V20.3226C29.0323 18.7219 30.3348 17.4194 31.9355 17.4194H36.7742C36.7742 19.2706 37.6481 20.9177 39.001 21.9823C37.2213 22.6916 35.6632 23.9187 34.5561 25.5561L36.1597 26.639C37.1719 25.141 38.6584 24.0784 40.3413 23.5694L39.751 30.9677H37.6035V32.9032H52.2581V30.9677C52.2581 26.8965 49.7265 23.4106 46.1574 21.9842C47.5123 20.9197 48.3871 19.2716 48.3871 17.4194H53.2258C54.8265 17.4194 56.129 18.7219 56.129 20.3226V31.9355C56.129 33.5361 54.8265 34.8387 53.2258 34.8387H50.9971L46.4516 37.8697V34.8387H37.6035V36.7742H44.5161V41.4852L51.5835 36.7742H53.2258C55.8939 36.7742 58.0645 34.6035 58.0645 31.9355V20.3226C58.0645 17.6545 55.8939 15.4839 53.2258 15.4839ZM15.7539 11.6265L16.3713 19.3548H14.5965L15.2139 11.6265C15.3039 11.6235 15.3929 11.6129 15.4839 11.6129C15.5748 11.6129 15.6639 11.6235 15.7539 11.6265ZM13.2465 11.9458L12.6542 19.3548H7.74194C7.74194 15.8642 10.0655 12.9087 13.2465 11.9458ZM23.2258 19.3548H18.3135L17.7223 11.9458C20.9023 12.9087 23.2258 15.8642 23.2258 19.3548ZM15.4839 9.67742C13.349 9.67742 11.6129 7.94129 11.6129 5.80645C11.6129 3.67161 13.349 1.93548 15.4839 1.93548C17.6187 1.93548 19.3548 3.67161 19.3548 5.80645C19.3548 7.94129 17.6187 9.67742 15.4839 9.67742ZM42.3097 23.2423C42.4006 23.2394 42.4897 23.2258 42.5806 23.2258C42.6716 23.2258 42.7606 23.2365 42.8506 23.2394L43.4681 30.9677H41.6932L42.3097 23.2423ZM50.3226 30.9677H45.4103L44.819 23.5587C47.999 24.5216 50.3226 27.4771 50.3226 30.9677ZM42.5806 21.2903C40.4458 21.2903 38.7097 19.5542 38.7097 17.4194C38.7097 15.2845 40.4458 13.5484 42.5806 13.5484C44.7155 13.5484 46.4516 15.2845 46.4516 17.4194C46.4516 19.5542 44.7155 21.2903 42.5806 21.2903Z" fill="#381E54"/>
<path d="M52.2578 19.3549H54.1933V21.2903H52.2578V19.3549Z" fill="#381E54"/>
<path d="M52.2578 23.2258H54.1933V25.1613H52.2578V23.2258Z" fill="#381E54"/>
<path d="M3.87109 7.74194H5.80658V9.67743H3.87109V7.74194Z" fill="#381E54"/>
<path d="M3.87109 11.6129H5.80658V13.5484H3.87109V11.6129Z" fill="#381E54"/>
<path d="M16.8706 45.4656L15.5023 44.0972L13.5484 46.0511L12.0135 44.5162L13.9674 42.5624L12.599 41.194L10.6452 43.1478L9.67742 42.1801L1.28613 50.5724C0.456774 51.4007 0 52.504 0 53.6759C0 56.0962 1.96935 58.0646 4.38968 58.0646C5.56258 58.0646 6.66484 57.6078 7.49323 56.7795L15.8845 48.3872L14.9168 47.4195L16.8706 45.4656ZM6.12484 55.4111C5.66129 55.8736 5.04484 56.1291 4.38968 56.1291C3.03677 56.1291 1.93548 55.0278 1.93548 53.6759C1.93548 53.0207 2.19097 52.4053 2.65452 51.9407L9.67742 44.9169L13.1477 48.3872L6.12484 55.4111Z" fill="#381E54"/>
<path d="M24.1919 48.3871C16.1877 48.3871 9.67578 41.8752 9.67578 33.871C9.67578 25.8668 16.1877 19.3549 24.1919 19.3549C32.1961 19.3549 38.708 25.8668 38.708 33.871C38.708 41.8752 32.1961 48.3871 24.1919 48.3871ZM24.1919 24.1936C18.8558 24.1936 14.5145 28.5349 14.5145 33.871C14.5145 39.2071 18.8558 43.5484 24.1919 43.5484C29.528 43.5484 33.8693 39.2071 33.8693 33.871C33.8693 28.5349 29.528 24.1936 24.1919 24.1936Z" fill="#EB0029"/>
<path d="M24.192 44.5162C18.3227 44.5162 13.5469 39.7403 13.5469 33.871C13.5469 28.0016 18.3227 23.2258 24.192 23.2258C30.0614 23.2258 34.8372 28.0016 34.8372 33.871C34.8372 39.7403 30.0614 44.5162 24.192 44.5162ZM24.192 25.1613C19.3901 25.1613 15.4824 29.0681 15.4824 33.871C15.4824 38.6739 19.3901 42.5807 24.192 42.5807C28.994 42.5807 32.9017 38.6739 32.9017 33.871C32.9017 29.0681 28.994 25.1613 24.192 25.1613Z" fill="#381E54"/>
<path d="M57.096 42.5807H39.6767C38.076 42.5807 36.7734 43.8833 36.7734 45.4839V57.0968C36.7734 58.6975 38.076 60 39.6767 60H57.096C58.6967 60 59.9992 58.6975 59.9992 57.0968V45.4839C59.9992 43.8833 58.6967 42.5807 57.096 42.5807ZM58.0638 57.0968C58.0638 57.631 57.6292 58.0646 57.096 58.0646H39.6767C39.1434 58.0646 38.7089 57.631 38.7089 57.0968V45.4839C38.7089 44.9497 39.1434 44.5162 39.6767 44.5162H57.096C57.6292 44.5162 58.0638 44.9497 58.0638 45.4839V57.0968Z" fill="#381E54"/>
<path d="M54.1929 48.3871H52.2574V54.1936H50.3219V50.3226H48.3865V54.1936H46.451V52.2581H44.5155V54.1936H42.58V46.4517H40.6445V56.1291H56.1284V54.1936H54.1929V48.3871Z" fill="#381E54"/>
</svg>
