<svg width="138" height="151" viewBox="0 0 138 151" fill="none" xmlns="http://www.w3.org/2000/svg">
<path d="M0 1.02051L51 1.02051L51 71.0205" stroke="#DADADA"/>
<path d="M93 120.771H137.003" stroke="#DADADA"/>
<circle cx="50.5" cy="70.5205" r="5.5" fill="#EB0029"/>
<path d="M35.4516 130.666C26.38 130.666 19 123.286 19 114.215C19 105.143 26.38 97.7631 35.4516 97.7631C44.5232 97.7631 51.9032 105.143 51.9032 114.215C51.9032 123.286 44.5232 130.666 35.4516 130.666ZM35.4516 102.602C29.0481 102.602 23.8387 107.811 23.8387 114.215C23.8387 120.618 29.0481 125.828 35.4516 125.828C41.8552 125.828 47.0645 120.618 47.0645 114.215C47.0645 107.811 41.8552 102.602 35.4516 102.602Z" fill="#EB0029"/>
<path d="M38.9349 133.058C39.1749 132.636 39.323 132.154 39.323 131.634V130.187C38.6901 130.34 38.0465 130.463 37.3875 130.542V131.635C37.3875 132.168 36.9539 132.603 36.4197 132.603H34.4842C33.9501 132.603 33.5165 132.168 33.5165 131.635V130.542C32.8575 130.464 32.2139 130.34 31.581 130.187V131.634C31.581 132.154 31.7291 132.635 31.9691 133.058C31.1572 133.574 30.6133 134.475 30.6133 135.505V145.182C30.6133 147.85 32.7839 150.02 35.452 150.02C38.1201 150.02 40.2907 147.85 40.2907 145.182V135.505C40.2907 134.475 39.7468 133.574 38.9349 133.058ZM38.3552 145.182C38.3552 146.782 37.0526 148.085 35.452 148.085C33.8513 148.085 32.5488 146.782 32.5488 145.182V135.505C32.5488 134.972 32.9823 134.537 33.5165 134.537H34.4842H36.4197H37.3875C37.9217 134.537 38.3552 134.972 38.3552 135.505V145.182Z" fill="#381E54"/>
<path d="M30.6133 107.81V120.619L43.4223 114.214L30.6133 107.81ZM32.5488 110.941L39.0946 114.214L32.5488 117.487V110.941Z" fill="#381E54"/>
<path d="M51.8596 115.132C51.8228 115.793 51.7522 116.444 51.6389 117.083C57.1822 116.719 61.5835 112.106 61.5835 106.472C61.5835 100.603 56.8077 95.8271 50.9383 95.8271C47.8425 95.8271 44.8977 97.2139 42.8828 99.5549C43.4673 99.853 44.0383 100.173 44.5812 100.536C46.2196 98.7846 48.5277 97.7626 50.9383 97.7626C55.7412 97.7626 59.648 101.67 59.648 106.472C59.648 110.965 56.2299 114.671 51.8596 115.132Z" fill="#381E54"/>
<path d="M42.2057 94.6444L44.3482 95.7466L44.8021 95.4931C45.644 95.0218 46.5547 94.6463 47.5089 94.3773L48.0092 94.236L48.7379 91.956H53.1324L53.8621 94.236L54.3624 94.3773C55.3166 94.6463 56.2273 95.0228 57.0692 95.4931L57.5231 95.7466L59.6463 94.6541L62.7547 97.7615L61.6611 99.8857L61.9157 100.339C62.384 101.178 62.7595 102.087 63.0305 103.044L63.1718 103.545L65.4518 104.274V108.669L63.1718 109.4L63.0305 109.9C62.7595 110.857 62.384 111.767 61.9157 112.606L61.6611 113.059L62.7547 115.183L59.6463 118.29L57.5221 117.198L57.0692 117.451C56.2292 117.921 55.3186 118.298 54.3624 118.567L53.8621 118.708L53.1334 120.988H50.4276C50.1228 121.659 49.7724 122.304 49.3844 122.924H54.5463L55.394 120.278C56.1421 120.037 56.865 119.74 57.5511 119.389L60.0179 120.658L65.1218 115.554L63.8521 113.088C64.2024 112.401 64.5005 111.68 64.7415 110.931L67.3873 110.081V102.862L64.7415 102.015C64.5005 101.266 64.2024 100.544 63.8521 99.8576L65.1218 97.3908L60.0179 92.287L57.5511 93.5566C56.8631 93.2053 56.1411 92.9073 55.394 92.6673L54.5444 90.0205H47.326L46.4782 92.6663C45.7311 92.9063 45.0082 93.2044 44.3211 93.5557L41.8737 92.2957L36.0547 97.7924C36.914 97.8234 37.7598 97.9095 38.5805 98.0692L42.2057 94.6444Z" fill="#381E54"/>
<path d="M48.0324 114.214C48.0324 107.278 42.3885 101.634 35.4517 101.634C28.515 101.634 22.8711 107.278 22.8711 114.214C22.8711 121.151 28.515 126.795 35.4517 126.795C42.3885 126.795 48.0324 121.151 48.0324 114.214ZM24.8066 114.214C24.8066 108.345 29.5824 103.569 35.4517 103.569C41.3211 103.569 46.0969 108.345 46.0969 114.214C46.0969 120.084 41.3211 124.86 35.4517 124.86C29.5824 124.86 24.8066 120.084 24.8066 114.214Z" fill="#381E54"/>
<path d="M71.2588 122.924V148.086H69.3233V126.795H61.5814V148.086H59.6459V130.666H51.904V148.086H49.9685V134.537H42.2266V150.021H79.0008V122.924H71.2588ZM48.033 148.086H44.162V136.473H48.033V148.086ZM63.5169 128.731H67.3879V148.086H63.5169V128.731ZM53.8395 132.602H57.7104V148.086H53.8395V132.602ZM77.0653 148.086H73.1943V124.86H77.0653V148.086Z" fill="#381E54"/>
<circle cx="92.5" cy="120.521" r="5.5" fill="#EB0029"/>
</svg>
