<svg width="134" height="60" viewBox="0 0 134 60" fill="none" xmlns="http://www.w3.org/2000/svg">
<path d="M106.403 51.6543L113.871 54.895C114.195 55.036 114.578 55.036 114.903 54.895L122.37 51.6592C126.683 49.8064 129.405 45.9878 129.387 41.8162V22.998C129.387 22.446 128.87 21.998 128.233 21.998H100.541C99.9038 21.998 99.3868 22.446 99.3868 22.998V41.8162C99.3707 45.9869 102.091 49.8015 106.403 51.6543ZM121.339 49.8655L115.541 52.3772V38.9965H127.079V41.8162C127.092 45.228 124.866 48.3496 121.339 49.8655ZM127.079 36.9967H115.541V23.9979H127.079V36.9967ZM113.233 23.9979V36.9967H101.695V23.9979H113.233ZM101.695 38.9965H113.233V52.3772L107.435 49.8655C103.908 48.3497 101.682 45.228 101.695 41.8162V38.9965Z" fill="#EB0029"/>
<path d="M75.1539 55.9947H104.889C104.919 56.0077 104.945 56.0227 104.975 56.0357L113.869 59.8943C114.193 60.0352 114.576 60.0352 114.9 59.8943L123.794 56.0406C130.068 53.3449 134.025 47.7924 134 41.7249V18.9982C134 18.4463 133.483 17.9983 132.846 17.9983H124.769V8.99919C124.769 8.44724 124.252 7.99924 123.615 7.99924H120.154V4.99951C120.154 4.44756 119.637 3.99956 119 3.99956H87.8462C87.8462 1.79072 85.7797 0 83.2309 0C80.6821 0 78.6156 1.79084 78.6156 3.99956H75.1539C74.517 3.99956 74 4.44756 74 4.99951V54.9947C74 55.5467 74.5158 55.9947 75.1539 55.9947ZM131.692 41.725C131.713 47.0325 128.25 51.8891 122.763 54.2458L114.385 57.8764L106.007 54.2458C100.519 51.8891 97.0561 47.0325 97.077 41.725V19.998H131.692V41.725H131.692ZM122.461 9.99902V17.9983H120.154V9.99902H122.461ZM83.2308 1.99978C84.5058 1.99978 85.5384 2.89473 85.5384 3.99956H80.9231C80.9231 2.89473 81.9557 1.99978 83.2308 1.99978ZM76.3077 5.99946H85.5384V8.99919C85.5384 9.55113 85.0214 9.99914 84.3845 9.99914C83.7476 9.99914 83.2306 9.55113 83.2306 8.99919V7.99924H80.9231V8.99919C80.9231 10.6561 82.4727 11.9989 84.3847 11.9989C86.2966 11.9989 87.8462 10.6561 87.8462 8.99919V5.99946H117.846V17.9983H95.9231C95.2862 17.9983 94.7692 18.4463 94.7692 18.9982V41.725C94.7531 46.4656 97.1796 50.9641 101.385 53.9949H76.3077V5.99946Z" fill="#291956"/>
<path d="M84.3819 18.998H82.0742V20.9978H84.3819V18.998Z" fill="#291956"/>
<path d="M91.3028 18.998H86.6875V20.9978H91.3028V18.998Z" fill="#291956"/>
<path d="M91.304 22.998H79.7656V24.9978H91.304V22.998Z" fill="#291956"/>
<path d="M99.3819 8.99902H97.0742V10.9988H99.3819V8.99902Z" fill="#291956"/>
<path d="M114.38 8.99902H101.688V10.9988H114.38V8.99902Z" fill="#291956"/>
<path d="M112.073 12.998H94.7656V14.9978H112.073V12.998Z" fill="#291956"/>
<path d="M91.304 26.998H79.7656V28.9978H91.304V26.998Z" fill="#291956"/>
<path d="M88.9964 30.9971H79.7656V32.9968H88.9964V30.9971Z" fill="#291956"/>
<path d="M84.3819 36.9961H82.0742V38.9959H84.3819V36.9961Z" fill="#291956"/>
<path d="M91.3028 36.9961H86.6875V38.9959H91.3028V36.9961Z" fill="#291956"/>
<path d="M91.304 40.9961H79.7656V42.9959H91.304V40.9961Z" fill="#291956"/>
<path d="M91.304 44.9951H79.7656V46.9949H91.304V44.9951Z" fill="#291956"/>
<path d="M88.9964 48.9951H79.7656V50.9949H88.9964V48.9951Z" fill="#291956"/>
<path d="M0 30.0205L56 30.0205" stroke="#DADADA"/>
<circle cx="55.5" cy="30.5205" r="5.5" fill="#EB0029"/>
</svg>
