<svg width="135" height="138" viewBox="0 0 135 138" fill="none" xmlns="http://www.w3.org/2000/svg">
<path d="M0 0.999998L51 0.999998L51 53" stroke="#DADADA"/>
<circle cx="51.5" cy="58.5205" r="5.5" fill="#EB0029"/>
<path d="M43.8487 121.391L42.4803 120.022L39.4194 123.083L36.9168 120.581L39.9777 117.52L38.6094 116.151L35.5484 119.212L34.5806 118.244L23.4865 129.339C22.5274 130.297 22 131.57 22 132.927C22 135.724 24.2761 138 27.0739 138C28.4277 138 29.7023 137.473 30.6613 136.514L41.7555 125.419L40.7877 124.452L43.8487 121.391ZM29.2929 135.145C28.6997 135.738 27.911 136.064 27.0739 136.064C25.3435 136.064 23.9355 134.657 23.9355 132.927C23.9355 132.088 24.2616 131.3 24.8548 130.708L34.5806 120.981L39.0187 125.419L29.2929 135.145Z" fill="#381E54"/>
<path d="M76.8882 126.433C76.0618 123.561 73.446 121.548 70.386 121.548C69.784 121.548 69.1937 121.627 68.6189 121.783C67.6956 119.781 66.0331 118.195 63.9398 117.354L63.2179 119.149C65.0905 119.902 66.5208 121.418 67.1411 123.306L67.474 124.317L68.4495 123.89C69.065 123.621 69.7163 123.484 70.386 123.484C72.4182 123.484 74.1708 124.73 74.8821 126.553C74.1011 126.733 73.3618 127.058 72.7076 127.549L73.8698 129.098C74.5434 128.59 75.3466 128.323 76.1924 128.323C78.3273 128.323 80.0634 130.059 80.0634 132.193C80.0634 134.328 78.3273 136.064 76.1924 136.064H52.9666C50.8318 136.064 49.0956 134.328 49.0956 132.193C49.0956 130.059 50.8318 128.323 52.9666 128.323C53.8124 128.323 54.6156 128.59 55.2882 129.097L56.4505 127.548C55.7276 127.004 54.9021 126.653 54.0292 126.493C53.9731 126.138 53.9344 125.781 53.9344 125.419C53.9344 124.849 54.0147 124.262 54.1714 123.673L52.3008 123.173C52.1005 123.925 51.9989 124.681 51.9989 125.419C51.9989 125.77 52.0231 126.118 52.0647 126.464C49.2911 126.9 47.1602 129.299 47.1602 132.193C47.1602 135.396 49.7643 138 52.9666 138H76.1924C79.3947 138 81.9989 135.396 81.9989 132.193C81.9989 129.227 79.7624 126.778 76.8882 126.433Z" fill="#381E54"/>
<path d="M57.8047 132.194H59.7402V134.129H57.8047V132.194Z" fill="#381E54"/>
<path d="M61.6758 132.194H63.6113V134.129H61.6758V132.194Z" fill="#381E54"/>
<path d="M69.418 132.194H71.3535V134.129H69.418V132.194Z" fill="#381E54"/>
<path d="M73.2891 132.194H75.2245V134.129H73.2891V132.194Z" fill="#381E54"/>
<path d="M65.5469 132.194H67.4824V134.129H65.5469V132.194Z" fill="#381E54"/>
<path d="M53.9336 132.194H55.8691V134.129H53.9336V132.194Z" fill="#381E54"/>
<path d="M68.0446 107.843C66.9056 109.623 65.1414 110.958 63.0578 111.541C61.5588 116.222 57.1769 119.613 51.9985 119.613C45.5853 119.613 40.3856 114.413 40.3856 108C40.3856 101.587 45.5853 96.387 51.9985 96.387C52.9769 96.387 53.9214 96.5216 54.8282 96.749C55.5695 96.0687 56.4336 95.5277 57.3762 95.1358L55.9478 92.0409C54.6578 91.7196 53.334 91.5483 51.9985 91.5483C42.9269 91.5483 35.5469 98.9283 35.5469 108C35.5469 117.072 42.9269 124.452 51.9985 124.452C60.8224 124.452 68.033 117.54 68.4153 108.717L68.4298 108.385L68.0446 107.843Z" fill="#EB0029"/>
<path d="M25.8711 81.871H43.2904V91.5484H25.8711V81.871Z" fill="#EB0029"/>
<path d="M25.8711 81.871H37.484V83.8065H25.8711V81.871Z" fill="#381E54"/>
<path d="M39.418 81.871H43.2889V83.8065H39.418V81.871Z" fill="#381E54"/>
<path d="M25.8711 85.7419H43.2904V87.6774H25.8711V85.7419Z" fill="#381E54"/>
<path d="M43.2908 91.5484H41.3553V89.6129H43.2908V91.5484ZM39.4199 91.5484H37.4844V89.6129H39.4199V91.5484Z" fill="#381E54"/>
<path d="M25.8711 89.6129H35.5485V91.5484H25.8711V89.6129Z" fill="#381E54"/>
<path d="M51.9987 116.71C47.1968 116.71 43.2891 112.803 43.2891 108H45.2245C45.2245 111.735 48.2633 114.774 51.9987 114.774V116.71Z" fill="#381E54"/>
<path d="M77.1599 78C74.8238 78 72.8689 79.6655 72.4189 81.871H56.7396C56.2896 79.6655 54.3347 78 51.9986 78C49.3306 78 47.1599 80.1706 47.1599 82.8387C47.1599 85.5068 49.3306 87.6774 51.9986 87.6774C52.3335 87.6774 52.6606 87.6426 52.977 87.5777L56.0283 94.6974C55.5009 94.9906 55.0015 95.3294 54.5399 95.7116C53.6825 95.5316 52.8289 95.4194 51.9986 95.4194C45.0618 95.4194 39.418 101.063 39.418 108C39.418 114.937 45.0618 120.581 51.9986 120.581C57.3173 120.581 61.9905 117.281 63.8022 112.323C67.6238 111.028 70.3857 107.415 70.3857 103.161C70.3857 100.477 69.2854 98.0458 67.5144 96.2913L74.9428 87.1142C75.6105 87.4616 76.3567 87.6774 77.1599 87.6774C79.828 87.6774 81.9986 85.5068 81.9986 82.8387C81.9986 80.1706 79.828 78 77.1599 78ZM49.0954 82.8387C49.0954 81.2381 50.398 79.9355 51.9986 79.9355C53.5993 79.9355 54.9018 81.2381 54.9018 82.8387C54.9018 84.4394 53.5993 85.7419 51.9986 85.7419C50.398 85.7419 49.0954 84.4394 49.0954 82.8387ZM51.9986 118.645C46.1293 118.645 41.3535 113.869 41.3535 108C41.3535 102.131 46.1293 97.3548 51.9986 97.3548C52.3073 97.3548 52.6238 97.3858 52.9393 97.4158C51.746 99.0252 51.0309 101.009 51.0309 103.161C51.0309 108.497 55.3722 112.839 60.7083 112.839C60.9754 112.839 61.2386 112.82 61.5009 112.798C59.7144 116.353 56.0786 118.645 51.9986 118.645ZM68.4502 103.161C68.4502 107.43 64.977 110.903 60.7083 110.903C56.4396 110.903 52.9664 107.43 52.9664 103.161C52.9664 98.8926 56.4396 95.4194 60.7083 95.4194C64.977 95.4194 68.4502 98.8926 68.4502 103.161ZM60.7083 93.4839C59.697 93.4839 58.7215 93.6416 57.8051 93.93L54.7528 86.8084C55.7564 86.1097 56.487 85.0461 56.7396 83.8065H72.4189C72.5796 84.5932 72.9473 85.2968 73.4399 85.8948L66.0096 95.0739C64.4854 94.0723 62.6651 93.4839 60.7083 93.4839ZM77.1599 85.7419C75.5593 85.7419 74.2567 84.4394 74.2567 82.8387C74.2567 81.2381 75.5593 79.9355 77.1599 79.9355C78.7606 79.9355 80.0631 81.2381 80.0631 82.8387C80.0631 84.4394 78.7606 85.7419 77.1599 85.7419Z" fill="#381E54"/>
<path d="M60.707 107.032V108.968C63.9093 108.968 66.5135 106.364 66.5135 103.161H64.578C64.578 105.296 62.8419 107.032 60.707 107.032Z" fill="#381E54"/>
<path d="M98.9922 106.534H134.006" stroke="#DADADA"/>
<circle cx="98.5" cy="106.521" r="5.5" fill="#EB0029"/>
</svg>
