<svg width="115" height="137" viewBox="0 0 115 137" fill="none" xmlns="http://www.w3.org/2000/svg">
<path d="M59.9997 87.6335H48.3867V77.9561H59.9997V87.6335Z" fill="#EB0029"/>
<path d="M59.9997 101.182H48.3867V91.5049H59.9997V101.182Z" fill="#EB0029"/>
<path d="M59.9997 114.73H48.3867V105.053H59.9997V114.73Z" fill="#EB0029"/>
<path d="M21.2891 79.8916H38.7086V84.7303H21.2891V79.8916Z" fill="#EB0029"/>
<path d="M17.418 89.5697V103.37C18.6586 104.236 19.5944 105.505 20.0367 106.989H23.2245V89.5697H17.418Z" fill="#EB0029"/>
<path d="M30.9667 105.052V95.375H25.1602V106.988H29.0312L30.9667 105.052Z" fill="#EB0029"/>
<path d="M32.9023 87.6338V102.93L33.0165 103.003L33.0678 102.952C33.5807 102.439 34.2775 102.151 35.0033 102.151C36.5159 102.15 37.7411 103.375 37.7411 104.887C37.7411 105.241 37.6705 105.586 37.5408 105.909L38.7089 105.045V87.6338H32.9023Z" fill="#EB0029"/>
<path d="M52.2578 81.8271H56.1288V83.7626H52.2578V81.8271Z" fill="#381E54"/>
<path d="M52.2578 95.375H56.1288V97.3105H52.2578V95.375Z" fill="#381E54"/>
<path d="M52.2578 108.925H56.1288V110.86H52.2578V108.925Z" fill="#381E54"/>
<path d="M44.5166 95.3753H42.5811V76.0205H17.9866L7.74201 86.265V103.82C6.54103 105.184 5.80651 106.968 5.80651 108.924C5.80651 111.341 6.92136 113.501 8.66234 114.923C3.73842 115.855 0 120.183 0 125.375V136.021H22.2583V123.605C22.2583 123.133 22.4422 122.689 22.777 122.354L28.4654 116.666H42.5811V97.3108H44.5166V110.859H48.3876V108.924H46.4521V97.3108H48.3876V95.3753H46.4521V83.7624H48.3876V81.827H44.5166V95.3753ZM17.4195 79.3244V85.6979H11.0459L17.4195 79.3244ZM7.74201 108.924C7.74201 105.721 10.3462 103.117 13.5485 103.117C16.7508 103.117 19.355 105.721 19.355 108.924C19.355 112.126 16.7508 114.73 13.5485 114.73C10.3462 114.73 7.74201 112.126 7.74201 108.924ZM16.4102 116.111C16.2069 117.515 15.0079 118.601 13.5485 118.601C12.0892 118.601 10.8901 117.515 10.6869 116.111C11.5733 116.465 12.5372 116.666 13.5485 116.666C14.5598 116.666 15.5237 116.465 16.4102 116.111ZM21.4086 120.986C20.7079 121.686 20.3228 122.616 20.3228 123.605V134.085H6.77426V122.472H4.83876V134.085H1.9355V125.375C1.9355 121.183 4.91328 117.675 8.86364 116.851C9.38429 118.961 11.2801 120.537 13.5485 120.537C16.0966 120.537 18.1686 118.55 18.3515 116.047C20.915 115.416 23.2977 114.091 25.1673 112.221L33.7532 103.635C34.0881 103.301 34.5323 103.117 35.0045 103.117C35.981 103.117 36.7746 103.911 36.7746 104.887C36.7746 105.36 36.5907 105.804 36.2558 106.139L21.4086 120.986ZM40.6456 114.73H30.401L37.6242 107.507C38.3249 106.806 38.7101 105.876 38.7101 104.887C38.7101 102.843 37.0484 101.182 35.0045 101.182C34.0155 101.182 33.0845 101.567 32.3848 102.268L23.7989 110.853C22.6357 112.017 21.2431 112.936 19.7286 113.567C20.705 112.27 21.2905 110.667 21.2905 108.924C21.2905 104.655 17.8173 101.182 13.5485 101.182C12.1375 101.182 10.8175 101.567 9.67752 102.229V87.6334H19.355V77.956H40.6456V114.73Z" fill="#381E54"/>
<path d="M36.7734 79.8916H38.7089V81.8271H36.7734V79.8916Z" fill="#381E54"/>
<path d="M32.9023 79.8916H34.8378V81.8271H32.9023V79.8916Z" fill="#381E54"/>
<path d="M21.2891 79.8916H30.9666V81.8271H21.2891V79.8916Z" fill="#381E54"/>
<path d="M21.2891 83.7627H38.7086V85.6982H21.2891V83.7627Z" fill="#381E54"/>
<path d="M11.6133 89.5684H13.5488V91.5038H11.6133V89.5684Z" fill="#381E54"/>
<path d="M11.6133 93.4404H13.5488V95.3759H11.6133V93.4404Z" fill="#381E54"/>
<path d="M11.6133 97.3115H13.5488V99.247H11.6133V97.3115Z" fill="#381E54"/>
<path d="M30 56.0205V1.02051L115 1.02051" stroke="#DADADA"/>
<circle cx="30.5" cy="58.5205" r="5.5" fill="#EB0029"/>
</svg>
