<svg width="195" height="139" viewBox="0 0 195 139" fill="none" xmlns="http://www.w3.org/2000/svg">
<path d="M0 108.021L56 108.021" stroke="#DADADA"/>
<path d="M110 58.0205V1.02051L195 1.02051" stroke="#DADADA"/>
<path d="M134.225 87.6979H87.7734V78.0205H134.225V87.6979ZM89.7089 85.7624H132.29V79.956H89.7089V85.7624Z" fill="#EB0029"/>
<path d="M93.58 81.8915H91.6445V83.827H93.58V81.8915Z" fill="#EB0029"/>
<path d="M97.4511 81.8915H95.5156V83.827H97.4511V81.8915Z" fill="#EB0029"/>
<path d="M101.322 81.8915H99.3867V83.827H101.322V81.8915Z" fill="#EB0029"/>
<path d="M106.162 117.698C113.644 117.698 119.71 111.632 119.71 104.15C119.71 96.667 113.644 90.6012 106.162 90.6012C98.6791 90.6012 92.6133 96.667 92.6133 104.15C92.6133 111.632 98.6791 117.698 106.162 117.698Z" fill="#EB0029"/>
<path d="M81 127.376C81 130.044 83.1706 132.214 85.8387 132.214H100.355V136.085H96.4839V138.021H125.516V136.085H121.645V132.214H136.161C138.829 132.214 141 130.044 141 127.376V124.472H81V127.376ZM119.71 136.085H102.29V132.214H119.71V136.085ZM82.9355 126.408H139.065V127.376C139.065 128.976 137.762 130.279 136.161 130.279H85.8387C84.2381 130.279 82.9355 128.976 82.9355 127.376V126.408Z" fill="#381E54"/>
<path d="M136.16 87.698V89.6335C137.761 89.6335 139.063 90.9361 139.063 92.5367V98.3432H140.999V92.5367C140.999 89.8686 138.828 87.698 136.16 87.698Z" fill="#381E54"/>
<path d="M141.002 109.956H139.066V122.537H141.002V109.956Z" fill="#381E54"/>
<path d="M82.9355 92.5367C82.9355 90.9361 84.2381 89.6335 85.8387 89.6335V87.698C83.1706 87.698 81 89.8686 81 92.5367V122.537H82.9355V92.5367Z" fill="#381E54"/>
<path d="M134.225 109.956H132.29V120.601H89.7089V89.6335H87.7734V122.537H134.225V109.956Z" fill="#381E54"/>
<path d="M137.128 100.279H124.548V98.3432H122.612V100.279H120.137C118.436 94.15 112.824 89.6335 106.161 89.6335C98.1565 89.6335 91.6445 96.1455 91.6445 104.15C91.6445 112.154 98.1565 118.666 106.161 118.666C112.824 118.666 118.436 114.149 120.137 108.021H122.612V109.956H124.548V108.021H137.128C139.263 108.021 140.999 106.285 140.999 104.15C140.999 102.015 139.263 100.279 137.128 100.279ZM106.161 116.73C99.2239 116.73 93.58 111.086 93.58 104.15C93.58 97.2129 99.2239 91.569 106.161 91.569C113.097 91.569 118.741 97.2129 118.741 104.15C118.741 111.086 113.097 116.73 106.161 116.73ZM120.533 106.085C120.618 105.45 120.677 104.808 120.677 104.15C120.677 103.492 120.618 102.849 120.533 102.214H122.612V106.085H120.533ZM137.128 106.085H124.548V102.214H137.128C138.196 102.214 139.064 103.082 139.064 104.15C139.064 105.217 138.196 106.085 137.128 106.085Z" fill="#381E54"/>
<path d="M134.225 89.6335H132.289V98.3432H134.225V89.6335Z" fill="#381E54"/>
<path d="M111.001 103.182V102.214C111.001 100.496 110.095 98.9945 108.741 98.1352L111.001 97.0058V93.5045H109.065V95.8097L106.162 97.2613L103.259 95.8097V93.5045H101.324V97.0058L103.583 98.1352C102.229 98.9945 101.324 100.496 101.324 102.214V103.182H97.9026L95.6797 106.516L97.29 107.589L98.9381 105.117H101.324V107.053H99.8381L97.6152 110.387L99.2255 111.46L100.874 108.988H101.324V109.956C101.324 112.624 103.494 114.795 106.162 114.795C108.83 114.795 111.001 112.624 111.001 109.956V108.988H111.451L113.099 111.461L114.709 110.388L112.486 107.053H111.001V105.117H113.386L115.035 107.59L116.645 106.517L114.422 103.182H111.001ZM108.887 101.246H103.438C103.839 100.123 104.903 99.311 106.163 99.311C107.423 99.311 108.487 100.123 108.887 101.246ZM107.13 112.681V105.117H105.195V112.681C104.071 112.281 103.259 111.216 103.259 109.956V103.182H109.065V109.956C109.065 111.216 108.254 112.281 107.13 112.681Z" fill="#381E54"/>
<circle cx="109.5" cy="58.5205" r="5.5" fill="#EB0029"/>
<circle cx="61.5" cy="107.521" r="5.5" fill="#EB0029"/>
</svg>
