<svg width="111" height="89" viewBox="0 0 111 89" fill="none" xmlns="http://www.w3.org/2000/svg">
<path fill-rule="evenodd" clip-rule="evenodd" d="M19.3461 22.5859C17.742 22.7898 15.5041 23.4748 14.0341 24.2119C12.4164 25.023 10.1233 26.813 8.86522 28.2467C5.77234 31.7715 4.05615 35.7197 3.37573 40.8761C3.17072 42.4294 3.14396 46.6673 3.32906 48.262C3.86155 52.8489 5.08041 56.511 7.06898 59.4983C10.0113 63.9181 13.9319 66.5941 18.6911 67.4305C20.1769 67.6917 22.63 67.7811 23.9174 67.621C24.9038 67.4983 27.4998 66.8848 27.6445 66.7402C27.7194 66.6654 27.7608 56.6363 27.6866 56.5621C27.6669 56.5424 27.4682 56.5906 27.2452 56.6692C27.0221 56.7478 26.3575 56.9361 25.7682 57.0876C24.8 57.3364 24.5297 57.3632 22.9628 57.3664C21.4185 57.3695 21.1474 57.3446 20.4856 57.1388C17.6019 56.2424 15.5391 54.0343 14.4587 50.6874C13.2493 46.9414 13.3975 41.823 14.8112 38.5106C15.8705 36.0288 17.4962 34.1682 19.3662 33.2973C20.5316 32.7546 21.1585 32.6286 22.6655 32.634C24.0803 32.6391 25.1297 32.7895 26.7104 33.2137C27.2184 33.3501 27.6643 33.4616 27.7013 33.4616C27.7383 33.4616 27.7462 31.1562 27.7189 28.3384L27.6694 23.2152L26.8611 23.0036C25.3897 22.6182 24.0045 22.4719 21.9539 22.4852C20.9011 22.4922 19.7276 22.5375 19.3461 22.5859ZM50.3736 23.6308C50.339 23.6655 50.3107 33.3535 50.3107 45.16V66.6263H60.2193H70.128V62.0228V57.4194H65.1229H60.118L60.1438 53.5337L60.1698 49.6479L64.4553 49.6221L68.7408 49.5964V45.1424V40.6885H64.4305H60.1203V36.7286V32.7686H65.1251H70.13L70.1042 28.1899L70.0785 23.6112L60.2575 23.5897C54.856 23.5778 50.4082 23.5963 50.3736 23.6308ZM82.5386 23.6273C82.44 23.6671 82.4147 28.065 82.4147 45.1527V66.6281L87.2948 66.6024L92.1748 66.5768V57.6916V48.8065H96.5098H100.845V57.7164V66.6263H105.75H110.655L110.63 45.1187L110.605 23.6112H105.75H100.894L100.869 31.6065L100.844 39.6016L96.5285 39.5759L92.2132 39.5501L92.2215 31.7194C92.2259 27.4126 92.2014 23.8153 92.1669 23.7253C92.1096 23.5762 91.6856 23.5624 87.3833 23.5696C84.7868 23.5738 82.6068 23.5999 82.5386 23.6273ZM19.804 75.5074C19.2758 75.7675 19.0992 76.1525 19.0988 77.0459C19.0984 77.7982 19.0935 77.8131 18.8507 77.8131C18.6119 77.8131 18.603 77.8362 18.603 78.4566C18.603 79.077 18.6119 79.1001 18.8507 79.1001H19.0984V80.8326V82.5651H19.8415H20.5847V80.8326V79.1001H20.9315H21.2783V78.4566V77.8131H20.9315C20.6028 77.8131 20.5847 77.7955 20.5847 77.4747C20.5847 76.9623 20.6716 76.8231 20.9916 76.8231H21.2783V76.0807V75.3382L20.7086 75.3404C20.3817 75.3417 19.9961 75.4129 19.804 75.5074ZM31.4842 76.8417V78.3452L31.1945 78.0679C30.8089 77.6988 30.1733 77.6242 29.739 77.897C29.5693 78.0036 29.324 78.3067 29.194 78.5707C28.9846 78.9957 28.9575 79.1865 28.9575 80.2386C28.9575 81.2907 28.9846 81.4815 29.194 81.9065C29.6442 82.8202 30.473 83.0105 31.1494 82.3555L31.4842 82.0313V82.2982C31.4842 82.5643 31.4863 82.5651 32.2274 82.5651H32.9705V78.9516V75.3382H32.2274H31.4842V76.8417ZM57.1294 75.6104C57.1122 75.7602 57.1104 77.3862 57.1255 79.2239L57.1527 82.5651H57.8934H58.634V80.9295V79.2939L58.8933 79.1758C59.1223 79.0716 59.1746 79.0848 59.3392 79.2879C59.5038 79.491 59.5257 79.6973 59.5257 81.0416V82.5651H60.2689H61.012V80.6314C61.012 78.5526 60.9441 78.1828 60.505 77.8756C60.04 77.5501 59.031 77.7872 58.7367 78.2911C58.6708 78.4039 58.639 77.9594 58.6369 76.8974L58.634 75.3382H57.8973C57.1675 75.3382 57.1605 75.3406 57.1294 75.6104ZM73.2988 78.9516V82.5651H74.0419H74.7851V78.9516V75.3382H74.0419H73.2988V78.9516ZM98.1695 78.9516V82.5651H98.9094H99.6493L99.6773 81.4513L99.7054 80.3376L100.25 81.4505L100.795 82.5633L101.666 82.5642L102.536 82.5651L102.42 82.3423C102.356 82.2199 102.018 81.6373 101.669 81.0476L101.035 79.9757L101.715 79.0181C102.089 78.4916 102.428 78.005 102.468 77.9369C102.524 77.8416 102.335 77.8131 101.647 77.8131H100.754L100.279 78.6017C100.018 79.0353 99.771 79.3917 99.7301 79.3937C99.6893 79.3955 99.6558 78.4838 99.6558 77.3676V75.3382H98.9127H98.1695V78.9516ZM2.03053 75.6774C0.600013 76.1875 -0.260752 78.0387 0.0709896 79.8921C0.43761 81.9405 1.85088 83.0564 3.6285 82.7012L3.93814 82.6393V81.8303V81.0212L3.29398 81.0622C2.65675 81.1028 2.64566 81.099 2.26546 80.7192C1.77201 80.2261 1.58057 79.4539 1.74684 78.6269C1.96671 77.5332 2.53736 77.0452 3.45034 77.1707L3.93814 77.2377V76.447C3.93814 75.8173 3.90624 75.6441 3.78139 75.5962C3.50454 75.4901 2.41409 75.5406 2.03053 75.6774ZM16.4681 75.8782C15.9766 76.3692 16.3249 77.2191 17.0176 77.2191C17.4249 77.2191 17.8103 76.8341 17.8103 76.4271C17.8103 76.0202 17.4249 75.6352 17.0176 75.6352C16.8246 75.6352 16.6214 75.725 16.4681 75.8782ZM22.1709 75.8819C21.7001 76.3825 22.0406 77.2191 22.7151 77.2191C23.1165 77.2191 23.4912 76.8367 23.4912 76.4271C23.4912 76.0176 23.1165 75.6352 22.7151 75.6352C22.5103 75.6352 22.3229 75.7201 22.1709 75.8819ZM62.3631 75.8404C62.1616 75.9986 62.102 76.1328 62.102 76.4271C62.102 77.1386 62.9389 77.481 63.4441 76.9761C64.1605 76.2604 63.1626 75.2119 62.3631 75.8404ZM49.8153 79.1496V82.5651H51.4006H52.986V81.8226V81.0801H52.1933H51.4006V80.4861V79.8921H52.0942H52.7878V79.1496V78.4071H52.0942H51.4006V77.8131V77.2191H52.1933H52.986V76.4766V75.7342H51.4006H49.8153V79.1496ZM83.9011 79.1496V82.5651H84.6937H85.4864V81.1857C85.4864 79.6147 85.4563 79.6649 86.3734 79.7067L86.8736 79.7294V81.1473V82.5651H87.6663H88.459V79.1496V75.7342H87.6663H86.8736V76.9716V78.2091H86.18H85.4864V76.9716V75.7342H84.6937H83.9011V79.1496ZM13.4213 76.5882C13.3829 76.6266 13.3514 76.918 13.3514 77.2357C13.3514 77.7856 13.3396 77.8131 13.1037 77.8131C12.8649 77.8131 12.8559 77.8362 12.8559 78.4566C12.8559 79.077 12.8649 79.1001 13.1037 79.1001H13.3514V80.8326V82.5651H14.0926C15 82.5651 14.9581 82.6646 14.9171 80.607L14.8872 79.0998L15.1961 79.1L15.505 79.1001L15.4933 78.4814C15.4821 77.8859 15.4716 77.8614 15.2138 77.8317C14.9586 77.8023 14.9445 77.7719 14.9165 77.1882L14.8872 76.5756L14.1892 76.5469C13.8054 76.5312 13.4599 76.5498 13.4213 76.5882ZM54.2742 77.1653V77.8131H53.9769H53.6796V78.4566V79.1001H53.9769H54.2742V80.8326V82.5651H55.0173H55.7605V80.8326V79.1001H56.0577H56.355V78.4566V77.8131H56.0625C55.7728 77.8131 55.7696 77.807 55.7404 77.1944L55.7109 76.5756L54.9925 76.5465L54.2742 76.5174V77.1653ZM5.7218 77.8253C5.37123 77.965 5.04326 78.2937 4.79554 78.7536C4.61589 79.0872 4.58221 79.3137 4.58221 80.1891C4.58221 81.2844 4.68337 81.6263 5.16355 82.1537C5.76352 82.8128 6.93422 82.9149 7.62902 82.369C7.85969 82.1876 8.29795 81.4089 8.29795 81.1802C8.29795 81.1233 8.02705 81.0801 7.66984 81.0801C7.09593 81.0801 7.03192 81.1015 6.92877 81.3276C6.84406 81.5134 6.74002 81.5751 6.51142 81.5751C6.25776 81.5751 6.18315 81.5179 6.06345 81.2318C5.79126 80.581 5.78432 80.5851 7.17282 80.5851H8.42578L8.36791 79.8953C8.28577 78.916 8.02239 78.3803 7.44274 78.013C7.07186 77.778 6.86397 77.7155 6.4702 77.7204C6.19474 77.7238 5.85795 77.771 5.7218 77.8253ZM11.1197 78.1227L10.676 78.5314V78.1722V77.8131H9.98243H9.28882V80.1891V82.5651H10.0248H10.7609L10.7928 81.0711C10.8234 79.6391 10.8344 79.5694 11.0586 79.3881C11.1991 79.2746 11.4463 79.1991 11.6779 79.1991H12.0632V78.4566C12.0632 77.7289 12.0583 77.7141 11.8133 77.7141C11.6582 77.7141 11.3951 77.8691 11.1197 78.1227ZM25.6381 77.7804C25.2265 77.9494 24.8941 78.2944 24.6614 78.7941C24.1437 79.9065 24.3939 81.6728 25.1604 82.3173C26.014 83.0349 27.3371 82.7937 27.8892 81.8196C28.2553 81.1738 28.21 81.0801 27.5322 81.0801C27.0195 81.0801 26.9294 81.11 26.7867 81.3276C26.4657 81.8171 25.8363 81.5075 25.8363 80.86V80.5851H27.0836H28.3309L28.2753 80.2139C28.2447 80.0097 28.1918 79.6356 28.1578 79.3826C28.081 78.8125 27.845 78.4143 27.3687 78.0513C27.0727 77.8257 26.8838 77.7664 26.3941 77.7454C26.06 77.7311 25.7199 77.7468 25.6381 77.7804ZM65.5389 77.8991C64.8947 78.3235 64.5788 79.1128 64.5827 80.2881C64.5859 81.2336 64.8715 81.9774 65.3921 82.3962C65.6928 82.6379 65.8539 82.6922 66.2838 82.6964C66.597 82.6993 66.9385 82.6329 67.1306 82.5316C67.4396 82.3689 67.4527 82.3378 67.4527 81.7645V81.1669L67.0316 81.2294C66.3403 81.3318 65.978 80.8446 66.0953 79.9706C66.1819 79.3256 66.6054 79.0481 67.2545 79.2113C67.3713 79.2406 67.4095 79.127 67.4328 78.6809C67.4615 78.1323 67.4515 78.1065 67.1355 77.914C66.7087 77.654 65.9222 77.6467 65.5389 77.8991ZM68.8116 77.9261C68.6598 78.0391 68.4369 78.3162 68.3162 78.5417C68.1232 78.9021 68.0967 79.101 68.0967 80.1891C68.0967 81.2933 68.1222 81.4783 68.3333 81.9065C68.7808 82.8149 69.5488 83.0171 70.2268 82.4051L70.6234 82.047V82.3061C70.6234 82.5624 70.6312 82.5651 71.3666 82.5651H72.1097V80.1891V77.8131H71.3666C70.6321 77.8131 70.6234 77.8161 70.6234 78.0709V78.3286L70.2732 78.0214C69.8417 77.6429 69.2441 77.6038 68.8116 77.9261ZM90.1413 78.0889C89.6571 78.5728 89.5017 79.1124 89.5084 80.2881C89.5125 81.0401 89.5585 81.3309 89.7374 81.7386C90.0633 82.4809 90.3499 82.7136 90.9387 82.7136C91.3539 82.7136 91.4695 82.6663 91.7729 82.3724L92.1252 82.0313V82.2982C92.1252 82.5643 92.1273 82.5651 92.8684 82.5651H93.6115V80.1891V77.8131H92.8684C92.1288 77.8131 92.1252 77.8144 92.1252 78.0779V78.3427L91.9023 78.1397C91.5629 77.8309 91.2828 77.7141 90.8815 77.7141C90.5913 77.7141 90.4398 77.7909 90.1413 78.0889ZM95.4942 77.8573C94.8759 78.1947 94.5033 79.0748 94.5033 80.1978C94.5033 81.9498 95.4264 83.0087 96.657 82.6683C97.2176 82.5132 97.2516 82.4673 97.3024 81.7938L97.3495 81.1711L96.9416 81.2322C96.5864 81.2854 96.502 81.2594 96.2865 81.0302C96.0806 80.8112 96.0392 80.6695 96.0392 80.1839C96.0392 79.7154 96.082 79.5579 96.2566 79.3834C96.458 79.1821 96.8056 79.1171 97.1776 79.2113C97.2928 79.2404 97.3273 79.1399 97.3345 78.7536C97.3397 78.4814 97.3236 78.2013 97.2989 78.1312C97.1658 77.7553 96.0042 77.5789 95.4942 77.8573ZM103.711 77.9393C102.983 78.4292 102.682 79.2104 102.749 80.4366C102.798 81.3339 103.027 81.8878 103.52 82.3025C104.359 83.0078 105.724 82.8016 106.179 81.9007C106.589 81.0887 106.586 81.0801 105.871 81.0801C105.29 81.0801 105.227 81.1011 105.124 81.3276C104.954 81.6985 104.468 81.6732 104.266 81.283C104.183 81.1224 104.115 80.8996 104.115 80.788C104.115 80.5942 104.171 80.5851 105.368 80.5851H106.621L106.562 79.8844C106.483 78.9418 106.194 78.3653 105.617 77.9999C105.024 77.6244 104.216 77.5987 103.711 77.9393ZM109.315 78.1227L108.871 78.5314V78.1722V77.8131H108.177H107.484V80.1891V82.5651H108.22H108.956L108.988 81.0902C109.025 79.3548 109.094 79.1991 109.828 79.1991H110.258V78.4566C110.258 77.7289 110.253 77.7141 110.008 77.7141C109.853 77.7141 109.59 77.8691 109.315 78.1227ZM16.324 80.1891V82.5651H17.0671H17.8103V80.1891V77.8131H17.0671H16.324V80.1891ZM21.9719 80.1891V82.5651H22.7151H23.4582V80.1891V77.8131H22.7151H21.9719V80.1891ZM62.102 80.1891V82.5651H62.8451H63.5883V80.1891V77.8131H62.8451H62.102V80.1891ZM6.79897 78.9363C6.85981 79.0095 6.9364 79.2036 6.9692 79.3675C7.03767 79.7094 6.96237 79.7564 6.36576 79.7446C5.97566 79.737 5.96981 79.7314 5.99647 79.3937C6.0364 78.8877 6.52648 78.6083 6.79897 78.9363ZM26.6839 79.0449C26.7711 79.1778 26.8278 79.3895 26.81 79.5151C26.7817 79.7151 26.722 79.7436 26.3317 79.7436C25.9156 79.7436 25.8836 79.7249 25.8536 79.4627C25.817 79.1422 26.0694 78.8031 26.3448 78.8031C26.4441 78.8031 26.5967 78.9119 26.6839 79.0449ZM105.067 79.1612C105.305 79.7297 105.219 79.7891 104.276 79.7098C104.122 79.6968 104.101 79.6404 104.152 79.3818C104.235 78.968 104.385 78.8031 104.677 78.8031C104.86 78.8031 104.953 78.8892 105.067 79.1612ZM31.2416 79.2048C31.496 79.4856 31.5582 80.5134 31.3509 81.0094C31.231 81.296 31.1419 81.3771 30.9469 81.3771C30.555 81.3771 30.3647 80.9093 30.4126 80.0632C30.4452 79.4879 30.4898 79.3424 30.6816 79.1872C30.9707 78.9534 31.0151 78.9548 31.2416 79.2048ZM70.3361 79.1872C70.5279 79.3424 70.5725 79.4879 70.6051 80.0632C70.6526 80.9023 70.4621 81.3771 70.0782 81.3771C69.66 81.3771 69.507 81.003 69.5489 80.0826C69.5785 79.431 69.6212 79.2543 69.7766 79.1408C70.0226 78.961 70.0604 78.9642 70.3361 79.1872ZM91.7321 79.1018C92.1087 79.3032 92.2257 80.6216 91.9178 81.1962C91.8007 81.415 91.4026 81.4329 91.1981 81.2287C90.8401 80.8709 90.9216 79.333 91.3108 79.1065C91.5248 78.9818 91.5079 78.982 91.7321 79.1018Z" fill="white"/>
<rect x="37.7361" width="3.56" height="39.16" fill="white"/>
<rect x="37.7361" width="3.56" height="39.16" fill="url(#paint0_linear)"/>
<rect x="41.2959" y="88.9995" width="3.56" height="39.16" transform="rotate(180 41.2959 88.9995)" fill="white"/>
<rect x="41.2959" y="88.9995" width="3.56" height="39.16" transform="rotate(180 41.2959 88.9995)" fill="url(#paint1_linear)"/>
<defs>
<linearGradient id="paint0_linear" x1="39.8721" y1="37.736" x2="39.8721" y2="21.716" gradientUnits="userSpaceOnUse">
<stop stop-color="white"/>
<stop offset="1" stop-color="white"/>
</linearGradient>
<linearGradient id="paint1_linear" x1="43.4319" y1="126.736" x2="43.4319" y2="110.716" gradientUnits="userSpaceOnUse">
<stop stop-color="white"/>
<stop offset="1" stop-color="white"/>
</linearGradient>
</defs>
</svg>
