<svg width="109" height="90" viewBox="0 0 109 90" fill="none" xmlns="http://www.w3.org/2000/svg">
<path fill-rule="evenodd" clip-rule="evenodd" d="M46.9361 0.3967C39.9639 1.47477 32.9906 4.16161 27.3037 7.96151C23.7334 10.3475 18.0911 15.7864 15.8036 19.0473C14.6236 20.7292 14.6226 20.7448 15.6971 20.7448C16.2934 20.7448 16.7816 20.5291 16.7816 20.2659C16.7816 19.3732 24.7508 11.343 25.6203 11.3592C26.0949 11.3681 27.3603 11.9129 28.4317 12.5689L30.3805 13.7624L28.0442 16.8619C26.7593 18.5668 25.7053 20.1374 25.7026 20.3531C25.6879 21.3805 27.3027 20.561 28.2749 19.0473C28.8749 18.1134 29.9562 16.69 30.6779 15.8836L31.991 14.4179L35.8461 15.8737L39.7017 17.3299L38.9853 19.0374C38.3633 20.5202 38.3717 20.7448 39.0493 20.7448C39.4782 20.7448 40.2056 20.0209 40.665 19.1356C41.2209 18.0648 41.7668 17.6281 42.2955 17.8303C42.7323 17.9969 45.1085 18.2884 47.5749 18.4769C51.3208 18.7642 52.1012 18.9789 52.3125 19.7827C52.6141 20.9313 53.4914 21.0713 53.4914 19.9713C53.4914 19.1168 54.3557 18.8707 58.9759 18.4101C60.6944 18.2387 62.6516 17.9609 63.3244 17.7927C64.3376 17.5393 64.6549 17.7676 65.1657 19.1157C65.5055 20.0115 66.1128 20.7448 66.5161 20.7448C67.2256 20.7448 67.1879 20.0392 66.3729 18.0799C66.0955 17.4124 66.8318 16.9575 69.9983 15.8376C72.1841 15.0651 74.1454 14.5391 74.3573 14.6697C74.5686 14.7998 75.6835 16.2153 76.8341 17.8146C77.9847 19.414 79.2213 20.7276 79.5816 20.7334C80.5911 20.7511 80.4139 20.3406 77.8851 16.8112L75.5336 13.5289L77.7508 12.2247C79.2906 11.319 80.2314 11.0604 80.8292 11.3791C81.3028 11.6313 83.5725 13.8418 85.8737 16.2915C90.0853 20.7751 92.3891 22.2664 90.1304 19.0473C87.8251 15.7614 82.1885 10.3396 78.5495 7.90771C69.5084 1.86652 56.8635 -1.13789 46.9361 0.3967ZM61.2267 2.24834C62.8509 2.71216 62.7082 3.17128 60.6352 4.15586C55.9594 6.37678 50.4366 6.43685 45.3555 4.32248C42.383 3.0851 42.941 2.39929 47.4605 1.73541C49.5131 1.43351 59.7053 1.81324 61.2267 2.24834ZM41.6719 3.99812C41.8387 4.26764 40.8496 5.24543 39.4741 6.1715C38.098 7.09758 35.7428 8.88497 34.2408 10.1432L31.5096 12.431L29.371 11.3446C28.1952 10.7471 27.3792 10.0226 27.5581 9.73479C28.5073 8.20543 37.8641 3.63406 40.2187 3.54944C40.8507 3.52698 41.5046 3.7286 41.6719 3.99812ZM71.0597 5.37757C74.7495 7.10176 78.1394 9.2203 78.1394 9.80269C78.1394 10.0283 77.3303 10.711 76.3417 11.32L74.5434 12.4268L70.3386 9.04533C68.0259 7.18586 65.6492 5.40578 65.0571 5.0903C64.4645 4.77429 63.9799 4.25824 63.9799 3.94327C63.9799 3.02294 67.5827 3.75263 71.0597 5.37757ZM45.968 6.40185C46.1075 6.76486 45.409 8.20125 44.4152 9.59377C43.4214 10.9868 42.2068 12.9131 41.717 13.8747C40.901 15.4756 40.675 15.5947 39.043 15.2897C36.7109 14.8541 33.5632 13.5331 33.5632 12.9904C33.5632 12.453 37.0832 9.58123 40.7893 7.09445C43.6013 5.20782 45.4142 4.96546 45.968 6.40185ZM65.0408 6.95395C68.7082 9.35245 72.3708 12.3271 72.3708 12.9074C72.3708 13.3832 67.051 15.5216 65.8673 15.5216C65.3455 15.5216 60.5418 8.91109 59.3834 6.59772C59.2496 6.33081 61.147 5.20677 61.8943 5.11067C62.0448 5.09082 63.4608 5.92027 65.0408 6.95395ZM52.1809 9.38431C52.3608 10.605 52.4342 12.8374 52.344 14.3443L52.1804 17.0839L49.7628 17.0865C45.7913 17.0901 42.4785 16.4848 42.4785 15.7556C42.4785 15.3879 43.6758 13.3043 45.1384 11.1257C47.686 7.33211 47.8843 7.16444 49.8262 7.16444C51.8106 7.16444 51.861 7.21145 52.1809 9.38431ZM59.1348 9.12315C61.7763 12.4911 63.5688 15.9128 62.9054 16.3208C62.5776 16.5229 60.3252 16.8112 57.9003 16.9617L53.4914 17.2359V12.5047C53.4914 7.48671 53.5958 7.28249 56.2006 7.2057C57.2206 7.17541 58.0146 7.6946 59.1348 9.12315ZM0 29.8855V34.8476H2.88434H5.76868V45.0329V55.2182H2.88434H0V60.1802V65.1423H12.5862H25.1724V60.1802V55.2182H22.2881H19.4038V45.0329V34.8476H22.2881H25.1724V29.8855V24.9234H12.5862H0V29.8855ZM36.2761 25.6667C30.5048 27.5418 27.6635 31.3501 27.6635 37.21C27.6635 43.4842 31.2872 47.2261 39.8029 49.7474C49.9311 52.7455 52.7048 53.8586 52.7048 54.9236C52.7048 57.0834 45.8511 57.3357 41.3274 55.3425C40.0745 54.7904 38.2348 53.4788 37.2395 52.4279C35.479 50.5684 35.3274 50.5173 31.6124 50.5173H27.7946V57.8298V65.1423H32.2522C36.7061 65.1423 36.7098 65.1413 36.7098 63.7806C36.7098 62.679 36.885 62.4957 37.6275 62.8211C44.4246 65.7983 51.2983 66.4998 56.6894 64.7657C62.6836 62.8378 66.4002 56.7324 65.0335 51.0589C64.2485 47.7991 61.8623 44.5878 58.9722 42.9013C57.7167 42.1679 53.0824 40.5216 48.6746 39.2424C44.2663 37.9627 40.3105 36.5681 39.8836 36.1429C39.1982 35.4603 39.215 35.2628 40.0263 34.4558C42.0138 32.4783 50.2064 34.0719 53.7987 37.1338C55.7501 38.7979 56.2242 38.9499 59.9476 39.1118L63.9826 39.2873L63.981 32.6277L63.9799 25.9681H59.7845C55.9389 25.9681 55.5891 26.0553 55.5891 27.0127C55.5891 28.3201 55.6987 28.3321 52.3545 26.6565C49.9505 25.452 48.7858 25.2326 44.0518 25.0921C40.3247 24.9819 37.8121 25.1674 36.2761 25.6667ZM79.6267 25.9258C71.4278 28.5374 67.2434 34.1607 66.7222 43.269C65.9187 57.2996 72.8281 64.9282 86.8989 65.5461C98.398 66.0511 105.705 61.6568 108.333 52.6562C109.389 49.0396 109.149 39.9084 107.908 36.5164C105.989 31.2697 102.098 27.8275 95.9222 25.9132C91.6791 24.5975 83.777 24.6038 79.6267 25.9258ZM90.8735 35.0278C91.8018 35.4143 92.8653 36.0959 93.2371 36.5425C94.3447 37.8723 95.0181 43.6461 94.6221 48.4086C94.3033 52.2378 94.0668 53.015 92.8559 54.2216C89.7109 57.354 83.6643 56.4164 82.1135 52.5554C80.9053 49.5489 80.9635 39.9214 82.2048 37.4926C83.6081 34.7457 87.5225 33.6326 90.8735 35.0278ZM16.9799 72.3723C23.1419 80.3477 31.4058 85.808 41.7469 88.7362C47.7075 90.4243 58.7519 90.4207 64.7666 88.7289C75.361 85.7485 85.3314 78.7937 90.3685 70.8696C92.128 68.1018 90.121 69.0801 87.61 72.214C86.3352 73.8056 84.2715 76.0442 83.025 77.1887C80.846 79.1886 80.7018 79.2403 79.3173 78.5138C75.6479 76.5875 75.6558 76.636 78.3796 72.951C80.019 70.7327 80.6226 69.5361 80.1763 69.3878C79.8066 69.265 78.9019 69.9555 78.1662 70.9223C77.4304 71.8892 76.2384 73.3454 75.5173 74.1581L74.2062 75.6363L70.5374 74.307C68.5199 73.5757 66.7835 72.9772 66.6792 72.9772C66.5753 72.9772 66.6005 72.6836 66.7363 72.3242C67.6446 69.9158 67.6897 69.3209 66.9634 69.3209C66.546 69.3209 65.903 70.0464 65.5343 70.9333C64.968 72.2955 64.6533 72.4992 63.5043 72.249C62.7565 72.0861 60.3153 71.7957 58.0802 71.604C54.6001 71.3052 54.0159 71.1161 54.0159 70.2882C54.0159 69.756 53.6619 69.3209 53.2292 69.3209C52.7966 69.3209 52.4426 69.756 52.4426 70.2882C52.4426 71.1161 51.8584 71.3052 48.3783 71.604C46.1426 71.7957 43.702 72.0861 42.9541 72.249C41.8051 72.4992 41.4905 72.2955 40.9241 70.9333C40.5554 70.0464 39.9282 69.3209 39.5307 69.3209C38.6523 69.3209 38.6449 69.4389 39.4169 71.1266C39.7525 71.8594 39.8994 72.5865 39.7431 72.7416C39.4164 73.067 32.5474 75.5888 31.9884 75.5888C31.7833 75.5888 30.585 74.1785 29.3248 72.4548C28.0646 70.7312 26.7326 69.3209 26.365 69.3209C25.3046 69.3209 25.5568 69.9038 28.0452 73.2054C30.5866 76.577 30.5635 76.822 27.5491 78.425L25.6533 79.4331L22.2472 76.0745C20.3734 74.2271 18.3182 71.9539 17.68 71.0221C17.0417 70.0903 16.0925 69.3266 15.5712 69.3246C14.8182 69.3214 15.1082 69.9492 16.9799 72.3723ZM52.4426 77.8823V82.7869L50.6003 83.0011C49.2273 83.1609 48.5068 82.9426 47.7715 82.1444C46.3278 80.577 42.4334 74.4146 42.7119 74.1378C43.2211 73.6306 46.5512 73.0816 49.4271 73.0304L52.4426 72.9772V77.8823ZM63.0528 73.7659C64.1346 74.1952 63.9443 74.6392 60.4133 79.9209C58.8432 82.2698 57.7886 83.374 57.2961 83.1854C56.8871 83.0293 55.9814 82.9013 55.2839 82.9013C54.0305 82.9013 54.0159 82.8433 54.0159 77.8645V72.8278L58.0802 73.1166C60.3153 73.2759 62.553 73.5679 63.0528 73.7659ZM43.7838 79.0434C45.4037 81.5182 46.6571 83.6017 46.5701 83.6738C44.9821 84.9828 43.8934 84.9974 41.7385 83.7396C38.9549 82.1152 33.5632 77.7825 33.5632 77.1704C33.5632 76.7436 38.8925 74.6731 40.2166 74.5854C40.5591 74.5629 42.1644 76.5692 43.7838 79.0434ZM70.691 75.9554L72.9445 76.7943L71.2154 78.6099C70.2647 79.6086 67.9105 81.4534 65.9838 82.7096C62.9311 84.7002 62.3028 84.9253 61.0904 84.4662C59.4956 83.8624 59.4552 84.0629 61.9336 80.2897C62.9715 78.7096 64.2296 76.7499 64.7293 75.9345C65.7268 74.307 66.2649 74.3086 70.691 75.9554ZM35.3987 81.0047C36.264 81.7814 38.0932 83.1379 39.463 84.0191C41.9572 85.6242 42.3893 86.228 41.4538 86.8036C40.2041 87.5735 27.7946 81.677 27.7946 80.3137C27.7946 80.027 28.6798 79.3364 29.7612 78.7791C31.947 77.653 31.4414 77.4535 35.3987 81.0047ZM76.8205 78.7875C77.8589 79.3975 78.6209 80.1565 78.5149 80.4735C78.0262 81.9334 66.14 87.5024 65.0047 86.8036C64.0408 86.2107 64.5306 85.5855 67.782 83.2617C69.585 81.9726 71.753 80.1894 72.5999 79.2983C73.4469 78.4072 74.3185 77.6781 74.5366 77.6781C74.7548 77.6781 75.7821 78.1774 76.8205 78.7875ZM60.309 85.8159C62.9557 87.0428 63.1068 87.2037 62.1445 87.7693C60.7406 88.5941 45.7504 88.6139 44.3554 87.7923C43.4177 87.2408 43.4723 87.1352 45.1384 86.2771C47.9236 84.8422 49.2598 84.5612 53.4914 84.5184C56.6663 84.486 57.9805 84.7362 60.309 85.8159Z" fill="white"/>
</svg>
