<svg width="211" height="89" viewBox="0 0 211 89" fill="none" xmlns="http://www.w3.org/2000/svg">
<path fill-rule="evenodd" clip-rule="evenodd" d="M40.2649 0.386957C40.2649 0.599783 39.515 0.773913 38.5989 0.773913C37.6827 0.773913 36.3819 0.937983 35.7086 1.13843C35.0352 1.33887 33.2285 1.87403 31.6936 2.32716C27.6061 3.53446 21.6242 6.48655 19.3558 8.4163C18.7929 8.89497 18.1578 9.28696 17.9441 9.28696C16.8055 9.28696 7.5745 19.2364 7.5745 20.4638C7.5745 20.7014 7.3951 20.8957 7.17584 20.8957C6.95657 20.8957 6.77718 21.1421 6.77718 21.444C6.77718 21.7454 6.63645 22.0499 6.46462 22.1211C5.94676 22.3347 3.3391 27.8682 2.39228 30.763C0.940347 35.203 0.797227 35.785 0.797227 37.2492C0.797227 38.0196 0.617828 38.7576 0.398564 38.8891C-0.132855 39.208 -0.132855 49.792 0.398564 50.1109C0.617828 50.2424 0.797227 50.9804 0.797227 51.7508C0.797227 53.215 0.940347 53.797 2.39228 58.237C3.3391 61.1318 5.94676 66.6653 6.46462 66.8789C6.63645 66.9501 6.77718 67.2546 6.77718 67.556C6.77718 67.8578 6.95657 68.1043 7.17584 68.1043C7.3951 68.1043 7.5745 68.2986 7.5745 68.5362C7.5745 69.7636 16.8055 79.713 17.9441 79.713C18.1578 79.713 18.7929 80.1046 19.3558 80.5837C23.173 83.831 32.6871 87.6398 38.1719 88.1158C39.3232 88.216 40.2649 88.4556 40.2649 88.649C40.2649 88.8576 66.7696 89 105.646 89C148.967 89 171.026 88.8696 171.026 88.613C171.026 88.4002 171.776 88.2261 172.692 88.2261C173.609 88.2261 174.909 88.062 175.583 87.8616C176.256 87.6611 178.063 87.126 179.598 86.6728C183.685 85.4655 189.667 82.5134 191.936 80.5837C192.498 80.105 193.134 79.713 193.347 79.713C194.486 79.713 203.717 69.7636 203.717 68.5362C203.717 68.2986 203.896 68.1043 204.115 68.1043C204.335 68.1043 204.514 67.8578 204.514 67.556C204.514 67.2546 204.649 66.9501 204.815 66.8789C204.98 66.808 205.691 65.6181 206.395 64.2348C209.824 57.4925 211 52.4527 211 44.5C211 38.3362 210.249 33.7654 208.516 29.3955C207.44 26.6814 205.205 22.2883 204.815 22.1211C204.649 22.0499 204.514 21.7454 204.514 21.444C204.514 21.1421 204.335 20.8957 204.115 20.8957C203.896 20.8957 203.717 20.7014 203.717 20.4638C203.717 19.2364 194.486 9.28696 193.347 9.28696C193.134 9.28696 192.498 8.89497 191.936 8.4163C189.667 6.48655 183.685 3.53446 179.598 2.32716C178.063 1.87403 176.256 1.33887 175.583 1.13843C174.909 0.937983 173.609 0.773913 172.692 0.773913C171.776 0.773913 171.026 0.599783 171.026 0.386957C171.026 0.130404 148.967 0 105.646 0C62.3241 0 40.2649 0.130404 40.2649 0.386957ZM53.8928 3.91561C54.2624 4.10329 55.204 4.25652 55.9858 4.25652C56.7676 4.25652 57.4074 4.43065 57.4074 4.64348C57.4074 4.8563 57.6793 5.03043 58.0118 5.03043C58.9785 5.03043 61.7927 5.96455 61.7927 6.28533C61.7927 6.4467 62.053 6.57826 62.3712 6.57826C62.9229 6.57826 68.5516 9.2413 68.9686 9.69945C69.0783 9.8198 69.9753 10.4544 70.962 11.1099C74.538 13.4847 81.7259 21.0535 81.7259 22.4443C81.7259 22.6567 81.9053 22.8304 82.1245 22.8304C82.3438 22.8304 82.5272 23.0483 82.532 23.3141C82.5368 23.5804 82.8916 24.2332 83.3205 24.7652C83.7495 25.2973 84.1043 26.0371 84.1091 26.4098C84.1139 26.7824 84.2972 27.087 84.5165 27.087C84.7358 27.087 84.916 27.3048 84.9172 27.5707C84.918 27.8369 85.3621 29.0991 85.9043 30.3761C86.446 31.653 86.8937 33.1417 86.8989 33.6846C86.9041 34.2275 87.0704 34.8365 87.2685 35.0389C87.8653 35.6484 88.1902 38.9832 88.1902 44.5C88.1902 50.0168 87.8653 53.3516 87.2685 53.9611C87.0704 54.1631 86.9041 54.7725 86.8989 55.3154C86.8937 55.8579 86.446 57.347 85.9043 58.6239C85.3621 59.9009 84.918 61.1635 84.9172 61.4293C84.916 61.6956 84.7358 61.913 84.5165 61.913C84.2972 61.913 84.1139 62.2176 84.1091 62.5902C84.1043 62.9629 83.7495 63.7027 83.3205 64.2348C82.8916 64.7668 82.5368 65.42 82.532 65.6859C82.5272 65.9521 82.3438 66.1696 82.1245 66.1696C81.9053 66.1696 81.7259 66.3433 81.7259 66.5557C81.7259 68.0359 74.4375 75.5792 70.4453 78.231C67.5865 80.1302 63.1789 82.4217 62.3851 82.4217C62.0594 82.4217 61.7927 82.5959 61.7927 82.8087C61.7927 83.0215 61.355 83.1956 60.8196 83.1956C60.2842 83.1956 59.7356 83.3698 59.6001 83.5826C59.4645 83.7954 58.9263 83.9696 58.4041 83.9696C57.8818 83.9696 57.3436 84.1437 57.2081 84.3565C57.0725 84.5693 56.4223 84.7435 55.7629 84.7435C55.1039 84.7435 54.2209 84.9219 53.8011 85.1401C52.7538 85.6842 39.6318 85.7472 37.8729 85.2167C37.1055 84.9853 35.6703 84.5902 34.6836 84.3387C33.6969 84.0872 32.4858 83.7269 31.9926 83.5385C31.4995 83.35 30.6918 83.0486 30.1986 82.8691C28.0694 82.0932 24.3311 80.2695 24.3247 80.0033C24.3211 79.8438 24.0493 79.713 23.7204 79.713C23.3915 79.713 23.1224 79.5389 23.1224 79.3261C23.1224 79.1133 22.8983 78.9387 22.624 78.9387C22.3502 78.9384 21.6047 78.503 20.9672 77.9713C20.3301 77.4393 19.6859 77.0043 19.5356 77.0043C19.107 77.0043 14.1728 72.2053 12.9054 70.5557C12.2783 69.7396 11.6532 68.9847 11.5169 68.8783C10.3815 67.9937 5.97985 59.8521 5.97985 58.6371C5.97985 58.3356 5.80045 57.9816 5.58119 57.85C5.36192 57.7184 5.18252 57.196 5.18252 56.6891C5.18252 56.1822 5.02226 55.671 4.82612 55.5534C4.07623 55.1038 3.15851 46.1384 3.41764 41.7913C3.63013 38.2247 4.24088 34.6423 4.81894 33.5739C5.01907 33.2043 5.18252 32.5616 5.18252 32.1456C5.18252 31.7297 5.36192 31.2816 5.58119 31.15C5.80045 31.0184 5.97985 30.6605 5.97985 30.3548C5.97985 29.2346 9.96808 21.6638 11.1669 20.5087C11.4981 20.1895 12.2815 19.2604 12.9074 18.4443C14.1704 16.7974 19.1058 11.9957 19.5356 11.9957C19.6859 11.9957 20.3301 11.5607 20.9672 11.0286C21.6047 10.497 22.3502 10.0616 22.624 10.0613C22.8983 10.0613 23.1224 9.88674 23.1224 9.67391C23.1224 9.46109 23.3915 9.28696 23.7204 9.28696C24.0493 9.28696 24.3211 9.15655 24.3247 8.99674C24.3311 8.73051 28.0694 6.90679 30.1986 6.13094C30.6918 5.95139 31.4995 5.64492 31.9926 5.44951C32.8785 5.0997 33.3465 4.96736 36.4776 4.18493C40.1046 3.2783 52.2667 3.09023 53.8928 3.91561ZM169.83 3.50428C174.883 4.01313 176.589 4.30025 176.833 4.6845C176.954 4.87488 177.404 5.03043 177.833 5.03043C178.261 5.03043 178.924 5.18406 179.304 5.37212C179.685 5.56018 180.445 5.87787 180.993 6.07793C183.133 6.85919 188.169 9.4251 188.169 9.73428C188.169 9.91383 188.393 10.0613 188.667 10.0613C188.942 10.0616 189.687 10.497 190.324 11.0286C190.961 11.5607 191.605 11.9957 191.756 11.9957C192.184 11.9957 197.119 16.7947 198.386 18.4443C199.013 19.2604 199.638 20.0153 199.774 20.1217C200.91 21.0063 205.311 29.1479 205.311 30.3629C205.311 30.6644 205.491 31.0184 205.71 31.15C205.929 31.2816 206.109 31.804 206.109 32.3109C206.109 32.8178 206.269 33.3289 206.465 33.4466C207.389 34.0003 208.23 43.812 207.737 48.2728C207.125 53.8144 206.863 55.315 206.465 55.5534C206.269 55.671 206.109 56.1822 206.109 56.6891C206.109 57.196 205.929 57.7184 205.71 57.85C205.491 57.9816 205.311 58.3356 205.311 58.6371C205.311 59.8521 200.91 67.9937 199.774 68.8783C199.638 68.9847 199.055 69.6858 198.48 70.4365C197.312 71.9592 193.954 75.2781 192.502 76.3438C191.983 76.7253 191.019 77.4648 190.362 77.9876C189.704 78.5104 188.942 78.9384 188.667 78.9387C188.393 78.9387 188.169 79.0862 188.169 79.2657C188.169 79.5749 183.133 82.1408 180.993 82.9221C180.445 83.1221 179.685 83.4398 179.304 83.6279C178.924 83.8159 178.261 83.9696 177.833 83.9696C177.404 83.9696 176.954 84.1251 176.833 84.3155C176.605 84.673 175.354 84.8971 170.229 85.4984C168.585 85.6915 143.949 85.8618 115.484 85.8769C69.4797 85.9013 63.7956 85.8397 64.327 85.3239C64.6559 85.0047 65.2069 84.7435 65.5517 84.7435C65.8961 84.7435 66.178 84.5693 66.178 84.3565C66.178 84.1437 66.5368 83.9696 66.9753 83.9696C67.4139 83.9696 67.7727 83.7954 67.7727 83.5826C67.7727 83.3698 68.0418 83.1956 68.3707 83.1956C68.6995 83.1956 68.9686 83.0215 68.9686 82.8087C68.9686 82.5959 69.1688 82.4217 69.4136 82.4217C69.6583 82.4217 70.714 81.8123 71.7593 81.0674C72.8046 80.3225 73.7789 79.713 73.924 79.713C74.0691 79.713 75.8392 78.0739 77.8572 76.071C81.8359 72.1217 82.5232 71.3707 82.5232 70.9717C82.5232 70.8278 82.8373 70.4288 83.2209 70.0844C84.5604 68.8829 88.3054 61.7145 89.6126 57.85C92.6082 48.9941 92.3219 37.4926 88.9002 29.2152C87.3466 25.4575 84.247 19.8358 83.2209 18.9156C82.8369 18.5712 82.5232 18.1723 82.5232 18.0283C82.5232 17.6294 81.8359 16.8783 77.8572 12.929C75.8392 10.9261 74.0691 9.28696 73.924 9.28696C73.7789 9.28696 72.8046 8.6775 71.7593 7.93261C70.714 7.18772 69.6583 6.57826 69.4136 6.57826C69.1688 6.57826 68.9686 6.40413 68.9686 6.1913C68.9686 5.97848 68.6995 5.80435 68.3707 5.80435C68.0418 5.80435 67.7727 5.63022 67.7727 5.41739C67.7727 5.20457 67.4139 5.03043 66.9753 5.03043C66.5368 5.03043 66.178 4.8563 66.178 4.64348C66.178 4.43065 65.8961 4.25652 65.5517 4.25652C65.2069 4.25652 64.6559 3.99533 64.327 3.67609C63.7956 3.16027 69.4355 3.09952 115.086 3.12932C143.331 3.14789 167.967 3.3166 169.83 3.50428ZM35.4809 18.199C35.4809 23.8849 35.5686 24.8221 36.1192 25.0272C36.47 25.158 36.9325 25.0218 37.1461 24.725C37.4455 24.309 37.5815 24.2958 37.737 24.6685C37.8613 24.9657 38.7157 25.1522 39.9527 25.1522C41.6546 25.1522 42.1119 24.9877 42.9088 24.088C43.699 23.1965 43.8521 22.5998 43.8525 20.412C43.8525 18.9284 43.6806 17.8 43.4542 17.8C43.2349 17.8 43.0555 17.5682 43.0555 17.285C43.0555 16.4131 41.2348 15.741 39.4899 15.9681L37.8729 16.1787V13.8937C37.8729 11.613 37.8709 11.6087 36.6769 11.6087H35.4809V18.199ZM52.6912 12.6728C52.1415 13.7106 52.57 14.3174 53.8525 14.3174C54.8133 14.3174 55.0154 14.1564 55.0154 13.3914C55.0154 12.01 53.3203 11.4856 52.6912 12.6728ZM45.7465 16.6836C44.5533 17.5477 44.24 19.4148 45.1485 20.246C45.7437 20.7908 48.2222 21.6696 49.1635 21.6696C49.5314 21.6696 49.8328 21.8959 49.8328 22.1726C49.8328 23.1477 48.8537 23.6043 46.7631 23.6043C44.9161 23.6043 44.6502 23.7019 44.6502 24.3783C44.6502 25.079 44.9161 25.1522 47.4691 25.1522C50.5273 25.1522 51.1181 24.8534 51.5778 23.0758C52.0007 21.4405 51.0786 20.3802 48.6831 19.7472C45.2733 18.8456 46.4828 16.9858 50.0561 17.6363C51.4494 17.8902 51.6591 17.675 51.1855 16.4774C50.8111 15.5309 47.1462 15.6698 45.7465 16.6836ZM52.8654 16.4774C52.4437 17.5438 52.6043 23.1404 53.0863 24.1666C53.4236 24.8859 53.8545 25.1522 54.681 25.1522C55.8052 25.1522 56.2628 24.3071 55.4141 23.7978C55.1948 23.6663 55.0154 22.0368 55.0154 20.1763C55.0154 16.8659 54.6829 15.8652 53.583 15.8652C53.3215 15.8652 52.9986 16.1407 52.8654 16.4774ZM41.3788 17.9784C41.8751 18.4601 41.917 21.8096 41.4378 22.6791C41.0008 23.4716 40.656 23.6218 39.4895 23.5266L38.0722 23.4109L37.953 20.737C37.8195 17.747 38.1416 17.2621 40.0365 17.5999C40.6783 17.7145 41.2823 17.8847 41.3788 17.9784ZM110.185 20.001C108.945 20.2374 108.274 21.9021 108.862 23.2809C109.142 23.9352 109.633 24.3783 110.079 24.3783C110.491 24.3783 110.828 24.5524 110.828 24.7652C110.828 24.978 111.151 25.1522 111.546 25.1522C112.528 25.1522 113.22 25.9036 113.22 26.9709C113.22 27.7916 113.05 27.8609 111.028 27.8609C109.101 27.8609 108.835 27.9545 108.835 28.6348C108.835 29.3023 109.101 29.4087 110.77 29.4087C112.271 29.4087 112.942 29.1963 113.76 28.4599C115.495 26.8985 115.035 25.1092 112.622 24.0432C110.397 23.0599 110.231 22.9419 110.092 22.255C109.903 21.3213 110.705 20.9088 112.722 20.9015C114.535 20.8953 114.996 20.3628 113.519 19.9786C112.568 19.7313 111.563 19.7379 110.185 20.001ZM118.608 20.0107C118.172 20.1225 117.41 20.6716 116.914 21.2319C116.19 22.0496 116.014 22.707 116.024 24.5717C116.037 27.0858 116.51 28.0079 118.227 28.8728C120.041 29.786 121.427 29.5434 122.974 28.0416C124.209 26.8424 124.383 26.4369 124.383 24.747C124.383 22.9434 123.964 21.7381 122.964 20.667C122.466 20.1326 119.737 19.7216 118.608 20.0107ZM144.193 20.0142C140.872 20.4986 140.565 27.5571 143.803 28.9888C145.075 29.5519 146.751 29.4992 147.605 28.8701C148.717 28.0509 148.444 27.8609 146.156 27.8609C144.314 27.8609 143.918 27.7254 143.365 26.907C142.405 25.4842 142.542 23.2282 143.665 21.9598C144.411 21.1182 144.953 20.8957 146.256 20.8957C147.912 20.8957 148.449 20.4073 147.273 19.9697C146.622 19.727 146.109 19.7344 144.193 20.0142ZM105.513 20.3798C105.18 20.7022 105.16 27.9646 105.489 28.7965C106.117 30.3861 106.443 29.0105 106.443 24.7652C106.443 20.5176 106.26 19.6547 105.513 20.3798ZM128.466 20.8902C128.193 21.3132 127.971 21.9226 127.971 22.2446C127.971 22.5669 127.791 22.8304 127.572 22.8304C127.353 22.8304 127.173 23.2309 127.173 23.7204C127.173 24.2099 127.024 24.7761 126.842 24.978C126.539 25.3143 125.579 28.2006 125.579 28.7764C125.579 29.466 126.245 28.8701 126.711 27.7641C127.33 26.2937 127.799 25.1758 128.416 23.7011C128.661 23.1156 129.02 22.3347 129.213 21.9652C130.029 20.4089 129.377 19.4728 128.466 20.8902ZM131.426 20.3798C131.28 20.5215 131.16 22.4156 131.16 24.5888C131.16 27.6291 131.298 28.651 131.758 29.0217C132.284 29.4455 132.356 28.9385 132.356 24.8124C132.356 20.5219 132.174 19.6535 131.426 20.3798ZM134.748 24.5303C134.748 29.5031 134.687 29.4087 137.921 29.4087C139.127 29.4087 140.015 29.1963 140.325 28.8329C140.933 28.1221 140.505 27.9328 137.937 27.7765C136.235 27.6728 136.143 27.6082 136.143 26.5065C136.143 25.4149 136.246 25.3387 137.862 25.2253C139.224 25.1301 139.555 24.9695 139.454 24.4514C139.362 23.9843 138.843 23.7638 137.635 23.679C136.296 23.5846 135.944 23.4101 135.944 22.8397C135.944 21.2397 136.371 20.8957 138.355 20.8957C139.415 20.8957 140.393 20.7215 140.529 20.5087C140.685 20.2638 139.669 20.1217 137.762 20.1217H134.748V24.5303ZM121.866 21.7369C122.6 22.4063 122.785 22.9798 122.775 24.5423C122.769 25.6227 122.525 26.8111 122.233 27.1837C121.581 28.018 118.988 28.0973 118.175 27.3079C117.349 26.5061 117.412 22.5185 118.265 21.6034C119.153 20.6511 120.739 20.7103 121.866 21.7369ZM56.6101 23.9913C56.6101 25.0856 56.7169 25.1916 57.7064 25.081C58.5763 24.9838 58.8027 24.759 58.8027 23.9913C58.8027 23.2236 58.5763 22.9988 57.7064 22.9016C56.7169 22.791 56.6101 22.897 56.6101 23.9913ZM33.8863 28.5233C33.1189 28.615 32.3207 28.8519 32.1122 29.0492C31.9037 29.2469 31.4106 29.4087 31.0159 29.4087C30.6212 29.4087 30.2983 29.5828 30.2983 29.7957C30.2983 30.0085 30.1113 30.1826 29.8829 30.1826C28.1718 30.1826 24.0967 36.0191 24.3937 38.0444L24.5177 38.8891L45.8227 38.9894C58.9439 39.0509 67.2735 38.9479 67.5079 38.7204C67.8703 38.3687 67.7216 37.8184 66.4288 34.7293C66.184 34.1439 65.8479 33.6652 65.6821 33.6652C65.5162 33.6652 65.3807 33.4597 65.3807 33.209C65.3807 32.6204 63.0114 30.5131 61.6496 29.8905C61.0707 29.6254 60.1235 29.1924 59.545 28.9277C57.8148 28.1364 52.6813 28.3724 50.9654 29.3224C49.3496 30.217 48.05 31.1879 47.096 32.2141C46.2632 33.1095 45.7625 33.0681 44.7499 32.0207C42.0154 29.192 38.3019 27.9967 33.8863 28.5233ZM105.299 34.9584C104.643 35.7265 105.184 36.0059 106.834 35.7498C110.207 35.2262 110.215 37.9337 106.851 41.0809C105.75 42.1113 104.848 43.1282 104.848 43.3403C104.848 43.5624 106.117 43.7261 107.838 43.7261C110.23 43.7261 110.828 43.61 110.828 43.1457C110.828 42.7266 110.385 42.5652 109.234 42.5652C107.354 42.5652 107.249 42.2328 108.735 40.9768C109.338 40.4671 110.056 39.6607 110.33 39.1848C111.001 38.0193 110.961 35.6739 110.259 34.9921C109.522 34.277 105.903 34.2526 105.299 34.9584ZM112.919 34.9228C113.009 35.1891 113.966 35.4936 115.045 35.6C116.735 35.7668 116.989 35.9007 116.874 36.5674C116.801 36.993 116.577 37.5065 116.376 37.7089C116.175 37.9113 116.011 38.39 116.011 38.773C116.011 39.1561 115.862 39.4696 115.681 39.4696C115.31 39.4696 114.296 43.3515 114.592 43.6382C115.121 44.1521 116.011 43.2447 116.011 42.1903C116.011 41.5452 116.19 41.0174 116.41 41.0174C116.629 41.0174 116.808 40.6985 116.808 40.3089C116.808 39.9196 117.256 38.744 117.803 37.6969C119.413 34.6179 119.301 34.4391 115.778 34.4391C113.538 34.4391 112.798 34.5645 112.919 34.9228ZM121.298 35.5106C120.059 36.9791 120.016 40.9597 121.221 42.6024C121.923 43.5589 122.313 43.7261 123.848 43.7261C126.491 43.7261 127.147 42.8036 127.147 39.0826C127.147 35.3895 126.483 34.4356 123.92 34.4465C122.525 34.4527 122.018 34.6581 121.298 35.5106ZM130.006 35.0776C129.234 35.9247 129.181 41.3231 129.932 42.6937C130.427 43.5972 130.742 43.7261 132.452 43.7261C135.344 43.7261 135.745 43.1611 135.745 39.0826C135.745 35.0072 135.34 34.4322 132.484 34.4538C131.252 34.4631 130.362 34.6872 130.006 35.0776ZM138.336 34.7808C138.336 34.9689 137.959 35.2185 137.498 35.3353C137.036 35.453 136.779 35.7331 136.925 35.9622C137.07 36.1901 137.626 36.2702 138.161 36.1398L139.133 35.903V39.8147C139.133 43.468 139.186 43.7261 139.931 43.7261C140.684 43.7261 140.728 43.468 140.728 39.0826V34.4391H139.532C138.874 34.4391 138.336 34.5931 138.336 34.7808ZM125.105 36.002C125.808 36.6374 125.977 37.2252 125.977 39.0238C125.977 42.0997 125.04 43.1306 122.888 42.4217C122.061 42.1492 121.991 41.8919 121.991 39.1155C121.991 36.3762 122.071 36.0674 122.888 35.6851C124.115 35.1105 124.12 35.1113 125.105 36.002ZM133.59 36.0133C134.639 36.7384 134.747 37.0205 134.735 39.0122C134.719 41.7588 134.091 42.6639 132.318 42.4956C131.258 42.395 130.949 42.1539 130.669 41.2109C130.16 39.492 130.603 36.3817 131.446 35.7614C132.354 35.0923 132.238 35.0788 133.59 36.0133ZM25.6044 44.2098C27.2792 47.0911 27.7022 47.7845 27.9063 47.9826C28.016 48.089 28.3596 48.6114 28.6698 49.1435C28.9799 49.6755 29.7525 50.9815 30.386 52.0457C31.0199 53.1098 31.639 54.285 31.7622 54.6576C31.8854 55.0302 32.1445 55.3348 32.3383 55.3348C32.5316 55.3348 32.6903 55.596 32.6903 55.9152C32.6903 56.2345 32.849 56.4957 33.0423 56.4957C33.2361 56.4957 33.4972 56.8002 33.6228 57.1728C33.7483 57.5455 34.4014 58.7206 35.0743 59.7848C35.7468 60.8489 36.5139 62.1549 36.7782 62.687C37.0425 63.219 37.3527 63.7414 37.4675 63.8478C37.9235 64.2708 40.2649 68.1786 40.2649 68.5168C40.2649 68.7157 40.404 68.8783 40.5743 68.8783C40.7445 68.8783 41.2376 69.6603 41.6706 70.6161C42.1035 71.5715 42.5704 72.3551 42.7083 72.3574C42.8458 72.3593 43.1819 72.8833 43.4542 73.5217C43.7265 74.1602 44.0737 74.6826 44.2256 74.6826C44.3771 74.6826 44.7447 75.2843 45.0417 76.0195C45.3391 76.7548 45.7174 77.2752 45.8829 77.1758C46.2939 76.9293 49.8328 71.1849 49.8328 70.7639C49.8328 70.5782 50.0122 70.4261 50.2315 70.4261C50.4507 70.4261 50.6301 70.2353 50.6301 70.002C50.6301 69.769 50.9606 69.1159 51.3645 68.5509C51.7687 67.9859 52.6207 66.5662 53.2581 65.3957C53.896 64.2251 54.5522 63.2094 54.7164 63.1385C54.8807 63.0673 55.0154 62.7628 55.0154 62.4614C55.0154 62.1595 55.1741 61.913 55.3675 61.913C55.5612 61.913 55.8235 61.6085 55.9503 61.2359C56.0775 60.8632 56.8258 59.5139 57.6139 58.237C58.4021 56.96 59.1476 55.6107 59.2704 55.238C59.3932 54.8654 59.6523 54.5609 59.846 54.5609C60.0394 54.5609 60.1981 54.3747 60.1981 54.1468C60.1981 53.9193 60.7362 52.9736 61.394 52.0457C62.0518 51.1177 62.59 50.172 62.59 49.9445C62.59 49.7166 62.7248 49.5285 62.889 49.5262C63.0533 49.5235 63.544 48.7836 63.9794 47.8816C64.4147 46.9792 64.8712 46.1542 64.994 46.0478C65.2778 45.8017 66.9753 42.9649 66.9753 42.7366C66.9753 42.6422 57.4521 42.5652 45.8123 42.5652H24.6488L25.6044 44.2098ZM105.646 52.0457C105.646 53.9804 105.81 55.3348 106.044 55.3348C106.279 55.3348 106.443 53.9804 106.443 52.0457C106.443 50.1109 106.279 48.7565 106.044 48.7565C105.81 48.7565 105.646 50.1109 105.646 52.0457ZM113.715 49.8207C113.282 51.0322 113.54 55.2419 114.067 55.5581C114.259 55.6734 114.416 54.8967 114.416 53.8326C114.416 52.7685 114.572 51.8046 114.761 51.6908C114.951 51.577 115.02 51.0442 114.914 50.5071C114.773 49.7885 114.892 49.5304 115.366 49.5304C115.721 49.5304 116.011 49.3563 116.011 49.1435C116.011 48.9307 115.58 48.7565 115.053 48.7565C114.366 48.7565 113.988 49.0576 113.715 49.8207ZM158.495 49.5018C157.458 50.6151 157.872 51.5693 159.764 52.4225C161.945 53.4062 162.107 54.5609 160.063 54.5609C159.089 54.5609 158.668 54.7358 158.668 55.1413C158.668 55.8111 159.749 55.892 161.258 55.3352C162.138 55.0105 162.286 54.7462 162.181 53.691C162.079 52.664 161.778 52.3068 160.535 51.7411C158.535 50.8302 158.652 49.7738 160.772 49.6032C162.58 49.4581 162.354 48.7565 160.5 48.7565C159.713 48.7565 158.913 49.0541 158.495 49.5018ZM182.189 49.1435C182.189 49.3563 182.368 49.5304 182.588 49.5304C182.807 49.5304 182.986 49.3563 182.986 49.1435C182.986 48.9307 182.807 48.7565 182.588 48.7565C182.368 48.7565 182.189 48.9307 182.189 49.1435ZM139.133 50.3043C139.133 50.73 138.918 51.0783 138.655 51.0783C138.283 51.0783 138.283 51.1816 138.655 51.5426C138.918 51.798 139.133 52.7371 139.133 53.6295C139.133 55.3019 140.013 56.1834 140.861 55.3603C141.127 55.1022 141.039 54.8906 140.595 54.7257C139.674 54.3825 139.698 52.0224 140.628 51.4962C141.293 51.1204 141.293 51.1011 140.628 51.0899C140.201 51.0829 139.931 50.7791 139.931 50.3043C139.931 49.8787 139.751 49.5304 139.532 49.5304C139.313 49.5304 139.133 49.8787 139.133 50.3043ZM184.984 50.1051C183.902 51.3704 184.745 55.7217 186.072 55.7217C186.671 55.7217 186.739 55.0922 186.176 54.7543C185.488 54.3419 185.71 51.9288 186.475 51.4962C186.886 51.2636 186.963 51.0968 186.661 51.0899C186.38 51.0837 186.011 50.7145 185.842 50.2703C185.559 49.527 185.49 49.5138 184.984 50.1051ZM108.038 53.4774C108.038 56.2236 108.711 56.164 108.91 53.4C109.013 51.957 109.171 51.6587 109.832 51.6587C110.5 51.6587 110.648 51.9559 110.751 53.4967C110.919 56.0456 111.626 55.8115 111.626 53.2065V51.0783H109.832H108.038V53.4774ZM116.54 52.2182C115.694 54.3933 117.128 56.0468 119.385 55.4973C120.369 55.2574 120.427 55.1185 120.316 53.2568L120.197 51.2717L118.597 51.1572C117.136 51.0527 116.957 51.1452 116.54 52.2182ZM121.991 53.2065C121.991 54.3771 122.17 55.3348 122.39 55.3348C122.609 55.3348 122.788 54.5454 122.788 53.5811C122.788 52.1238 122.94 51.7682 123.685 51.4772C124.499 51.1595 124.463 51.1251 123.287 51.1026L121.991 51.0783V53.2065ZM125.579 52.9747C125.579 54.0346 125.758 55.0097 125.977 55.1413C126.22 55.2872 126.376 54.7075 126.376 53.6577C126.376 52.4833 126.566 51.8642 126.974 51.7121C128.19 51.2594 128.768 51.8796 128.768 53.6349C128.768 54.5698 128.948 55.3348 129.167 55.3348C129.386 55.3348 129.565 54.5616 129.565 53.6163C129.565 51.7895 129.9 51.3174 130.925 51.6989C131.371 51.8649 131.559 52.438 131.559 53.6349C131.559 54.5698 131.748 55.3348 131.978 55.3348C132.234 55.3348 132.351 54.5411 132.277 53.3033L132.157 51.2717L128.868 51.1595L125.579 51.0469V52.9747ZM134.947 51.4188C136.082 51.6552 136.141 51.7624 136.092 53.5014C136.049 55.0546 136.156 55.3348 136.79 55.3348C137.406 55.3348 137.539 55.0407 137.539 53.6709C137.539 51.6355 137.007 51.0643 135.167 51.1239L133.751 51.17L134.947 51.4188ZM142.721 53.2065C142.721 54.3771 142.901 55.3348 143.12 55.3348C143.339 55.3348 143.519 54.3771 143.519 53.2065C143.519 52.036 143.339 51.0783 143.12 51.0783C142.901 51.0783 142.721 52.036 142.721 53.2065ZM144.802 52.178C143.813 54.3666 145.815 56.4202 147.888 55.3433C148.607 54.9695 148.724 54.6112 148.622 53.0854L148.502 51.2717L146.907 51.1591C145.479 51.0585 145.26 51.1642 144.802 52.178ZM150.296 53.2065C150.296 55.8115 151.003 56.0456 151.171 53.4967C151.273 51.9559 151.421 51.6587 152.09 51.6587C152.733 51.6587 152.912 51.9574 153.014 53.2065C153.218 55.7132 153.884 55.7724 153.884 53.2839V51.0783H152.09H150.296V53.2065ZM163.864 51.8266C163.368 52.7279 163.338 54.1747 163.802 54.8851C164.266 55.5944 166.702 55.6765 166.949 54.9908C167.069 54.6607 166.968 54.5582 166.689 54.7253C166.13 55.0608 164.648 54.6417 164.648 54.148C164.648 53.9495 165.276 53.787 166.043 53.787C167.316 53.787 167.438 53.6891 167.438 52.6675C167.438 52.0035 167.182 51.4524 166.808 51.3131C165.581 50.8561 164.274 51.0845 163.864 51.8266ZM168.734 51.6571C167.96 52.51 168.142 54.1979 169.094 54.9993C170.031 55.7875 170.249 55.8382 171.193 55.4869C172.057 55.1649 171.995 54.4568 171.126 54.7195C169.98 55.0658 169.361 54.4014 169.502 52.9743C169.611 51.87 169.82 51.6231 170.827 51.4161L172.023 51.17L170.628 51.1386C169.86 51.1216 169.008 51.3549 168.734 51.6571ZM173.418 53.1651C173.418 55.4849 173.808 55.8591 175.815 55.4694C176.961 55.2469 177.006 55.1579 177.006 53.1581C177.006 52.0143 176.827 51.0783 176.608 51.0783C176.388 51.0783 176.209 51.8433 176.209 52.7782C176.209 54.4525 175.76 55.0194 174.714 54.665C174.417 54.5644 174.216 53.8067 174.216 52.7874C174.216 51.8475 174.036 51.0783 173.817 51.0783C173.598 51.0783 173.418 52.0174 173.418 53.1651ZM178.601 53.2065C178.601 54.3771 178.78 55.3348 179 55.3348C179.219 55.3348 179.398 54.5655 179.398 53.6256C179.398 52.1134 179.525 51.8719 180.495 51.5279C181.574 51.1452 181.568 51.139 180.096 51.1088L178.601 51.0783V53.2065ZM182.189 53.2065C182.189 54.3771 182.368 55.3348 182.588 55.3348C182.807 55.3348 182.986 54.3771 182.986 53.2065C182.986 52.036 182.807 51.0783 182.588 51.0783C182.368 51.0783 182.189 52.036 182.189 53.2065ZM188.169 52.2163C188.169 52.8424 188.348 53.4619 188.568 53.5935C188.787 53.725 188.966 54.1704 188.966 54.5837C188.966 54.997 189.166 55.3348 189.412 55.3348C189.673 55.3348 189.777 55.7399 189.663 56.3176C189.316 58.0814 190.299 57.1063 190.875 55.1154C191.728 52.1702 191.883 51.0783 191.45 51.0783C191.007 51.0783 190.575 52.3575 190.567 53.6902C190.563 54.1693 190.382 54.5609 190.162 54.5609C189.943 54.5609 189.764 54.2126 189.764 53.787C189.764 53.3613 189.584 53.013 189.365 53.013C189.146 53.013 188.966 52.5777 188.966 52.0457C188.966 51.5136 188.787 51.0783 188.568 51.0783C188.348 51.0783 188.169 51.5902 188.169 52.2163ZM119.371 52.0731C120.161 52.8405 120.167 53.5672 119.388 54.3233C118.408 55.2752 117.606 54.6669 117.606 52.9716C117.606 51.3267 118.259 50.9939 119.371 52.0731ZM147.273 51.7001C148.095 52.0062 148.131 54.3937 147.318 54.6967C146.995 54.8166 146.457 54.6487 146.122 54.3233C145.441 53.6627 145.423 53.5664 145.763 52.3359C146.017 51.4176 146.251 51.3193 147.273 51.7001ZM166.194 51.815C166.907 52.2531 166.417 53.013 165.422 53.013C164.673 53.013 164.372 52.2492 164.914 51.7233C165.261 51.3859 165.527 51.4049 166.194 51.815ZM133.794 53.6252C133.47 54.4444 133.464 54.42 134.178 55.1138C135.087 55.9953 135.636 55.8591 135.05 54.8971C134.65 54.2385 134.649 54.0377 135.047 53.8976C135.815 53.6275 135.637 53.013 134.791 53.013C134.376 53.013 133.927 53.2886 133.794 53.6252ZM105.914 60.6492C105.519 61.2796 105.459 66.7531 105.845 66.8514C106.065 66.9071 106.297 65.9974 106.363 64.8199C106.429 63.6466 106.653 62.687 106.862 62.687C107.07 62.687 107.24 63.0271 107.24 63.4427C107.24 64.5757 108.093 66.1696 108.7 66.1696C108.993 66.1696 109.234 65.8213 109.234 65.3957C109.234 64.97 109.413 64.6217 109.632 64.6217C109.852 64.6217 110.031 64.1864 110.031 63.6543C110.031 63.1223 110.21 62.687 110.43 62.687C110.649 62.687 110.828 63.6447 110.828 64.8152C110.828 66.5178 110.957 66.9435 111.473 66.9435C112.036 66.9435 112.082 66.5619 111.836 63.9446C111.681 62.2954 111.413 60.8017 111.241 60.6256C110.818 60.1953 109.234 62.4045 109.234 63.4237C109.234 64.7757 108.453 64.3358 107.658 62.536C106.896 60.8114 106.25 60.1121 105.914 60.6492ZM157.883 61.5907C157.876 61.9452 157.646 62.324 157.372 62.432C156.992 62.5817 156.986 62.7055 157.347 62.9551C157.607 63.135 157.876 64.1497 157.945 65.2095C158.056 66.9307 158.176 67.1517 159.065 67.2732C160.025 67.4043 160.036 67.3827 159.364 66.6622C158.478 65.7114 158.406 63.0739 159.266 63.0739C159.595 63.0739 159.864 62.8998 159.864 62.687C159.864 62.4741 159.659 62.3 159.409 62.3C159.159 62.3 158.717 61.9955 158.425 61.6228C157.944 61.0072 157.895 61.0041 157.883 61.5907ZM113.832 62.6653C113.671 62.9184 114.036 63.0739 114.791 63.0739C115.745 63.0739 116.011 63.2426 116.011 63.8478C116.011 64.4457 115.745 64.6217 114.842 64.6217C114.014 64.6217 113.597 64.8528 113.414 65.4142C113.044 66.5434 113.894 67.3304 115.481 67.3304H116.846L116.728 64.912C116.61 62.5093 116.601 62.4927 115.351 62.3751C114.659 62.3097 113.975 62.4405 113.832 62.6653ZM119.05 62.7976C118.524 63.1707 118.381 63.7205 118.475 64.9928C118.653 67.3695 119.599 67.5626 119.599 65.2223C119.599 63.9697 119.783 63.368 120.214 63.2074C121.065 62.8905 121.306 63.2248 121.566 65.0811C121.69 65.9645 122.016 66.7593 122.29 66.8475C122.978 67.0692 122.931 63.8699 122.233 62.9772C121.611 62.1808 120.043 62.0926 119.05 62.7976ZM124.383 62.6626C124.383 62.8886 124.831 63.0739 125.379 63.0739C126.11 63.0739 126.376 63.2802 126.376 63.8478C126.376 64.3725 126.11 64.6217 125.551 64.6217C124.769 64.6217 123.586 65.4374 123.586 65.9761C123.586 66.6146 124.845 67.3304 125.968 67.3304H127.211L127.093 64.912C126.974 62.4935 126.974 62.4935 125.678 62.3724C124.951 62.3043 124.383 62.4312 124.383 62.6626ZM129.263 63.0685C128.111 64.8586 128.964 67.3304 130.733 67.3304C132.022 67.3304 131.759 68.4863 130.462 68.5184C129.491 68.5428 129.457 68.5834 130.163 68.8783C131.297 69.3511 131.429 69.336 132.128 68.6573C132.766 68.0382 133.023 64.2015 132.513 62.9122C132.154 62.0032 129.878 62.1127 129.263 63.0685ZM134.611 63.0077C133.735 63.9469 133.771 65.8921 134.68 66.69C135.472 67.3865 137.539 67.5696 137.539 66.9435C137.539 66.7307 137.112 66.5565 136.591 66.5565C136.07 66.5565 135.42 66.2953 135.147 65.9761C134.721 65.4785 134.856 65.3957 136.095 65.3957C137.41 65.3957 137.539 65.2993 137.539 64.3122C137.539 62.3789 135.884 61.6418 134.611 63.0077ZM139.133 64.8856C139.133 67.8331 139.839 68.1663 140.01 65.2989C140.112 63.5642 140.246 63.2674 140.927 63.2674C141.581 63.2674 141.763 63.5951 141.94 65.0892C142.225 67.4941 142.72 67.9097 142.727 65.7505C142.735 63.5518 143.236 62.7241 144.205 63.3069C144.684 63.5948 144.953 64.3184 145.036 65.5319C145.102 66.5213 145.327 67.3304 145.534 67.3304C146.108 67.3304 145.996 63.1734 145.412 62.8065C145.138 62.6343 143.614 62.4815 142.024 62.4672L139.133 62.4405V64.8856ZM147.569 63.2856C146.97 64.5618 146.978 66.2767 147.585 66.8661C148.134 67.3993 150.296 67.4999 150.296 66.9918C150.296 66.8057 149.758 66.5488 149.1 66.4211C147.449 66.1007 147.595 65.3957 149.312 65.3957C150.965 65.3957 151.448 64.6345 150.68 63.2415C149.955 61.927 148.195 61.9521 147.569 63.2856ZM152.555 62.5581C152.133 62.9671 152.247 66.8723 152.688 67.137C152.928 67.2809 153.087 66.7647 153.087 65.8372C153.087 64.9905 153.195 64.0227 153.329 63.6861C153.933 62.1561 155.447 63.7093 155.466 65.8793C155.473 66.6776 155.658 67.3304 155.877 67.3304C156.505 67.3304 156.358 63.4852 155.706 62.853C155.125 62.288 153.034 62.0926 152.555 62.5581ZM131.559 65.0222C131.559 66.8688 131.516 66.9485 130.739 66.5449C129.64 65.9738 129.369 65.155 129.903 64.0165C130.701 62.317 131.559 62.8383 131.559 65.0222ZM136.741 63.8478C136.741 64.3636 136.475 64.6217 135.944 64.6217C135.066 64.6217 135.038 64.5738 135.389 63.6861C135.736 62.8092 136.741 62.9296 136.741 63.8478ZM149.655 63.6861C150.012 64.5888 149.986 64.6217 148.901 64.6217C147.812 64.6217 147.639 64.2595 148.382 63.5383C149.025 62.9141 149.366 62.9536 149.655 63.6861ZM116.011 66.1978C116.011 66.7515 115.796 66.9601 115.318 66.8707C114.279 66.6765 114.163 65.3957 115.184 65.3957C115.755 65.3957 116.011 65.6441 116.011 66.1978ZM126.376 66.211C126.376 66.7953 126.198 66.9597 125.745 66.7914C125.399 66.6622 125.04 66.5565 124.948 66.5565C124.856 66.5565 124.782 66.2953 124.782 65.9761C124.782 65.6537 125.136 65.3957 125.579 65.3957C126.124 65.3957 126.376 65.6537 126.376 66.211Z" fill="white"/>
</svg>
