<svg width="251" height="214" viewBox="0 0 251 214" xmlns="http://www.w3.org/2000/svg" fill="none"><path d="M65.823 148.955c-3.054 1.761-8.004 1.761-11.064 0-3.054-1.76-3.054-4.619 0-6.38 3.054-1.76 8.004-1.76 11.064 0 3.054 1.761 3.054 4.614 0 6.38zM83.786 159.917c-3.054 1.76-8.004 1.76-11.064 0-3.054-1.761-3.054-4.62 0-6.38 3.054-1.761 8.004-1.761 11.064 0 3.054 1.76 3.054 4.619 0 6.38zM183.735 209.586l-181.198-101.346c-1.522-.854-1.625-2.909-.182-3.699l61.097-33.374 185.53 103.771c1.522.854 1.625 2.909.182 3.699l-56.998 31.136c-2.534 1.389-5.75 1.314-8.431-.187z" fill="#381E54" fill-opacity=".7"/><path d="M28.676 73.787l43.004-23.227 6.66 3.842-43.01 23.221-6.654-3.836zM56.527 109.145l43.004-23.221.457 16.172-43.004 23.221-.456-16.172z" fill="#5A4B77"/><path d="M63.798 94.052l43.004-23.221.559 19.616-43.01 23.22-.553-19.616z" fill="#817199"/><path d="M55.968 89.535l43.01-23.221 7.824 4.517-43.004 23.221-7.831-4.517z" fill="#5A4B77"/><path d="M43.669 35.525l43.01-23.221-14.999 38.256-43.004 23.227 14.992-38.262z" fill="#726787"/><path d="M34.88 61.566l43.004-23.221 20.637 11.912-43.004 23.221-20.637-11.912z" fill="#817199"/><path d="M55.518 73.479l43.004-23.221.457 16.057-43.01 23.221-.45-16.057z" fill="#726787"/><path d="M43.669 35.525l-14.993 38.262 6.654 3.836-.45-16.057 20.637 11.912.45 16.057 7.831 4.517.553 19.616-7.824-4.523.457 16.172-20.637-11.906-.457-16.172-29.252-16.879-.501-17.836 16.214-39.303 21.319 12.304z" fill="#80FBDB"/><path d="M22.35 23.221l43.004-23.221 21.325 12.304-43.01 23.221-21.319-12.304z" fill="#9E90B2"/><path d="M140.24 107.057l-.026.006c-.219.032-.444.032-.682-.006h-.012c-.496-.077-1.042-.289-1.646-.643-.302-.173-.585-.366-.862-.572l-.032-.019c-.27-.206-.534-.43-.784-.675l-.02-.019c-.25-.244-.495-.514-.72-.803l-.013-.013c-.225-.283-.437-.585-.642-.906l-.071-.122c-.193-.315-.379-.642-.553-.996l-.006-.019c-.187-.379-.367-.777-.534-1.208l-.013-.032c-.167-.424-.328-.874-.476-1.349l-.013-.032c-.141-.463-.282-.951-.411-1.459l-.045-.18c-.116-.482-.231-.983-.334-1.51l-.065-.321c-.083-.443-.167-.9-.244-1.375l-.077-.482c-.071-.45-.129-.925-.193-1.407l-.083-.61-.078-.726c-.064-.572-.128-1.157-.18-1.767-.064-.7-.128-1.42-.18-2.172l-.006-.116c-.058-.771-.103-1.574-.154-2.409l-.026-.45c-.045-.822-.084-1.671-.122-2.557l-.013-.379c-.039-.938-.071-1.895-.097-2.898-.025-.816-.045-1.6-.057-2.364v-.071l-.033-1.947-.006-.578c-.006-.463-.006-.912-.006-1.349v-.591l.006-1.009.013-.97.019-.861.032-.899.045-1.054.02-.34c.025-.45.057-.88.09-1.298.045-.533.096-1.041.154-1.516l.064-.482.103-.733.122-.649.071-.373c.071-.308.141-.598.219-.867l.038-.122c.064-.218.135-.424.206-.617l.09-.225.18-.398.141-.264.161-.257c.09-.135.186-.257.289-.366l.135-.148c.148-.141.302-.263.47-.353l-43.004 23.221c-.167.09-.322.212-.469.353l-.135.148c-.103.109-.199.231-.289.366l-.071.09-.09.167-.141.257-.071.128-.109.27-.09.225-.038.096-.167.52-.039.122-.006.019c-.071.251-.135.514-.199.797l-.013.051-.071.366-.109.559-.013.09-.103.726-.058.424-.006.064c-.058.475-.109.983-.154 1.516l-.006.071c-.032.392-.058.803-.084 1.227l-.019.321-.039.758-.013.315-.026.887-.019.867-.013.97-.006.604v.996c0 .437 0 .887.006 1.349l.007.578c.006.63.019 1.272.032 1.947v.077c.013.604.026 1.215.045 1.851l.013.514c.026 1.002.064 1.959.096 2.897l.013.38c.038.88.077 1.734.122 2.557l.026.437.026.494.122 1.922.006.115.154 1.941.026.231c.058.61.116 1.189.18 1.76l.064.624.013.102.084.611.154 1.169.039.238.077.482.116.732.122.643.064.328.038.205c.064.315.129.617.199.913l.097.385.045.18.051.218.18.656.161.546.013.038.013.033.122.385.154.443.122.328.077.199.013.032.032.084.129.308.129.296.135.289.116.238.006.013.013.025c.096.193.193.379.296.559l.251.412.071.115.039.071.167.25.174.245.167.218.096.122.013.013.026.039.141.167.141.167.148.167.18.186.084.077.019.019.077.078.186.173.206.18.212.173.096.078.026.019.09.07.238.168.244.16.251.154.039.02.206.115.231.122.225.103.199.084.193.07.193.058.186.045.186.039h.039l.148.019.193.013.219-.007.129-.019.026-.006.051-.007.315-.083.251-.116 43.004-23.221c-.18.129-.386.2-.604.232z" fill="#5A4B77"/><path d="M164.914 101.859c0-.868-.006-1.761-.026-2.667l-.006-.514-.006-.199c-.033-1.137-.084-2.268-.148-3.386l-.084-1.118-.077-1.073-.077-1.073c-.09-1.015-.193-2.017-.315-3.013l-.026-.18-.051-.379c-.097-.752-.193-1.504-.302-2.249-.097-.636-.2-1.266-.309-1.895l-.071-.443-.045-.257c-.141-.81-.296-1.606-.456-2.397-.103-.501-.219-.996-.328-1.491l-.097-.43-.077-.347c-.16-.694-.334-1.381-.508-2.063-.154-.591-.315-1.182-.482-1.767l-.019-.077-.013-.051c-.167-.585-.341-1.163-.521-1.741-.16-.527-.334-1.047-.508-1.561l-.237-.688-.084-.244-.174-.495c-.16-.456-.327-.906-.501-1.356-.154-.405-.315-.81-.476-1.208l-.308-.745-.065-.154-.115-.289-.521-1.201c-.18-.405-.367-.803-.553-1.195l-.482-.996-.052-.109-.07-.141c-.309-.623-.63-1.24-.958-1.85-.232-.424-.47-.835-.708-1.253l-.282-.501c-.47-.797-.945-1.587-1.441-2.352l-.475-.707-.212-.315-.296-.443c-.283-.411-.579-.816-.868-1.221-.244-.334-.489-.662-.739-.983l-.264-.334-.116-.148-.379-.475c-.264-.328-.534-.655-.804-.977-.27-.321-.546-.642-.829-.957l-.366-.398-.161-.173-.386-.418c-.328-.353-.662-.7-1.003-1.041-.347-.353-.701-.7-1.061-1.041l-.128-.122-.135-.122c-.296-.276-.592-.553-.894-.822-.398-.353-.797-.7-1.202-1.041l-.572-.463-.264-.212-.424-.341c-.431-.334-.862-.668-1.305-.989-.373-.276-.759-.54-1.138-.803l-.116-.084-.096-.064c-.47-.321-.945-.63-1.421-.932-.489-.309-.984-.61-1.479-.9l-.212-.122c-.431-.251-.862-.488-1.286-.713l-.045-.026c-.476-.251-.939-.495-1.401-.72l-.348-.161c-.321-.154-.649-.308-.964-.45l-.006-.006-.63-.263-.637-.264h-.006c-.405-.161-.804-.302-1.203-.437l-.012-.006-.335-.103c-.276-.09-.553-.18-.823-.257l-.032-.006-.456-.116-.65-.167-.045-.007-.507-.096-.56-.109-.058-.006-.643-.084-.43-.058h-.039c-.334-.032-.669-.051-.996-.058l-.103-.006h-.007c-.379-.006-.752.006-1.118.026h-.077l-.193.026c-.322.026-.643.071-.952.122l-.186.026-.129.032c-.469.09-.926.212-1.369.36l-.077.019-.123.058c-.475.174-.938.366-1.382.61l-43.004 23.221c.444-.238.907-.437 1.382-.61l.199-.077c.444-.148.9-.27 1.369-.36l.315-.058c.315-.051.63-.09.951-.122l.27-.026c.367-.026.739-.032 1.119-.026l.084.006c.334.006.675.026 1.016.058l.469.058.643.083.617.116.508.096.701.173.45.116c.283.077.566.174.855.264l.328.103c.399.135.81.283 1.222.443l.611.251.662.276c.296.129.598.276.9.418l.418.193c.463.225.926.463 1.401.72.437.231.881.482 1.331.739 1.099.636 2.173 1.311 3.215 2.024l.116.077c.984.675 1.942 1.394 2.867 2.14l.264.212c.913.745 1.806 1.523 2.668 2.332l.135.122c.887.842 1.749 1.715 2.578 2.621l.154.174c.823.906 1.614 1.844 2.379 2.814l.116.141c.752.964 1.478 1.96 2.173 2.988l.212.315c.662.989 1.305 2.011 1.916 3.065l.283.501c.604 1.054 1.189 2.133 1.735 3.245l.052.109c.591 1.195 1.151 2.422 1.678 3.682l.064.154c.514 1.24 1.003 2.512 1.46 3.804l.083.244c.457 1.317.887 2.666 1.279 4.041l.02.071c.392 1.362.746 2.763 1.067 4.177l.09.424c.302 1.362.585 2.743.829 4.151l.071.436c.232 1.363.431 2.744.611 4.145l.051.379c.167 1.4.302 2.827.418 4.266l.077 1.073c.103 1.484.187 2.975.232 4.498l.013.707c.019.905.032 1.799.025 2.666 0 .386-.006.752-.013 1.131-.006.623-.025 1.24-.045 1.844-.012.398-.032.79-.051 1.176-.026.527-.058 1.047-.096 1.561-.026.386-.058.771-.09 1.144-.045.469-.09.931-.142 1.381-.038.373-.083.745-.128 1.105-.058.424-.116.836-.18 1.24-.058.354-.11.707-.174 1.048-.071.392-.148.771-.225 1.143-.064.328-.135.656-.206.971-.09.385-.186.751-.283 1.118-.077.289-.154.584-.238.867-.122.411-.25.803-.385 1.195l-.232.681c-.231.63-.482 1.234-.745 1.799-.213.45-.431.88-.663 1.292l-.193.334c-.154.257-.308.501-.469.745-.18.27-.36.527-.553.777-.128.174-.263.347-.398.508-.2.244-.412.469-.624.688l-.405.417c-.238.225-.489.431-.746.636l-.373.302c-.385.283-.784.54-1.195.758l43.003-23.22c.412-.225.81-.482 1.196-.758l.367-.302c.25-.2.501-.405.745-.636l.405-.418c.213-.225.425-.45.624-.694.135-.161.264-.334.392-.508.187-.25.373-.507.553-.777l.193-.27.276-.469.193-.334c.225-.405.444-.816.65-1.259l.013-.033c.263-.565.514-1.169.745-1.799l.045-.115.187-.566c.135-.392.263-.777.385-1.188l.071-.219.167-.649c.097-.366.193-.732.283-1.111l.077-.302.135-.675c.078-.373.155-.752.225-1.144l.071-.366.097-.681c.064-.411.128-.822.18-1.24l.064-.443.064-.662c.052-.45.097-.913.142-1.375l.057-.54.039-.61c.039-.508.071-1.028.096-1.555l.039-.662.013-.514c.019-.598.032-1.214.045-1.838l.019-.783v-.36z" fill="#9E90B2"/><path d="M92.986 63.282c17.802 10.274 28.114 31.072 28.886 58.424.771 27.346-8.68 36.752-26.482 26.478-18.001-10.389-28.211-31.136-28.982-58.482-.778-27.352 8.57-36.81 26.578-26.42zm1.877 66.353c4.79 2.763 6.082-2.814 5.587-20.291-.495-17.605-2.154-24.756-6.943-27.519-4.892-2.821-6.185 2.628-5.683 20.233.495 17.476 2.147 24.756 7.04 27.577z" fill="#80FBDB"/><path d="M149.459 143.475l43.004-23.221 6.654 3.842-43.004 23.221-6.654-3.842z" fill="#5A4B77"/><path d="M177.303 178.839l43.01-23.221.457 16.173-43.004 23.22-.463-16.172z" fill="#817199"/><path d="M184.581 163.74l43.003-23.221.553 19.616-43.004 23.221-.552-19.616z" fill="#9E90B2"/><path d="M176.75 159.223l43.004-23.221 7.83 4.517-43.003 23.221-7.831-4.517z" fill="#5A4B77"/><path d="M164.445 105.213l43.004-23.221-14.986 38.262-43.004 23.221 14.986-38.262z" fill="#817199"/><path d="M155.656 131.26l43.011-23.22 20.637 11.906-43.01 23.22-20.638-11.906z" fill="#9E90B2"/><path d="M176.294 143.166l43.01-23.22.45 16.056-43.004 23.221-.456-16.057z" fill="#817199"/><path d="M164.445 105.213l-14.986 38.262 6.654 3.842-.457-16.056 20.638 11.905.456 16.057 7.831 4.517.553 19.616-7.831-4.517.463 16.172-20.644-11.906-.456-16.172-29.246-16.879-.508-17.843 16.208-39.303 21.325 12.304z" fill="#80FBDB"/><path d="M43.669 35.525l-14.993 38.262 6.654 3.836-.45-16.057 20.637 11.912.45 16.057 7.831 4.517.553 19.616-7.824-4.523.457 16.172-20.637-11.906-.457-16.172-29.252-16.879-.501-17.836 16.214-39.303 21.319 12.304zM92.986 63.282c17.802 10.274 28.114 31.072 28.886 58.424.771 27.346-8.68 36.752-26.482 26.479-18.001-10.39-28.211-31.137-28.982-58.483-.778-27.352 8.57-36.81 26.578-26.42zm1.877 66.353c4.79 2.763 6.082-2.814 5.587-20.291-.495-17.605-2.154-24.756-6.943-27.519-4.892-2.821-6.185 2.628-5.683 20.233.495 17.477 2.147 24.756 7.04 27.577zM164.445 105.213l-14.986 38.262 6.654 3.842-.457-16.056 20.638 11.905.456 16.057 7.831 4.517.553 19.616-7.831-4.517.463 16.172-20.644-11.906-.456-16.172-29.246-16.879-.508-17.843 16.208-39.303 21.325 12.304z" fill="#F8F8F8"/><path d="M143.12 92.909l43.004-23.221 21.325 12.304-43.004 23.221-21.325-12.304z" fill="#9E90B2"/><path d="M109.888 65.82c-.804-.308-1.691.186-1.852 1.034l-1.311 6.907-18.445-5.731 1.652-8.681c.122-.655-.238-1.311-.861-1.555-.81-.308-1.697.186-1.858 1.035l-17.346 91.225c-.129.668.251 1.324.887 1.562.804.295 1.678-.206 1.839-1.041l2.147-11.277 18.445 5.732-2.404 12.644c-.129.669.251 1.324.887 1.562.804.295 1.678-.206 1.839-1.041l17.268-90.82c.103-.662-.263-1.317-.887-1.555zm-3.684 10.679l-1.652 8.674-18.445-5.731 1.646-8.674 18.451 5.731zm-26.61 37.189l1.652-8.7 18.445 5.731-1.652 8.7-18.445-5.731zm17.924 8.468l-1.652 8.7-18.445-5.732 1.652-8.699 18.445 5.731zm-15.751-19.905l1.659-8.719 18.445 5.731-1.659 8.719-18.445-5.731zm2.179-11.456l1.639-8.623 18.445 5.731-1.639 8.623-18.445-5.731zm-8.698 45.766l1.652-8.699 18.445 5.731-1.652 8.7-18.445-5.732z" fill="#A99FB7" fill-opacity=".3"/><path d="M109.489 66.784c-.745-.431-1.697-.084-1.993.726l-2.385 6.618-17.32-8.552 2.99-8.314c.225-.63-.032-1.33-.611-1.671-.746-.43-1.704-.084-1.999.732l-31.438 87.377c-.231.636.039 1.349.63 1.677.746.417 1.691.064 1.98-.739l3.89-10.801 17.313 8.552-4.359 12.111c-.231.637.039 1.35.63 1.677.746.418 1.691.065 1.98-.738l31.31-86.991c.218-.63-.039-1.33-.618-1.664zm-5.316 9.965l-2.99 8.308-17.32-8.552 2.99-8.308 17.32 8.552zm-32.113 32.563l3.002-8.333 17.32 8.551-3.002 8.334-17.32-8.552zm16.375 11.167l-3.002 8.333-17.313-8.551 3.002-8.334 17.313 8.552zm-12.434-22.122l3.009-8.353 17.32 8.552-3.009 8.353-17.32-8.552zm3.947-10.974l2.97-8.256 17.32 8.552-2.97 8.256-17.32-8.552zm-15.777 43.833l3.002-8.334 17.313 8.552-3.002 8.333-17.314-8.551z" fill="#E60D2E"/></svg>