<svg xmlns="http://www.w3.org/2000/svg" fill="none"><g clip-path="url(#a)"><path d="M254.669 373.234l-146.458-84.533c-4.136-2.391-3.621-6.566 1.163-9.327l99.727-57.54c4.784-2.761 12.027-3.065 16.163-.674l146.458 84.532c4.137 2.392 3.622 6.567-1.163 9.328l-99.727 57.54c-4.784 2.761-12.026 3.065-16.163.674z" fill="#EFEFEF"/><path d="M406.018 155.945l-146.458-84.533c-1.705-.977-3.437-1.136-4.97-.607l.014-.014-.265.106-.066.026-5.286 2.022 4.744 2.325-.066.265-23.854 108.552c-1.19 5.43 1.202 11.772 5.339 14.163l142.929 82.498-.515 6.051 5.788-2.246c1.943-.912 3.503-2.96 4.137-5.893l23.855-108.552c1.202-5.43-1.19-11.772-5.326-14.163z" fill="#9E90B2"/><path d="M406.018 155.945l-146.458-84.533c-1.705-.977-3.436-1.136-4.97-.607l.014-.014-.265.106-.066.026-5.286 2.022 4.744 2.325-.066.265-15.727 71.544 71.657 55.809 101.035-41.104c-.965-2.523-2.577-4.664-4.612-5.839z" fill="#817199"/><path d="M400.493 172.632l11.154-4.744c.199-4.32-1.586-8.773-4.519-11.164l-17.644 7.425 11.009 8.483z" fill="#5A4B77"/><path d="M372.489 286.217l-146.458-84.532c-4.137-2.391-6.529-8.733-5.34-14.163l23.855-108.552c1.19-5.43 5.524-7.901 9.661-5.51l146.458 84.532c4.137 2.392 6.529 8.734 5.339 14.164l-23.854 108.552c-1.203 5.443-5.525 7.901-9.661 5.509z" fill="#A99FB7"/><path d="M369.304 278.145l-137.736-79.459c-3.793-2.193-5.973-7.993-4.89-12.961l21.833-99.343c1.097-4.968 5.048-7.227 8.841-5.034l137.736 79.459c3.793 2.193 5.974 7.993 4.89 12.961l-21.833 99.343c-1.083 4.968-5.048 7.227-8.841 5.034z" fill="#fff"/><path d="M369.304 278.145l-137.736-79.459c-3.793-2.193-5.973-7.993-4.89-12.961l21.833-99.343c1.097-4.968 5.048-7.227 8.841-5.034l137.736 79.459c3.793 2.193 5.974 7.993 4.89 12.961l-21.833 99.343c-1.083 4.968-5.048 7.227-8.841 5.034zm5.207 11.759l-20.022-2.643-129.225-74.596c-4.136-2.392-11.379-2.088-16.163.674l-91.572 52.835-12.106-1.598v6.87h.013c-.079 1.586.819 3.118 2.775 4.241l146.459 84.532c4.136 2.392 11.378 2.088 16.163-.673l99.726-57.54c2.696-1.559 4.031-3.554 3.952-5.43v-6.672z" fill="#381E54"/><path d="M277.401 242.775l-9.185-5.298h-100.943l-49.758 28.697-12.105-1.598v6.87h.013c-.079 1.586.819 3.118 2.775 4.241l146.458 84.532c2.194 1.269 5.247 1.771 8.34 1.559l14.405-119.003z" fill="#5A4B77"/><path d="M110.789 265.289l-5.366-.713v6.87h.013c-.079 1.586.819 3.118 2.775 4.241l2.578 1.493v-11.891z" fill="#5793CE"/><path d="M256.137 360.907c3.925 1.492 9.542 1.162 13.731-.859v-15.313h-13.731v16.172z" fill="#817199"/><path d="M254.669 353.362l-146.458-84.532c-4.136-2.391-3.621-6.566 1.163-9.328l99.727-57.539c4.784-2.761 12.027-3.065 16.163-.674l146.458 84.532c4.137 2.392 3.622 6.567-1.163 9.328l-99.727 57.539c-4.784 2.762-12.026 3.066-16.163.674z" fill="#F8F8F8"/><path d="M370.546 292.639l-99.726 57.539c-4.785 2.761-12.027 3.065-16.163.674l-146.445-84.532c-1.362-.78-2.207-1.757-2.577-2.814-.648 1.955.171 3.937 2.577 5.324l146.458 84.532c4.136 2.392 11.379 2.088 16.163-.674l99.727-57.539c3.211-1.85 4.493-4.347 3.74-6.514-.489 1.427-1.732 2.841-3.754 4.004z" fill="#fff"/><path d="M170.498 240.846l-6.621-3.818c-.529-.304-.463-.846.145-1.202l7.824-4.519c.608-.357 1.546-.396 2.075-.092l6.621 3.818c.529.304.462.846-.145 1.202l-7.824 4.519c-.608.357-1.546.396-2.075.092zm10.229 5.906l-6.621-3.818c-.529-.304-.463-.846.145-1.202l7.824-4.519c.608-.357 1.546-.396 2.075-.092l6.621 3.818c.529.304.462.845-.145 1.202l-7.824 4.519c-.608.357-1.533.396-2.075.092zm10.242 5.906l-6.621-3.818c-.529-.304-.463-.846.145-1.202l7.824-4.519c.608-.357 1.546-.396 2.075-.092l6.621 3.818c.529.304.463.845-.145 1.202l-7.824 4.519c-.621.357-1.546.396-2.075.092zm14.154-4.875l-6.621-3.818c-.528-.304-.462-.846.146-1.203l6.568-3.792c.608-.356 1.546-.396 2.075-.092l6.621 3.818c.529.304.462.846-.145 1.203l-6.569 3.791c-.621.357-1.546.397-2.075.093zm10.229 5.906l-6.621-3.819c-.528-.304-.462-.845.146-1.202l6.568-3.792c.608-.357 1.546-.396 2.075-.092l6.621 3.818c.529.304.462.846-.145 1.202l-6.569 3.792c-.621.357-1.546.397-2.075.093zm10.229 5.906l-6.621-3.819c-.528-.304-.462-.845.146-1.202l6.568-3.792c.608-.357 1.546-.396 2.075-.092l6.621 3.818c.529.304.462.846-.145 1.202l-6.569 3.792c-.608.357-1.546.397-2.075.093zm10.243 5.906l-6.621-3.819c-.529-.304-.463-.845.145-1.202l6.569-3.792c.608-.357 1.546-.396 2.074-.093l6.622 3.819c.528.304.462.845-.146 1.202l-6.568 3.792c-.621.357-1.546.396-2.075.093zm10.229 5.905l-6.621-3.818c-.529-.304-.463-.845.145-1.202l6.569-3.792c.607-.357 1.546-.397 2.074-.093l6.622 3.819c.528.304.462.845-.146 1.202l-6.568 3.792c-.621.357-1.546.396-2.075.092zm10.229 5.906l-6.621-3.818c-.529-.304-.463-.846.145-1.202l6.569-3.792c.608-.357 1.546-.397 2.074-.093l6.622 3.819c.528.303.462.845-.146 1.202l-6.568 3.792c-.608.357-1.546.396-2.075.092zm10.229 5.906l-6.621-3.818c-.529-.304-.463-.846.145-1.202l6.569-3.792c.608-.357 1.546-.397 2.074-.093l6.622 3.818c.528.304.462.846-.146 1.203l-6.568 3.792c-.608.356-1.533.396-2.075.092zm10.242 5.906l-6.621-3.818c-.529-.304-.462-.846.145-1.203l6.569-3.792c.608-.356 1.546-.396 2.075-.092l6.621 3.818c.528.304.462.846-.146 1.203l-6.568 3.792c-.621.356-1.546.396-2.075.092zm10.229 5.906l-6.621-3.818c-.529-.304-.462-.846.145-1.203l6.569-3.792c.608-.356 1.546-.396 2.075-.092l6.621 3.818c.528.304.462.846-.146 1.203l-6.568 3.792c-.608.356-1.546.396-2.075.092zm10.23 5.906l-6.621-3.818c-.529-.304-.463-.846.145-1.203l6.568-3.792c.608-.356 1.547-.396 2.075-.092l6.621 3.818c.529.304.463.846-.145 1.202l-6.568 3.792c-.608.357-1.533.397-2.075.093zm-77.023-55.954l-6.621-3.818c-.528-.304-.462-.846.146-1.203l6.568-3.792c.608-.356 1.546-.396 2.075-.092l6.621 3.818c.528.304.462.846-.146 1.203l-6.568 3.792c-.608.356-1.533.396-2.075.092zm-10.374-5.998l-6.621-3.819c-.529-.304-.462-.845.145-1.202l6.569-3.792c.608-.357 1.546-.396 2.075-.093l6.621 3.819c.528.304.462.845-.146 1.202l-6.568 3.792c-.621.37-1.546.41-2.075.093zm-10.414-5.999l-14.273-8.231c-.529-.304-.463-.846.145-1.202l6.568-3.792c.608-.357 1.547-.397 2.075-.093l14.273 8.231c.529.304.463.846-.145 1.203l-6.568 3.792c-.608.356-1.533.396-2.075.092zm7.282-7.306l-11.577-6.686c-.529-.303-.463-.845.145-1.202l6.568-3.792c.608-.357 1.547-.396 2.075-.092l11.577 6.685c.529.304.463.846-.145 1.202l-6.568 3.792c-.621.357-1.547.397-2.075.093zm23.749 25.209l-6.621-3.819c-.529-.304-.463-.845.145-1.202l6.568-3.792c.608-.357 1.547-.396 2.075-.092l6.621 3.818c.529.304.463.846-.145 1.202l-6.568 3.792c-.621.357-1.546.397-2.075.093zm10.229 5.906l-6.621-3.819c-.529-.304-.463-.845.145-1.202l6.568-3.792c.608-.357 1.547-.396 2.075-.092l6.621 3.818c.529.304.463.845-.145 1.202l-6.568 3.792c-.608.357-1.546.397-2.075.093zm10.229 5.906l-6.621-3.819c-.529-.304-.463-.845.145-1.202l6.568-3.792c.608-.357 1.547-.396 2.075-.093l6.621 3.819c.529.304.463.845-.145 1.202l-6.568 3.792c-.608.37-1.533.396-2.075.093zm10.242 5.905l-6.621-3.818c-.529-.304-.463-.845.145-1.202l6.569-3.792c.608-.357 1.546-.396 2.075-.093l6.621 3.819c.528.304.462.845-.146 1.202l-6.568 3.792c-.621.37-1.546.396-2.075.092zm10.229 5.906l-6.621-3.818c-.529-.304-.463-.846.145-1.202l6.569-3.792c.608-.357 1.546-.397 2.075-.093l6.621 3.819c.528.303.462.845-.146 1.202l-6.568 3.792c-.608.37-1.546.409-2.075.092zm10.229 5.906l-6.621-3.818c-.529-.304-.463-.846.145-1.203l6.569-3.791c.608-.357 1.546-.397 2.075-.093l6.621 3.818c.528.304.462.846-.146 1.203l-6.568 3.792c-.608.37-1.533.409-2.075.092zm10.243 5.906l-6.621-3.818c-.529-.304-.463-.846.145-1.203l6.568-3.792c.608-.356 1.547-.396 2.075-.092l6.621 3.818c.529.304.463.846-.145 1.203l-6.568 3.792c-.621.37-1.547.409-2.075.092zm10.229 5.906l-6.621-3.818c-.529-.304-.463-.846.145-1.203l6.568-3.792c.608-.356 1.547-.396 2.075-.092l6.621 3.818c.529.304.463.846-.145 1.203l-6.568 3.791c-.608.37-1.547.41-2.075.093zm10.229 5.906l-6.621-3.819c-.529-.303-.463-.845.145-1.202l6.568-3.792c.608-.356 1.547-.396 2.075-.092l6.621 3.818c.529.304.463.846-.145 1.202l-6.568 3.792c-.608.37-1.533.41-2.075.093zm18.198 10.504l-14.458-8.351c-.529-.303-.463-.845.145-1.202l6.569-3.792c.608-.357 1.546-.396 2.075-.092l14.458 8.35c.528.304.462.845-.146 1.202l-6.568 3.792c-.621.37-1.546.396-2.075.093zm19.917-11.495l-12.199-7.042c-.528-.304-.462-.846.146-1.203l6.568-3.791c.608-.357 1.546-.397 2.075-.093l12.198 7.042c.529.304.463.846-.145 1.203l-6.569 3.791c-.608.357-1.533.397-2.074.093zm-102.054-47.406l-6.621-3.818c-.528-.304-.462-.846.146-1.202l6.568-3.792c.608-.357 1.546-.397 2.075-.093l6.621 3.819c.529.303.462.845-.145 1.202l-6.569 3.792c-.621.357-1.546.396-2.075.092zm-10.493-6.064l-6.621-3.818c-.529-.304-.462-.846.145-1.203l6.569-3.792c.608-.356 1.546-.396 2.075-.092l6.621 3.818c.528.304.462.846-.146 1.202l-6.568 3.792c-.608.37-1.546.41-2.075.093zm-10.48-6.051l-6.621-3.819c-.529-.304-.463-.845.145-1.202l6.568-3.792c.608-.357 1.547-.396 2.075-.092l6.621 3.818c.529.304.463.846-.145 1.202l-6.568 3.792c-.622.37-1.547.41-2.075.093zm-10.493-6.052l-6.622-3.818c-.528-.304-.462-.846.146-1.202l6.568-3.792c.608-.357 1.546-.397 2.075-.093l6.621 3.819c.529.304.463.845-.145 1.202l-6.569 3.792c-.607.357-1.546.396-2.074.092zm41.695 24.073l-6.621-3.818c-.528-.304-.462-.846.146-1.203l6.568-3.791c.608-.357 1.546-.397 2.075-.093l6.621 3.818c.529.304.463.846-.145 1.203l-6.569 3.792c-.608.356-1.546.396-2.075.092zm10.23 5.906l-6.621-3.818c-.529-.304-.463-.846.145-1.203l6.568-3.792c.608-.356 1.547-.396 2.075-.092l6.621 3.818c.529.304.463.846-.145 1.203l-6.568 3.792c-.608.356-1.533.396-2.075.092zm10.242 5.906l-6.621-3.818c-.529-.304-.463-.846.145-1.203l6.569-3.792c.608-.356 1.546-.396 2.074-.092l6.622 3.818c.528.304.462.846-.146 1.203l-6.568 3.791c-.621.357-1.546.397-2.075.093zm10.229 5.906l-6.621-3.819c-.529-.303-.463-.845.145-1.202l6.569-3.792c.608-.356 1.546-.396 2.074-.092l6.622 3.818c.528.304.462.846-.146 1.202l-6.568 3.792c-.608.357-1.546.397-2.075.093zm10.229 5.906l-6.621-3.819c-.529-.304-.463-.845.145-1.202l6.569-3.792c.608-.357 1.546-.396 2.074-.092l6.622 3.818c.528.304.462.846-.146 1.202l-6.568 3.792c-.608.357-1.533.397-2.075.093zm10.242 5.906l-6.621-3.819c-.529-.304-.462-.845.145-1.202l6.569-3.792c.608-.357 1.546-.396 2.075-.092l6.621 3.818c.528.304.462.845-.146 1.202l-6.568 3.792c-.621.357-1.546.397-2.075.093zm10.229 5.906l-6.621-3.819c-.529-.304-.462-.845.145-1.202l6.569-3.792c.608-.357 1.546-.396 2.075-.093l6.621 3.819c.528.304.462.845-.146 1.202l-6.568 3.792c-.608.357-1.546.396-2.075.093zm10.23 5.905l-6.621-3.818c-.529-.304-.463-.846.145-1.202l6.568-3.792c.608-.357 1.547-.397 2.075-.093l6.621 3.819c.529.304.463.845-.145 1.202l-6.568 3.792c-.608.357-1.533.396-2.075.092zm10.242 5.906l-6.621-3.818c-.529-.304-.463-.846.145-1.202l6.568-3.792c.608-.357 1.547-.397 2.075-.093l6.621 3.819c.529.303.463.845-.145 1.202l-6.568 3.792c-.621.357-1.546.396-2.075.092zm-97.494-67.765l-6.621-3.819c-.528-.304-.462-.845.146-1.202l6.568-3.792c.608-.357 1.546-.396 2.075-.092l6.621 3.818c.528.304.462.845-.146 1.202l-6.568 3.792c-.608.357-1.546.396-2.075.093zm-10.176-5.88l-6.621-3.818c-.529-.304-.463-.846.145-1.203l6.569-3.791c.607-.357 1.546-.397 2.074-.093l6.622 3.818c.528.304.462.846-.146 1.203l-6.568 3.792c-.621.356-1.546.396-2.075.092zm-10.189-5.879l-6.621-3.819c-.529-.304-.463-.845.145-1.202l6.569-3.792c.607-.357 1.546-.396 2.074-.092l6.622 3.818c.528.304.462.845-.146 1.202l-6.568 3.805c-.608.357-1.546.384-2.075.08zm-10.176-5.88l-6.621-3.818c-.529-.304-.463-.846.145-1.203l6.568-3.791c.608-.357 1.547-.397 2.075-.093l6.621 3.818c.529.304.463.846-.145 1.203l-6.568 3.792c-.621.37-1.547.409-2.075.092zm10.467-6.038l-6.622-3.818c-.528-.304-.462-.846.146-1.202l2.167-1.256c.608-.356 1.546-.396 2.075-.092l6.621 3.818c.529.304.463.846-.145 1.203l-2.168 1.255c-.607.356-1.546.396-2.074.092zm13.281 7.663l-6.621-3.818c-.528-.304-.462-.846.146-1.202l2.167-1.256c.608-.356 1.546-.396 2.075-.092l6.621 3.818c.529.304.463.846-.145 1.203l-2.168 1.255c-.608.37-1.533.409-2.075.092zm10.15 5.853l-6.621-3.818c-.529-.304-.462-.846.145-1.202l2.168-1.256c.608-.356 1.546-.396 2.075-.092l6.621 3.818c.529.304.462.846-.145 1.203l-2.168 1.255c-.621.37-1.546.409-2.075.092zm10.137 5.853l-6.621-3.818c-.529-.304-.463-.846.145-1.202l2.168-1.256c.607-.356 1.546-.396 2.074-.092l6.622 3.818c.528.304.462.846-.146 1.203l-2.167 1.255c-.621.37-1.546.409-2.075.092zm10.137 5.853l-6.621-3.818c-.529-.304-.463-.846.145-1.202l2.167-1.255c.608-.357 1.547-.397 2.075-.093l6.621 3.818c.529.304.463.846-.145 1.203l-2.167 1.255c-.608.37-1.547.409-2.075.092zm56.616 32.674l-6.621-3.818c-.528-.304-.462-.846.146-1.202l2.167-1.255c.608-.357 1.546-.397 2.075-.093l6.621 3.818c.529.304.463.846-.145 1.203l-2.168 1.255c-.621.37-1.546.409-2.075.092zm10.137 5.853l-6.622-3.818c-.528-.304-.462-.846.146-1.202l2.167-1.256c.608-.356 1.546-.396 2.075-.092l6.621 3.818c.529.304.463.846-.145 1.203l-2.168 1.255c-.621.37-1.546.409-2.074.092zm10.136 5.853l-6.621-3.818c-.528-.304-.462-.846.146-1.202l2.167-1.255c.608-.357 1.546-.397 2.075-.093l6.621 3.818c.529.304.462.846-.145 1.203l-2.168 1.255c-.608.37-1.546.409-2.075.092zm10.137 5.853l-6.621-3.818c-.529-.304-.463-.846.145-1.202l2.168-1.255c.608-.357 1.546-.397 2.075-.093l6.621 3.818c.528.304.462.846-.146 1.203l-2.167 1.255c-.608.37-1.533.409-2.075.092zm-100.428-45.873l-6.621-3.818c-.528-.304-.462-.845.146-1.202l6.568-3.792c.608-.357 1.546-.396 2.075-.093l6.621 3.819c.528.304.462.845-.146 1.202l-6.568 3.792c-.608.357-1.533.396-2.075.092zm10.243 5.906l-6.621-3.818c-.529-.304-.463-.846.145-1.202l6.568-3.792c.608-.357 1.547-.397 2.075-.093l6.621 3.819c.529.304.463.845-.145 1.202l-6.568 3.792c-.621.357-1.546.396-2.075.092zm10.229 5.906l-6.621-3.818c-.529-.304-.463-.846.145-1.203l6.568-3.791c.608-.357 1.547-.397 2.075-.093l6.622 3.818c.528.304.462.846-.146 1.203l-6.568 3.792c-.608.356-1.546.396-2.075.092zm10.229 5.906l-6.621-3.818c-.529-.304-.463-.846.145-1.203l6.568-3.792c.608-.356 1.547-.396 2.075-.092l6.622 3.818c.528.304.462.846-.146 1.203l-6.568 3.792c-.608.356-1.533.396-2.075.092zm10.242 5.906l-6.621-3.818c-.529-.304-.463-.846.145-1.203l6.569-3.792c.608-.356 1.546-.396 2.075-.092l6.621 3.818c.528.304.462.846-.146 1.203l-6.568 3.791c-.621.357-1.546.397-2.075.093zm10.229 5.906l-6.621-3.818c-.529-.304-.463-.846.145-1.203l6.569-3.792c.608-.356 1.546-.396 2.075-.092l6.621 3.818c.528.304.462.846-.146 1.202l-6.568 3.792c-.608.357-1.546.397-2.075.093zm10.23 5.906l-6.621-3.819c-.529-.304-.463-.845.145-1.202l6.568-3.792c.608-.357 1.546-.396 2.075-.092l6.621 3.818c.529.304.463.846-.145 1.202l-6.568 3.792c-.608.37-1.534.397-2.075.093zm10.242 5.906l-6.621-3.819c-.529-.304-.463-.845.145-1.202l6.568-3.792c.608-.357 1.547-.396 2.075-.092l6.621 3.818c.529.304.463.845-.145 1.202l-6.568 3.792c-.621.37-1.547.41-2.075.093zm10.229 5.905l-6.621-3.818c-.529-.304-.463-.845.145-1.202l6.568-3.792c.608-.357 1.547-.396 2.075-.093l6.621 3.819c.529.304.463.845-.145 1.202l-6.568 3.792c-.621.37-1.547.41-2.075.092zm-140.379-46.52l-19.52-11.27c-.529-.304-.463-.846.145-1.202l6.569-3.792c.607-.357 1.546-.397 2.074-.093l19.52 11.27c.529.304.463.846-.145 1.203l-6.568 3.792c-.608.356-1.533.396-2.075.092zm125.722 72.562l-19.519-11.27c-.529-.304-.463-.846.145-1.203l6.568-3.791c.608-.357 1.546-.397 2.075-.093l19.52 11.27c.529.304.462.846-.145 1.202l-6.569 3.792c-.608.37-1.546.397-2.075.093zm-40.916-10.57l-6.621-3.818c-.529-.304-.463-.846.145-1.203l7.824-4.518c.608-.357 1.546-.396 2.075-.093l6.621 3.819c.529.304.463.845-.145 1.202l-7.824 4.519c-.621.356-1.546.396-2.075.092zm-74.326-42.9l-10.599-6.117c-.529-.304-.463-.846.145-1.203l7.824-4.518c.608-.357 1.546-.397 2.075-.093l10.599 6.117c.529.304.462.846-.145 1.203l-7.824 4.518c-.608.37-1.533.41-2.075.093zm64.454 37.206l-10.599-6.118c-.529-.304-.463-.845.145-1.202l7.824-4.519c.608-.356 1.546-.396 2.075-.092l10.599 6.117c.529.304.463.846-.145 1.203l-7.824 4.518c-.608.357-1.533.396-2.075.093zm-49.679-28.684l-10.599-6.118c-.528-.303-.462-.845.146-1.202l7.823-4.518c.608-.357 1.547-.397 2.075-.093l10.599 6.117c.529.304.463.846-.145 1.203l-7.824 4.518c-.621.37-1.546.41-2.075.093zM219.449 257.507l46.071 26.596c.568.331.568.859 0 1.189l-7.983 4.598c-.568.331-1.493.331-2.074 0l-46.071-26.596 10.057-5.787zm88.639 56.945l7.388 4.254c.436.251.383.687-.119.978l-3.198 1.85c-.502.29-1.269.317-1.705.066l-7.388-4.255c-.436-.251-.383-.687.119-.977l3.199-1.85c.502-.277 1.268-.317 1.704-.066zm-10.321-5.946l7.387 4.255c.436.251.384.687-.119.978l-3.198 1.849c-.502.291-1.269.317-1.705.066l-7.387-4.254c-.437-.251-.384-.687.119-.978l3.198-1.849c.502-.291 1.268-.318 1.705-.067zm-10.229-5.905l7.387 4.254c.436.251.383.687-.119.978l-3.198 1.849c-.502.291-1.269.317-1.705.066l-7.387-4.254c-.437-.251-.384-.687.119-.978l3.198-1.849c.502-.291 1.268-.317 1.705-.066zm15.872 2.642l7.387 4.254c.436.251.384.687-.119.978l-3.198 1.85c-.502.291-1.269.317-1.705.066l-7.387-4.254c-.436-.251-.384-.687.119-.978l3.198-1.85c.515-.29 1.269-.317 1.705-.066zm-13.546-181.061l-9.793-5.655c-.912-.528-1.441-1.823-1.19-2.893.251-1.07 1.19-1.52 2.102-1.004l9.792 5.654c.912.529 1.441 1.824 1.19 2.894-.264 1.083-1.203 1.533-2.101 1.004zm23.325 13.464l-14.444-8.337c-.912-.529-1.441-1.824-1.19-2.894.251-1.083 1.19-1.519 2.101-1.004l14.445 8.337c.912.528 1.441 1.823 1.19 2.893-.264 1.084-1.203 1.533-2.102 1.005zm-40.4 32.237l-9.793-5.654c-.912-.529-1.441-1.824-1.189-2.894.251-1.07 1.189-1.519 2.101-1.004l9.793 5.655c.912.528 1.44 1.823 1.189 2.893-.251 1.084-1.189 1.533-2.101 1.004zm20.788 11.997l-14.445-8.337c-.912-.528-1.44-1.823-1.189-2.893.251-1.071 1.189-1.52 2.101-1.005l14.445 8.337c.912.529 1.441 1.824 1.19 2.894-.252 1.083-1.19 1.533-2.102 1.004zm-32.603-65.11l-6.119-3.528c-.912-.528-1.441-1.823-1.19-2.893.252-1.07 1.19-1.52 2.102-1.004l6.119 3.527c.912.529 1.44 1.824 1.189 2.894-.264 1.083-1.189 1.533-2.101 1.004zm18.845 20.136l-18.687-10.795c-.912-.528-1.44-1.823-1.189-2.893.251-1.07 1.189-1.52 2.101-1.004l18.687 10.794c.912.529 1.441 1.823 1.19 2.894-.251 1.083-1.19 1.532-2.102 1.004zm-16.334 9.09l-6.119-3.528c-.912-.529-1.441-1.823-1.19-2.894.251-1.07 1.19-1.519 2.102-1.004l6.118 3.528c.912.529 1.441 1.823 1.19 2.894-.264 1.083-1.203 1.532-2.101 1.004zm33.237 56.218l-16.334-9.434c-.912-.528-1.441-1.823-1.19-2.893.251-1.084 1.19-1.52 2.101-1.004l16.335 9.433c.912.529 1.441 1.824 1.19 2.894-.251 1.083-1.19 1.532-2.102 1.004zm-39.211-41.143l-3.925-2.273c-.912-.528-1.44-1.823-1.189-2.893.251-1.07 1.189-1.52 2.101-1.004l3.925 2.272c.912.529 1.441 1.824 1.19 2.894-.251 1.083-1.19 1.519-2.102 1.004zm-2.815 16.885l-4.876-2.814c-.912-.528-1.441-1.823-1.19-2.893.251-1.071 1.19-1.52 2.102-1.005l4.876 2.815c.912.528 1.441 1.823 1.19 2.893-.265 1.083-1.203 1.533-2.102 1.004zm18.965 10.953l-12.859-7.425c-.912-.529-1.44-1.824-1.189-2.894.251-1.07 1.189-1.519 2.101-1.004l12.859 7.425c.912.529 1.441 1.824 1.189 2.894-.251 1.07-1.189 1.519-2.101 1.004zm-16.494-.264l-9.237-5.338c-.912-.528-1.441-1.823-1.19-2.893.251-1.071 1.19-1.52 2.101-1.005l9.238 5.338c.912.529 1.441 1.824 1.19 2.894-.251 1.083-1.19 1.532-2.102 1.004zm53.578 21.708l-5.934-3.422c-.912-.529-1.441-1.824-1.19-2.894.252-1.083 1.19-1.519 2.102-1.004l5.934 3.422c.912.528 1.44 1.823 1.189 2.893-.251 1.084-1.189 1.533-2.101 1.005zm-24.516-51.224l-16.335-9.434c-.911-.528-1.44-1.823-1.189-2.893.251-1.071 1.189-1.52 2.101-1.004l16.335 9.433c.912.529 1.441 1.823 1.19 2.894-.252 1.083-1.19 1.532-2.102 1.004zm1.494-8.403l-28.48-16.436c-.912-.529-1.441-1.824-1.19-2.894.251-1.07 1.19-1.519 2.101-1.004l28.481 16.436c.912.529 1.44 1.823 1.189 2.894-.251 1.083-1.189 1.532-2.101 1.004zm-15.912 9.341l-16.335-9.434c-.912-.528-1.441-1.823-1.189-2.893.251-1.071 1.189-1.52 2.101-1.004l16.335 9.433c.912.529 1.44 1.823 1.189 2.894-.251 1.083-1.189 1.519-2.101 1.004zm26.815 6.209l-5.934-3.422c-.912-.528-1.441-1.823-1.19-2.893.251-1.07 1.19-1.519 2.102-1.004l5.934 3.422c.911.528 1.44 1.823 1.189 2.893-.251 1.084-1.189 1.533-2.101 1.004zm58.599-3.21l-35.154-20.294c-.912-.529-1.441-1.823-1.19-2.894.251-1.083 1.19-1.519 2.102-1.004l35.154 20.294c.912.529 1.44 1.824 1.189 2.894-.251 1.083-1.189 1.532-2.101 1.004zm-85.877 15.247l-19.639-11.336c-.912-.529-1.44-1.824-1.189-2.894.251-1.07 1.189-1.519 2.101-1.004l19.626 11.323c.912.529 1.44 1.823 1.189 2.894-.251 1.083-1.189 1.532-2.088 1.017zm-.172-64.912l-14.445-8.337c-.912-.529-1.44-1.823-1.189-2.894.251-1.07 1.189-1.519 2.101-1.004l14.445 8.337c.912.529 1.441 1.824 1.19 2.894-.252 1.083-1.19 1.532-2.102 1.004zm-16.572 83.013l-16.718-9.659c-.912-.528-1.441-1.823-1.19-2.893.251-1.07 1.19-1.519 2.102-1.004l16.718 9.658c.911.529 1.44 1.823 1.189 2.894-.264 1.083-1.203 1.532-2.101 1.004z" fill="#9E90B2"/><path d="M367.771 231.651l-9.793-5.655c-.912-.529-1.441-1.824-1.19-2.894.252-1.07 1.19-1.519 2.102-1.004l9.793 5.655c.912.528 1.44 1.823 1.189 2.893-.251 1.084-1.189 1.533-2.101 1.005zm7.044-32.965l-18.687-10.794c-.912-.529-1.441-1.824-1.19-2.894.251-1.07 1.19-1.519 2.102-1.004l18.687 10.794c.912.529 1.44 1.824 1.189 2.894-.264 1.083-1.202 1.533-2.101 1.004zm-16.348 9.077l-6.119-3.528c-.912-.528-1.44-1.823-1.189-2.893.251-1.07 1.189-1.52 2.101-1.004l6.119 3.527c.912.529 1.44 1.824 1.189 2.894-.251 1.083-1.189 1.532-2.101 1.004zm-5.96 15.075l-3.925-2.272c-.912-.529-1.441-1.824-1.19-2.894.252-1.07 1.19-1.519 2.102-1.004l3.925 2.272c.912.529 1.44 1.824 1.189 2.894-.264 1.083-1.202 1.533-2.101 1.004zm28.718-1.942l-16.335-9.434c-.912-.528-1.441-1.823-1.189-2.893.251-1.07 1.189-1.52 2.101-1.004l16.335 9.433c.912.529 1.44 1.823 1.189 2.894-.264 1.083-1.202 1.532-2.101 1.004zm1.48-8.39l-28.48-16.436c-.912-.529-1.441-1.823-1.189-2.894.251-1.083 1.189-1.519 2.101-1.004l28.48 16.436c.912.529 1.441 1.824 1.189 2.894-.251 1.083-1.189 1.519-2.101 1.004zm-15.899 9.328l-16.334-9.434c-.912-.528-1.441-1.823-1.19-2.893.251-1.083 1.19-1.519 2.101-1.004l16.335 9.433c.912.529 1.441 1.824 1.19 2.894-.265 1.083-1.203 1.532-2.102 1.004zm-.475 18.246l-19.639-11.336c-.912-.529-1.441-1.823-1.19-2.894.251-1.07 1.19-1.519 2.102-1.004l19.638 11.336c.912.529 1.441 1.824 1.19 2.894-.251 1.083-1.19 1.533-2.101 1.004z" fill="#817199"/><path d="M403.731 131.608l15.437-6.131-3.476-22.699-7.494 6.633-4.467 22.197zm-103.282-105.818l37.282-14.89-6.885 14.89c-.014.027-19.903 4.611-19.903 4.611l-10.494-4.61zM417.37 87.545a16.534 16.534 0 0-6.04-2.075c2.062-13.714-3.872-28.195-15.251-34.774-3.423-1.982-7.149-3.118-10.665-3.343 4.454-16.621-2.432-35.528-16.467-43.627-7.335-4.228-15.264-4.73-22.242-2.14v-.014l-.344.132-.542.212-11.682 4.598 4.652 4.003c-6.318 1.995-11.776 7.095-14.67 14.652-5.326 13.926.132 30.851 12.185 37.814l71.643 60.367c9.053 5.232 14.538 3.039 18.542-7.412 4.004-10.451-.066-23.161-9.119-28.393z" fill="#C40C30"/><path d="M327.423 19.039l40.189-16.053c-6.938-3.54-14.326-3.845-20.881-1.4v-.014l-.343.132-.542.212-11.683 4.598 4.652 4.003c-4.401 1.4-8.405 4.32-11.392 8.522zm55.943 60.221l26.537-10.583c-2.458-7.584-7.282-14.203-13.969-18.074a26.72 26.72 0 0-2.683-1.348l-36.555 14.613 26.67 15.392z" fill="#E60D2E"/><path d="M342.317 8.192l11.392 6.58 19.758-7.862a29.753 29.753 0 0-4.506-3.17 28.428l-7.732-3.066-18.912 7.518zm65.828 56.086l-19.097 7.597 5.63 7.914 16.388-6.514a36.248 36.248 0 0-2.921-8.997z" fill="#EA6880"/><path d="M404.604 92.565a16.538 16.538 0 0-6.04-2.074c2.062-13.715-4.018-28.288-15.397-34.854-3.422-1.982-6.991-3.039-10.506-3.264 4.454-16.62-2.432-35.527-16.467-43.626-15.093-8.72-32.723-1.652-39.383 15.788-.225.595-.437 1.19-.635 1.784-11.511-5.127-24.251.647-29.246 13.727-5.326 13.926.132 30.851 12.185 37.814l91.017 52.572c9.053 5.232 19.626.99 23.617-9.46 3.991-10.465-.106-23.175-9.145-28.407z" fill="#BA0D37"/><path d="M305.881 29.04c-1.692 0-3.317.318-4.797.965-3.608 1.572-6.741 5.232-8.578 10.028-4.678 12.235.318 27.733 10.917 33.85l91.017 52.572c2.855 1.651 5.815 2.074 8.115 1.149 2.299-.925 4.348-3.343 5.603-6.646 3.37-8.825-.237-20.016-7.876-24.43-1.401-.805-2.855-1.32-4.322-1.519l-3.7-.502.475-3.17c1.904-12.658-3.951-26.002-13.889-31.75-2.736-1.585-5.551-2.484-8.379-2.655l-4.586-.291 1.031-3.845c4.083-15.247-2.525-32.859-15.04-40.086-5.828-3.369-11.96-4.043-17.273-1.916-5.313 2.128-9.661 7.003-12.225 13.741a37.802 37.802 0 0-.555 1.573l-2.458 7.53-7.137-3.17c-2.127-.952-4.281-1.427-6.343-1.427z" fill="#E60D2E"/><path d="M352.083 77.2c-.555 1.453.014 3.223 1.269 3.95 1.256.727 2.723.132 3.278-1.321.555-1.454-.014-3.224-1.269-3.95-1.242-.728-2.723-.133-3.278 1.32zm-7.321-4.242c-.555 1.454.013 3.224 1.269 3.95 1.255.727 2.722.133 3.277-1.32.555-1.454-.013-3.224-1.268-3.951-1.256-.714-2.723-.132-3.278 1.321zm-7.335-4.228c-.555 1.454.013 3.224 1.269 3.95 1.255.727 2.722.133 3.277-1.32.555-1.454-.013-3.224-1.268-3.95-1.256-.728-2.723-.133-3.278 1.32zm95.207 308.124l-32.405-18.709c-1.983-1.149-1.745-3.158.555-4.479l31.282-18.061c2.299-1.321 5.775-1.467 7.757-.317l32.406 18.708c1.982 1.15 1.744 3.158-.555 4.479l-31.282 18.061c-2.287 1.322-5.762 1.467-7.758.318z" fill="#EFEFEF"/><path d="M482.987 339.753v-13.991l-31.388-.014-10.85-6.262c-2.485-1.44-6.846-1.255-9.714.396l-10.123 5.84-31.414-.013v14.388c-.067.978.475 1.916 1.665 2.603l40.572 23.425c2.485 1.44 6.846 1.255 9.714-.396l39.172-22.62c1.665-.964 2.458-2.206 2.366-3.356z" fill="#E60D2E"/><path d="M436.242 318.508c-1.824.04-3.714.502-5.207 1.361l-10.123 5.84-31.414-.013v14.388c-.067.977.475 1.915 1.665 2.603l40.572 23.425c1.203.687 2.829 1.004 4.507.964v-48.568z" fill="#C40C30"/><path d="M393.039 325.709h-3.555v14.388c-.066.978.476 1.916 1.666 2.603l1.889 1.083v-18.074zm39.317 40.72c2.155.925 5.26.872 7.771-.092v-16.344h-7.771v16.436z" fill="#BA0D37"/><path d="M431.735 351.777l-40.573-23.426c-2.485-1.44-2.181-3.95.7-5.602l39.172-22.619c2.881-1.665 7.229-1.837 9.714-.397l40.573 23.426c2.484 1.44 2.18 3.95-.701 5.602l-39.172 22.619c-2.881 1.652-7.229 1.837-9.713.397z" fill="#EA6880"/><path d="M432.462 347.562l-34.004-19.62c-2.088-1.203-1.824-3.303.582-4.704l32.828-18.946c2.405-1.388 6.053-1.546 8.141-.344l34.004 19.62c2.088 1.203 1.824 3.303-.581 4.704l-32.829 18.946c-2.405 1.401-6.052 1.546-8.141.344z" fill="#BA0D37"/><path d="M468.066 343.453c0 1.044-.74 2.312-1.639 2.84-.898.529-1.638.093-1.638-.951s.74-2.312 1.638-2.84c.912-.529 1.639-.106 1.639.951zm5.273-3.052c0 1.044-.74 2.312-1.639 2.84-.898.529-1.638.093-1.638-.951s.74-2.312 1.638-2.841c.912-.515 1.639-.092 1.639.952zm5.273-3.039c0 1.044-.74 2.312-1.638 2.841-.899.528-1.639.092-1.639-.952 0-1.043.74-2.312 1.639-2.84.912-.516 1.638-.093 1.638.951z" fill="#D4ECFF"/><path d="M482.987 317.094v-14.005l-31.388-.013-10.85-6.262c-2.485-1.441-6.846-1.256-9.714.396l-10.123 5.84-31.414-.013v14.388c-.067.977.475 1.915 1.665 2.603l40.572 23.425c2.485 1.44 6.846 1.255 9.714-.396l39.172-22.62c1.665-.951 2.458-2.193 2.366-3.343z" fill="#E60D2E"/><path d="M436.242 295.849c-1.824.04-3.714.502-5.207 1.361l-10.123 5.84-31.414-.013v14.388c-.067.977.475 1.915 1.665 2.603l40.572 23.425c1.203.687 2.829 1.004 4.507.964v-48.568z" fill="#C40C30"/><path d="M393.039 303.05h-3.555v14.388c-.066.978.476 1.916 1.666 2.603l1.889 1.083v-18.074zm39.317 40.72c2.155.925 5.26.872 7.771-.093v-16.343h-7.771v16.436z" fill="#BA0D37"/><path d="M431.735 329.118l-40.573-23.426c-2.485-1.44-2.181-3.95.7-5.602l39.172-22.619c2.881-1.665 7.229-1.837 9.714-.397l40.573 23.426c2.484 1.44 2.18 3.95-.701 5.602l-39.172 22.619c-2.881 1.652-7.229 1.837-9.713.397z" fill="#EA6880"/><path d="M432.462 324.903l-34.004-19.62c-2.088-1.203-1.824-3.303.582-4.704l32.828-18.946c2.405-1.388 6.053-1.546 8.141-.344l34.004 19.62c2.088 1.203 1.824 3.303-.581 4.704l-32.829 18.946c-2.405 1.401-6.052 1.546-8.141.344z" fill="#BA0D37"/><path d="M468.066 320.781c0 1.043-.74 2.312-1.639 2.84-.898.529-1.638.093-1.638-.951s.74-2.312 1.638-2.841c.912-.515 1.639-.092 1.639.952zm5.273-3.039c0 1.044-.74 2.312-1.639 2.84-.898.529-1.638.093-1.638-.951s.74-2.312 1.638-2.84c.899-.529 1.639-.093 1.639.951zm5.273-3.039c0 1.044-.74 2.312-1.638 2.841-.899.528-1.639.092-1.639-.952 0-1.043.74-2.312 1.639-2.84.912-.529 1.638-.106 1.638.951z" fill="#D4ECFF"/><path d="M482.987 295.017v-13.992l-31.388-.013-10.85-6.263c-2.485-1.44-6.846-1.255-9.714.396l-10.123 5.84-31.414-.013v14.388c-.067.978.475 1.916 1.665 2.603l40.572 23.425c2.485 1.441 6.846 1.256 9.714-.396l39.172-22.619c1.665-.965 2.458-2.194 2.366-3.356z" fill="#E60D2E"/><path d="M436.242 273.785c-1.824.039-3.714.502-5.207 1.36l-10.123 5.84-31.414-.013v14.388c-.067.978.475 1.916 1.665 2.603l40.572 23.425c1.203.687 2.829 1.005 4.507.965v-48.568z" fill="#C40C30"/><path d="M393.039 280.972h-3.555v14.388c-.066.978.476 1.916 1.666 2.603l1.889 1.083v-18.074zm39.317 40.72c2.155.925 5.26.872 7.771-.092v-16.344h-7.771v16.436z" fill="#BA0D37"/><path d="M431.735 307.04l-40.573-23.425c-2.485-1.441-2.181-3.951.7-5.602l39.172-22.62c2.881-1.665 7.229-1.836 9.714-.396l40.573 23.425c2.484 1.44 2.18 3.951-.701 5.602l-39.172 22.62c-2.881 1.664-7.229 1.836-9.713.396z" fill="#EA6880"/><path d="M480.621 281.276l-39.172 22.619c-2.881 1.665-7.229 1.837-9.713.397l-40.573-23.426c-.555-.317-.965-.7-1.242-1.096-.859 1.374-.463 2.867 1.242 3.858l40.573 23.425c2.484 1.44 6.845 1.255 9.713-.396l39.172-22.62c2.234-1.295 2.908-3.091 1.943-4.505-.383.621-1.044 1.229-1.943 1.744z" fill="#fff"/><path d="M468.066 298.716c0 1.044-.74 2.312-1.639 2.841-.898.528-1.638.092-1.638-.952 0-1.043.74-2.312 1.638-2.84.912-.515 1.639-.093 1.639.951zm5.273-3.052c0 1.044-.74 2.312-1.639 2.841-.898.528-1.638.092-1.638-.952 0-1.043.74-2.312 1.638-2.84.899-.529 1.639-.093 1.639.951zm5.273-3.039c0 1.044-.74 2.312-1.638 2.841-.899.528-1.639.092-1.639-.951 0-1.044.74-2.312 1.639-2.841.912-.515 1.638-.092 1.638.951z" fill="#D4ECFF"/><path d="M434.128 292.52l-18.992-10.953c-1.163-.674-1.017-1.85.331-2.63l18.33-10.583c1.348-.779 3.383-.858 4.546-.185l18.992 10.953c1.163.674 1.017 1.85-.331 2.63l-18.33 10.583c-1.348.779-3.383.858-4.546.185z" fill="#E60D2E"/><path d="M435.951 283.35l-2.63-1.519c-.158-.093-.145-.251.04-.357l2.537-1.466c.185-.106.463-.119.635-.027l2.63 1.52c.158.092.145.251-.04.356l-2.537 1.467c-.199.106-.476.119-.635.026z" fill="#EFEFEF"/><path d="M415.15 281.566l.053.026.277-.184 18.33-10.584c1.348-.779 3.384-.858 4.547-.185l18.938 10.927c1.07-.766 1.137-1.81.053-2.431l-18.991-10.953c-1.163-.674-3.199-.595-4.547.185l-18.33 10.583c-1.361.766-1.507 1.942-.33 2.616z" fill="#BA0D37"/><path d="M146.802 209.652l-32.405-18.708c-1.983-1.15-1.745-3.158.555-4.479l31.282-18.061c2.299-1.321 5.775-1.467 7.757-.317l32.406 18.708c1.982 1.15 1.744 3.158-.555 4.479l-31.282 18.061c-2.3 1.322-5.776 1.467-7.758.317z" fill="#EFEFEF"/><path d="M197.154 172.552v-13.991l-31.388-.014-10.85-6.262c-2.484-1.44-6.846-1.255-9.713.396l-10.124 5.84-31.414-.013v14.388c-.066.978.476 1.916 1.665 2.603l40.573 23.425c2.485 1.44 6.846 1.255 9.714-.396l39.171-22.62c1.652-.964 2.459-2.206 2.366-3.356z" fill="#E60D2E"/><path d="M150.396 151.307c-1.823.04-3.713.502-5.207 1.361l-10.123 5.84-31.414-.013v14.388c-.066.977.476 1.915 1.665 2.603l40.573 23.425c1.202.687 2.828 1.004 4.506.964v-48.568z" fill="#C40C30"/><path d="M107.207 158.508h-3.555v14.388c-.066.978.476 1.916 1.665 2.603l1.89 1.083v-18.074zm39.317 40.72c2.155.925 5.26.872 7.771-.092v-16.344h-7.771v16.436z" fill="#BA0D37"/><path d="M145.89 184.576l-40.573-23.426c-2.484-1.44-2.18-3.95.701-5.602l39.171-22.619c2.882-1.665 7.23-1.837 9.714-.397l40.573 23.426c2.484 1.44 2.18 3.95-.701 5.602l-39.171 22.619c-2.868 1.652-7.216 1.837-9.714.397z" fill="#EA6880"/><path d="M146.63 180.361l-34.005-19.62c-2.088-1.203-1.823-3.303.582-4.704l32.828-18.946c2.405-1.388 6.053-1.546 8.141-.344l34.005 19.62c2.088 1.203 1.823 3.303-.582 4.704l-32.828 18.946c-2.419 1.401-6.066 1.546-8.141.344z" fill="#BA0D37"/><path d="M182.234 176.252c0 1.044-.741 2.312-1.639 2.84-.899.529-1.639.093-1.639-.951s.74-2.312 1.639-2.841c.898-.528 1.639-.092 1.639.952zm5.273-3.052c0 1.044-.741 2.312-1.639 2.84-.899.529-1.639.093-1.639-.951s.74-2.312 1.639-2.84c.898-.516 1.639-.093 1.639.951zm5.273-3.039c0 1.044-.74 2.312-1.639 2.841-.898.528-1.639.092-1.639-.952 0-1.043.741-2.312 1.639-2.84.899-.516 1.639-.093 1.639.951z" fill="#D4ECFF"/><path d="M197.154 149.893v-13.992l-31.388-.013-10.85-6.262c-2.484-1.44-6.846-1.256-9.713.396l-10.124 5.84-31.414-.013v14.388c-.066.978.476 1.916 1.665 2.603l40.573 23.425c2.485 1.44 6.846 1.255 9.714-.396l39.171-22.62c1.652-.964 2.459-2.206 2.366-3.356z" fill="#E60D2E"/><path d="M150.396 128.648c-1.823.04-3.713.502-5.207 1.361l-10.123 5.84-31.414-.014v14.389c-.066.977.476 1.915 1.665 2.602l40.573 23.426c1.202.687 2.828 1.004 4.506.964v-48.568z" fill="#C40C30"/><path d="M107.207 135.849h-3.555v14.388c-.066.977.476 1.915 1.665 2.603l1.89 1.083v-18.074zm39.317 40.72c2.155.925 5.26.872 7.771-.093v-16.343h-7.771v16.436z" fill="#BA0D37"/><path d="M145.89 161.916l-40.573-23.425c-2.484-1.44-2.18-3.95.701-5.602l39.171-22.619c2.882-1.665 7.23-1.837 9.714-.397l40.573 23.426c2.484 1.44 2.18 3.95-.701 5.602l-39.171 22.619c-2.868 1.652-7.216 1.837-9.714.396z" fill="#EA6880"/><path d="M146.63 157.702l-34.005-19.634c-2.088-1.202-1.823-3.303.582-4.703l32.828-18.947c2.405-1.387 6.053-1.545 8.141-.343l34.005 19.62c2.088 1.202 1.823 3.303-.582 4.704l-32.828 18.946c-2.419 1.414-6.066 1.559-8.141.357z" fill="#BA0D37"/><path d="M182.234 153.58c0 1.043-.741 2.312-1.639 2.84-.899.529-1.639.093-1.639-.951s.74-2.312 1.639-2.841c.898-.515 1.639-.092 1.639.952zm5.273-3.039c0 1.043-.741 2.312-1.639 2.84-.899.529-1.639.093-1.639-.951s.74-2.312 1.639-2.841c.898-.515 1.639-.092 1.639.952zm5.273-3.039c0 1.044-.74 2.312-1.639 2.84-.898.529-1.639.093-1.639-.951s.741-2.312 1.639-2.84c.899-.529 1.639-.106 1.639.951z" fill="#D4ECFF"/><path d="M197.154 127.816v-13.992l-31.388-.013-10.85-6.263c-2.484-1.44-6.846-1.255-9.714.396l-10.123 5.84-31.414-.013v14.388c-.066.978.476 1.916 1.665 2.603l40.573 23.425c2.485 1.44 6.846 1.255 9.714-.396l39.171-22.619c1.652-.952 2.459-2.194 2.366-3.356z" fill="#E60D2E"/><path d="M150.396 106.584c-1.823.039-3.713.502-5.207 1.36l-10.123 5.84-31.414-.013v14.388c-.066.978.476 1.916 1.665 2.603l40.573 23.425c1.202.687 2.828 1.005 4.506.965v-48.568z" fill="#C40C30"/><path d="M107.207 113.771h-3.555v14.388c-.066.978.476 1.916 1.665 2.603l1.89 1.083v-18.074zm39.317 40.72c2.155.925 5.26.872 7.771-.092v-16.344h-7.771v16.436z" fill="#BA0D37"/><path d="M145.89 139.839l-40.573-23.426c-2.484-1.44-2.18-3.95.701-5.602l39.171-22.619c2.882-1.665 7.23-1.836 9.714-.396l40.573 23.425c2.484 1.44 2.18 3.95-.701 5.602l-39.171 22.619c-2.868 1.665-7.216 1.837-9.714.397z" fill="#EA6880"/><path d="M194.789 114.075l-39.172 22.619c-2.881 1.665-7.229 1.837-9.714.397l-40.573-23.426c-.555-.317-.964-.7-1.242-1.096-.859 1.374-.462 2.867 1.242 3.858l40.573 23.425c2.485 1.44 6.846 1.255 9.714-.396l39.172-22.62c2.233-1.295 2.907-3.091 1.942-4.505-.396.621-1.044 1.229-1.942 1.744z" fill="#fff"/><path d="M182.234 131.515c0 1.044-.741 2.312-1.639 2.841-.899.528-1.639.092-1.639-.952 0-1.043.74-2.312 1.639-2.84.898-.515 1.639-.093 1.639.951zm5.273-3.039c0 1.044-.741 2.313-1.639 2.841-.899.529-1.639.092-1.639-.951 0-1.044.74-2.312 1.639-2.841.898-.528 1.639-.106 1.639.951zm5.273-3.052c0 1.044-.74 2.312-1.639 2.841-.898.528-1.639.092-1.639-.951 0-1.044.741-2.312 1.639-2.841.899-.515 1.639-.092 1.639.951z" fill="#D4ECFF"/><path d="M148.295 125.332l-18.991-10.953c-1.163-.674-1.018-1.85.33-2.63l18.331-10.583c1.348-.779 3.383-.858 4.546-.185l18.991 10.953c1.163.674 1.018 1.85-.33 2.63l-18.331 10.583c-1.348.766-3.383.845-4.546.185z" fill="#E60D2E"/><path d="M150.105 116.149l-2.629-1.519c-.159-.093-.146-.251.039-.357l2.538-1.466c.185-.106.462-.119.634-.027l2.63 1.52c.159.092.145.251-.04.356l-2.537 1.467c-.185.106-.463.119-.635.026z" fill="#EFEFEF"/><path d="M129.304 114.365l.053.027.277-.185 18.331-10.583c1.348-.78 3.383-.859 4.546-.185l18.938 10.926c1.071-.766 1.137-1.81.053-2.431l-18.991-10.953c-1.163-.673-3.198-.594-4.546.185l-18.331 10.583c-1.348.767-1.493 1.943-.33 2.616z" fill="#BA0D37"/><path d="M341.696 453.221l-32.405-18.709c-1.983-1.149-1.745-3.158.555-4.479l31.282-18.061c2.299-1.321 5.775-1.467 7.757-.317l32.406 18.708c1.982 1.15 1.744 3.158-.555 4.479l-31.282 18.061c-2.3 1.322-5.776 1.467-7.758.318z" fill="#EFEFEF"/><path d="M328.665 408.405l-16.427-9.487c-1.018-.581-1.837-2.153-1.837-3.501 0-1.348.819-1.969 1.837-1.387l16.427 9.486c1.018.581 1.837 2.154 1.837 3.501-.013 1.361-.832 1.982-1.837 1.388z" fill="#BA0D37"/><path d="M330.132 407.506l-16.427-9.486c-1.018-.582-1.837-2.154-1.837-3.502 0-.224.026-.422.079-.607-.872-.318-1.546.29-1.546 1.519 0 1.348.819 2.92 1.837 3.501l16.427 9.487c.846.489 1.546.132 1.758-.78a1.881 1.881 0 1-.291-.132z" fill="#E60D2E"/><path d="M392.048 422.515v-13.992l-31.388-.013-10.85-6.262c-2.484-1.44-6.846-1.256-9.713.396l-10.124 5.84-31.414-.013v14.388c-.066.977.476 1.916 1.665 2.603l40.573 23.425c2.485 1.44 6.846 1.255 9.714-.396l39.171-22.62c1.652-.964 2.459-2.206 2.366-3.356z" fill="#6A5D82"/><path d="M345.29 401.27c-1.823.04-3.713.502-5.207 1.361l-10.123 5.84-31.414-.014v14.389c-.066.977.476 1.915 1.665 2.602l40.573 23.426c1.202.687 2.828 1.004 4.506.964v-48.568z" fill="#5D527A"/><path d="M302.101 408.471h-3.555v14.388c-.066.978.476 1.916 1.665 2.603l1.89 1.083v-18.074z" fill="#817199"/><path d="M341.405 449.191c2.154.925 5.26.872 7.771-.093v-16.343h-7.771v16.436z" fill="#5A4B77"/><path d="M340.784 434.538l-40.573-23.425c-2.484-1.44-2.18-3.95.701-5.602l39.171-22.619c2.882-1.665 7.23-1.837 9.714-.397l40.573 23.426c2.484 1.44 2.18 3.95-.701 5.602l-39.171 22.619c-2.868 1.652-7.216 1.837-9.714.396z" fill="#ADA2BC"/><path d="M389.683 408.761l-39.172 22.62c-2.881 1.664-7.229 1.836-9.714.396l-40.573-23.425c-.555-.317-.964-.701-1.242-1.097-.859 1.374-.462 2.867 1.242 3.858l40.573 23.425c2.485 1.441 6.846 1.256 9.714-.396l39.172-22.619c2.233-1.295 2.907-3.092 1.942-4.506-.396.621-1.044 1.229-1.942 1.744z" fill="#817199"/><path d="M377.114 426.201c0 1.044-.74 2.313-1.638 2.841-.899.529-1.639.093-1.639-.951s.74-2.312 1.639-2.841c.912-.515 1.638-.092 1.638.951zm5.273-3.038c0 1.043-.74 2.312-1.638 2.84-.899.529-1.639.093-1.639-.951s.74-2.312 1.639-2.841c.912-.515 1.638-.092 1.638.952zm5.274-3.039c0 1.044-.74 2.312-1.639 2.84-.899.529-1.639.093-1.639-.951s.74-2.312 1.639-2.84c.912-.529 1.639-.106 1.639.951zm-42.661-8.654l-2.63-1.52c-.159-.092-.146-.251.039-.356l2.538-1.467c.185-.106.462-.119.634-.026l2.63 1.519c.159.093.145.251-.04.357l-2.537 1.466c-.185.106-.476.119-.634.027z" fill="#E60D2E"/><path d="M341.511 426.783l-34.005-19.62c-2.088-1.203-1.823-3.304.582-4.704l32.828-18.946c2.405-1.388 6.053-1.546 8.141-.344l34.004 19.62c2.088 1.203 1.824 3.303-.581 4.704l-32.828 18.946c-2.406 1.401-6.053 1.546-8.141.344z" fill="#381E54"/><path d="M392.048 396.011v-13.991l-31.388-.014-10.85-6.262c-2.484-1.44-6.846-1.255-9.713.396l-10.124 5.84-31.414-.013v14.401c-.066.978.476 1.916 1.665 2.603l40.573 23.425c2.485 1.44 6.846 1.255 9.714-.396l39.171-22.619c1.652-.965 2.459-2.207 2.366-3.37z" fill="#6A5D82"/><path d="M345.29 374.779c-1.823.04-3.713.502-5.207 1.361l-10.123 5.84-31.414-.013v14.401c-.066.978.476 1.916 1.665 2.603l40.573 23.425c1.202.687 2.828 1.005 4.506.965v-48.582z" fill="#5D527A"/><path d="M302.101 381.967h-3.555v14.401c-.066.978.476 1.916 1.665 2.603l1.89 1.083v-18.087z" fill="#817199"/><path d="M341.405 422.687c2.154.925 5.26.872 7.771-.092v-16.344h-7.771v16.436z" fill="#5A4B77"/><path d="M340.784 408.048l-40.573-23.426c-2.484-1.44-2.18-3.95.701-5.602l39.171-22.619c2.882-1.665 7.23-1.836 9.714-.396l40.573 23.425c2.484 1.44 2.18 3.951-.701 5.602l-39.171 22.619c-2.868 1.652-7.216 1.824-9.714.397z" fill="#ADA2BC"/><path d="M389.683 382.271l-39.172 22.619c-2.881 1.665-7.229 1.837-9.714.396l-40.573-23.425c-.555-.317-.964-.7-1.242-1.097-.859 1.375-.462 2.867 1.242 3.858l40.573 23.426c2.485 1.44 6.846 1.255 9.714-.397l39.172-22.619c2.233-1.295 2.907-3.092 1.942-4.505-.396.621-1.044 1.228-1.942 1.744z" fill="#817199"/><path d="M377.114 399.711c0 1.044-.74 2.312-1.638 2.841-.899.528-1.639.092-1.639-.952s.74-2.312 1.639-2.84c.912-.516 1.638-.093 1.638.951zm5.273-3.039c0 1.044-.74 2.312-1.638 2.841-.899.528-1.639.092-1.639-.952 0-1.043.74-2.312 1.639-2.84.912-.515 1.638-.093 1.638.951zm5.274-3.052c0 1.044-.74 2.312-1.639 2.841-.899.528-1.639.092-1.639-.952 0-1.043.74-2.312 1.639-2.84.912-.515 1.639-.093 1.639.951zm-42.661-8.654l-2.63-1.519c-.159-.093-.146-.251.039-.357l2.538-1.467c.185-.105.462-.119.634-.026l2.63 1.519c.159.093.145.251-.04.357l-2.537 1.467c-.185.105-.476.118-.634.026z" fill="#E60D2E"/><path d="M341.511 400.292l-34.005-19.62c-2.088-1.202-1.823-3.303.582-4.704l32.828-18.946c2.405-1.387 6.053-1.546 8.141-.343l34.004 19.62c2.088 1.202 1.824 3.303-.581 4.703l-32.828 18.947c-2.406 1.4-6.053 1.546-8.141.343z" fill="#381E54"/><path d="M392.048 370.723v-13.992l-31.388-.013-10.85-6.262c-2.484-1.441-6.846-1.256-9.713.396l-10.124 5.84-31.414-.014v14.389c-.066.977.476 1.915 1.665 2.602l40.573 23.426c2.485 1.44 6.846 1.255 9.714-.397l39.171-22.619c1.652-.964 2.459-2.193 2.366-3.356z" fill="#6A5D82"/><path d="M345.29 349.491c-1.823.04-3.713.502-5.207 1.361l-10.123 5.84-31.414-.014v14.389c-.066.977.476 1.915 1.665 2.602l40.573 23.426c1.202.687 2.828 1.004 4.506.964v-48.568z" fill="#5D527A"/><path d="M302.101 356.679h-3.555v14.388c-.066.977.476 1.915 1.665 2.602l1.89 1.084v-18.074z" fill="#817199"/><path d="M341.405 397.399c2.154.925 5.26.872 7.771-.093v-16.343h-7.771v16.436z" fill="#5A4B77"/><path d="M340.784 382.746l-40.573-23.425c-2.484-1.44-2.18-3.951.701-5.602l39.171-22.619c2.882-1.665 7.23-1.837 9.714-.397l40.573 23.425c2.484 1.441 2.18 3.951-.701 5.602l-39.171 22.62c-2.868 1.665-7.216 1.836-9.714.396z" fill="#ADA2BC"/><path d="M389.683 356.982l-39.172 22.62c-2.881 1.664-7.229 1.836-9.714.396l-40.573-23.425c-.555-.317-.964-.701-1.242-1.097-.859 1.374-.462 2.867 1.242 3.858l40.573 23.425c2.485 1.441 6.846 1.256 9.714-.396l39.172-22.619c2.233-1.295 2.907-3.092 1.942-4.506-.396.621-1.044 1.229-1.942 1.744z" fill="#817199"/><path d="M377.114 374.423c0 1.043-.74 2.312-1.638 2.84-.899.529-1.639.093-1.639-.951s.74-2.312 1.639-2.841c.912-.515 1.638-.092 1.638.952zm5.273-3.052c0 1.043-.74 2.312-1.638 2.84-.899.529-1.639.093-1.639-.951s.74-2.312 1.639-2.841c.912-.515 1.638-.092 1.638.952zm5.274-3.039c0 1.043-.74 2.312-1.639 2.84-.899.529-1.639.093-1.639-.951s.74-2.312 1.639-2.841c.912-.515 1.639-.092 1.639.952zm-42.661-8.654l-2.63-1.52c-.159-.092-.145-.251.04-.357l2.537-1.466c.185-.106.463-.119.634-.027l2.63 1.52c.159.092.146.251-.039.357l-2.538 1.466c-.185.106-.475.119-.634.027z" fill="#E60D2E"/><path d="M327.08 417.772s-4.005-2.021-6.463.991-5.973 10.107-6.092 14.904c-.106 4.796 3.792 4.478 6.118 3.342 2.326-1.136 9.106-10.979 9.516-12.908.41-1.929-.489-4.532-1.137-5.047-.647-.516-1.942-1.282-1.942-1.282z" fill="#5A4B77"/><path d="M327.951 416.808l.185 4.148a2.347 2.347 0 1-1.176 2.154c-.7.396-1.718.7-3.092.476-3.013-.489-3.291-1.348-3.502-5.497-.212-4.148 7.585-1.281 7.585-1.281z" fill="#817199"/><path d="M312.41 409.792s-4.005-2.022-6.463.991c-2.458 3.012-5.973 10.107-6.092 14.903-.106 4.796 3.793 4.479 6.119 3.343 2.326-1.136 9.105-10.979 9.515-12.908.41-1.929-.489-4.532-1.137-5.048-.647-.515-1.942-1.281-1.942-1.281z" fill="#5A4B77"/><path d="M313.282 408.827l.185 4.149c.04.885-.41 1.718-1.176 2.154-.701.396-1.718.7-3.093.475-3.013-.489-3.29-1.347-3.502-5.496-.211-4.149 7.586-1.282 7.586-1.282z" fill="#817199"/><path d="M349.031 332.632c-1.189-19.29-20.894 2.841-20.894 2.841l-13.494 13.225-12.145 13.345a11.934 11.934 0 0-3.013 9.618l4.916 37.417a3.676 3.676 0 3.687 3.198c.529 0 1.124-.053 1.824-.159 4.388-.687 4.057-4.849 4.057-4.849l-.898-34.986 25.519-15.379c-.013-.026 11.63-4.981 10.441-24.271zM363.7 339.978c-1.189-19.29-20.894 2.841-20.894 2.841l-13.493 13.225-12.146 13.345a11.937 11.937 0 0-3.013 9.618l4.916 37.418c.238 1.849 1.824 3.21 3.688 3.197.528 0 1.123-.053 1.823-.159 4.388-.687 4.058-4.849 4.058-4.849l-.899-34.986 25.52-15.379c-.013-.026 11.63-4.981 10.44-24.271z" fill="#381E54"/><path d="M352.044 278.052c14.947 6.197 14.643 15.023 14.643 15.023s-2.92 32.383-1.929 53.998c.423 9.037-48.04 9.724-40.811-14.388 8.524-28.433 5.326-51.448 9.317-54.923 3.992-3.475 14.908-1.308 18.78.29z" fill="#E60D2E"/><path d="M356.855 285.887c-.78 3.039-4.758 4.638-8.881 3.568-4.124-1.057-6.833-4.387-6.053-7.413.78-3.038 4.758-4.637 8.881-3.567 4.123 1.057 6.832 4.373 6.053 7.412z" fill="#FFC2B0"/><path d="M350.524 290.498c-.898 0-1.81-.119-2.722-.356-4.494-1.163-7.441-4.876-6.568-8.285.885-3.408 5.246-5.245 9.753-4.082 2.141.555 4.004 1.691 5.233 3.21 1.295 1.586 1.758 3.383 1.322 5.074-.436 1.691-1.718 3.039-3.608 3.805-1.044.423-2.207.634-3.41.634zm-2.286-11.653c-2.775 0-5.101 1.295-5.63 3.369-.687 2.643 1.797 5.589 5.537 6.54 1.851.476 3.714.397 5.247-.224 1.467-.582 2.445-1.599 2.762-2.841.317-1.242-.053-2.603-1.044-3.818-1.044-1.282-2.643-2.26-4.493-2.722a9.963 9.963 0 0-2.379-.304z" fill="#fff"/><path d="M346.057 277.379s.133.594-.132 5.337c-.079 1.493 5.128 2.881 6.476 1.533 1.348-1.348.806-2.748 1.137-7.809.317-5.073-7.481.939-7.481.939z" fill="#FFC2B0"/><path d="M353.538 276.427s-1.282 4.691-7.613 6.501l.093-4.268 7.52-2.233z" fill="#EA9C92"/><path d="M357.748 269.378c1.1-6.252-3.078-12.212-9.333-13.312-6.254-1.099-12.215 3.078-13.315 9.33-1.1 6.253 3.078 12.213 9.333 13.312 6.254 1.1 12.215-3.077 13.315-9.33z" fill="#FFC2B0"/><path d="M349.044 267.8s-6.33 2.708-10.718 2.748c-4.388.026-3.423-3.647-3.423-3.647l13.018-1.876 1.123 2.775z" fill="#EA9C92"/><path d="M337.018 268.513s5.511-2.338 10.361-1.361c1.137.225 2.194.833 2.921 1.744.238.291.542.568.885.634.859.199 2.26-3.369 3.925-3.448 1.666-.079 2.776 1.097 1.414 3.29-1.374 2.193-.911 4.637-.277 4.994.634.357 7.308-4.756 1.414-16.423-5.894-11.666-20.841-5.377-23.167-3.012 0 0-2.445 2.14-4.441.238 0-.014-2.233 16.713 6.965 13.344z" fill="#5A4B77"/><path d="M358.308 316.725v8.746a3.55 3.55 0 1-1.163 2.629l-17.973 16.384 2.048 3.118 23.736-17.216a4.82 4.82 0 1.969-3.395l1.599-15.261-10.216 4.995z" fill="#FFC2B0"/><path d="M365.419 288.701s5.458 8.205 7.48 29.781c0 0-9.317 3.012-14.604 1.308-5.273-1.718 7.124-31.089 7.124-31.089z" fill="#C40C30"/><path d="M357.304 299.073s-2.141 11.429-2.26 16.793a3.427 3.427 0 2.26 3.316v-20.109z" fill="#BA0D37"/><path d="M352.639 355.873l-3.978-.529-25.652-14.811c-.819-.475-2.26-.409-3.211.132l-18.172 10.491-2.406-.317v2.391c-.013.317.159.621.555.846l29.062 16.779c.82.476 2.26.41 3.212-.132l19.797-11.415c.529-.304.806-.7.78-1.084v-2.351h.013zM333.37 346.518l-1.824-1.057h-20.035l-9.872 5.695-2.405-.317v2.391c-.014.317.158.621.555.846l29.061 16.779c.437.251 1.044.357 1.652.304l2.868-24.641z" fill="#5A4B77"/><path d="M300.304 350.984l-1.07-.145v2.391c-.014.317.158.621.555.846l.515.29v-3.382z" fill="#5793CE"/><path d="M329.154 371.001c.78.29 1.89.238 2.723-.172v-4.069h-2.723v4.241z" fill="#9E90B2"/><path d="M328.863 368.464l-29.062-16.78c-.819-.475-.714-1.308.225-1.849l19.797-11.416c.952-.541 2.392-.607 3.212-.132l29.061 16.78c.82.475.714 1.308-.224 1.849l-19.798 11.416c-.951.555-2.392.608-3.211.132z" fill="#fff"/><path d="M328.361 365.927l-24.171-13.952c-.688-.396-.595-1.083.185-1.546l10.612-5.959c.793-.449 1.982-.502 2.67-.105l24.171 13.952c.688.396.595 1.083-.185 1.546l-10.612 5.959c-.78.449-1.982.502-2.67.105z" fill="#9E90B2"/><path d="M320.934 337.864l-.304 2.009a14.913 14.913 0 .132 5.139l.357 1.771c.198.99.991 1.77 1.995 1.955.78.145 1.52-.41 1.613-1.202l.476-4.281s1.096 1.44 1.625 1.44c.529 0-.595-4.294-1.784-6.725-1.203-2.431-4.11-.106-4.11-.106zM330.793 305.996l-3.119 6.17a12.062 12.062 0 0-1.282 4.691l-1.348 21.113-4.097-.092-1.863-23.703a8.738 8.738 0 1.105-2.194l2.128-12.023 9.476 6.038z" fill="#FFC2B0"/><path d="M327.873 370.076l-2.432-3.184-25.626-14.838c-.819-.475-1.48-1.744-1.48-2.84l.027-20.982-1.481-1.929 1.388-.805c.264-.172.621-.172 1.004.052l29.049 16.82c.819.475 1.48 1.744 1.48 2.84l-.026 22.844c0 .621-.212 1.044-.542 1.216l-1.361.806zM310.15 358.053l-1.824-1.057-9.991-17.361.013-11.403-1.48-1.929 1.387-.805c.265-.172.621-.172 1.005.052l29.048 16.82c.436.251.82.726 1.097 1.281l-19.255 14.402zM297.529 327.176l-.648-.859 1.388-.806c.264-.172.621-.172 1.004.053l.516.29-2.26 1.322zm31.044 15.392c.647.528 1.15 1.519 1.216 2.444l-2.842 1.638-1.361-2.365 2.987-1.717zM326.921 343.189l-29.049-16.819c-.819-.476-1.493.026-1.493 1.123l-.026 22.844c0 1.096.66 2.365 1.48 2.84l29.048 16.819c.82.476 1.494-.026 1.494-1.123l.026-22.844c.013-1.096-.661-2.365-1.48-2.84z" fill="#9E90B2"/><path d="M341.207 347.615l-.462.964a6.481 6.481 0 1-2.432 2.696l-2.881 1.783c-.899.555-2.035.595-2.947.066l-.093-.052c-.912-.569-1.004-1.89-.251-2.669l3.014-3.105s-1.692 1.295-2.168.779c-.344-.383 1.639-2.246 3.172-2.312 1.533-.066 3.013-1.255 3.013-1.255l2.035 3.105z" fill="#FFC2B0"/><path d="M333.555 277.722s-11.048 12.023-15.515 23.055c0 0 3.779 6.805 13.03 9.474 9.265 2.668 2.485-32.529 2.485-32.529z" fill="#C40C30"/><path d="M328.996 309.537l1.797-17.308-4.216 16.212c.74.396 1.56.766 2.419 1.096z" fill="#BA0D37"/><path d="M341.842 275.291l-2.974-.819s1.414 2.233 3.489 2.801c2.075.568 2.392-1.189 2.392-1.189l-2.907-.793z" fill="#fff"/><path d="M51.938 358.779c-7.982 4.598-20.907 4.598-28.89 0-7.982-4.598-7.982-12.063 0-16.674 7.983-4.598 20.908-4.598 28.89 0 7.97 4.611 7.97 12.076 0 16.674zm120.542 68.479c-7.982 4.598-20.907 4.598-28.89 0-7.982-4.598-7.982-12.062 0-16.674 7.983-4.597 20.908-4.597 28.89 0 7.983 4.612 7.983 12.076 0 16.674z" fill="#EFEFEF"/><path d="M24.595 190.798s.581 12.103 1.506 20.228c.925 8.126 20.511-6.249 20.511-6.249v-9.262l-22.017-4.717z" fill="#9E90B2"/><path d="M35.022 341.299c.29.74 5.366 6.91 10.44 8.456 2.208.674 3.688.753 4.666.647.978-.118 1.572-1.123 1.255-2.047-.872-2.458-3.37-7.571-9.74-10.729-8.603-4.267-6.621 3.673-6.621 3.673zm-1.692 2.378s1.917 4.479 2.498 8.232c.357 2.285-.899 5.258-1.93 7.227a2.119 2.119 0 1-3.29.568c-1.652-1.506-3.767-4.122-4.123-7.875-.595-6.328 0-7.425 0-7.425l6.845-.727z" fill="#817199"/><path d="M21.106 267.258s-.661 7.98 0 16.793c.66 8.825 3.026 50.087 3.475 60.01 0 0-.224 2.999 5.604 2.338 5.815-.66 5.352-4.003 5.352-4.003s8.168-.106 8.432-4.928c.251-4.81 8.366-57.5 8.366-76.446l-31.23 6.236z" fill="#5A4B77"/><path d="M49.506 226.088l4.718 28.816 4.296-.079-.397-26.398-8.617-2.339z" fill="#FFC2B0"/><path d="M47.538 200.562s6.356-.158 8.577 9.024c2.22 9.196 3.951 20.691 2.022 21.655-5.776 2.867-9.436-.489-9.436-.489l-1.163-30.19z" fill="#C40C30"/><path d="M49.44 200.959a5.19 5.19 0 0-3.436-.185c-5.418 1.559-25.797 7.531-29.154 10.398-3.885 3.316 5.815 21.945 5.683 28.049-.145 6.104-.833 13.305-1.375 19.951-.541 6.646-1.268 10.279 4.163 13.106 5.432 2.828 14.71 2.96 21.648-2.338 6.938-5.285 5.683-8.905 5.392-12.75-.29-3.845-2.656-20.439-2.445-25.156 0 0 2.445-1.797 4.256-4.889 1.81-3.091-1.388-8.773-2.723-12.459-1.334-3.686.754-7.914.344-10.926-.198-1.56-1.19-2.313-2.352-2.801z" fill="#E60D2E"/><path d="M42.925 207.314c.436 3.356-2.643 6.513-6.872 7.055-4.23.542-8.01-1.744-8.432-5.1-.436-3.356 2.643-6.514 6.872-7.055 4.23-.542 8.01 1.744 8.432 5.1z" fill="#fff"/><path d="M40.744 207.591c.304 2.405-1.89 4.651-4.916 5.047-3.026.383-5.723-1.242-6.026-3.646-.304-2.392 1.89-4.651 4.916-5.048 3.026-.383 5.722 1.242 6.026 3.647zM37.744 199.717s-3.674-3.026-4.4-1.493c-.727 1.532-1.322 8.099-1.322 8.099l7.308 1.955-1.11-6.659c0 .013 1.454-1.229-.476-1.902zM46.777 198.672c3.764-4.698 3.005-11.558-1.694-15.321-4.7-3.763-11.562-3.005-15.326 1.694-3.764 4.699-3.005 11.558 1.694 15.321 4.7 3.763 11.562 3.005 15.326-1.694z" fill="#FFC2B0"/><path d="M32.828 200.126c-.066.344-.132.714-.185 1.084.74 3.792 6.41 5.456 6.41 5.456l-.833-5.033s.687-.582.49-1.163c-2.248-.714-5.076-1.348-5.882-.344z" fill="#EA9C92"/><path d="M46.777 198.672c3.764-4.698 3.005-11.558-1.694-15.321-4.7-3.763-11.562-3.005-15.326 1.694-3.764 4.699-3.005 11.558 1.694 15.321 4.7 3.763 11.562 3.005 15.326-1.694zm-35.372 39.347l1.216 29.173 4.269.436 2.775-26.253-8.26-3.356z" fill="#FFC2B0"/><path d="M25.427 235.575c-1.414-6.237-4.202-19.991-4.202-19.991l-1.19 13.688c1.375 4.057 2.55 7.782 2.511 9.949-.08 3.581-.357 7.544-.674 11.548v.013c-.013 0 4.956-8.971 3.555-15.207z" fill="#BA0D37"/><path d="M17.67 210.577s-3.41 1.308-5.34 11.785c-1.93 10.478-3.37 20.968.066 22.316 3.436 1.348 6.318 2.365 7.335-.436 1.018-2.801 1.639-16.304 1.771-21.153.132-4.849.304-11.561-3.832-12.512z" fill="#E60D2E"/><path d="M35.524 342.409s1.018-.013 2.34-.238l1.599-64.132-3.939 64.37zm-6.172-34.642l-2.273-2.96-23.867-13.82c-.767-.449-1.388-1.625-1.388-2.656l.026-19.541-1.374-1.797 1.295-.753c.251-.158.581-.158.938.053l27.053 15.657c.767.449 1.388 1.625 1.388 2.655l-.027 21.285c0 .569-.198.978-.502 1.137l-1.268.74z" fill="#381E54"/><path d="M12.846 296.563l-1.692-.978-9.304-16.172.013-10.623-1.374-1.797 1.295-.753c.251-.158.582-.158.938.053l27.053 15.657c.41.238.767.674 1.018 1.189l-17.947 13.424z" fill="#9E90B2"/><path d="M1.084 267.799l-.608-.792 1.295-.753c.251-.159.581-.159.938.052l.476.278-2.101 1.215z" fill="#F8F8F8"/><path d="M30 282.135c.595.489 1.07 1.427 1.137 2.272l-2.644 1.52-1.268-2.194 2.775-1.598z" fill="#817199"/><path d="M28.467 282.716l-27.053-15.656c-.766-.45-1.388.026-1.388 1.043l-.026 21.272c0 1.017.621 2.207 1.388 2.656l27.053 15.656c.766.45 1.387-.026 1.387-1.043l.027-21.285c0-1.018-.622-2.207-1.388-2.643z" fill="#5D527A"/><path d="M12.66 266.954s-1.123 6.804-.95 8.984c.171 2.18 1.334 5.774 2.22 5.708.885-.079.026-8.773 1.585-7.901 1.56.872 1.718 2.352 2.419 1.823.7-.528-1.23-7.954-.714-11.177.516-3.224-4.56 2.563-4.56 2.563zm45.86-12.129s1.123 6.804.951 8.998c-.171 2.18-1.334 5.773-2.22 5.707-.885-.079-.026-8.773-1.586-7.901-1.56.872-1.718 2.352-2.418 1.824-.7-.529 1.229-7.954.714-11.178-.53-3.237 4.559 2.55 4.559 2.55z" fill="#FFC2B0"/><path d="M42.463 192.82c5.471 1.942 6.541.753 6.581.7.053-.33.093-.661.106-1.004a10.929 10.929 0 0-.37-3.488l-14.194-1.916c.013 0 2.26 3.713 7.877 5.708z" fill="#EA9C92"/><path d="M49.546 181.655c-1.295-1.109-5.947-6.566-14.273-5.284-5.207.805-9.595 4.36-10.573 12.459-.66 5.456 1.349 10.834 5.036 14.811.198-.093.41-.172.595-.304 2.088-1.374 2.312-2.127 2.312-2.141l.463-4.135c-.013-.581-.45-1.11-1.044-1.15-.45-.026-1.005-.251-1.533-.924-1.203-1.559-.648-4.004 1.744-4.096 1.256-.053 1.731-.727 1.916-1.361a.98.98 0 11.282-.661c2.723.991 9.437 3.105 13.758 1.89 5.524-1.559 1.613-8.007.317-9.104z" fill="#9E90B2"/><path d="M43.335 197.748l3.33-.912s-1.6 2.511-3.912 3.145c-2.326.634-2.683-1.335-2.683-1.335l3.265-.898z" fill="#fff"/><path d="M18.33 275.357l-2.841-1.625 1.057 1.744 1.44.528.344-.647z" fill="#817199"/><path d="M94.732 406.092l-32.406-18.708c-1.982-1.15-1.744-3.158.555-4.479l31.282-18.061c2.3-1.322 5.776-1.467 7.758-.317l32.405 18.708c1.983 1.15 1.745 3.158-.555 4.479l-31.282 18.061c-2.299 1.321-5.775 1.467-7.757.317z" fill="#EFEFEF"/><path d="M81.7 361.276l-16.427-9.486c-1.017-.581-1.836-2.154-1.836-3.501 0-1.348.819-1.969 1.837-1.388l16.427 9.487c1.018.581 1.837 2.153 1.837 3.501-.013 1.348-.833 1.969-1.837 1.387z" fill="#BA0D37"/><path d="M83.168 360.365l-16.428-9.487c-1.017-.581-1.837-2.153-1.837-3.501 0-.225.027-.423.08-.608-.873-.317-1.547.291-1.547 1.52 0 1.347.82 2.92 1.837 3.501l16.428 9.486c.846.489 1.546.133 1.758-.779-.093-.04-.199-.066-.291-.132z" fill="#E60D2E"/><path d="M145.084 375.374v-13.992l-31.388-.013-10.85-6.263c-2.485-1.44-6.846-1.255-9.714.397l-10.123 5.839-31.414-.013v14.388c-.066.978.476 1.916 1.665 2.603l40.573 23.426c2.484 1.44 6.845 1.255 9.713-.397l39.172-22.619c1.652-.965 2.458-2.193 2.366-3.356z" fill="#6A5D82"/><path d="M98.326 354.142c-1.824.039-3.714.502-5.207 1.361l-10.123 5.839-31.414-.013v14.388c-.066.978.475 1.916 1.665 2.603l40.572 23.426c1.203.687 2.829 1.004 4.507.964v-48.568z" fill="#5D527A"/><path d="M55.137 361.329h-3.555v14.388c-.066.978.475 1.916 1.665 2.603l1.89 1.084v-18.075z" fill="#817199"/><path d="M94.454 402.049c2.154.925 5.26.872 7.771-.092v-16.344h-7.77v16.436z" fill="#5A4B77"/><path d="M93.82 387.397l-40.573-23.425c-2.485-1.44-2.18-3.951.7-5.602l39.172-22.62c2.881-1.664 7.229-1.836 9.714-.396l40.572 23.425c2.485 1.44 2.181 3.951-.7 5.602l-39.172 22.62c-2.868 1.664-7.216 1.836-9.713.396z" fill="#ADA2BC"/><path d="M142.718 361.633l-39.172 22.619c-2.881 1.665-7.229 1.837-9.713.397l-40.573-23.426c-.555-.317-.965-.7-1.242-1.096-.86 1.374-.463 2.867 1.242 3.858l40.573 23.425c2.484 1.44 6.846 1.255 9.713-.396l39.172-22.62c2.234-1.294 2.908-3.091 1.943-4.505-.396.621-1.044 1.229-1.943 1.744z" fill="#817199"/><path d="M130.163 379.073c0 1.044-.74 2.312-1.638 2.841-.899.528-1.639.092-1.639-.951 0-1.044.74-2.312 1.639-2.841.898-.515 1.638-.092 1.638.951zm5.273-3.052c0 1.044-.74 2.312-1.639 2.841-.898.528-1.638.092-1.638-.951 0-1.044.74-2.313 1.638-2.841.899-.515 1.639-.092 1.639.951zm5.274-3.039c0 1.044-.74 2.313-1.639 2.841-.899.529-1.639.093-1.639-.951s.74-2.312 1.639-2.841c.899-.515 1.639-.092 1.639.951zm-42.674-8.654l-2.63-1.519c-.159-.093-.146-.251.04-.357l2.537-1.466c.185-.106.462-.119.634-.027l2.63 1.52c.159.092.145.251-.04.356l-2.537 1.467c-.185.106-.476.119-.634.026z" fill="#E60D2E"/><path d="M94.546 379.655l-34.004-19.621c-2.088-1.202-1.824-3.303.581-4.703l32.829-18.947c2.405-1.387 6.053-1.545 8.141-.343l34.004 19.62c2.088 1.202 1.824 3.303-.581 4.704l-32.829 18.946c-2.405 1.387-6.052 1.546-8.14.344z" fill="#381E54"/><path d="M145.084 348.883v-13.992l-31.388-.013-10.85-6.262c-2.485-1.44-6.846-1.256-9.714.396l-10.123 5.84-31.414-.013v14.388c-.066.977.476 1.916 1.665 2.603l40.573 23.425c2.484 1.44 6.845 1.255 9.713-.396l39.172-22.62c1.652-.964 2.458-2.206 2.366-3.356z" fill="#6A5D82"/><path d="M98.326 327.638c-1.824.04-3.714.502-5.207 1.361l-10.123 5.84-31.414-.014v14.389c-.066.977.475 1.915 1.665 2.602l40.572 23.426c1.203.687 2.829 1.004 4.507.964v-48.568z" fill="#5D527A"/><path d="M55.137 334.839h-3.555v14.388c-.066.978.475 1.916 1.665 2.603l1.89 1.083v-18.074z" fill="#817199"/><path d="M94.454 375.559c2.154.925 5.26.872 7.771-.093v-16.343h-7.77v16.436z" fill="#5A4B77"/><path d="M93.82 360.906l-40.573-23.425c-2.485-1.44-2.18-3.95.7-5.602l39.173-22.619c2.881-1.665 7.229-1.837 9.714-.397l40.572 23.426c2.485 1.44 2.181 3.95-.7 5.602l-39.172 22.619c-2.868 1.652-7.216 1.836-9.713.396z" fill="#ADA2BC"/><path d="M142.718 335.142l-39.172 22.62c-2.881 1.665-7.229 1.836-9.713.396l-40.573-23.425c-.555-.317-.965-.7-1.242-1.097-.86 1.374-.463 2.867 1.242 3.858l40.573 23.426c2.484 1.44 6.846 1.255 9.713-.397l39.172-22.619c2.234-1.295 2.908-3.092 1.943-4.506-.396.621-1.044 1.216-1.943 1.744z" fill="#817199"/><path d="M130.163 352.583c0 1.043-.74 2.312-1.638 2.84-.899.529-1.639.093-1.639-.951s.74-2.312 1.639-2.841c.898-.528 1.638-.092 1.638.952zm5.273-3.052c0 1.043-.74 2.312-1.639 2.84-.898.529-1.638.093-1.638-.951s.74-2.312 1.638-2.841c.899-.515 1.639-.092 1.639.952zm5.274-3.039c0 1.044-.74 2.312-1.639 2.84-.899.529-1.639.093-1.639-.951s.74-2.312 1.639-2.84c.899-.516 1.639-.093 1.639.951zm-42.674-8.654l-2.63-1.52c-.159-.092-.146-.251.04-.356l2.537-1.467c.185-.106.462-.119.634-.026l2.63 1.519c.159.093.145.251-.04.357l-2.537 1.466c-.185.106-.476.119-.634.027z" fill="#E60D2E"/><path d="M94.546 353.151l-34.004-19.62c-2.088-1.203-1.824-3.304.581-4.704l32.829-18.946c2.405-1.388 6.053-1.546 8.141-.344l34.004 19.62c2.088 1.203 1.824 3.303-.581 4.704l-32.829 18.946c-2.405 1.401-6.052 1.559-8.14.344z" fill="#381E54"/><path d="M145.084 323.595v-13.992l-31.388-.013-10.85-6.263c-2.485-1.44-6.846-1.255-9.714.397l-10.123 5.839-31.414-.013v14.388c-.066.978.476 1.916 1.665 2.603l40.573 23.426c2.484 1.44 6.845 1.255 9.713-.397l39.172-22.619c1.652-.965 2.458-2.207 2.366-3.356z" fill="#6A5D82"/><path d="M98.326 302.35c-1.824.039-3.714.502-5.207 1.36l-10.123 5.84-31.414-.013v14.388c-.066.978.475 1.916 1.665 2.603l40.572 23.425c1.203.687 2.829 1.005 4.507.965v-48.568z" fill="#5D527A"/><path d="M55.137 309.55h-3.555v14.388c-.066.978.475 1.916 1.665 2.603l1.89 1.084v-18.075z" fill="#817199"/><path d="M94.454 350.27c2.154.925 5.26.873 7.771-.092v-16.344h-7.77v16.436z" fill="#5A4B77"/><path d="M93.82 335.618l-40.573-23.425c-2.485-1.44-2.18-3.951.7-5.602l39.172-22.62c2.881-1.664 7.229-1.836 9.714-.396l40.572 23.425c2.485 1.44 2.181 3.951-.7 5.602l-39.172 22.62c-2.868 1.651-7.216 1.836-9.713.396z" fill="#ADA2BC"/><path d="M142.718 309.841l-39.172 22.619c-2.881 1.665-7.229 1.837-9.713.397l-40.573-23.426c-.555-.317-.965-.7-1.242-1.096-.86 1.374-.463 2.867 1.242 3.858l40.573 23.425c2.484 1.44 6.846 1.255 9.713-.396l39.172-22.62c2.234-1.295 2.908-3.091 1.943-4.505-.396.621-1.044 1.229-1.943 1.744z" fill="#817199"/><path d="M130.163 327.281c0 1.044-.74 2.312-1.638 2.841-.899.528-1.639.092-1.639-.951 0-1.044.74-2.313 1.639-2.841.898-.529 1.638-.093 1.638.951zm5.273-3.039c0 1.044-.74 2.312-1.639 2.841-.898.528-1.638.092-1.638-.951 0-1.044.74-2.312 1.638-2.841.899-.515 1.639-.092 1.639.951zm5.274-3.039c0 1.044-.74 2.313-1.639 2.841-.899.529-1.639.093-1.639-.951s.74-2.312 1.639-2.841c.899-.515 1.639-.092 1.639.951zm-42.674-8.654l-2.63-1.519c-.159-.092-.146-.251.04-.357l2.537-1.466c.185-.106.462-.119.634-.027l2.63 1.52c.159.092.145.251-.04.356l-2.537 1.467c-.185.106-.476.119-.634.026z" fill="#E60D2E"/><path d="M94.546 329.91l-34.004-19.62c-2.088-1.202-1.824-3.303.581-4.703l32.829-18.947c2.405-1.387 6.053-1.546 8.141-.343l34.004 19.62c2.088 1.202 1.824 3.303-.581 4.704l-32.829 18.946c-2.405 1.4-6.052 1.546-8.14.343zm0-51.778l-34.004-19.621c-2.088-1.202-1.824-3.303.581-4.703l32.829-18.947c2.405-1.387 6.053-1.545 8.141-.343l34.004 19.62c2.088 1.202 1.824 3.303-.581 4.704l-32.829 18.946c-2.405 1.401-6.052 1.546-8.14.344z" fill="#381E54"/><path d="M145.084 300.355v-13.992l-31.388-.013-10.85-6.263c-2.485-1.44-6.846-1.255-9.714.396l-10.123 5.84-31.414-.013v14.388c-.066.978.476 1.916 1.665 2.603l40.573 23.425c2.484 1.44 6.845 1.255 9.713-.396l39.172-22.62c1.652-.964 2.458-2.206 2.366-3.355z" fill="#6A5D82"/><path d="M98.326 279.109c-1.824.04-3.714.502-5.207 1.361l-10.123 5.84-31.414-.013v14.388c-.066.978.475 1.916 1.665 2.603l40.572 23.425c1.203.687 2.829 1.004 4.507.965v-48.569z" fill="#5D527A"/><path d="M55.137 286.31h-3.555v14.388c-.066.978.475 1.916 1.665 2.603l1.89 1.083v-18.074z" fill="#817199"/><path d="M94.454 327.03c2.154.925 5.26.872 7.771-.092v-16.344h-7.77v16.436z" fill="#5A4B77"/><path d="M93.82 312.378l-40.573-23.426c-2.485-1.44-2.18-3.95.7-5.602l39.172-22.619c2.881-1.665 7.229-1.837 9.714-.396l40.572 23.425c2.485 1.44 2.181 3.95-.7 5.602l-39.172 22.619c-2.868 1.652-7.216 1.837-9.713.397z" fill="#ADA2BC"/><path d="M142.718 286.601l-39.172 22.619c-2.881 1.665-7.229 1.837-9.713.396l-40.573-23.425c-.555-.317-.965-.7-1.242-1.097-.86 1.375-.463 2.868 1.242 3.858l40.573 23.426c2.484 1.44 6.846 1.255 9.713-.397l39.172-22.619c2.234-1.295 2.908-3.092 1.943-4.505-.396.621-1.044 1.228-1.943 1.744z" fill="#817199"/><path d="M130.163 304.041c0 1.044-.74 2.312-1.638 2.84-.899.529-1.639.093-1.639-.951s.74-2.312 1.639-2.84c.898-.529 1.638-.093 1.638.951zm5.273-3.039c0 1.044-.74 2.312-1.639 2.841-.898.528-1.638.092-1.638-.952 0-1.043.74-2.312 1.638-2.84.899-.516 1.639-.093 1.639.951zm5.274-3.039c0 1.044-.74 2.312-1.639 2.841-.899.528-1.639.092-1.639-.951 0-1.044.74-2.313 1.639-2.841.899-.529 1.639-.093 1.639.951zm-42.674-8.654l-2.63-1.519c-.159-.093-.146-.251.04-.357l2.537-1.467c.185-.105.462-.119.634-.026l2.63 1.519c.159.093.145.251-.04.357l-2.537 1.467c-.185.105-.476.119-.634.026z" fill="#E60D2E"/><path d="M94.546 304.622l-34.004-19.62c-2.088-1.202-1.824-3.303.581-4.704l32.829-18.946c2.405-1.387 6.053-1.546 8.141-.344l34.004 19.621c2.088 1.202 1.824 3.303-.581 4.703l-32.815 18.947c-2.419 1.4-6.066 1.545-8.155.343z" fill="#381E54"/><path d="M145.084 273.864v-13.992l-31.388-.013-10.85-6.263c-2.485-1.44-6.846-1.255-9.714.397l-10.123 5.84-31.414-.014v14.388c-.066.978.476 1.916 1.665 2.603l40.573 23.426c2.484 1.44 6.845 1.255 9.713-.397l39.172-22.619c1.652-.965 2.458-2.207 2.366-3.356z" fill="#6A5D82"/><path d="M98.326 252.619c-1.824.039-3.714.502-5.207 1.361l-10.123 5.839-31.414-.013v14.388c-.066.978.475 1.916 1.665 2.603l40.572 23.425c1.203.688 2.829 1.005 4.507.965v-48.568z" fill="#5D527A"/><path d="M55.137 259.806h-3.555v14.388c-.066.978.475 1.916 1.665 2.603l1.89 1.084v-18.075z" fill="#817199"/><path d="M94.454 300.526c2.154.925 5.26.872 7.771-.092v-16.344h-7.77v16.436z" fill="#5A4B77"/><path d="M93.82 285.887l-40.573-23.425c-2.485-1.44-2.18-3.951.7-5.602l39.172-22.62c2.881-1.664 7.229-1.836 9.714-.396l40.572 23.425c2.485 1.441 2.181 3.951-.7 5.602l-39.172 22.62c-2.868 1.651-7.216 1.823-9.713.396z" fill="#ADA2BC"/><path d="M142.718 260.11l-39.172 22.619c-2.881 1.665-7.229 1.837-9.713.397l-40.573-23.426c-.555-.317-.965-.7-1.242-1.096-.86 1.374-.463 2.867 1.242 3.858l40.573 23.425c2.484 1.44 6.846 1.255 9.713-.396l39.172-22.62c2.234-1.294 2.908-3.091 1.943-4.505-.396.621-1.044 1.229-1.943 1.744z" fill="#817199"/><path d="M130.163 277.55c0 1.044-.74 2.312-1.638 2.841-.899.528-1.639.092-1.639-.952 0-1.043.74-2.312 1.639-2.84.898-.529 1.638-.093 1.638.951zm-17.736 10.834c0 1.044-.74 2.312-1.638 2.841-.899.528-1.639.092-1.639-.951 0-1.044.74-2.313 1.639-2.841.912-.515 1.638-.093 1.638.951zm23.009-13.873c0 1.044-.74 2.313-1.639 2.841-.898.529-1.638.093-1.638-.951s.74-2.312 1.638-2.841c.899-.515 1.639-.092 1.639.951zm5.273-3.052c0 1.044-.74 2.312-1.639 2.841-.898.528-1.638.092-1.638-.951 0-1.044.74-2.312 1.638-2.841.899-.515 1.639-.092 1.639.951zm-42.673-8.654l-2.63-1.519c-.159-.093-.146-.251.04-.357l2.537-1.466c.185-.106.462-.119.634-.027l2.63 1.52c.159.092.145.251-.04.356l-2.537 1.467c-.185.119-.476.119-.634.026z" fill="#E60D2E"/><path d="M145.084 248.562v-13.991l-31.388-.014-10.85-6.262c-2.485-1.44-6.846-1.255-9.714.396l-10.123 5.84-31.414-.013v14.388c-.066.978.476 1.916 1.665 2.603l40.573 23.425c2.484 1.44 6.845 1.255 9.713-.396l39.172-22.62c1.652-.964 2.458-2.193 2.366-3.356z" fill="#6A5D82"/><path d="M98.326 227.33c-1.824.04-3.714.502-5.207 1.361l-10.123 5.84-31.414-.013v14.388c-.066.978.475 1.916 1.665 2.603l40.572 23.425c1.203.687 2.829 1.004 4.507.965v-48.569z" fill="#5D527A"/><path d="M55.137 234.518h-3.555v14.388c-.066.978.475 1.916 1.665 2.603l1.89 1.083v-18.074z" fill="#817199"/><path d="M94.454 275.238c2.154.925 5.26.872 7.771-.092v-16.344h-7.77v16.436z" fill="#5A4B77"/><path d="M93.82 260.586l-40.573-23.426c-2.485-1.44-2.18-3.95.7-5.602l39.172-22.619c2.881-1.665 7.229-1.837 9.714-.397l40.572 23.426c2.485 1.44 2.181 3.95-.7 5.602l-39.172 22.619c-2.868 1.665-7.216 1.837-9.713.397z" fill="#ADA2BC"/><path d="M142.718 234.822l-39.172 22.619c-2.881 1.665-7.229 1.837-9.713.396l-40.573-23.425c-.555-.317-.965-.7-1.242-1.097-.86 1.375-.463 2.868 1.242 3.858l40.573 23.426c2.484 1.44 6.846 1.255 9.713-.397l39.172-22.619c2.234-1.295 2.908-3.092 1.943-4.505-.396.621-1.044 1.228-1.943 1.744z" fill="#817199"/><path d="M130.163 252.262c0 1.044-.74 2.312-1.638 2.841-.899.528-1.639.092-1.639-.952s.74-2.312 1.639-2.84c.898-.529 1.638-.093 1.638.951zm5.273-3.052c0 1.044-.74 2.312-1.639 2.841-.898.528-1.638.092-1.638-.952s.74-2.312 1.638-2.84c.899-.516 1.639-.093 1.639.951zm5.274-3.039c0 1.044-.74 2.312-1.639 2.841-.899.528-1.639.092-1.639-.952 0-1.043.74-2.312 1.639-2.84.899-.516 1.639-.093 1.639.951zm-42.674-8.654l-2.63-1.519c-.159-.093-.146-.251.04-.357l2.537-1.467c.185-.105.462-.119.634-.026l2.63 1.519c.159.093.145.251-.04.357l-2.537 1.467c-.185.105-.476.118-.634.026z" fill="#E60D2E"/><path d="M177.436 408.946c2.247.965 3.674 3.475 3.489 6.17-.092 1.269-.238 2.458-.502 3.013-.714 1.506-3.066 3.567-6.82 2.087-3.753-1.48-12.079-9.301-12.396-14.428-.582-9.499 10.295.621 16.229 3.158zm-22.031 15.736s.899 5.483.463 6.487c-.437 1.004-3.053 3.145-6.899 2.682-3.859-.462-14.947-4.294-17.419-11.6-3.832-11.336 21.41.845 21.41.845l2.445 1.586z" fill="#381E54"/><path d="M144.568 337.005l-.859 85.616c.092 2.973 2.035 5.496 4.665 5.932.331.053.674.106 1.044.132 2.657.238 4.203-.911 5.088-2.1.714-.965 1.097-2.194 1.15-3.462l1.097-36.545 5.458-32.674 7.546 57.83c.119 1.559.873 3.012 2.075 3.805.833.555 1.956.978 3.436.938 2.168-.066 3.661-1.215 4.573-2.259.727-.819 1.11-1.942 1.097-3.092l-2.987-34.801-1.11-44.38-32.273 5.06z" fill="#C40C30"/><path d="M180.343 308.89c-.158 0-.317-.014-.475-.04l-13.679-2.114a3.076 3.076 0 11.952-6.078l9.436 1.467-3.225-18.444a3.072 3.072 0 12.498-3.554c1.678-.304 3.264.832 3.555 2.497l3.965 22.672a3.081 3.081 0 1-.833 2.682 3.113l-2.194.912z" fill="#FFC2B0"/><path d="M167.841 265.131s4.573-.265 10.467 11.864c5.895 12.129-2.18 15.974-2.18 15.974l-8.287-27.838z" fill="#817199"/><path d="M155.3 268.315c.211-.08 12.607-8.073 17.193.29 7.481 13.622 7.031 57.5 4.679 63.182-2.181 5.258-7.639 9.129-11.472 11.322-3.396 1.943-7.215 3.132-11.127 3.171-3.873.027-11.313-3.408-11.036-8.482 1.243-23.306-.819-42.953-2.722-62.005 0-.027 2.379-2.577 14.485-7.478z" fill="#9E90B2"/><path d="M135.727 315.905c.356-.013.7-.105 1.031-.264.911-.436 1.546-1.361 1.718-2.457l5.894-17.19c.264-1.77-2.842-8.706-4.414-8.997-1.586-.291-5.591 2.854-5.855 4.624l-1.454 15.366-12.33-4.003c-1.507-.793-2.762-2.418-3.661-.925s-.542 3.514.793 4.518l16.533 8.787a2.758 2.758 0 1.745.541zM119.379 302.561l-.912-2.233a5.922 5.922 0 0-1.467-2.114l-3.846-3.541a.75.75 0 0-1.11.106.739l.053.951 1.599 1.744c.264.278.344.687.211 1.057l-.608 1.718a1.748 1.748 0 .291 1.678l3.846 4.664 1.943-4.03z" fill="#FFC2B0"/><path d="M140.815 275.766s-8.287 6.382-9.555 25.804c0 0-.185 2.154 4.612 3.448 4.784 1.295 8.062-2.404 8.062-2.404s5.564-12.895-3.119-26.848z" fill="#817199"/><path d="M156.436 260.81l1.348 7.795s.053 2.656-2.921 3.396c-2.973.74-3.885-1.176-3.885-1.176l-1.348-8.786 6.806-1.229zM140.379 261.101c3.211 6.223 10.308 8.945 15.846 6.064 5.537-2.88 7.414-10.266 4.202-16.489-3.211-6.223-10.308-8.944-15.845-6.064-5.538 2.88-7.415 10.266-4.203 16.489z" fill="#FFC2B0"/><path d="M148.387 259.938c-.475.066-.938-.066-1.268-.409-.582-.595-.82-3.726-2.34-3.991-2.378-.409-7.189 3.304-9.145-4.663-1.018-4.136.833-5.602.423-7.901 0 0 .026 1.175 10.678-1.388 10.666-2.576 15.82 6.395 16.864 10.914 1.044 4.518.119 12.393-7.071 14.692-1.189.383-7.044-2.867-7.004-3.422.04-.568 1.982-.872 1.427-2.392-.449-1.281-1.335-1.638-2.564-1.44z" fill="#5A4B77"/><path d="M162.198 353.904l7.546 57.83c.119 1.559.873 3.012 2.075 3.805.199.132.41.251.648.37-1.573-1.176-6.145-49.718-6.991-55.122-.846-5.403-3.278-6.883-3.278-6.883z" fill="#BA0D37"/></g><defs><clipPath id="a"><path fill="#fff" d="M0 0h483v454h-483z"/></clipPath></defs></svg>