<svg width="80" height="80" viewBox="0 0 80 80" fill="none" xmlns="http://www.w3.org/2000/svg">
<path d="M24.9442 36.3538H32.5151V32.0888C33.3202 31.1638 33.7826 29.9819 33.7826 28.7658C33.7826 25.9738 31.5216 23.7128 28.7296 23.7128C25.9376 23.7128 23.6766 25.9738 23.6766 28.7658C23.6766 29.9819 24.122 31.1638 24.9442 32.0888V36.3538ZM28.7296 26.2478C30.1171 26.2478 31.2476 27.3784 31.2476 28.7658C31.2476 29.4852 30.9564 30.1361 30.4083 30.6328L29.9972 31.0097V33.8188H27.4792V31.0097L27.0681 30.6328C26.52 30.1361 26.2288 29.4852 26.2288 28.7658C26.2117 27.3784 27.3422 26.2478 28.7296 26.2478Z" fill="#EB0029"/>
<path d="M19.8913 41.4067H37.5682C39.6579 41.4067 41.3537 39.711 41.3537 37.6212V22.4623C41.3537 20.3726 39.6579 18.6768 37.5682 18.6768V14.8913C37.5682 10.0096 33.5943 6.05285 28.7298 6.05285C23.8652 6.05285 19.8913 10.0267 19.8913 14.8913V18.6768C17.8016 18.6768 16.1058 20.3726 16.1058 22.4623V37.6212C16.1058 39.6938 17.8016 41.4067 19.8913 41.4067ZM22.4264 14.8742C22.4264 11.397 25.2526 8.55364 28.7469 8.55364C32.2412 8.55364 35.0674 11.3799 35.0674 14.8742V18.6597H22.4435V14.8742H22.4264ZM18.6238 22.4451C18.6238 21.7429 19.189 21.1776 19.8913 21.1776H37.5682C38.2705 21.1776 38.8358 21.7429 38.8358 22.4451V37.6041C38.8358 38.3064 38.2705 38.8717 37.5682 38.8717H19.8913C19.189 38.8717 18.6238 38.3064 18.6238 37.6041V22.4451Z" fill="#EB0029"/>
<path d="M70.4215 23.7127H66.636V19.9273C66.636 17.8375 64.9402 16.1418 62.8505 16.1418H59.0651V12.3563C59.0651 10.2666 57.3693 8.57086 55.2796 8.57086H51.477V4.7854C51.477 2.69569 49.7812 0.99995 47.6915 0.99995H18.4184C17.4078 0.99995 16.4486 1.3939 15.7463 2.11331L7.11337 10.7462C6.39396 11.4656 6 12.4077 6 13.4183V52.7975C6 54.8872 7.69575 56.5829 9.78547 56.5829H13.5709V60.3684C13.5709 62.4581 15.2667 64.1539 17.3564 64.1539H21.159V67.9393C21.159 70.029 22.8547 71.7248 24.9445 71.7248H28.7299V75.5103C28.7299 77.6 30.4257 79.2957 32.5154 79.2957H70.4043C72.494 79.2957 74.1898 77.6 74.1898 75.5103V27.5153C74.2069 25.4085 72.5112 23.7127 70.4215 23.7127ZM16.106 5.28215V9.80413C16.106 10.5064 15.5407 11.0716 14.8385 11.0716H10.3165L16.106 5.28215ZM8.53506 52.7632V13.6067H14.8556C16.9453 13.6067 18.6411 11.911 18.6411 9.82128V3.50074H47.6915C48.3938 3.50074 48.9591 4.06598 48.9591 4.76826V52.7632C48.9591 53.4654 48.3938 54.0307 47.6915 54.0307H9.78547C9.10032 54.0307 8.53506 53.4654 8.53506 52.7632ZM16.106 60.3513V56.5658H47.6915C49.7812 56.5658 51.477 54.87 51.477 52.7803V11.0888H55.2625C55.9647 11.0888 56.53 11.654 56.53 12.3563V60.3513C56.53 61.0535 55.9647 61.6188 55.2625 61.6188H17.3735C16.6712 61.6188 16.106 61.0364 16.106 60.3513ZM23.6769 67.9222V64.1367H55.2625C57.3522 64.1367 59.0479 62.441 59.0479 60.3513V18.6597H62.8334C63.5357 18.6597 64.1009 19.225 64.1009 19.9273V67.9222C64.1009 68.6245 63.5357 69.1897 62.8334 69.1897H24.9445C24.2593 69.1897 23.6769 68.6245 23.6769 67.9222ZM71.689 75.5103C71.689 76.2126 71.1237 76.7778 70.4215 76.7778H32.5325C31.8302 76.7778 31.265 76.2126 31.265 75.5103V71.7248H62.8505C64.9402 71.7248 66.636 70.029 66.636 67.9393V26.2478H70.4215C71.1237 26.2478 71.689 26.813 71.689 27.5153V75.5103Z" fill="white"/>
<path d="M13.5708 43.9249H43.8888V46.4428H13.5708V43.9249Z" fill="white"/>
<path d="M41.3708 48.9778H43.8888V51.4957H41.3708V48.9778Z" fill="white"/>
<path d="M13.5708 48.9778H38.8358V51.4957H13.5708V48.9778Z" fill="white"/>
</svg>
