<svg width="477" height="490" viewBox="0 0 477 490" xmlns="http://www.w3.org/2000/svg" fill="none"><style>@keyframes pulse { 0% { opacity: 0; } 30% { opacity: 1; } 50%, 100% { opacity: 0; } } #first-bg { animation-name: pulse; animation-duration: 15s; animation-iteration-count: infinite; opacity: 0; z-index: -1; }</style><g clip-path="url(#clip0)"><path fill-rule="evenodd" clip-rule="evenodd" d="M244.571 179.884h1.889v52.741h-1.889v-52.741z" fill="url(#paint0_linear)"/><path fill-rule="evenodd" clip-rule="evenodd" d="M180.359 245.81v-1.884h52.88v1.884h-52.88z" fill="url(#paint1_linear)"/><path fill-rule="evenodd" clip-rule="evenodd" d="M244.571 309.853h1.889v-52.741h-1.889v52.741z" fill="url(#paint2_linear)"/><path fill-rule="evenodd" clip-rule="evenodd" d="M310.671 245.81v-1.884h-52.88v1.884h52.88z" fill="url(#paint3_linear)"/><path fill-rule="evenodd" clip-rule="evenodd" d="M200.274 244.868l45.241-26.517 25.398 26.517-25.398 24.583-45.241-24.583z" fill="url(#paint4_linear)"/><path fill-rule="evenodd" clip-rule="evenodd" d="M245.515 320.213c41.721 0 75.543-33.733 75.543-75.344 0-41.612-33.822-75.345-75.543-75.345-41.721 0-75.543 33.733-75.543 75.345 0 41.611 33.822 75.344 75.543 75.344z" fill="url(#paint5_radial)"/><path d="M.5 244.868c0-134.96 109.768-244.368 245.015-244.368 135.246 0 245.014 109.408 245.014 244.368 0 134.96-109.768 244.369-245.014 244.369-135.247 0-245.015-109.409-245.015-244.369zm245.015-75.844c-41.974 0-76.043 33.956-76.043 75.844 0 41.889 34.069 75.845 76.043 75.845 41.974 0 76.043-33.956 76.043-75.845 0-41.888-34.069-75.844-76.043-75.844z" fill="url(#first)" id="first-bg"/><path d="M245.515 322.713c43.104 0 78.049-34.851 78.049-77.844 0-42.994-34.945-77.845-78.049-77.845-43.103 0-78.048 34.851-78.048 77.845 0 42.993 34.945 77.844 78.048 77.844z" stroke="#EB0029" stroke-width="5"/><path opacity=".5" d="M245.516 350.466c58.472 0 105.875-47.277 105.875-105.598s-47.403-105.598-105.875-105.598c-58.473 0-105.876 47.277-105.876 105.598s47.403 105.598 105.876 105.598z" stroke="#EB0029" stroke-width="4"/><path opacity=".2" d="M245.515 378.22c73.842 0 133.703-59.703 133.703-133.352s-59.861-133.352-133.703-133.352c-73.842 0-133.703 59.703-133.703 133.352s59.861 133.352 133.703 133.352z" stroke="#EB0029" stroke-width="3"/><path opacity=".05" d="M245.515 406.474c89.486 0 162.031-72.353 162.031-161.606s-72.545-161.606-162.031-161.606c-89.487 0-162.033 72.353-162.033 161.606s72.546 161.606 162.033 161.606z" stroke="#EB0029" stroke-width="3"/></g><defs><linearGradient id="paint0_linear" x1="247.196" y1="221.012" x2="247.196" y2="179.884" gradientUnits="userSpaceOnUse"><stop stop-color="#fff" stop-opacity=".5"/><stop offset="1" stop-color="#fff" stop-opacity=".01"/></linearGradient><linearGradient id="paint1_linear" x1="221.595" y1="243.192" x2="180.359" y2="243.192" gradientUnits="userSpaceOnUse"><stop stop-color="#fff" stop-opacity=".5"/><stop offset="1" stop-color="#fff" stop-opacity=".01"/></linearGradient><linearGradient id="paint2_linear" x1="247.196" y1="268.724" x2="247.196" y2="309.853" gradientUnits="userSpaceOnUse"><stop stop-color="#fff" stop-opacity=".5"/><stop offset="1" stop-color="#fff" stop-opacity=".01"/></linearGradient><linearGradient id="paint3_linear" x1="269.434" y1="243.192" x2="310.671" y2="243.192" gradientUnits="userSpaceOnUse"><stop stop-color="#fff" stop-opacity=".5"/><stop offset="1" stop-color="#fff" stop-opacity=".01"/></linearGradient><linearGradient id="paint4_linear" x1="270.913" y1="269.451" x2="270.913" y2="218.351" gradientUnits="userSpaceOnUse"><stop stop-color="#EB0029"/><stop offset="1" stop-color="#f05"/></linearGradient><radialGradient id="paint5_radial" cx="0" cy="0" r="1" gradientUnits="userSpaceOnUse" gradientTransform="matrix(0 74.477 -74.673 0 245.515 245.736)"><stop stop-color="#EB0029" stop-opacity=".75"/><stop offset="1" stop-color="#EB0029" stop-opacity=".01"/></radialGradient><radialGradient id="first" cx="0" cy="0" r="1" gradientUnits="userSpaceOnUse" gradientTransform="matrix(0 224.837 -225.431 0 245.515 244.868)"><stop stop-color="#EB0029"/><stop offset=".832" stop-color="#EB0029" stop-opacity=".1"/><stop offset="1" stop-color="#EB0029" stop-opacity=".01"/></radialGradient><clipPath id="clip0"><path fill="#fff" d="M0 0h477v490h-477z"/></clipPath></defs></svg>