<svg width="366" height="192" viewBox="0 0 366 192" fill="none" xmlns="http://www.w3.org/2000/svg">
<path d="M25.8652 131.29L142.354 64.1267L11.0394 70.3106L2.88514 78.0932L1.11133 89.7738L2.40859 97.7151L6.31361 107.361L10.2186 114.906L14.587 120.574L25.8652 131.29Z" fill="#5A4B77"/>
<path d="M123.769 2.89582C123.968 2.7769 124.167 2.65797 124.378 2.55226L124.418 2.52585C129.078 0.0417355 135.392 0.49099 142.355 4.50786L301.468 96.2087C300.793 96.7108 300.197 97.3318 299.641 97.9793L293.605 94.5042L261.412 164.35L244.746 187.064L233.865 190.843L222.957 186.588L170.034 156.567L65.1279 96.6844L26.6469 73.6138L16.5997 70.4294L7.55859 69.8876L123.769 2.89582Z" fill="#D4ECFF"/>
<path d="M249.525 173.573C249.525 157.136 237.916 137.064 223.66 128.846V131.673C236.566 139.113 247.076 157.268 247.076 172.146C247.076 187.024 236.579 193.076 223.66 185.637L25.8667 71.6715C18.7318 67.5621 12.272 67.1789 7.58594 69.8744L123.77 2.89582C123.969 2.7769 124.167 2.65797 124.379 2.55226L124.419 2.52585C129.078 0.0417354 135.393 0.49099 142.356 4.50786L301.469 96.2087C300.794 96.7108 300.198 97.3318 299.642 97.9793L293.606 94.5042L261.412 164.35L248.096 182.492C249.009 179.968 249.525 176.982 249.525 173.573Z" fill="#F8F8F8"/>
<path d="M7.55859 69.8883L7.57253 69.8743C7.57253 69.8743 7.57253 69.8883 7.55859 69.8883Z" fill="#F8F8F8"/>
<path d="M249.526 172.001C249.526 172.291 249.499 172.556 249.499 172.833C249.327 164.628 246.349 155.59 241.623 147.609C241.848 147.464 242.06 147.331 242.285 147.186C246.746 155.127 249.526 163.993 249.526 172.001Z" fill="white"/>
<path d="M25.8667 70.0992L223.646 184.078C236.248 191.345 246.56 185.743 247.037 171.618C247.037 171.789 247.063 171.974 247.063 172.159C247.063 187.038 236.566 193.089 223.646 185.65L25.8667 71.6716C18.7318 67.5622 12.272 67.179 7.58594 69.8746L13.2118 66.6373C16.958 66.3598 21.2734 67.4433 25.8667 70.0992Z" fill="white"/>
<path d="M261.412 162.778L293.606 92.9317L299.642 96.4068C299.88 96.1161 300.145 95.8519 300.396 95.5876L301.469 96.2086C300.794 96.7107 300.198 97.3318 299.642 97.9792L293.606 94.5041L261.412 164.35L248.096 182.492C248.387 181.686 248.625 180.814 248.824 179.915L261.412 162.778Z" fill="white"/>
<path d="M7.55859 68.3158L7.57253 68.3018C7.57253 68.3158 7.57253 68.3158 7.55859 68.3158Z" fill="#D4ECFF"/>
<path d="M340.134 61.6952C354.404 69.914 366 89.9719 366 106.423C366 114.364 363.286 120.019 358.891 122.82V122.834L358.825 122.873C358.56 123.032 358.295 123.19 358.017 123.336L241.952 190.275L249.061 177.458L248.24 164.654L245.99 157.453L242.561 149.789C242.561 149.789 239.728 144.543 239.543 144.424C239.371 144.305 235.347 139.112 235.347 139.112L231.442 135.043L227.193 132.334L223.658 128.872L340.134 61.6952Z" fill="#817199"/>
<path d="M25.8658 131.29V128.462C12.9594 121.023 2.44891 102.868 2.44891 87.9899C2.44891 73.1117 12.9461 67.0599 25.8658 74.499L223.645 188.478C237.915 196.696 249.511 190.01 249.511 173.573C249.511 157.136 237.902 137.078 223.645 128.846V131.673C236.552 139.112 247.062 157.268 247.062 172.146C247.062 187.024 236.565 193.076 223.645 185.637L25.8658 71.6714C11.6092 63.4527 0 70.1387 0 86.5761C0 103.014 11.6092 123.071 25.8658 131.29Z" fill="#381E54"/>
<path d="M110.685 141.519C126.235 141.519 138.841 134.25 138.841 125.283C138.841 116.316 126.235 109.047 110.685 109.047C95.1351 109.047 82.5293 116.316 82.5293 125.283C82.5293 134.25 95.1351 141.519 110.685 141.519Z" fill="#381E54"/>
<path d="M142.707 111.392V102.412H141.008C139.49 99.7913 136.949 97.3221 133.331 95.2392C120.82 88.0248 100.549 88.0248 88.0384 95.2392C84.4205 97.3221 81.8797 99.7913 80.3608 102.412H78.6623V111.351C78.6347 116.096 81.7693 120.841 88.0384 124.455C100.549 131.67 120.82 131.67 133.331 124.455C139.586 120.855 142.707 116.124 142.707 111.392Z" fill="#C40C30"/>
<path d="M110.684 120.883C128.37 120.883 142.707 112.613 142.707 102.412C142.707 92.2113 128.37 83.9417 110.684 83.9417C92.999 83.9417 78.6621 92.2113 78.6621 102.412C78.6621 112.613 92.999 120.883 110.684 120.883Z" fill="#E60D2E"/>
<path d="M133.332 115.476C120.821 122.69 100.55 122.69 88.0392 115.476C82.0462 112.013 78.953 107.53 78.7045 103.005C78.4283 107.93 81.5215 112.896 88.0392 116.648C100.55 123.862 120.821 123.862 133.332 116.648C139.849 112.896 142.929 107.916 142.666 103.005C142.418 107.53 139.325 112.013 133.332 115.476Z" fill="white"/>
<path d="M95.2466 108.523C94.7081 108.206 94.4043 107.792 94.4043 107.351L94.4319 95.3221C94.4319 94.4117 95.7299 93.6667 97.3179 93.6667C98.9059 93.6667 100.19 94.4116 100.19 95.3359L100.163 105.309L129.161 101.764C130.721 101.571 132.254 102.15 132.585 103.047C132.917 103.944 131.922 104.826 130.362 105.019L97.8841 108.992C97.0279 109.103 96.1442 108.978 95.4675 108.661C95.3847 108.606 95.3157 108.565 95.2466 108.523Z" fill="white"/>
<path fill-rule="evenodd" clip-rule="evenodd" d="M131.002 17.2693C129.756 17.7313 129.681 17.7853 129.98 18.0109C130.111 18.1105 132.618 19.4251 135.55 20.9321C138.481 22.4392 140.972 23.7209 141.085 23.7805C141.649 24.0787 153.519 30.2108 153.932 30.417C154.195 30.5487 155.394 31.1704 156.596 31.7986C157.798 32.4269 159.059 33.0792 159.398 33.2483C160.145 33.6212 160.278 33.6898 163.673 35.45C165.16 36.2208 166.636 36.9821 166.953 37.1418C167.27 37.3015 170.605 39.0249 174.363 40.9717C178.121 42.9185 181.259 44.5157 181.337 44.5212C181.414 44.5266 182.009 44.3275 182.66 44.0786C183.787 43.6471 184.094 43.4417 183.648 43.4179C183.536 43.4119 182.904 43.1287 182.243 42.7885C181.581 42.4484 180.849 42.072 180.614 41.9522C180.38 41.8324 179.774 41.5125 179.269 41.2415C178.763 40.9703 178.326 40.7472 178.297 40.7457C178.268 40.7442 177.613 40.4091 176.841 40.0012C176.069 39.5931 175.161 39.1225 174.822 38.9554C174.218 38.6568 173.593 38.3336 170.449 36.6918C169.585 36.2405 168.548 35.7091 168.144 35.5107C167.741 35.3123 166.922 34.8855 166.324 34.562C165.726 34.2385 165.212 33.9725 165.181 33.9708C165.15 33.9692 164.493 33.6337 163.721 33.2254C162.95 32.817 161.979 32.3184 161.565 32.1174C161.151 31.9164 160.65 31.653 160.451 31.5322C160.253 31.4114 160.047 31.3102 159.994 31.3074C159.94 31.3046 159.732 31.1998 159.53 31.0745C159.329 30.9493 158.797 30.6688 158.348 30.4511C157.9 30.2334 157.133 29.8404 156.645 29.5778C156.157 29.3151 155.419 28.9347 155.005 28.7323C154.591 28.5299 154.09 28.2655 153.891 28.1447C153.693 28.0239 153.487 27.9227 153.434 27.9199C153.38 27.917 153.172 27.8123 152.971 27.687C152.769 27.5618 152.237 27.2813 151.789 27.0636C151.34 26.8459 150.573 26.4529 150.085 26.1902C149.597 25.9276 148.859 25.5475 148.445 25.3457C148.031 25.1439 147.631 24.9389 147.557 24.8902C147.482 24.8414 147.206 24.6935 146.942 24.5615C146.679 24.4294 145.91 24.0351 145.234 23.6854C144.557 23.3357 143.788 22.9409 143.525 22.8083C143.262 22.6756 142.884 22.4664 142.686 22.3435C142.487 22.2205 142.286 22.1179 142.239 22.1154C142.192 22.1128 141.748 21.8939 141.254 21.6289C140.76 21.3638 140.299 21.144 140.229 21.1403C140.16 21.1366 140.106 21.0849 140.109 21.0254C140.113 20.9659 140.049 20.9137 139.969 20.9094C139.888 20.9051 138.549 20.2415 136.993 19.4347C135.437 18.628 133.948 17.8594 133.685 17.7268C133.422 17.5941 133.054 17.392 132.867 17.2775C132.238 16.8929 132.019 16.8919 131.002 17.2693ZM125.356 19.4091C124.794 19.6256 124.324 19.851 124.311 19.9099C124.297 19.9688 124.665 20.2194 125.129 20.4669C125.592 20.7142 126.069 20.9899 126.187 21.0794C126.379 21.2237 130.302 23.2656 136.722 26.562C137.887 27.1603 139.732 28.113 140.822 28.6791C141.912 29.2451 143.388 30.008 144.102 30.3743C144.816 30.7405 146.844 31.7873 148.607 32.7004C150.371 33.6135 152.063 34.4848 152.366 34.6368C152.669 34.7887 153.666 35.3014 154.581 35.7759C155.496 36.2504 156.307 36.642 156.384 36.6461C156.46 36.6502 156.542 36.6936 156.565 36.7424C156.588 36.7914 160.073 38.6191 164.31 40.8041L172.014 44.7769L172.534 44.5999C173.768 44.1794 174.558 43.8688 174.562 43.802C174.564 43.7626 174.028 43.4561 173.37 43.1209C172.712 42.7859 168.33 40.5255 163.632 38.0978C158.934 35.6701 154.813 33.5449 154.475 33.3752C154.136 33.2055 153.011 32.6249 151.974 32.085C150.937 31.5452 150.003 31.0988 149.897 31.0932C149.792 31.0876 149.687 31.0358 149.664 30.9781C149.631 30.8948 144.197 28.0329 141.32 26.5834C141.001 26.4227 138.772 25.2721 136.367 24.0266C133.961 22.781 131.747 21.6388 131.446 21.4883C130.392 20.9608 129.936 20.7256 129.123 20.2909C128.672 20.0499 128.237 19.849 128.156 19.8446C128.075 19.84 127.736 19.6848 127.402 19.4995C127.069 19.3142 126.701 19.1295 126.586 19.0891C126.47 19.0486 125.917 19.1927 125.356 19.4091ZM120.145 21.2921C119.872 21.3927 119.616 21.5067 119.575 21.5457C119.534 21.5846 119.26 21.6887 118.965 21.7771C118.671 21.8655 118.428 21.9819 118.425 22.0357C118.422 22.0896 118.651 22.232 118.935 22.352C119.218 22.4722 119.528 22.6362 119.624 22.7166C119.72 22.7972 120.027 22.9593 120.307 23.077C120.586 23.1948 120.845 23.3233 120.882 23.3625C120.918 23.4019 121.225 23.5673 121.564 23.7301C121.903 23.8929 122.21 24.0572 122.247 24.0952C122.284 24.1331 122.714 24.3514 123.204 24.5802C123.694 24.809 124.125 25.0272 124.161 25.0652C124.198 25.1031 124.629 25.3214 125.118 25.5502C125.608 25.779 126.087 26.0301 126.184 26.1083C126.28 26.1865 126.587 26.3469 126.867 26.4646C127.146 26.5823 127.405 26.7108 127.442 26.7501C127.478 26.7894 127.785 26.9549 128.124 27.1177C128.463 27.2805 128.771 27.4417 128.807 27.4761C128.844 27.5105 130.443 28.3464 132.359 29.3336C134.276 30.3208 136.322 31.392 136.906 31.714C137.49 32.036 138.001 32.3013 138.04 32.3034C138.08 32.3055 138.448 32.496 138.858 32.7267C139.269 32.9575 139.634 33.1478 139.67 33.1497C139.706 33.1517 140.366 33.486 141.137 33.8926C142.494 34.6083 143.108 34.9257 143.648 35.19C143.79 35.2595 144.368 35.5557 144.931 35.8482C145.495 36.1408 146.233 36.5172 146.572 36.6847C146.911 36.8522 147.854 37.3252 148.668 37.7357C149.482 38.1462 150.172 38.4834 150.201 38.4849C150.23 38.4865 150.526 38.6487 150.859 38.8454C151.191 39.0422 151.513 39.2058 151.572 39.209C151.632 39.2122 151.777 39.2889 151.894 39.3794C152.011 39.47 152.446 39.7025 152.86 39.8964C153.275 40.0902 153.86 40.3831 154.16 40.5472C154.46 40.7113 154.891 40.9255 155.117 41.0232C155.344 41.1208 155.631 41.2733 155.755 41.3621C156.082 41.5956 156.772 41.9423 157.73 42.3553C158.191 42.554 158.745 42.8397 158.96 42.9901C159.175 43.1406 159.537 43.3441 159.763 43.4424C159.99 43.5406 160.431 43.7704 160.744 43.953C161.057 44.1356 161.36 44.2875 161.417 44.2906C161.474 44.2936 161.617 44.3687 161.734 44.4574C161.851 44.546 162.333 44.8036 162.804 45.0298C163.275 45.2558 163.848 45.5312 164.077 45.6417C164.306 45.7522 164.72 45.9781 164.997 46.1437C165.651 46.5342 166.792 47.1043 167.842 47.5651C168.302 47.767 168.787 48.0357 168.92 48.1621C169.053 48.2887 169.221 48.3954 169.294 48.3993C169.366 48.4031 169.588 48.5051 169.787 48.6258C169.985 48.7466 170.579 49.0527 171.106 49.3059C171.633 49.5592 172.156 49.8286 172.268 49.9045C172.38 49.9805 172.656 50.1237 172.883 50.2227C173.109 50.3216 173.548 50.5504 173.859 50.7311C174.169 50.9118 174.458 51.0615 174.501 51.0637C174.544 51.066 174.851 51.2289 175.184 51.4256C175.517 51.6224 175.826 51.7853 175.871 51.7877C175.917 51.7902 176.355 52.0088 176.846 52.2737C177.336 52.5385 177.765 52.7567 177.798 52.7584C177.832 52.7602 178.131 52.9226 178.464 53.1194C178.797 53.3162 179.106 53.4791 179.151 53.4815C179.224 53.4854 180.734 54.2591 181.287 54.5756C181.821 54.8813 181.85 54.877 183.714 54.2157C184.009 54.1111 184.172 53.8865 184.063 53.7346C183.997 53.6416 181.768 52.4417 180.359 51.7403C180.044 51.5834 179.091 51.0937 178.241 50.6522C176.402 49.6971 173.711 48.307 172.663 47.7708C171.082 46.9617 143.36 32.6493 140.068 30.9424C133.194 27.3778 124.497 22.9174 123.802 22.6005C123.35 22.394 122.862 22.1333 122.718 22.0211C122.574 21.909 122.411 21.8149 122.356 21.812C122.3 21.809 122.003 21.662 121.696 21.4852C121.006 21.0888 120.776 21.0602 120.145 21.2921ZM176.998 46.1665C176.348 46.4033 175.814 46.6326 175.812 46.6761C175.81 46.7196 176.039 46.8692 176.321 47.0086C176.603 47.148 177.056 47.3715 177.327 47.5052C177.598 47.639 178.274 47.9899 178.83 48.2851C179.812 48.8067 181.114 49.4748 182.37 50.1019C182.709 50.2709 183.508 50.6895 184.146 51.0322C184.784 51.3749 185.816 51.8799 186.439 52.1544L187.572 52.6536L188.647 52.246C189.237 52.0218 189.723 51.806 189.725 51.7664C189.732 51.6373 189.277 51.35 188.095 50.7353C187.456 50.4033 186.239 49.7705 185.391 49.3291C184.543 48.8876 183.814 48.5245 183.771 48.5222C183.728 48.5199 183.538 48.4121 183.349 48.2827C183.159 48.1533 182.892 48.0414 182.755 48.034C182.617 48.0267 182.486 47.9778 182.463 47.9255C182.428 47.8443 180.629 46.8358 180.508 46.8293C180.485 46.8281 180.017 46.5835 179.47 46.2858C178.922 45.988 178.407 45.7425 178.327 45.7402C178.246 45.7378 177.648 45.9296 176.998 46.1665Z" fill="#381E54"/>
<path fill-rule="evenodd" clip-rule="evenodd" d="M202.775 55.4553C201.529 55.9174 201.455 55.9714 201.753 56.197C201.885 56.2966 204.391 57.6112 207.323 59.1182C210.255 60.6253 212.746 61.907 212.859 61.9666C213.422 62.2648 225.292 68.3969 225.705 68.6031C225.968 68.7348 227.167 69.3565 228.37 69.9847C229.572 70.613 230.833 71.2653 231.171 71.4344C231.918 71.8073 232.052 71.8759 235.446 73.6361C236.933 74.4069 238.409 75.1681 238.727 75.3278C239.044 75.4875 242.378 77.211 246.136 79.1578C249.894 81.1045 253.032 82.7018 253.11 82.7072C253.188 82.7127 253.783 82.5136 254.433 82.2647C255.56 81.8332 255.868 81.6278 255.422 81.604C255.31 81.598 254.677 81.3148 254.016 80.9746C253.355 80.6345 252.622 80.2581 252.388 80.1383C252.153 80.0185 251.548 79.6986 251.042 79.4276C250.536 79.1564 250.099 78.9333 250.07 78.9318C250.041 78.9302 249.386 78.5952 248.615 78.1873C247.843 77.7792 246.934 77.3086 246.596 77.1415C245.991 76.8429 245.367 76.5197 242.223 74.8779C241.359 74.4266 240.321 73.8951 239.918 73.6968C239.515 73.4984 238.695 73.0715 238.098 72.748C237.5 72.4246 236.985 72.1586 236.954 72.1569C236.923 72.1552 236.266 71.8198 235.495 71.4115C234.723 71.0031 233.753 70.5045 233.339 70.3035C232.925 70.1024 232.423 69.8391 232.225 69.7183C232.026 69.5975 231.82 69.4963 231.767 69.4935C231.714 69.4906 231.505 69.3859 231.304 69.2606C231.103 69.1354 230.571 68.8549 230.122 68.6372C229.673 68.4195 228.907 68.0265 228.419 67.7638C227.931 67.5012 227.193 67.1208 226.779 66.9184C226.365 66.716 225.864 66.4516 225.665 66.3307C225.466 66.2099 225.26 66.1088 225.207 66.1059C225.154 66.1031 224.945 65.9984 224.744 65.8731C224.543 65.7479 224.011 65.4674 223.562 65.2497C223.113 65.032 222.347 64.6389 221.859 64.3763C221.371 64.1137 220.633 63.7335 220.219 63.5318C219.805 63.3299 219.405 63.1249 219.33 63.0763C219.256 63.0275 218.979 62.8796 218.716 62.7475C218.452 62.6155 217.684 62.2212 217.007 61.8715C216.331 61.5218 215.562 61.127 215.299 60.9944C215.035 60.8616 214.658 60.6525 214.459 60.5296C214.261 60.4066 214.06 60.304 214.012 60.3014C213.965 60.2989 213.522 60.08 213.027 59.8149C212.533 59.5499 212.072 59.33 212.003 59.3263C211.934 59.3226 211.88 59.2709 211.883 59.2115C211.886 59.152 211.823 59.0998 211.742 59.0955C211.662 59.0912 210.322 58.4276 208.766 57.6208C207.21 56.8141 205.722 56.0455 205.459 55.9128C205.195 55.7802 204.827 55.5781 204.64 55.4636C204.012 55.079 203.793 55.078 202.775 55.4553ZM197.129 57.5952C196.568 57.8117 196.098 58.037 196.084 58.096C196.071 58.1549 196.439 58.4055 196.902 58.6529C197.366 58.9003 197.842 59.176 197.961 59.2655C198.152 59.4098 202.076 61.4517 208.495 64.748C209.661 65.3463 211.506 66.2991 212.595 66.8652C213.685 67.4312 215.161 68.1941 215.875 68.5603C216.589 68.9266 218.617 69.9734 220.381 70.8864C222.145 71.7996 223.836 72.6709 224.139 72.8229C224.443 72.9748 225.439 73.4874 226.354 73.9619C227.269 74.4364 228.08 74.8281 228.157 74.8322C228.233 74.8362 228.315 74.8796 228.338 74.9285C228.361 74.9775 231.847 76.8052 236.084 78.9902L243.787 82.963L244.307 82.7859C245.542 82.3655 246.332 82.0549 246.335 81.9881C246.337 81.9486 245.801 81.6422 245.143 81.307C244.485 80.972 240.103 78.7116 235.405 76.2839C230.707 73.8562 226.587 71.731 226.248 71.5613C225.91 71.3916 224.784 70.811 223.748 70.2711C222.711 69.7313 221.776 69.2849 221.671 69.2793C221.565 69.2736 221.46 69.2218 221.438 69.1642C221.405 69.0809 215.971 66.2189 213.093 64.7695C212.774 64.6088 210.545 63.4582 208.14 62.2127C205.735 60.9671 203.521 59.8249 203.22 59.6744C202.165 59.1469 201.709 58.9117 200.896 58.477C200.446 58.236 200.011 58.0351 199.93 58.0307C199.848 58.0261 199.509 57.8709 199.176 57.6856C198.842 57.5003 198.475 57.3156 198.359 57.2751C198.244 57.2347 197.69 57.3787 197.129 57.5952ZM191.919 59.4782C191.646 59.5788 191.389 59.6928 191.348 59.7317C191.308 59.7707 191.033 59.8748 190.739 59.9632C190.444 60.0516 190.201 60.168 190.198 60.2218C190.195 60.2757 190.425 60.4181 190.708 60.5381C190.991 60.6583 191.301 60.8223 191.397 60.9027C191.493 60.9832 191.8 61.1454 192.08 61.2631C192.36 61.3809 192.619 61.5093 192.655 61.5486C192.692 61.588 192.999 61.7534 193.338 61.9162C193.677 62.079 193.984 62.2433 194.02 62.2812C194.057 62.3192 194.488 62.5375 194.978 62.7662C195.467 62.995 195.898 63.2133 195.935 63.2512C195.971 63.2892 196.402 63.5075 196.892 63.7363C197.382 63.965 197.861 64.2161 197.957 64.2944C198.053 64.3726 198.36 64.533 198.64 64.6506C198.92 64.7684 199.179 64.8969 199.215 64.9362C199.252 64.9755 199.559 65.141 199.898 65.3038C200.237 65.4666 200.544 65.6278 200.581 65.6622C200.618 65.6966 202.216 66.5325 204.133 67.5196C206.05 68.5069 208.096 69.5781 208.68 69.9001C209.264 70.2221 209.774 70.4874 209.814 70.4895C209.853 70.4916 210.221 70.6821 210.632 70.9128C211.042 71.1435 211.407 71.3339 211.443 71.3358C211.48 71.3378 212.14 71.6721 212.911 72.0787C214.267 72.7944 214.882 73.1118 215.422 73.376C215.564 73.4456 216.141 73.7418 216.705 74.0343C217.269 74.3269 218.007 74.7033 218.345 74.8708C218.684 75.0383 219.627 75.5113 220.441 75.9218C221.256 76.3323 221.945 76.6695 221.974 76.671C222.003 76.6725 222.299 76.8348 222.632 77.0315C222.965 77.2283 223.286 77.3919 223.346 77.3951C223.406 77.3983 223.55 77.475 223.667 77.5655C223.785 77.656 224.219 77.8886 224.634 78.0825C225.048 78.2763 225.633 78.5692 225.933 78.7333C226.233 78.8974 226.664 79.1116 226.891 79.2093C227.117 79.3069 227.404 79.4594 227.529 79.5482C227.856 79.7817 228.545 80.1284 229.503 80.5414C229.965 80.7401 230.518 81.0258 230.733 81.1762C230.949 81.3266 231.31 81.5301 231.536 81.6285C231.763 81.7267 232.204 81.9565 232.518 82.139C232.831 82.3217 233.134 82.4736 233.191 82.4767C233.248 82.4797 233.39 82.5548 233.508 82.6435C233.625 82.7321 234.106 82.9897 234.577 83.2158C235.048 83.4419 235.621 83.7173 235.85 83.8278C236.079 83.9383 236.493 84.1642 236.77 84.3297C237.424 84.7203 238.565 85.2904 239.615 85.7512C240.075 85.9531 240.56 86.2218 240.693 86.3482C240.827 86.4748 240.995 86.5815 241.067 86.5853C241.14 86.5892 241.361 86.6912 241.56 86.8119C241.759 86.9327 242.352 87.2387 242.879 87.492C243.407 87.7453 243.929 88.0147 244.041 88.0906C244.153 88.1666 244.43 88.3098 244.656 88.4088C244.883 88.5077 245.322 88.7365 245.632 88.9172C245.943 89.0979 246.232 89.2475 246.275 89.2498C246.317 89.2521 246.625 89.415 246.957 89.6117C247.29 89.8085 247.6 89.9714 247.645 89.9738C247.69 89.9763 248.129 90.1949 248.619 90.4598C249.11 90.7246 249.539 90.9427 249.572 90.9445C249.605 90.9463 249.905 91.1087 250.237 91.3055C250.57 91.5022 250.88 91.6652 250.925 91.6676C250.997 91.6715 252.507 92.4452 253.06 92.7617C253.594 93.0674 253.623 93.0631 255.488 92.4018C255.783 92.2972 255.946 92.0726 255.837 91.9207C255.77 91.8276 253.542 90.6278 252.133 89.9264C251.817 89.7695 250.864 89.2798 250.014 88.8383C248.175 87.8832 245.485 86.4931 244.437 85.9568C242.855 85.1478 215.134 70.8354 211.842 69.1285C204.967 65.5639 196.27 61.1035 195.576 60.7865C195.123 60.58 194.635 60.3194 194.492 60.2072C194.348 60.0951 194.185 60.001 194.129 59.9981C194.074 59.9951 193.777 59.8481 193.469 59.6713C192.779 59.2749 192.549 59.2462 191.919 59.4782ZM248.772 84.3526C248.122 84.5894 247.588 84.8187 247.586 84.8622C247.583 84.9056 247.812 85.0553 248.094 85.1947C248.377 85.3341 248.829 85.5576 249.1 85.6913C249.371 85.8251 250.048 86.176 250.603 86.4712C251.585 86.9928 252.887 87.6609 254.143 88.288C254.482 88.457 255.281 88.8756 255.919 89.2183C256.558 89.561 257.59 90.0659 258.213 90.3405L259.346 90.8396L260.42 90.4321C261.011 90.2079 261.496 89.9921 261.498 89.9525C261.505 89.8233 261.051 89.536 259.868 88.9214C259.229 88.5894 258.013 87.9566 257.165 87.5152C256.317 87.0736 255.588 86.7106 255.545 86.7083C255.502 86.706 255.312 86.5982 255.122 86.4688C254.933 86.3394 254.665 86.2274 254.528 86.2201C254.391 86.2128 254.26 86.1639 254.237 86.1116C254.201 86.0304 252.402 85.0219 252.282 85.0154C252.258 85.0142 251.791 84.7696 251.243 84.4718C250.695 84.1741 250.181 83.9286 250.1 83.9263C250.02 83.9239 249.422 84.1157 248.772 84.3526Z" fill="#381E54"/>
<path fill-rule="evenodd" clip-rule="evenodd" d="M109.792 32.4802C108.574 32.932 108.501 32.9848 108.793 33.2053C108.922 33.3027 111.372 34.5879 114.239 36.0613C117.105 37.5347 119.54 38.7878 119.651 38.8461C120.202 39.1376 131.807 45.1328 132.21 45.3344C132.468 45.4631 133.64 46.071 134.815 46.6852C135.991 47.2994 137.223 47.9372 137.554 48.1025C138.285 48.4671 138.415 48.5341 141.734 50.2551C143.188 51.0086 144.631 51.7529 144.941 51.909C145.251 52.0651 148.511 53.7501 152.185 55.6534C155.859 57.5567 158.927 59.1183 159.003 59.1237C159.079 59.129 159.661 58.9343 160.297 58.691C161.399 58.2691 161.699 58.0683 161.264 58.045C161.154 58.0392 160.535 57.7623 159.889 57.4297C159.243 57.0972 158.526 56.7292 158.297 56.6121C158.068 56.495 157.476 56.1822 156.982 55.9172C156.487 55.6521 156.059 55.434 156.031 55.4325C156.003 55.431 155.363 55.1034 154.608 54.7046C153.854 54.3056 152.966 53.8456 152.634 53.6822C152.043 53.3902 151.433 53.0743 148.359 51.4691C147.514 51.0279 146.5 50.5083 146.106 50.3144C145.711 50.1204 144.91 49.7031 144.326 49.3868C143.742 49.0705 143.239 48.8105 143.208 48.8089C143.178 48.8072 142.536 48.4793 141.781 48.0801C141.027 47.6809 140.078 47.1934 139.673 46.9969C139.269 46.8003 138.779 46.5428 138.584 46.4247C138.39 46.3066 138.189 46.2077 138.137 46.2049C138.085 46.2021 137.881 46.0997 137.684 45.9772C137.487 45.8548 136.967 45.5806 136.528 45.3678C136.09 45.1549 135.34 44.7707 134.863 44.5139C134.386 44.2571 133.665 43.8852 133.26 43.6873C132.855 43.4894 132.365 43.2309 132.171 43.1128C131.977 42.9947 131.775 42.8958 131.723 42.893C131.671 42.8902 131.468 42.7878 131.271 42.6653C131.074 42.5429 130.554 42.2687 130.115 42.0559C129.676 41.843 128.927 41.4588 128.45 41.202C127.973 40.9452 127.251 40.5736 126.846 40.3763C126.442 40.179 126.051 39.9786 125.978 39.931C125.905 39.8833 125.634 39.7387 125.377 39.6096C125.12 39.4805 124.368 39.095 123.706 38.7531C123.045 38.4112 122.293 38.0252 122.036 37.8956C121.779 37.7658 121.409 37.5614 121.215 37.4411C121.021 37.3209 120.825 37.2206 120.779 37.2181C120.732 37.2156 120.299 37.0016 119.816 36.7425C119.332 36.4834 118.882 36.2684 118.814 36.2648C118.746 36.2612 118.694 36.2106 118.697 36.1525C118.7 36.0943 118.638 36.0433 118.559 36.0391C118.48 36.0349 117.171 35.3861 115.65 34.5973C114.129 33.8086 112.673 33.0572 112.416 32.9275C112.158 32.7978 111.798 32.6002 111.615 32.4882C111.001 32.1123 110.787 32.1113 109.792 32.4802ZM104.272 34.5723C103.724 34.784 103.264 35.0043 103.251 35.0619C103.238 35.1195 103.597 35.3645 104.051 35.6064C104.504 35.8482 104.969 36.1178 105.085 36.2053C105.272 36.3464 109.109 38.3427 115.385 41.5654C116.524 42.1504 118.328 43.0819 119.393 43.6353C120.459 44.1887 121.902 44.9345 122.6 45.2926C123.298 45.6507 125.28 46.6741 127.005 47.5668C128.73 48.4596 130.383 49.3114 130.68 49.46C130.976 49.6085 131.951 50.1097 132.845 50.5736C133.739 51.0375 134.533 51.4204 134.607 51.4244C134.682 51.4284 134.762 51.4708 134.785 51.5186C134.807 51.5665 138.215 53.3534 142.357 55.4896L149.889 59.3737L150.397 59.2006C151.604 58.7895 152.376 58.4858 152.38 58.4206C152.382 58.382 151.857 58.0824 151.214 57.7547C150.571 57.4271 146.287 55.2172 141.694 52.8437C137.101 50.4702 133.072 48.3925 132.741 48.2266C132.41 48.0606 131.31 47.4931 130.296 46.9652C129.283 46.4374 128.369 46.001 128.266 45.9955C128.163 45.99 128.06 45.9393 128.038 45.883C128.006 45.8016 122.693 43.0035 119.88 41.5864C119.568 41.4293 117.389 40.3044 115.037 39.0867C112.686 37.8689 110.521 36.7522 110.227 36.6051C109.196 36.0894 108.75 35.8594 107.956 35.4344C107.515 35.1988 107.09 35.0024 107.01 34.998C106.931 34.9936 106.599 34.8418 106.273 34.6607C105.947 34.4795 105.588 34.2989 105.475 34.2594C105.362 34.2198 104.821 34.3607 104.272 34.5723ZM99.1784 36.4132C98.9114 36.5116 98.6603 36.6231 98.6205 36.6611C98.5807 36.6992 98.3127 36.801 98.0247 36.8874C97.7369 36.9738 97.499 37.0876 97.4962 37.1403C97.4934 37.1929 97.7177 37.3322 97.9945 37.4495C98.2715 37.567 98.5746 37.7274 98.6684 37.806C98.7621 37.8847 99.0626 38.0433 99.3361 38.1583C99.6095 38.2734 99.8626 38.399 99.8983 38.4374C99.934 38.4759 100.234 38.6377 100.566 38.7968C100.897 38.956 101.197 39.1166 101.233 39.1537C101.269 39.1908 101.69 39.4042 102.169 39.6279C102.648 39.8516 103.069 40.0649 103.105 40.1021C103.14 40.1392 103.561 40.3526 104.04 40.5762C104.519 40.7999 104.988 41.0454 105.082 41.1219C105.176 41.1984 105.476 41.3552 105.75 41.4702C106.023 41.5853 106.276 41.711 106.312 41.7493C106.347 41.7878 106.648 41.9496 106.979 42.1087C107.31 42.2679 107.611 42.4255 107.647 42.4592C107.683 42.4928 109.246 43.31 111.12 44.2751C112.994 45.2404 114.994 46.2877 115.565 46.6025C116.136 46.9173 116.635 47.1766 116.674 47.1787C116.712 47.1808 117.072 47.367 117.473 47.5926C117.875 47.8181 118.232 48.0042 118.267 48.0061C118.302 48.008 118.948 48.3349 119.701 48.7324C121.028 49.4321 121.629 49.7425 122.157 50.0008C122.295 50.0688 122.86 50.3584 123.411 50.6444C123.962 50.9304 124.684 51.2984 125.015 51.4622C125.346 51.6259 126.268 52.0883 127.064 52.4897C127.86 52.891 128.535 53.2207 128.563 53.2222C128.591 53.2237 128.88 53.3823 129.206 53.5747C129.531 53.767 129.845 53.927 129.904 53.9301C129.962 53.9332 130.104 54.0082 130.218 54.0967C130.333 54.1852 130.758 54.4126 131.163 54.6021C131.568 54.7917 132.14 55.078 132.433 55.2384C132.727 55.3988 133.148 55.6083 133.37 55.7038C133.591 55.7992 133.872 55.9484 133.993 56.0351C134.313 56.2634 134.987 56.6024 135.924 57.0061C136.375 57.2004 136.916 57.4797 137.126 57.6268C137.337 57.7739 137.69 57.9728 137.911 58.069C138.133 58.165 138.564 58.3896 138.871 58.5681C139.177 58.7467 139.473 58.8952 139.529 58.8982C139.584 58.9012 139.724 58.9746 139.838 59.0613C139.953 59.1479 140.424 59.3998 140.884 59.6209C141.345 59.8419 141.905 60.1112 142.129 60.2192C142.353 60.3272 142.758 60.548 143.029 60.7099C143.668 61.0918 144.783 61.6492 145.81 62.0997C146.259 62.2971 146.734 62.5597 146.864 62.6833C146.994 62.807 147.158 62.9114 147.229 62.9152C147.3 62.9189 147.517 63.0186 147.711 63.1367C147.905 63.2548 148.486 63.554 149.001 63.8015C149.516 64.0492 150.028 64.3126 150.137 64.3868C150.246 64.4611 150.517 64.6011 150.738 64.6979C150.96 64.7946 151.389 65.0183 151.693 65.195C151.996 65.3716 152.279 65.5179 152.321 65.5202C152.362 65.5224 152.663 65.6816 152.988 65.874C153.314 66.0663 153.616 66.2256 153.66 66.228C153.704 66.2304 154.133 66.4441 154.613 66.7031C155.092 66.962 155.512 67.1753 155.544 67.177C155.577 67.1787 155.869 67.3376 156.195 67.5299C156.52 67.7223 156.823 67.8816 156.867 67.884C156.938 67.8877 158.414 68.6441 158.955 68.9536C159.477 69.2525 159.505 69.2482 161.328 68.6018C161.616 68.4995 161.776 68.2799 161.669 68.1314C161.604 68.0404 159.425 66.8674 158.048 66.1816C157.74 66.0282 156.807 65.5495 155.976 65.1178C154.179 64.184 151.548 62.825 150.524 62.3007C148.977 61.5097 121.875 47.5169 118.656 45.8481C111.935 42.363 103.432 38.0023 102.753 37.6924C102.311 37.4905 101.834 37.2356 101.694 37.126C101.553 37.0164 101.394 36.9244 101.339 36.9215C101.285 36.9186 100.995 36.7749 100.694 36.6021C100.019 36.2145 99.7945 36.1865 99.1784 36.4132ZM154.762 60.7322C154.126 60.9638 153.604 61.188 153.602 61.2305C153.6 61.273 153.824 61.4193 154.1 61.5556C154.376 61.6918 154.818 61.9104 155.083 62.0411C155.348 62.1719 156.009 62.515 156.553 62.8036C157.513 63.3135 158.785 63.9667 160.014 64.5798C160.345 64.745 161.126 65.1543 161.75 65.4893C162.374 65.8244 163.383 66.318 163.992 66.5864L165.1 67.0745L166.15 66.676C166.728 66.4568 167.202 66.2458 167.204 66.2071C167.211 66.0809 166.767 65.8 165.611 65.1991C164.986 64.8745 163.797 64.2558 162.967 63.8242C162.138 63.3926 161.426 63.0376 161.384 63.0354C161.342 63.0331 161.156 62.9277 160.971 62.8012C160.785 62.6747 160.524 62.5653 160.39 62.5581C160.256 62.5509 160.128 62.5031 160.105 62.452C160.07 62.3726 158.311 61.3866 158.193 61.3803C158.171 61.3791 157.714 61.1399 157.178 60.8488C156.642 60.5578 156.14 60.3177 156.061 60.3154C155.982 60.3131 155.397 60.5007 154.762 60.7322Z" fill="#381E54"/>
<path fill-rule="evenodd" clip-rule="evenodd" d="M181.566 70.6663C180.348 71.118 180.275 71.1708 180.566 71.3914C180.695 71.4887 183.146 72.7739 186.012 74.2473C188.878 75.7208 191.314 76.9739 191.424 77.0322C191.975 77.3236 203.58 83.3189 203.984 83.5205C204.241 83.6492 205.413 84.257 206.589 84.8712C207.764 85.4855 208.997 86.1232 209.328 86.2885C210.058 86.6531 210.188 86.7202 213.508 88.4411C214.961 89.1947 216.404 89.9389 216.714 90.0951C217.025 90.2512 220.285 91.9362 223.959 93.8395C227.633 95.7428 230.701 97.3044 230.777 97.3097C230.853 97.315 231.435 97.1204 232.07 96.877C233.172 96.4551 233.473 96.2544 233.037 96.2311C232.927 96.2252 232.309 95.9484 231.663 95.6157C231.016 95.2832 230.3 94.9152 230.071 94.7981C229.842 94.681 229.249 94.3683 228.755 94.1032C228.261 93.8381 227.833 93.62 227.805 93.6185C227.777 93.617 227.136 93.2895 226.382 92.8906C225.627 92.4917 224.739 92.0316 224.408 91.8682C223.817 91.5763 223.206 91.2603 220.133 89.6552C219.288 89.2139 218.274 88.6944 217.879 88.5004C217.485 88.3065 216.684 87.8891 216.099 87.5729C215.515 87.2566 215.012 86.9965 214.982 86.9949C214.951 86.9933 214.309 86.6654 213.555 86.2662C212.8 85.8669 211.852 85.3794 211.447 85.1829C211.042 84.9863 210.552 84.7289 210.358 84.6108C210.164 84.4926 209.962 84.3938 209.91 84.391C209.858 84.3882 209.654 84.2858 209.458 84.1633C209.261 84.0409 208.741 83.7667 208.302 83.5538C207.863 83.341 207.114 82.9567 206.637 82.7C206.16 82.4432 205.438 82.0712 205.033 81.8733C204.629 81.6755 204.139 81.417 203.944 81.2989C203.75 81.1807 203.549 81.0818 203.497 81.0791C203.445 81.0763 203.241 80.9739 203.044 80.8514C202.847 80.729 202.327 80.4547 201.888 80.2419C201.45 80.0291 200.7 79.6448 200.223 79.388C199.746 79.1313 199.025 78.7596 198.62 78.5624C198.215 78.365 197.824 78.1646 197.751 78.117C197.678 78.0693 197.408 77.9248 197.15 77.7957C196.893 77.6665 196.141 77.2811 195.48 76.9392C194.819 76.5973 194.067 76.2113 193.809 76.0816C193.552 75.9519 193.183 75.7474 192.989 75.6272C192.795 75.507 192.598 75.4066 192.552 75.4042C192.506 75.4017 192.072 75.1877 191.589 74.9285C191.106 74.6694 190.655 74.4544 190.587 74.4508C190.52 74.4472 190.467 74.3967 190.47 74.3385C190.473 74.2804 190.411 74.2293 190.332 74.2251C190.254 74.2209 188.944 73.5722 187.423 72.7834C185.902 71.9947 184.447 71.2432 184.189 71.1136C183.932 70.9839 183.572 70.7863 183.389 70.6743C182.775 70.2983 182.561 70.2974 181.566 70.6663ZM176.046 72.7583C175.497 72.97 175.037 73.1903 175.024 73.2479C175.011 73.3056 175.371 73.5506 175.824 73.7925C176.277 74.0343 176.743 74.3038 176.859 74.3914C177.046 74.5324 180.882 76.5288 187.158 79.7515C188.297 80.3364 190.101 81.2679 191.167 81.8213C192.232 82.3748 193.675 83.1206 194.373 83.4787C195.072 83.8368 197.054 84.8602 198.778 85.7528C200.503 86.6456 202.157 87.4975 202.453 87.6461C202.75 87.7946 203.724 88.2958 204.618 88.7597C205.513 89.2236 206.306 89.6064 206.381 89.6105C206.456 89.6144 206.535 89.6569 206.558 89.7046C206.581 89.7525 209.988 91.5395 214.131 93.6756L221.662 97.5598L222.17 97.3866C223.378 96.9756 224.15 96.6719 224.153 96.6066C224.155 96.568 223.631 96.2684 222.988 95.9407C222.344 95.6132 218.06 93.4032 213.467 91.0298C208.874 88.6563 204.846 86.5786 204.515 86.4126C204.184 86.2467 203.084 85.6791 202.07 85.1512C201.056 84.6235 200.142 84.1871 200.039 84.1816C199.936 84.176 199.834 84.1254 199.812 84.0691C199.78 83.9876 194.467 81.1895 191.653 79.7724C191.341 79.6154 189.162 78.4904 186.811 77.2728C184.459 76.055 182.295 74.9383 182.001 74.7912C180.97 74.2754 180.523 74.0454 179.729 73.6205C179.288 73.3849 178.863 73.1884 178.784 73.1841C178.704 73.1796 178.373 73.0279 178.047 72.8467C177.721 72.6656 177.361 72.485 177.249 72.4454C177.136 72.4059 176.594 72.5467 176.046 72.7583ZM170.952 74.5993C170.685 74.6976 170.434 74.8091 170.394 74.8472C170.354 74.8853 170.086 74.987 169.798 75.0735C169.51 75.1599 169.272 75.2737 169.27 75.3263C169.267 75.379 169.491 75.5182 169.768 75.6356C170.045 75.753 170.348 75.9134 170.442 75.992C170.536 76.0707 170.836 76.2293 171.11 76.3443C171.383 76.4595 171.636 76.5851 171.672 76.6235C171.707 76.662 172.008 76.8237 172.339 76.9829C172.67 77.1421 172.971 77.3026 173.006 77.3398C173.042 77.3769 173.463 77.5903 173.942 77.8139C174.421 78.0376 174.842 78.251 174.878 78.2881C174.914 78.3252 175.335 78.5386 175.814 78.7623C176.293 78.986 176.761 79.2315 176.855 79.308C176.949 79.3844 177.249 79.5412 177.523 79.6563C177.796 79.7714 178.049 79.897 178.085 79.9354C178.121 79.9739 178.421 80.1356 178.752 80.2948C179.084 80.454 179.384 80.6116 179.42 80.6452C179.456 80.6788 181.019 81.4961 182.893 82.4612C184.767 83.4264 186.768 84.4737 187.338 84.7885C187.909 85.1033 188.408 85.3627 188.447 85.3647C188.486 85.3668 188.846 85.5531 189.247 85.7786C189.648 86.0042 190.005 86.1903 190.04 86.1922C190.076 86.1941 190.721 86.5209 191.475 86.9184C192.801 87.6182 193.402 87.9285 193.93 88.1868C194.069 88.2548 194.633 88.5445 195.184 88.8304C195.736 89.1165 196.457 89.4844 196.788 89.6483C197.119 89.812 198.042 90.2744 198.838 90.6758C199.634 91.0771 200.308 91.4067 200.336 91.4082C200.364 91.4097 200.654 91.5684 200.979 91.7607C201.305 91.9531 201.619 92.113 201.677 92.1161C201.736 92.1193 201.877 92.1943 201.991 92.2828C202.106 92.3713 202.531 92.5987 202.936 92.7882C203.342 92.9777 203.913 93.264 204.207 93.4245C204.5 93.5849 204.922 93.7944 205.143 93.8899C205.365 93.9853 205.645 94.1344 205.767 94.2212C206.086 94.4495 206.76 94.7885 207.697 95.1922C208.148 95.3865 208.689 95.6658 208.9 95.8128C209.11 95.9599 209.463 96.1589 209.685 96.255C209.906 96.351 210.338 96.5757 210.644 96.7542C210.95 96.9328 211.246 97.0813 211.302 97.0843C211.358 97.0872 211.497 97.1606 211.612 97.2474C211.727 97.334 212.197 97.5858 212.658 97.8069C213.118 98.0279 213.678 98.2972 213.902 98.4053C214.126 98.5133 214.531 98.7341 214.802 98.896C215.441 99.2778 216.557 99.8352 217.583 100.286C218.033 100.483 218.507 100.746 218.637 100.869C218.768 100.993 218.932 101.097 219.003 101.101C219.074 101.105 219.29 101.205 219.485 101.323C219.679 101.441 220.259 101.74 220.775 101.988C221.29 102.235 221.801 102.499 221.91 102.573C222.02 102.647 222.29 102.787 222.512 102.884C222.733 102.981 223.162 103.204 223.466 103.381C223.77 103.558 224.052 103.704 224.094 103.706C224.136 103.708 224.436 103.868 224.762 104.06C225.087 104.252 225.389 104.412 225.434 104.414C225.478 104.416 225.907 104.63 226.386 104.889C226.866 105.148 227.285 105.361 227.317 105.363C227.35 105.365 227.643 105.524 227.968 105.716C228.294 105.908 228.596 106.068 228.64 106.07C228.711 106.074 230.187 106.83 230.728 107.14C231.25 107.439 231.279 107.434 233.101 106.788C233.39 106.686 233.549 106.466 233.443 106.317C233.378 106.226 231.199 105.053 229.821 104.368C229.513 104.214 228.581 103.736 227.75 103.304C225.952 102.37 223.322 101.011 222.297 100.487C220.751 99.6957 193.648 85.7029 190.43 84.0342C183.709 80.5491 175.206 76.1883 174.527 75.8784C174.084 75.6765 173.608 75.4217 173.467 75.3121C173.327 75.2024 173.167 75.1105 173.113 75.1076C173.058 75.1046 172.768 74.9609 172.467 74.7881C171.793 74.4005 171.568 74.3725 170.952 74.5993ZM226.535 98.9183C225.9 99.1498 225.378 99.374 225.376 99.4165C225.373 99.459 225.597 99.6053 225.873 99.7416C226.149 99.8779 226.592 100.096 226.856 100.227C227.121 100.358 227.783 100.701 228.326 100.99C229.286 101.5 230.559 102.153 231.787 102.766C232.118 102.931 232.899 103.34 233.523 103.675C234.147 104.01 235.156 104.504 235.766 104.772L236.873 105.261L237.924 104.862C238.501 104.643 238.976 104.432 238.978 104.393C238.984 104.267 238.54 103.986 237.384 103.385C236.759 103.061 235.57 102.442 234.741 102.01C233.912 101.579 233.199 101.224 233.157 101.221C233.115 101.219 232.929 101.114 232.744 100.987C232.559 100.861 232.297 100.751 232.163 100.744C232.029 100.737 231.901 100.689 231.878 100.638C231.844 100.559 230.085 99.5727 229.967 99.5663C229.944 99.5651 229.487 99.326 228.951 99.0349C228.416 98.7438 227.913 98.5038 227.834 98.5015C227.755 98.4992 227.171 98.6867 226.535 98.9183Z" fill="#381E54"/>
<path fill-rule="evenodd" clip-rule="evenodd" d="M85.9409 45.8115C84.7227 46.2632 84.6499 46.3161 84.9413 46.5366C85.0701 46.6339 87.5207 47.9192 90.387 49.3926C93.2534 50.866 95.6888 52.1191 95.7989 52.1774C96.3501 52.4689 107.955 58.4641 108.359 58.6657C108.616 58.7944 109.788 59.4022 110.964 60.0165C112.139 60.6307 113.372 61.2684 113.703 61.4337C114.433 61.7983 114.563 61.8654 117.883 63.5863C119.336 64.3399 120.779 65.0841 121.089 65.2403C121.4 65.3964 124.66 67.0814 128.334 68.9847C132.008 70.888 135.076 72.4496 135.152 72.4549C135.228 72.4602 135.809 72.2656 136.445 72.0223C137.547 71.6004 137.848 71.3996 137.412 71.3763C137.302 71.3704 136.684 71.0936 136.038 70.761C135.391 70.4284 134.675 70.0605 134.446 69.9433C134.216 69.8262 133.624 69.5135 133.13 69.2485C132.636 68.9833 132.208 68.7652 132.18 68.7637C132.152 68.7622 131.511 68.4347 130.757 68.0359C130.002 67.6369 129.114 67.1768 128.783 67.0134C128.192 66.7215 127.581 66.4055 124.507 64.8004C123.663 64.3592 122.649 63.8396 122.254 63.6456C121.86 63.4517 121.059 63.0344 120.474 62.7181C119.89 62.4018 119.387 62.1418 119.357 62.1401C119.326 62.1385 118.684 61.8106 117.93 61.4114C117.175 61.0121 116.227 60.5246 115.822 60.3281C115.417 60.1315 114.927 59.8741 114.733 59.756C114.539 59.6379 114.337 59.539 114.285 59.5362C114.233 59.5334 114.029 59.431 113.832 59.3085C113.636 59.1861 113.116 58.9119 112.677 58.699C112.238 58.4862 111.489 58.1019 111.012 57.8452C110.535 57.5884 109.813 57.2164 109.408 57.0186C109.004 56.8207 108.514 56.5622 108.319 56.4441C108.125 56.326 107.924 56.2271 107.872 56.2243C107.82 56.2215 107.616 56.1191 107.419 55.9966C107.222 55.8742 106.702 55.6 106.263 55.3871C105.825 55.1743 105.075 54.79 104.598 54.5333C104.121 54.2765 103.4 53.9048 102.995 53.7076C102.59 53.5103 102.199 53.3098 102.126 53.2623C102.053 53.2146 101.783 53.07 101.525 52.9409C101.268 52.8117 100.516 52.4263 99.8549 52.0844C99.1935 51.7425 98.4418 51.3565 98.1845 51.2268C97.9271 51.0971 97.5578 50.8926 97.3638 50.7724C97.1698 50.6522 96.9732 50.5518 96.927 50.5494C96.8807 50.5469 96.4474 50.3329 95.9641 50.0738C95.4807 49.8146 95.03 49.5997 94.9623 49.5961C94.8947 49.5924 94.8419 49.5419 94.8451 49.4837C94.8482 49.4256 94.7863 49.3746 94.7074 49.3703C94.6287 49.3661 93.3194 48.7174 91.7981 47.9286C90.2769 47.1399 88.8216 46.3884 88.5642 46.2588C88.3069 46.1291 87.9467 45.9315 87.7639 45.8195C87.1498 45.4435 86.9355 45.4426 85.9409 45.8115ZM80.4206 47.9036C79.8719 48.1153 79.4123 48.3355 79.3991 48.3932C79.3859 48.4508 79.7459 48.6958 80.1991 48.9377C80.6522 49.1795 81.1179 49.449 81.2339 49.5366C81.4208 49.6776 85.257 51.674 91.5332 54.8967C92.6725 55.4816 94.4763 56.4131 95.5417 56.9665C96.6071 57.52 98.0501 58.2658 98.7483 58.6239C99.4466 58.982 101.429 60.0054 103.153 60.898C104.878 61.7908 106.532 62.6427 106.828 62.7913C107.125 62.9398 108.099 63.441 108.993 63.9049C109.888 64.3688 110.681 64.7517 110.756 64.7557C110.831 64.7597 110.91 64.8021 110.933 64.8499C110.956 64.8977 114.363 66.6847 118.506 68.8208L126.037 72.705L126.545 72.5318C127.753 72.1208 128.525 71.8171 128.528 71.7519C128.53 71.7133 128.006 71.4137 127.363 71.086C126.719 70.7584 122.435 68.5485 117.842 66.175C113.249 63.8015 109.221 61.7238 108.89 61.5578C108.559 61.3919 107.459 60.8243 106.445 60.2965C105.431 59.7687 104.517 59.3323 104.414 59.3268C104.311 59.3213 104.209 59.2706 104.187 59.2143C104.155 59.1328 98.8417 56.3348 96.0284 54.9176C95.7163 54.7606 93.5372 53.6357 91.1858 52.418C88.8343 51.2002 86.6697 50.0835 86.3755 49.9364C85.3446 49.4206 84.8983 49.1906 84.104 48.7657C83.6635 48.5301 83.2382 48.3337 83.1588 48.3293C83.0794 48.3248 82.7476 48.1731 82.4216 47.9919C82.0956 47.8108 81.7365 47.6302 81.6235 47.5906C81.5106 47.5511 80.9694 47.692 80.4206 47.9036ZM75.3268 49.7445C75.0598 49.8429 74.8087 49.9544 74.7689 49.9924C74.7291 50.0305 74.4611 50.1323 74.1732 50.2187C73.8854 50.3051 73.6474 50.4189 73.6446 50.4715C73.6418 50.5242 73.8661 50.6634 74.143 50.7808C74.4199 50.8982 74.723 51.0586 74.8169 51.1372C74.9106 51.216 75.211 51.3745 75.4845 51.4896C75.7579 51.6047 76.011 51.7303 76.0467 51.7687C76.0824 51.8072 76.3827 51.9689 76.714 52.1281C77.0453 52.2873 77.3457 52.4479 77.3814 52.485C77.4172 52.5221 77.8383 52.7355 78.3172 52.9592C78.7961 53.1828 79.2172 53.3962 79.253 53.4333C79.2888 53.4704 79.7099 53.6838 80.1888 53.9075C80.6677 54.1312 81.1362 54.3767 81.2301 54.4532C81.3239 54.5297 81.6245 54.6864 81.898 54.8015C82.1714 54.9166 82.4245 55.0422 82.4602 55.0806C82.4959 55.1191 82.7962 55.2809 83.1275 55.44C83.4588 55.5992 83.7593 55.7568 83.7953 55.7904C83.8312 55.8241 85.394 56.6413 87.2681 57.6064C89.1421 58.5717 91.1425 59.6189 91.7135 59.9337C92.2844 60.2486 92.7833 60.5079 92.822 60.5099C92.8608 60.512 93.2207 60.6983 93.6218 60.9238C94.023 61.1494 94.3801 61.3355 94.4154 61.3374C94.4507 61.3393 95.0962 61.6661 95.8498 62.0637C97.1764 62.7634 97.7771 63.0737 98.305 63.3321C98.4439 63.4 99.0083 63.6897 99.5594 63.9756C100.11 64.2617 100.832 64.6297 101.163 64.7935C101.494 64.9572 102.417 65.4196 103.213 65.821C104.009 66.2223 104.683 66.5519 104.711 66.5534C104.739 66.555 105.029 66.7136 105.354 66.9059C105.68 67.0983 105.994 67.2582 106.052 67.2613C106.111 67.2645 106.252 67.3395 106.366 67.428C106.481 67.5165 106.906 67.7439 107.311 67.9334C107.717 68.1229 108.288 68.4092 108.582 68.5697C108.875 68.7301 109.297 68.9396 109.518 69.0351C109.739 69.1305 110.02 69.2796 110.142 69.3664C110.461 69.5947 111.135 69.9337 112.072 70.3374C112.523 70.5317 113.064 70.811 113.275 70.9581C113.485 71.1051 113.838 71.3041 114.06 71.4002C114.281 71.4963 114.713 71.7209 115.019 71.8994C115.325 72.078 115.621 72.2265 115.677 72.2295C115.733 72.2325 115.872 72.3059 115.987 72.3926C116.102 72.4792 116.572 72.731 117.033 72.9522C117.493 73.1732 118.053 73.4424 118.277 73.5505C118.501 73.6585 118.906 73.8793 119.177 74.0412C119.816 74.4231 120.932 74.9804 121.958 75.4309C122.408 75.6283 122.882 75.891 123.012 76.0146C123.142 76.1383 123.307 76.2426 123.378 76.2464C123.449 76.2502 123.665 76.3499 123.86 76.4679C124.054 76.586 124.634 76.8852 125.15 77.1328C125.665 77.3805 126.176 77.6439 126.285 77.7181C126.395 77.7923 126.665 77.9323 126.887 78.0291C127.108 78.1259 127.537 78.3496 127.841 78.5262C128.145 78.7029 128.427 78.8492 128.469 78.8514C128.511 78.8537 128.811 79.0129 129.137 79.2052C129.462 79.3976 129.764 79.5569 129.809 79.5593C129.853 79.5616 130.282 79.7754 130.761 80.0343C131.241 80.2933 131.66 80.5065 131.692 80.5083C131.725 80.51 132.018 80.6688 132.343 80.8612C132.669 81.0535 132.971 81.2128 133.015 81.2152C133.086 81.219 134.562 81.9754 135.103 82.2849C135.625 82.5837 135.654 82.5795 137.476 81.933C137.765 81.8307 137.924 81.6112 137.818 81.4626C137.753 81.3717 135.574 80.1986 134.196 79.5128C133.888 79.3595 132.956 78.8807 132.125 78.449C130.327 77.5153 127.697 76.1563 126.672 75.6319C125.126 74.841 98.0231 60.8481 94.8049 59.1794C88.0839 55.6943 79.5808 51.3335 78.9018 51.0237C78.4595 50.8218 77.9827 50.5669 77.8421 50.4573C77.7016 50.3476 77.5421 50.2557 77.4878 50.2528C77.4334 50.2499 77.143 50.1061 76.8424 49.9333C76.1678 49.5458 75.943 49.5177 75.3268 49.7445ZM130.91 74.0635C130.275 74.2951 129.753 74.5192 129.751 74.5617C129.748 74.6042 129.972 74.7505 130.248 74.8868C130.524 75.0231 130.967 75.2416 131.231 75.3723C131.496 75.5031 132.158 75.8462 132.701 76.1348C133.661 76.6448 134.934 77.2979 136.162 77.9111C136.493 78.0763 137.274 78.4856 137.898 78.8206C138.522 79.1556 139.531 79.6493 140.141 79.9177L141.248 80.4057L142.299 80.0073C142.876 79.7881 143.351 79.5771 143.353 79.5384C143.359 79.4121 142.915 79.1312 141.759 78.5303C141.134 78.2058 139.945 77.5871 139.116 77.1555C138.287 76.7238 137.574 76.3689 137.532 76.3666C137.49 76.3644 137.304 76.259 137.119 76.1325C136.934 76.0059 136.672 75.8965 136.538 75.8893C136.404 75.8822 136.276 75.8344 136.253 75.7832C136.219 75.7039 134.46 74.7179 134.342 74.7116C134.319 74.7103 133.862 74.4712 133.326 74.1801C132.791 73.889 132.288 73.649 132.209 73.6467C132.13 73.6444 131.546 73.8319 130.91 74.0635Z" fill="#381E54"/>
<path fill-rule="evenodd" clip-rule="evenodd" d="M157.714 83.9976C156.496 84.4493 156.423 84.5021 156.715 84.7227C156.844 84.82 159.294 86.1052 162.16 87.5786C165.027 89.052 167.462 90.3052 167.572 90.3635C168.124 90.6549 179.729 96.6502 180.132 96.8518C180.389 96.9805 181.562 97.5883 182.737 98.2025C183.913 98.8168 185.145 99.4545 185.476 99.6198C186.207 99.9844 186.337 100.051 189.656 101.772C191.109 102.526 192.553 103.27 192.863 103.426C193.173 103.582 196.433 105.267 200.107 107.171C203.781 109.074 206.849 110.636 206.925 110.641C207.001 110.646 207.583 110.452 208.219 110.208C209.321 109.786 209.621 109.586 209.185 109.562C209.076 109.557 208.457 109.28 207.811 108.947C207.164 108.615 206.448 108.247 206.219 108.129C205.99 108.012 205.398 107.7 204.903 107.435C204.409 107.169 203.981 106.951 203.953 106.95C203.925 106.948 203.285 106.621 202.53 106.222C201.776 105.823 200.887 105.363 200.556 105.2C199.965 104.908 199.355 104.592 196.281 102.986C195.436 102.545 194.422 102.026 194.028 101.832C193.633 101.638 192.832 101.22 192.248 100.904C191.663 100.588 191.161 100.328 191.13 100.326C191.1 100.325 190.458 99.9966 189.703 99.5975C188.949 99.1982 188 98.7107 187.595 98.5142C187.19 98.3176 186.7 98.0602 186.506 97.9421C186.312 97.8239 186.111 97.725 186.059 97.7223C186.007 97.7195 185.803 97.6171 185.606 97.4946C185.409 97.3722 184.889 97.098 184.45 96.8851C184.012 96.6723 183.262 96.288 182.785 96.0313C182.308 95.7745 181.586 95.4025 181.182 95.2046C180.777 95.0068 180.287 94.7483 180.093 94.6301C179.899 94.512 179.697 94.4131 179.645 94.4104C179.593 94.4076 179.389 94.3052 179.192 94.1827C178.996 94.0603 178.476 93.786 178.037 93.5732C177.598 93.3604 176.849 92.9761 176.372 92.7193C175.895 92.4626 175.173 92.0909 174.768 91.8937C174.363 91.6963 173.972 91.4959 173.9 91.4483C173.827 91.4006 173.556 91.2561 173.299 91.127C173.041 90.9978 172.29 90.6124 171.628 90.2705C170.967 89.9286 170.215 89.5426 169.958 89.4129C169.701 89.2832 169.331 89.0787 169.137 88.9585C168.943 88.8383 168.747 88.7379 168.7 88.7355C168.654 88.733 168.221 88.519 167.738 88.2598C167.254 88.0007 166.803 87.7857 166.736 87.7821C166.668 87.7785 166.615 87.728 166.619 87.6698C166.622 87.6117 166.56 87.5606 166.481 87.5564C166.402 87.5522 165.093 86.9035 163.572 86.1147C162.05 85.326 160.595 84.5745 160.338 84.4448C160.08 84.3152 159.72 84.1176 159.537 84.0056C158.923 83.6296 158.709 83.6287 157.714 83.9976ZM152.194 86.0896C151.645 86.3013 151.186 86.5216 151.172 86.5792C151.159 86.6368 151.519 86.8819 151.973 87.1238C152.426 87.3656 152.891 87.6351 153.007 87.7226C153.194 87.8637 157.03 89.8601 163.307 93.0828C164.446 93.6677 166.25 94.5992 167.315 95.1526C168.381 95.706 169.824 96.4519 170.522 96.81C171.22 97.1681 173.202 98.1915 174.927 99.0841C176.651 99.9769 178.305 100.829 178.601 100.977C178.898 101.126 179.872 101.627 180.767 102.091C181.661 102.555 182.454 102.938 182.529 102.942C182.604 102.946 182.684 102.988 182.706 103.036C182.729 103.084 186.137 104.871 190.279 107.007L197.81 110.891L198.319 110.718C199.526 110.307 200.298 110.003 200.302 109.938C200.304 109.899 199.779 109.6 199.136 109.272C198.493 108.944 194.209 106.735 189.616 104.361C185.023 101.988 180.994 99.9099 180.663 99.7439C180.332 99.578 179.232 99.0104 178.218 98.4825C177.205 97.9548 176.291 97.5184 176.188 97.5129C176.085 97.5073 175.982 97.4567 175.96 97.4004C175.928 97.3189 170.615 94.5208 167.802 93.1037C167.49 92.9466 165.311 91.8217 162.959 90.6041C160.608 89.3863 158.443 88.2696 158.149 88.1224C157.118 87.6067 156.672 87.3767 155.877 86.9518C155.437 86.7161 155.012 86.5197 154.932 86.5154C154.853 86.5109 154.521 86.3592 154.195 86.178C153.869 85.9969 153.51 85.8163 153.397 85.7767C153.284 85.7372 152.743 85.878 152.194 86.0896ZM147.1 87.9306C146.833 88.0289 146.582 88.1404 146.542 88.1785C146.503 88.2166 146.235 88.3183 145.947 88.4047C145.659 88.4912 145.421 88.605 145.418 88.6576C145.415 88.7103 145.64 88.8495 145.916 88.9669C146.193 89.0843 146.496 89.2447 146.59 89.3233C146.684 89.402 146.984 89.5606 147.258 89.6756C147.531 89.7908 147.784 89.9164 147.82 89.9548C147.856 89.9933 148.156 90.155 148.487 90.3142C148.819 90.4733 149.119 90.6339 149.155 90.6711C149.191 90.7082 149.612 90.9216 150.091 91.1452C150.57 91.3689 150.991 91.5823 151.026 91.6194C151.062 91.6565 151.483 91.8699 151.962 92.0936C152.441 92.3173 152.91 92.5628 153.004 92.6393C153.097 92.7157 153.398 92.8725 153.671 92.9876C153.945 93.1027 154.198 93.2283 154.234 93.2667C154.269 93.3052 154.57 93.4669 154.901 93.6261C155.232 93.7853 155.533 93.9429 155.569 93.9765C155.605 94.0101 157.167 94.8274 159.042 95.7925C160.916 96.7577 162.916 97.805 163.487 98.1198C164.058 98.4346 164.557 98.694 164.595 98.696C164.634 98.6981 164.994 98.8843 165.395 99.1099C165.796 99.3355 166.154 99.5216 166.189 99.5235C166.224 99.5254 166.87 99.8522 167.623 100.25C168.95 100.949 169.551 101.26 170.078 101.518C170.217 101.586 170.782 101.876 171.333 102.162C171.884 102.448 172.606 102.816 172.937 102.98C173.268 103.143 174.19 103.606 174.986 104.007C175.782 104.408 176.456 104.738 176.485 104.74C176.513 104.741 176.802 104.9 177.128 105.092C177.453 105.284 177.767 105.444 177.825 105.447C177.884 105.451 178.025 105.526 178.14 105.614C178.254 105.703 178.68 105.93 179.085 106.119C179.49 106.309 180.062 106.595 180.355 106.756C180.649 106.916 181.07 107.126 181.291 107.221C181.513 107.317 181.794 107.466 181.915 107.552C182.235 107.781 182.909 108.12 183.846 108.523C184.297 108.718 184.838 108.997 185.048 109.144C185.259 109.291 185.612 109.49 185.833 109.586C186.055 109.682 186.486 109.907 186.792 110.085C187.099 110.264 187.395 110.413 187.45 110.416C187.506 110.419 187.646 110.492 187.76 110.579C187.875 110.665 188.346 110.917 188.806 111.138C189.267 111.359 189.827 111.629 190.051 111.737C190.275 111.845 190.68 112.065 190.95 112.227C191.59 112.609 192.705 113.167 193.732 113.617C194.181 113.814 194.656 114.077 194.786 114.201C194.916 114.324 195.08 114.429 195.151 114.433C195.222 114.436 195.439 114.536 195.633 114.654C195.827 114.772 196.408 115.071 196.923 115.319C197.438 115.567 197.949 115.83 198.059 115.904C198.168 115.978 198.439 116.118 198.66 116.215C198.881 116.312 199.311 116.536 199.614 116.712C199.918 116.889 200.201 117.035 200.242 117.038C200.284 117.04 200.585 117.199 200.91 117.391C201.235 117.584 201.538 117.743 201.582 117.745C201.626 117.748 202.055 117.961 202.535 118.22C203.014 118.479 203.433 118.693 203.466 118.694C203.498 118.696 203.791 118.855 204.117 119.047C204.442 119.24 204.745 119.399 204.789 119.401C204.86 119.405 206.336 120.161 206.877 120.471C207.399 120.77 207.427 120.766 209.25 120.119C209.538 120.017 209.698 119.797 209.591 119.649C209.526 119.558 207.347 118.385 205.97 117.699C205.661 117.546 204.729 117.067 203.898 116.635C202.101 115.701 199.47 114.342 198.445 113.818C196.899 113.027 169.797 99.0342 166.578 97.3655C159.857 93.8804 151.354 89.5196 150.675 89.2097C150.233 89.0078 149.756 88.753 149.615 88.6433C149.475 88.5337 149.316 88.4417 149.261 88.4388C149.207 88.4359 148.916 88.2922 148.616 88.1194C147.941 87.7318 147.716 87.7038 147.1 87.9306ZM202.684 112.25C202.048 112.481 201.526 112.705 201.524 112.748C201.522 112.79 201.746 112.937 202.022 113.073C202.298 113.209 202.74 113.428 203.005 113.558C203.27 113.689 203.931 114.032 204.474 114.321C205.435 114.831 206.707 115.484 207.936 116.097C208.267 116.262 209.048 116.672 209.672 117.007C210.296 117.342 211.305 117.835 211.914 118.104L213.022 118.592L214.072 118.193C214.65 117.974 215.124 117.763 215.126 117.724C215.133 117.598 214.689 117.317 213.532 116.716C212.908 116.392 211.719 115.773 210.889 115.342C210.06 114.91 209.348 114.555 209.306 114.553C209.264 114.55 209.078 114.445 208.892 114.319C208.707 114.192 208.446 114.083 208.312 114.075C208.177 114.068 208.049 114.02 208.027 113.969C207.992 113.89 206.233 112.904 206.115 112.898C206.092 112.896 205.635 112.657 205.1 112.366C204.564 112.075 204.061 111.835 203.983 111.833C203.904 111.83 203.319 112.018 202.684 112.25Z" fill="#381E54"/>
</svg>
