<svg width="40" height="40" viewBox="0 0 40 40" fill="none" xmlns="http://www.w3.org/2000/svg">
<path d="M37.7894 11.6036H35.5689V9.66965C35.5689 8.60205 34.5742 7.73572 33.3483 7.73572H31.1278V5.80177C31.1278 4.73417 30.1331 3.86785 28.9073 3.86785H26.6767V1.93392C26.6767 0.866324 25.6819 0 24.4561 0H7.28459C6.69177 0 6.1291 0.201264 5.71715 0.568798L0.653101 4.97919C0.231097 5.34673 0 5.82805 0 6.34435V26.4625C0 27.5301 0.994723 28.3964 2.22054 28.3964H4.44109V30.3303C4.44109 31.3979 5.43581 32.2643 6.66163 32.2643H8.89222V34.1982C8.89222 35.2658 9.88694 36.1321 11.1128 36.1321H13.3333V38.0661C13.3333 39.1337 14.328 40 15.5539 40H37.7794C39.0052 40 39.9999 39.1337 39.9999 38.0661V13.5463C40.01 12.4699 39.0152 11.6036 37.7894 11.6036ZM5.92815 2.18771V4.49791C5.92815 4.85669 5.59657 5.14546 5.18462 5.14546H2.53202L5.92815 2.18771ZM1.48706 26.445V6.44059H5.19466C6.42049 6.44059 7.41521 5.57427 7.41521 4.50667V1.27761H24.4561C24.8681 1.27761 25.1996 1.56638 25.1996 1.92516V26.445C25.1996 26.8037 24.8681 27.0925 24.4561 27.0925H2.22054C1.81864 27.0925 1.48706 26.8037 1.48706 26.445ZM5.92815 30.3216V28.3876H24.4561C25.6819 28.3876 26.6767 27.5213 26.6767 26.4537V5.15422H28.8972C29.3092 5.15422 29.6407 5.44299 29.6407 5.80177V30.3216C29.6407 30.6804 29.3092 30.9691 28.8972 30.9691H6.67168C6.25972 30.9691 5.92815 30.6716 5.92815 30.3216ZM10.3692 34.1894V32.2555H28.8972C30.123 32.2555 31.1178 31.3892 31.1178 30.3216V9.0221H33.3383C33.7503 9.0221 34.0818 9.31086 34.0818 9.66965V34.1894C34.0818 34.5482 33.7503 34.837 33.3383 34.837H11.1128C10.7109 34.837 10.3692 34.5482 10.3692 34.1894ZM38.533 38.0661C38.533 38.4249 38.2014 38.7136 37.7894 38.7136H15.5639C15.1519 38.7136 14.8204 38.4249 14.8204 38.0661V36.1321H33.3483C34.5742 36.1321 35.5689 35.2658 35.5689 34.1982V12.8987H37.7894C38.2014 12.8987 38.533 13.1875 38.533 13.5463V38.0661Z" fill="#381E54"/>
<path d="M4.44141 21.9297H22.2258V23.2161H4.44141V21.9297Z" fill="#381E54"/>
<path d="M20.75 24.5107H22.227V25.7971H20.75V24.5107Z" fill="#381E54"/>
<path d="M4.44141 24.5107H19.2618V25.7971H4.44141V24.5107Z" fill="#381E54"/>
</svg>
