<svg width="28" height="34" viewBox="0 0 28 34" xmlns="http://www.w3.org/2000/svg" fill="none"><path fill-rule="evenodd" clip-rule="evenodd" d="M14 34s.995-3.612 8.483-8.738c3.454-2.364 5.517-6.628 5.517-11.193 0-7.77-6.268-14.069-14-14.069s-14 6.299-14 14.069c0 4.647 2.167 8.922 5.698 11.33 7.318 4.989 8.302 8.601 8.302 8.601z" fill="#EB0029"/><path fill-rule="evenodd" clip-rule="evenodd" d="M14.184 24.392c5.596 0 10.132-4.55 10.132-10.163s-4.536-10.163-10.132-10.163c-5.595 0-10.132 4.55-10.132 10.163s4.536 10.163 10.132 10.163z" stroke="#fff"/><path fill-rule="evenodd" clip-rule="evenodd" d="M12.388 8.754c.004-.274.131-1.188-.209-1.312-.316-.115-.367.328-.406.548-.155.874-.168 2.167-.166 3.064l.005 1.452c-1.232.412-2.374.787-2.863.941-.32.101-.344.409-.162.48.096.038 1.486-.407 3.025-.912-.003 1.175-.027 1.782-.126 3.733l-2.636.732c-.281.094-.398.116-.329.402l.017.038.015.028.109.118.112.065c.429.186 1.052.251 1.495.369l.305.104c.202.086.38.168.554.306l.183.13.155.143c.008.386.025.728.054.943.039.29.104.563.454.568.56.008.465-1.151.339-1.499-.071-.196-.136-.133-.162-.384-.022-.21-.013-.789.035-1.684.376-.157 1.907-.683 3.472-1.21-.009 1.153-.008 2.304-.027 3.514-.004.274-.065 1.203.438 1.263.503.06.527-1.018.486-1.237-.166-.898-.157-1.436-.159-2.333l-.005-1.452c1.232-.412 2.374-.787 2.863-.941.32-.101.344-.409.162-.48-.096-.038-1.486.407-3.025.912.003-1.175.027-1.782.126-3.732l2.638-.738c.281-.094.398-.116.33-.402-.058-.243-.747-.071-1.084.025-.522.149-1.462.456-1.89.567.009-.266.05-2.021-.02-2.94-.042-.547-.089-.565-.27-.547-.495.049-.373 3.108-.402 3.655-.376.157-1.907.683-3.472 1.209.009-1.153.024-2.296.043-3.506zm3.272 6.648c-1.571.518-3.113 1.031-3.454 1.107.088-1.72.12-2.481.134-3.734 1.571-.518 3.113-1.031 3.454-1.107-.088 1.72-.12 2.481-.134 3.734zm-6.323 2.507c-.182-.154 1.514-.448 2.155-.615-.02.357-.031.842-.032 1.322-.23-.173-.45-.286-.736-.398l-.506-.165-.88-.145z" fill="#fff"/></svg>