<svg width="30" height="30" viewBox="0 0 30 30" fill="none" xmlns="http://www.w3.org/2000/svg">
<path d="M15 29C7.26801 29 1 22.732 1 15H-1C-1 23.8366 6.16344 31 15 31V29ZM29 15C29 22.732 22.732 29 15 29V31C23.8366 31 31 23.8366 31 15H29ZM15 1C22.732 1 29 7.26801 29 15H31C31 6.16344 23.8366 -1 15 -1V1ZM15 -1C6.16344 -1 -1 6.16344 -1 15H1C1 7.26801 7.26801 1 15 1V-1Z" fill="white"/>
<path fill-rule="evenodd" clip-rule="evenodd" d="M9.75 14.8555V21.4609H11.4612H13.1724L13.1781 18.9692L13.1838 16.4774L14.9678 16.4707L16.7518 16.464V18.9583V21.4526L17.4062 21.47C17.766 21.4795 18.5286 21.4877 19.1007 21.4882L20.1409 21.4891L20.1465 14.8696L20.1522 8.25H18.452H16.7518V10.6698V13.0896H14.9287H13.1055V10.6698V8.25H11.4278H9.75V14.8555ZM12.6394 10.9837V13.6659H14.9287H17.4062V10.9837V8.85178H18.452H19.5742V14.8696V20.8872H18.452H17.4062V18.6749V15.8152H14.9678H12.6913V18.6749V20.8872H11.4613H10.3279V14.8696V11.8606V8.85178H11.4613L12.6395 8.85178L12.6394 10.9837Z" fill="white"/>
<path d="M12.6394 10.9837V13.6659H14.9287H17.4062V10.9837V8.85178H18.452H19.5742V14.8696V20.8872H18.452H17.4062V18.6749V15.8152H14.9678H12.6913V18.6749V20.8872H11.4613H10.3279V14.8696V11.8606V8.85178H11.4613L12.6395 8.85178L12.6394 10.9837Z" fill="white"/>
</svg>
