<svg width="14" height="18" viewBox="0 0 14 18" fill="none" xmlns="http://www.w3.org/2000/svg">
<path fill-rule="evenodd" clip-rule="evenodd" d="M0 9.0817V17.889H2.2816H4.5632L4.5708 14.5666L4.57841 11.2443L6.95709 11.2354L9.33578 11.2264V14.5522V17.8779L10.2082 17.901C10.688 17.9138 11.7048 17.9247 12.4676 17.9254L13.8545 17.9266L13.862 9.1005L13.8696 0.274414H11.6027H9.33578V3.50085V6.72728H6.9049H4.47401V3.50085V0.274414H2.23701H0V9.0817ZM3.85252 3.91941V7.49562H6.9049H10.2082V3.91941V1.07679H11.6027H13.0989V9.1005V17.1241H11.6027H10.2082V14.1742V10.3614H6.95709H3.92175V14.1742V17.1241H2.28175H0.770531V9.1005V5.0885V1.07679H2.28175L3.85266 1.07679L3.85252 3.91941Z" fill="white"/>
<path d="M3.85252 3.91941V7.49562H6.9049H10.2082V3.91941V1.07679H11.6027H13.0989V9.1005V17.1241H11.6027H10.2082V14.1742V10.3614H6.95709H3.92175V14.1742V17.1241H2.28175H0.770531V9.1005V5.0885V1.07679H2.28175L3.85266 1.07679L3.85252 3.91941Z" fill="white"/>
</svg>
