<svg viewBox="0 0 630 623" xmlns="http://www.w3.org/2000/svg" fill="none"><path d="M347.663 556.031l-239.778-138.633c-6.778-3.928-5.925-10.765 1.904-15.302l163.265-94.372c7.829-4.536 19.678-5.013 26.456-1.101l239.762 138.633c6.778 3.928 5.925 10.765-1.904 15.301l-163.266 94.373c-7.812 4.536-19.661 5.013-26.439 1.101z" fill="#200D38"/><path d="M619.297 150.568l-257.667-148.971c-2.987-1.726-6.04-2.005-8.732-1.068l.017-.033-.476.181-.115.049-9.306 3.566 8.354 4.092-.115.46-45.526 207.35c-2.101 9.582 2.1 20.758 9.387 24.965l251.463 145.388-.902 10.667 10.175-3.945c3.414-1.594 6.155-5.226 7.287-10.387l45.527-207.349c2.117-9.566-2.085-20.742-9.371-24.966z" fill="#9E90B2"/><path d="M619.297 150.568l-257.667-148.971c-2.987-1.726-6.04-2.005-8.731-1.068l.016-.033-.476.181-.115.049-9.305 3.566 8.353 4.092-.115.46-31.215 142.118 126.076 98.366 181.319-88.456c-1.707-4.454-4.546-8.218-8.14-10.305z" fill="#817199"/><path d="M609.581 179.988l19.612-8.366c.361-7.61-2.79-15.466-7.943-19.673l-31.052 13.082 19.383 14.957z" fill="#5A4B77"/><path d="M556.75 396.196l-257.666-148.971c-7.287-4.207-11.489-15.4-9.388-24.965l45.51-207.35c2.101-9.582 9.716-13.921 17.003-9.713l257.667 148.971c7.287 4.208 11.488 15.4 9.387 24.966l-45.526 207.35c-2.101 9.598-9.7 13.937-16.987 9.713z" fill="#A99FB7"/><path d="M612.355 153.28l-257.668-148.971c-3.528-2.038-7.122-2.038-10.142-.444 2.429-.526 5.071-.164 7.664 1.348l257.667 148.971c7.287 4.207 11.489 15.4 9.388 24.965l-45.527 207.35c-1.083 4.931-3.643 8.448-6.86 10.141 4.349-.953 7.976-4.898 9.322-11.045l45.527-207.35c2.117-9.565-2.085-20.758-9.371-24.965zm-61.201 228.699l-242.322-140.046c-6.663-3.863-10.52-14.085-8.599-22.846l41.965-191.095c1.92-8.76 8.895-12.738 15.558-8.875l242.339 140.047c6.663 3.862 10.52 14.085 8.599 22.845l-41.981 191.079c-1.92 8.76-8.879 12.737-15.559 8.891z" fill="#fff"/><path d="M551.154 381.979l-242.322-140.046c-6.663-3.863-10.52-14.085-8.599-22.846l41.965-191.095c1.92-8.76 8.895-12.738 15.558-8.875l242.339 140.047c6.663 3.862 10.52 14.085 8.599 22.845l-41.981 191.079c-1.92 8.76-8.879 12.737-15.559 8.891z" fill="#381E54"/><path d="M553.272 381.108l-242.339-140.046c-6.663-3.863-10.52-14.085-8.599-22.846l41.965-191.095c.968-4.438 3.249-7.626 6.105-9.22-3.84.986-7.008 4.602-8.222 10.075l-41.949 191.112c-1.92 8.76 1.92 18.999 8.6 22.845l242.322 140.046c3.298 1.907 6.663 1.89 9.453.329-2.298.592-4.842.247-7.336-1.2z" fill="#25153F"/><path d="M560.296 402.688l-35.22-4.651-227.354-131.451c-7.287-4.208-20.023-3.682-28.442 1.183l-161.099 93.107-21.303-2.81v12.096h.016c-.131 2.794 1.444 5.49 4.891 7.478l257.667 148.971c7.287 4.208 20.023 3.682 28.442-1.183l175.46-101.407c4.726-2.744 7.09-6.262 6.958-9.582v-11.751h-.016z" fill="#5A4B77"/><path d="M389.464 319.623l-16.149-9.335h-177.593l-87.558 50.588-21.303-2.81v12.096h.016c-.131 2.794 1.444 5.49 4.891 7.478l257.666 148.971c3.857 2.236 9.224 3.123 14.673 2.761l25.356-209.749z" fill="#9E90B2"/><path d="M96.331 359.315l-9.453-1.249v12.096h.016c-.131 2.794 1.444 5.49 4.891 7.478l4.546 2.63v-20.955z" fill="#A99FB7"/><path d="M352.045 527.828c6.909 2.629 16.789 2.054 24.158-1.496v-26.987h-24.158v28.483z" fill="#817199"/><path d="M349.452 514.531l-257.667-148.971c-7.287-4.207-6.368-11.57 2.035-16.435l175.46-101.407c8.419-4.865 21.155-5.391 28.442-1.183l257.667 148.971c7.286 4.207 6.367 11.57-2.036 16.435l-175.459 101.407c-8.42 4.865-21.155 5.391-28.442 1.183z" fill="#F8F8F8"/><path d="M553.337 407.52l-175.46 101.407c-8.419 4.865-21.155 5.391-28.441 1.183l-257.667-148.971c-2.396-1.38-3.873-3.106-4.53-4.963-1.132 3.451.312 6.952 4.53 9.384l257.667 148.971c7.286 4.208 20.022 3.682 28.441-1.183l175.46-101.407c5.662-3.271 7.911-7.659 6.581-11.472-.837 2.498-3.036 4.997-6.581 7.051z" fill="#fff"/><path d="M201.383 316.237l-11.652-6.738c-.936-.542-.821-1.479.263-2.104l13.753-7.955c1.083-.624 2.708-.69 3.66-.147l11.652 6.738c.936.542.821 1.479-.263 2.104l-13.753 7.955c-1.099.608-2.724.673-3.66.147zm18.004 10.404l-11.652-6.738c-.936-.543-.821-1.48.262-2.104l13.754-7.955c1.083-.624 2.708-.69 3.659-.148l11.653 6.739c.935.542.821 1.479-.263 2.103l-13.753 7.955c-1.099.625-2.724.69-3.66.148zm18.004 10.404l-11.652-6.739c-.936-.542-.821-1.479.262-2.104l13.754-7.954c1.083-.625 2.707-.691 3.659-.148l11.653 6.738c.935.543.82 1.48-.263 2.104l-13.753 7.955c-1.1.624-2.724.69-3.66.148zm24.897-8.596l-11.652-6.739c-.936-.542-.821-1.479.262-2.103l11.554-6.673c1.083-.625 2.708-.69 3.66-.148l11.653 6.739c.935.542.82 1.479-.263 2.103l-11.554 6.673c-1.1.625-2.724.69-3.66.148zm18.004 10.42l-11.652-6.738c-.936-.543-.821-1.48.262-2.104l11.554-6.673c1.083-.624 2.708-.69 3.66-.148l11.653 6.739c.935.542.82 1.479-.263 2.103l-11.554 6.673c-1.1.608-2.724.674-3.66.148zm18.004 10.404l-11.652-6.739c-.936-.542-.821-1.479.262-2.104l11.554-6.672c1.083-.625 2.708-.691 3.66-.148l11.652 6.738c.936.543.821 1.479-.262 2.104l-11.554 6.673c-1.083.624-2.725.69-3.66.148zm18.003 10.403l-11.652-6.738c-.936-.543-.821-1.479.263-2.104l11.554-6.673c1.083-.624 2.707-.69 3.659-.148l11.653 6.739c.935.542.82 1.479-.263 2.104l-11.554 6.672c-1.083.625-2.724.691-3.66.148zm18.004 10.42l-11.652-6.738c-.936-.542-.821-1.479.262-2.104l11.554-6.673c1.084-.624 2.708-.69 3.66-.147l11.653 6.738c.935.542.82 1.479-.263 2.104l-11.554 6.673c-1.083.608-2.724.69-3.66.147zm18.004 10.404l-11.652-6.738c-.936-.543-.821-1.48.262-2.104l11.554-6.673c1.084-.625 2.708-.69 3.66-.148l11.653 6.739c.935.542.82 1.479-.263 2.103l-11.554 6.673c-1.083.625-2.724.69-3.66.148zm18.004 10.404l-11.652-6.739c-.936-.542-.821-1.479.262-2.104l11.554-6.672c1.083-.625 2.708-.691 3.66-.148l11.653 6.738c.935.543.82 1.479-.263 2.104l-11.554 6.673c-1.083.624-2.724.69-3.66.148zm18.004 10.42l-11.652-6.739c-.936-.542-.821-1.479.262-2.103l11.554-6.673c1.083-.625 2.708-.691 3.66-.148l11.653 6.738c.935.543.82 1.48-.263 2.104l-11.554 6.673c-1.083.624-2.724.69-3.66.148zm18.004 10.403l-11.653-6.738c-.935-.542-.82-1.479.263-2.104l11.554-6.673c1.083-.624 2.708-.69 3.66-.148l11.652 6.739c.936.542.821 1.479-.262 2.104l-11.554 6.673c-1.083.624-2.725.69-3.66.147zm18.004 10.404l-11.653-6.738c-.935-.543-.82-1.48.263-2.104l11.554-6.673c1.083-.625 2.708-.69 3.66-.148l11.652 6.739c.936.542.821 1.479-.262 2.103l-11.554 6.673c-1.083.625-2.725.691-3.66.148zm-135.513-98.613l-11.653-6.738c-.935-.543-.82-1.479.263-2.104l11.554-6.673c1.083-.624 2.708-.69 3.66-.148l11.652 6.739c.936.542.821 1.479-.263 2.104l-11.553 6.672c-1.084.625-2.725.691-3.66.148zm-18.267-10.551l-11.652-6.739c-.936-.542-.821-1.479.262-2.103l11.554-6.673c1.083-.625 2.708-.691 3.66-.148l11.652 6.738c.936.543.821 1.48-.262 2.104l-11.554 6.673c-1.1.608-2.724.674-3.66.148zm-18.299-10.585l-25.11-14.512c-.936-.542-.821-1.479.262-2.104l11.554-6.673c1.084-.624 2.708-.69 3.66-.148l25.11 14.513c.936.542.821 1.479-.262 2.104l-11.554 6.672c-1.1.609-2.725.691-3.66.148zm12.785-12.869l-20.384-11.784c-.935-.542-.821-1.479.263-2.104l11.554-6.672c1.083-.625 2.708-.691 3.659-.148l20.384 11.784c.935.542.821 1.479-.263 2.104l-11.554 6.672c-1.083.609-2.724.691-3.659.148zm41.785 44.425l-11.653-6.738c-.935-.542-.82-1.479.263-2.104l11.554-6.673c1.083-.624 2.708-.69 3.66-.148l11.652 6.739c.935.542.821 1.479-.263 2.104l-11.554 6.673c-1.083.624-2.724.69-3.659.147zm18.003 10.404l-11.652-6.738c-.935-.543-.821-1.48.263-2.104l11.554-6.673c1.083-.625 2.708-.69 3.659-.148l11.653 6.739c.935.542.821 1.479-.263 2.103l-11.554 6.673c-1.083.625-2.724.69-3.66.148zm18.004 10.404l-11.652-6.739c-.936-.542-.821-1.479.263-2.104l11.554-6.672c1.083-.625 2.707-.691 3.659-.148l11.653 6.738c.935.543.82 1.48-.263 2.104l-11.554 6.673c-1.083.624-2.724.69-3.66.148zm18.004 10.42l-11.653-6.739c-.935-.542-.82-1.479.263-2.103l11.554-6.673c1.083-.625 2.708-.691 3.66-.148l11.652 6.738c.936.543.821 1.48-.262 2.104l-11.554 6.673c-1.084.624-2.725.69-3.66.148zm18.004 10.403l-11.652-6.738c-.936-.542-.821-1.479.262-2.104l11.554-6.673c1.084-.624 2.708-.69 3.66-.148l11.653 6.739c.935.542.82 1.479-.263 2.104l-11.554 6.673c-1.083.624-2.724.69-3.66.147zm18.004 10.421l-11.652-6.739c-.936-.542-.821-1.479.262-2.104l11.554-6.672c1.083-.625 2.708-.691 3.66-.148l11.653 6.738c.935.542.82 1.479-.263 2.104l-11.554 6.673c-1.083.608-2.724.673-3.66.148zm18.004 10.403l-11.653-6.738c-.935-.543-.821-1.48.263-2.104l11.554-6.673c1.083-.624 2.708-.69 3.659-.148l11.653 6.739c.935.542.821 1.479-.263 2.104l-11.554 6.672c-1.083.625-2.724.691-3.659.148zm18.003 10.404l-11.652-6.739c-.936-.542-.821-1.479.263-2.103l11.554-6.673c1.083-.625 2.708-.69 3.659-.148l11.653 6.738c.935.543.82 1.48-.263 2.104l-11.554 6.673c-1.083.624-2.724.69-3.66.148zm18.004 10.42l-11.652-6.739c-.936-.542-.821-1.479.262-2.103l11.554-6.673c1.084-.625 2.708-.69 3.66-.148l11.653 6.738c.935.543.82 1.48-.263 2.104l-11.554 6.673c-1.083.608-2.724.69-3.66.148zm32.02 18.506l-25.438-14.709c-.936-.543-.821-1.48.262-2.104l11.554-6.673c1.084-.625 2.708-.69 3.66-.148l25.439 14.71c.935.542.82 1.479-.263 2.104l-11.554 6.672c-1.1.608-2.724.674-3.66.148zm35.04-20.281l-21.467-12.409c-.935-.542-.821-1.479.263-2.104l11.554-6.672c1.083-.625 2.708-.691 3.659-.148l21.467 12.408c.936.543.821 1.48-.262 2.104l-11.554 6.673c-1.084.625-2.725.69-3.66.148zm-179.563-83.542l-11.653-6.738c-.935-.542-.82-1.479.263-2.104l11.554-6.673c1.083-.624 2.708-.69 3.66-.148l11.652 6.739c.936.542.821 1.479-.262 2.104l-11.554 6.673c-1.083.624-2.725.69-3.66.147zm-18.447-10.666l-11.653-6.739c-.935-.542-.82-1.479.263-2.103l11.554-6.673c1.083-.625 2.708-.691 3.66-.148l11.652 6.738c.936.543.821 1.48-.262 2.104l-11.554 6.673c-1.084.608-2.725.69-3.66.148zm-18.447-10.667l-11.653-6.738c-.935-.543-.82-1.48.263-2.104l11.554-6.673c1.083-.624 2.708-.69 3.66-.148l11.652 6.739c.936.542.821 1.479-.262 2.104l-11.554 6.672c-1.1.608-2.725.674-3.66.148zm-18.463-10.683l-11.653-6.738c-.935-.543-.821-1.48.263-2.104l11.554-6.673c1.083-.624 2.708-.69 3.659-.148l11.653 6.739c.935.542.821 1.479-.263 2.103l-11.554 6.673c-1.083.625-2.724.691-3.659.148zm73.361 42.42l-11.653-6.738c-.935-.543-.82-1.48.263-2.104l11.554-6.673c1.083-.625 2.708-.69 3.66-.148l11.652 6.739c.936.542.821 1.479-.262 2.103l-11.554 6.673c-1.083.625-2.725.69-3.66.148zm18.003 10.42l-11.652-6.738c-.936-.543-.821-1.48.262-2.104l11.554-6.673c1.084-.624 2.708-.69 3.66-.148l11.653 6.739c.935.542.82 1.479-.263 2.103l-11.554 6.673c-1.083.608-2.724.674-3.66.148zm18.005 10.404l-11.653-6.739c-.935-.542-.82-1.479.263-2.103l11.554-6.673c1.083-.625 2.708-.691 3.66-.148l11.652 6.738c.936.543.821 1.48-.263 2.104l-11.554 6.673c-1.083.624-2.724.69-3.659.148zm18.004 10.403l-11.653-6.738c-.935-.542-.821-1.479.263-2.104l11.554-6.673c1.083-.624 2.708-.69 3.66-.148l11.652 6.739c.935.542.821 1.479-.263 2.104l-11.554 6.673c-1.083.624-2.724.69-3.659.147zm18.003 10.421l-11.652-6.739c-.936-.542-.821-1.479.262-2.104l11.554-6.673c1.083-.624 2.708-.69 3.66-.147l11.652 6.738c.936.542.821 1.479-.262 2.104l-11.554 6.673c-1.083.608-2.725.69-3.66.148zm18.004 10.403l-11.653-6.738c-.935-.543-.82-1.48.263-2.104l11.554-6.673c1.083-.624 2.708-.69 3.66-.148l11.652 6.739c.936.542.821 1.479-.262 2.103l-11.554 6.673c-1.083.625-2.725.691-3.66.148zm18.004 10.404l-11.653-6.739c-.935-.542-.82-1.479.263-2.103l11.554-6.673c1.083-.625 2.708-.69 3.66-.148l11.652 6.738c.936.543.821 1.48-.262 2.104l-11.554 6.673c-1.084.625-2.725.69-3.66.148zm18.004 10.42l-11.653-6.739c-.935-.542-.82-1.479.263-2.103l11.554-6.673c1.083-.625 2.708-.69 3.66-.148l11.652 6.738c.936.543.821 1.48-.262 2.104l-11.554 6.673c-1.084.608-2.725.69-3.66.148zm18.004 10.404l-11.653-6.739c-.935-.542-.82-1.479.263-2.104l11.554-6.672c1.083-.625 2.708-.691 3.66-.148l11.652 6.738c.935.543.821 1.479-.263 2.104l-11.554 6.673c-1.083.624-2.724.69-3.659.148zm-171.505-119.437l-11.652-6.738c-.936-.543-.821-1.48.262-2.104l11.554-6.673c1.083-.625 2.708-.69 3.66-.148l11.653 6.739c.935.542.82 1.479-.263 2.103l-11.554 6.673c-1.1.625-2.724.69-3.66.148zm-17.922-10.354l-11.652-6.739c-.936-.542-.821-1.479.262-2.104l11.554-6.672c1.084-.625 2.708-.691 3.66-.148l11.653 6.738c.935.543.82 1.48-.263 2.104l-11.554 6.673c-1.083.624-2.724.69-3.66.148zm-17.905-10.355l-11.652-6.738c-.936-.542-.821-1.479.262-2.104l11.554-6.673c1.083-.624 2.708-.69 3.66-.148l11.652 6.739c.936.542.821 1.479-.262 2.104l-11.554 6.673c-1.1.624-2.724.69-3.66.147zm-17.922-10.354l-11.652-6.738c-.936-.543-.821-1.48.262-2.104l11.554-6.673c1.083-.625 2.708-.69 3.66-.148l11.653 6.739c.935.542.82 1.479-.263 2.103l-11.554 6.673c-1.083.608-2.724.69-3.66.148zm18.414-10.65l-11.652-6.739c-.936-.542-.821-1.479.262-2.103l3.824-2.203c1.084-.624 2.708-.69 3.66-.148l11.653 6.739c.935.542.82 1.479-.263 2.104l-3.824 2.202c-1.083.608-2.724.674-3.66.148zm23.387 13.51l-11.652-6.739c-.935-.542-.821-1.479.263-2.103l3.824-2.203c1.083-.624 2.708-.69 3.659-.148l11.653 6.739c.935.542.82 1.479-.263 2.104l-3.824 2.202c-1.083.624-2.724.69-3.66.148zm17.84 10.321l-11.652-6.738c-.936-.543-.821-1.479.262-2.104l3.824-2.202c1.084-.625 2.708-.691 3.66-.148l11.653 6.738c.935.543.82 1.48-.263 2.104l-3.824 2.202c-1.083.609-2.724.674-3.66.148zm17.84 10.305l-11.653-6.738c-.935-.543-.82-1.479.263-2.104l3.824-2.202c1.083-.625 2.708-.691 3.66-.148l11.652 6.738c.936.543.821 1.48-.262 2.104l-3.824 2.202c-1.084.625-2.725.691-3.66.148zm17.839 10.322l-11.652-6.739c-.935-.542-.821-1.479.263-2.103l3.824-2.203c1.083-.624 2.708-.69 3.659-.148l11.653 6.739c.935.542.82 1.479-.263 2.104l-3.824 2.202c-1.083.624-2.724.69-3.66.148zm99.604 57.573l-11.652-6.738c-.935-.543-.821-1.479.263-2.104l3.824-2.202c1.083-.625 2.708-.691 3.659-.148l11.653 6.738c.935.543.821 1.479-.263 2.104l-3.824 2.202c-1.099.625-2.724.691-3.66.148zm17.84 10.322l-11.652-6.739c-.936-.542-.821-1.479.262-2.104l3.824-2.202c1.084-.625 2.708-.69 3.66-.148l11.653 6.739c.935.542.82 1.479-.263 2.103l-3.824 2.203c-1.099.624-2.724.69-3.66.148zm17.84 10.321l-11.653-6.738c-.935-.543-.82-1.48.263-2.104l3.824-2.202c1.083-.625 2.708-.691 3.66-.148l11.652 6.738c.936.543.821 1.479-.262 2.104l-3.824 2.202c-1.1.608-2.725.691-3.66.148zm17.84 10.305l-11.653-6.738c-.935-.543-.821-1.48.263-2.104l3.824-2.202c1.083-.625 2.708-.691 3.66-.148l11.652 6.738c.936.543.821 1.479-.263 2.104l-3.824 2.202c-1.099.625-2.724.691-3.659.148zm-176.691-80.846l-11.652-6.738c-.936-.543-.821-1.48.262-2.104l11.554-6.673c1.083-.624 2.708-.69 3.66-.148l11.653 6.739c.935.542.82 1.479-.263 2.103l-11.554 6.673c-1.1.608-2.724.674-3.66.148zm18.004 10.404l-11.652-6.739c-.936-.542-.821-1.479.262-2.103l11.554-6.673c1.083-.625 2.708-.69 3.66-.148l11.652 6.738c.936.543.821 1.48-.262 2.104l-11.554 6.673c-1.1.624-2.725.69-3.66.148zm18.004 10.403l-11.653-6.738c-.935-.542-.82-1.479.263-2.104l11.554-6.673c1.083-.624 2.708-.69 3.66-.148l11.652 6.739c.936.542.821 1.479-.262 2.104l-11.554 6.673c-1.1.624-2.725.69-3.66.147zm18.004 10.421l-11.653-6.739c-.935-.542-.82-1.479.263-2.104l11.554-6.673c1.083-.624 2.708-.69 3.66-.147l11.652 6.738c.936.542.821 1.479-.262 2.104l-11.554 6.673c-1.1.608-2.725.69-3.66.148zm18.004 10.403l-11.653-6.738c-.935-.543-.82-1.48.263-2.104l11.554-6.673c1.083-.624 2.708-.69 3.66-.148l11.652 6.739c.936.542.821 1.479-.262 2.103l-11.554 6.673c-1.1.625-2.725.691-3.66.148zm18.003 10.404l-11.652-6.739c-.936-.542-.821-1.479.262-2.103l11.554-6.673c1.083-.625 2.708-.691 3.66-.148l11.652 6.738c.936.543.821 1.48-.262 2.104l-11.554 6.673c-1.1.624-2.724.69-3.66.148zm18.004 10.42l-11.652-6.739c-.936-.542-.821-1.479.262-2.103l11.554-6.673c1.083-.625 2.708-.69 3.66-.148l11.652 6.738c.936.543.821 1.48-.262 2.104l-11.554 6.673c-1.1.625-2.724.69-3.66.148zm18.004 10.404l-11.653-6.739c-.935-.542-.82-1.479.263-2.104l11.554-6.672c1.083-.625 2.708-.691 3.66-.148l11.652 6.738c.936.543.821 1.479-.262 2.104l-11.554 6.673c-1.1.624-2.725.69-3.66.148zm18.004 10.403l-11.653-6.738c-.935-.543-.82-1.48.263-2.104l11.554-6.673c1.083-.624 2.708-.69 3.66-.148l11.652 6.739c.936.542.821 1.479-.262 2.103l-11.554 6.673c-1.1.625-2.725.691-3.66.148zm-246.966-81.98l-34.334-19.854c-.936-.542-.821-1.479.263-2.104l11.554-6.672c1.083-.625 2.707-.691 3.659-.148l34.334 19.854c.936.542.821 1.479-.263 2.103l-11.554 6.673c-1.083.625-2.724.691-3.659.148zm221.183 127.884l-34.334-19.854c-.935-.542-.821-1.479.263-2.103l11.554-6.673c1.083-.625 2.708-.69 3.659-.148l34.318 19.838c.935.542.82 1.479-.263 2.103l-11.554 6.673c-1.067.641-2.708.707-3.643.164zm-71.999-18.637l-11.653-6.739c-.935-.542-.82-1.479.263-2.104l13.753-7.954c1.083-.625 2.708-.691 3.66-.148l11.652 6.738c.936.543.821 1.479-.262 2.104l-13.753 7.955c-1.084.624-2.725.69-3.66.148zm-130.754-75.603l-18.644-10.782c-.935-.542-.821-1.479.263-2.104l13.753-7.955c1.083-.624 2.708-.69 3.66-.148l18.644 10.782c.935.542.82 1.479-.263 2.104l-13.753 7.955c-1.083.624-2.725.69-3.66.148zm113.406 65.577l-18.644-10.782c-.935-.542-.82-1.479.263-2.103l13.753-7.955c1.083-.625 2.708-.691 3.66-.148l18.644 10.782c.935.542.82 1.479-.263 2.103l-13.753 7.955c-1.083.608-2.724.69-3.66.148zm-87.426-50.556l-18.644-10.781c-.935-.543-.821-1.479.263-2.104l13.753-7.955c1.083-.624 2.708-.69 3.66-.148l18.644 10.782c.935.542.82 1.479-.263 2.104l-13.753 7.955c-1.083.624-2.725.69-3.66.147zm-.837-20.922l81.058 46.874c1.002.575 1.002 1.529 0 2.104l-14.032 8.103c-1.001.575-2.642.575-3.643 0l-81.059-46.874 17.676-10.207zm155.929 100.372l12.982 7.511c.772.443.673 1.216-.213 1.725l-5.629 3.255c-.887.509-2.232.575-2.987.131l-12.982-7.511c-.772-.444-.673-1.216.213-1.726l5.629-3.254c.87-.509 2.216-.575 2.987-.131zm-18.151-10.486l12.982 7.511c.772.444.673 1.216-.213 1.725l-5.629 3.255c-.887.509-2.232.575-2.987.131l-12.982-7.511c-.772-.444-.673-1.216.213-1.726l5.629-3.254c.87-.526 2.216-.575 2.987-.131zm-18.004-10.42l12.982 7.511c.772.443.673 1.216-.213 1.725l-5.629 3.255c-.887.509-2.232.575-2.987.131l-12.982-7.511c-.771-.444-.673-1.216.213-1.726l5.63-3.254c.869-.509 2.215-.575 2.986-.131zm27.934 4.667l12.981 7.511c.772.444.673 1.217-.213 1.726l-5.629 3.254c-.886.51-2.232.576-2.987.132l-12.982-7.511c-.771-.444-.673-1.216.213-1.726l5.63-3.254c.886-.526 2.232-.575 2.987-.132zm71.129-203.126l-96.978-56.061 1.247-6.311 96.978 56.061-1.247 6.311zm-34.728 10.667l-67.699-39.149 1.247-6.311 67.699 39.132-1.247 6.328z" fill="#9E90B2"/><path d="M465.205 218.184l-58.558-33.858 1.248-6.311 58.558 33.857-1.248 6.312z" fill="#fff"/><path d="M503.626 240.388l-29.279-16.929 1.247-6.311 29.279 16.929-1.247 6.311z" fill="#E60D2E"/><path d="M399.049 115.445l-29.296-16.928 1.248-6.311 29.295 16.928-1.247 6.311z" fill="#9E90B2"/><path d="M395.865 130.122l-29.279-16.928 1.247-6.311 29.279 16.928-1.247 6.311z" fill="#fff"/><path d="M539.584 333.643l-29.279-16.929 1.247-6.328 29.279 16.945-1.247 6.312zm-150.071-174.183l-29.295-16.929 1.248-6.311 29.295 16.928-1.248 6.312z" fill="#9E90B2"/><path d="M452.782 164.012c-.936 2.038-3.283 2.761-5.269 1.627-1.969-1.134-2.822-3.714-1.887-5.752s3.282-2.761 5.268-1.627c1.97 1.134 2.823 3.714 1.888 5.752z" fill="#E60D2E"/><path d="M465.386 171.31c-.936 2.038-3.282 2.761-5.268 1.627-1.986-1.134-2.823-3.715-1.888-5.753.936-2.038 3.283-2.761 5.269-1.627 1.985 1.134 2.822 3.715 1.887 5.753z" fill="#fff"/><path d="M478.007 178.591c-.936 2.038-3.283 2.761-5.269 1.627-1.969-1.134-2.822-3.715-1.887-5.753.936-2.038 3.283-2.761 5.268-1.627 1.97 1.151 2.823 3.715 1.888 5.753z" fill="#9E90B2"/><path d="M490.611 185.888c-.935 2.038-3.282 2.761-5.268 1.627-1.969-1.134-2.823-3.714-1.887-5.752.935-2.038 3.282-2.762 5.268-1.628 1.986 1.135 2.823 3.715 1.887 5.753z" fill="#E60D2E"/><path d="M277.518 153.05l-63.153-36.503c-1.247-.724-2.511-.756-3.594-.263l.016-.033-7.533 3.55s2.823.986 4.481 1.578l-9.109 46.052c-.738 3.747.936 8.102 3.742 9.713l60.363 34.876-1.067 5.407 7.599-3.566-.033-.016c1.297-.641 2.314-2.038 2.708-4.06l9.306-47.022c.755-3.747-.919-8.103-3.726-9.713z" fill="#C40C30"/><path d="M257.873 217.23l-63.153-36.503c-2.806-1.627-4.48-5.966-3.742-9.713l9.306-47.022c.738-3.747 3.61-5.473 6.417-3.846l63.153 36.503c2.806 1.627 4.48 5.966 3.742 9.713l-9.306 47.022c-.738 3.748-3.61 5.457-6.417 3.846z" fill="#E60D2E"/><path d="M271.298 156.074l-63.153-36.503c-1.477-.855-2.954-.756-4.152.033.853-.148 1.789 0 2.708.526l63.153 36.503c2.806 1.627 4.48 5.982 3.742 9.713l-9.306 47.022c-.345 1.775-1.198 3.09-2.281 3.813 1.756-.296 3.216-1.857 3.709-4.372l9.305-47.022c.755-3.731-.919-8.086-3.725-9.713zm-49.712 8.448c-.541 2.728-2.888 3.829-5.235 2.465-2.347-1.364-3.824-4.668-3.283-7.396.542-2.728 2.889-3.829 5.236-2.465 2.347 1.364 3.824 4.667 3.282 7.396zm12.9 7.461c-.541 2.729-2.888 3.83-5.235 2.466-2.347-1.364-3.824-4.668-3.283-7.396.542-2.729 2.889-3.83 5.236-2.466 2.363 1.365 3.824 4.668 3.282 7.396zm12.916 7.462c-.541 2.728-2.888 3.83-5.235 2.465-2.347-1.364-3.824-4.667-3.283-7.396.542-2.728 2.889-3.829 5.236-2.465 2.347 1.364 3.824 4.668 3.282 7.396z" fill="#fff"/><path d="M249.175 93.931l-63.153-36.503c-1.247-.723-2.511-.756-3.594-.263l.016-.033-7.533 3.55s2.823.986 4.48 1.578l-9.108 46.053c-.739 3.747.935 8.102 3.742 9.713l60.363 34.892-1.067 5.408 7.599-3.567-.033-.016c1.296-.641 2.314-2.038 2.708-4.06l9.305-47.022c.755-3.763-.919-8.102-3.725-9.73z" fill="#5A4B77"/><path d="M229.514 158.112l-63.153-36.503c-2.807-1.627-4.481-5.966-3.742-9.714l9.305-47.021c.739-3.747 3.611-5.473 6.417-3.846l63.153 36.503c2.807 1.627 4.481 5.966 3.742 9.713l-9.305 47.022c-.739 3.747-3.611 5.473-6.417 3.846z" fill="#9E90B2"/><path d="M242.939 96.972l-63.153-36.503c-1.478-.855-2.955-.756-4.153.033.854-.148 1.789 0 2.708.526l63.153 36.503c2.807 1.627 4.481 5.982 3.742 9.713l-9.305 47.022c-.345 1.775-1.198 3.09-2.282 3.813 1.756-.296 3.217-1.857 3.709-4.372l9.306-47.022c.755-3.747-.919-8.102-3.725-9.713zm-49.712 8.431c-.542 2.729-2.889 3.83-5.236 2.466-2.346-1.364-3.824-4.668-3.282-7.396.542-2.728 2.889-3.83 5.235-2.466 2.347 1.364 3.824 4.684 3.283 7.396zm12.916 7.462c-.541 2.728-2.888 3.83-5.235 2.465-2.347-1.364-3.824-4.667-3.282-7.395.541-2.729 2.888-3.83 5.235-2.466 2.347 1.364 3.824 4.684 3.282 7.396zm12.9 7.462c-.542 2.728-2.889 3.829-5.236 2.465-2.347-1.364-3.824-4.668-3.282-7.396.542-2.728 2.889-3.829 5.235-2.465 2.364 1.364 3.824 4.684 3.283 7.396z" fill="#fff"/><path d="M197.51 581.555l-25.159-14.545 25.159-14.546 25.16 14.546-25.16 14.545z" fill="#200D38"/><path d="M222.67 548.536l-25.16 14.562v-29.107l25.16-14.546v29.091z" fill="#5A4B77"/><path d="M197.51 533.991l-25.159-14.546 25.159-14.545 25.16 14.545-25.16 14.546z" fill="#A99FB7"/><path d="M197.51 563.098l-25.159-14.562v-29.091l25.159 14.546v29.107z" fill="#9E90B2"/><path d="M188.451 547.369l-7.041-4.059v-8.136l7.041 4.06v8.135z" fill="#fff"/><path d="M527.012 620.918l-76.529-44.244c-2.806-1.627-2.445-4.454.788-6.328l81.108-47.022c3.233-1.873 8.14-2.071 10.946-.46l76.529 44.244c2.807 1.627 2.446 4.454-.788 6.328l-81.107 47.022c-3.233 1.874-8.141 2.087-10.947.46z" fill="#200D38"/><path d="M621.594 537.689l-81.83-47.318c-3.184-1.841-5.761-6.771-5.761-11.028v-196.075c0-4.257 2.577-6.196 5.761-4.355l81.83 47.317c3.184 1.841 5.76 6.772 5.76 11.028v196.075c0 4.241-2.576 6.197-5.76 4.356z" fill="url(#a)"/><path d="M621.594 326.214l-81.83-47.318c-1.428-.822-2.724-.887-3.725-.329l-93.417 53.974 4.398 16.321 85.178 242.932 93.039-53.743.05-.033.164-.099c1.165-.74 1.904-2.334 1.904-4.602v-196.075c0-4.257-2.577-9.187-5.761-11.028z" fill="#9E90B2"/><path d="M621.594 326.214l-81.83-47.318c-1.428-.822-2.724-.887-3.725-.329l-93.417 53.974 4.398 16.321 23.42 66.81 4.415 2.548 150.891-87.24c-1.05-2.071-2.527-3.829-4.152-4.766z" fill="#A99FB7"/><path d="M528.243 591.614l-81.83-47.318c-3.184-1.841-5.76-6.772-5.76-11.028v-196.075c0-4.257 2.576-6.196 5.76-4.356l81.83 47.302c3.184 1.84 5.761 6.771 5.761 11.028v196.091c0 4.241-2.577 6.196-5.761 4.356z" fill="#817199"/><path d="M523.09 579.813l-71.523-41.352c-2.79-1.61-5.039-5.916-5.039-9.631v-182.105c0-3.714 2.249-5.423 5.039-3.813l71.523 41.352c2.79 1.611 5.038 5.917 5.038 9.631v182.105c0 3.714-2.248 5.424-5.038 3.813z" fill="url(#b)"/><path d="M523.09 579.813l-71.523-41.352c-2.79-1.61-5.039-5.916-5.039-9.631v-182.105c0-3.714 2.249-5.423 5.039-3.813l71.523 41.352c2.79 1.611 5.038 5.917 5.038 9.631v182.105c0 3.714-2.248 5.424-5.038 3.813z" fill="url(#c)"/><path d="M523.09 579.813l-71.523-41.352c-2.79-1.61-5.039-5.916-5.039-9.631v-182.105c0-3.714 2.249-5.423 5.039-3.813l71.523 41.352c2.79 1.611 5.038 5.917 5.038 9.631v182.105c0 3.714-2.248 5.424-5.038 3.813z" fill="#5A4B77"/><path d="M525.437 578.432l-71.523-41.351c-2.774-1.611-5.039-5.917-5.039-9.631v-182.105c0-1.266.263-2.285.723-3.041-1.806-.016-3.053 1.644-3.053 4.421v182.105c0 3.715 2.248 8.037 5.038 9.631l71.524 41.352c1.838 1.052 3.43.674 4.316-.773-.624 0-1.28-.197-1.986-.608zm-2.347-82.226l-26.587-15.367-42.409 24.521 74.034 42.798v-42.305c0-3.73-2.248-8.037-5.038-9.647zm0-37.325l-26.587-15.367-42.409 24.521 74.034 42.798v-42.305c0-3.714-2.248-8.036-5.038-9.647zm0-37.309l-26.587-15.367-42.409 24.522 74.034 42.798v-42.305c0-3.731-2.248-8.053-5.038-9.648zm0-37.325l-26.587-15.367-42.409 24.522 74.034 42.798v-42.305c0-3.731-2.248-8.037-5.038-9.648zm.001 0l-58.854-34.037-10.126 5.851 74.034 42.798v-4.997c-.016-3.698-2.264-8.004-5.054-9.615z" fill="#381E54"/><path d="M528.129 398.875l-74.018-42.798v23.585l74.018 42.798v-23.585zm0 37.325l-74.018-42.814v23.601l74.018 42.798v-23.585zm0 37.308l-74.018-42.798v23.585l74.018 42.798v-23.585zm0 37.325l-74.018-42.798v23.585l74.018 42.798v-23.585zm0 37.309l-74.018-42.798v23.585l74.018 42.798v-23.585z" fill="#9E90B2"/><path d="M521.613 414.062l-55.751-32.23c-1.576-.904-2.856-3.353-2.856-5.457v-6.311c0-2.104 1.28-3.073 2.856-2.153l55.751 32.213c1.576.904 2.856 3.353 2.856 5.457v6.311c-.017 2.104-1.297 3.074-2.856 2.17z" fill="#5A4B77"/><path opacity=".3" d="M468.668 380.615c-1.576-.904-2.856-3.353-2.856-5.456v-6.312c0-.328.049-.624.099-.904l-.066-.049c-1.576-.904-2.856.049-2.856 2.153v6.311c0 2.104 1.28 4.537 2.856 5.457l55.768 32.246c1.329.773 2.429.198 2.74-1.249l-55.685-32.197z" fill="#06033E"/><path d="M504.101 396.738l-33.546-19.393c-.558-.313-1.001-1.184-1.001-1.923 0-.74.443-1.085 1.001-.756l33.546 19.393c.558.313 1.001 1.184 1.001 1.923.016.74-.443 1.085-1.001.756z" fill="#fff"/><path d="M521.613 451.14l-55.751-32.23c-1.576-.904-2.856-3.353-2.856-5.456v-6.312c0-2.103 1.28-3.073 2.856-2.153l55.751 32.23c1.576.904 2.856 3.353 2.856 5.457v6.311c-.017 2.104-1.297 3.073-2.856 2.153z" fill="#5A4B77"/><path opacity=".3" d="M468.668 417.694c-1.576-.904-2.856-3.353-2.856-5.457v-6.311c0-.329.049-.625.099-.904l-.066-.049c-1.576-.904-2.856.049-2.856 2.153v6.311c0 2.104 1.28 4.536 2.856 5.456l55.768 32.247c1.329.772 2.429.197 2.74-1.249l-55.685-32.197z" fill="#06033E"/><path d="M504.101 433.833l-33.546-19.394c-.558-.312-1.001-1.183-1.001-1.923 0-.739.443-1.084 1.001-.756l33.546 19.394c.558.312 1.001 1.184 1.001 1.923.016.74-.443 1.068-1.001.756z" fill="#fff"/><path d="M521.613 488.58l-55.751-32.23c-1.576-.904-2.856-3.353-2.856-5.457v-6.311c0-2.104 1.28-3.073 2.856-2.153l55.751 32.213c1.576.904 2.856 3.353 2.856 5.457v6.311c-.017 2.104-1.297 3.074-2.856 2.17z" fill="#5A4B77"/><path opacity=".3" d="M468.668 455.134c-1.576-.904-2.856-3.353-2.856-5.456v-6.311c0-.329.049-.625.099-.904l-.066-.033c-1.576-.904-2.856.049-2.856 2.153v6.311c0 2.104 1.28 4.536 2.856 5.457l55.768 32.229c1.329.773 2.429.198 2.74-1.249l-55.685-32.197z" fill="#06033E"/><path d="M504.101 471.273l-33.546-19.394c-.558-.312-1.001-1.183-1.001-1.923 0-.739.443-1.084 1.001-.756l33.546 19.394c.558.313 1.001 1.184 1.001 1.923.016.723-.443 1.069-1.001.756z" fill="#9E90B2"/><path d="M521.613 526.349l-55.751-32.23c-1.576-.904-2.856-3.353-2.856-5.457v-6.311c0-2.104 1.28-3.073 2.856-2.153l55.751 32.23c1.576.904 2.856 3.353 2.856 5.456v6.312c-.017 2.103-1.297 3.073-2.856 2.153z" fill="#5A4B77"/><path opacity=".3" d="M468.668 492.902c-1.576-.904-2.856-3.353-2.856-5.456v-6.312c0-.328.049-.624.099-.904l-.066-.049c-1.576-.904-2.856.049-2.856 2.153v6.311c0 2.104 1.28 4.537 2.856 5.457l55.768 32.246c1.329.773 2.429.198 2.74-1.249l-55.685-32.197z" fill="#06033E"/><path d="M504.101 509.042l-33.546-19.394c-.558-.312-1.001-1.183-1.001-1.923 0-.739.443-1.085 1.001-.756l33.546 19.394c.558.312 1.001 1.183 1.001 1.923.016.74-.443 1.085-1.001.756z" fill="#E60D2E"/><path d="M521.613 563.394l-55.751-32.23c-1.576-.904-2.856-3.353-2.856-5.456v-6.312c0-2.103 1.28-3.073 2.856-2.153l55.751 32.214c1.576.904 2.856 3.353 2.856 5.457v6.311c-.017 2.104-1.297 3.073-2.856 2.169z" fill="#5A4B77"/><path opacity=".3" d="M468.668 529.931c-1.576-.904-2.856-3.353-2.856-5.456v-6.311c0-.329.049-.625.099-.904l-.066-.033c-1.576-.904-2.856.049-2.856 2.153v6.311c0 2.104 1.28 4.536 2.856 5.457l55.768 32.229c1.329.773 2.429.198 2.74-1.249l-55.685-32.197z" fill="#06033E"/><path d="M504.101 546.071l-33.546-19.394c-.558-.312-1.001-1.183-1.001-1.923s.443-1.085 1.001-.756l33.546 19.394c.558.312 1.001 1.183 1.001 1.923.016.74-.443 1.085-1.001.756z" fill="#9E90B2"/><path d="M454.11 356.077l5.827 3.369v23.585l-5.827-3.369v-23.585zm0 37.309l5.827 3.385v23.585l-5.827-3.369v-23.601zm0 37.324l5.827 3.37v23.585l-5.827-3.37v-23.585zm0 37.325l5.827 3.37v23.585l-5.827-3.37v-23.585zm0 37.309l5.827 3.369v23.585l-5.827-3.369v-23.585z" fill="#A99FB7"/><path d="M510.715 399.072c0 .756-.525 1.052-1.181.691-.657-.379-1.182-1.299-1.182-2.055 0-.756.525-1.052 1.182-.69.656.394 1.181 1.298 1.181 2.054z" fill="#9E90B2"/><path d="M515.721 401.965c0 .756-.526 1.052-1.182.69-.656-.378-1.182-1.298-1.182-2.054 0-.756.526-1.052 1.182-.691.656.395 1.182 1.299 1.182 2.055z" fill="#E60D2E"/><path d="M520.727 404.857c0 .757-.526 1.052-1.182.691-.657-.378-1.182-1.299-1.182-2.055 0-.756.525-1.052 1.182-.69.656.394 1.182 1.298 1.182 2.054z" fill="#9E90B2"/><path d="M510.715 436.381c0 .756-.525 1.052-1.181.69-.657-.378-1.182-1.298-1.182-2.054 0-.756.525-1.052 1.182-.691.656.378 1.181 1.299 1.181 2.055z" fill="#E60D2E"/><path d="M515.721 439.273c0 .756-.526 1.052-1.182.691-.656-.378-1.182-1.299-1.182-2.055 0-.756.526-1.052 1.182-.69.656.378 1.182 1.298 1.182 2.054z" fill="#F8F8F8"/><path d="M520.727 442.166c0 .756-.526 1.052-1.182.69-.657-.378-1.182-1.298-1.182-2.054 0-.756.525-1.052 1.182-.69.656.378 1.182 1.298 1.182 2.054z" fill="#9E90B2"/><path d="M510.715 473.952c0 .756-.525 1.052-1.181.69-.657-.378-1.182-1.298-1.182-2.054 0-.756.525-1.052 1.182-.69.656.378 1.181 1.298 1.181 2.054z" fill="#fff"/><path d="M515.721 476.845c0 .756-.526 1.052-1.182.69-.656-.378-1.182-1.298-1.182-2.054 0-.756.526-1.052 1.182-.691.656.378 1.182 1.299 1.182 2.055z" fill="#E60D2E"/><path d="M520.727 479.738c0 .756-.526 1.051-1.182.69-.657-.378-1.182-1.299-1.182-2.055 0-.756.525-1.051 1.182-.69.656.395 1.182 1.299 1.182 2.055zm-10.012 31.243c0 .756-.525 1.052-1.181.691-.657-.378-1.182-1.299-1.182-2.055 0-.756.525-1.052 1.182-.69.656.394 1.181 1.298 1.181 2.054z" fill="#fff"/><path d="M515.721 513.874c0 .756-.526 1.052-1.182.69-.656-.378-1.182-1.298-1.182-2.054 0-.756.526-1.052 1.182-.691.656.395 1.182 1.299 1.182 2.055zm5.006 2.893c0 .756-.526 1.051-1.182.69-.657-.378-1.182-1.299-1.182-2.055 0-.756.525-1.051 1.182-.69.656.395 1.182 1.315 1.182 2.055z" fill="#9E90B2"/><path d="M510.715 548.52c0 .756-.525 1.052-1.181.69-.657-.378-1.182-1.298-1.182-2.054 0-.756.525-1.052 1.182-.691.656.395 1.181 1.299 1.181 2.055z" fill="#fff"/><path d="M515.721 551.412c0 .756-.526 1.052-1.182.691-.656-.378-1.182-1.299-1.182-2.055 0-.756.526-1.051 1.182-.69.656.395 1.182 1.298 1.182 2.054z" fill="#E60D2E"/><path d="M520.727 554.305c0 .756-.526 1.052-1.182.69-.657-.378-1.182-1.298-1.182-2.054 0-.756.525-1.052 1.182-.69.656.394 1.182 1.298 1.182 2.054z" fill="#9E90B2"/><path d="M546.329 565.103v-166.968l.345-.197 69.685-40.283v166.968l-.345.197-69.685 40.283zm1.379-166.162v163.779l67.272-38.886v-163.78l-67.272 38.887z" fill="#381E54"/><path d="M598.257 432.781l-31.249 18.063c-2.1 1.216-3.807-.082-3.807-2.877v-17.355c0-2.811 1.707-6.065 3.807-7.265l31.249-18.062c2.1-1.217 3.807.082 3.807 2.876v17.356c0 2.794-1.707 6.048-3.807 7.264z" fill="#5A4B77"/><path d="M599.011 404.94c.181.493.279 1.068.279 1.742v17.356c0 2.81-1.707 6.064-3.807 7.264l-31.249 18.063c-.262.148-.508.263-.755.328.558 1.529 1.921 2.055 3.513 1.134l31.248-18.062c2.101-1.216 3.807-4.47 3.807-7.265v-17.355c.017-2.449-1.296-3.731-3.036-3.205z" fill="#381E54"/><path d="M592.545 422.328c.575-.328 1.051-.065 1.051.608v3.945c0 .674-.476 1.479-1.051 1.808-.574.329-1.05.066-1.05-.608v-3.945c.017-.657.476-1.479 1.05-1.808z" fill="#fff"/><path d="M588.065 425.418c.574-.328 1.05-.065 1.05.608v3.452c0 .674-.476 1.479-1.05 1.808-.574.328-1.05.065-1.05-.608v-3.452c0-.674.476-1.479 1.05-1.808z" fill="#9E90B2"/><path d="M583.585 424.153c.574-.329 1.05-.066 1.05.608v7.314c0 .674-.476 1.479-1.05 1.808-.575.328-1.051.065-1.051-.609v-7.313c0-.674.476-1.48 1.051-1.808z" fill="#E60D2E"/><path d="M579.104 422.526c.574-.329 1.05-.066 1.05.608v11.537c0 .674-.476 1.48-1.05 1.808-.574.329-1.05.066-1.05-.608v-11.538c0-.657.476-1.479 1.05-1.807zm-4.48 3.796c.574-.328 1.05-.065 1.05.608v10.322c0 .674-.476 1.479-1.05 1.808-.575.328-1.051.065-1.051-.608v-10.322c0-.657.476-1.479 1.051-1.808z" fill="#9E90B2"/><path d="M570.143 433.636c.575-.329 1.05-.066 1.05.608v5.605c0 .673-.475 1.479-1.05 1.808-.574.328-1.05.065-1.05-.609v-5.604c0-.674.476-1.479 1.05-1.808z" fill="#fff"/><path d="M591.528 420.34c0 .657.459.92 1.034.591.574-.328 1.034-1.134 1.034-1.791s-.46-.92-1.034-.592c-.575.329-1.034 1.134-1.034 1.792z" fill="#E60D2E"/><path d="M591.528 416.625c0 .658.459.921 1.034.592.574-.329 1.034-1.134 1.034-1.792 0-.657-.46-.92-1.034-.591-.575.329-1.034 1.134-1.034 1.791z" fill="#fff"/><path d="M46.685 370.787l-44.821-25.903c-2.757-1.594-2.413-4.371.771-6.212l43.278-25.015c3.184-1.841 7.976-2.038 10.733-.444l44.821 25.919c2.757 1.594 2.412 4.372-.772 6.196l-43.278 25.015c-3.184 1.841-7.993 2.038-10.733.444z" fill="#200D38"/><path d="M103.289 314.282v-15.483l-34.678-.016-11.981-6.936c-2.757-1.594-7.55-1.397-10.733.444l-11.176 6.459-34.711-.016v15.926c-.082 1.068.525 2.12 1.838 2.876l44.821 25.919c2.757 1.594 7.549 1.397 10.733-.444l43.278-25.015c1.838-1.068 2.724-2.449 2.609-3.714zm-51.631-23.503c-2.019.049-4.103.559-5.744 1.512l-11.177 6.459-34.711-.016v15.926c-.082 1.068.525 2.12 1.838 2.876l44.821 25.919c1.329.756 3.118 1.117 4.973 1.068v-53.744z" fill="#5A4B77"/><path opacity=".3" d="M3.948 298.734h-3.922v15.926c-.082 1.068.525 2.12 1.838 2.876l2.084 1.2v-20.002zm43.426 45.049c2.38 1.019 5.81.954 8.583-.098v-18.079h-8.583v18.177z" fill="#06033E"/><path d="M46.684 327.578l-44.821-25.919c-2.757-1.594-2.413-4.372.771-6.196l43.278-25.015c3.184-1.84 7.976-2.038 10.733-.443l44.821 25.918c2.757 1.595 2.412 4.372-.772 6.196l-43.278 25.015c-3.184 1.841-7.993 2.038-10.733.444z" fill="#9E90B2"/><path d="M100.68 299.062l-43.278 25.015c-3.184 1.841-7.976 2.038-10.733.444l-44.804-25.902c-.607-.362-1.067-.773-1.379-1.217-.952 1.529-.509 3.173 1.379 4.274l44.821 25.918c2.757 1.595 7.55 1.397 10.733-.443l43.278-25.015c2.462-1.43 3.217-3.419 2.15-4.98-.459.674-1.165 1.331-2.166 1.906z" fill="#fff"/><path d="M86.812 318.358c0 1.15-.804 2.564-1.805 3.139-1.001.575-1.805.115-1.805-1.052 0-1.15.804-2.564 1.805-3.139 1.001-.575 1.805-.099 1.805 1.052zm5.826-3.37c0 1.151-.804 2.564-1.805 3.14-1.001.575-1.805.115-1.805-1.052 0-1.151.804-2.564 1.805-3.139.985-.576 1.805-.099 1.805 1.051zm5.826-3.369c0 1.151-.804 2.564-1.805 3.139-1.001.576-1.805.115-1.805-1.052 0-1.15.804-2.563 1.805-3.139.985-.559 1.805-.098 1.805 1.052z" fill="#F8F8F8"/><path d="M49.327 311.52l-20.974-12.129c-1.28-.74-1.132-2.038.361-2.909l20.252-11.702c1.493-.855 3.742-.953 5.022-.214l20.974 12.129c1.28.74 1.132 2.038-.361 2.91l-20.252 11.702c-1.494.854-3.742.953-5.022.213z" fill="#817199"/><path d="M51.329 301.363l-2.905-1.676c-.181-.099-.148-.279.049-.394l2.806-1.628c.213-.115.509-.131.689-.032l2.905 1.676c.181.099.148.279-.049.394l-2.806 1.628c-.197.115-.509.131-.689.032z" fill="#F8F8F8"/><path d="M28.352 299.391l.066.033.295-.214 20.252-11.702c1.494-.854 3.742-.953 5.022-.213l20.909 12.096c1.182-.854 1.247-2.005.066-2.695l-20.974-12.13c-1.28-.739-3.529-.657-5.022.214l-20.252 11.702c-1.477.855-1.641 2.17-.361 2.909z" fill="#5A4B77"/><defs><linearGradient id="a" x1="580.68" y1="514.037" x2="672.32" y2="355.544" gradientUnits="userSpaceOnUse"><stop stop-color="#2D0979"/><stop offset="1" stop-color="#5B04F7"/></linearGradient><linearGradient id="b" x1="443.377" y1="449.237" x2="517.795" y2="437.737" gradientUnits="userSpaceOnUse"><stop stop-color="#3919BB"/><stop offset="1" stop-color="#6507FA"/></linearGradient><linearGradient id="c" x1="443.377" y1="449.237" x2="517.795" y2="437.737" gradientUnits="userSpaceOnUse"><stop stop-color="#3919BB"/><stop offset="1" stop-color="#6507FA"/></linearGradient></defs></svg>