<svg width="135" height="138" viewBox="0 0 135 138" fill="none" xmlns="http://www.w3.org/2000/svg">
<circle cx="98.5" cy="106.5" r="5.5" fill="#EB0029"/>
<path d="M0 0.999998L51 0.999998L51 53" stroke="#DADADA"/>
<circle cx="51.5" cy="58.5" r="5.5" fill="#EB0029"/>
<path d="M98.9932 106.514H134.007" stroke="#DADADA"/>
<path d="M71.3551 78H32.6455C32.1113 78 31.6777 78.4335 31.6777 78.9677V119.613C31.6777 120.147 32.1113 120.581 32.6455 120.581H71.3551C71.8893 120.581 72.3229 120.147 72.3229 119.613V78.9677C72.3229 78.4335 71.8893 78 71.3551 78Z" fill="#EB0029"/>
<path d="M77.1613 87.6774H72.3226V89.6129H77.1613C78.7619 89.6129 80.0645 90.9155 80.0645 92.5161V123.484C80.0645 125.085 78.7619 126.387 77.1613 126.387H26.8387C25.2381 126.387 23.9355 125.085 23.9355 123.484V92.5161C23.9355 90.9155 25.2381 89.6129 26.8387 89.6129H31.6774V87.6774H26.8387C24.1706 87.6774 22 89.8481 22 92.5161V123.484C22 126.152 24.1706 128.323 26.8387 128.323H45.2258V130.36L27.8065 132.295V138H76.1935V132.295L58.7742 130.36V128.323H77.1613C79.8293 128.323 82 126.152 82 123.484V92.5161C82 89.8481 79.8293 87.6774 77.1613 87.6774ZM29.7419 134.027L45.2258 132.307V136.065H29.7419V134.027ZM74.2581 134.027V136.065H58.7742V132.307L74.2581 134.027ZM56.8387 136.065H47.1613V128.323H56.8387V136.065Z" fill="#381E54"/>
<path d="M31.678 93.4838V91.5483H27.8071C26.7396 91.5483 25.8716 92.4164 25.8716 93.4838V122.516C25.8716 123.583 26.7396 124.452 27.8071 124.452H72.3232V122.516H27.8071V93.4838H31.678Z" fill="#381E54"/>
<path d="M76.1932 122.516H74.2577V124.452H76.1932C77.2607 124.452 78.1287 123.583 78.1287 122.516V93.4838C78.1287 92.4164 77.2607 91.5483 76.1932 91.5483H72.3223V93.4838H76.1932V122.516Z" fill="#381E54"/>
<path d="M67.7999 116.71L66.4847 112.106C65.7841 109.657 63.7983 107.825 61.3005 107.325L55.8715 106.239V105.984C57.6618 104.945 58.9954 103.211 59.5063 101.151C61.2918 100.808 62.6457 99.239 62.6457 97.3548V92.5161C62.6457 86.6467 57.8699 81.8709 52.0005 81.8709C46.1312 81.8709 41.3554 86.6467 41.3554 92.5161V97.3548C41.3554 99.239 42.7092 100.808 44.4947 101.152C45.0057 103.212 46.3392 104.946 48.1296 105.985V106.24L42.7015 107.325C40.2038 107.825 38.217 109.657 37.5173 112.106L36.2012 116.71H67.7999ZM50.065 106.778C50.6854 106.938 51.3308 107.032 52.0005 107.032C52.6702 107.032 53.3157 106.938 53.936 106.778V107.032C53.936 108.1 53.0679 108.968 52.0005 108.968C50.9331 108.968 50.065 108.1 50.065 107.032V106.778ZM59.7425 99.0212V95.6893C60.3183 96.0251 60.7102 96.6425 60.7102 97.3557C60.7102 98.069 60.3183 98.6854 59.7425 99.0212ZM52.0005 83.8064C56.8034 83.8064 60.7102 87.7141 60.7102 92.5161V94.0219C60.1383 93.689 59.4831 93.4838 58.7747 93.4838C56.5373 93.4838 54.4334 92.6128 52.8502 91.0287L52.0005 90.1819L51.1499 91.0296C49.5676 92.6128 47.4637 93.4838 45.2263 93.4838C44.5179 93.4838 43.8628 93.689 43.2908 94.0219V92.5161C43.2908 87.7141 47.1976 83.8064 52.0005 83.8064ZM43.2908 97.3548C43.2908 96.6416 43.6828 96.0241 44.2586 95.6883V99.0203C43.6828 98.6854 43.2908 98.068 43.2908 97.3548ZM46.1941 99.2903V95.3738C48.3502 95.1745 50.366 94.3122 52.0005 92.8828C53.636 94.3112 55.6508 95.1745 57.807 95.3738V99.2903C57.807 102.493 55.2028 105.097 52.0005 105.097C48.7983 105.097 46.1941 102.493 46.1941 99.2903ZM39.3783 112.637C39.8786 110.888 41.2963 109.578 43.0808 109.222L48.3212 108.174C48.8118 109.749 50.2663 110.903 52.0005 110.903C53.7347 110.903 55.1892 109.749 55.6799 108.174L60.9202 109.222C62.7047 109.579 64.1234 110.888 64.6228 112.637L65.2334 114.774H60.4973L59.7125 111.636L57.836 112.105L58.5037 114.774H45.4973L46.1641 112.106L44.2876 111.637L43.5038 114.774H38.7686L39.3783 112.637Z" fill="#381E54"/>
<path d="M37.4843 81.8709H35.5488V83.8064H37.4843V81.8709Z" fill="#381E54"/>
<path d="M41.3549 81.8709H39.4194V83.8064H41.3549V81.8709Z" fill="#381E54"/>
<path d="M68.4516 81.8709H66.5161V83.8064H68.4516V81.8709Z" fill="#381E54"/>
<path d="M64.5805 81.8709H62.645V83.8064H64.5805V81.8709Z" fill="#381E54"/>
</svg>
