<svg width="195" height="138" viewBox="0 0 195 138" fill="none" xmlns="http://www.w3.org/2000/svg">
<path d="M0 108L56 108" stroke="#DADADA"/>
<path d="M110 58V0.999999L195 0.999999" stroke="#DADADA"/>
<circle cx="109.5" cy="58.5" r="5.5" fill="#EB0029"/>
<circle cx="61.5" cy="107.5" r="5.5" fill="#EB0029"/>
<path d="M96.4834 101.193C96.4834 109.21 102.983 115.71 111 115.71V86.6774C102.983 86.6774 96.4834 93.1767 96.4834 101.193Z" fill="#EB0029"/>
<path d="M94.5488 132.194H92.6133V134.129H94.5488V132.194Z" fill="#291956"/>
<path d="M98.4189 132.194H96.4834V134.129H98.4189V132.194Z" fill="#291956"/>
<path d="M137.129 128.323V100.258C137.129 97.5901 134.958 95.4194 132.29 95.4194H128.078C125.373 88.6268 118.745 83.8065 111 83.8065C103.255 83.8065 96.6271 88.6268 93.9223 95.4194H89.7097C87.0416 95.4194 84.871 97.5901 84.871 100.258V128.323H81V133.161C81 135.829 83.1706 138 85.8387 138H136.161C138.829 138 141 135.829 141 133.161V128.323H137.129ZM132.29 97.3549C133.891 97.3549 135.194 98.6575 135.194 100.258V128.323H133.258V99.2904H129.135C129.029 98.6323 128.893 97.9878 128.719 97.3549H132.29ZM111.968 85.7914C120.588 86.2965 127.452 93.4491 127.452 102.194C127.452 110.938 120.588 118.091 111.968 118.596V85.7914ZM105.991 112.884C107.15 112.397 108.505 112.028 110.032 111.914V117.725C108.915 116.801 107.34 115.221 105.991 112.884ZM107.782 118.328C105.555 117.884 103.49 116.985 101.685 115.736C102.202 115.229 103.062 114.484 104.238 113.777C105.369 115.762 106.661 117.261 107.782 118.328ZM105.109 111.149C104.145 109.003 103.424 106.364 103.299 103.161H110.032V109.977C108.153 110.098 106.505 110.55 105.109 111.149ZM103.299 101.226C103.421 98.012 104.134 95.371 105.088 93.2275C106.488 93.8323 108.143 94.2881 110.033 94.4101V101.226H103.299ZM110.032 86.6391V92.4736C108.497 92.3575 107.133 91.982 105.966 91.4875C107.319 89.133 108.906 87.5575 110.032 86.6391ZM104.242 90.6039C103.067 89.8985 102.206 89.1552 101.687 88.6501C103.491 87.4026 105.555 86.5046 107.781 86.0604C106.662 87.1239 105.373 88.622 104.242 90.6039ZM100.155 89.8617C100.755 90.4762 101.835 91.4517 103.357 92.3497C102.285 94.7265 101.489 97.6578 101.363 101.226H94.5968C94.8619 96.7065 96.9629 92.6788 100.155 89.8617ZM101.363 103.161C101.489 106.729 102.285 109.661 103.357 112.037C101.835 112.935 100.755 113.911 100.155 114.526C96.9629 111.708 94.8619 107.681 94.5977 103.161H101.363ZM111 120.581C121.139 120.581 129.387 112.333 129.387 102.194C129.387 101.867 129.355 101.548 129.338 101.226H131.323V128.323H115.839V130.258H117.774V131.226C117.774 131.759 117.34 132.194 116.806 132.194H105.194C104.66 132.194 104.226 131.759 104.226 131.226V130.258H113.903V128.323H90.6774V101.226H92.6623C92.6448 101.548 92.6129 101.867 92.6129 102.194C92.6129 112.333 100.861 120.581 111 120.581ZM86.8065 100.258C86.8065 98.6575 88.109 97.3549 89.7097 97.3549H93.2806C93.1074 97.9878 92.97 98.6323 92.8655 99.2904H88.7419V128.323H86.8065V100.258ZM139.065 133.161C139.065 134.762 137.762 136.065 136.161 136.065H85.8387C84.2381 136.065 82.9355 134.762 82.9355 133.161V130.258H102.29V131.226C102.29 132.827 103.593 134.129 105.194 134.129H116.806C118.407 134.129 119.71 132.827 119.71 131.226V130.258H139.065V133.161Z" fill="#291956"/>
<path d="M119.71 93.4838C117.575 93.4838 115.839 95.2199 115.839 97.3547V99.4683C114.715 99.8689 113.903 100.933 113.903 102.193V106.064C113.903 107.665 115.206 108.968 116.807 108.968H122.613C124.214 108.968 125.516 107.665 125.516 106.064V102.193C125.516 100.933 124.704 99.8689 123.581 99.4683V97.3547C123.581 95.2199 121.845 93.4838 119.71 93.4838ZM119.71 95.4192C120.777 95.4192 121.645 96.2873 121.645 97.3547V99.2902H117.774V97.3547C117.774 96.2873 118.642 95.4192 119.71 95.4192ZM123.581 106.064C123.581 106.598 123.146 107.032 122.613 107.032H116.807C116.273 107.032 115.839 106.598 115.839 106.064V102.193C115.839 101.66 116.273 101.226 116.807 101.226H122.613C123.146 101.226 123.581 101.66 123.581 102.193V106.064Z" fill="#291956"/>
<path d="M126.767 117.905C122.559 122.127 116.96 124.452 111 124.452C107.088 124.452 103.239 123.423 99.873 121.475L98.9033 123.15C102.564 125.267 106.747 126.387 111 126.387C117.478 126.387 123.564 123.86 128.137 119.271L126.767 117.905Z" fill="#291956"/>
<path d="M95.2336 86.4823L93.8623 85.1158C98.4359 80.5268 104.522 78 111 78C115.253 78 119.436 79.1197 123.097 81.2371L122.127 82.9123C118.761 80.9642 114.913 79.9355 111 79.9355C105.04 79.9355 99.4413 82.26 95.2336 86.4823Z" fill="#291956"/>
<path d="M94.5488 132.194H92.6133V134.129H94.5488V132.194Z" fill="#291956"/>
<path d="M98.4189 132.194H96.4834V134.129H98.4189V132.194Z" fill="#291956"/>
<path d="M137.129 128.323V100.258C137.129 97.5901 134.958 95.4194 132.29 95.4194H128.078C125.373 88.6268 118.745 83.8065 111 83.8065C103.255 83.8065 96.6271 88.6268 93.9223 95.4194H89.7097C87.0416 95.4194 84.871 97.5901 84.871 100.258V128.323H81V133.161C81 135.829 83.1706 138 85.8387 138H136.161C138.829 138 141 135.829 141 133.161V128.323H137.129ZM132.29 97.3549C133.891 97.3549 135.194 98.6575 135.194 100.258V128.323H133.258V99.2904H129.135C129.029 98.6323 128.893 97.9878 128.719 97.3549H132.29ZM111.968 85.7914C120.588 86.2965 127.452 93.4491 127.452 102.194C127.452 110.938 120.588 118.091 111.968 118.596V85.7914ZM105.991 112.884C107.15 112.397 108.505 112.028 110.032 111.914V117.725C108.915 116.801 107.34 115.221 105.991 112.884ZM107.782 118.328C105.555 117.884 103.49 116.985 101.685 115.736C102.202 115.229 103.062 114.484 104.238 113.777C105.369 115.762 106.661 117.261 107.782 118.328ZM105.109 111.149C104.145 109.003 103.424 106.364 103.299 103.161H110.032V109.977C108.153 110.098 106.505 110.55 105.109 111.149ZM103.299 101.226C103.421 98.012 104.134 95.371 105.088 93.2275C106.488 93.8323 108.143 94.2881 110.033 94.4101V101.226H103.299ZM110.032 86.6391V92.4736C108.497 92.3575 107.133 91.982 105.966 91.4875C107.319 89.133 108.906 87.5575 110.032 86.6391ZM104.242 90.6039C103.067 89.8985 102.206 89.1552 101.687 88.6501C103.491 87.4026 105.555 86.5046 107.781 86.0604C106.662 87.1239 105.373 88.622 104.242 90.6039ZM100.155 89.8617C100.755 90.4762 101.835 91.4517 103.357 92.3497C102.285 94.7265 101.489 97.6578 101.363 101.226H94.5968C94.8619 96.7065 96.9629 92.6788 100.155 89.8617ZM101.363 103.161C101.489 106.729 102.285 109.661 103.357 112.037C101.835 112.935 100.755 113.911 100.155 114.526C96.9629 111.708 94.8619 107.681 94.5977 103.161H101.363ZM111 120.581C121.139 120.581 129.387 112.333 129.387 102.194C129.387 101.867 129.355 101.548 129.338 101.226H131.323V128.323H115.839V130.258H117.774V131.226C117.774 131.759 117.34 132.194 116.806 132.194H105.194C104.66 132.194 104.226 131.759 104.226 131.226V130.258H113.903V128.323H90.6774V101.226H92.6623C92.6448 101.548 92.6129 101.867 92.6129 102.194C92.6129 112.333 100.861 120.581 111 120.581ZM86.8065 100.258C86.8065 98.6575 88.109 97.3549 89.7097 97.3549H93.2806C93.1074 97.9878 92.97 98.6323 92.8655 99.2904H88.7419V128.323H86.8065V100.258ZM139.065 133.161C139.065 134.762 137.762 136.065 136.161 136.065H85.8387C84.2381 136.065 82.9355 134.762 82.9355 133.161V130.258H102.29V131.226C102.29 132.827 103.593 134.129 105.194 134.129H116.806C118.407 134.129 119.71 132.827 119.71 131.226V130.258H139.065V133.161Z" fill="#291956"/>
<path d="M119.71 93.4838C117.575 93.4838 115.839 95.2199 115.839 97.3547V99.4683C114.715 99.8689 113.903 100.933 113.903 102.193V106.064C113.903 107.665 115.206 108.968 116.807 108.968H122.613C124.214 108.968 125.516 107.665 125.516 106.064V102.193C125.516 100.933 124.704 99.8689 123.581 99.4683V97.3547C123.581 95.2199 121.845 93.4838 119.71 93.4838ZM119.71 95.4192C120.777 95.4192 121.645 96.2873 121.645 97.3547V99.2902H117.774V97.3547C117.774 96.2873 118.642 95.4192 119.71 95.4192ZM123.581 106.064C123.581 106.598 123.146 107.032 122.613 107.032H116.807C116.273 107.032 115.839 106.598 115.839 106.064V102.193C115.839 101.66 116.273 101.226 116.807 101.226H122.613C123.146 101.226 123.581 101.66 123.581 102.193V106.064Z" fill="#291956"/>
<path d="M126.767 117.905C122.559 122.127 116.96 124.452 111 124.452C107.088 124.452 103.239 123.423 99.873 121.475L98.9033 123.15C102.564 125.267 106.747 126.387 111 126.387C117.478 126.387 123.564 123.86 128.137 119.271L126.767 117.905Z" fill="#291956"/>
<path d="M95.2336 86.4823L93.8623 85.1158C98.4359 80.5268 104.522 78 111 78C115.253 78 119.436 79.1197 123.097 81.2371L122.127 82.9123C118.761 80.9642 114.913 79.9355 111 79.9355C105.04 79.9355 99.4413 82.26 95.2336 86.4823Z" fill="#291956"/>
<path d="M96.4843 123.452C94.3494 123.452 92.6133 121.715 92.6133 119.581C92.6133 117.446 94.3494 115.71 96.4843 115.71C98.6191 115.71 100.355 117.446 100.355 119.581C100.355 121.715 98.6191 123.452 96.4843 123.452Z" fill="#EB0029"/>
<path d="M125.516 86.6774C123.382 86.6774 121.646 84.9412 121.646 82.8064C121.646 80.6716 123.382 78.9354 125.516 78.9354C127.651 78.9354 129.387 80.6716 129.387 82.8064C129.387 84.9412 127.651 86.6774 125.516 86.6774Z" fill="#EB0029"/>
</svg>
