<svg xmlns="http://www.w3.org/2000/svg" fill="none"><symbol id="a" preserveAspectRatio="none" viewBox="0 0 494 494"><path fill="#F8F8F8" d="M0 0h494v494h-494z"/></symbol><symbol id="b" viewBox="0 0 494 494"><path fill-rule="evenodd" clip-rule="evenodd" d="M208.491 204.786c.007.43.16.795.462 1.093.304.3.668.446 1.089.437.422-.005.779-.162 1.07-.469.292-.309.436-.68.427-1.111-.006-.431-.161-.797-.464-1.097-.303-.297-.665-.443-1.087-.434-.42.007-.777.167-1.069.476-.291.307-.434.675-.428 1.105zm15.949-5.941c.36.129.759.081 1.199-.145.253-.13.475-.303.668-.517.193-.213.335-.443.424-.691l-.521-.33c-.072-.043-.134-.051-.185-.025l-.08.093-.095.166-.149.192c-.061.066-.143.127-.246.18-.18.092-.354.109-.526.052-.17-.057-.315-.206-.433-.445l-1.681-3.412 1.61-.827-.357-.724-1.61.828-.965-1.958-.495.254c-.062.032-.103.074-.124.129l-.006.178.639 1.871-.853.588.196.397c.037.076.084.119.141.133.059.015.117.009.175-.022l.671-.344 1.714 3.479c.233.471.53.771.889.9zm3.472-11.351l2.843 8.784 1.046-.352-1.44-4.449c.138-.333.317-.621.535-.862.218-.241.481-.413.793-.519.417-.141.769-.121 1.055.063.286.183.503.505.65.962l1.246 3.847 1.045-.353-1.245-3.846c-.111-.343-.254-.641-.432-.893-.177-.254-.38-.455-.61-.599-.231-.146-.487-.23-.77-.256-.283-.026-.586.016-.91.126-.4.135-.728.336-.983.605-.254.269-.463.584-.627.943l-1.151-3.554-1.045.353zm15.365-.408c-.33-.087-.682-.108-1.052-.063-.448.055-.842.184-1.181.388-.339.204-.617.461-.832.772-.216.312-.366.667-.453 1.065-.088.4-.106.82-.054 1.26.063.544.193 1.018.389 1.419.196.403.443.728.739.982.296.252.633.43 1.011.533.377.104.779.13 1.207.078.224-.027.447-.076.67-.143.224-.068.439-.153.643-.258.205-.105.393-.232.566-.377.173-.146.317-.309.431-.492l-.353-.367c-.057-.065-.13-.092-.22-.081-.069.008-.147.05-.235.126l-.334.253c-.134.093-.294.182-.484.271-.19.088-.422.15-.695.184-.294.036-.564.018-.812-.05-.247-.069-.468-.192-.663-.368-.194-.176-.357-.406-.489-.689-.133-.283-.226-.624-.282-1.022l4.136-.507c.102-.011.167-.049.197-.112.029-.063.034-.182.014-.356-.053-.449-.165-.842-.337-1.178-.171-.335-.385-.609-.643-.819-.259-.211-.553-.36-.884-.449zm-2.116 1.367c.264-.347.66-.552 1.185-.615.248-.031.475-.017.681.045.205.061.386.162.541.3.155.14.281.313.377.518.096.205.159.437.19.695l-3.385.414c.009-.557.145-1.01.411-1.357zm18.032-.552l-1.745 6.109 1.058.314 1.301-4.553c.254-.189.513-.324.774-.401.261-.077.521-.076.781.002.37.11.617.314.741.613s.116.693-.024 1.183l-1.111 3.89 1.057.314 1.111-3.889c.07-.241.166-.443.287-.606.121-.162.257-.286.409-.371.152-.086.316-.137.49-.152.173-.017.345.001.519.053.385.115.646.326.78.634s.132.702-.004 1.181l-1.111 3.889 1.057.315 1.111-3.89c.106-.369.155-.712.146-1.027-.009-.314-.069-.595-.185-.842-.114-.248-.281-.462-.496-.636-.218-.176-.485-.311-.8-.405-.197-.058-.397-.091-.601-.1-.205-.008-.408.014-.607.068-.199.054-.388.142-.57.262-.182.12-.349.277-.499.474.001-.424-.089-.786-.274-1.09-.184-.303-.478-.515-.88-.635-.362-.108-.707-.114-1.033-.02-.326.095-.638.249-.938.461l.103-.651c.006-.159-.065-.261-.215-.306l-.632-.188zm17.158 7.237c-.238-.322-.554-.6-.947-.834-.396-.237-.791-.382-1.184-.438-.394-.055-.773-.027-1.137.086-.364.113-.703.307-1.022.586-.318.278-.602.633-.848 1.062-.248.435-.412.861-.491 1.279-.08.418-.08.815.002 1.194s.246.729.488 1.05c.24.321.559.6.954.836.394.235.786.379 1.177.436.391.056.767.029 1.131-.085.364-.113.706-.306 1.022-.583.318-.276.6-.632.848-1.065.246-.431.411-.856.492-1.276.081-.419.079-.818-.003-1.197-.083-.379-.243-.729-.482-1.051zm-2.251 4.231c-.47.208-.971.153-1.502-.164-.538-.321-.833-.742-.89-1.263-.055-.52.101-1.106.474-1.756.186-.327.388-.599.601-.818.213-.22.437-.378.671-.475.234-.098.478-.135.732-.109.254.025.515.118.783.278.532.318.823.736.876 1.258.054.521-.107 1.109-.482 1.764-.372.651-.792 1.078-1.263 1.285zm7.638 7.451c-.07.144-.046.268.071.374l.49.439 5.981-6.949-.822-.738-2.282 2.651c-.007-.323-.067-.626-.188-.909-.119-.282-.323-.552-.61-.81-.314-.282-.65-.471-1.011-.569-.361-.098-.725-.113-1.089-.044-.365.068-.723.212-1.077.433s-.683.508-.986.86c-.342.396-.602.784-.781 1.164-.18.38-.28.741-.302 1.083-.022.343.032.664.16.966.128.302.325.573.593.814.333.298.694.489 1.079.569.387.082.785.089 1.199.02l-.425.646zm-.128-1.225c-.31-.055-.601-.205-.873-.448-.187-.169-.326-.353-.418-.551-.09-.2-.125-.416-.103-.651.021-.234.101-.486.24-.755.138-.268.341-.557.609-.869.506-.587 1.013-.936 1.521-1.043.507-.108.979.034 1.413.423.222.198.385.421.491.666.105.245.146.541.121.887l-1.986 2.307c-.367.078-.705.09-1.015.034zm11.001 4.823c-.096-.335-.26-.653-.488-.954-.276-.365-.586-.644-.933-.837-.345-.191-.704-.302-1.076-.331-.372-.029-.749.022-1.128.15-.38.128-.743.328-1.087.6-.424.336-.755.693-.992 1.071s-.384.762-.445 1.151c-.06.389-.037.776.071 1.16.107.383.291.749.555 1.096.138.183.294.354.465.515.171.161.354.305.547.43.194.126.396.225.607.302.211.077.423.119.635.125l.128-.498c.025-.083.01-.162-.046-.235-.042-.055-.117-.103-.226-.141l-.385-.161c-.146-.07-.304-.165-.476-.286-.172-.121-.343-.292-.511-.514-.181-.239-.306-.484-.375-.737-.07-.253-.08-.509-.032-.769.049-.261.158-.522.327-.783.17-.262.408-.518.714-.772l2.55 3.362c.063.083.128.121.197.115.068-.006.17-.063.306-.171.35-.276.623-.577.817-.9.193-.322.313-.65.357-.984.044-.334.019-.669-.076-1.004zm-2.237-1.153c.427.054.802.295 1.126.723.153.201.257.407.312.619.054.211.063.421.025.628-.036.207-.117.406-.241.597-.123.189-.286.364-.487.522l-2.087-2.751c.473-.279.925-.392 1.352-.338zm6.13 7.391l-5.568 2.861.496 1.004 3.516-1.807c.226-.027.433-.036.622-.025.189.011.363.046.518.105.155.058.294.144.417.259.123.115.228.262.316.442.063.128.108.247.136.359l.08.247c.045.09.118.122.221.097l.767-.302c.012-.114.004-.232-.024-.355-.029-.124-.074-.247-.132-.366-.186-.379-.45-.644-.794-.797-.345-.154-.753-.222-1.222-.207l.815-.496c.092-.066.148-.129.167-.192.02-.061.004-.146-.049-.254l-.282-.573zm3.618 8.254l-6.006 1.694.293 1.084 4.423-1.248c.319.158.592.355.817.589.225.234.381.511.468.834.117.431.079.79-.113 1.073-.194.282-.519.487-.974.615l-3.825 1.079.294 1.085 3.824-1.08c.34-.096.638-.228.894-.396.257-.168.464-.365.617-.592.154-.229.249-.486.288-.773.04-.287.014-.599-.078-.934-.116-.431-.309-.788-.576-1.069-.267-.281-.582-.513-.942-.698l.629-.269c.136-.077.184-.193.142-.347l-.175-.647zm-3.056 19.993c-.283.261-.432.642-.449 1.143-.009.289.033.572.126.847.091.275.221.512.392.71l.532-.309c.072-.043.108-.094.11-.153l-.041-.117-.098-.165-.093-.224c-.029-.087-.041-.19-.038-.308.007-.205.076-.37.207-.495.131-.126.328-.184.59-.176l3.738.124-.058 1.84.793.026.058-1.84 2.146.071.018-.566c.003-.07-.015-.128-.052-.173l-.149-.091-1.916-.32-.096-1.047-.437-.014c-.081-.003-.142.018-.182.063-.041.045-.063.1-.065.167l-.024.766-3.813-.126c-.516-.016-.916.106-1.199.367zm4.253 11.913c.195-.286.335-.615.421-.986.105-.449.124-.87.053-1.266-.07-.396-.21-.751-.422-1.065-.211-.314-.486-.581-.822-.802-.336-.222-.716-.385-1.138-.488-.523-.127-1.003-.166-1.44-.118-.437.049-.822.172-1.156.368-.335.197-.616.458-.842.785-.225.325-.389.701-.488 1.129-.053.224-.085.455-.101.692-.015.237-.01.473.015.705.026.233.077.456.151.671.074.217.174.411.302.584l.46-.211c.08-.032.13-.093.151-.183.016-.069.005-.157-.034-.268l-.118-.408c-.039-.16-.065-.345-.081-.557-.016-.213.007-.457.071-.73.068-.293.178-.547.327-.76.149-.214.338-.382.567-.508.23-.124.497-.202.803-.231.306-.028.651 0 1.036.084l-.965 4.137c-.024.102-.012.178.035.228.048.051.155.096.322.137.431.105.832.133 1.199.085.367-.049.693-.159.976-.334.283-.174.521-.404.718-.69zm-.523-2.501c.227.374.278.823.156 1.348-.059.248-.15.46-.277.636-.128.176-.282.315-.464.415-.182.1-.383.16-.606.182-.221.021-.457.001-.704-.059l.789-3.385c.51.201.88.489 1.106.863zm-4.393 13.054l.054.136.236.436c.343-.13.649-.317.918-.567.268-.249.494-.579.677-.986.197-.437.299-.857.306-1.263.006-.404-.068-.783-.223-1.133-.155-.352-.385-.673-.689-.962-.303-.287-.665-.531-1.086-.729-.462-.217-.902-.346-1.321-.386-.42-.041-.805-.005-1.156.106-.35.112-.662.293-.932.541-.271.249-.486.554-.649.915-.095.209-.171.422-.228.639-.057.218-.092.437-.102.656-.011.219.002.431.038.642.036.21.102.415.198.612l.492-.115c.083-.015.145-.065.182-.149.031-.068.034-.15.008-.247l-.075-.354c-.024-.138-.027-.301-.013-.488.015-.186.077-.404.188-.652.117-.258.27-.467.458-.63.189-.162.406-.274.653-.336.247-.061.522-.07.825-.025.302.045.623.148.966.309.328.155.607.332.838.53.231.199.406.415.527.649.12.234.181.482.183.746 0 .263-.064.537-.193.822-.096.213-.2.383-.312.508-.113.124-.221.223-.323.297l-.266.181c-.078.047-.13.099-.155.155l-.024.142zm.579 7.619l-7.347-5.415-.644.911 3.721 2.743c.079.353.098.693.061 1.019-.039.325-.152.623-.345.895-.257.363-.553.557-.89.58-.337.023-.697-.108-1.08-.39l-3.217-2.371-.645.912 3.217 2.37c.286.211.574.366.863.466.289.099.569.14.838.119.27-.02.527-.105.771-.252.244-.149.465-.365.664-.647.247-.35.398-.709.449-1.079.052-.371.041-.751-.033-1.14l2.972 2.19.645-.911zm-9.204 7.313l-4.268-4.636-.802.77 3.143 3.413c.011.362-.032.7-.13 1.012-.097.313-.265.582-.505.813-.319.306-.647.44-.982.396-.335-.043-.665-.241-.987-.592l-2.718-2.952-.802.77 2.717 2.952c.242.262.495.47.76.624.265.153.533.247.801.28.269.032.537-.002.803-.099.269-.098.526-.268.774-.506.32-.307.538-.647.658-1.019.118-.372.173-.765.165-1.177l.527.444c.131.087.253.076.366-.034l.48-.459zm-11.859 9.401c.389-.069.776-.226 1.161-.475.389-.249.697-.54.927-.871.229-.331.379-.688.449-1.069.069-.382.057-.779-.039-1.197-.095-.416-.272-.837-.533-1.258-.262-.424-.557-.769-.884-1.034-.326-.265-.672-.448-1.04-.548-.367-.1-.746-.113-1.136-.043-.391.071-.78.23-1.168.48-.385.248-.692.537-.92.866-.229.328-.379.682-.448 1.064-.07.381-.059.78.035 1.194.094.416.274.835.536 1.26.26.421.554.767.882 1.034.327.267.675.448 1.042.548.367.1.746.116 1.136.049zm-2.642-3.991c.037-.521.314-.95.835-1.285.527-.34 1.029-.414 1.508-.225.478.19.914.602 1.308 1.239.197.319.342.626.434.922.093.294.127.569.103.826-.022.257-.103.496-.242.714-.14.218-.34.412-.603.581-.52.336-1.02.407-1.497.215-.478-.192-.915-.61-1.311-1.25-.394-.637-.572-1.216-.535-1.737zm-7.246 2.068l3.675 8.457 1-.453-3.674-8.457-1.001.453zm-7.074 8.634c.389.07.806.055 1.251-.047.448-.102.834-.269 1.158-.502.325-.234.585-.518.776-.853.191-.335.31-.715.359-1.14.047-.425.018-.881-.088-1.368-.107-.49-.272-.916-.493-1.277-.218-.362-.484-.653-.798-.874-.312-.22-.665-.363-1.055-.43-.391-.068-.811-.051-1.258.051-.445.101-.828.268-1.152.498-.323.231-.581.512-.773.847-.191.336-.312.716-.36 1.139-.048.423-.018.879.09 1.369.106.487.269.912.489 1.276.22.365.488.656.801.876.312.22.664.365 1.053.435zm-1.172-4.664c.207-.478.609-.786 1.21-.924.609-.138 1.106-.035 1.494.308.389.342.663.88.825 1.615.08.368.115.708.104 1.017-.01.309-.068.58-.175.814-.106.235-.26.431-.463.589-.203.158-.455.271-.76.341-.6.136-1.094.032-1.48-.313-.386-.345-.661-.887-.823-1.627-.161-.736-.138-1.342.068-1.82zm-9.174 5.963c.235.057.488.081.758.076.345-.006.66-.06.946-.162.288-.101.536-.242.742-.424.206-.182.364-.4.476-.656.113-.256.167-.539.162-.848-.008-.386-.099-.724-.276-1.014-.179-.289-.422-.519-.733-.689.13-.07.243-.149.34-.239.097-.09.177-.183.243-.281.066-.098.116-.195.146-.294.031-.099.046-.195.045-.287-.005-.239-.062-.426-.17-.565-.109-.138-.257-.248-.443-.328.329-.136.589-.315.778-.537.188-.221.28-.488.275-.802-.005-.222-.066-.432-.182-.634-.117-.201-.288-.377-.516-.528-.229-.151-.514-.269-.855-.354-.342-.086-.741-.125-1.196-.116-.455.008-.864.076-1.225.203-.361.126-.663.29-.91.493-.246.204-.435.434-.564.692-.129.258-.189.523-.184.795.005.292.068.53.193.712.124.182.287.324.485.424.199.102.424.173.677.214.253.042.511.07.777.084.264.014.522.021.776.025.252.004.477.021.675.051.198.029.357.083.479.159.122.074.186.186.188.337.001.093-.032.187-.098.284-.065.098-.162.19-.291.276-.26-.066-.538-.096-.833-.091-.336.006-.647.06-.933.162-.285.101-.528.244-.73.428-.202.184-.36.404-.473.66-.112.256-.164.538-.158.847.006.335.08.637.225.906l-.705.115c-.172.04-.257.13-.254.268l.007.415 1.692-.032c.194.114.409.199.644.255zm-1.202-6.326c-.087-.094-.133-.219-.135-.374-.004-.167.037-.321.12-.461.084-.14.205-.261.365-.364.16-.104.358-.185.59-.244.233-.059.497-.091.793-.097.302-.005.565.017.79.065.225.048.412.116.561.203.15.087.26.192.335.315.073.122.113.253.115.395.005.227-.066.422-.209.588-.142.166-.327.306-.554.418-.206-.025-.419-.041-.641-.05l-.657-.025-.612-.041c-.193-.02-.363-.056-.51-.107-.147-.052-.263-.126-.351-.221zm1.318 3.147c.166-.065.36-.101.581-.105.223-.004.418.023.587.083.169.06.313.145.429.256.117.111.206.246.268.401.062.156.096.328.099.516.007.389-.104.701-.331.936-.228.235-.562.356-1.005.364-.439.008-.777-.1-1.013-.327-.236-.225-.357-.533-.364-.922-.003-.188.023-.361.078-.519.054-.158.137-.296.25-.411.114-.115.254-.206.421-.272zm-7.981-3.699l-.83 6.306 1.086.149.829-6.306-1.085-.149zm-1.218 7.962c-.055.088-.088.184-.102.292-.014.109-.008.215.022.319.03.103.075.195.137.277.062.083.138.151.228.205.09.054.189.089.295.104.105.014.205.007.302-.022.097-.029.186-.074.265-.137.078-.063.144-.14.197-.232.054-.092.088-.193.102-.301.014-.108.008-.211-.021-.31-.028-.099-.072-.189-.132-.271-.059-.083-.133-.151-.219-.206-.086-.054-.181-.087-.287-.102-.105-.015-.21-.008-.311.02-.101.029-.192.076-.272.139-.081.063-.149.137-.204.225zm-9.117-5.181l-.124.074-.387.304c.175.327.402.608.684.842.281.235.633.413 1.055.539.452.135.874.175 1.267.122.393-.053.749-.183 1.067-.391.318-.208.595-.488.829-.837.234-.348.417-.75.546-1.205.143-.498.203-.962.181-1.392-.023-.43-.115-.813-.275-1.15-.16-.337-.381-.626-.661-.861-.281-.237-.607-.411-.981-.523-.217-.064-.435-.109-.653-.134-.219-.026-.437-.028-.65-.007-.213.022-.418.066-.617.133s-.386.164-.564.29l.184.48c.028.083.085.136.171.162.072.022.151.012.241-.029l.331-.128c.131-.044.288-.071.471-.084.184-.013.403.017.659.094.268.079.493.203.678.369.186.167.326.37.422.611.097.239.145.516.146.828.001.311-.052.651-.157 1.021-.101.354-.232.663-.39.925s-.342.471-.551.628c-.21.155-.44.254-.696.294-.254.039-.529.015-.824-.074-.22-.065-.401-.145-.538-.24s-.249-.19-.336-.281l-.215-.243c-.057-.071-.114-.117-.173-.134l-.14-.003zm-6.37-8.425c-.035-.06-.099-.114-.194-.165l-.43-.229-1.843 3.609c-.161.316-.267.627-.318.936-.05.308-.042.598.027.871s.197.525.384.757c.187.232.435.429.744.594.429.229.858.362 1.287.401.428.039.872-.01 1.331-.148l-.012-.41-.054-.194c-.029-.061-.077-.109-.141-.144-.084-.045-.186-.059-.303-.043l-.41.044c-.158.013-.332.007-.526-.017-.193-.025-.408-.102-.648-.23-.357-.189-.571-.446-.642-.769-.069-.323.007-.705.231-1.143l.224-.44c.637.32 1.197.545 1.682.673.485.128.904.183 1.254.167.351-.016.638-.095.863-.237.225-.143.395-.326.509-.548.131-.256.202-.5.215-.731.015-.232-.017-.446-.094-.643-.078-.197-.195-.376-.353-.537-.158-.162-.343-.301-.558-.416-.211-.111-.414-.193-.607-.246-.192-.053-.383-.084-.571-.092-.187-.007-.378.004-.572.035-.195.032-.397.075-.61.132l.16-.588c.018-.108.01-.191-.025-.249zm1.58 1.551c-.171-.091-.336-.155-.496-.195-.16-.041-.32-.062-.479-.064-.159-.001-.319.014-.482.048-.163.033-.328.081-.498.141l-.597 1.17c.455.223.854.39 1.197.5.344.11.639.17.885.183.246.012.445-.021.599-.099.153-.079.271-.197.35-.352.076-.149.118-.289.125-.422.008-.133-.012-.255-.059-.368-.047-.112-.118-.213-.213-.304s-.204-.17-.332-.238zm-7.16-5.301l-5.304 7.501.887.654 5.305-7.501-.888-.654zm-8.949-8.632l-7.421 5.308-.632-.92 3.003-2.148c-.385-.057-.74-.171-1.065-.342-.326-.172-.609-.435-.852-.787-.195-.285-.322-.57-.379-.854-.057-.283-.05-.559.019-.826.069-.267.199-.524.386-.769.186-.247.424-.473.713-.679l3.25-2.324.631.92-3.249 2.325c-.387.276-.626.58-.716.913-.089.333-.007.682.245 1.049.188.275.426.483.715.626.289.144.61.236.962.276l3.759-2.688.631.92zm-7.927-8.611l-3.632 1.645.443 1.022 3.633-1.646c.323-.145.598-.321.829-.524.231-.203.404-.428.52-.678.116-.249.171-.519.169-.809-.003-.289-.072-.593-.209-.91-.177-.406-.417-.728-.721-.965-.303-.239-.645-.423-1.029-.551l.578-.358c.123-.102.152-.225.089-.37l-.265-.609-5.696 2.58.444 1.021 4.2-1.901c.344.11.643.265.897.466.253.202.444.451.574.75.179.413.195.773.046 1.081-.149.308-.439.56-.87.756zm-1.146-9.487l-6.082 1.387-.144-.656c-.034-.156.019-.269.16-.34l.641-.236c-.351-.203-.654-.451-.906-.746-.254-.293-.428-.659-.524-1.096-.075-.34-.086-.652-.033-.937.054-.285.162-.537.326-.757.164-.219.38-.405.644-.56.265-.155.569-.272.913-.35l3.873-.883.24 1.097-3.872.883c-.461.105-.796.293-1.003.566-.207.272-.262.628-.166 1.065.071.327.214.612.427.856.214.246.475.457.787.631l4.478-1.022.241 1.098zm-1.993-10.776c.271-.276.401-.663.392-1.165-.006-.289-.062-.568-.167-.839-.105-.27-.247-.5-.427-.689l-.517.335c-.068.049-.103.101-.102.16l.048.115.106.159.104.22c.032.085.051.186.053.304.003.205-.057.374-.182.506-.125.133-.318.201-.581.206l-3.74.069-.033-1.84-.793.016.033 1.84-2.146.039.01.566c.001.071.021.127.06.171l.153.082 1.93.222.148 1.04.437-.009c.081-.002.141-.026.179-.072.038-.047.057-.104.056-.17l-.013-.766 3.813-.072c.517-.009.91-.153 1.179-.428zm-5.663-8.628l6.21.527-.091 1.115-6.21-.527.091-1.115zm-1.639-.313c-.089-.051-.184-.081-.291-.09-.106-.009-.21.003-.31.039s-.188.087-.265.154c-.078.066-.14.147-.189.242-.049.095-.078.198-.086.306-.009.109.003.21.036.307.033.099.082.186.148.263.065.078.144.141.237.191.093.05.193.079.3.088.106.01.206-.003.3-.038.096-.033.183-.083.26-.147.077-.066.141-.144.189-.235.049-.09.078-.189.086-.297.01-.108-.003-.214-.036-.317-.032-.101-.082-.191-.148-.27-.066-.079-.143-.145-.231-.196zm8.51-4.177l-5.983-1.781.184-.645c.044-.153.144-.226.3-.218l.674.108c-.212-.35-.36-.717-.442-1.099-.083-.383-.064-.789.059-1.219.096-.334.233-.614.414-.837.182-.222.396-.39.644-.501.248-.112.524-.169.829-.175.305-.005.627.043.965.144l3.809 1.135-.308 1.078-3.809-1.133c-.453-.135-.835-.136-1.145.001-.31.136-.526.421-.649.851-.092.322-.102.642-.032.961.072.32.202.634.392.939l4.406 1.312-.308 1.079zm-1.087-15.326c-.161.184-.303.399-.428.643-.159.313-.263.62-.313.926-.05.307-.047.596.011.868.057.272.17.518.336.741.166.223.384.407.653.551.334.177.669.256 1.003.235.334-.02.649-.129.944-.326-.003.15.011.29.042.42.032.129.074.246.126.352.052.106.112.197.182.272.07.075.147.134.227.177.207.11.396.149.566.117.172-.031.337-.111.495-.239-.041.36-.011.678.089.954.1.275.286.485.559.63.193.102.403.148.632.14.228-.008.462-.077.701-.21.239-.133.477-.331.714-.598.238-.265.461-.604.672-1.016.21-.412.347-.811.411-1.195s.067-.734.01-1.053c-.057-.318-.165-.597-.325-.836s-.359-.42-.595-.546c-.255-.135-.49-.192-.706-.167-.215.024-.414.102-.596.232-.183.13-.351.297-.508.504-.156.207-.305.426-.444.657-.138.23-.269.459-.392.683-.124.225-.247.419-.367.582-.12.163-.242.28-.365.354-.123.073-.25.077-.38.007-.081-.043-.146-.118-.199-.224-.052-.105-.085-.236-.097-.393.181-.201.34-.436.476-.703.156-.304.258-.609.308-.914.048-.304.042-.591-.02-.859-.061-.27-.176-.516-.342-.74-.166-.222-.383-.404-.652-.547-.291-.155-.587-.232-.888-.232l.241-.687c.046-.173.01-.292-.111-.356l-.36-.191-.781 1.531c-.191.121-.368.272-.529.456zm6.404 2.006c-.135-.072-.264-.091-.387-.058-.124.034-.242.103-.357.21-.114.106-.228.242-.336.406-.11.163-.218.34-.328.529l-.255.437-.081.139c-.114.195-.23.379-.35.551-.012.258.02.49.094.697.075.207.21.364.406.469.124.066.256.093.396.085.141-.008.283-.057.43-.149.146-.092.294-.228.443-.406.148-.178.294-.404.434-.678.136-.268.235-.519.296-.756.06-.237.085-.453.073-.647-.013-.192-.06-.358-.139-.501-.081-.141-.194-.251-.339-.328zm-3.725-.382c-.023.181-.085.372-.188.573-.103.201-.22.362-.352.485-.132.123-.274.211-.425.263-.151.051-.309.067-.473.048-.164-.019-.327-.071-.491-.158-.339-.179-.553-.428-.647-.744-.092-.317-.037-.675.168-1.076.203-.396.458-.649.765-.751.308-.104.629-.065.968.116.164.086.299.191.409.317.11.123.188.265.233.421.045.156.056.325.033.506zm37.429-5.718c.023-1.55.729-6.711-1.161-7.411-1.758-.653-2.042 1.85-2.259 3.094-.861 4.939-.937 12.245-.923 17.311.008 2.947.023 5.602.027 8.202-6.851 2.326-13.205 4.446-15.924 5.317-1.778.57-1.911 2.312-.901 2.71.536.213 8.263-2.299 16.823-5.153-.017 6.637-.151 10.066-.702 21.088-4.061 1.373-10.791 2.818-14.663 4.133-1.563.531-2.215.656-1.833 2.269l.092.217.082.16c.17.285.343.468.605.666.205.152.393.258.622.369 2.386 1.052 5.849 1.418 8.317 2.086.573.168 1.141.371 1.696.589 1.124.486 2.116.947 3.082 1.727.321.255.685.494 1.02.734.184.129.492.428.862.81.042 2.182.138 4.115.298 5.327.216 1.64.577 3.18 2.523 3.207 3.117.046 2.586-6.505 1.886-8.469-.394-1.108-.758-.752-.902-2.17-.12-1.185-.072-4.457.193-9.515 2.089-.889 10.605-3.859 19.312-6.833-.052 6.517-.043 13.018-.152 19.853-.023 1.55-.362 6.795 2.439 7.134 2.8.34 2.929-5.749 2.702-6.991-.926-5.07-.872-8.115-.886-13.181-.009-2.947-.024-5.602-.027-8.202 6.851-2.325 13.205-4.445 15.924-5.316 1.778-.571 1.911-2.312.901-2.711-.536-.213-8.264 2.299-16.823 5.153.016-6.637.151-10.065.701-21.087 4.062-1.375 10.801-2.852 14.673-4.167 1.563-.53 2.216-.655 1.833-2.268-.324-1.372-4.157-.402-6.028.142-2.902.843-8.133 2.573-10.51 3.202.049-1.504.278-11.416-.111-16.611-.231-3.088-.495-3.19-1.499-3.089-2.752.276-2.075 17.56-2.237 20.65-2.089.89-10.605 3.86-19.312 6.833.052-6.516.132-12.973.24-19.809m18.199 37.558c-8.74 2.928-17.317 5.826-19.21 6.252.489-9.715.666-14.017.744-21.093 8.741-2.928 17.318-5.826 19.21-6.253-.489 9.717-.666 14.018-.744 21.094m-35.169 14.163c-1.014-.872 8.419-2.529 11.983-3.473-.108 2.016-.174 4.758-.179 7.467-1.28-.978-2.503-1.616-4.095-2.247-.961-.364-1.846-.625-2.813-.929-1.193-.378-3.726-.425-4.896-.818" fill="#4D4D4D"/></symbol><use xmlns:xlink="http://www.w3.org/1999/xlink" xlink:href="#a"/><use xmlns:xlink="http://www.w3.org/1999/xlink" xlink:href="#b"/></svg>