<svg width="60" height="60" viewBox="0 0 60 60" fill="none" xmlns="http://www.w3.org/2000/svg">
<path d="M29.0001 49H31.0001V51H29.0001V49Z" fill="#291956"/>
<path d="M59 51H58V15C58 12.7909 56.2091 11 54 11H50V5C50 2.79087 48.2091 1 46 1H22C19.7909 1 18 2.79087 18 5V6H16C13.7909 6 12 7.79087 12 10V11H6C3.79087 11 2 12.7909 2 15V51H1C0.44775 51 0 51.4477 0 52V55C0 57.2091 1.79087 59 4 59H56C58.2091 59 60 57.2091 60 55V52C60 51.4477 59.5522 51 59 51ZM20 5C20 3.89537 20.8954 3 22 3H46C47.1046 3 48 3.89537 48 5V21C48 22.1046 47.1046 23 46 23H44C43.6852 23 43.3889 23.1482 43.2 23.4L41 26.333L38.8 23.4C38.6111 23.1482 38.3148 23 38 23H22C20.8954 23 20 22.1046 20 21V5ZM14 10C14 8.89537 14.8954 8 16 8H18V21C18 23.2091 19.7909 25 22 25H35V26C35 27.1046 34.1046 28 33 28H26C25.6852 28 25.3889 28.1482 25.2 28.4L23 31.333L20.8 28.4C20.6111 28.1482 20.3148 28 20 28H16C14.8954 28 14 27.1046 14 26V10ZM16 30H19.5L22.2 33.6C22.5314 34.0419 23.1581 34.1314 23.6 33.8C23.6758 33.7431 23.7431 33.6757 23.8 33.6L26.5 30H33C35.2091 30 37 28.2091 37 26V25H37.5L40.2 28.6C40.5314 29.0419 41.1581 29.1314 41.6 28.8C41.6757 28.7431 41.7431 28.6757 41.8 28.6L44.5 25H46C48.2091 25 50 23.2091 50 21V17H52V45H48V44C47.9995 42.3375 47.1727 40.784 45.794 39.855C47.3749 38.3119 47.4055 35.7795 45.8625 34.1985C44.3195 32.6175 41.787 32.587 40.206 34.13C38.625 35.673 38.5945 38.2055 40.1375 39.7865C40.16 39.8096 40.1829 39.8324 40.206 39.855C38.8273 40.784 38.0005 42.3375 38 44V45H22V44C21.9995 42.3375 21.1728 40.784 19.794 39.855C21.3749 38.3119 21.4055 35.7795 19.8625 34.1985C18.3195 32.6175 15.787 32.587 14.206 34.13C12.625 35.673 12.5945 38.2055 14.1375 39.7865C14.16 39.8096 14.1829 39.8324 14.206 39.855C12.8273 40.784 12.0005 42.3375 12 44V45H8V17H12V26C12 28.2091 13.7909 30 16 30ZM43 41C44.6569 41 46 42.3431 46 44V45H40V44C40 42.3431 41.3431 41 43 41ZM41 37C41 35.8954 41.8954 35 43 35C44.1046 35 45 35.8954 45 37C45 38.1046 44.1046 39 43 39C41.8954 39 41 38.1046 41 37ZM17 41C18.6569 41 20 42.3431 20 44V45H14V44C14 42.3431 15.3431 41 17 41ZM15 37C15 35.8954 15.8954 35 17 35C18.1046 35 19 35.8954 19 37C19 38.1046 18.1046 39 17 39C15.8954 39 15 38.1046 15 37ZM4 15C4 13.8954 4.89538 13 6 13H12V15H7C6.44775 15 6 15.4477 6 16V46C6 46.5522 6.44775 47 7 47H53C53.5522 47 54 46.5522 54 46V16C54 15.4477 53.5522 15 53 15H50V13H54C55.1046 13 56 13.8954 56 15V51H39C38.7347 51 38.4805 51.1055 38.293 51.293L36.586 53H23.414L21.707 51.293C21.5195 51.1055 21.2652 51 21 51H4V15ZM58 55C58 56.1046 57.1046 57 56 57H4C2.89538 57 2 56.1046 2 55V53H20.586L22.293 54.707C22.4805 54.8945 22.7348 55 23 55H37C37.2653 55 37.5195 54.8945 37.707 54.707L39.414 53H58V55Z" fill="#291956"/>
<path d="M28.9999 6H44.9999V8H28.9999V6Z" fill="#EB0029"/>
<path d="M23 9.99951H45V11.9995H23V9.99951Z" fill="#EB0029"/>
<path d="M23 14H45V16H23V14Z" fill="#EB0029"/>
<path d="M23 18H41V20H23V18Z" fill="#EB0029"/>
<path d="M25.0001 6H27.0001V8H25.0001V6Z" fill="#EB0029"/>
</svg>
