<svg width="60" height="60" viewBox="0 0 60 60" fill="none" xmlns="http://www.w3.org/2000/svg">
<path d="M25.636 29.2916C23.692 31.2526 23.7061 34.4185 25.6671 36.3625C27.616 38.2945 30.758 38.2945 32.7071 36.3625L34.1211 37.7765L32.0001 39.8985L33.4141 41.3125L36.242 38.4846C36.632 38.0946 36.632 37.4606 36.242 37.0706L34.1211 34.9486L35.535 33.5335L37.6571 35.6556C38.0471 36.0456 38.681 36.0456 39.071 35.6556L41.9001 32.8265L40.4861 31.4126L38.3651 33.5346L36.9501 32.1196C37.8531 31.2255 38.085 29.8556 37.528 28.7135L38.364 27.8766C39.5451 26.7145 39.5601 24.8146 38.398 23.6336C37.236 22.4526 35.3361 22.4376 34.155 23.5996C34.1431 23.6106 34.1321 23.6226 34.12 23.6346L33.2831 24.4726C32.142 23.9287 30.7821 24.1596 29.8831 25.0486L28.4681 23.6346L30.5901 21.5137L29.1711 20.0986L26.3421 22.9266C25.9521 23.3166 25.9521 23.9506 26.3421 24.3406L28.4641 26.4615L27.0491 27.8775L24.9281 25.7555C24.5311 25.3805 23.9111 25.3805 23.5141 25.7555L20.6862 28.5845L22.0992 29.9985L24.2202 27.8775L25.636 29.2916ZM31.293 34.9487C30.394 35.8377 29.034 36.0686 27.893 35.5247L32 31.4127L33.414 32.8267L31.293 34.9487ZM35.5349 25.0486C35.9249 24.6576 36.5589 24.6576 36.95 25.0476C37.341 25.4376 37.341 26.0715 36.95 26.4626L36.2419 27.1706L35.5349 26.4636L34.8279 25.7556L35.5349 25.0486ZM31.293 26.4627C31.683 26.0727 32.317 26.0727 32.707 26.4627L35.5349 29.2917C35.9249 29.6817 35.9249 30.3157 35.5349 30.7057L34.8279 31.4127L30.586 27.1697L31.293 26.4627ZM27.05 30.7057L29.172 28.5837L30.586 29.9987L26.473 34.1107C25.927 32.9676 26.158 31.6046 27.05 30.7057Z" fill="#EB0029"/>
<path d="M58.8788 51.4629L49.2998 41.8819C55.8797 32.3489 53.4858 19.286 43.9518 12.7059C38.7078 9.08697 32.1019 8.04693 25.9999 9.88196V4.99901C25.9999 3.34199 24.657 1.99902 23 1.99902H2.99999C1.34296 1.99902 0 3.34199 0 4.99901V16.999C0 18.656 1.34296 19.999 2.99999 19.999H13.5379C8.00399 30.1819 11.773 42.9228 21.9559 48.4569C28.8998 52.2309 37.3748 51.7829 43.8828 47.2988L53.4647 56.8798C54.9597 58.3748 57.3837 58.3748 58.8786 56.8798C60.3736 55.3849 60.3736 52.9609 58.8786 51.4659L58.8788 51.4629ZM19.4329 23.823L19.4448 23.831C19.9039 24.138 20.5248 24.014 20.8319 23.5539C20.9419 23.39 20.9999 23.197 20.9999 22.9989V19.999H23C24.501 19.9939 25.767 18.879 25.96 17.39C32.912 14.0911 41.222 17.053 44.5209 24.005C47.8198 30.957 44.8579 39.267 37.9059 42.5659C30.9539 45.8648 22.6439 42.9029 19.345 35.9509C17.521 32.107 17.553 27.6399 19.4329 23.823ZM2.00003 16.999V4.99901C2.00003 4.44706 2.44804 3.99905 2.99999 3.99905H23C23.5519 3.99905 23.9999 4.44706 23.9999 4.99901V16.999C23.9999 17.5509 23.5519 17.9989 23 17.9989H20C19.448 17.9989 19 18.4469 19 18.9989V21.1299L14.555 18.167C14.39 18.058 14.197 17.9989 14 17.9989H2.99999C2.44804 17.999 2.00003 17.551 2.00003 16.999ZM31.9999 48.9989C21.507 48.9989 13 40.4919 13 29.999C13 26.871 13.7721 23.791 15.249 21.033L17.761 22.708C13.724 30.5799 16.833 40.2339 24.7049 44.2699C32.5768 48.306 42.2308 45.1979 46.2669 37.326C50.3029 29.4541 47.1949 19.8001 39.3229 15.764C35.1799 13.6391 30.3159 13.423 25.9999 15.1711V11.9851C35.9519 8.66908 46.7078 14.0491 50.0239 24.0011C53.3399 33.9531 47.9599 44.709 38.0079 48.0251C36.0709 48.6709 34.0419 48.9989 31.9999 48.9989ZM52.9998 53.5849L45.4879 46.073C46.4229 45.287 47.2879 44.4219 48.0739 43.487L55.5858 50.9989L52.9998 53.5849ZM56.1717 55.9988C55.6867 55.9978 55.2217 55.8049 54.8787 55.4628L54.4137 54.9989L56.9997 52.4129L57.4647 52.8768C58.1787 53.5909 58.1787 54.7488 57.4636 55.4639C57.1218 55.8058 56.6568 55.9988 56.1717 55.9988Z" fill="#291956"/>
<path d="M9.00009 5.99902H7.00006V7.99906H9.00009V5.99902Z" fill="#291956"/>
<path d="M21 5.99902H11.0001V7.99906H21V5.99902Z" fill="#291956"/>
<path d="M21 9.99902H5.00012V11.9991H21V9.99902Z" fill="#291956"/>
<path d="M19.0001 13.9985H5.00012V15.9986H19.0001V13.9985Z" fill="#291956"/>
</svg>
