<svg width="55" height="60" viewBox="0 0 55 60" fill="none" xmlns="http://www.w3.org/2000/svg">
<rect x="25.0792" y="41.6411" width="24.4694" height="3.43431" fill="#EB0029"/>
<path d="M53.4546 40.3638H45.8183V8.72739C45.8189 8.43747 45.7034 8.15903 45.4976 7.95483L37.8611 0.31858C37.6571 0.114113 37.3798 -0.000814616 37.091 4.34709e-06H5.45454C4.85206 4.34709e-06 4.36369 0.488377 4.36369 1.09086V4.3637H1.09113C0.488646 4.3637 0 4.85207 0 5.45455V58.9091C0 59.5116 0.488646 60 1.09113 60H40.3638C40.9663 60 41.4546 59.5116 41.4546 58.9091V55.6363H44.7272C45.3297 55.6363 45.8183 55.1479 45.8183 54.5455V51.2726H49.0909C49.6934 51.2726 50.1818 50.7842 50.1818 50.1818V46.9092H53.4546C54.0571 46.9092 54.5454 46.4206 54.5454 45.8181V41.4547C54.5454 40.8522 54.0571 40.3638 53.4546 40.3638ZM26.1819 44.7272V42.5455H48V44.7272H26.1819ZM15.5302 44.7272L13.3485 43.6364L15.5302 42.5455H24.0002V44.7275H15.5302V44.7272ZM38.1818 3.72436L42.094 7.63653H38.1818V3.72436ZM39.2729 57.8183H2.18198V6.5454H4.36369V54.5455C4.36369 55.1479 4.85206 55.6363 5.45454 55.6363H39.2729V57.8183ZM43.6364 53.4546H6.5454V2.18199H36.0001V8.72739C36.0001 9.32987 36.4885 9.81824 37.091 9.81824H43.6364V40.3638H15.2728C15.1041 40.3619 14.937 40.3993 14.7852 40.4727L10.4215 42.6547C9.88211 42.9233 9.66291 43.5785 9.9318 44.1176C10.0374 44.3298 10.2094 44.5017 10.4215 44.6074L14.7852 46.7891C14.9362 46.8666 15.103 46.9076 15.2728 46.9092H43.6364V49.0912H34.9092V51.2729H43.6364V53.4546ZM48 49.0909H45.8183V46.9092H48V49.0909ZM52.3637 44.7272H50.182V42.5455H52.3637V44.7272Z" fill="#291956"/>
<path d="M10.9091 22.9092H34.9092V25.0912H10.9091V22.9092Z" fill="#291956"/>
<path d="M10.9091 18.5454H39.2729V20.7274H10.9091V18.5454Z" fill="#291956"/>
<path d="M17.4548 14.1816H39.2729V16.3633H17.4548V14.1816Z" fill="#291956"/>
<path d="M10.9091 9.81836H18.5456V12.0001H10.9091V9.81836Z" fill="#291956"/>
<path d="M13.091 14.1816H15.2717V16.3623H13.091V14.1816Z" fill="#291956"/>
</svg>
