<svg width="60" height="60" viewBox="0 0 60 60" fill="none" xmlns="http://www.w3.org/2000/svg">
<g clip-path="url(#clip0)">
<path d="M32.0808 51.6543L38.5522 54.895C38.8332 55.036 39.165 55.036 39.4461 54.895L45.9174 51.6593C49.6551 49.8064 52.0138 45.9878 51.9979 41.8162V22.998C51.9979 22.4461 51.5499 21.998 50.9979 21.998H27.0002C26.4482 21.998 26.0002 22.4461 26.0002 22.998V41.8162C25.9863 45.9869 28.3441 49.8015 32.0808 51.6543ZM45.0235 49.8655L39.9991 52.3773V38.9965H49.9981V41.8162C50.0091 45.228 48.0802 48.3496 45.0235 49.8655ZM49.9981 36.9967H39.9991V23.9979H49.9981V36.9967ZM37.9992 23.9979V36.9967H28.0001V23.9979H37.9992ZM28.0001 38.9965H37.9992V52.3773L32.9747 49.8655C29.918 48.3497 27.9891 45.228 28.0001 41.8162V38.9965Z" fill="#EB0029"/>
<path d="M5.00251 55.9947H30.7701C30.7961 56.0077 30.8191 56.0227 30.8451 56.0357L38.5523 59.8943C38.8333 60.0353 39.1652 60.0353 39.4462 59.8943L47.1534 56.0406C52.5899 53.3449 56.0196 47.7924 55.9976 41.7249V18.9982C55.9976 18.4463 55.5496 17.9983 54.9976 17.9983H47.9983V8.99919C47.9983 8.44725 47.5503 7.99924 46.9984 7.99924H43.9988V4.99951C43.9988 4.44757 43.5508 3.99956 42.9988 3.99956H16.0015C16.0015 1.79072 14.2106 0 12.0019 0C9.7932 0 8.00236 1.79084 8.00236 3.99956H5.00251C4.45057 3.99956 4.00256 4.44757 4.00256 4.99951V54.9948C4.00256 55.5467 4.44951 55.9947 5.00251 55.9947ZM53.9978 41.7251C54.0159 47.0325 51.0151 51.8891 46.2595 54.2458L38.9993 57.8765L31.739 54.2458C26.9835 51.8891 23.9827 47.0325 24.0007 41.7251V19.998H53.9979V41.7251H53.9978ZM45.9986 9.99902V17.9983H43.9988V9.99902H45.9986ZM12.0018 1.99978C13.1068 1.99978 14.0016 2.89473 14.0016 3.99956H10.002C10.002 2.89473 10.8969 1.99978 12.0018 1.99978ZM6.00235 5.99946H14.0016V8.99919C14.0016 9.55114 13.5536 9.99914 13.0016 9.99914C12.4497 9.99914 12.0017 9.55114 12.0017 8.99919V7.99924H10.002V8.99919C10.002 10.6561 11.3449 11.9989 13.0018 11.9989C14.6587 11.9989 16.0015 10.6561 16.0015 8.99919V5.99946H41.999V17.9983H23.0008C22.4488 17.9983 22.0008 18.4463 22.0008 18.9982V41.7251C21.9869 46.4656 24.0897 50.9641 27.7343 53.9949H6.00235V5.99946Z" fill="#291956"/>
<path d="M12.9986 18.998H10.9988V20.9978H12.9986V18.998Z" fill="#291956"/>
<path d="M18.9979 18.998H14.9983V20.9978H18.9979V18.998Z" fill="#291956"/>
<path d="M18.998 22.9976H8.99902V24.9973H18.998V22.9976Z" fill="#291956"/>
<path d="M25.9974 8.99902H23.9976V10.9988H25.9974V8.99902Z" fill="#291956"/>
<path d="M38.9962 8.99902H27.9972V10.9988H38.9962V8.99902Z" fill="#291956"/>
<path d="M36.9963 12.9985H21.9977V14.9983H36.9963V12.9985Z" fill="#291956"/>
<path d="M18.998 26.9976H8.99902V28.9973H18.998V26.9976Z" fill="#291956"/>
<path d="M16.9983 30.9971H8.99902V32.9968H16.9983V30.9971Z" fill="#291956"/>
<path d="M12.9986 36.9966H10.9988V38.9964H12.9986V36.9966Z" fill="#291956"/>
<path d="M18.9979 36.9966H14.9983V38.9964H18.9979V36.9966Z" fill="#291956"/>
<path d="M18.998 40.9961H8.99902V42.9959H18.998V40.9961Z" fill="#291956"/>
<path d="M18.998 44.9956H8.99902V46.9954H18.998V44.9956Z" fill="#291956"/>
<path d="M16.9983 48.9956H8.99902V50.9954H16.9983V48.9956Z" fill="#291956"/>
</g>
<defs>
<clipPath id="clip0">
<rect width="60" height="60" fill="white"/>
</clipPath>
</defs>
</svg>
