<svg width="54" height="60" viewBox="0 0 54 60" fill="none" xmlns="http://www.w3.org/2000/svg">
<circle cx="41.4419" cy="51.2093" r="5.5814" fill="#EB0029"/>
<path d="M47.0215 0.999754C47.0214 0.447502 46.5735 -0.000124974 46.0209 2.61736e-08C45.7557 2.61736e-08 45.5015 0.105375 45.314 0.292751L36.311 9.29279C36.1235 9.48029 36.0179 9.73454 36.0179 9.99979V11.0278C25.547 3.84027 11.2301 6.49928 4.04043 16.9668C-2.78153 26.8989 -0.776881 40.4109 8.63505 47.9359L4.08757 58.608C3.871 59.1161 4.10746 59.7035 4.61575 59.92C4.73979 59.9729 4.87308 60 5.00787 60H41.0196C41.572 60 42.0199 59.5524 42.0199 59C42.0199 58.8652 41.9926 58.7319 41.9399 58.608L37.3924 47.9359C45.911 41.1217 48.4676 29.2616 43.5124 19.5448L41.7298 20.4548C43.2455 23.4077 44.031 26.6809 44.0205 29.9999C44.0393 41.6167 34.6342 51.0491 23.0137 51.0678C11.3932 51.0866 1.95776 41.6845 1.939 30.0678C1.92025 18.451 11.3253 9.01854 22.9458 8.99979C27.6889 8.99216 32.2954 10.5867 36.0179 13.5248V15.5858L34.2924 17.3108C27.2989 11.0689 16.5678 11.6763 10.3237 18.6676C8.51551 20.6922 7.21947 23.121 6.54437 25.7499L8.481 26.2499C10.5395 18.239 18.7046 13.4131 26.718 15.4709C28.9985 16.0566 31.109 17.1713 32.8779 18.7248L30.05 21.5518C25.3827 17.6611 18.4441 18.2892 14.552 22.955C10.6598 27.6207 11.2883 34.5571 15.9556 38.448C17.3564 39.6158 19.0255 40.4172 20.813 40.78L21.2131 38.82C16.3397 37.8344 13.1883 33.086 14.1742 28.2141C15.1602 23.3422 19.9101 20.1918 24.7835 21.1775C26.1899 21.4618 27.5078 22.0782 28.6275 22.9751L25.7686 25.8331C23.4582 24.3044 20.3456 24.9375 18.8165 27.2471C17.2872 29.5567 17.9206 32.6684 20.2309 34.197C22.5413 35.7257 25.6539 35.0926 27.1831 32.783C28.2942 31.1049 28.2942 28.9252 27.1831 27.2471L30.042 24.3891C33.1483 28.2626 32.5252 33.92 28.6504 37.0252C27.7779 37.7244 26.7826 38.2548 25.7156 38.5892L26.3158 40.4972C32.1098 38.679 35.3326 32.5098 33.514 26.7176C33.0832 25.3454 32.3871 24.0711 31.4655 22.9668L34.2934 20.1398C39.7484 26.3704 39.1181 35.8418 32.8855 41.295C26.653 46.7483 17.1784 46.1182 11.7236 39.8877C10.1789 38.1234 9.06969 36.0215 8.485 33.7509L6.54837 34.2509C8.86738 43.3491 18.1251 48.8453 27.2262 46.5271C36.3273 44.2088 41.8253 34.954 39.5063 25.8559C38.8315 23.2081 37.5282 20.762 35.7068 18.7248L37.4324 16.9998H43.0202C43.2855 16.9998 43.5399 16.8943 43.7274 16.7068L52.7304 7.70678C53.121 7.31616 53.1209 6.68303 52.7301 6.29253C52.5425 6.10515 52.2882 5.99977 52.0231 5.99977H47.0215V0.999754ZM35.7358 49.151L39.5061 58H6.52136L7.37364 56H15.0111V54H8.22592L10.2916 49.151C17.9962 54.2831 28.0312 54.2831 35.7358 49.151ZM40.0192 8.41378V11.5858L38.0186 13.5858V10.4138L40.0192 8.41378ZM26.0147 29.9999C26.0147 31.6568 24.6711 32.9999 23.0137 32.9999C21.3563 32.9999 20.0127 31.6568 20.0127 29.9999C20.0127 28.343 21.3563 26.9999 23.0137 26.9999C23.4594 27.0016 23.8988 27.1041 24.2991 27.2999L22.3065 29.2919L23.7209 30.7059L25.7146 28.7149C25.9104 29.1151 26.0129 29.5544 26.0147 29.9999ZM49.6084 7.99978L42.6061 14.9998H39.433L44.7278 9.70679L43.3133 8.29278L42.0199 9.58579V6.41378L45.0209 3.41376V6.99978C45.0209 7.55203 45.4688 7.99978 46.0212 7.99978H49.6084Z" fill="#291956"/>
<path d="M2.97052 28.8145C2.94596 29.2067 2.93369 29.6019 2.93369 29.9999C2.93369 30.398 2.94596 30.7932 2.97052 31.1854L5.20309 31.047C5.17853 30.701 5.16625 30.352 5.16625 29.9999C5.16625 29.6479 5.177 29.2989 5.19863 28.9529L2.97052 28.8145Z" fill="#EB0029"/>
<path d="M15.2128 56.7905H17.4454V59.0231H15.2128V56.7905Z" fill="#EB0029"/>
</svg>
