<svg width="62" height="41" viewBox="0 0 62 41" fill="none" xmlns="http://www.w3.org/2000/svg">
<path d="M58.3079 11.225C58.9494 11.225 59.4694 10.6837 59.4694 10.0163V2.0607C59.4694 1.39329 58.9494 0.852051 58.3079 0.852051H52.0357C51.0024 0.852051 50.1254 1.55815 49.8246 2.53075H33.4805C33.4681 2.52434 33.4566 2.51709 33.444 2.51117C30.2901 1.02005 26.826 0.596662 23.4265 1.28729L14.0441 3.19249H9.75298C9.71337 1.89536 8.68962 0.852051 7.43367 0.852051H1.16151C0.520009 0.852051 0 1.39329 0 2.0607V9.83089C0 10.4983 0.520009 11.0395 1.16151 11.0395C1.80301 11.0395 2.32302 10.4983 2.32302 9.83089V3.26936H7.43367V26.184H2.32302V19.7418C2.32302 19.0744 1.80301 18.5332 1.16151 18.5332C0.520009 18.5332 0 19.0744 0 19.7418V27.3926C0 28.06 0.520009 28.6013 1.16151 28.6013H7.43367C8.71459 28.6013 9.7567 27.5169 9.7567 26.184V26.1707C10.2897 26.3263 10.794 26.5869 11.2343 26.9418L11.7766 27.3788C11.8796 28.338 12.3258 29.2582 13.0965 29.9188C13.7834 30.5076 14.6151 30.7942 15.4423 30.7942C15.5255 30.7942 15.6085 30.7903 15.6914 30.7845C15.8093 31.762 16.273 32.6416 17.0069 33.2705C17.6938 33.8593 18.5254 34.1461 19.3528 34.146C19.4359 34.146 19.5189 34.1421 19.6018 34.1363C19.7197 35.1138 20.1835 35.9934 20.9173 36.6225C21.5852 37.1948 22.4056 37.5001 23.2597 37.5001C23.3442 37.5001 23.4291 37.496 23.5141 37.4899C23.6282 38.4289 24.0717 39.3265 24.8275 39.9744C25.4954 40.5467 26.3158 40.8521 27.17 40.8521C27.2901 40.8521 27.411 40.8459 27.5321 40.8338C28.5144 40.7351 29.4009 40.2441 30.0283 39.4515L30.9729 38.2583C31.2508 37.9073 31.4581 37.5197 31.5978 37.1143C32.1477 37.4198 32.7639 37.5822 33.4032 37.5822C33.422 37.5822 33.4408 37.5819 33.4597 37.5817C34.487 37.5665 35.4471 37.1358 36.1632 36.369C36.5409 35.9646 36.8192 35.4975 36.9998 35.0007L37.4007 35.4061C38.1469 36.1608 39.1143 36.5364 40.081 36.5364C41.0844 36.5364 42.087 36.1313 42.8399 35.3252C43.2675 34.8675 43.5676 34.3296 43.7425 33.7591C44.28 34.0363 44.8664 34.1756 45.453 34.1756C46.4564 34.1756 47.459 33.7706 48.2119 32.9644C48.928 32.1976 49.3143 31.1867 49.2995 30.1175C49.2849 29.0485 48.8711 28.0494 48.1352 27.3054L47.3282 26.4871L49.7127 25.1478V26.184C49.7127 27.5169 50.7548 28.6013 52.0357 28.6013H58.3079C58.9494 28.6013 59.4694 28.06 59.4694 27.3926V19.3792C59.4694 18.7118 58.9494 18.1706 58.3079 18.1706C57.6664 18.1706 57.1464 18.7118 57.1464 19.3792V26.184H52.0357V23.129C52.0357 23.1257 52.0357 23.1224 52.0357 23.1192V3.26936H57.1464V10.0163C57.1464 10.6837 57.6664 11.225 58.3079 11.225ZM17.4487 26.6655L16.5041 27.8587C16.0233 28.4663 15.1573 28.5535 14.5735 28.0529C13.9897 27.5525 13.906 26.6512 14.3868 26.0439L15.3315 24.8507C15.5644 24.5564 15.8935 24.3741 16.2581 24.3375C16.3031 24.3329 16.3479 24.3306 16.3925 24.3306C16.7095 24.3306 17.0143 24.444 17.262 24.6565C17.8458 25.1569 17.9294 26.0581 17.4487 26.6655ZM21.3589 30.0176L20.4144 31.2108C19.9336 31.8181 19.0674 31.9054 18.4837 31.4049C18.2009 31.1625 18.0258 30.8201 17.9905 30.4406C17.9553 30.0611 18.0642 29.6901 18.2972 29.3958L19.2418 28.2025C19.4747 27.9082 19.8038 27.7261 20.1685 27.6895C20.2134 27.6849 20.2583 27.6826 20.3029 27.6826C20.6199 27.6826 20.9246 27.7959 21.1724 28.0084C21.4552 28.2508 21.6302 28.5933 21.6656 28.9728C21.7008 29.3522 21.5919 29.723 21.3589 30.0176ZM25.2694 33.369L24.3247 34.5623C24.0918 34.8566 23.7628 35.0388 23.3981 35.0754C23.033 35.1125 22.6767 34.999 22.3941 34.7566C22.1112 34.5142 21.9361 34.1717 21.9008 33.7922C21.8656 33.4128 21.9744 33.0419 22.2074 32.7474L23.1519 31.5542C23.4228 31.2122 23.8158 31.0351 24.2118 31.0351C24.5189 31.0351 24.8278 31.1416 25.0827 31.3601C25.6665 31.8605 25.7502 32.7617 25.2694 33.369ZM29.1795 36.7211L28.2348 37.9143C28.002 38.2086 27.6728 38.3909 27.3082 38.4275C26.9431 38.4647 26.5869 38.3509 26.3042 38.1084C25.7204 37.608 25.6367 36.7067 26.1175 36.0994L27.0622 34.9062C27.2951 34.6119 27.6242 34.4298 27.9889 34.3931C28.0339 34.3885 28.0787 34.3862 28.1233 34.3862C28.4404 34.3862 28.7451 34.4996 28.993 34.7121C29.2758 34.9544 29.4508 35.2968 29.4861 35.6764C29.5213 36.0559 29.4125 36.4268 29.1795 36.7211ZM46.5456 31.2793C45.9601 31.9063 44.9937 31.9206 44.3912 31.3114L40.5402 27.4169C40.5359 27.4126 40.5313 27.4091 40.527 27.4047L36.7333 23.5682C36.2733 23.1029 35.5378 23.114 35.0908 23.5925C34.6437 24.0712 34.6542 24.8364 35.1142 25.3016L41.1427 31.3982C41.7452 32.0075 41.759 33.0132 41.1735 33.6401C40.5881 34.2672 39.6216 34.2815 39.0191 33.6723L32.9905 27.5757C32.9785 27.5634 32.9653 27.5529 32.9528 27.5413L30.0563 24.6122C29.5964 24.147 28.861 24.158 28.4138 24.6365C27.9668 25.1153 27.9772 25.8805 28.4373 26.3457L34.4658 32.4422C35.0682 33.0515 35.0821 34.0572 34.4965 34.6842C34.2129 34.9879 33.8326 35.1585 33.4257 35.1645C33.0211 35.1721 32.6342 35.0112 32.3422 34.7161L30.6538 33.0087C30.6159 32.9704 30.5755 32.9366 30.5342 32.9047C30.5126 32.8853 30.4917 32.8653 30.4695 32.8463C29.7131 32.1981 28.781 31.917 27.8729 31.9807C27.7592 31.0411 27.3155 30.1428 26.5592 29.4945C25.8034 28.8466 24.8719 28.5654 23.9644 28.6287C23.8464 27.6513 23.3829 26.7716 22.649 26.1426C21.9152 25.5136 20.9963 25.2083 20.0522 25.2752C19.9382 24.3362 19.4946 23.4386 18.7388 22.7907C17.9771 22.1379 17.0171 21.8332 16.0343 21.9314C15.052 22.0302 14.1656 22.5211 13.5381 23.3138L12.5935 24.507C12.5141 24.6072 12.4407 24.7104 12.3728 24.8161C11.5887 24.2516 10.6922 23.8689 9.75635 23.6944V5.60979H14.1559C14.2306 5.60979 14.3051 5.6023 14.3785 5.58731L23.8712 3.65975C25.4817 3.33281 27.109 3.29812 28.6994 3.54602C27.4977 4.1084 26.39 4.8956 25.4264 5.88778L16.6323 14.9422C15.0375 16.584 15.0086 19.2852 16.5678 20.9634C17.3642 21.821 18.4399 22.2699 19.5288 22.2697C20.2206 22.2696 20.9178 22.0884 21.5518 21.7157L30.7674 16.2978H33.9492L46.5147 29.0377C46.8066 29.3327 46.9705 29.7285 46.9763 30.152C46.9823 30.5752 46.8292 30.9757 46.5456 31.2793ZM49.7127 22.4009L45.5843 24.7192L37.2781 16.2977H38.0937C38.7352 16.2977 39.2553 15.7564 39.2553 15.089C39.2553 14.4216 38.7352 13.8804 38.0937 13.8804H30.4622C30.2619 13.8804 30.0651 13.9341 29.8908 14.0368L20.4093 19.6109C19.6984 20.029 18.8057 19.8941 18.2382 19.2833C17.5589 18.5522 17.5716 17.3755 18.2663 16.6604L27.0604 7.606C28.7252 5.89189 30.932 4.94805 33.2739 4.94805H49.7127V22.4009Z" fill="#291956"/>
<path d="M61.6452 15.2437C61.42 15.009 61.1075 14.876 60.7891 14.876C60.4706 14.876 60.1582 15.009 59.9329 15.2437C59.7077 15.4772 59.5781 15.7999 59.5781 16.1311C59.5781 16.4612 59.7077 16.785 59.9329 17.0185C60.1582 17.2518 60.4706 17.3862 60.7891 17.3862C61.1075 17.3862 61.42 17.2519 61.6452 17.0185C61.8704 16.7838 62 16.4612 62 16.1311C62 15.7997 61.8704 15.4772 61.6452 15.2437Z" fill="#EB0029"/>
<path d="M2.06707 15.2437C1.84184 15.009 1.52941 14.876 1.21094 14.876C0.892461 14.876 0.580039 15.009 0.354805 15.2437C0.12957 15.4772 0 15.7999 0 16.1311C0 16.4612 0.12957 16.7838 0.354805 17.0185C0.580039 17.2519 0.892461 17.3862 1.21094 17.3862C1.52941 17.3862 1.84184 17.2519 2.06707 17.0185C2.2923 16.7838 2.42188 16.4612 2.42188 16.1311C2.42188 15.7997 2.2923 15.4772 2.06707 15.2437Z" fill="#EB0029"/>
</svg>
