<svg width="18" height="19" viewBox="0 0 18 19" fill="none" xmlns="http://www.w3.org/2000/svg">
<path fill-rule="evenodd" clip-rule="evenodd" d="M4.28427 0.310291C3.69468 0.377907 3.00431 0.606319 2.47647 0.908431C1.11211 1.68927 0.211848 3.05489 0.0389389 4.60581C-0.0129796 5.07168 -0.0129796 13.4717 0.0389389 13.9376C0.290974 16.1983 2.07554 17.9834 4.33552 18.2355C4.80124 18.2874 13.1988 18.2874 13.6645 18.2355C15.9245 17.9834 17.709 16.1983 17.9611 13.9376C18.013 13.4717 18.013 5.07168 17.9611 4.60581C17.709 2.34515 15.9245 0.560046 13.6645 0.307935C13.2508 0.261803 4.68837 0.263948 4.28427 0.310291ZM14.0292 1.43604C14.7597 1.63755 15.3224 1.95738 15.8172 2.45243C16.3119 2.94723 16.6313 3.50929 16.8335 4.24094L16.9266 4.57758V9.2717V13.9658L16.8335 14.3025C16.6313 15.0341 16.3119 15.5962 15.8172 16.091C15.3226 16.5858 14.7607 16.9053 14.0292 17.1076L13.6927 17.2007H9H4.3073L3.97076 17.1076C3.23933 16.9053 2.67743 16.5858 2.18278 16.091C1.68813 15.5962 1.36871 15.0341 1.16645 14.3025L1.07337 13.9658V9.2717V4.57758L1.16645 4.24094C1.36847 3.5102 1.68813 2.94719 2.18085 2.45433C2.7645 1.8705 3.53449 1.48196 4.34245 1.36357C4.45845 1.34658 6.60971 1.33505 9.12303 1.33793L13.6927 1.34321L14.0292 1.43604ZM13.8685 2.61607C13.0125 2.73411 12.4265 3.56857 12.6332 4.3754C12.7803 4.95002 13.1429 5.31398 13.7139 5.46032C14.6793 5.70772 15.6292 4.83103 15.4682 3.84136C15.3785 3.29013 14.976 2.82736 14.4485 2.66909C14.2951 2.6231 14.0079 2.59684 13.8685 2.61607ZM14.2627 3.73788C14.4514 3.8556 14.4827 4.14969 14.3241 4.31527C14.1969 4.44801 14.0364 4.47913 13.8746 4.40233C13.6288 4.28567 13.5759 3.96334 13.7722 3.77842C13.9183 3.64083 14.085 3.62705 14.2627 3.73788ZM8.32256 4.40311C6.37796 4.66823 4.73751 6.13269 4.24082 8.04697C3.80488 9.72701 4.29274 11.4966 5.53425 12.7385C7.46881 14.6736 10.5312 14.6736 12.4657 12.7385C14.4002 10.8034 14.4002 7.73846 12.4657 5.80529C11.3554 4.69572 9.86813 4.19238 8.32256 4.40311ZM9.56242 5.45494C10.4058 5.58286 11.1241 5.94534 11.7247 6.54616C13.2376 8.05946 13.2376 10.4839 11.7247 11.9972C10.2119 13.5105 7.78812 13.5105 6.27528 11.9972C4.76244 10.4839 4.76244 8.05946 6.27528 6.54616C7.15002 5.67112 8.35357 5.27161 9.56242 5.45494Z" fill="white"/>
<path fill-rule="evenodd" clip-rule="evenodd" d="M14.0292 1.43604C14.7597 1.63755 15.3224 1.95738 15.8172 2.45243C16.3119 2.94723 16.6313 3.50929 16.8335 4.24094L16.9266 4.57758V9.2717V13.9658L16.8335 14.3025C16.6313 15.0341 16.3119 15.5962 15.8172 16.091C15.3226 16.5858 14.7607 16.9053 14.0292 17.1076L13.6927 17.2007H9H4.3073L3.97076 17.1076C3.23933 16.9053 2.67743 16.5858 2.18278 16.091C1.68813 15.5962 1.36871 15.0341 1.16645 14.3025L1.07337 13.9658V9.2717V4.57758L1.16645 4.24094C1.36847 3.5102 1.68813 2.94719 2.18085 2.45433C2.7645 1.8705 3.53449 1.48196 4.34245 1.36357C4.45845 1.34658 6.60971 1.33505 9.12303 1.33793L13.6927 1.34321L14.0292 1.43604ZM12.6332 4.3754C12.4265 3.56857 13.0125 2.73411 13.8685 2.61607C14.0079 2.59684 14.2951 2.6231 14.4485 2.66909C14.976 2.82736 15.3785 3.29013 15.4682 3.84136C15.6292 4.83103 14.6793 5.70772 13.7139 5.46032C13.1429 5.31398 12.7803 4.95002 12.6332 4.3754ZM4.24082 8.04697C4.73751 6.13269 6.37796 4.66823 8.32256 4.40311C9.86813 4.19238 11.3554 4.69572 12.4657 5.80529C14.4002 7.73846 14.4002 10.8034 12.4657 12.7385C10.5312 14.6736 7.46881 14.6736 5.53425 12.7385C4.29274 11.4966 3.80488 9.72701 4.24082 8.04697Z" fill="white"/>
<path d="M9.56242 5.45494C10.4058 5.58286 11.1241 5.94534 11.7247 6.54616C13.2376 8.05946 13.2376 10.4839 11.7247 11.9972C10.2119 13.5105 7.78812 13.5105 6.27528 11.9972C4.76244 10.4839 4.76244 8.05946 6.27528 6.54616C7.15002 5.67112 8.35357 5.27161 9.56242 5.45494Z" fill="white"/>
<path d="M14.2627 3.73788C14.4514 3.8556 14.4827 4.14969 14.3241 4.31527C14.1969 4.44801 14.0364 4.47913 13.8746 4.40233C13.6288 4.28567 13.5759 3.96334 13.7722 3.77842C13.9183 3.64083 14.085 3.62705 14.2627 3.73788Z" fill="white"/>
<path fill-rule="evenodd" clip-rule="evenodd" d="M4.28427 0.310291C3.69468 0.377907 3.00431 0.606319 2.47647 0.908431C1.11211 1.68927 0.211848 3.05489 0.0389389 4.60581C-0.0129796 5.07168 -0.0129796 13.4717 0.0389389 13.9376C0.290974 16.1983 2.07554 17.9834 4.33552 18.2355C4.80124 18.2874 13.1988 18.2874 13.6645 18.2355C15.9245 17.9834 17.709 16.1983 17.9611 13.9376C18.013 13.4717 18.013 5.07168 17.9611 4.60581C17.709 2.34515 15.9245 0.560046 13.6645 0.307935C13.2508 0.261803 4.68837 0.263948 4.28427 0.310291ZM14.0292 1.43604C14.7597 1.63755 15.3224 1.95738 15.8172 2.45243C16.3119 2.94723 16.6313 3.50929 16.8335 4.24094L16.9266 4.57758V9.2717V13.9658L16.8335 14.3025C16.6313 15.0341 16.3119 15.5962 15.8172 16.091C15.3226 16.5858 14.7607 16.9053 14.0292 17.1076L13.6927 17.2007H9H4.3073L3.97076 17.1076C3.23933 16.9053 2.67743 16.5858 2.18278 16.091C1.68813 15.5962 1.36871 15.0341 1.16645 14.3025L1.07337 13.9658V9.2717V4.57758L1.16645 4.24094C1.36847 3.5102 1.68813 2.94719 2.18085 2.45433C2.7645 1.8705 3.53449 1.48196 4.34245 1.36357C4.45845 1.34658 6.60971 1.33505 9.12303 1.33793L13.6927 1.34321L14.0292 1.43604ZM13.8685 2.61607C13.0125 2.73411 12.4265 3.56857 12.6332 4.3754C12.7803 4.95002 13.1429 5.31398 13.7139 5.46032C14.6793 5.70772 15.6292 4.83103 15.4682 3.84136C15.3785 3.29013 14.976 2.82736 14.4485 2.66909C14.2951 2.6231 14.0079 2.59684 13.8685 2.61607ZM14.2627 3.73788C14.4514 3.8556 14.4827 4.14969 14.3241 4.31527C14.1969 4.44801 14.0364 4.47913 13.8746 4.40233C13.6288 4.28567 13.5759 3.96334 13.7722 3.77842C13.9183 3.64083 14.085 3.62705 14.2627 3.73788ZM8.32256 4.40311C6.37796 4.66823 4.73751 6.13269 4.24082 8.04697C3.80488 9.72701 4.29274 11.4966 5.53425 12.7385C7.46881 14.6736 10.5312 14.6736 12.4657 12.7385C14.4002 10.8034 14.4002 7.73846 12.4657 5.80529C11.3554 4.69572 9.86813 4.19238 8.32256 4.40311ZM9.56242 5.45494C10.4058 5.58286 11.1241 5.94534 11.7247 6.54616C13.2376 8.05946 13.2376 10.4839 11.7247 11.9972C10.2119 13.5105 7.78812 13.5105 6.27528 11.9972C4.76244 10.4839 4.76244 8.05946 6.27528 6.54616C7.15002 5.67112 8.35357 5.27161 9.56242 5.45494Z" fill="black"/>
</svg>
