<svg width="30" height="30" viewBox="0 0 30 30" fill="none" xmlns="http://www.w3.org/2000/svg">
<path fill-rule="evenodd" clip-rule="evenodd" d="M11.4632 8.27691C11.021 8.32762 10.5032 8.49893 10.1074 8.72551C9.08408 9.31114 8.40889 10.3354 8.2792 11.4986C8.24027 11.8479 8.24027 18.148 8.2792 18.4974C8.46823 20.1929 9.80665 21.5317 11.5016 21.7208C11.8509 21.7597 18.1491 21.7597 18.4984 21.7208C20.1933 21.5317 21.5318 20.1929 21.7208 18.4974C21.7597 18.148 21.7597 11.8479 21.7208 11.4986C21.5318 9.80305 20.1933 8.46422 18.4984 8.27514C18.1881 8.24054 11.7663 8.24215 11.4632 8.27691ZM18.7719 9.12122C19.3198 9.27235 19.7418 9.51223 20.1129 9.88351C20.4839 10.2546 20.7235 10.6762 20.8752 11.2249L20.945 11.4774V14.998V18.5186L20.8752 18.771C20.7235 19.3198 20.4839 19.7413 20.1129 20.1124C19.7419 20.4835 19.3205 20.7232 18.7719 20.8749L18.5195 20.9447H15H11.4805L11.2281 20.8749C10.6795 20.7232 10.2581 20.4835 9.88709 20.1124C9.5161 19.7413 9.27654 19.3198 9.12484 18.771L9.05503 18.5186V14.998V11.4774L9.12484 11.2249C9.27635 10.6768 9.5161 10.2546 9.88564 9.88493C10.3234 9.44706 10.9009 9.15566 11.5068 9.06686C11.5938 9.05413 13.2073 9.04548 15.0923 9.04764L18.5195 9.0516L18.7719 9.12122ZM18.6513 10.0062C18.0093 10.0948 17.5699 10.7206 17.7249 11.3257C17.8352 11.7567 18.1072 12.0297 18.5354 12.1394C19.2594 12.325 19.9719 11.6675 19.8511 10.9252C19.7839 10.5118 19.482 10.1647 19.0863 10.046C18.9713 10.0115 18.7559 9.99182 18.6513 10.0062ZM18.947 10.8476C19.0886 10.9359 19.112 11.1565 18.993 11.2806C18.8977 11.3802 18.7773 11.4035 18.6559 11.3459C18.4716 11.2584 18.4319 11.0167 18.5792 10.878C18.6888 10.7748 18.8137 10.7645 18.947 10.8476ZM14.4919 11.3465C13.0335 11.5454 11.8031 12.6437 11.4306 14.0794C11.1037 15.3394 11.4696 16.6666 12.4007 17.5981C13.8516 19.0494 16.1484 19.0494 17.5993 17.5981C19.0502 16.1468 19.0502 13.848 17.5993 12.3982C16.7666 11.566 15.6511 11.1885 14.4919 11.3465ZM15.4218 12.1354C16.0544 12.2313 16.5931 12.5032 17.0435 12.9538C18.1782 14.0888 18.1782 15.9071 17.0435 17.0421C15.9089 18.1771 14.0911 18.1771 12.9565 17.0421C11.8218 15.9071 11.8218 14.0888 12.9565 12.9538C13.6125 12.2975 14.5152 11.9979 15.4218 12.1354Z" fill="white"/>
<path fill-rule="evenodd" clip-rule="evenodd" d="M18.7719 9.12122C19.3198 9.27235 19.7418 9.51223 20.1129 9.88351C20.4839 10.2546 20.7235 10.6762 20.8752 11.2249L20.945 11.4774V14.998V18.5186L20.8752 18.771C20.7235 19.3198 20.4839 19.7413 20.1129 20.1124C19.7419 20.4835 19.3205 20.7232 18.7719 20.8749L18.5195 20.9447H15H11.4805L11.2281 20.8749C10.6795 20.7232 10.2581 20.4835 9.88709 20.1124C9.5161 19.7413 9.27654 19.3198 9.12484 18.771L9.05503 18.5186V14.998V11.4774L9.12484 11.2249C9.27635 10.6768 9.5161 10.2546 9.88564 9.88493C10.3234 9.44706 10.9009 9.15566 11.5068 9.06686C11.5938 9.05413 13.2073 9.04548 15.0923 9.04764L18.5195 9.0516L18.7719 9.12122ZM17.7249 11.3257C17.5699 10.7206 18.0093 10.0948 18.6513 10.0062C18.7559 9.99182 18.9713 10.0115 19.0863 10.046C19.482 10.1647 19.7839 10.5118 19.8511 10.9252C19.9719 11.6675 19.2594 12.325 18.5354 12.1394C18.1072 12.0297 17.8352 11.7567 17.7249 11.3257ZM11.4306 14.0794C11.8031 12.6437 13.0335 11.5454 14.4919 11.3465C15.6511 11.1885 16.7666 11.566 17.5993 12.3982C19.0502 13.848 19.0502 16.1468 17.5993 17.5981C16.1484 19.0494 13.8516 19.0494 12.4007 17.5981C11.4696 16.6666 11.1037 15.3394 11.4306 14.0794Z" fill="white"/>
<path d="M15.4218 12.1354C16.0544 12.2313 16.5931 12.5032 17.0435 12.9538C18.1782 14.0888 18.1782 15.9071 17.0435 17.0421C15.9089 18.1771 14.0911 18.1771 12.9565 17.0421C11.8218 15.9071 11.8218 14.0888 12.9565 12.9538C13.6125 12.2975 14.5152 11.9979 15.4218 12.1354Z" fill="white"/>
<path d="M18.947 10.8476C19.0886 10.9359 19.112 11.1565 18.993 11.2806C18.8977 11.3802 18.7773 11.4035 18.6559 11.3459C18.4716 11.2584 18.4319 11.0167 18.5792 10.878C18.6888 10.7748 18.8137 10.7645 18.947 10.8476Z" fill="white"/>
<path fill-rule="evenodd" clip-rule="evenodd" d="M11.4632 8.27691C11.021 8.32762 10.5032 8.49893 10.1074 8.72551C9.08408 9.31114 8.40889 10.3354 8.2792 11.4986C8.24027 11.8479 8.24027 18.148 8.2792 18.4974C8.46823 20.1929 9.80665 21.5317 11.5016 21.7208C11.8509 21.7597 18.1491 21.7597 18.4984 21.7208C20.1933 21.5317 21.5318 20.1929 21.7208 18.4974C21.7597 18.148 21.7597 11.8479 21.7208 11.4986C21.5318 9.80305 20.1933 8.46422 18.4984 8.27514C18.1881 8.24054 11.7663 8.24215 11.4632 8.27691ZM18.7719 9.12122C19.3198 9.27235 19.7418 9.51223 20.1129 9.88351C20.4839 10.2546 20.7235 10.6762 20.8752 11.2249L20.945 11.4774V14.998V18.5186L20.8752 18.771C20.7235 19.3198 20.4839 19.7413 20.1129 20.1124C19.7419 20.4835 19.3205 20.7232 18.7719 20.8749L18.5195 20.9447H15H11.4805L11.2281 20.8749C10.6795 20.7232 10.2581 20.4835 9.88709 20.1124C9.5161 19.7413 9.27654 19.3198 9.12484 18.771L9.05503 18.5186V14.998V11.4774L9.12484 11.2249C9.27635 10.6768 9.5161 10.2546 9.88564 9.88493C10.3234 9.44706 10.9009 9.15566 11.5068 9.06686C11.5938 9.05413 13.2073 9.04548 15.0923 9.04764L18.5195 9.0516L18.7719 9.12122ZM18.6513 10.0062C18.0093 10.0948 17.5699 10.7206 17.7249 11.3257C17.8352 11.7567 18.1072 12.0297 18.5354 12.1394C19.2594 12.325 19.9719 11.6675 19.8511 10.9252C19.7839 10.5118 19.482 10.1647 19.0863 10.046C18.9713 10.0115 18.7559 9.99182 18.6513 10.0062ZM18.947 10.8476C19.0886 10.9359 19.112 11.1565 18.993 11.2806C18.8977 11.3802 18.7773 11.4035 18.6559 11.3459C18.4716 11.2584 18.4319 11.0167 18.5792 10.878C18.6888 10.7748 18.8137 10.7645 18.947 10.8476ZM14.4919 11.3465C13.0335 11.5454 11.8031 12.6437 11.4306 14.0794C11.1037 15.3394 11.4696 16.6666 12.4007 17.5981C13.8516 19.0494 16.1484 19.0494 17.5993 17.5981C19.0502 16.1468 19.0502 13.848 17.5993 12.3982C16.7666 11.566 15.6511 11.1885 14.4919 11.3465ZM15.4218 12.1354C16.0544 12.2313 16.5931 12.5032 17.0435 12.9538C18.1782 14.0888 18.1782 15.9071 17.0435 17.0421C15.9089 18.1771 14.0911 18.1771 12.9565 17.0421C11.8218 15.9071 11.8218 14.0888 12.9565 12.9538C13.6125 12.2975 14.5152 11.9979 15.4218 12.1354Z" fill="black"/>
<rect x="0.5" y="0.5" width="29" height="29" rx="14.5" stroke="white"/>
</svg>
