<svg width="80" height="80" viewBox="0 0 80 80" xmlns="http://www.w3.org/2000/svg" fill="none"><path d="M72.258 61.935h-15.484v11.613h15.484v-11.613zm-49.032 0h-15.484v11.613h15.484v-11.613z" fill="#EB0029"/><path d="M40 10.323c-4.98 0-9.032 4.053-9.032 9.032v5.161h2.58v-5.161a6.459 6.459 0 140 12.903 NaN NaN 6.459 6.459 0 16.452 6.452v5.161h2.58v-5.161c0-4.98-4.053-9.032-9.032-9.032zM69.612 16.84c-.615-5.83-5.558-10.388-11.547-10.388-2.146 0-4.253.611-6.07 1.725-1.892-4.78-6.55-8.177-11.995-8.177-5.448 0-10.107 3.4-11.997 8.185a11.564 11.564 0 0-6.068-1.733c-6.064 0-11.05 4.673-11.562 10.609-5.19 1.158-9.083 5.792-9.083 11.326 0 6.404 5.21 11.613 11.613 11.613h16.774v-2.58h-16.774c-4.98 0-9.032-4.053-9.032-9.033 0-4.98 4.053-9.032 9.032-9.032 1.173 0 2.312.22 3.386.657l.97-2.393a11.507 11.507 0 0-4.254-.84c.628-4.371 4.388-7.747 8.93-7.747 1.924 0 3.797.629 5.348 1.774a12.92 12.92 0 0-.186 2.097h2.58c0-5.691 4.631-10.322 10.323-10.322s10.322 4.63 10.322 10.322h2.581c0-.713-.073-1.408-.184-2.09a8.908 8.908 0 15.346-1.78c4.979 0 9.032 4.052 9.032 9.031a8.931 8.931 0 1-1.98 5.644l2.013 1.616a11.646 11.646 0 2.456-5.88c4.413.588 7.833 4.37 7.833 8.943 0 4.98-4.053 9.032-9.032 9.032h-28.065v2.581h18.065c6.404 0 11.613-5.209 11.613-11.613 0-5.99-4.559-10.933-10.388-11.547zM64.516 18.064a6.459 6.459 0 0-6.452-6.451v2.58a3.876 3.876 0 13.871 3.871h2.581zm12.904 54.194v-11.613a3.876 3.876 0 0-3.872-3.87h-7.742v-3.872a3.876 3.876 0 0-3.87-3.87h-15.485a1.29 1.29 0 1-1.29-1.291v-5.161h-2.581v5.161a3.876 3.876 0 3.87 3.87h15.484c.713 0 1.29.579 1.29 1.291v3.871h-7.741a3.876 3.876 0 0-3.871 3.871v11.613h-2.58v3.871a3.876 3.876 0 52.902 80 NaN NaNhNaNa3.876 3.876 0 80 76.13 NaN NaNv-3.872h-2.58zm0 3.871a1.29 1.29 0 1-1.29 1.29h-23.228a1.29 1.29 0 1-1.29-1.29v-1.29h18.064v-2.58h-15.482v-11.615c0-.712.578-1.29 1.29-1.29h18.064c.713 0 1.29.578 1.29 1.29v11.613h-2.58v2.58h5.161v1.291zm-42.581-33.549v5.162a1.29 1.29 0 1-1.29 1.29h-15.486a3.876 3.876 0 0-3.87 3.871v3.871h-7.741a3.876 3.876 0 0-3.871 3.871v11.613h-2.581v3.871a3.876 3.876 0 3.871 80 NaN NaNh23.226a3.876 3.876 0 3.87-3.87v-3.872h-2.58vNaNa3.876 3.876 0 0-3.87-3.87h-7.743v-3.872c0-.712.578-1.29 1.29-1.29h15.484a3.876 3.876 0 3.871-3.871v-5.161h-2.58zm-10.323 16.776c.712 0 1.29.578 1.29 1.29v11.613h-2.58v2.58h5.161v1.291a1.29 1.29 0 1-1.29 1.29h-23.227a1.29 1.29 0 1-1.29-1.29v-1.29h18.064v-2.58h-15.483v-11.616c0-.712.578-1.29 1.29-1.29h18.065z" fill="#381E54"/><path d="M47.742 43.87h-15.484a3.876 3.876 0 1-3.87-3.87v-12.903a3.876 3.876 0 13.87-3.871h15.484a3.876 3.876 0 13.87 3.87v12.904a3.876 3.876 0 1-3.87 3.87z" fill="#EB0029"/><path d="M12.903 34.839a6.459 6.459 0 1-6.451-6.452 6.459l16.451-6.452v2.581a3.876 3.876 0 0-3.87 3.871 3.876l3.87 3.871v2.58zm30.968-2.581a3.876 3.876 0 40 28.388 NaN NaN 3.876 3.876 0 0-3.871 3.87c0 1.68 1.083 3.1 2.58 3.634v2.818h2.581v-2.818c1.498-.535 2.581-1.954 2.581-3.634zm-3.871 1.29a1.29 1.29 0 110-2.581 1.29 1.29l10 2.581z" fill="#381E54"/></svg>