<svg width="507" height="389" xmlns="http://www.w3.org/2000/svg" fill="none"><g clip-path="url(#a)"><path d="M237.701 359.061l170.836-97.68c4.832-2.758 4.228-7.587-1.355-10.783l-116.317-66.486c-5.583-3.196-14.024-3.531-18.855-.774l-170.837 97.666c-4.832 2.758-4.228 7.587 1.355 10.782l116.317 66.487c5.583 3.195 14.024 3.545 18.856.788z" fill="#EFEFEF"/><path d="M61.163 107.966l170.822-97.695c1.989-1.138 4.007-1.313 5.79-.7l-.015-.015.309.117.074.03 6.172 2.334-5.539 2.684.074.292 27.827 125.445c1.399 6.274-1.4 13.613-6.231 16.37l-166.712 95.346.59 7.004-6.748-2.597c-2.268-1.051-4.08-3.429-4.831-6.814l-27.814-125.431c-1.4-6.288 1.4-13.612 6.231-16.37z" fill="#381E54"/><path d="M61.163 107.966l170.822-97.695c1.989-1.138 4.007-1.313 5.79-.7l-.015-.015.309.117.074.03 6.172 2.334-5.539 2.684.074.292 18.34 82.682-83.584 64.502-117.849-47.49c1.135-2.918 3.02-5.384 5.407-6.741z" fill="#6E6282"/><path d="M67.601 127.24l-13.008-5.486c-.235-4.99 1.842-10.14 5.274-12.898l20.58 8.579-12.847 9.805z" fill="#3B2459"/><path d="M100.275 258.506l170.836-97.68c4.832-2.758 7.616-10.096 6.231-16.37l-27.827-125.445c-1.399-6.274-6.437-9.134-11.269-6.362l-170.851 97.681c-4.832 2.757-7.616 10.096-6.231 16.37l27.826 125.445c1.4 6.274 6.453 9.133 11.285 6.361z" fill="#F8F8F8"/><path d="M103.972 249.183l160.657-91.829c4.42-2.524 6.968-9.236 5.701-14.984l-25.455-114.795c-1.267-5.748-5.893-8.345-10.312-5.821l-160.672 91.829c-4.42 2.525-6.968 9.236-5.7 14.984l25.454 114.795c1.282 5.734 5.908 8.346 10.327 5.821z" fill="#fff"/><path d="M103.972 249.183l160.657-91.829c4.42-2.524 6.968-9.236 5.701-14.984l-25.455-114.795c-1.267-5.748-5.893-8.345-10.312-5.821l-160.672 91.829c-4.42 2.525-6.968 9.236-5.7 14.984l25.454 114.795c1.282 5.734 5.908 8.346 10.327 5.821zm-6.054 13.584l23.348-3.05 150.744-86.198c4.831-2.757 13.272-2.422 18.855.774l106.816 61.059 14.127-1.853v7.937h-.015c.088 1.838-.958 3.604-3.241 4.902l-170.836 97.681c-4.832 2.757-13.273 2.422-18.856-.774l-116.332-66.486c-3.137-1.795-4.699-4.115-4.61-6.274v-7.718z" fill="#381E54"/><path d="M211.17 208.302l10.71-6.128h117.745l58.041 33.163 14.127-1.853v7.937h-.015c.089 1.839-.957 3.604-3.241 4.903l-170.836 97.68c-2.549 1.459-6.113 2.043-9.737 1.809l-16.794-137.511z" fill="#6E6282"/><path d="M405.518 234.316l6.26-.817v7.937h-.015c.089 1.838-.957 3.604-3.24 4.902l-3.005 1.722v-13.744z" fill="#9E90B2"/><path d="M235.977 344.821c-4.581 1.722-11.136 1.342-16.012-.992v-17.698h16.012v18.69z" fill="#3B2459"/><path d="M237.701 336.096l170.836-97.68c4.832-2.758 4.228-7.587-1.355-10.782l-116.317-66.487c-5.583-3.195-14.024-3.531-18.855-.773l-170.837 97.68c-4.832 2.758-4.228 7.587 1.355 10.782l116.317 66.487c5.583 3.195 14.024 3.531 18.856.773z" fill="#F8F8F8"/><path d="M102.528 265.933l116.317 66.487c5.583 3.195 14.024 3.53 18.856.773l170.836-97.681c1.591-.904 2.578-2.042 3.005-3.253.752 2.261-.206 4.552-3.005 6.157l-170.836 97.68c-4.832 2.758-13.273 2.422-18.856-.773l-116.317-66.487c-3.756-2.145-5.244-5.034-4.36-7.528.545 1.648 2.003 3.282 4.36 4.625z" fill="#fff"/><path d="M335.869 206.07l7.734-4.421c.618-.35.545-.978-.177-1.386l-9.119-5.223c-.721-.409-1.797-.453-2.416-.103l-7.733 4.421c-.619.35-.545.978.176 1.386l9.119 5.224c.722.408 1.797.466 2.416.102zm-11.932 6.828l7.733-4.421c.619-.35.546-.977-.176-1.386l-9.119-5.223c-.722-.409-1.797-.453-2.416-.102l-7.734 4.42c-.618.351-.545.978.177 1.386l9.119 5.224c.707.408 1.797.452 2.416.102zm-11.932 6.828l7.733-4.421c.619-.35.545-.977-.176-1.386l-9.119-5.223c-.722-.409-1.797-.452-2.416-.102l-7.734 4.421c-.618.35-.545.977.177 1.386l9.119 5.223c.707.408 1.797.452 2.416.102zm-16.514-5.632l7.734-4.42c.619-.351.545-.978-.177-1.387l-7.66-4.377c-.722-.408-1.797-.452-2.416-.102l-7.734 4.421c-.619.35-.545.978.177 1.386l7.66 4.377c.707.409 1.797.452 2.416.102zm-11.932 6.814l7.734-4.421c.618-.35.545-.978-.177-1.386l-7.66-4.377c-.722-.409-1.798-.452-2.416-.102l-7.734 4.421c-.619.35-.545.977.177 1.386l7.66 4.377c.707.423 1.797.467 2.416.102zm-11.932 6.828l7.733-4.421c.619-.35.545-.977-.176-1.386l-7.661-4.377c-.721-.408-1.797-.452-2.415-.102l-7.734 4.421c-.619.35-.545.977.177 1.386l7.66 4.377c.707.408 1.782.452 2.416.102zm-11.947 6.828l7.734-4.421c.618-.35.545-.977-.177-1.386l-7.66-4.377c-.722-.408-1.798-.452-2.416-.102l-7.734 4.421c-.619.35-.545.977.177 1.386l7.66 4.377c.722.408 1.797.452 2.416.102zm-11.932 6.828l7.733-4.42c.619-.351.545-.978-.176-1.386l-7.661-4.377c-.721-.409-1.797-.453-2.415-.103l-7.734 4.421c-.619.35-.545.978.176 1.386l7.661 4.377c.707.409 1.797.453 2.416.102zm-11.933 6.828l7.734-4.42c.619-.351.545-.978-.177-1.387l-7.66-4.377c-.722-.408-1.797-.452-2.416-.102l-7.734 4.421c-.618.35-.545.978.177 1.386l7.66 4.377c.707.409 1.798.452 2.416.102zm-11.947 6.814l7.734-4.421c.619-.35.545-.977-.177-1.386l-7.66-4.377c-.722-.408-1.797-.452-2.416-.102l-7.733 4.421c-.619.35-.546.977.176 1.386l7.66 4.377c.722.423 1.798.467 2.416.102zm-11.932 6.828l7.734-4.421c.619-.35.545-.977-.177-1.386l-7.66-4.377c-.722-.408-1.797-.452-2.416-.102l-7.734 4.421c-.618.35-.545.977.177 1.386l7.66 4.377c.707.423 1.797.467 2.416.102zm-11.932 6.828l7.734-4.421c.619-.35.545-.977-.177-1.386l-7.66-4.377c-.722-.408-1.797-.452-2.416-.102l-7.734 4.421c-.619.35-.545.977.177 1.386l7.66 4.377c.707.408 1.797.452 2.416.102zm-11.947 6.828l7.734-4.42c.619-.351.545-.978-.177-1.386l-7.66-4.377c-.722-.409-1.797-.453-2.416-.103l-7.734 4.421c-.618.35-.545.978.177 1.386l7.66 4.377c.722.409 1.797.453 2.416.102zm89.845-64.663l7.734-4.42c.619-.351.545-.978-.177-1.387l-7.66-4.377c-.722-.408-1.797-.452-2.416-.102l-7.734 4.421c-.619.35-.545.978.177 1.386l7.66 4.377c.722.409 1.797.452 2.416.102zm12.124-6.93l7.734-4.421c.618-.35.545-.977-.177-1.386l-7.66-4.377c-.722-.408-1.798-.452-2.416-.102l-7.734 4.421c-.619.35-.545.977.177 1.386l7.66 4.377c.707.409 1.797.467 2.416.102zm12.123-6.93l16.647-9.513c.618-.35.545-.977-.177-1.386l-7.66-4.377c-.722-.408-1.798-.452-2.416-.102l-16.646 9.513c-.619.35-.545.977.176 1.386l7.661 4.377c.721.408 1.797.452 2.415.102zm-8.47-8.448l13.508-7.718c.619-.35.545-.977-.176-1.386l-7.66-4.377c-.722-.409-1.798-.452-2.416-.102l-13.509 7.718c-.619.35-.545.978.177 1.386l7.66 4.377c.707.423 1.783.467 2.416.102zm-27.709 29.136l7.734-4.42c.618-.351.545-.978-.177-1.386l-7.66-4.377c-.722-.409-1.797-.453-2.416-.103l-7.734 4.421c-.619.35-.545.978.177 1.386l7.66 4.377c.707.409 1.797.453 2.416.102zm-11.932 6.829l7.734-4.421c.618-.35.545-.978-.177-1.386l-7.66-4.377c-.722-.409-1.798-.453-2.416-.102l-7.734 4.42c-.619.351-.545.978.177 1.386l7.66 4.377c.707.409 1.797.453 2.416.103zm-11.947 6.813l7.734-4.42c.618-.351.545-.978-.177-1.387l-7.66-4.377c-.722-.408-1.798-.452-2.416-.102l-7.734 4.421c-.619.35-.545.978.177 1.386l7.66 4.377c.722.423 1.797.467 2.416.102zm-11.932 6.828l7.733-4.421c.619-.35.545-.977-.176-1.386l-7.661-4.377c-.721-.408-1.797-.452-2.415-.102l-7.734 4.421c-.619.35-.545.977.177 1.386l7.66 4.377c.707.423 1.797.467 2.416.102zm-11.933 6.828l7.734-4.42c.619-.35.545-.978-.177-1.386l-7.66-4.377c-.722-.409-1.797-.453-2.416-.102l-7.733 4.42c-.619.35-.546.978.176 1.386l7.66 4.377c.708.409 1.798.453 2.416.102zm-11.947 6.828l7.734-4.42c.619-.351.545-.978-.176-1.386l-7.661-4.377c-.721-.409-1.797-.453-2.416-.103l-7.733 4.421c-.619.35-.545.978.176 1.386l7.661 4.377c.721.409 1.797.453 2.415.102zm-11.932 6.829l7.734-4.421c.619-.35.545-.978-.177-1.386l-7.66-4.377c-.722-.409-1.797-.452-2.416-.102l-7.734 4.421c-.618.35-.545.977.177 1.386l7.66 4.377c.707.408 1.798.452 2.416.102zm-11.932 6.828l7.734-4.421c.619-.35.545-.977-.177-1.386l-7.66-4.377c-.722-.408-1.797-.452-2.416-.102l-7.734 4.421c-.618.35-.545.977.177 1.386l7.66 4.377c.707.408 1.797.452 2.416.102zm-11.932 6.813l7.734-4.42c.618-.351.545-.978-.177-1.386l-7.66-4.377c-.722-.409-1.797-.453-2.416-.103l-7.734 4.421c-.619.35-.545.978.177 1.386l7.66 4.377c.707.423 1.783.467 2.416.102zm-21.228 12.139l16.868-9.644c.618-.35.545-.977-.177-1.386l-7.66-4.377c-.722-.408-1.798-.452-2.416-.102l-16.867 9.644c-.619.35-.545.978.176 1.386l7.661 4.377c.707.409 1.797.453 2.415.102zm-23.245-13.291l14.23-8.141c.619-.351.545-.978-.177-1.386l-7.66-4.378c-.722-.408-1.797-.452-2.416-.102l-14.23 8.142c-.619.35-.545.977.177 1.386l7.66 4.377c.722.423 1.797.467 2.416.102zm119.056-54.786l7.734-4.421c.619-.35.545-.977-.176-1.386l-7.661-4.377c-.721-.408-1.797-.452-2.416-.102l-7.733 4.421c-.619.35-.545.977.176 1.386l7.661 4.377c.707.423 1.797.467 2.415.102zm12.227-6.989l7.734-4.42c.619-.351.545-.978-.177-1.386l-7.66-4.377c-.722-.409-1.797-.453-2.416-.103l-7.734 4.421c-.618.35-.545.978.177 1.386l7.66 4.377c.722.409 1.798.453 2.416.102zm12.242-7.003l7.734-4.421c.618-.35.545-.977-.177-1.386l-7.66-4.377c-.722-.408-1.798-.452-2.416-.102l-7.734 4.421c-.619.35-.545.978.177 1.386l7.66 4.377c.707.423 1.797.467 2.416.102zm12.227-6.988l7.733-4.421c.619-.35.545-.978-.176-1.386l-7.661-4.377c-.721-.409-1.797-.452-2.415-.102l-7.734 4.42c-.619.351-.545.978.177 1.387l7.66 4.377c.722.408 1.797.452 2.416.102zm-48.628 27.808l7.734-4.421c.619-.35.545-.977-.177-1.386l-7.66-4.377c-.722-.408-1.797-.452-2.416-.102l-7.734 4.421c-.618.35-.545.978.177 1.386l7.66 4.377c.707.409 1.798.452 2.416.102zm-11.947 6.828l7.734-4.42c.619-.351.545-.978-.177-1.386l-7.66-4.377c-.722-.409-1.797-.453-2.416-.103l-7.734 4.421c-.618.35-.545.978.177 1.386l7.66 4.377c.722.409 1.798.453 2.416.102zm-11.932 6.829l7.734-4.421c.619-.35.545-.978-.177-1.386l-7.66-4.377c-.722-.409-1.797-.453-2.416-.102l-7.734 4.42c-.618.35-.545.978.177 1.386l7.66 4.377c.707.409 1.797.453 2.416.103zm-11.932 6.828l7.734-4.421c.618-.35.545-.978-.177-1.386l-7.66-4.377c-.722-.409-1.797-.453-2.416-.102l-7.734 4.42c-.619.351-.545.978.177 1.387l7.66 4.377c.707.408 1.797.452 2.416.102zm-11.947 6.813l7.734-4.42c.619-.351.545-.978-.177-1.386l-7.66-4.377c-.722-.409-1.797-.453-2.416-.103l-7.734 4.421c-.619.35-.545.978.177 1.386l7.66 4.377c.722.423 1.797.467 2.416.102zm-11.932 6.829l7.734-4.421c.618-.35.545-.978-.177-1.386l-7.66-4.377c-.722-.409-1.797-.453-2.416-.102l-7.734 4.42c-.619.35-.545.978.177 1.386l7.66 4.377c.707.423 1.797.467 2.416.103zm-11.932 6.828l7.733-4.421c.619-.35.546-.978-.176-1.386l-7.66-4.377c-.722-.409-1.798-.453-2.416-.102l-7.734 4.42c-.619.351-.545.978.177 1.386l7.66 4.378c.707.408 1.797.452 2.416.102zm-11.932 6.828l7.733-4.421c.619-.35.545-.978-.176-1.386l-7.661-4.377c-.721-.409-1.797-.452-2.415-.102l-7.734 4.421c-.619.35-.545.977.176 1.386l7.661 4.377c.707.408 1.782.452 2.416.102zm-11.947 6.828l7.733-4.421c.619-.35.545-.977-.176-1.386l-7.661-4.377c-.721-.409-1.797-.452-2.415-.102l-7.734 4.421c-.619.35-.545.977.177 1.386l7.66 4.377c.722.408 1.797.452 2.416.102zm113.724-78.319l7.733-4.421c.619-.35.545-.978-.176-1.386l-7.661-4.377c-.721-.409-1.797-.453-2.415-.102l-7.734 4.42c-.619.35-.545.978.177 1.386l7.66 4.377c.707.409 1.782.453 2.416.103zm11.873-6.785l7.734-4.421c.618-.35.545-.977-.177-1.386l-7.66-4.377c-.722-.408-1.797-.452-2.416-.102l-7.734 4.421c-.619.35-.545.977.177 1.386l7.66 4.377c.707.408 1.797.452 2.416.102zm11.873-6.799l7.734-4.421c.619-.35.545-.977-.177-1.386l-7.66-4.377c-.722-.408-1.797-.452-2.416-.102l-7.734 4.421c-.618.35-.545.977.177 1.386l7.66 4.377c.707.408 1.797.452 2.416.102zm11.873-6.784l7.734-4.421c.619-.35.545-.978-.177-1.386l-7.66-4.377c-.722-.409-1.797-.453-2.416-.102l-7.733 4.42c-.619.351-.545.978.176 1.386l7.66 4.378c.722.408 1.798.452 2.416.102zm-12.212-6.989l7.734-4.421c.619-.35.545-.977-.177-1.386l-2.533-1.444c-.722-.409-1.798-.452-2.416-.102l-7.734 4.421c-.619.35-.545.977.177 1.386l2.533 1.444c.722.409 1.798.452 2.416.102zm-15.497 8.856l7.734-4.42c.619-.351.545-.978-.177-1.387l-2.533-1.444c-.722-.408-1.798-.452-2.416-.102l-7.734 4.421c-.619.35-.545.977.177 1.386l2.533 1.444c.707.423 1.798.467 2.416.102zm-11.829 6.77l7.734-4.421c.619-.35.545-.977-.177-1.386l-2.534-1.444c-.721-.409-1.797-.452-2.415-.102l-7.734 4.42c-.619.351-.545.978.176 1.387l2.534 1.444c.722.409 1.797.452 2.416.102zm-11.829 6.77l7.734-4.421c.619-.35.545-.977-.177-1.386l-2.534-1.444c-.721-.409-1.797-.453-2.416-.103l-7.733 4.421c-.619.35-.545.978.176 1.386l2.534 1.445c.722.408 1.797.452 2.416.102zm-11.829 6.755l7.734-4.421c.619-.35.545-.977-.177-1.386l-2.534-1.444c-.722-.409-1.797-.453-2.416-.102l-7.733 4.42c-.619.351-.545.978.176 1.386l2.534 1.445c.722.408 1.797.452 2.416.102zm-66.025 37.759l7.734-4.421c.619-.35.545-.977-.177-1.386l-2.533-1.444c-.722-.409-1.798-.452-2.416-.102l-7.734 4.421c-.619.35-.545.977.177 1.386l2.533 1.444c.707.409 1.798.452 2.416.102zm-11.829 6.77l7.734-4.421c.619-.35.545-.978-.177-1.386l-2.534-1.444c-.721-.409-1.797-.453-2.415-.103l-7.734 4.421c-.619.35-.545.978.177 1.386l2.533 1.445c.707.408 1.797.452 2.416.102zm-11.829 6.755l7.734-4.421c.619-.35.545-.977-.177-1.386l-2.534-1.444c-.721-.409-1.797-.452-2.415-.102l-7.734 4.421c-.619.35-.545.977.176 1.386l2.534 1.444c.707.423 1.797.467 2.416.102zm-11.829 6.77l7.734-4.421c.619-.35.545-.977-.177-1.386l-2.534-1.444c-.721-.409-1.797-.453-2.416-.102l-7.733 4.42c-.619.351-.545.978.176 1.386l2.534 1.445c.707.408 1.797.452 2.416.102zm117.142-53.02l7.734-4.421c.618-.35.545-.978-.177-1.386l-7.66-4.377c-.722-.409-1.798-.452-2.416-.102l-7.734 4.42c-.619.351-.545.978.177 1.387l7.66 4.377c.722.408 1.797.452 2.416.102zm-11.932 6.828l7.733-4.421c.619-.35.545-.978-.176-1.386l-7.661-4.377c-.721-.409-1.797-.452-2.415-.102l-7.734 4.421c-.619.35-.545.977.176 1.386l7.661 4.377c.707.408 1.797.452 2.416.102zm-11.933 6.828l7.734-4.421c.619-.35.545-.977-.177-1.386l-7.66-4.377c-.722-.408-1.797-.452-2.416-.102l-7.733 4.421c-.619.35-.546.977.176 1.386l7.66 4.377c.708.408 1.798.452 2.416.102zm-11.947 6.813l7.734-4.42c.619-.351.545-.978-.177-1.386l-7.66-4.377c-.722-.409-1.797-.453-2.416-.103l-7.733 4.421c-.619.35-.546.978.176 1.386l7.661 4.377c.721.423 1.797.467 2.415.102zm-11.932 6.829l7.734-4.421c.619-.35.545-.978-.177-1.386l-7.66-4.377c-.722-.409-1.797-.452-2.416-.102l-7.734 4.421c-.618.35-.545.977.177 1.386l7.66 4.377c.707.423 1.798.467 2.416.102zm-11.932 6.828l7.734-4.421c.619-.35.545-.978-.177-1.386l-7.66-4.377c-.722-.409-1.797-.453-2.416-.102l-7.734 4.42c-.619.351-.545.978.177 1.387l7.66 4.377c.707.408 1.797.452 2.416.102zm-11.932 6.828l7.734-4.421c.618-.35.545-.978-.177-1.386l-7.66-4.377c-.722-.409-1.797-.452-2.416-.102l-7.734 4.421c-.619.35-.545.977.177 1.386l7.66 4.377c.707.408 1.782.452 2.416.102zm-11.947 6.828l7.734-4.421c.618-.35.545-.977-.177-1.386l-7.66-4.377c-.722-.408-1.797-.452-2.416-.102l-7.734 4.421c-.619.35-.545.977.177 1.386l7.66 4.377c.722.408 1.797.452 2.416.102zm-11.932 6.828l7.734-4.421c.618-.35.545-.977-.177-1.386l-7.66-4.377c-.722-.408-1.798-.452-2.416-.102l-7.734 4.421c-.619.35-.545.978.177 1.386l7.66 4.377c.707.409 1.797.452 2.416.102zm163.736-53.764l22.759-13.014c.619-.351.545-.978-.176-1.386l-7.661-4.378c-.721-.408-1.797-.452-2.415-.102l-22.76 13.015c-.619.35-.545.977.177 1.386l7.66 4.377c.707.408 1.797.452 2.416.102zm-146.648 83.849l22.759-13.014c.619-.351.545-.978-.176-1.386l-7.661-4.377c-.721-.409-1.797-.453-2.415-.103l-22.76 13.015c-.619.35-.545.977.177 1.386l7.66 4.377c.707.408 1.797.452 2.416.102zm47.743-12.212l7.734-4.421c.619-.35.545-.977-.177-1.386l-9.118-5.223c-.722-.409-1.797-.452-2.416-.102l-7.734 4.421c-.619.35-.545.977.177 1.386l9.118 5.223c.708.408 1.798.452 2.416.102zm86.678-49.577l12.359-7.062c.619-.35.546-.977-.176-1.386l-9.119-5.223c-.722-.409-1.797-.452-2.416-.102l-12.359 7.061c-.619.351-.545.978.177 1.386l9.118 5.224c.707.408 1.797.467 2.416.102zm-75.187 42.997l12.359-7.062c.619-.35.545-.977-.177-1.386l-9.118-5.223c-.722-.408-1.798-.452-2.416-.102l-12.36 7.061c-.618.351-.545.978.177 1.387l9.119 5.223c.721.408 1.797.452 2.416.102zm57.966-33.149l12.36-7.061c.618-.35.545-.978-.177-1.386l-9.119-5.224c-.721-.408-1.797-.452-2.415-.102l-12.36 7.062c-.618.35-.545.977.177 1.386l9.119 5.223c.707.409 1.797.467 2.415.102zM278.771 225.329l-53.739 30.726c-.663.38-.663 1.007 0 1.386l9.31 5.326c.663.379 1.753.379 2.416 0l53.739-30.727-11.726-6.711zm-103.383 65.816l-8.603 4.916c-.515.292-.442.803.148 1.138l3.727 2.131c.589.335 1.473.379 1.988.087l8.603-4.917c.516-.292.442-.802-.147-1.138l-3.727-2.13c-.589-.35-1.473-.379-1.989-.087zm12.036-6.887l-8.603 4.917c-.516.291-.442.802.147 1.138l3.727 2.13c.589.335 1.473.379 1.989.087l8.603-4.917c.515-.291.442-.802-.148-1.138l-3.727-2.13c-.589-.335-1.473-.379-1.988-.087zm11.932-6.828l-8.603 4.917c-.516.291-.442.802.147 1.138l3.727 2.13c.589.335 1.473.379 1.989.087l8.603-4.917c.515-.291.442-.802-.147-1.138l-3.727-2.13c-.59-.335-1.474-.379-1.989-.087zm-18.517 3.064l-8.603 4.916c-.516.292-.442.803.147 1.139l3.727 2.13c.589.335 1.473.379 1.989.087l8.603-4.917c.515-.291.442-.802-.147-1.138l-3.727-2.13c-.604-.35-1.488-.379-1.989-.087zm-67.115-158.667l77.648-44.398-1.002-4.99-77.633 44.383.987 5.005zm27.812 8.433l54.196-30.99-1.002-4.99-54.195 30.99 1.001 4.99z" fill="#9E90B2"/><path d="M146.663 115.159l46.889-26.802-1.002-5.004-46.889 26.816 1.002 4.99z" fill="#fff"/><path d="M115.919 132.755l23.437-13.409-1.002-5.004-23.437 13.408 1.002 5.005z" fill="#E60D2E"/><path d="M114.446 170.966l13.714 64.401 49.261-28.144-10.768-20.937-52.207-15.32z" fill="#2C1944"/><path opacity=".5" d="M267.03 269.96c13.7-7.835 13.7-27.415 0-35.25l-68.853-39.378-70.017 40.035 60.501 34.593c24.247 13.86 54.122 13.86 78.369 0z" fill="#381E54"/><path d="M203.878 70.805l24.218-13.845-1.031-5.165-24.218 13.846 1.031 5.164z" fill="#9E90B2"/><path d="M206.029 81.763l24.218-13.86-1.031-5.166-24.218 13.86 1.031 5.166z" fill="#fff"/><path d="M415.196 199.11h-.03c11.078-6.098 18.002-19.448 18.061-38.576.117-37.846-26.664-84.126-59.691-103.151l-23.835-13.73-1.149.642-109.363 60.914 27.709 17.829 10.4 7.543 14.319 14.823 2.298 2.087 15.246 22.862 5.583 14.313 4.14 11.38 3.403 23.884.235 2.058-1.237 10.067-3.521 12.46-4.964 8.447-7.218 8.477 109.614-62.329zM223.824 104.742l-.015 4.012 72.566 41.728c-1.223-2.787-3.55-5.107-5.922-7.427l-66.629-38.313z" fill="#3C245B"/><path d="M114.461 166.954l109.363-62.212 66.217 39.364 8.278 9.556 12.448 21.667 7.822 21.651 2.549 16.925.324 16.895-10.695 24.176-13.877 8.024-14.289.744-17.132-7.047-135.393-78.888-15.615-10.855z" fill="#F8F8F8"/><path d="M415.166 199.125c9.281-5.107 15.615-15.305 17.486-29.691l-111.544 63.321-3.314 11.774-4.965 8.448-7.218 8.477 109.585-62.329h-.03z" fill="#382256"/><path d="M432.225 172.192c.633-3.604.987-7.485 1.002-11.643.014-2.787-.148-5.617-.428-8.492l-111.19 63.117.678 4.742.236 2.057-1.238 10.067-1.046 3.706 111.986-63.554zM114.446 170.966l.015-4.012 149.299 85.921c31.112 17.916 56.509 3.501 56.627-32.142.117-35.644-25.102-79.21-56.214-97.126l-24.984-14.386.014-4.012 24.984 14.386c33.042 19.025 59.809 65.305 59.691 103.151-.118 37.847-27.091 53.166-60.133 34.141l-149.299-85.921zM174.033 178.655l67.218-38.824 4.228 2.393-67.218 38.809-4.228-2.378zm1.871-22.162l46.933-27.094 4.213 2.393-46.918 27.094-4.228-2.393zm15.541 1.561l40.599-23.431 4.213 2.378-40.584 23.446-4.228-2.393zm-26.619 15.378l20.3-11.716 4.213 2.393-20.3 11.716-4.213-2.393z" fill="#381E54"/><path d="M179.778 381.661l-145.027-82.988c-3.521-2.013-3.08-5.515.987-7.849 4.065-2.32 10.208-2.568 13.714-.57l145.028 82.989c3.521 2.013 3.079 5.515-.987 7.849-4.066 2.32-10.209 2.568-13.715.569z" fill="#EFEFEF"/><path d="M22.892 270.295a.535.535 0 1.59-.262l7.718 1.576-2.975 5.135-5.26-5.807a.547.547 0 1-.073-.642z" fill="#E60D2E"/><path d="M25.97 274.045c0-1.094.782-2.437 1.74-2.991.441-.263.839-.292 1.148-.146a49.567 49.567 0 125.397 6.464l.56.321-9.414 16.224-2.843-1.824a48.966 48.966 0 1-14.922-15.028l-1.223-1.94c-.265-.219-.442-.569-.442-1.08zM43.457 289.627c-.015-4.216 2.975-9.352 6.658-11.468 3.683-2.115 6.673-.408 6.688 3.808.015 4.217-2.976 9.353-6.658 11.468-3.683 2.116-6.688.409-6.688-3.808zM102.558 328.393l-57.142-34.491 9.413-16.224 58.851 31.544-11.122 19.171z" fill="#3C245B"/><path d="M100.245 323.33c-.015-4.99 3.506-11.045 7.866-13.554 4.346-2.495 7.896-.482 7.896 4.494.015 4.989-3.506 11.044-7.866 13.554-4.346 2.509-7.881.496-7.896-4.494z" fill="#D4ECFF"/><path d="M103.501 325.183c-.015-4.99 3.506-11.045 7.866-13.554 4.346-2.495 7.896-.482 7.896 4.494.015 4.989-3.506 11.044-7.866 13.554-4.346 2.509-7.882.496-7.896-4.494zM116.96 311.077l-11.119 19.166 75.58 43.009 11.119-19.166-75.58-43.009zM179.071 368.195c-.015-4.99 3.506-11.045 7.867-13.555 4.36-2.509 7.895-.481 7.895 4.494.015 4.99-3.506 11.045-7.866 13.554-4.346 2.51-7.881.496-7.896-4.493zM181.9 366.575c.147-2.947 2.519-6.624 5.317-8.229 2.799-1.605 4.95-.525 4.803 2.422-.148 2.947-2.519 6.624-5.318 8.229-2.799 1.605-4.95.525-4.802-2.422zm-82.23-43.566c-.014-4.99 3.507-11.044 7.867-13.554 1.753-1.007 3.373-1.269 4.684-.919-1.428-1.459-3.771-1.605-6.408-.088-4.345 2.495-7.866 8.565-7.866 13.554 0 2.977 1.282 4.888 3.226 5.413-.943-.948-1.502-2.436-1.502-4.406zM99.67 323.009c-.014-4.99 3.507-11.045 7.867-13.554 2.18-1.255 4.154-1.371 5.583-.554l4.287 2.436-1.989 3.443c-.324 4.538-3.329 9.732-7.13 12.285l-1.988 3.443-4.287-2.436c-1.459-.817-2.342-2.568-2.342-5.063zM103.943 325.446c-.015-4.99 3.506-11.045 7.866-13.554 4.346-2.495 7.896-.482 7.896 4.493.015 4.99-3.506 11.045-7.867 13.555-4.345 2.494-7.881.496-7.895-4.494z" fill="#9E90B2"/><path d="M185.45 368.749l4.802-8.272 16.013 9.118c2.298 1.313 3.093 4.231 1.782 6.507-1.326 2.277-4.272 3.064-6.57 1.766l-16.027-9.119zM184.448 366.575c0-2.145 1.517-4.771 3.388-5.851 1.871-1.079 3.403-.204 3.403 1.941s-1.517 4.771-3.388 5.851c-1.871 1.079-3.388.204-3.403-1.941z" fill="#E60D2E"/><path d="M166.461 337.731l2.372-1.372c1.37-.788 3.182-.613 5.112.496l8.234 4.684c1.547.89 2.829 3.049 2.829 4.829l.015 4.056c0 .686.353 1.459.839 2.028l-.294 1.882 2.032-1.182c.295-.146.472-.496.472-.992l-.015-4.056c-.015-3.706-2.651-8.214-5.892-10.052l-8.235-4.684c-2.755-1.561-5.333-1.809-7.277-.7l-2.372 1.371c-1.37.788-3.182.613-5.112-.496l-33.174-18.879c-.427-.248-.81-.263-1.09-.088l-2.018 1.182 1.753.642c.25.729.766 1.43 1.37 1.765l33.174 18.865c2.755 1.561 5.333 1.809 7.277.701zM166.785 337.555c1.37-.787 3.182-.612 5.112.497l8.235 4.683c1.547.89 2.828 3.049 2.828 4.829l.015 4.056c0 .963.692 2.13 1.532 2.612.84.481 1.532.087 1.532-.875l-.015-4.057c-.015-3.705-2.651-8.214-5.892-10.052l-8.235-4.683c-2.755-1.562-5.333-1.81-7.277-.701l-2.372 1.372c-1.37.788-3.182.612-5.111-.496l-33.175-18.88c-.84-.481-1.532-.088-1.532.875s.692 2.131 1.532 2.612l33.175 18.88c2.754 1.561 5.332 1.809 7.277.7l2.371-1.372z" fill="#3C245B"/><path d="M183.063 348.221l.015 4.056.015.087a2.68 2.68 0 1-.118-.744l-.015-4.056-.029-.35c.073.336.132.686.132 1.007z" fill="#fff"/><path d="M198.605 388.285l-15.173-8.681c-1.827-1.05-1.606-2.874.515-4.085 2.107-1.211 5.303-1.342 7.145-.292l15.173 8.681c1.826 1.051 1.605 2.874-.516 4.085-2.121 1.211-5.318 1.343-7.144.292zm288.11-159.352l20.285-11.599-20.285-11.585-20.27 11.585 20.27 11.599z" fill="#EFEFEF"/><path d="M466.445 204.188l20.27 11.599v-23.184l-20.27-11.599v23.184z" fill="#C40C30"/><path d="M486.715 192.603l20.285-11.599-20.285-11.599-20.27 11.599 20.27 11.599z" fill="#E60D2E"/><path d="M486.715 215.787l20.285-11.599v-23.184l-20.285 11.599v23.184z" fill="#DD1037"/><path d="M22.583 233.193l22.583-12.913-22.583-12.912-22.583 12.912 22.583 12.913z" fill="#EFEFEF"/><path d="M0 205.632l22.583 12.912v-25.824l-22.583-12.912v25.824z" fill="#2C1944"/><path d="M22.583 192.72l22.583-12.912-22.583-12.912-22.583 12.912 22.583 12.912z" fill="#3C285B"/><path d="M22.583 218.544l22.583-12.912v-25.824l-22.583 12.912v25.824z" fill="#3C245B"/><path d="M346.372 386.884l22.583-12.912-22.583-12.912-22.583 12.912 22.583 12.912z" fill="#EFEFEF"/><path d="M323.789 359.324l22.583 12.912v-25.824l-22.583-12.912v25.824z" fill="#2C1944"/><path d="M346.372 346.412l22.583-12.913-22.583-12.912-22.583 12.912 22.583 12.913z" fill="#3C285B"/><path d="M346.372 372.236l22.583-12.912v-25.824l-22.583 12.912v25.824zm-80.019-164.532c18.948 0 34.309-8.786 34.309-19.624 0-10.837-15.361-19.623-34.309-19.623-18.948 0-34.309 8.786-34.309 19.623 0 10.838 15.361 19.624 34.309 19.624z" fill="#381E54"/><path d="M232.029 177.984v-6.244h1.812c1.636-2.787 4.361-5.413 8.235-7.631 13.405-7.66 35.134-7.66 48.524 0 3.875 2.218 6.6 4.844 8.235 7.631h1.812v6.2c.029 5.034-3.329 10.082-10.047 13.934-13.405 7.66-35.133 7.66-48.524 0-6.703-3.837-10.047-8.856-10.047-13.89z" fill="#C40C30"/><path d="M266.352 191.363c18.948 0 34.309-8.786 34.309-19.623 0-10.838-15.361-19.624-34.309-19.624-18.948 0-34.308 8.786-34.308 19.624 0 10.837 15.36 19.623 34.308 19.623z" fill="#E60D2E" filter="url(#b)"/><path d="M242.076 185.615c13.405 7.659 35.134 7.659 48.524 0 6.423-3.677 9.738-8.433 10.003-13.248.294 5.223-3.02 10.505-10.003 14.502-13.405 7.66-35.133 7.66-48.524 0-6.983-3.997-10.282-9.264-10.002-14.502.279 4.815 3.579 9.571 10.002 13.248zM282.881 178.232c.575-.335.899-.773.899-1.255l-.03-12.78c0-.978-1.384-1.766-3.093-1.766s-3.079.788-3.079 1.766l.029 10.607-31.067-3.765c-1.665-.204-3.315.409-3.668 1.357-.354.949.707 1.897 2.386 2.101l34.795 4.217c.913.116 1.856-.015 2.592-.351l.236-.131z" fill="#fff"/><path d="M116.14 141.305c.619 1.327 2.165 1.794 3.462 1.05 1.296-.744 1.856-2.422 1.237-3.75-.619-1.327-2.165-1.794-3.462-1.05-1.296.744-1.856 2.422-1.237 3.75z" fill="#E60D2E"/><path d="M107.846 146.046c.619 1.328 2.166 1.795 3.462 1.051 1.296-.744 1.856-2.422 1.238-3.75-.619-1.328-2.166-1.794-3.462-1.05-1.297.744-1.856 2.422-1.238 3.749z" fill="#fff"/><path d="M99.553 150.788c.618 1.328 2.165 1.795 3.462 1.051 1.296-.744 1.856-2.422 1.237-3.75-.619-1.328-2.166-1.794-3.462-1.05-1.296.744-1.856 2.422-1.237 3.749z" fill="#9E90B2"/><path d="M91.26 155.53c.618 1.328 2.165 1.795 3.46 1.05 1.297-.744 1.857-2.422 1.238-3.749-.618-1.328-2.165-1.795-3.462-1.051-1.296.744-1.856 2.422-1.237 3.75z" fill="#E60D2E"/><path d="M348.552 44.295l1.149-.642 23.835 13.73c7.823 4.508 15.291 10.563 22.141 17.654l-40.82 23.344-51.028-29.18 44.723-24.906z" fill="#2C1944"/><path d="M304.934 44.996l7.409-4.231-27.296-15.612c-1.297-.744-1.297-1.94 0-2.67l27.886-15.947c1.296-.744 3.388-.744 4.669 0l27.297 15.612 7.41-4.231-27.297-15.612c-5.377-3.078-14.112-3.078-19.489 0l-27.886 15.947c-5.377 3.079-5.377 8.068 0 11.147l27.297 15.597z" fill="#E60D2E"/><path d="M292.986 46.863c0-3.924 2.401-8.476 5.377-10.169l49.452-28.274c1.326-.76 2.549-.817 3.477-.292l59.057 33.98-57.098 42.618-58.188-33.455a3.576 3.576 0 1-.515-.292c-.973-.73-1.562-2.16-1.562-4.115z" fill="#BCB3C9"/><path d="M353.237 84.725l-58.173-33.455a3.577 3.577 0 1-.516-.292c-.972-.73-1.576-2.16-1.576-4.115 0-1.867.56-3.88 1.444-5.66l66.319 37.919-7.498 5.603zM356.964 84.564l49.452-28.275c2.976-1.693 5.377-6.245 5.377-10.17 0-3.924-2.401-5.719-5.377-4.026l-49.452 28.275c-2.976 1.693-5.377 6.245-5.377 10.17 0 3.924 2.401 5.733 5.377 4.026z" fill="#9E90B2"/><path d="M356.375 70.105l49.452-28.275c1.37-.773 2.607-.817 3.55-.248-.854-.263-1.871-.102-2.961.51l-49.452 28.276c-2.976 1.693-5.377 6.245-5.377 10.17 0 2.115.707 3.603 1.827 4.274-1.459-.438-2.416-2.072-2.416-4.537 0-3.925 2.401-8.477 5.377-10.17zM364.374 75.037l5.951-3.4c.589-.335 1.075-1.24 1.075-2.028s-.486-1.138-1.075-.802l-5.951 3.4c-.59.335-1.076 1.24-1.076 2.027 0 .773.486 1.138 1.076.803z" fill="#fff"/><path d="M357.671 34.827c-1.797-1.051-1.783-2.729.044-3.736 1.812-1.006 4.744-.977 6.541.073 1.797 1.05 1.782 2.729-.044 3.735-1.827 1.007-4.759.978-6.541-.072z" fill="#381E54"/><path d="M347.713 40.37c-1.798-1.05-1.783-2.728.044-3.734 1.812-1.007 4.743-.978 6.54.072 1.798 1.051 1.783 2.729-.044 3.736-1.826 1.02-4.758.992-6.54-.073zm-9.958 5.56c-1.798-1.051-1.783-2.729.044-3.736 1.812-1.006 4.743-.977 6.54.073 1.797 1.05 1.783 2.729-.044 3.735-1.827 1.007-4.758.978-6.54-.073z" fill="#fff"/><path d="M455.721 342.837l45.225-25.868c2.769-1.59 2.43-4.362-.781-6.186l-43.663-24.978c-3.212-1.839-8.058-2.028-10.828-.438l-45.224 25.868c-2.769 1.59-2.431 4.363.781 6.186l43.663 24.978c3.196 1.824 8.058 2.029 10.827.438z" fill="#EFEFEF"/><path d="M398.579 298.717v-15.451l34.987-.015 12.094-6.915c2.769-1.591 7.63-1.386 10.827.437l11.284 6.449 35.016-.014v15.888c.074 1.08-.53 2.116-1.856 2.874l-45.225 25.869c-2.769 1.59-7.63 1.386-10.827-.438l-43.663-24.978c-1.841-1.051-2.74-2.422-2.637-3.706z" fill="#381E54"/><path d="M450.698 275.271c2.033.043 4.139.554 5.804 1.502l11.284 6.449 35.016-.014v15.888c.073 1.08-.531 2.116-1.857 2.874l-45.224 25.868c-1.341.759-3.153 1.109-5.023 1.066v-53.633zM498.839 283.208h3.963v15.888c.073 1.08-.531 2.116-1.857 2.874l-2.106 1.197v-19.959zm-43.81 44.966c-2.401 1.021-5.863.963-8.662-.102v-18.033h8.662v18.135z" fill="#3C245B"/><path d="M455.722 312.008l45.225-25.868c2.769-1.59 2.43-4.362-.781-6.186l-43.663-24.978c-3.211-1.839-8.058-2.028-10.827-.438l-45.225 25.868c-2.769 1.591-2.431 4.363.781 6.186l43.663 24.979c3.196 1.823 8.058 2.013 10.827.437z" fill="#3C285B"/><path d="M401.216 283.543l43.663 24.978c3.211 1.839 8.058 2.028 10.827.438l45.225-25.868c.618-.35 1.075-.774 1.384-1.211.958 1.517.516 3.166-1.384 4.26l-45.225 25.868c-2.769 1.591-7.63 1.386-10.827-.437l-43.663-24.979c-2.49-1.429-3.241-3.414-2.165-4.975.441.686 1.163 1.357 2.165 1.926z" fill="#fff"/><path d="M415.225 302.802c0 1.153.825 2.553 1.827 3.137 1.002.583 1.827.102 1.827-1.051 0-1.152-.825-2.553-1.827-3.136-1.017-.569-1.827-.103-1.827 1.05zm-5.877-3.356c0 1.153.825 2.554 1.826 3.137 1.002.584 1.827.102 1.827-1.05 0-1.153-.825-2.554-1.827-3.137-1.016-.584-1.826-.102-1.826 1.05zm-5.878-3.37c0 1.153.825 2.553 1.827 3.137 1.001.583 1.826.102 1.826-1.051 0-1.152-.825-2.553-1.826-3.137-1.002-.583-1.827-.102-1.827 1.051z" fill="#3C285B"/><path d="M453.04 295.974l21.169-12.095c1.296-.744 1.134-2.043-.369-2.904l-20.432-11.686c-1.502-.861-3.771-.949-5.067-.204l-21.169 12.095c-1.296.744-1.134 2.042.368 2.903l20.432 11.687c1.503.846 3.772.948 5.068.204z" fill="#381E54"/><path d="M451.022 285.834l2.931-1.678c.177-.102.162-.277-.044-.394l-2.828-1.619c-.206-.117-.516-.132-.707-.03l-2.932 1.678c-.177.102-.162.278.044.394l2.829 1.62c.206.116.53.131.707.029z" fill="#3C285B"/><path d="M474.209 283.864l-.059.029-.309-.204-20.433-11.686c-1.502-.861-3.771-.949-5.067-.205l-21.11 12.066c-1.193-.846-1.267-1.999-.059-2.684l21.169-12.095c1.296-.745 3.565-.657 5.067.204l20.433 11.686c1.502.847 1.664 2.145.368 2.889z" fill="#2C1944"/></g><defs><clipPath id="a"><path fill="#fff" d="M0 0h507v389h-507z"/></clipPath><filter id="b" x="228.044" y="152.116" width="76.617" height="47.247" filterUnits="userSpaceOnUse" color-interpolation-filters="sRGB"><feFlood flood-opacity="0" result="BackgroundImageFix"/><feColorMatrix in="SourceAlpha" values="0 0 0 0 0 0 0 0 0 0 0 0 0 0 0 0 0 0 127 0"/><feOffset dy="4"/><feGaussianBlur stdDeviation="2"/><feColorMatrix values="0 0 0 0 0.921569 0 0 0 0 0 0 0 0 0 0.160784 0 0 0 1 0"/><feBlend in2="BackgroundImageFix" result="effect1_dropShadow"/><feBlend in="SourceGraphic" in2="effect1_dropShadow" result="shape"/></filter></defs></svg>