<svg width="18" height="21" viewBox="0 0 18 21" fill="none" xmlns="http://www.w3.org/2000/svg">
<g clip-path="url(#clip0)">
<path d="M3.93414 17.7755H0.290314V6.09189H3.93414V17.7755ZM2.11027 4.49814C0.945089 4.49814 0 3.53721 0 2.37705C8.33985e-09 1.81979 0.222331 1.28534 0.618083 0.891298C1.01384 0.497252 1.55059 0.275879 2.11027 0.275879C2.66995 0.275879 3.2067 0.497252 3.60245 0.891298C3.9982 1.28534 4.22054 1.81979 4.22054 2.37705C4.22054 3.53721 3.27505 4.49814 2.11027 4.49814ZM17.5718 17.7755H13.9358V12.088C13.9358 10.7325 13.9084 8.99424 12.0414 8.99424C10.1469 8.99424 9.85655 10.4669 9.85655 11.9903V17.7755H6.21664V6.09189H9.71139V7.68564H9.76239C10.2489 6.76768 11.4372 5.79893 13.2101 5.79893C16.8978 5.79893 17.5758 8.21689 17.5758 11.3575V17.7755H17.5718Z" fill="#F3F3F3"/>
</g>
<defs>
<clipPath id="clip0">
<rect width="17.5758" height="20" fill="white" transform="translate(0 0.274414)"/>
</clipPath>
</defs>
</svg>
