<svg width="14" height="20" viewBox="0 0 14 20" fill="none" xmlns="http://www.w3.org/2000/svg">
<path fill-rule="evenodd" clip-rule="evenodd" d="M6.4826 0.00875141C4.69495 0.189626 3.2581 0.855403 2.05956 2.05821C-0.0523968 4.17768 -0.597464 7.36393 0.691414 10.0558C0.96085 10.6186 6.52558 19.6525 6.7184 19.8403C6.96161 20.077 7.34378 20.0469 7.5564 19.7742C7.71419 19.5718 13.0705 10.5816 13.2657 10.1915C13.5862 9.55113 13.7959 8.91152 13.9322 8.15908C14.0141 7.70652 14.0241 6.4989 13.9497 6.02769C13.704 4.47103 13.0365 3.14073 11.9578 2.05821C10.8845 0.981097 9.52448 0.292051 8.02454 0.0654191C7.71431 0.0185675 6.73968 -0.0172555 6.4826 0.00875141ZM7.8258 1.21891C9.04075 1.38899 10.2615 2.00256 11.1352 2.88238C11.9571 3.7099 12.491 4.70955 12.7422 5.89081C12.869 6.48717 12.8695 7.5707 12.7431 8.15908C12.6265 8.70233 12.4574 9.19099 12.2289 9.64519C12.1262 9.84953 10.9294 11.8791 9.56941 14.1554L7.09676 18.2941L4.52227 14.1304C3.10632 11.8404 1.86974 9.81081 1.77438 9.6202C1.39193 8.85595 1.21064 8.14015 1.17643 7.25959C1.07144 4.55679 2.78692 2.15958 5.37282 1.39549C6.14878 1.1662 7.00748 1.1044 7.8258 1.21891ZM6.37481 3.56446C5.05565 3.8155 3.97066 4.8293 3.613 6.14501C3.49184 6.5908 3.49122 7.45474 3.61171 7.90488C3.87429 8.88551 4.5612 9.72798 5.46019 10.1721C6.01407 10.4457 6.33447 10.5174 7.00869 10.5187C7.68099 10.5199 7.99563 10.4495 8.55659 10.1724C9.45878 9.72673 10.1422 8.88856 10.4057 7.90488C10.5262 7.45474 10.5255 6.5908 10.4044 6.14501C10.0727 4.92492 9.08494 3.93509 7.8855 3.62086C7.47289 3.51276 6.782 3.48699 6.37481 3.56446ZM7.48415 4.72167C7.85682 4.79969 8.29554 5.03477 8.58991 5.3142C8.88947 5.59855 9.07313 5.87677 9.22243 6.27242C9.30812 6.49949 9.3223 6.60125 9.32464 7.00539C9.32753 7.50433 9.28688 7.689 9.08358 8.10042C8.80027 8.67366 8.1819 9.16189 7.54982 9.3114C6.09684 9.65512 4.67414 8.53092 4.6711 7.03664C4.67032 6.65396 4.72901 6.40031 4.90784 6.01376C5.18889 5.40626 5.81614 4.89484 6.47788 4.73372C6.73231 4.67173 7.21787 4.66594 7.48415 4.72167Z" fill="#5D5D5D"/>
</svg>
