<svg width="143" height="31" viewBox="0 0 143 31" xmlns="http://www.w3.org/2000/svg" fill="none"><path fill-rule="evenodd" clip-rule="evenodd" d="M27.51 10.04c-.209-.552-.423-1.057-.661-1.549-.239-.492-.502-.975-.811-1.479-.478-.741-.961-1.407-1.519-2.003-.556-.593-1.187-1.118-1.962-1.579-.74-.4-1.424-.694-2.131-.918-.707-.223-1.439-.376-2.275-.49-.87-.095-1.649-.126-2.421-.088-.771.039-1.54.148-2.39.332-1.161.286-2.203.666-3.138 1.195-.934.528-1.763 1.207-2.502 2.093l-.493.597c-.325.398-.64.783-.912 1.082-.151.168-.29.308-.409.407-.135.113-.253.179-.352.184l-.062.003-.039-.049c-.084-.104-.11-.241-.088-.402.021-.151.086-.328.184-.519.126-.247.309-.525.525-.813.243-.325.528-.663.819-.984.859-.948 1.775-1.706 2.796-2.314 1.021-.608 2.146-1.065 3.427-1.41h.004c.91-.217 1.735-.35 2.566-.407.83-.056 1.668-.036 2.606.053h.003c.915.111 1.719.268 2.499.504.781.237 1.535.552 2.349.98l.004.002c.881.509 1.597 1.082 2.226 1.736.628.651 1.172 1.381 1.712 2.204l.001.003c.335.536.622 1.048.881 1.57s.492 1.059.719 1.643l.001.002c.17.454.317.891.449 1.332.131.44.247.886.353 1.358l.001.002c.24 1.157.382 2.204.415 3.254.033 1.05-.044 2.104-.242 3.272l-.001.004c-.241 1.166-.552 2.161-1.007 3.09-.457.929-1.058 1.79-1.881 2.687l-.003.003c-.762.776-1.485 1.447-2.258 2.062-.773.614-1.594 1.171-2.556 1.72l-.003.002c-.897.482-1.715.854-2.567 1.138-.851.285-1.734.482-2.76.617h-.003c-1.045.105-1.962.113-2.87.022-.908-.092-1.805-.283-2.811-.578l-.004-.001c-1.141-.369-2.121-.786-3.056-1.284-.933-.498-1.821-1.076-2.777-1.77l-.004-.003c-1.022-.797-1.81-1.602-2.459-2.501-.648-.898-1.157-1.889-1.623-3.059l-.001-.004c-.442-1.242-.723-2.377-.871-3.528-.148-1.15-.162-2.314-.071-3.614l.001-.005c.197-1.861.582-3.597 1.254-5.208.673-1.614 1.634-3.103 2.984-4.473.723-.733 1.606-1.538 2.377-2.036.616-.398 1.173-.603 1.547-.435l.078.034-.006.084c-.003.042-.189.246-.484.566-.579.628-1.61 1.744-2.445 2.665-1.245 1.372-2.121 2.685-2.734 4.112-.614 1.428-.967 2.973-1.164 4.81-.087 1.198-.076 2.271.056 3.33.133 1.057.388 2.101.792 3.242.414 1.045.864 1.932 1.437 2.734.572.801 1.269 1.521 2.178 2.232.887.647 1.712 1.188 2.577 1.652.865.465 1.774.855 2.831 1.201.906.268 1.712.443 2.526.527.815.085 1.64.08 2.582-.012.928-.119 1.726-.297 2.496-.553.77-.256 1.513-.592 2.331-1.028.9-.51 1.67-1.03 2.395-1.603.725-.573 1.404-1.201 2.122-1.928.738-.798 1.275-1.565 1.682-2.39.407-.826.686-1.713.906-2.755.188-1.083.264-2.06.237-3.033-.026-.972-.153-1.946-.37-3.023-.097-.441-.202-.86-.322-1.274-.119-.411-.253-.82-.409-1.247z" fill="#EB0029"/><path fill-rule="evenodd" clip-rule="evenodd" d="M13.057 7.751l-.012.239c-.018 1.08-.023 2.084-.027 3.089l-.008 1.413c1.087-.368 2.152-.733 2.987-1.025.67-.235 1.192-.423 1.457-.53l.002-.707c-.006-1.463-.018-4.143.625-4.206.171-.017.281-.015.37.146.064.113.098.319.127.708.034.46.052 1.067.059 1.669.011.859.001 1.703-.007 2.086.306-.085.687-.203 1.074-.323l.994-.301c.23-.067.583-.159.892-.194.358-.039.664.004.722.249.114.477-.055.533-.47.671l-.055.018c-.473.159-1.032.301-1.596.444-.542.136-1.09.275-1.561.428-.064 1.287-.105 2.332-.129 3.25-.024.875-.033 1.634-.036 2.376.965-.318 1.805-.592 2.44-.787.683-.21 1.124-.321 1.217-.284.077.03.137.082.176.148.043.071.062.157.053.246-.009.083-.041.171-.1.249-.075.099-.192.187-.354.239-.33.104-.793.256-1.381.451l-2.05.685.007 2.097c.002 1.084.003 1.794.213 2.927.023.123.033.426-.005.742-.027.229-.079.469-.168.662-.098.215-.244.374-.453.413l-.163.004c-.743-.089-.713-1.266-.701-1.749l.002-.088c.017-1.078.022-2.119.027-3.15l.008-1.444c-1.086.367-2.149.731-2.984 1.023-.672.235-1.196.424-1.461.531-.029.556-.046 1.018-.053 1.376-.008.396-.004.67.01.812.017.167.048.207.085.257.038.051.082.108.127.235.075.209.143.618.137 1.02-.004.244-.034.487-.104.686-.077.219-.205.388-.399.458l-.207.033c-.285-.004-.457-.121-.566-.298-.099-.161-.138-.367-.166-.578l-.046-.537-.026-.707-.084-.082-.073-.063-.08-.056-.174-.126c-.111-.088-.224-.159-.341-.222l-.379-.176-.196-.072-.199-.064c-.208-.055-.451-.103-.701-.152-.461-.09-.948-.186-1.334-.354l-.003-.002-.087-.045-.084-.054-.002-.002-.098-.086-.08-.108-.041-.078-.016-.047c-.113-.477.056-.533.469-.67l.056-.019c.469-.157 1.107-.322 1.752-.488.618-.159 1.242-.321 1.726-.478.065-1.286.105-2.333.13-3.25.024-.874.033-1.635.036-2.375-.977.322-1.901.623-2.613.843-.769.238-1.297.377-1.391.34-.077-.03-.137-.082-.176-.148-.043-.071-.061-.157-.053-.246.009-.083.042-.17.101-.249.074-.099.192-.188.354-.239.33-.104.879-.283 1.552-.506.694-.229 1.465-.486 2.227-.741l-.007-1.882c-.002-.61-.003-1.334.022-2.052.025-.725.077-1.446.183-2.043l.011-.063c.022-.129.049-.291.101-.433.097-.265.266-.462.598-.341.47.172.409 1.12.374 1.658zm3.809 10.133l.553-.178c.01-.817.025-1.671.053-2.595.027-.916.066-1.902.122-2.99-.602.162-2.214.682-3.955 1.244l-.539.173c-.01.818-.026 1.671-.053 2.596-.027.917-.066 1.902-.121 2.989.6-.161 2.204-.679 3.94-1.239zm-6.05 2.692c-.704.157-1.495.333-1.84.465l.394.053c.241.028.482.057.645.109l.142.046c.198.062.387.123.591.201h.001c.21.084.396.17.573.267l.309.189.012-.788.024-.738-.853.196zM43.946 8.003c-.394 2.949-1.738 15.49-1.503 19.669.027.49 0 1.505.703 1.505 1.411 0 1.381-1.135.85-1.527-.08-.059-.151-.226-.139-.803.143-6.132.631-13.323.952-19.184 3.706-1.692 5.86-2.672 10.217-3.994 2.713-.823 5.127-.531 4.196-1.371-2.072-1.87-16.066 4.971-21.133 6.793-.55.264-3.657 1.312-3.325 1.837.422.668 8.026-2.5 9.181-2.926zm19.969 10.672c-.02 1.365-.36 3.071-.221 4.399-1.47-.996-6.536-1.312-6.511-1.787.029-.563 5.753-2.337 6.733-2.611zm12.41 5.96c-.288.157-.239.468-.037.745 1.353 1.857 3.467 3.662 5.519 3.759 1.68.08 3.344-.416 4.615-1.671.398-.393.693-.645 1.043-1.1.179-.233.187-.17.377.062.43.524.231 1.856.428 2.434.359 1.059 2.456-.619.192-4.089-.109-.166-.272-.432-.489-.443-.712-.037-1.2.882-1.613 1.362-1.22 1.416-2.594 2.4-4.368 2.347-1.614-.048-3.556-2.089-4.555-3.039-.386-.367-.639-.624-1.112-.366zm-23.736 4.812c.654-.032 1.019-.03 1.452-1.786-.489-.259-1.526-1.019-2.101-.126-.372.577.027 1.911.649 1.911zm52.254-.28c1.162-.179.525-1.127-.305-1.507-1.511-.722-2.483-2.331-3.867-2.961-2.138-.972-3.57-.344-5.17 1.356-.408.433-.746.826-1.106 1.33-.161.223-.079.258-.328-.075-.362-.482-.079-1.445-.199-2.022-.145-.697-.887-.646-1.05.021-.16.653-.097 1.677.169 2.453.217.633.6 1.369 1.201 1.393.762.03 1.027-.937 1.435-1.389 1.095-1.216 2.875-2.671 4.529-1.872 1.263.61 3.379 3.474 4.692 3.271zm29.637-1.691c-.039-.001-.071-.217-.084-.296-.037-.222-.109-1.12-.247-1.693-.225-.937-1.168-.788-1.111.579.039.897.245 3.121 1.366 3.111 1.761-.015.679-3.868 3.851-4.108 1.581-.12 4.459 1.299 4.707.758.414-.908-2.642-1.926-4.215-1.852-4.351.207-3.841 3.52-4.267 3.501zm-15.935-.856c.687-.794 2.93-1.082 4.007-1.23 1.063-.146 3.48-.174 3.593.39.091.346-1.746.407-2.744.406-.422 0-.817.002-.747.518.099.722 1.207.489 1.728.447.777-.063 3.271-.325 3.404-1.34.082-.632-1.119-1.191-1.771-1.333-1.933-.422-9.117-.08-8.955 2.869.195 2.3 3.821 1.811 5.384 1.735 1.259-.062 2.566-.208 3.835-.202 1.145.005 2.288.188 3.433.258.588.036.995-.207.99-.599-.005-.404-.669-.555-1.009-.603-1.48-.208-4.26-.169-5.188-.076-1.384.139-3.062.284-4.45.271-.619-.006-2.394-.487-1.51-1.511zm-6.322-19.456c.007-.477.223-2.065-.356-2.28-.538-.201-.625.569-.692.952-.264 1.519-.26 3.661-.255 5.221.01 3.564.051 6.595-.208 11.8-1.244.423-2.647.681-3.832 1.085-.479.163-.679.201-.562.698.099.422 1.273.124 1.847-.043.889-.26 1.829-.596 2.558-.789-.076 1.399-.086 3.937.044 4.922.067.505.177.979.773.987.955.014.793-2.002.579-2.606-.122-.341-.233-.231-.277-.668-.037-.364-.023-1.371.059-2.928 1.249-.534 4.259-1.629 6.303-2.286.544-.176.585-.711.276-.834-.356-.142-5.295 1.766-6.54 2.046.312-6.216.21-10.63.283-15.277zm-39.486 8.864c2.045-.694 5.705-1.739 7.026-2.228.618-.229.511-.375.418-.491-.116-.144-.371-.216-1.027-.053-1.31.327-3.842.991-6.366 1.686.314-3.272-.664-7.93-.174-10.884.109-.658-.907-.968-1.063-.163-.1.516-.145 1.39-.152 1.573-.109 3.118.52 6.753.327 9.668-1.731.5-5.09 1.496-6.703 1.893.383-3.294.648-6.586.621-9.859-.014-1.778-.963-1.151-.98-.353-.075 3.482-.387 7.064-.814 10.597-2.299.838-8.454 2.889-8.633 3.918-.117.667.828.769 1.424.92 1.694.431 3.984.717 6.02 1.592 1.75.752 1.007 3.523 1.096 5.056.049.841.248 1.624 1.281 1.624.692-.041.98-.921.921-2.237-.09-1.997-.175-3.278-1.221-4.539 0-1.334-.018-2.798.205-5.531 1.811-.529 5.238-1.473 6.761-1.876-.083 3.388-.258 6.368-.445 9.768-.029.535-.28 2.888.749 2.901.913.013 1.377-2.068.45-1.941-.077.01-.063.033-.049-.659.045-3.724.137-6.663.327-10.382z" fill="#2b1345"/></svg>