<svg width="20" height="14" viewBox="0 0 20 14" fill="none" xmlns="http://www.w3.org/2000/svg">
<path fill-rule="evenodd" clip-rule="evenodd" d="M1.32908 0.0364292C0.702272 0.150709 0.163112 0.667303 0.0404693 1.27119C-0.0134311 1.53644 -0.0135092 12.4571 0.0403521 12.7267C0.163346 13.3419 0.702936 13.8446 1.36657 13.962C1.65244 14.0127 18.3476 14.0127 18.6334 13.962C19.2971 13.8446 19.8367 13.3419 19.9597 12.7267C20.0134 12.4576 20.0134 1.5376 19.9597 1.2685C19.8367 0.653264 19.2971 0.150636 18.6334 0.0331475C18.3721 -0.0131261 1.58343 -0.00995381 1.32908 0.0364292ZM18.413 0.794382C18.4879 0.821877 17.5918 1.59941 12.4886 5.93432C10.4327 7.68069 10.5079 7.61932 10.332 7.69476C10.1326 7.78027 9.86783 7.78023 9.66602 7.69465C9.51483 7.63055 7.67925 6.08879 3.30586 2.35259C1.83012 1.09186 1.52652 0.816589 1.58729 0.794309C1.68388 0.758902 18.3163 0.758975 18.413 0.794382ZM4.16639 4.13702C5.96779 5.67232 7.44673 6.94177 7.45294 6.95803C7.45911 6.97426 7.09923 7.28927 6.65318 7.65808C5.52924 8.58734 4.14752 9.77321 2.41173 11.2983C1.60014 12.0114 0.921311 12.5997 0.903227 12.6055C0.885143 12.6114 0.859521 12.5785 0.846358 12.5326C0.814721 12.4224 0.814135 1.60707 0.845733 1.45953C0.859169 1.39685 0.87487 1.34558 0.880612 1.34558C0.886353 1.34558 2.36494 2.60175 4.16639 4.13702ZM19.1743 6.97936C19.1761 9.98769 19.1669 12.4866 19.1537 12.5326C19.1405 12.5785 19.1149 12.6114 19.0968 12.6055C19.0787 12.5997 18.3999 12.0114 17.5883 11.2983C15.8525 9.77321 14.4708 8.58734 13.3468 7.65808C12.9008 7.28927 12.5409 6.97426 12.5471 6.95803C12.5533 6.94177 14.0345 5.67039 15.8387 4.13275C18.8208 1.59117 19.1214 1.34485 19.1449 1.42332C19.1592 1.47084 19.1724 3.97103 19.1743 6.97936ZM8.58126 7.89287C9.24989 8.45155 9.66606 8.61002 10.2441 8.52608C10.6284 8.47029 10.9087 8.31907 11.4204 7.89149C11.8219 7.55609 11.8912 7.51145 11.9471 7.55215C12.4187 7.89539 14.5849 9.73623 16.8263 11.6986C18.3102 12.9977 18.5056 13.1812 18.4277 13.202C18.3789 13.2151 14.5864 13.2258 10 13.2258C5.41359 13.2258 1.62123 13.2151 1.57257 13.202C1.49496 13.1813 1.69205 12.9962 3.17396 11.6983C4.10339 10.8842 5.18901 9.94 5.58643 9.6C6.33806 8.95691 8.08401 7.5081 8.10732 7.5081C8.11471 7.5081 8.32796 7.68127 8.58126 7.89287Z" fill="#5D5D5D"/>
</svg>
