<svg width="15" height="10" viewBox="0 0 15 10" fill="none" xmlns="http://www.w3.org/2000/svg">
<path fill-rule="evenodd" clip-rule="evenodd" d="M0.996809 0.0260208C0.526704 0.107649 0.122334 0.476645 0.0303519 0.907995C-0.0100733 1.09745 -0.0101319 8.89796 0.0302641 9.0905C0.12251 9.52995 0.527202 9.88897 1.02493 9.97289C1.23933 10.009 13.7607 10.009 13.9751 9.97289C14.4728 9.88897 14.8775 9.52995 14.9697 9.0905C15.0101 8.89827 15.0101 1.09829 14.9697 0.906068C14.8775 0.466617 14.4728 0.107597 13.9751 0.0236768C13.7791 -0.00937579 1.18757 -0.00710986 0.996809 0.0260208ZM13.8097 0.567416C13.866 0.587055 13.1938 1.14244 9.36642 4.2388C7.82455 5.4862 7.88091 5.44237 7.749 5.49626C7.59943 5.55734 7.40088 5.55731 7.24952 5.49618C7.13612 5.45039 5.75943 4.34913 2.47939 1.68042C1.37259 0.7799 1.14489 0.583278 1.19047 0.567364C1.26291 0.542073 13.7372 0.542125 13.8097 0.567416ZM3.12479 2.95501C4.47584 4.05166 5.58505 4.9584 5.58971 4.97002C5.59433 4.98161 5.32442 5.20662 4.98989 5.47006C4.14693 6.13382 3.11064 6.98086 1.8088 8.07024C1.20011 8.5796 0.690983 8.99978 0.67742 9.00394C0.663857 9.00811 0.64464 8.98467 0.634768 8.95185C0.611041 8.87314 0.610601 1.14791 0.6343 1.04252C0.644377 0.99775 0.656153 0.961129 0.660459 0.961129C0.664765 0.961129 1.77371 1.85839 3.12479 2.95501ZM14.3807 4.98526C14.3821 7.13407 14.3751 8.91903 14.3652 8.95185C14.3554 8.98467 14.3362 9.00811 14.3226 9.00394C14.309 8.99978 13.7999 8.5796 13.1912 8.07024C11.8894 6.98086 10.8531 6.13382 10.0101 5.47006C9.67559 5.20662 9.40568 4.98161 9.41031 4.97002C9.41496 4.9584 10.5259 4.05028 11.879 2.95197C14.1156 1.13655 14.341 0.960609 14.3587 1.01666C14.3694 1.0506 14.3793 2.83645 14.3807 4.98526ZM6.43594 5.63777C6.93742 6.03682 7.24955 6.15002 7.68309 6.09006C7.97128 6.05021 8.18149 5.94219 8.56533 5.63678C8.86641 5.3972 8.91838 5.36532 8.96033 5.39439C9.31405 5.63956 10.9387 6.95445 12.6198 8.35615C13.7326 9.28407 13.8792 9.41516 13.8208 9.43003C13.7842 9.43936 10.9398 9.44699 7.50001 9.44699C4.0602 9.44699 1.21593 9.43936 1.17943 9.43003C1.12122 9.41519 1.26904 9.28298 2.38047 8.35592C3.07754 7.77446 3.89176 7.1 4.18982 6.85714C4.75355 6.39779 6.063 5.36293 6.08049 5.36293C6.08603 5.36293 6.24597 5.48662 6.43594 5.63777Z" fill="white"/>
</svg>
