<svg xmlns="http://www.w3.org/2000/svg" fill="none"><g clip-path="url(#a)"><path d="M311.598 421.179l-193.29-111.335c-5.47-3.147-4.779-8.645 1.53-12.291l131.618-75.787c6.309-3.633 15.868-4.025 21.338-.877l193.303 111.335c5.47 3.147 4.78 8.645-1.53 12.291l-131.617 75.786c-6.337 3.634-15.882 4.025-21.352.878z" fill="#381E54"/><path d="M520.242 117.09l-201.129-115.847c-2.343-1.351-4.712-1.554-6.811-.838l.014-.027-.366.135-.095.027-7.27 2.77 6.526 3.187-.095.35-32.766 148.765c-1.638 7.442 1.639 16.14 7.339 19.409l196.295 113.064-.704 8.293 7.948-3.066c2.667-1.242 4.807-4.065 5.687-8.077l32.765-148.762c1.639-7.415-1.638-16.114-7.338-19.382z" fill="#9E90B2"/><path d="M520.242 117.09l-201.129-115.847c-2.343-1.351-4.712-1.554-6.811-.838l.014-.027-.366.135-.095.027-7.27 2.77 6.526 3.187-.095.35-21.596 98.046 98.419 76.488 138.766-56.322c-1.34-3.431-3.56-6.362-6.363-7.969z" fill="#817199"/><path d="M512.66 139.956l15.313-6.496c.284-5.916-2.18-12.021-6.201-15.29l-24.236 10.171 15.124 11.615z" fill="#5A4B77"/><path d="M474.194 295.621l-201.129-115.847c-5.687-3.282-8.977-11.967-7.339-19.409l32.766-148.763c1.638-7.442 7.582-10.819 13.269-7.55l201.129 115.847c5.686 3.282 8.977 11.967 7.338 19.409l-32.765 148.763c-1.639 7.456-7.582 10.832-13.269 7.55z" fill="#A99FB7"/><path d="M514.826 119.183l-201.129-115.833c-2.762-1.594-5.565-1.58-7.921-.338 1.896-.419 3.954-.122 5.985 1.054l201.129 115.846c5.686 3.283 8.977 11.967 7.338 19.41l-32.765 148.762c-.84 3.836-2.844 6.565-5.348 7.888 3.398-.743 6.228-3.809 7.284-8.59l32.765-148.763c1.639-7.456-1.651-16.154-7.338-19.436zM469.834 284.559l-189.16-108.904c-5.213-2.999-8.205-10.954-6.716-17.762l29.977-136.134c1.503-6.807 6.932-9.9 12.145-6.902l189.16 108.891c5.213 2.999 8.205 10.954 6.716 17.762l-29.977 136.134c-1.503 6.821-6.932 9.914-12.145 6.915z" fill="#fff"/><path d="M469.834 284.559l-189.16-108.904c-5.213-2.999-8.205-10.954-6.716-17.762l29.977-136.134c1.503-6.807 6.932-9.9 12.145-6.902l189.16 108.891c5.213 2.999 8.205 10.954 6.716 17.762l-29.977 136.134c-1.503 6.821-6.932 9.914-12.145 6.915z" fill="#381E54"/><path d="M471.486 283.884l-189.16-108.891c-5.213-2.999-8.205-10.954-6.716-17.762l29.977-136.147c.758-3.444 2.531-5.93 4.765-7.172-2.992.77-5.483 3.58-6.417 7.834l-29.977 136.147c-1.503 6.808 1.503 14.763 6.716 17.762l189.16 108.891c2.573 1.485 5.199 1.472 7.379.256-1.8.473-3.777.203-5.727-.918z" fill="#25153F"/><path d="M476.97 300.673l-27.499-3.62-177.476-102.219c-5.687-3.282-15.625-2.863-22.205.919l-125.755 72.409-16.626-2.188v9.414h.013c-.108 2.175 1.138 4.268 3.819 5.808l201.129 115.847c5.686 3.282 15.624 2.863 22.205-.919l136.952-78.852c3.696-2.134 5.537-4.876 5.429-7.442v-9.157h.014z" fill="#5A4B77"/><path d="M343.619 236.084l-12.605-7.267h-138.631l-68.348 39.331-16.626-2.188v9.415h.013c-.108 2.174 1.138 4.268 3.819 5.807l201.129 115.847c3.006 1.729 7.203 2.418 11.454 2.148l19.795-163.093z" fill="#9E90B2"/><path d="M114.801 266.933l-7.379-.973v9.415h.014c-.108 2.174 1.137 4.268 3.818 5.807l3.547 2.04v-16.289z" fill="#A99FB7"/><path d="M314.414 397.975c5.389 2.039 13.107 1.594 18.861-1.162v-20.989h-18.861v22.151z" fill="#817199"/><path d="M312.383 387.629l-201.129-115.847c-5.686-3.282-4.982-8.996 1.598-12.791l136.952-78.852c6.566-3.782 16.504-4.201 22.205-.919l201.129 115.847c5.686 3.282 4.982 8.996-1.598 12.791l-136.952 78.852c-6.58 3.782-16.518 4.201-22.205.919z" fill="#F8F8F8"/><path d="M471.54 304.427l-136.952 78.853c-6.566 3.781-16.504 4.2-22.205.918l-201.129-115.847c-1.868-1.08-3.033-2.418-3.534-3.863-.893 2.688.244 5.403 3.534 7.294l201.129 115.847c5.687 3.282 15.625 2.863 22.205-.919l136.952-78.852c4.414-2.539 6.174-5.956 5.132-8.928-.65 1.959-2.356 3.904-5.132 5.497z" fill="#fff"/><path d="M196.797 233.436l-9.099-5.24c-.731-.419-.636-1.162.203-1.648l10.737-6.186c.84-.486 2.126-.54 2.857-.122l9.098 5.241c.732.419.637 1.161-.203 1.648l-10.736 6.186c-.853.486-2.126.54-2.857.121zm14.054 8.091l-9.099-5.241c-.731-.419-.636-1.161.203-1.648l10.737-6.186c.84-.486 2.126-.54 2.857-.121l9.098 5.24c.732.419.637 1.162-.203 1.648l-10.736 6.186c-.853.5-2.126.54-2.857.122zm14.054 8.104l-9.099-5.241c-.731-.419-.636-1.161.203-1.648l10.737-6.186c.84-.486 2.126-.54 2.857-.121l9.098 5.24c.732.419.637 1.162-.203 1.648l-10.736 6.186c-.853.486-2.126.541-2.857.122zm19.442-6.686l-9.098-5.241c-.731-.418-.636-1.161.203-1.647l9.017-5.201c.84-.486 2.126-.54 2.857-.121l9.099 5.241c.731.418.636 1.161-.203 1.647l-9.018 5.2c-.853.487-2.125.541-2.857.122zm14.054 8.09l-9.098-5.24c-.731-.419-.636-1.162.203-1.648l9.017-5.2c.84-.486 2.126-.54 2.857-.122l9.099 5.241c.731.419.636 1.162-.203 1.648l-9.018 5.2c-.853.486-2.125.54-2.857.121zm14.054 8.091l-9.098-5.241c-.731-.418-.636-1.161.203-1.647l9.017-5.201c.84-.486 2.126-.54 2.857-.121l9.099 5.241c.731.418.636 1.161-.203 1.647l-9.018 5.2c-.853.487-2.125.541-2.857.122zm14.054 8.104l-9.098-5.241c-.731-.418-.636-1.161.203-1.647l9.017-5.2c.84-.487 2.126-.541 2.857-.122l9.099 5.241c.731.418.636 1.161-.203 1.647l-9.018 5.2c-.853.487-2.125.541-2.857.122zm14.054 8.091l-9.098-5.241c-.731-.419-.636-1.162.203-1.648l9.017-5.2c.84-.486 2.126-.54 2.857-.122l9.099 5.241c.731.419.636 1.162-.203 1.648l-9.018 5.2c-.853.486-2.125.54-2.857.122zm14.054 8.09l-9.098-5.241c-.731-.418-.636-1.161.203-1.647l9.017-5.2c.84-.487 2.126-.541 2.857-.122l9.099 5.241c.731.418.636 1.161-.203 1.647l-9.018 5.2c-.853.487-2.125.541-2.857.122zm14.054 8.091l-9.098-5.241c-.731-.419-.636-1.162.203-1.648l9.017-5.2c.84-.486 2.126-.54 2.857-.122l9.099 5.241c.731.419.636 1.162-.203 1.648l-9.018 5.2c-.853.5-2.125.554-2.857.122zm14.054 8.104l-9.098-5.241c-.731-.419-.636-1.162.203-1.648l9.017-5.2c.84-.486 2.126-.54 2.857-.122l9.099 5.241c.731.419.636 1.162-.203 1.648l-9.018 5.2c-.853.486-2.125.54-2.857.122zm14.054 8.09l-9.098-5.241c-.731-.418-.636-1.161.203-1.647l9.017-5.2c.84-.487 2.126-.541 2.857-.122l9.099 5.241c.731.418.636 1.161-.203 1.647l-9.018 5.201c-.853.486-2.125.54-2.857.121zm14.054 8.091l-9.098-5.241c-.731-.419-.636-1.162.203-1.648l9.017-5.2c.84-.486 2.126-.54 2.857-.121l9.099 5.24c.731.419.636 1.162-.203 1.648l-9.018 5.2c-.853.5-2.125.54-2.857.122zm-105.784-76.678l-9.098-5.241c-.731-.418-.637-1.161.203-1.647l9.017-5.2c.84-.487 2.126-.541 2.857-.122l9.099 5.241c.731.418.636 1.161-.203 1.647l-9.018 5.2c-.853.487-2.126.541-2.857.122zm-14.257-8.212l-9.098-5.241c-.731-.418-.637-1.161.203-1.647l9.017-5.2c.84-.487 2.126-.541 2.857-.122l9.098 5.241c.732.418.637 1.161-.203 1.647l-9.017 5.2c-.853.487-2.139.541-2.857.122zm-14.297-8.239l-19.606-11.292c-.731-.418-.636-1.161.203-1.647l9.018-5.201c.839-.486 2.125-.54 2.857-.121l19.605 11.291c.731.419.636 1.162-.203 1.648l-9.018 5.2c-.839.5-2.125.554-2.856.122zm9.992-9.995l-15.909-9.158c-.731-.418-.637-1.161.203-1.647l9.017-5.2c.84-.487 2.126-.541 2.857-.122l15.909 9.158c.731.418.636 1.161-.203 1.647l-9.017 5.2c-.853.487-2.126.541-2.857.122zm32.616 34.537l-9.098-5.241c-.731-.419-.637-1.162.203-1.648l9.017-5.2c.84-.486 2.126-.54 2.857-.121l9.099 5.24c.731.419.636 1.162-.203 1.648l-9.018 5.2c-.853.486-2.126.54-2.857.122zm14.054 8.09l-9.098-5.241c-.731-.418-.637-1.161.203-1.647l9.017-5.2c.84-.487 2.126-.541 2.857-.122l9.099 5.241c.731.418.636 1.161-.204 1.647l-9.017 5.201c-.853.499-2.126.553-2.857.121zm14.054 8.104l-9.098-5.24c-.731-.419-.637-1.162.203-1.648l9.017-5.2c.84-.487 2.126-.541 2.857-.122l9.099 5.241c.731.418.636 1.161-.203 1.647l-9.018 5.201c-.853.486-2.126.54-2.857.121zm14.054 8.091l-9.098-5.241c-.731-.419-.637-1.162.203-1.648l9.017-5.2c.84-.486 2.126-.54 2.857-.121l9.099 5.24c.731.419.636 1.162-.204 1.648l-9.017 5.2c-.853.486-2.126.54-2.857.122zm14.054 8.09l-9.098-5.24c-.731-.419-.637-1.162.203-1.648l9.017-5.2c.84-.487 2.126-.541 2.857-.122l9.099 5.241c.731.418.636 1.161-.203 1.647l-9.018 5.201c-.853.499-2.125.553-2.857.121zm14.054 8.104l-9.098-5.24c-.731-.419-.637-1.162.203-1.648l9.017-5.2c.84-.487 2.126-.541 2.857-.122l9.099 5.241c.731.418.636 1.161-.203 1.648l-9.018 5.2c-.853.486-2.125.54-2.857.121zm14.054 8.091l-9.098-5.241c-.731-.419-.637-1.162.203-1.648l9.017-5.2c.84-.486 2.126-.54 2.857-.121l9.099 5.24c.731.419.636 1.162-.203 1.648l-9.018 5.2c-.853.486-2.125.54-2.857.122zm14.054 8.09l-9.098-5.24c-.731-.419-.637-1.162.203-1.648l9.017-5.2c.84-.487 2.126-.541 2.857-.122l9.099 5.241c.731.418.636 1.161-.203 1.648l-9.018 5.2c-.853.486-2.125.54-2.857.121zm14.054 8.104l-9.098-5.24c-.731-.419-.637-1.162.203-1.648l9.017-5.2c.84-.487 2.126-.541 2.857-.122l9.099 5.241c.731.418.636 1.161-.203 1.648l-9.018 5.2c-.853.486-2.126.54-2.857.121zm24.981 14.385l-19.863-11.44c-.731-.419-.636-1.162.203-1.648l9.018-5.2c.839-.486 2.125-.541 2.857-.122l19.862 11.44c.731.419.636 1.162-.203 1.648l-9.017 5.2c-.84.487-2.126.541-2.857.122zm27.363-15.762l-16.762-9.658c-.731-.418-.636-1.161.203-1.648l9.018-5.2c.839-.486 2.125-.54 2.856-.121l16.762 9.657c.731.419.637 1.162-.203 1.648l-9.017 5.2c-.853.486-2.126.54-2.857.122zm-140.161-64.968l-9.098-5.24c-.732-.419-.637-1.162.203-1.648l9.017-5.2c.839-.486 2.126-.54 2.857-.122l9.098 5.241c.732.419.637 1.161-.203 1.648l-9.017 5.2c-.853.486-2.126.54-2.857.121zm-14.406-8.293l-9.098-5.24c-.732-.419-.637-1.162.203-1.648l9.017-5.2c.839-.487 2.126-.541 2.857-.122l9.098 5.241c.732.418.637 1.161-.203 1.648l-9.017 5.2c-.853.486-2.126.54-2.857.121zm-14.406-8.293l-9.098-5.241c-.732-.418-.637-1.161.203-1.647l9.017-5.2c.839-.487 2.126-.541 2.857-.122l9.098 5.241c.731.418.637 1.161-.203 1.647l-9.017 5.2c-.853.487-2.126.541-2.857.122zm-14.406-8.307l-9.098-5.24c-.732-.419-.637-1.162.203-1.648l9.017-5.2c.839-.486 2.126-.54 2.857-.122l9.098 5.241c.731.419.637 1.162-.203 1.648l-9.017 5.2c-.84.5-2.126.554-2.857.121zm57.272 32.984l-9.098-5.241c-.732-.418-.637-1.161.203-1.648l9.017-5.2c.839-.486 2.126-.54 2.857-.121l9.098 5.24c.731.419.637 1.162-.203 1.648l-9.017 5.2c-.853.486-2.126.541-2.857.122zm14.054 8.104l-9.098-5.241c-.732-.418-.637-1.161.203-1.648l9.017-5.2c.839-.486 2.126-.54 2.857-.121l9.098 5.24c.732.419.637 1.162-.203 1.648l-9.017 5.2c-.853.486-2.126.541-2.857.122zm14.054 8.09l-9.098-5.24c-.731-.419-.637-1.162.203-1.648l9.017-5.2c.839-.486 2.126-.54 2.857-.122l9.098 5.241c.732.419.637 1.161-.203 1.648l-9.017 5.2c-.853.486-2.126.54-2.857.121zm14.054 8.091l-9.098-5.241c-.732-.418-.637-1.161.203-1.648l9.017-5.2c.839-.486 2.126-.54 2.857-.121l9.098 5.24c.732.419.637 1.162-.203 1.648l-9.017 5.2c-.853.487-2.126.541-2.857.122zm14.054 8.09l-9.098-5.24c-.732-.419-.637-1.162.203-1.648l9.017-5.2c.839-.486 2.126-.54 2.857-.122l9.098 5.241c.732.419.637 1.161-.203 1.648l-9.017 5.2c-.853.5-2.126.554-2.857.121zm14.054 8.104l-9.098-5.24c-.732-.419-.637-1.162.203-1.648l9.017-5.2c.839-.486 2.126-.54 2.857-.122l9.098 5.241c.732.419.637 1.161-.203 1.648l-9.017 5.2c-.853.486-2.126.54-2.857.121zm14.054 8.091l-9.098-5.241c-.732-.418-.637-1.161.203-1.648l9.017-5.2c.839-.486 2.126-.54 2.857-.121l9.098 5.24c.732.419.637 1.162-.203 1.648l-9.017 5.2c-.853.487-2.126.541-2.857.122zm14.054 8.09l-9.098-5.24c-.731-.419-.637-1.162.203-1.648l9.017-5.2c.839-.486 2.126-.54 2.857-.122l9.098 5.241c.732.419.637 1.162-.203 1.648l-9.017 5.2c-.853.5-2.126.54-2.857.121zm14.054 8.104l-9.098-5.24c-.732-.419-.637-1.162.203-1.648l9.017-5.2c.839-.486 2.126-.54 2.857-.122l9.098 5.241c.732.419.637 1.162-.203 1.648l-9.017 5.2c-.853.486-2.126.54-2.857.121zm-133.892-92.872l-9.098-5.24c-.732-.419-.637-1.162.203-1.648l9.017-5.2c.839-.486 2.126-.54 2.857-.122l9.098 5.241c.731.419.637 1.161-.203 1.648l-9.017 5.2c-.853.486-2.126.54-2.857.121zm-13.986-8.063l-9.099-5.241c-.731-.418-.636-1.161.203-1.648l9.018-5.2c.839-.486 2.125-.54 2.856-.121l9.099 5.24c.731.419.636 1.162-.203 1.648l-9.017 5.2c-.84.5-2.126.541-2.857.122zm-13.973-8.05l-9.099-5.241c-.731-.418-.636-1.161.203-1.648l9.018-5.2c.839-.486 2.125-.54 2.857-.121l9.098 5.24c.731.419.637 1.162-.203 1.648l-9.017 5.2c-.853.487-2.126.541-2.857.122zm-13.986-8.05l-9.099-5.241c-.731-.418-.636-1.161.203-1.648l9.018-5.2c.839-.486 2.125-.54 2.856-.121l9.099 5.24c.731.419.636 1.162-.203 1.648l-9.018 5.2c-.853.487-2.125.541-2.856.122zm14.379-8.28l-9.099-5.24c-.731-.419-.636-1.162.203-1.648l2.979-1.716c.839-.486 2.126-.54 2.857-.121l9.098 5.241c.731.418.637 1.161-.203 1.647l-2.979 1.716c-.853.486-2.125.54-2.856.121zm18.251 10.508l-9.099-5.24c-.731-.419-.636-1.162.203-1.648l2.979-1.715c.84-.487 2.126-.541 2.857-.122l9.098 5.241c.732.418.637 1.161-.203 1.648l-2.978 1.715c-.853.486-2.126.54-2.857.121zm13.918 8.023l-9.098-5.24c-.731-.419-.636-1.162.203-1.648l2.979-1.715c.839-.487 2.125-.541 2.857-.122l9.098 5.241c.731.418.636 1.161-.203 1.648l-2.979 1.715c-.853.486-2.125.54-2.857.121zm13.933 8.01l-9.099-5.241c-.731-.418-.636-1.161.203-1.647l2.979-1.716c.839-.486 2.126-.54 2.857-.121l9.098 5.24c.731.419.637 1.162-.203 1.648l-2.979 1.715c-.853.5-2.125.554-2.856.122zm13.918 8.023l-9.098-5.241c-.731-.418-.637-1.161.203-1.648l2.978-1.715c.84-.486 2.126-.54 2.857-.121l9.099 5.24c.731.419.636 1.162-.203 1.648l-2.979 1.715c-.853.487-2.126.541-2.857.122zm77.744 44.775l-9.098-5.241c-.732-.419-.637-1.162.203-1.648l2.978-1.715c.84-.486 2.126-.54 2.857-.122l9.099 5.241c.731.419.636 1.161-.203 1.648l-2.979 1.715c-.84.5-2.126.554-2.857.122zm13.932 8.023l-9.098-5.241c-.732-.419-.637-1.162.203-1.648l2.978-1.715c.84-.486 2.126-.54 2.857-.122l9.099 5.241c.731.419.636 1.161-.203 1.648l-2.979 1.715c-.853.486-2.126.54-2.857.122zm13.919 8.023l-9.099-5.241c-.731-.419-.636-1.162.203-1.648l2.979-1.715c.839-.486 2.126-.54 2.857-.122l9.098 5.241c.732.419.637 1.161-.203 1.648l-2.978 1.715c-.84.486-2.126.54-2.857.122zm13.932 8.023l-9.099-5.241c-.731-.419-.636-1.162.203-1.648l2.979-1.715c.84-.486 2.126-.541 2.857-.122l9.099 5.241c.731.419.636 1.161-.204 1.648l-2.978 1.715c-.853.486-2.126.54-2.857.122zm-137.927-62.874l-9.099-5.241c-.731-.418-.636-1.161.204-1.648l9.017-5.2c.839-.486 2.126-.54 2.857-.121l9.098 5.24c.731.419.637 1.162-.203 1.648l-9.017 5.2c-.853.487-2.126.541-2.857.122zm14.054 8.09l-9.098-5.24c-.732-.419-.637-1.162.203-1.648l9.017-5.2c.839-.486 2.126-.54 2.857-.122l9.098 5.241c.731.419.637 1.162-.203 1.648l-9.017 5.2c-.853.486-2.126.54-2.857.121zm14.054 8.104l-9.098-5.24c-.732-.419-.637-1.162.203-1.648l9.017-5.2c.839-.486 2.126-.54 2.857-.122l9.098 5.241c.731.419.637 1.162-.203 1.648l-9.017 5.2c-.853.486-2.126.54-2.857.121zm14.054 8.091l-9.098-5.241c-.732-.418-.637-1.161.203-1.648l9.017-5.2c.839-.486 2.126-.54 2.857-.121l9.098 5.24c.731.419.637 1.162-.203 1.648l-9.017 5.2c-.853.487-2.126.541-2.857.122zm14.054 8.09l-9.099-5.24c-.731-.419-.636-1.162.204-1.648l9.017-5.2c.839-.486 2.126-.54 2.857-.122l9.098 5.241c.731.419.637 1.162-.203 1.648l-9.017 5.2c-.853.486-2.126.54-2.857.121zm14.054 8.091l-9.099-5.241c-.731-.418-.636-1.161.204-1.647l9.017-5.201c.839-.486 2.126-.54 2.857-.121l9.098 5.24c.731.419.637 1.162-.203 1.648l-9.017 5.2c-.853.5-2.126.554-2.857.122zm14.054 8.104l-9.098-5.241c-.732-.418-.637-1.161.203-1.647l9.017-5.201c.839-.486 2.126-.54 2.857-.121l9.098 5.241c.731.418.637 1.161-.203 1.647l-9.017 5.2c-.853.487-2.126.541-2.857.122zm14.054 8.091l-9.098-5.241c-.732-.419-.637-1.162.203-1.648l9.017-5.2c.839-.486 2.126-.54 2.857-.122l9.098 5.241c.731.419.637 1.162-.203 1.648l-9.017 5.2c-.853.486-2.126.54-2.857.122zm14.054 8.09l-9.098-5.241c-.732-.418-.637-1.161.203-1.647l9.017-5.201c.839-.486 2.126-.54 2.857-.121l9.098 5.241c.731.418.637 1.161-.203 1.647l-9.017 5.2c-.853.5-2.126.541-2.857.122zm-192.775-63.752l-26.809-15.438c-.731-.419-.636-1.161.203-1.648l9.018-5.2c.839-.486 2.125-.54 2.857-.121l26.808 15.438c.731.419.636 1.161-.203 1.648l-9.018 5.2c-.853.486-2.125.54-2.856.121zm172.655 99.437l-26.808-15.438c-.731-.419-.636-1.162.203-1.648l9.018-5.2c.839-.487 2.125-.541 2.856-.122l26.809 15.438c.731.419.636 1.162-.203 1.648l-9.018 5.2c-.853.5-2.125.554-2.857.122zm-56.202-14.493l-9.099-5.241c-.731-.418-.636-1.161.203-1.647l10.737-6.186c.84-.487 2.126-.541 2.857-.122l9.099 5.241c.731.418.636 1.161-.203 1.647l-10.737 6.186c-.853.5-2.126.554-2.857.122zm-102.061-58.781l-14.555-8.388c-.731-.419-.636-1.161.203-1.648l10.737-6.186c.84-.486 2.126-.54 2.857-.121l14.555 8.387c.731.419.636 1.162-.203 1.648l-10.737 6.186c-.853.5-2.126.554-2.857.122zm88.521 50.988l-14.555-8.388c-.731-.419-.636-1.162.204-1.648l10.736-6.186c.84-.486 2.126-.54 2.857-.121l14.555 8.387c.731.419.636 1.162-.203 1.648l-10.737 6.186c-.853.486-2.126.54-2.857.122zm-68.252-39.305l-14.555-8.387c-.731-.419-.637-1.162.203-1.648l10.737-6.186c.839-.487 2.125-.541 2.857-.122l14.555 8.388c.731.418.636 1.161-.204 1.648l-10.736 6.186c-.84.486-2.126.54-2.857.121zM264.034 256.263l63.284 36.441c.785.445.785 1.188 0 1.634l-10.954 6.308c-.785.445-2.058.445-2.843 0l-63.284-36.441 13.797-7.942zm121.72 78.055l10.141 5.835c.596.351.528.945-.162 1.35l-4.401 2.526c-.69.392-1.733.446-2.342.095l-10.141-5.835c-.596-.351-.528-.946.162-1.351l4.401-2.526c.69-.391 1.746-.432 2.342-.094zm-14.176-8.158l10.141 5.835c.596.351.528.945-.162 1.35l-4.401 2.526c-.69.392-1.733.446-2.342.095l-10.141-5.835c-.596-.351-.528-.946.162-1.351l4.401-2.526c.704-.405 1.746-.445 2.342-.094zm-14.054-8.091l10.141 5.835c.596.351.528.946-.162 1.351l-4.401 2.526c-.69.391-1.733.445-2.342.094l-10.141-5.835c-.596-.351-.528-.945.162-1.35l4.401-2.526c.704-.405 1.746-.446 2.342-.095zm21.812 3.62l10.141 5.835c.596.351.528.945-.162 1.351l-4.4 2.525c-.691.392-1.734.446-2.343.095l-10.141-5.835c-.596-.351-.528-.945.163-1.351l4.4-2.525c.704-.392 1.747-.446 2.342-.095zm55.526-157.947l-75.713-43.6.975-4.903 75.713 43.6-.975 4.903zm-27.12 8.279l-52.845-30.43.975-4.903 52.845 30.43-.975 4.903z" fill="#9E90B2"/><path d="M402.746 157.191l-45.723-26.325.975-4.903 45.723 26.325-.975 4.903z" fill="#fff"/><path d="M432.736 174.466l-22.868-13.169.975-4.903 22.854 13.169-.961 4.903z" fill="#E60D2E"/><path d="M351.093 77.312l-22.855-13.169.975-4.903 22.855 13.156-.975 4.916z" fill="#9E90B2"/><path d="M348.615 88.712l-22.855-13.156.975-4.916 22.855 13.17-.975 4.902z" fill="#fff"/><path d="M460.803 246.97l-22.854-13.169.975-4.903 22.854 13.169-.975 4.903zm-117.157-135.432l-22.855-13.169.975-4.903 22.855 13.156-.975 4.916z" fill="#9E90B2"/><path d="M393.038 115.077c-.731 1.58-2.572 2.148-4.116 1.256-1.543-.891-2.207-2.89-1.476-4.484.732-1.58 2.573-2.148 4.116-1.256 1.544.891 2.207 2.89 1.476 4.484z" fill="#E60D2E"/><path d="M402.881 120.736c-.731 1.581-2.572 2.148-4.116 1.256-1.543-.891-2.207-2.89-1.475-4.484.731-1.58 2.572-2.147 4.116-1.256 1.543.905 2.207 2.904 1.475 4.484z" fill="#fff"/><path d="M412.738 126.409c-.731 1.58-2.572 2.148-4.116 1.256-1.543-.891-2.207-2.89-1.476-4.47.732-1.581 2.573-2.148 4.116-1.257 1.544.892 2.194 2.891 1.476 4.471z" fill="#D4ECFF"/><path d="M422.581 132.082c-.731 1.58-2.572 2.148-4.116 1.256-1.543-.891-2.206-2.89-1.475-4.484.731-1.58 2.572-2.148 4.116-1.256 1.543.891 2.207 2.904 1.475 4.484z" fill="#E60D2E"/><path d="M258.929 336.438l-62.755-36.144c-1.828-1.053-1.598-2.89.514-4.106l37.87-21.813c2.113-1.216 5.294-1.351 7.122-.297l62.756 36.144c1.828 1.053 1.597 2.89-.515 4.106l-37.87 21.813c-2.112 1.216-5.294 1.351-7.122.297z" fill="#E8E8E8"/><g opacity=".3"><g opacity=".3"><g opacity=".3" fill="#5A4B77"><path opacity=".3" d="M395.11 173.669c4.319 2.485 4.319 6.537 0 9.036l-73.479 42.317c-1.192.688-3.114.688-4.306 0-1.191-.689-1.191-1.797 0-2.486l73.479-42.316c1.95-1.121 1.95-2.945 0-4.079l-7.122-4.106a55.018 55.018 0 2.207-3.688l9.221 5.322zM291.045 207.395l73.479-42.316c4.319-2.485 11.36-2.485 15.679 0l5.7 3.282c-.704 1.256-1.422 2.499-2.207 3.687l-7.785-4.484c-1.95-1.121-5.118-1.121-7.068 0l-73.479 42.317c-1.191.688-3.114.688-4.305 0-1.205-.689-1.205-1.797-.014-2.486z"/></g><path opacity=".3" d="M290.165 208.732l-.013-103.083 76.999-42.816 10.777-.716 10.412 6.727 6.391 5.55-75.023 118.684-24.506 14.412-5.037 1.242z" fill="#5A4B77"/><path opacity=".3" d="M318.639 221.739l-23.018-13.25v-99.612l23.722 10.995-.704 101.867z" fill="#9E90B2"/><path opacity=".3" d="M398.359 75.192v102.907l-80.844 46.126-1.07-.433v-103.056l81.914-45.544z" fill="#5A4B77"/><path opacity=".3" d="M352.894 76.043l16.071-9.212c1.963-.905 4.834-.85 6.648.203l14.907 8.59c1.151.662 1.625 1.58 1.408 2.445l-40.591 24.204-32.617 19.963-23.099-13.359 57.273-32.834z" fill="#fff"/><path opacity=".3" d="M319.343 119.116v106.405c-.731-.013-1.463-.189-2.018-.499-.582-.338-.88-.77-.893-1.216v-103.07l2.911-1.62z" fill="#5A4B77"/><path opacity=".3" d="M290.152 106.933v-1.284h.406l.135.878-.541.406zm26.293 15.141v-1.311l.393.554-.393.757z" fill="#fff"/><path opacity=".3" d="M321.631 121.965l73.479-42.316c4.319-2.485 4.319-6.537 0-9.036l-14.907-8.59c-4.319-2.486-11.36-2.486-15.679 0l-73.479 42.316c-1.191.689-1.191 1.797 0 2.485 1.192.689 3.114.689 4.306 0l73.479-42.316c1.949-1.121 5.118-1.121 7.067 0l14.907 8.59c1.95 1.121 1.95 2.945 0 4.08l-73.479 42.316c-1.191.689-1.191 1.796 0 2.485 1.192.662 3.114.662 4.306-.014z" fill="#A99FB7"/><path opacity=".3" d="M340.789 170.752l38.182-21.989v-38.197l-38.182 22.002v38.184zM291.045 106.824c1.192.689 3.114.689 4.306 0l73.479-42.316c1.949-1.121 5.118-1.121 7.067 0l14.907 8.59c1.273.73 1.706 1.77 1.314 2.715-.204-.5-.65-.972-1.314-1.364l-14.907-8.59c-1.949-1.121-5.118-1.121-7.067 0l-73.479 42.316c-1.192.689-3.114.689-4.306 0-.907-.513-1.11-1.283-.65-1.918.149.203.366.392.65.567zm26.28 15.141c1.192.689 3.114.689 4.306 0l73.479-42.316c1.868-1.067 2.911-2.431 3.182-3.836.338 1.85-.718 3.782-3.182 5.2l-73.479 42.303c-1.192.689-3.114.689-4.306 0-.907-.513-1.11-1.283-.65-1.918.149.203.366.392.65.567z" fill="#fff"/></g><g opacity=".3"><g opacity=".3"><path opacity=".3" d="M428.904 193.619c4.319 2.485 4.319 6.537 0 9.035l-73.479 42.317c-1.191.689-3.114.689-4.305 0-1.192-.689-1.192-1.796 0-2.485l73.479-42.317c1.949-1.121 1.949-2.944 0-4.079l-7.122-4.106a55.164 55.164 0 2.207-3.687l9.22 5.322z" fill="#FF2C9C"/><path opacity=".3" d="M324.826 227.358l73.479-42.316c4.319-2.485 11.36-2.485 15.679 0l5.7 3.282c-.704 1.256-1.422 2.499-2.207 3.687l-7.785-4.484c-1.95-1.121-5.118-1.121-7.068 0l-73.479 42.316c-1.191.689-3.114.689-4.305 0-1.205-.702-1.205-1.809-.014-2.485z" fill="#D3008D"/></g><path opacity=".3" d="M323.946 228.682l-.013-103.083 77.012-42.817 10.764-.715 10.412 6.74 6.391 5.537-75.023 118.697-24.493 14.398-5.05 1.243z" fill="#D3008D"/><path opacity=".3" d="M352.42 241.702l-23.017-13.263v-99.612l23.734 10.994-.717 101.881z" fill="#EA6880"/><path opacity=".3" d="M432.14 95.141v102.909l-80.844 46.139-1.07-.433v-103.07l81.914-45.545z" fill="#E60D2E"/><path opacity=".3" d="M386.675 95.992l16.071-9.212c1.963-.904 4.834-.85 6.648.203l14.907 8.59c1.151.662 1.625 1.58 1.408 2.445l-40.591 24.204-32.604 19.963-23.098-13.358 57.259-32.835z" fill="#fff"/><path opacity=".3" d="M353.137 139.078v106.406c-.731-.013-1.462-.189-2.017-.5-.582-.337-.88-.769-.894-1.215v-103.056l2.911-1.635z" fill="#D3008D"/><path opacity=".3" d="M323.933 126.895v-1.296h.406l.135.878-.541.418zm26.293 15.128v-1.31l.393.554-.393.756z" fill="#fff"/><path opacity=".3" d="M355.412 141.915l73.479-42.317c4.319-2.485 4.319-6.537 0-9.036l-14.907-8.59c-4.319-2.485-11.36-2.485-15.679 0l-73.479 42.317c-1.191.688-1.191 1.796 0 2.485 1.192.689 3.114.689 4.306 0l73.479-42.317c1.949-1.12 5.118-1.12 7.067 0l14.907 8.59c1.95 1.122 1.95 2.945 0 4.08l-73.479 42.316c-1.191.689-1.191 1.797 0 2.485 1.192.662 3.128.662 4.306-.013z" fill="#C40C30"/><path opacity=".3" d="M374.57 190.701l38.182-21.989v-38.183l-38.182 21.989v38.183zM324.826 126.774c1.192.689 3.114.689 4.306 0l73.479-42.317c1.949-1.12 5.118-1.12 7.067 0l14.907 8.59c1.273.73 1.706 1.77 1.314 2.716-.203-.5-.65-.973-1.314-1.365l-14.907-8.59c-1.949-1.121-5.118-1.121-7.067 0l-73.479 42.317c-1.192.688-3.114.688-4.306 0-.907-.514-1.11-1.284-.65-1.918a2.1 2.1 0 .65.567zm26.28 15.141c1.192.689 3.115.689 4.306 0l73.479-42.317c1.868-1.067 2.911-2.43 3.182-3.835.338 1.85-.718 3.781-3.182 5.2l-73.479 42.316c-1.191.689-3.114.689-4.306 0-.907-.513-1.11-1.283-.649-1.918.148.189.365.392.649.554z" fill="#fff"/></g><g opacity=".3"><g opacity=".3" fill="#381E54"><path opacity=".3" d="M463.606 214.946c4.319 2.485 4.319 6.537 0 9.036l-73.479 42.316c-1.191.689-3.114.689-4.305 0-1.192-.689-1.192-1.796 0-2.485l73.479-42.317c1.949-1.121 1.949-2.944 0-4.079l-7.122-4.106a55.164 55.164 0 2.207-3.687l9.22 5.322zM359.541 248.672l73.479-42.317c4.32-2.485 11.36-2.485 15.679 0l5.7 3.282c-.704 1.257-1.421 2.499-2.207 3.688l-7.785-4.484c-1.95-1.122-5.118-1.122-7.067 0l-73.479 42.316c-1.192.689-3.114.689-4.306 0-1.205-.689-1.205-1.796-.014-2.485z"/></g><path opacity=".3" d="M358.661 250.009l-.013-103.083 76.999-42.816 10.777-.716 10.412 6.726 6.391 5.551-75.022 118.684-24.507 14.411-5.037 1.243z" fill="#381E54"/><path opacity=".3" d="M387.135 263.016l-23.017-13.25v-99.626l23.721 11.008-.704 101.868z" fill="#79B1E0"/><path opacity=".3" d="M466.856 116.468v102.908l-80.845 46.125-1.069-.432v-103.056l81.914-45.545z" fill="#5A4B77"/><path opacity=".3" d="M421.39 117.319l16.071-9.211c1.964-.905 4.834-.851 6.648.202l14.907 8.59c1.151.662 1.625 1.581 1.408 2.445l-40.591 24.204-32.603 19.963-23.099-13.358 57.259-32.835z" fill="#fff"/><path opacity=".3" d="M387.839 160.392v106.406c-.731-.014-1.462-.189-2.017-.5-.583-.338-.88-.77-.894-1.216v-103.056l2.911-1.634z" fill="#5793CE"/><path opacity=".3" d="M358.648 148.209v-1.283h.406l.135.878-.541.405zm26.294 15.141v-1.31l.392.554-.392.756z" fill="#fff"/><path opacity=".3" d="M390.127 163.242l73.479-42.317c4.319-2.485 4.319-6.537 0-9.036l-14.907-8.59c-4.319-2.485-11.36-2.485-15.679 0l-73.479 42.317c-1.191.689-1.191 1.796 0 2.485 1.192.689 3.115.689 4.306 0l73.479-42.33c1.95-1.121 5.118-1.121 7.068 0l14.907 8.59c1.949 1.121 1.949 2.945 0 4.079l-73.479 42.317c-1.192.689-1.192 1.796 0 2.485 1.191.675 3.114.675 4.305 0z" fill="#A99FB7"/><path opacity=".3" d="M409.286 212.028l38.181-21.989v-38.197l-38.181 22.003v38.183zM359.541 148.101c1.192.689 3.115.689 4.306 0l73.479-42.33c1.95-1.121 5.118-1.121 7.068 0l14.907 8.59c1.272.73 1.706 1.77 1.313 2.715-.203-.5-.65-.972-1.313-1.351l-14.907-8.59c-1.95-1.121-5.118-1.121-7.068 0l-73.479 42.317c-1.191.688-3.114.688-4.306 0-.907-.514-1.11-1.284-.649-1.918.149.202.365.391.649.567zm26.281 15.141c1.191.689 3.114.689 4.305 0l73.479-42.317c1.869-1.067 2.911-2.431 3.182-3.835.338 1.85-.718 3.781-3.182 5.2l-73.479 42.316c-1.191.689-3.114.689-4.305 0-.907-.513-1.111-1.283-.65-1.918.149.189.365.378.65.554z" fill="#fff"/></g></g><path d="M395.11 173.669c4.319 2.485 4.319 6.537 0 9.036l-73.479 42.317c-1.192.688-3.114.688-4.306 0-1.191-.689-1.191-1.797 0-2.486l73.479-42.316c1.95-1.121 1.95-2.945 0-4.079l-7.122-4.106a55.018 55.018 0 2.207-3.688l9.221 5.322zM291.045 207.395l73.479-42.316c4.319-2.485 11.36-2.485 15.679 0l5.7 3.282c-.704 1.256-1.422 2.499-2.207 3.687l-7.785-4.484c-1.95-1.121-5.118-1.121-7.068 0l-73.479 42.317c-1.191.688-3.114.688-4.305 0-1.205-.689-1.205-1.797-.014-2.486z" fill="#A99FB7"/><path d="M290.165 208.732l-.013-103.083 76.999-42.816 10.777-.716 10.412 6.727 6.391 5.55-75.023 118.684-24.506 14.412-5.037 1.242z" fill="#5A4B77"/><path d="M318.639 221.739l-23.018-13.25v-99.612l23.722 10.995-.704 101.867z" fill="#9E90B2"/><path d="M398.359 75.192v102.907l-80.844 46.126-1.07-.433v-103.056l81.914-45.544z" fill="#5A4B77"/><path d="M352.894 76.043l16.071-9.212c1.963-.905 4.834-.85 6.648.203l14.907 8.59c1.151.662 1.625 1.58 1.408 2.445l-40.591 24.204-32.617 19.963-23.099-13.359 57.273-32.834z" fill="#fff"/><path d="M319.343 119.116v106.405c-.731-.013-1.463-.189-2.018-.499-.582-.338-.88-.77-.893-1.216v-103.07l2.911-1.62z" fill="#5A4B77"/><path d="M290.152 106.933v-1.284h.406l.135.878-.541.406zm26.293 15.141v-1.311l.393.554-.393.757z" fill="#fff"/><path d="M321.631 121.965l73.479-42.316c4.319-2.485 4.319-6.537 0-9.036l-14.907-8.59c-4.319-2.486-11.36-2.486-15.679 0l-73.479 42.316c-1.191.689-1.191 1.797 0 2.485 1.192.689 3.114.689 4.306 0l73.479-42.316c1.949-1.121 5.118-1.121 7.067 0l14.907 8.59c1.95 1.121 1.95 2.945 0 4.08l-73.479 42.316c-1.191.689-1.191 1.796 0 2.485 1.192.662 3.114.662 4.306-.014z" fill="#A99FB7"/><path d="M340.789 170.752l38.182-21.989v-38.197l-38.182 22.002v38.184zm-49.744-63.928c1.192.689 3.114.689 4.306 0l73.479-42.316c1.949-1.121 5.118-1.121 7.067 0l14.907 8.59c1.273.73 1.706 1.77 1.314 2.715-.204-.5-.65-.972-1.314-1.364l-14.907-8.59c-1.949-1.121-5.118-1.121-7.067 0l-73.479 42.316c-1.192.689-3.114.689-4.306 0-.907-.513-1.11-1.283-.65-1.918.149.203.366.392.65.567zm26.28 15.141c1.192.689 3.114.689 4.306 0l73.479-42.316c1.868-1.067 2.911-2.431 3.182-3.836.338 1.85-.718 3.782-3.182 5.2l-73.479 42.303c-1.192.689-3.114.689-4.306 0-.907-.513-1.11-1.283-.65-1.918.149.203.366.392.65.567z" fill="#fff"/><path d="M428.904 193.619c4.319 2.485 4.319 6.537 0 9.035l-73.479 42.317c-1.191.689-3.114.689-4.305 0-1.192-.689-1.192-1.796 0-2.485l73.479-42.317c1.949-1.121 1.949-2.944 0-4.079l-7.122-4.106a55.164 55.164 0 2.207-3.687l9.22 5.322zM324.826 227.358l73.479-42.316c4.319-2.485 11.36-2.485 15.679 0l5.7 3.282c-.704 1.256-1.422 2.499-2.207 3.687l-7.785-4.484c-1.95-1.121-5.118-1.121-7.068 0l-73.479 42.316c-1.191.689-3.114.689-4.305 0-1.205-.702-1.205-1.809-.014-2.485zM323.946 228.682l-.013-103.083 77.012-42.817 10.764-.715 10.412 6.74 6.391 5.537-75.023 118.697-24.493 14.398-5.05 1.243z" fill="#C40C30"/><path d="M352.42 241.702l-23.017-13.263v-99.612l23.734 10.994-.717 101.881z" fill="#EA6880"/><path d="M432.14 95.141v102.909l-80.844 46.139-1.07-.433v-103.07l81.914-45.545z" fill="#E60D2E"/><path d="M386.675 95.992l16.071-9.212c1.963-.904 4.834-.85 6.648.203l14.907 8.59c1.151.662 1.625 1.58 1.408 2.445l-40.591 24.204-32.604 19.963-23.098-13.358 57.259-32.835z" fill="#fff"/><path d="M353.137 139.078v106.406c-.731-.013-1.462-.189-2.017-.5-.582-.337-.88-.769-.894-1.215v-103.056l2.911-1.635z" fill="#C40C30"/><path d="M323.933 126.895v-1.296h.406l.135.878-.541.418zm26.293 15.128v-1.31l.393.554-.393.756z" fill="#fff"/><path d="M355.412 141.915l73.479-42.317c4.319-2.485 4.319-6.537 0-9.036l-14.907-8.59c-4.319-2.485-11.36-2.485-15.679 0l-73.479 42.317c-1.191.688-1.191 1.796 0 2.485 1.192.689 3.114.689 4.306 0l73.479-42.317c1.949-1.12 5.118-1.12 7.067 0l14.907 8.59c1.95 1.122 1.95 2.945 0 4.08l-73.479 42.316c-1.191.689-1.191 1.797 0 2.485 1.192.662 3.128.662 4.306-.013z" fill="#C40C30"/><path d="M374.57 190.701l38.182-21.989v-38.183l-38.182 21.989v38.183zm-49.744-63.927c1.192.689 3.114.689 4.306 0l73.479-42.317c1.949-1.12 5.118-1.12 7.067 0l14.907 8.59c1.273.73 1.706 1.77 1.314 2.716-.203-.5-.65-.973-1.314-1.365l-14.907-8.59c-1.949-1.121-5.118-1.121-7.067 0l-73.479 42.317c-1.192.688-3.114.688-4.306 0-.907-.514-1.11-1.284-.65-1.918a2.1 2.1 0 .65.567zm26.28 15.141c1.192.689 3.115.689 4.306 0l73.479-42.317c1.868-1.067 2.911-2.43 3.182-3.835.338 1.85-.718 3.781-3.182 5.2l-73.479 42.316c-1.191.689-3.114.689-4.306 0-.907-.513-1.11-1.283-.649-1.918.148.189.365.392.649.554z" fill="#fff"/><path d="M463.606 214.946c4.319 2.485 4.319 6.537 0 9.036l-73.479 42.316c-1.191.689-3.114.689-4.305 0-1.192-.689-1.192-1.796 0-2.485l73.479-42.317c1.949-1.121 1.949-2.944 0-4.079l-7.122-4.106a55.164 55.164 0 2.207-3.687l9.22 5.322z" fill="#A99FB7"/><path d="M359.541 248.672l73.479-42.317c4.32-2.485 11.36-2.485 15.679 0l5.7 3.282c-.704 1.257-1.421 2.499-2.207 3.688l-7.785-4.484c-1.95-1.122-5.118-1.122-7.067 0l-73.479 42.316c-1.192.689-3.114.689-4.306 0-1.205-.689-1.205-1.796-.014-2.485zM358.661 250.009l-.013-103.083 76.999-42.816 10.777-.716 10.412 6.726 6.391 5.551-75.022 118.684-24.507 14.411-5.037 1.243z" fill="#5A4B77"/><path d="M387.135 263.016l-23.017-13.25v-99.626l23.721 11.008-.704 101.868z" fill="#9E90B2"/><path d="M466.856 116.468v102.908l-80.845 46.125-1.069-.432v-103.056l81.914-45.545z" fill="#5A4B77"/><path d="M421.39 117.319l16.071-9.211c1.964-.905 4.834-.851 6.648.202l14.907 8.59c1.151.662 1.625 1.581 1.408 2.445l-40.591 24.204-32.603 19.963-23.099-13.358 57.259-32.835z" fill="#fff"/><path d="M387.839 160.392v106.406c-.731-.014-1.462-.189-2.017-.5-.583-.338-.88-.77-.894-1.216v-103.056l2.911-1.634z" fill="#5A4B77"/><path d="M358.648 148.209v-1.283h.406l.135.878-.541.405zm26.294 15.141v-1.31l.392.554-.392.756z" fill="#fff"/><path d="M390.127 163.242l73.479-42.317c4.319-2.485 4.319-6.537 0-9.036l-14.907-8.59c-4.319-2.485-11.36-2.485-15.679 0l-73.479 42.317c-1.191.689-1.191 1.796 0 2.485 1.192.689 3.115.689 4.306 0l73.479-42.33c1.95-1.121 5.118-1.121 7.068 0l14.907 8.59c1.949 1.121 1.949 2.945 0 4.079l-73.479 42.317c-1.192.689-1.192 1.796 0 2.485 1.191.675 3.114.675 4.305 0z" fill="#A99FB7"/><path d="M409.286 212.028l38.181-21.989v-38.197l-38.181 22.003v38.183zm-49.745-63.927c1.192.689 3.115.689 4.306 0l73.479-42.33c1.95-1.121 5.118-1.121 7.068 0l14.907 8.59c1.272.73 1.706 1.77 1.313 2.715-.203-.5-.65-.972-1.313-1.351l-14.907-8.59c-1.95-1.121-5.118-1.121-7.068 0l-73.479 42.317c-1.191.688-3.114.688-4.306 0-.907-.514-1.11-1.284-.649-1.918.149.202.365.391.649.567zm26.281 15.141c1.191.689 3.114.689 4.305 0l73.479-42.317c1.869-1.067 2.911-2.431 3.182-3.835.338 1.85-.718 3.781-3.182 5.2l-73.479 42.316c-1.191.689-3.114.689-4.305 0-.907-.513-1.111-1.283-.65-1.918.149.189.365.378.65.554z" fill="#fff"/><path d="M494.977 380.43c-2.911-1.675-7.623-1.675-10.52 0l-135.72 78.203c-2.911 1.675-2.911 4.39 0 6.065 2.911 1.675 7.623 1.675 10.52 0l135.72-78.204c2.911-1.675 2.911-4.389 0-6.064z" fill="#381E54"/><path d="M518.17 338.073a.61.61 0 0-.636-.284l-8.205 1.769 3.236 5.484 5.551-6.294a.562.562 0 .054-.675z" fill="#A99FB7"/><path d="M514.934 342.125c-.013-1.175-.853-2.607-1.882-3.201-.474-.271-.907-.298-1.232-.149a52.49 52.49 0 0-26.997 7.213l-.596.351 10.195 17.302 3.006-1.986a52.236 52.236 0 15.733-16.275l1.286-2.094c.311-.229.501-.621.487-1.161z" fill="#5A4B77"/><path d="M496.48 359.035c-.041-4.525-3.263-10.008-7.216-12.237-3.954-2.229-7.122-.378-7.082 4.147.041 4.524 3.263 10.008 7.217 12.237 3.94 2.228 7.122.378 7.081-4.147zM433.914 401.257l60.522-37.616-10.196-17.302-62.376 34.469 12.05 20.449zM436.324 395.8c-.041-5.348-3.859-11.818-8.516-14.465-4.658-2.634-8.408-.446-8.368 4.902.041 5.349 3.859 11.819 8.517 14.466 4.671 2.647 8.421.446 8.367-4.903zM432.871 397.826c-.04-5.348-3.858-11.818-8.516-14.465-4.657-2.648-8.408-.446-8.367 4.903.04 5.348 3.858 11.818 8.516 14.465 4.671 2.648 8.422.446 8.367-4.903zM418.398 382.849l-80.073 46.949 12.047 20.447 80.073-46.949-12.047-20.447zM352.812 444.776c-.04-5.349-3.858-11.819-8.516-14.466-4.658-2.634-8.408-.446-8.367 4.903.04 5.348 3.858 11.818 8.516 14.465 4.658 2.648 8.408.446 8.367-4.902z" fill="#A99FB7"/><path d="M349.779 443.074c-.189-3.161-2.762-7.091-5.754-8.78-2.992-1.688-5.267-.513-5.091 2.648.19 3.16 2.762 7.091 5.755 8.779 3.005 1.688 5.28.513 5.09-2.647z" fill="#5A4B77"/><path d="M436.933 395.449c-.04-5.349-3.858-11.818-8.516-14.466-1.882-1.067-3.602-1.323-4.996-.932 1.516-1.58 3.994-1.769 6.824-.162 4.657 2.634 8.476 9.117 8.516 14.466.027 3.188-1.313 5.254-3.371 5.835.988-1.027 1.57-2.634 1.543-4.741z" fill="#fff"/><path d="M436.933 395.449c-.04-5.349-3.858-11.818-8.516-14.466-2.329-1.323-4.441-1.431-5.944-.54l-4.536 2.661 2.167 3.674c.392 4.862 3.655 10.4 7.731 13.115l2.166 3.674 4.536-2.661c1.489-.892 2.423-2.783 2.396-5.457z" fill="#5A4B77"/><path d="M432.398 398.11c-.041-5.349-3.859-11.818-8.517-14.466-4.657-2.634-8.408-.445-8.367 4.903.04 5.349 3.859 11.819 8.516 14.466 4.671 2.647 8.408.446 8.368-4.903z" fill="#A99FB7"/><path d="M346.016 445.451l-5.2-8.819-16.965 9.954a5.12 5.12 0 0-1.827 7.01 5.147l7.027 1.823 16.965-9.968zM347.058 443.101c-.013-2.31-1.665-5.106-3.683-6.24-2.017-1.135-3.628-.189-3.615 2.12.014 2.31 1.666 5.106 3.683 6.24 2.017 1.135 3.629.176 3.615-2.12z" fill="#E60D2E"/><path d="M365.919 411.954l-2.546-1.445c-1.462-.824-3.398-.621-5.443.581l-8.719 5.119c-1.652.959-2.979 3.296-2.965 5.2l.04 4.349c0 .73-.352 1.567-.88 2.188l.325 2.013-2.18-1.243c-.311-.162-.514-.527-.514-1.053l-.041-4.35c-.027-3.971 2.735-8.846 6.174-10.859l8.72-5.119c2.911-1.715 5.659-1.999 7.744-.824l2.546 1.445c1.462.824 3.398.622 5.443-.581l35.148-20.611c.46-.27.867-.283 1.165-.108l2.166 1.243-1.855.716c-.257.783-.799 1.539-1.449 1.918l-35.148 20.611c-2.898 1.688-5.646 1.985-7.731.81z" fill="#381E54"/><path d="M365.58 411.765c-1.462-.824-3.398-.621-5.443.581l-8.719 5.119c-1.652.959-2.979 3.296-2.965 5.2l.04 4.349c.014 1.04-.704 2.296-1.611 2.823-.894.527-1.625.108-1.638-.918l-.041-4.349c-.027-3.971 2.735-8.847 6.174-10.86l8.72-5.119c2.911-1.702 5.659-1.999 7.744-.824l2.546 1.445c1.462.824 3.398.622 5.442-.58l35.149-20.612c.894-.526 1.625-.108 1.638.919.014 1.04-.704 2.296-1.611 2.823l-35.148 20.611c-2.911 1.715-5.66 1.999-7.745.824l-2.532-1.432z" fill="#5A4B77"/><path d="M348.344 423.394l.041 4.35-.014.094c.082-.27.122-.554.122-.81l-.04-4.349.027-.379a5 5 0 0-.136 1.094z" fill="#fff"/><path d="M317.88 353.808c15.247 0 27.607-7.118 27.607-15.897 0-8.78-12.36-15.898-27.607-15.898s-27.607 7.118-27.607 15.898c0 8.779 12.36 15.897 27.607 15.897z" fill="#381E54"/><path d="M349.292 324.309v-8.793h-1.665c-1.49-2.566-3.981-4.984-7.528-7.023-12.267-7.064-32.143-7.064-44.41 0-3.547 2.039-6.038 4.457-7.528 7.023h-1.665v8.753c-.027 4.646 3.046 9.292 9.193 12.831 12.267 7.064 32.143 7.064 44.41 0 6.12-3.525 9.193-8.158 9.193-12.791z" fill="#C40C30"/><path d="M317.88 333.602c17.341 0 31.399-8.097 31.399-18.086 0-9.988-14.058-18.085-31.399-18.085-17.34 0-31.398 8.097-31.398 18.085 0 9.989 14.058 18.086 31.398 18.086z" fill="#E60D2E"/><path d="M340.085 328.307c-12.267 7.064-32.143 7.064-44.409 0-5.876-3.39-8.909-7.78-9.153-12.21-.271 4.822 2.762 9.685 9.153 13.358 12.266 7.064 32.142 7.064 44.409 0 6.391-3.673 9.41-8.549 9.153-13.358-.244 4.43-3.277 8.82-9.153 12.21zM302.743 321.5c-.528-.311-.826-.716-.826-1.148l.027-11.778c0-.891 1.273-1.621 2.83-1.621 1.557 0 2.816.73 2.816 1.635l-.027 9.765 28.433-3.471c1.53-.189 3.033.378 3.358 1.256.325.878-.65 1.742-2.18 1.931l-31.845 3.89c-.839.108-1.706-.013-2.369-.324l-.217-.135z" fill="#fff"/><path d="M155.596 224.198l-23.329-13.439 23.329-13.44 23.328 13.44-23.328 13.439z" fill="#381E54"/><path d="M178.924 193.7l-23.328 13.439v-26.879l23.328-13.439v26.879z" fill="#C40C30"/><path d="M155.596 180.26l-23.329-13.439 23.329-13.425 23.328 13.425-23.328 13.439zM155.596 207.139l-23.329-13.439v-26.879l23.329 13.439v26.879z" fill="#E60D2E"/><path d="M147.188 192.619l-6.526-3.755v-7.523l6.526 3.768v7.51z" fill="#fff"/><path d="M98.798 432.471l-90.512-52.122c-2.03-1.175-2.03-4.106 0-5.268l86.057-49.57 96.293 55.459c2.031 1.175 2.031 4.106 0 5.268l-80.289 46.233a11.53 11.53 0 1-11.55 0z" fill="#381E54"/><path d="M96.183 289.368c0-5.727-4.048-8.064-9.017-5.214l-84.649 48.665c-1.368.783-2.478 2.701-2.478 4.281 0 1.58 1.11 2.215 2.478 1.432l84.649-48.651c2.248-1.297 4.075-.243 4.075 2.35l-.013 9.441c1.638-.108 3.29-.108 4.955-.081v-12.223zM2.478 355.51l84.649-30.768c4.982-2.864 9.03-9.86 9.044-15.587v-7.564c-1.665-.027-3.317-.027-4.955.081l-.014 10.333c0 2.58-1.828 5.74-4.075 7.037l-84.65 30.754c-1.367.784-2.477 2.702-2.477 4.282s1.11 2.215 2.478 1.432z" fill="#C40C30"/><path d="M.636 355.618l102.982 59.443 87.181-51.866 6.918-10.306-.717 3.661-1.869-9.563-161.824 6.159-28.514-1.823-4.157 4.295z" fill="#BA0D37"/><path d="M4.062 337.681l-.027 12.642 99.515 57.444 2.694-12.048-102.182-58.038z" fill="#EA6880"/><path d="M196.431 342.922l-102.805-59.335-92.692 53.783-.203 1.31 102.969 59.43 92.732-55.188z" fill="#E60D2E"/><path d="M163.652 373.393l24.168-14.304c2.031-1.432 3.629-4.309 3.629-6.726l.013-1.891c0-1.526-.636-2.526-1.625-2.81l-47.577 26.406-38.751 20.908.041 12.791 60.102-34.374z" fill="#fff"/><path d="M106.989 396.151l-102.155-58.956-2.167-1.256-1.976-1.148c-.407.742-.664 1.553-.664 2.296 0 .77.27 1.323.704 1.58l.014.013h.013l102.942 59.416 3.29-1.945z" fill="#BA0D37"/><path d="M102.332 414.318l1.286.743.23-.405-.799-.635-.717.297zm.027-16.978l1.313.756-.325-.715-.988-.041z" fill="#fff"/><path d="M105.473 392.234l84.649-48.651c4.982-2.863 9.031-.526 9.017 5.2l-.014 1.891c0 5.727-4.061 12.724-9.044 15.587l-84.649 48.665c-1.367.783-2.478.148-2.478-1.432 0-1.58 1.111-3.498 2.478-4.282l84.649-48.651c2.248-1.296 4.075-4.443 4.075-7.037l.014-1.891c0-2.579-1.828-3.633-4.075-2.35l-84.622 48.665c-1.368.783-2.478.148-2.478-1.432 0-1.58 1.11-3.485 2.478-4.282z" fill="#C40C30"/><path d="M102.954 413.494c0-1.58 1.111-3.498 2.478-4.282l84.649-48.651c2.248-1.296 4.075-4.443 4.075-7.037l.014-1.891c0-1.688-.785-2.728-1.95-2.877.379.5.596 1.203.596 2.094l-.013 1.891c0 2.58-1.828 5.74-4.076 7.023l-84.635 48.679c-1.368.783-2.478 2.701-2.478 4.281 0 1.189.636 1.851 1.543 1.756-.135-.27-.203-.594-.203-.986zm.039-16.978c0-1.58 1.111-3.498 2.478-4.282l84.649-48.651c2.139-1.229 4.116-1.499 5.66-.945-1.652-1.405-4.184-1.472-7.014.162l-84.649 48.651c-1.367.784-2.478 2.701-2.478 4.282 0 1.188.637 1.85 1.544 1.756a2.354 2.354 0 1-.19-.973zm-39.154-52.419l46.711-26.838 40.497 23.366-46.698 26.852-40.51-23.38z" fill="#fff"/><path d="M179.344 473.923c18.698 10.765 49.013 10.765 67.711 0s18.698-28.229 0-38.994-49.013-10.765-67.711 0-18.698 28.229 0 38.994zm18.292-28.459c8.598-4.957 22.53-4.957 31.127 0 8.598 4.957 8.598 12.98 0 17.924-8.597 4.957-22.529 4.957-31.127 0-8.597-4.944-8.597-12.967 0-17.924z" fill="#381E54"/><path d="M254.123 428.554l-17.073.27c-1.26-1.634-3.06-3.174-5.389-4.525-9.396-5.402-24.155-5.821-34.39-1.256l-10.155-9.522-15.625.243c.772-.5 1.571-.999 2.397-1.486 21.717-12.507 56.92-12.507 78.637 0 3.994 2.297 7.244 4.863 9.776 7.591l-8.178 8.685zM171.478 389.006v24.745l15.624-.243v-24.745l-15.624.243z" fill="#C40C30"/><path d="M197.257 398.286v24.744l-10.155-9.522v-24.745l10.155 9.523z" fill="#BA0D37"/><path d="M237.036 404.08v24.744l-22.462-18.261-17.317 12.48v-24.744l15.95-7.712s21.947 6.699 23.098 6.983c1.124.27.731 6.51.731 6.51z" fill="#C40C30"/><path d="M254.123 403.81v24.744l-17.087.257v-24.731l17.087-.27z" fill="#BA0D37"/><path d="M262.287 395.125v24.731l-8.164 8.698v-24.744l8.164-8.685z" fill="#C40C30"/><path d="M254.121 403.81l-17.074.27c-1.259-1.634-3.059-3.174-5.388-4.525-9.397-5.403-24.155-5.821-34.391-1.256l-10.154-9.522-15.625.243c.772-.5 1.571-1 2.397-1.486 21.717-12.507 56.92-12.507 78.637 0 3.994 2.296 7.244 4.863 9.776 7.591l-8.178 8.685z" fill="#E60D2E"/><path d="M192.112 401.338v22.745l-14.785-3.538s.866-13.305 1.178-13.669c.311-.351 13.607-5.538 13.607-5.538zm11.184 22.732v24.744l-1.598 1.702-10.425-5.997s1.611-18.882 1.8-19.261c.203-.378 10.223-1.188 10.223-1.188z" fill="#5A4B77"/><path d="M183.176 417.695l8.936 8.387c-7.447 5.876-6.567 14.155 2.64 19.463 2.519 1.459 5.43 2.54 8.544 3.283l-9.234 9.819 8.191 7.685c-10.398-1.202-20.309-4.106-28.365-8.752-18.671-10.751-21.271-27.243-7.84-39.602l17.128-.283zM202.24 441.574v24.745l-20.269-7.807-24.371-23.205.095-26.27 25.779 20.395 18.766 12.142z" fill="#9E90B2"/><path d="M183.174 392.95l8.936 8.388c-7.447 5.875-6.567 14.155 2.64 19.463 2.519 1.459 5.43 2.539 8.544 3.282l-9.234 9.82 8.191 7.685c-10.398-1.202-20.309-4.106-28.365-8.752-18.671-10.752-21.271-27.243-7.839-39.602l17.127-.284z" fill="#A99FB7"/><path d="M202.307 458.512l8.138-8.658c7.555.459 15.394-.972 21.189-4.309 5.984-3.444 8.448-8.144 7.406-12.628l19.389-.297 7.46-7.929c6.526 11.17 2.071 23.988-13.377 32.889-11.346 6.537-26.375 9.644-41.242 9.36l-8.963-8.428zM211.27 442.169v24.744l57.53-31.795v-24.757l-8.408 3.39-49.122 28.418z" fill="#5A4B77"/><path d="M202.307 433.768v24.744l8.963 8.401v-24.744l-8.963-8.401z" fill="#381E54"/><path d="M202.307 433.768l8.138-8.658c7.555.459 15.394-.973 21.189-4.309 5.984-3.444 8.448-8.144 7.406-12.629l19.389-.297 7.46-7.928c6.526 11.17 2.071 23.988-13.377 32.889-11.346 6.537-26.375 9.643-41.242 9.36l-8.963-8.428z" fill="#9E90B2"/><path d="M24.371 455.567l-20.756-11.953 20.756-11.953 20.756 11.953-20.756 11.953z" fill="#381E54"/><path d="M45.127 428.446l-20.756 11.953v-23.906l20.756-11.967v23.92z" fill="#5A4B77"/><path d="M24.371 416.493l-20.756-11.967 20.756-11.954 20.756 11.967-20.756 11.954z" fill="#A99FB7"/><path d="M24.371 440.399l-20.756-11.953v-23.92l20.756 11.967v23.906z" fill="#9E90B2"/><path d="M16.897 427.473l-5.808-3.336v-6.685l5.808 3.336v6.685z" fill="#fff"/></g><defs><clipPath id="a"><path fill="#fff" d="M0 0h528v482h-528z"/></clipPath></defs></svg>