<svg width="99" height="20" viewBox="0 0 99 20" xmlns="http://www.w3.org/2000/svg" color="inherit" fill="none"><path d="M14.604 15h-2.152v-5.177c0-.996-.142-1.716-.427-2.162-.278-.445-.752-.668-1.419-.668-.563 0-1.042.281-1.438.844-.39.563-.584 1.237-.584 2.022v5.14h-2.162v-5.353c0-1.769-.625-2.653-1.874-2.653-.581 0-1.061.266-1.438.798-.371.532-.557 1.222-.557 2.069v5.14h-2.152v-9.5h2.152v1.503h.037c.687-1.15 1.685-1.726 2.997-1.726.656 0 1.228.182 1.716.547.495.359.832.832 1.011 1.419.705-1.311 1.757-1.967 3.154-1.967 2.09 0 3.136 1.29 3.136 3.869v5.854zm12.189-4.165h-6.475c.025.878.294 1.556.807 2.032.52.476 1.231.714 2.134.714 1.014 0 1.945-.303 2.793-.909v1.735c-.866.544-2.01.816-3.433.816-1.398 0-2.496-.43-3.293-1.29-.792-.866-1.188-2.081-1.188-3.646 0-1.478.436-2.681 1.308-3.609.878-.934 1.967-1.401 3.266-1.401s2.304.417 3.015 1.252c.711.835 1.067 1.995 1.067 3.479v.826zm-2.078-1.522c-.006-.773-.189-1.373-.547-1.8-.359-.433-.854-.649-1.484-.649-.618 0-1.144.226-1.577.677-.427.451-.69 1.042-.788 1.772h4.397zm14.286 5.687h-2.152v-1.614h-.037c-.693 1.225-1.76 1.837-3.201 1.837-1.169 0-2.106-.424-2.811-1.271-.699-.854-1.048-2.013-1.048-3.479 0-1.571.387-2.83 1.16-3.776.779-.946 1.815-1.419 3.108-1.419 1.28 0 2.211.513 2.793 1.54h.037v-5.882h2.152v14.064zm-2.125-4.342v-1.243c0-.674-.219-1.246-.659-1.716-.439-.47-.999-.705-1.679-.705-.804 0-1.438.3-1.902.9-.458.6-.686 1.432-.686 2.496 0 .965.22 1.729.659 2.291.445.557 1.042.835 1.791.835.736 0 1.333-.269 1.791-.807.458-.544.686-1.228.686-2.05zm7.541-7.153c-.352 0-.656-.114-.909-.343-.247-.229-.371-.52-.371-.872 0-.353.124-.646.371-.881.254-.235.557-.353.909-.353.365 0 .674.118.928.353s.38.529.38.881c0 .334-.127.622-.38.863-.254.235-.563.353-.928.353zm1.067 11.495h-2.152v-9.5h2.152v9.5zm11.632 0h-2.087v-1.484h-.037c-.656 1.138-1.617 1.707-2.885 1.707-.934 0-1.667-.254-2.199-.761-.526-.507-.788-1.178-.788-2.013 0-1.794 1.033-2.839 3.099-3.136l2.82-.399c0-1.354-.643-2.032-1.93-2.032-1.132 0-2.152.39-3.062 1.169v-1.883c1.002-.594 2.159-.891 3.47-.891 2.4 0 3.6 1.181 3.6 3.544v6.179zm-2.078-4.666l-1.995.278c-.618.08-1.086.232-1.401.455-.309.216-.464.6-.464 1.15 0 .402.142.733.427.993.291.254.677.38 1.16.38.656 0 1.197-.229 1.624-.687.433-.464.649-1.045.649-1.744v-.826zm13.655 3.293h-.037v1.373h-2.152v-14.064h2.152v6.234h.037c.736-1.262 1.812-1.893 3.229-1.893 1.2 0 2.137.427 2.811 1.28.68.847 1.02 1.985 1.02 3.414 0 1.59-.38 2.864-1.141 3.822-.761.952-1.8 1.429-3.117 1.429-1.237 0-2.171-.532-2.802-1.596zm-.056-3.776v1.178c0 .693.22 1.28.659 1.763.445.482 1.008.724 1.689.724.798 0 1.422-.309 1.874-.928.458-.625.686-1.494.686-2.607 0-.934-.213-1.664-.64-2.189-.421-.532-.993-.798-1.716-.798-.767 0-1.386.272-1.856.816-.464.544-.696 1.225-.696 2.041zm17.904 5.149h-2.087v-1.484h-.037c-.656 1.138-1.617 1.707-2.885 1.707-.934 0-1.667-.254-2.199-.761-.526-.507-.789-1.178-.789-2.013 0-1.794 1.033-2.839 3.099-3.136l2.82-.399c0-1.354-.643-2.032-1.93-2.032-1.132 0-2.152.39-3.062 1.169v-1.883c1.002-.594 2.159-.891 3.47-.891 2.4 0 3.6 1.181 3.6 3.544v6.179zm-2.078-4.666l-1.995.278c-.618.08-1.085.232-1.401.455-.309.216-.464.6-.464 1.15 0 .402.142.733.427.993.291.254.677.38 1.16.38.656 0 1.197-.229 1.624-.687.433-.464.649-1.045.649-1.744v-.826zm14.462-4.834l-4.286 11.021c-.891 1.967-2.14 2.95-3.748 2.95-.452 0-.829-.04-1.132-.121v-1.791c.34.111.65.167.928.167.804 0 1.404-.396 1.8-1.188l.64-1.559-3.776-9.481h2.384l2.264 6.902.167.687h.046l.167-.668 2.375-6.921h2.171z" fill="currentColor"/></svg>