<svg width="80" height="80" viewBox="0 0 80 80" xmlns="http://www.w3.org/2000/svg" fill="none"><path d="M56.774 78.71a6.452 6.452 0 1-6.452-6.452v-12.903h12.904v12.903a6.452 6.452 0 1-6.452 6.452zm0-68.387c-12.115 0-21.935 9.82-21.935 21.935 0 12.115 9.82 21.936 21.935 21.936 12.115 0 21.936-9.82 21.936-21.936 0-12.115-9.821-21.935-21.936-21.935zm0 38.71c-9.264-.001-16.774-7.511-16.774-16.776 0-9.264 7.51-16.774 16.774-16.774 9.265 0 16.774 7.51 16.774 16.774 0 9.265-7.51 16.774-16.774 16.774z" fill="#EB0029"/><path d="M43.87 32.258h2.582c0-.774.085-1.546.255-2.295l-2.517-.57c-.212.936-.32 1.9-.32 2.865zm12.904-12.903a12.84 12.84 0 0-11.561 7.168l2.31 1.15a10.268 10.268 0 19.251-5.737v-2.581zM65.314 60.645h1.783v-2.58h-2.58v-3.936c9.003-3.198 15.483-11.782 15.483-21.869 0-9.713-5.999-18.04-14.481-21.504l-.404-3.839a7.707 7.707 0 57.432 0 NaN NaN 7.691 7.691 0 0-4.285 1.298 22.936l-12.761 3.863h-.772c-4.556 0-8.969-1.335-12.761-3.863a7.69 7.69 0 22.568 0 NaN NaN 7.707 7.707 0 0-7.683 6.916l-1.907 18.115 NaN NaNv3.056lNaN NaNa142.726 142.726 0 26.225 3.306c2.136 5.096 6.049 9.259 10.95 11.75-.95.46-1.852 1.015-2.668 1.694l-3.63 3.024-3.628-3.024a13.132 13.132 0 0-8.39-3.038c-4.44 0-8.575 2.275-11.063 6.084-3.409 5.217-8.413 8.866-9.753 9.537l-1.867.934 1.67 1.252c.224.169 5.612 4.129 14.967 4.129 3.96 0 10.102-1.48 16.876-8.53.626-.648 1.755-.648 2.377 0 2.57 2.673 5.145 4.673 7.845 6.109v1.13c0 4.27 3.472 7.742 7.742 7.742 4.06 0 7.392-3.14 7.711-7.12 5.386-1.142 8.41-3.358 8.543-3.46l1.68-1.25-1.873-.939c-.956-.476-4.412-2.929-7.521-6.586zm-3.379-2.58h-10.322v-3.18c1.663.38 3.386.599 5.161.599 1.776 0 3.498-.22 5.161-.599v3.18zm-44.485-50.88a5.133 5.133 0 15.118-4.604 5.12 5.12v14.192a4.297h.772a25.5 25.5 0 14.192-4.297 5.12 5.12v15.118a4.605l.282 2.675a23.131 23.131 0 0-6.058-.829c-8.075 0-15.192 4.147-19.356 10.418v-.095h3.938l1.28-12.17zm-7.769 28.197l-6.523-1.45 11.393-6.834h3.513v-2.58h-2.437l.272-2.581h20.101c-.415.833-.78 1.694-1.095 2.58h-14.26v2.58h13.502a23.157 23.157 0 0-.599 5.162c0 2.198.327 4.315.9 6.33a140.012 140.012 0 19.68 35.382 NaN NaNzm26.448-3.123c0-11.383 9.262-20.645 20.645-20.645s20.646 9.261 20.646 20.644-9.262 20.645-20.645 20.645c-2.322 0-4.547-.402-6.632-1.113l-.004-.031-.05.01c-8.109-2.786-13.96-10.47-13.96-19.51zm6.917 30.973c-1.6-1.668-4.486-1.672-6.096 0-6.145 6.395-11.557 7.737-15.016 7.737-5.574 0-9.617-1.56-11.734-2.63 2.371-1.715 6.097-4.975 8.876-9.23 2.012-3.077 5.34-4.914 8.903-4.914 2.457 0 4.852.867 6.74 2.441l5.28 4.4 5.282-4.4a10.497 10.497 0 13.752-1.996v3.426h-2.58v2.58h2.58v7.51c-2.028-1.241-4.002-2.86-5.987-4.924zm13.728 14.188a5.167 5.167 0 1-5.161-5.162v-11.613h10.322v11.613a5.167 5.167 0 1-5.16 5.162zm7.742-7.195v-6.589c1.911 2.044 3.835 3.66 5.277 4.702-1.183.598-2.972 1.342-5.277 1.887z" fill="#291956"/></svg>