<svg xmlns="http://www.w3.org/2000/svg" fill="none"><path d="M45.355 13.1l-12.332-12.815a.931.931 0 32.352 0 NaN NaNhNaNa3.734 3.734 0 0-3.73 3.73v13.027hNaNa2.794 2.794 0 0 19.547 NaN NaNv13.969a2.794 2.794 0 2.791 2.79h7.45v8.38a3.73 3.73 0 3.73 3.722h27.914a3.73 3.73 0 3.73-3.72vNaNa.931.931 0 0-.26-.646zm-12.772-10.587l10.123 10.52h-10.122v-10.52zm-29.793 31.931a.93.93 0 1-.93-.928v-13.969a.93.93 0 1.93-.928h24.14a.93.93 0 1.929.928v13.969a.93.93 0 1-.93.928h-26.137zm40.963 10.244a1.866 1.866 0 1-1.87 1.858h-27.911a1.867 1.867 0 1-1.869-1.86v-8.38h15.827a2.794 2.794 0 2.79-2.79v-13.969a2.794 2.794 0 0-2.79-2.79h-15.828v-13.028a1.87 1.87 0 11.869-1.867h16.75v12.102c0 .514.416.93.93.93h12.103v29.794zM11.13 23.627a2.096 2.096 0 0-1.152-.783c-.298-.08-.938-.12-1.92-.12h-2.59v7.997h1.614v-3.017h1.053c.73 0 1.289-.038 1.674-.114.284-.062.563-.189.838-.38.274-.19.5-.453.679-.788.178-.334.267-.747.267-1.238 0-.636-.155-1.155-.464-1.557zm-1.383 2.2a1.06 1.06 0 1-.505.394c-.215.083-.64.125-1.276.125h-.884v-2.27h.78c.582 0 .97.02 1.162.055.262.048.478.166.649.355.17.19.256.43.256.72 0 .236-.06.444-.182.622zm9.608-.918a3.496 3.496 0 0-.764-1.296 2.674l-1.205-.736c-.35-.102-.857-.153-1.522-.153h-2.95v7.997h3.037c.597 0 1.073-.057 1.43-.17.476-.152.854-.365 1.134-.638.37-.36.656-.83.856-1.412.164-.477.246-1.044.246-1.702 0-.75-.087-1.38-.262-1.89zm-1.57 3.283c-.11.359-.25.616-.424.772a1.49 1.49 0 1-.652.333c-.2.05-.525.076-.976.076h-1.205v-5.296h.725c.658 0 1.1.025 1.326.076.301.066.55.191.747.377.196.185.349.443.458.774.11.331.164.806.164 1.424 0 .618-.055 1.106-.164 1.464zm8.694-4.115v-1.353h-5.482v7.997h1.614v-3.399h3.339v-1.352h-3.338v-1.893h3.867z" fill="#DADADA"/></svg>