<svg width="46" height="49" viewBox="0 0 46 49" xmlns="http://www.w3.org/2000/svg" color="inherit" fill="none"><path d="M45.355 13.1l-12.333-12.815c-.175-.182-.418-.285-.671-.285h-18.381c-2.057 0-3.731 1.673-3.731 3.729v13.028h-7.449c-1.539 0-2.791 1.252-2.791 2.79v13.969c0 1.539 1.252 2.79 2.791 2.79h7.449v8.379c0 2.053 1.674 3.723 3.731 3.723h27.914c2.057 0 3.731-1.669 3.731-3.721v-30.942c0-.241-.093-.472-.26-.646zm-12.773-10.587l10.124 10.52h-10.124v-10.52zm-29.791 31.931c-.512 0-.929-.416-.929-.928v-13.969c0-.512.417-.929.929-.929h25.138c.512 0 .929.417.929.929v13.969c0 .512-.417.928-.929.928h-25.138zm40.962 10.243c0 1.025-.838 1.859-1.869 1.859h-27.914c-1.03 0-1.869-.835-1.869-1.861v-8.38h15.828c1.539 0 2.791-1.252 2.791-2.79v-13.969c0-1.539-1.252-2.79-2.791-2.79h-15.828v-13.028c0-1.03.838-1.867 1.869-1.867h16.75v12.102c0 .514.417.931.931.931h12.102v29.793zM11.13 23.627c-.309-.402-.693-.663-1.151-.783-.298-.08-.938-.12-1.92-.12h-2.591v7.997h1.615v-3.016h1.053c.731 0 1.289-.038 1.675-.115.284-.062.563-.188.837-.379.275-.191.501-.454.679-.788.178-.334.267-.747.267-1.238 0-.636-.155-1.155-.464-1.557zm-1.383 2.201c-.122.178-.29.309-.505.393-.215.084-.64.125-1.276.125h-.884v-2.269h.78c.582 0 .969.018 1.162.055.262.047.478.165.649.355.171.189.256.429.256.72 0 .236-.061.444-.183.622zM19.355 24.909c-.175-.511-.429-.943-.764-1.296-.334-.353-.736-.598-1.206-.736-.349-.102-.856-.153-1.522-.153h-2.951v7.997h3.038c.596 0 1.073-.056 1.429-.169.476-.153.855-.365 1.135-.638.371-.36.656-.831.856-1.413.164-.476.245-1.044.245-1.702 0-.749-.087-1.379-.262-1.89zm-1.571 3.284c-.109.358-.25.616-.423.772-.173.156-.39.267-.652.333-.2.051-.525.076-.976.076h-1.205v-5.296h.725c.658 0 1.1.025 1.326.076.302.065.551.191.747.376.196.186.349.444.458.775.109.331.164.805.164 1.424 0 .618-.055 1.106-.164 1.464zM26.479 24.077v-1.353h-5.482v7.997h1.615v-3.398h3.338v-1.353h-3.338v-1.893h3.867z" fill="currentColor"/></svg>