<svg width="20" height="20" viewBox="0 0 20 20" fill="none" xmlns="http://www.w3.org/2000/svg">
<path fill-rule="evenodd" clip-rule="evenodd" d="M3.55323 0.0440882C3.23218 0.125032 2.9076 0.306862 2.5756 0.591808C2.20745 0.907763 0.882396 2.24932 0.666714 2.52449C-0.207475 3.63968 -0.222152 5.37379 0.623624 7.60972C1.65691 10.3413 3.59271 13.1103 6.04072 15.3586C9.41673 18.4592 13.9344 20.4685 16.2636 19.9056C16.6086 19.8222 17.1822 19.5557 17.4457 19.3564C17.7102 19.1563 19.4856 17.3413 19.6505 17.1024C19.9552 16.6609 20.0728 16.0698 19.955 15.5713C19.8234 15.0138 19.78 14.9606 18.0708 13.2574C16.3474 11.5402 16.2946 11.4979 15.7239 11.3779C15.2745 11.2835 14.8154 11.3668 14.3713 11.6233C14.2677 11.6831 13.7817 12.1267 13.2913 12.6091L12.3997 13.4861L12.114 13.3381C11.4124 12.9746 10.8948 12.6256 10.1213 11.9941C9.32698 11.3457 8.21996 10.2057 7.60882 9.40691C7.16733 8.82982 6.51341 7.76343 6.51153 7.61746C6.51118 7.58946 6.81684 7.26924 7.19079 6.9059C7.97449 6.1444 8.2851 5.78817 8.46017 5.4502C8.68134 5.02315 8.72369 4.4854 8.57134 4.03833C8.41661 3.58411 8.27046 3.41206 6.76959 1.91694C5.28584 0.438914 5.05818 0.24461 4.63694 0.0965648C4.34046 -0.00760637 3.85223 -0.0312639 3.55323 0.0440882ZM4.46223 1.14023C4.57376 1.20377 5.19938 1.79666 6.04327 2.63855C7.5713 4.16303 7.62813 4.23479 7.62612 4.63787C7.62432 4.99543 7.5321 5.11892 6.50607 6.13787C5.98935 6.65098 5.5388 7.12437 5.50485 7.18979C5.46067 7.27491 5.44744 7.38499 5.45827 7.57652C5.47181 7.81497 5.50293 7.90252 5.74271 8.37649C6.28399 9.44632 6.99764 10.3889 8.17812 11.5933C9.35323 12.7922 10.5223 13.6843 11.7256 14.3004C12.1556 14.5206 12.2368 14.5491 12.432 14.5479C12.5663 14.5471 12.7062 14.5187 12.7898 14.4754C12.8654 14.4363 13.3511 13.9852 13.8692 13.4729C14.538 12.8117 14.8624 12.5184 14.9876 12.4618C15.223 12.3554 15.5298 12.3557 15.7445 12.4626C15.9821 12.5808 18.7535 15.3395 18.8776 15.5813C18.945 15.7127 18.9707 15.8275 18.9707 15.9974C18.9707 16.3983 18.8893 16.5089 17.7741 17.624C16.6697 18.7282 16.5672 18.803 15.9791 18.9334C15.4127 19.059 14.4588 18.959 13.492 18.6728C12.022 18.2377 10.0418 17.1962 8.41417 16.0023C5.27697 13.701 2.5849 10.1884 1.4672 6.93804C0.936003 5.39322 0.87702 4.28613 1.28213 3.46477C1.41112 3.2032 1.52587 3.07143 2.34296 2.24623C2.84685 1.7373 3.32762 1.27365 3.41133 1.21586C3.76228 0.973495 4.12387 0.947492 4.46223 1.14023Z" fill="#5D5D5D"/>
</svg>
