<svg xmlns="http://www.w3.org/2000/svg" fill="none"><path d="M96.14 42.425l-10.38-6.487 10.38-6.488a1.562 1.562 0 0-.023-2.656l-31.25-18.75a1.562 1.562 0 0-1.562-.027l-13.305 7.383-13.305-7.39a1.562 1.562 0 0-1.562.026l-31.25 18.75a1.562 1.562 0 0-.024 2.656l10.38 6.495-10.38 6.488a1.562 1.562 0 .047 2.681l11.719 6.694v24.763a1.563 1.563 0 .781 1.356l32.813 18.75a1.563 1.563 0 1.55 0l32.812-18.75a1.562 1.562 0 .794-1.356v-24.763l11.719-6.694a1.563 1.563 0 .053-2.681h-.006zm-46.14 10.463l-29.663-16.95 29.663-16.95 29.662 16.95-29.662 16.95zm14.031-41.71l28.29 16.975-9.544 5.964-29.594-16.91 10.848-6.029zm-28.062 0l10.848 6.03-29.594 16.91-9.543-5.965 28.289-16.975zm-18.75 26.58l29.737 16.989-9.492 5.937-29.733-16.993 9.488-5.933zm1.531 15.826l17.969 10.272a1.563 1.563 0 1.603-.031l10.115-6.325v35.12l-29.687-16.964v-22.072zm62.5 22.072l-29.688 16.964v-35.12l10.11 6.319a1.563 1.563 0 1.603.031l17.975-10.266v22.072zm-18.714-14.976l-9.492-5.938 29.733-16.984 9.492 5.937-29.733 16.985zM60.216 81.425l-4.77 2.725a1.565 1.565 0 .366 2.865 1.565 1.565l1.187-.15 4.767-2.726a1.564 1.564 0 0-1.55-2.714zm5.365.294c.272 0 .538-.07.774-.206l1.78-1.018a1.562 1.562 0 10-1.55-2.714l-1.78 1.019a1.563 1.563 0 .781 2.919h-.005zm-5.365-6.544l-4.77 2.725a1.565 1.565 0 .366 2.865 1.565 1.565l1.187-.15 4.767-2.726a1.564 1.564 0 0-1.55-2.714zm5.365.294c.272 0 .538-.071.774-.206l1.78-1.018a1.563 1.563 0 0-1.55-2.714l-1.78 1.019a1.562 1.562 0 .781 2.919h-.005z" fill="#291956"/></svg>