<svg xmlns="http://www.w3.org/2000/svg" fill="none"><g clip-path="url(#a)"><path d="M545.772 48.527l-59.47-34.243c-1.171-.675-2.359-.708-3.381-.247l.016-.033-7.093 3.324s2.656.921 4.223 1.48l-8.579 43.197c-.692 3.521.875 7.602 3.514 9.116l56.847 32.73-1.006 5.068 7.16-3.34-.033-.017c1.22-.592 2.177-1.909 2.557-3.801l8.759-44.1c.71-3.522-.874-7.603-3.514-9.134z" fill="#5A4B77"/><path d="M527.263 108.738l-59.47-34.244c-2.639-1.514-4.223-5.611-3.514-9.116l8.76-44.1c.693-3.522 3.415-5.135 6.054-3.605l59.47 34.244c2.64 1.514 4.224 5.612 3.514 9.117l-8.759 44.1c-.71 3.505-3.415 5.118-6.055 3.604z" fill="#9E90B2"/><path d="M539.916 51.374l-59.47-34.244c-1.386-.79-2.788-.707-3.91.033.809-.131 1.683 0 2.557.494l59.47 34.244c2.64 1.514 4.224 5.611 3.514 9.116l-8.759 44.101c-.33 1.678-1.122 2.896-2.145 3.571 1.65-.28 3.035-1.744 3.497-4.098l8.76-44.1c.693-3.505-.874-7.586-3.514-9.117zm-46.817 7.916c-.512 2.55-2.722 3.587-4.933 2.303-2.21-1.284-3.596-4.377-3.101-6.928.511-2.55 2.722-3.587 4.933-2.303 2.227 1.283 3.612 4.377 3.101 6.927zM505.257 66.3c-.512 2.55-2.722 3.587-4.933 2.303-2.21-1.283-3.596-4.377-3.101-6.928.511-2.55 2.722-3.587 4.933-2.303 2.227 1.267 3.612 4.377 3.101 6.927zm12.158 6.993c-.512 2.55-2.722 3.587-4.933 2.304-2.21-1.284-3.596-4.377-3.101-6.928.511-2.55 2.722-3.587 4.932-2.304 2.228 1.267 3.613 4.377 3.102 6.928z" fill="#fff"/><path d="M388.379 582.674l-228.329-131.496c-6.467-3.719-5.642-10.219 1.815-14.514l155.48-89.518c7.456-4.295 18.74-4.756 25.206-1.037l228.329 131.496c6.467 3.719 5.642 10.219-1.814 14.514l-155.48 89.518c-7.457 4.279-18.741 4.756-25.207 1.037z" fill="#381E54"/><path d="M627.497 201.58l-228.329-131.496c-2.656-1.53-5.345-1.76-7.737-.954l.016-.017-.412.148-.099.033-8.248 3.143 7.407 3.62-.099.395-40.351 183.019c-1.864 8.458 1.864 18.315 8.331 22.034l222.835 128.337-.792 9.412 9.024-3.488c3.035-1.416 5.46-4.608 6.467-9.166l40.35-183.019c1.831-8.408-1.897-18.282-8.363-22.001z" fill="#5A4B77"/><path d="M627.496 201.58l-228.328-131.496c-2.656-1.53-5.345-1.76-7.737-.954l.016-.017-.412.148-.099.033-8.249 3.143 7.407 3.62-.099.395-27.664 125.441 111.714 86.819 160.677-78.081c-1.518-3.884-4.042-7.224-7.226-9.051z" fill="#9E90B2"/><path d="M618.885 227.531l17.388-7.389c.313-6.714-2.475-13.658-7.045-17.36l-27.516 11.551 17.173 13.198z" fill="#817199"/><path d="M572.068 418.382l-228.329-131.496c-6.467-3.719-10.178-13.592-8.331-22.034l40.351-183.019c1.864-8.458 8.611-12.292 15.061-8.573l228.329 131.496c6.467 3.719 10.179 13.593 8.331 22.034l-40.351 183.019c-1.847 8.458-8.594 12.292-15.061 8.573z" fill="#A99FB7"/><path d="M621.343 203.966l-228.329-131.496c-3.134-1.793-6.318-1.793-8.99-.395 2.144-.46 4.487-.148 6.796 1.185l228.329 131.496c6.467 3.719 10.179 13.593 8.331 22.034l-40.351 183.019c-.956 4.36-3.233 7.454-6.07 8.951 3.86-.839 7.077-4.327 8.264-9.758l40.351-183.018c1.864-8.425-1.864-18.299-8.331-22.018zM567.119 405.826l-214.736-123.614c-5.906-3.406-9.32-12.44-7.621-20.158l37.183-168.669c1.699-7.734 7.869-11.239 13.791-7.833l214.736 123.614c5.906 3.407 9.32 12.441 7.621 20.175l-37.183 168.669c-1.699 7.718-7.869 11.223-13.791 7.816z" fill="#fff"/><path d="M567.119 405.826l-214.736-123.614c-5.906-3.406-9.32-12.44-7.621-20.158l37.183-168.669c1.699-7.734 7.869-11.239 13.791-7.833l214.736 123.614c5.906 3.407 9.32 12.441 7.621 20.175l-37.183 168.669c-1.699 7.718-7.869 11.223-13.791 7.816z" fill="#381E54"/><path d="M569 405.069l-214.736-123.613c-5.906-3.407-9.321-12.441-7.622-20.158l37.184-168.67c.857-3.916 2.87-6.73 5.411-8.129-3.399.872-6.22 4.065-7.275 8.886l-37.184 168.669c-1.699 7.735 1.716 16.769 7.622 20.175l214.735 123.614c2.92 1.678 5.906 1.662 8.381.296-2.062.51-4.306.198-6.516-1.07zm6.219 19.039l-31.212-4.113-201.472-116.028c-6.467-3.719-17.734-3.259-25.207 1.036l-142.761 82.196-18.872-2.485v10.68h.016c-.115 2.468 1.287 4.837 4.339 6.598l228.329 131.496c6.466 3.719 17.734 3.259 25.207-1.036l155.48-89.518c4.19-2.419 6.285-5.529 6.169-8.459v-10.367h-.016z" fill="#5A4B77"/><path d="M423.846 350.799l-14.319-8.244h-157.377l-77.583 44.644-18.872-2.485v10.68h.016c-.115 2.468 1.287 4.837 4.339 6.598l228.329 131.496c3.415 1.959 8.182 2.748 12.999 2.436l22.468-185.125z" fill="#9E90B2"/><path d="M164.075 385.816l-8.38-1.102v10.68h.016c-.115 2.468 1.287 4.837 4.339 6.598l4.025 2.32v-18.496zm226.613 148.742c6.12 2.32 14.88 1.81 21.413-1.333v-23.828h-21.413v25.161z" fill="#817199"/><path d="M388.379 522.825l-228.329-131.496c-6.467-3.719-5.642-10.219 1.815-14.514l155.48-89.518c7.456-4.295 18.74-4.755 25.206-1.037l228.329 131.497c6.467 3.719 5.642 10.219-1.814 14.513l-155.48 89.518c-7.457 4.295-18.741 4.756-25.207 1.037z" fill="#F8F8F8"/><path d="M569.066 428.37l-155.481 89.518c-7.456 4.295-18.74 4.756-25.206 1.037l-228.329-131.496c-2.112-1.218-3.431-2.748-4.009-4.377-1.006 3.044.281 6.138 4.009 8.277l228.329 131.496c6.466 3.719 17.734 3.258 25.206-1.037l155.481-89.518c5.014-2.879 7.011-6.763 5.823-10.136-.743 2.238-2.689 4.426-5.823 6.236z" fill="#fff"/><path d="M257.165 347.804l-10.327-5.957c-.825-.477-.726-1.316.231-1.859l12.191-7.027c.957-.559 2.409-.609 3.233-.131l10.327 5.957c.825.477.726 1.316-.231 1.859l-12.191 7.027c-.956.543-2.392.608-3.233.131zm15.952 9.182l-10.326-5.957c-.825-.477-.726-1.316.23-1.859l12.191-7.027c.957-.559 2.409-.608 3.234-.131l10.327 5.957c.824.477.725 1.316-.231 1.859l-12.191 7.027c-.957.543-2.392.609-3.234.131zm15.952 9.183l-10.326-5.957c-.825-.478-.726-1.317.231-1.86l12.19-7.026c.957-.56 2.409-.609 3.234-.132l10.327 5.957c.824.477.726 1.316-.231 1.859l-12.191 7.027c-.941.559-2.392.609-3.234.132zm22.073-7.586l-10.327-5.957c-.825-.478-.726-1.317.231-1.86l10.244-5.891c.957-.559 2.409-.609 3.234-.131l10.326 5.956c.825.478.726 1.317-.23 1.86l-10.245 5.891c-.957.559-2.408.609-3.233.132zm15.952 9.198l-10.327-5.957c-.825-.477-.726-1.316.231-1.859l10.244-5.891c.957-.56 2.409-.609 3.234-.132l10.327 5.957c.824.477.725 1.316-.231 1.859l-10.245 5.892c-.956.543-2.408.608-3.233.131zm15.952 9.182l-10.327-5.957c-.824-.477-.725-1.316.231-1.859l10.245-5.891c.956-.56 2.408-.609 3.233-.132l10.327 5.957c.825.477.726 1.317-.231 1.86l-10.244 5.891c-.957.543-2.392.609-3.234.131zm15.952 9.183l-10.326-5.957c-.825-.478-.726-1.317.23-1.86l10.245-5.891c.957-.559 2.408-.609 3.233-.132l10.327 5.957c.825.477.726 1.317-.231 1.86l-10.244 5.891c-.957.559-2.392.609-3.234.132zm15.952 9.198l-10.326-5.957c-.825-.477-.726-1.316.231-1.859l10.244-5.891c.957-.56 2.408-.609 3.233-.132l10.327 5.957c.825.477.726 1.316-.231 1.859l-10.244 5.892c-.94.543-2.392.608-3.234.131zm15.969 9.182l-10.327-5.957c-.825-.477-.726-1.316.231-1.859l10.245-5.891c.956-.56 2.408-.609 3.233-.132l10.327 5.957c.825.477.726 1.317-.231 1.86l-10.245 5.891c-.956.543-2.408.609-3.233.131zm15.952 9.183l-10.326-5.957c-.825-.478-.726-1.317.231-1.86l10.244-5.891c.957-.559 2.408-.609 3.233-.132l10.327 5.957c.825.478.726 1.317-.231 1.86l-10.244 5.891c-.957.559-2.409.609-3.234.132zm15.953 9.198l-10.327-5.957c-.825-.477-.726-1.316.231-1.859l10.244-5.891c.957-.56 2.408-.609 3.233-.132l10.327 5.957c.825.477.726 1.316-.231 1.859l-10.244 5.892c-.957.543-2.409.608-3.233.131zm15.952 9.182l-10.327-5.956c-.825-.478-.726-1.317.231-1.86l10.244-5.891c.957-.56 2.409-.609 3.233-.132l10.327 5.957c.825.477.726 1.317-.231 1.86l-10.244 5.891c-.957.559-2.408.609-3.233.131zm15.952 9.183l-10.327-5.957c-.825-.478-.726-1.317.231-1.86l10.244-5.891c.957-.559 2.409-.609 3.234-.132l10.327 5.957c.824.478.725 1.317-.231 1.86l-10.245 5.891c-.957.559-2.408.625-3.233.132zm-120.079-87.034l-10.326-5.957c-.825-.477-.726-1.316.231-1.859l10.244-5.891c.957-.56 2.408-.609 3.233-.132l10.327 5.957c.825.477.726 1.317-.231 1.86l-10.244 5.891c-.957.543-2.409.609-3.234.131zm-16.199-9.33l-10.327-5.957c-.825-.477-.726-1.316.231-1.859l10.244-5.891c.957-.56 2.409-.609 3.234-.132l10.327 5.957c.824.477.725 1.316-.231 1.859l-10.245 5.891c-.94.56-2.392.609-3.233.132zm-16.216-9.33l-22.254-12.819c-.825-.477-.726-1.317.231-1.86l10.244-5.891c.957-.559 2.409-.609 3.233-.131l22.254 12.819c.825.477.726 1.316-.231 1.859l-10.244 5.891c-.957.543-2.392.609-3.233.132zm11.349-11.371l-18.063-10.4c-.825-.477-.726-1.316.231-1.859l10.244-5.892c.957-.559 2.408-.608 3.233-.131l18.064 10.4c.825.477.726 1.316-.231 1.859l-10.244 5.891c-.957.56-2.409.609-3.234.132zm37.019 39.213l-10.327-5.956c-.825-.478-.726-1.317.231-1.86l10.244-5.891c.957-.559 2.409-.609 3.233-.132l10.327 5.957c.825.477.726 1.317-.231 1.86l-10.244 5.891c-.957.559-2.409.609-3.233.131zm15.952 9.199l-10.327-5.957c-.825-.477-.726-1.316.231-1.859l10.244-5.891c.957-.56 2.409-.609 3.234-.132l10.326 5.957c.825.477.726 1.316-.23 1.859l-10.245 5.891c-.957.543-2.392.609-3.233.132zm15.952 9.182l-10.327-5.957c-.825-.477-.726-1.316.231-1.859l10.244-5.891c.957-.56 2.409-.609 3.234-.132l10.327 5.957c.824.477.725 1.316-.231 1.86l-10.245 5.891c-.957.543-2.392.608-3.233.131zm15.952 9.182l-10.327-5.956c-.824-.478-.725-1.317.231-1.86l10.245-5.891c.956-.559 2.408-.609 3.233-.132l10.327 5.957c.825.477.726 1.317-.231 1.86l-10.244 5.891c-.941.559-2.392.609-3.234.131zm15.969 9.199l-10.327-5.957c-.825-.477-.726-1.316.231-1.859l10.244-5.891c.957-.56 2.409-.609 3.234-.132l10.326 5.957c.825.477.726 1.316-.23 1.859l-10.245 5.891c-.957.544-2.408.609-3.233.132zm15.952 9.182l-10.327-5.957c-.825-.477-.726-1.316.231-1.859l10.244-5.891c.957-.56 2.409-.609 3.234-.132l10.327 5.957c.824.477.725 1.317-.231 1.86l-10.245 5.891c-.957.543-2.408.609-3.233.131zm15.952 9.182l-10.327-5.956c-.825-.478-.726-1.317.231-1.86l10.245-5.891c.956-.559 2.408-.609 3.233-.132l10.327 5.957c.825.477.726 1.317-.231 1.86l-10.245 5.891c-.956.559-2.408.609-3.233.131zm15.952 9.199l-10.327-5.957c-.824-.477-.725-1.316.231-1.859l10.245-5.891c.957-.56 2.408-.609 3.233-.132l10.327 5.957c.825.477.726 1.316-.231 1.859l-10.244 5.891c-.957.543-2.409.609-3.234.132zm15.953 9.182l-10.327-5.957c-.825-.477-.726-1.316.231-1.859l10.244-5.891c.957-.56 2.409-.609 3.233-.132l10.327 5.957c.825.477.726 1.317-.231 1.86l-10.244 5.891c-.957.559-2.409.609-3.233.131zm28.357 16.341l-22.534-12.984c-.825-.477-.726-1.316.231-1.859l10.244-5.891c.957-.56 2.409-.609 3.233-.132l22.535 12.983c.825.478.726 1.317-.231 1.86l-10.245 5.891c-.956.543-2.392.609-3.233.132zm31.063-17.888l-19.02-10.959c-.825-.477-.726-1.316.231-1.859l10.244-5.891c.957-.56 2.408-.609 3.233-.132l19.021 10.959c.825.478.726 1.317-.231 1.86l-10.245 5.891c-.956.543-2.392.609-3.233.131zm-159.109-73.753l-10.327-5.957c-.825-.477-.726-1.317.231-1.86l10.244-5.891c.957-.559 2.409-.609 3.234-.131l10.326 5.957c.825.477.726 1.316-.23 1.859l-10.245 5.891c-.957.543-2.408.609-3.233.132zm-16.348-9.413l-10.327-5.957c-.825-.477-.726-1.316.231-1.859l10.244-5.891c.957-.56 2.409-.609 3.233-.132l10.327 5.957c.825.477.726 1.317-.231 1.86l-10.244 5.891c-.957.543-2.409.608-3.233.131zm-16.365-9.429l-10.327-5.957c-.824-.477-.726-1.316.231-1.859l10.245-5.891c.956-.56 2.408-.609 3.233-.132l10.327 5.957c.825.477.726 1.316-.231 1.859l-10.244 5.892c-.941.559-2.393.608-3.234.131zm-16.348-9.412l-10.327-5.957c-.825-.477-.726-1.317.231-1.86l10.245-5.891c.956-.559 2.408-.609 3.233-.131l10.327 5.956c.825.478.726 1.317-.231 1.86l-10.245 5.891c-.956.559-2.392.609-3.233.132zm65.013 37.436l-10.327-5.957c-.825-.477-.726-1.316.231-1.859l10.244-5.891c.957-.56 2.409-.609 3.234-.132l10.327 5.957c.824.477.725 1.316-.231 1.859l-10.245 5.891c-.956.56-2.408.609-3.233.132zm15.952 9.199l-10.327-5.957c-.825-.477-.726-1.317.231-1.86l10.245-5.891c.956-.559 2.408-.609 3.233-.131l10.327 5.956c.825.478.726 1.317-.231 1.86l-10.245 5.891c-.956.543-2.408.609-3.233.132zm15.952 9.182l-10.327-5.957c-.824-.477-.725-1.317.231-1.86l10.245-5.891c.957-.559 2.408-.609 3.233-.131l10.327 5.957c.825.477.726 1.316-.231 1.859l-10.244 5.891c-.957.543-2.409.609-3.234.132zm15.953 9.182l-10.327-5.957c-.825-.477-.726-1.316.231-1.859l10.244-5.891c.957-.56 2.409-.609 3.233-.132l10.327 5.957c.825.477.726 1.316-.231 1.859l-10.244 5.891c-.957.56-2.409.609-3.233.132zm15.952 9.199l-10.327-5.957c-.825-.477-.726-1.317.231-1.86l10.244-5.891c.957-.559 2.409-.609 3.233-.131l10.327 5.956c.825.478.726 1.317-.231 1.86l-10.244 5.891c-.957.543-2.392.609-3.233.132zm15.952 9.182l-10.327-5.957c-.825-.477-.726-1.316.231-1.859l10.244-5.892c.957-.559 2.409-.608 3.234-.131l10.326 5.957c.825.477.726 1.316-.23 1.859l-10.245 5.891c-.94.56-2.392.609-3.233.132zm15.969 9.198l-10.327-5.956c-.825-.478-.726-1.317.231-1.86l10.244-5.891c.957-.559 2.408-.609 3.233-.132l10.327 5.957c.825.477.726 1.317-.231 1.86l-10.244 5.891c-.957.543-2.409.609-3.233.131zm15.952 9.183l-10.327-5.957c-.825-.477-.726-1.317.231-1.86l10.244-5.891c.957-.559 2.409-.609 3.233-.131l10.327 5.956c.825.478.726 1.317-.231 1.86l-10.244 5.891c-.957.543-2.409.609-3.233.132zm15.952 9.182l-10.327-5.957c-.825-.477-.726-1.316.231-1.859l10.244-5.892c.957-.559 2.409-.608 3.234-.131l10.326 5.957c.825.477.726 1.316-.231 1.859l-10.244 5.891c-.957.56-2.408.609-3.233.132zm-151.983-105.414l-10.327-5.957c-.825-.477-.726-1.317.231-1.86l10.245-5.891c.956-.559 2.408-.609 3.233-.131l10.327 5.957c.825.477.726 1.316-.231 1.859l-10.245 5.891c-.956.543-2.408.609-3.233.132zm-15.886-9.15l-10.327-5.956c-.825-.478-.726-1.317.231-1.86l10.244-5.891c.957-.56 2.409-.609 3.234-.132l10.326 5.957c.825.477.726 1.317-.23 1.86l-10.245 5.891c-.957.559-2.408.609-3.233.131zm-15.87-9.132l-10.327-5.957c-.825-.477-.726-1.317.231-1.86l10.245-5.891c.956-.559 2.408-.609 3.233-.132l10.327 5.957c.825.478.726 1.317-.231 1.86l-10.245 5.891c-.956.543-2.408.609-3.233.132zm-15.87-9.15l-10.326-5.957c-.825-.477-.726-1.316.231-1.859l10.244-5.891c.957-.56 2.408-.609 3.233-.132l10.327 5.957c.825.477.726 1.317-.231 1.86l-10.244 5.891c-.957.559-2.409.609-3.234.131zm16.316-9.396l-10.327-5.957c-.825-.477-.726-1.316.231-1.859l3.381-1.942c.957-.559 2.409-.609 3.234-.132l10.327 5.957c.824.478.725 1.317-.231 1.86l-3.382 1.942c-.957.543-2.409.608-3.233.131zm20.719 11.93l-10.327-5.956c-.824-.478-.725-1.317.231-1.86l3.382-1.942c.957-.559 2.409-.608 3.234-.131l10.326 5.957c.825.477.726 1.316-.231 1.859l-3.381 1.942c-.957.543-2.409.609-3.234.131zm15.804 9.1l-10.327-5.957c-.825-.477-.726-1.316.231-1.859l3.382-1.942c.957-.559 2.408-.609 3.233-.131l10.327 5.957c.825.477.726 1.316-.231 1.859l-3.382 1.942c-.957.559-2.392.609-3.233.131zm15.82 9.1l-10.327-5.957c-.824-.477-.726-1.316.231-1.859l3.382-1.942c.957-.559 2.409-.609 3.233-.131l10.327 5.956c.825.478.726 1.317-.231 1.86l-3.382 1.942c-.956.559-2.408.609-3.233.131zm15.804 9.117l-10.327-5.957c-.825-.477-.726-1.317.231-1.86l3.382-1.941c.956-.56 2.408-.609 3.233-.132l10.327 5.957c.825.477.726 1.316-.231 1.859l-3.382 1.942c-.957.543-2.408.609-3.233.132zm88.256 50.831l-10.326-5.957c-.825-.477-.726-1.317.231-1.86l3.381-1.941c.957-.56 2.409-.609 3.234-.132l10.327 5.957c.824.477.725 1.316-.231 1.859l-3.382 1.942c-.957.543-2.409.609-3.234.132zm15.804 9.1l-10.327-5.957c-.824-.477-.725-1.317.231-1.86l3.382-1.941c.957-.56 2.409-.609 3.233-.132l10.327 5.957c.825.477.726 1.316-.231 1.859l-3.382 1.942c-.956.543-2.408.609-3.233.132zm15.804 9.1l-10.327-5.957c-.825-.477-.726-1.317.231-1.86l3.382-1.941c.956-.56 2.408-.609 3.233-.132l10.327 5.957c.825.477.726 1.316-.231 1.859l-3.382 1.942c-.94.543-2.392.609-3.233.132zm15.82 9.099l-10.327-5.956c-.825-.478-.726-1.317.231-1.86l3.382-1.942c.957-.559 2.409-.608 3.233-.131l10.327 5.957c.825.477.726 1.316-.231 1.859l-3.382 1.942c-.956.559-2.408.609-3.233.131zm-156.569-71.367l-10.327-5.957c-.824-.477-.725-1.316.231-1.859l10.245-5.892c.957-.559 2.408-.608 3.233-.131l10.327 5.957c.825.477.726 1.316-.231 1.859l-10.244 5.891c-.957.56-2.409.609-3.234.132zm15.952 9.199l-10.326-5.957c-.825-.478-.726-1.317.23-1.86l10.245-5.891c.957-.559 2.408-.609 3.233-.132l10.327 5.957c.825.478.726 1.317-.231 1.86l-10.244 5.891c-.957.543-2.409.609-3.234.132zm15.953 9.182l-10.327-5.957c-.825-.477-.726-1.317.231-1.86l10.244-5.891c.957-.559 2.408-.609 3.233-.131l10.327 5.957c.825.477.726 1.316-.231 1.859l-10.244 5.891c-.957.543-2.409.609-3.233.132zm15.952 9.182l-10.327-5.957c-.825-.477-.726-1.316.231-1.859l10.244-5.892c.957-.559 2.409-.608 3.233-.131l10.327 5.957c.825.477.726 1.316-.231 1.859l-10.244 5.891c-.957.56-2.408.609-3.233.132zm15.952 9.199l-10.327-5.957c-.825-.478-.726-1.317.231-1.86l10.244-5.891c.957-.559 2.409-.609 3.234-.132l10.326 5.957c.825.478.726 1.317-.23 1.86l-10.245 5.891c-.957.543-2.408.609-3.233.132zm15.952 9.182l-10.327-5.957c-.825-.477-.726-1.317.231-1.86l10.245-5.891c.956-.559 2.408-.609 3.233-.131l10.327 5.956c.824.478.726 1.317-.231 1.86l-10.245 5.891c-.956.543-2.408.609-3.233.132zm15.952 9.182l-10.327-5.957c-.825-.477-.726-1.316.231-1.859l10.245-5.892c.956-.559 2.408-.608 3.233-.131l10.327 5.957c.825.477.726 1.316-.231 1.859l-10.245 5.891c-.956.56-2.392.609-3.233.132zm15.952 9.199l-10.326-5.957c-.825-.478-.726-1.317.23-1.86l10.245-5.891c.957-.559 2.408-.609 3.233-.132l10.327 5.957c.825.478.726 1.317-.231 1.86l-10.244 5.891c-.941.543-2.392.609-3.234.132zm15.969 9.182l-10.327-5.957c-.825-.477-.726-1.317.231-1.86l10.245-5.891c.956-.559 2.408-.609 3.233-.131l10.327 5.957c.825.477.726 1.316-.231 1.859l-10.245 5.891c-.956.56-2.408.609-3.233.132zm-218.86-72.372l-30.419-17.525c-.825-.477-.726-1.316.231-1.859l10.244-5.891c.957-.56 2.408-.609 3.233-.132l30.42 17.525c.825.477.726 1.317-.231 1.86l-10.244 5.891c-.941.559-2.392.609-3.234.131zm196.012 112.885l-30.419-17.525c-.825-.477-.726-1.316.231-1.859l10.244-5.891c.957-.56 2.409-.609 3.233-.132l30.42 17.525c.825.477.726 1.317-.231 1.86l-10.244 5.891c-.957.543-2.409.609-3.234.131zm-63.808-16.455l-10.327-5.957c-.825-.477-.726-1.317.231-1.86l12.191-7.026c.957-.56 2.408-.609 3.233-.132l10.327 5.957c.825.477.726 1.317-.231 1.86l-12.191 7.026c-.957.56-2.408.609-3.233.132zm-115.856-66.727l-16.529-9.512c-.825-.477-.726-1.316.231-1.859l12.191-7.027c.957-.559 2.408-.609 3.233-.131l16.53 9.511c.824.477.725 1.316-.231 1.859l-12.191 7.027c-.957.559-2.409.609-3.234.132zm100.481 57.874l-16.53-9.512c-.825-.477-.726-1.316.231-1.859l12.191-7.027c.957-.559 2.409-.609 3.234-.131l16.529 9.511c.825.477.726 1.316-.231 1.859l-12.191 7.027c-.957.559-2.392.609-3.233.132zm-77.468-44.611l-16.529-9.512c-.825-.477-.726-1.316.23-1.859l12.191-7.027c.957-.559 2.409-.608 3.234-.131l16.529 9.511c.825.477.726 1.316-.231 1.86l-12.191 7.026c-.956.543-2.408.609-3.233.132zM333.495 373.705l71.826 41.369c.891.511.891 1.35 0 1.86l-12.439 7.158c-.89.51-2.342.51-3.233 0l-71.826-41.369 15.672-9.018zm138.175 88.613l11.514 6.632c.677.395.594 1.069-.197 1.53l-4.982 2.88c-.792.444-1.98.494-2.656.115l-11.515-6.631c-.676-.395-.594-1.07.198-1.531l4.982-2.88c.792-.46 1.98-.51 2.656-.115zm-16.084-9.264l11.514 6.631c.677.395.594 1.07-.198 1.531l-4.982 2.879c-.791.445-1.979.494-2.656.116l-11.514-6.632c-.676-.395-.594-1.07.198-1.53l4.982-2.88c.792-.461 1.979-.51 2.656-.115zm-15.952-9.199l11.514 6.632c.676.395.594 1.069-.198 1.53l-4.982 2.88c-.792.444-1.979.493-2.656.115l-11.514-6.632c-.677-.395-.594-1.069.198-1.53l4.982-2.88c.791-.46 1.979-.51 2.656-.115zm24.761 4.114l11.514 6.632c.677.395.594 1.069-.197 1.53l-4.982 2.88c-.792.444-1.98.493-2.656.115l-11.515-6.632c-.676-.395-.594-1.069.198-1.53l4.982-2.88c.792-.461 1.98-.51 2.656-.115z" fill="#887B9B"/><path d="M432.326 170.578l-25.95-14.941 1.106-5.579 25.949 14.942-1.105 5.578zm-2.821 12.951l-25.949-14.942 1.105-5.578 25.949 14.941-1.105 5.579zm127.37 179.628l-25.949-14.941 1.105-5.562 25.949 14.941-1.105 5.562zm-132.996-153.727l-25.949-14.942 1.106-5.578 25.949 14.941-1.106 5.579zm110.577 72.848l-95.994-55.29 1.238-6.221 95.993 55.275-1.237 6.236zm-34.379 10.499l-67.009-38.588 1.237-6.22 67.009 38.588-1.237 6.22z" fill="#9E90B2"/><path d="M493.742 273.968l-57.969-33.388 1.238-6.22 57.969 33.388-1.238 6.22z" fill="#fff"/><path d="M481.436 220.554c-.924 2.007-3.25 2.731-5.213 1.596-1.947-1.119-2.788-3.67-1.864-5.677.924-2.008 3.25-2.732 5.213-1.597 1.946 1.136 2.788 3.67 1.864 5.678z" fill="#E60D2E"/><path d="M493.924 227.745c-.924 2.007-3.25 2.731-5.213 1.596-1.947-1.119-2.788-3.67-1.864-5.677.924-2.008 3.25-2.732 5.213-1.597 1.946 1.136 2.788 3.67 1.864 5.678z" fill="#fff"/><path d="M506.412 234.936c-.924 2.007-3.25 2.731-5.213 1.596-1.947-1.119-2.788-3.67-1.864-5.677.923-2.008 3.249-2.732 5.213-1.596 1.946 1.135 2.788 3.669 1.864 5.677z" fill="#9E90B2"/><path d="M518.883 242.127c-.924 2.007-3.25 2.731-5.213 1.596-1.946-1.119-2.788-3.67-1.864-5.677.924-2.008 3.25-2.732 5.213-1.596 1.963 1.135 2.788 3.669 1.864 5.677zm12.884 53.744l-28.985-16.686 1.238-6.237 28.984 16.702-1.237 6.221z" fill="#E60D2E"/><path d="M330.443 472.916l-69.533-40.037c-1.699-.971-1.485-2.682.478-3.817l36.656-21.113c1.963-1.135 4.932-1.25 6.631-.28l69.533 40.037c1.699.971 1.485 2.682-.478 3.817l-36.656 21.113c-1.963 1.135-4.932 1.25-6.631.28z" fill="#fff"/><path d="M693.933 241.1l-.949-3.699-10.755 2.749.95 3.698 10.754-2.748zm-5.477 5.347l-.95-3.698-10.754 2.748.95 3.698 10.754-2.748zM682.959 251.782l-.95-3.698-10.754 2.748.95 3.699 10.754-2.749zm-5.437 5.369l-.95-3.698-10.755 2.749.95 3.698 10.755-2.749z" fill="#A99FB7"/><path d="M430.165 499.392l-34.066-19.631-34.082 19.631 34.082 19.615 34.066-19.615zm-66.531-37.814l-34.066-19.615-34.081 19.615 34.081 19.631 34.066-19.631zm-72.107-41.205l-34.081-19.615-34.066 19.615 34.066 19.631 34.081-19.631z" fill="#381E54"/><path d="M326.269 468.16v-104.657l34.066-19.632v104.674l-34.066 19.615z" fill="#C13D1A"/><path d="M360.335 343.871l-34.066-19.615-34.082 19.615 34.082 19.632 34.066-19.632z" fill="#EF602E"/><path d="M326.269 363.503l-34.082-19.632v104.674l34.082 19.615v-104.657z" fill="#817199"/><path d="M326.269 468.16v-104.657l34.066-19.632v104.674l-34.066 19.615z" fill="#5A4B77"/><path d="M360.335 343.871l-34.066-19.615-34.082 19.615 34.082 19.632 34.066-19.632z" fill="#9E90B2"/><path d="M398.59 510.368v-58.861l34.065-19.632v58.878l-34.065 19.615z" fill="#5A4B77"/><path d="M398.59 451.507l-34.082-19.632v58.878l34.082 19.615v-58.861z" fill="#817199"/><path d="M432.656 431.875l-34.066-19.615-34.082 19.615 34.082 19.632 34.066-19.632z" fill="#9E90B2"/><path d="M254.146 426.955v-143.903l34.082-19.632v143.92l-34.082 19.615z" fill="#5A4B77"/><path d="M254.146 283.052l-34.065-19.632v143.92l34.065 19.615v-143.903z" fill="#817199"/><path d="M288.228 263.42l-34.082-19.615-34.065 19.615 34.065 19.632 34.082-19.632z" fill="#9E90B2"/><path d="M233.856 344.776s-5.626-2.83-9.074 1.383c-3.447 4.212-8.396 14.168-8.545 20.882-.148 6.713 5.329 6.269 8.595 4.673 3.266-1.596 12.785-15.369 13.362-18.068.578-2.699-.676-6.352-1.6-7.06-.924-.724-2.738-1.81-2.738-1.81z" fill="#381E54"/><path d="M235.093 343.427l.264 5.809c.049 1.234-.561 2.419-1.65 3.028-.99.559-2.408.987-4.339.674-4.239-.674-4.619-1.892-4.916-7.701-.296-5.809 10.641-1.81 10.641-1.81z" fill="#fff"/><path d="M213.268 333.603s-5.626-2.83-9.09 1.382c-3.448 4.213-8.397 14.169-8.545 20.883-.149 6.73 5.328 6.269 8.595 4.673 3.266-1.596 12.785-15.37 13.362-18.068.577-2.699-.676-6.352-1.6-7.06-.908-.724-2.722-1.81-2.722-1.81z" fill="#381E54"/><path d="M214.489 332.254l.264 5.809c.049 1.234-.561 2.419-1.65 3.027-.99.56-2.409.988-4.339.675-4.239-.675-4.619-1.892-4.916-7.701-.297-5.825 10.641-1.81 10.641-1.81z" fill="#fff"/><path d="M264.688 225.507c-1.667-27.02-29.348 3.982-29.348 3.982l-18.938 18.512-17.057 18.694a16.744 16.744 0 0-4.24 13.477l6.896 52.411c.346 2.583 2.557 4.492 5.18 4.476.742 0 1.583-.066 2.557-.231 6.153-.954 5.707-6.796 5.707-6.796l-1.253-49.021 35.814-21.54s16.348-6.944 14.682-33.964zM285.292 235.791c-1.666-27.02-29.348 3.983-29.348 3.983l-18.938 18.512-17.057 18.694a16.748 16.748 0 0-4.24 13.477l6.896 52.411a5.167 5.167 0 5.18 4.475c.742 0 1.583-.065 2.557-.23 6.153-.954 5.707-6.796 5.707-6.796l-1.253-49.021 35.814-21.54c0 .016 16.348-6.928 14.682-33.965z" fill="#E60D2E"/><path d="M268.911 149.038c20.983 8.672 20.554 21.047 20.554 21.047s-4.107 45.351-2.705 75.646c.594 12.67-67.454 13.625-57.309-20.158 11.96-39.839 7.473-72.092 13.082-76.946 5.609-4.855 20.95-1.827 26.378.411z" fill="#9E90B2"/><path d="M275.658 160.014c-1.105 4.245-6.681 6.483-12.472 5.002-5.79-1.481-9.584-6.138-8.495-10.383 1.105-4.246 6.681-6.484 12.471-5.003 5.79 1.481 9.601 6.138 8.496 10.384z" fill="#FFC2B0"/><path d="M266.733 166.464c-1.237 0-2.507-.148-3.794-.493-6.318-1.613-10.442-6.829-9.222-11.601 1.238-4.773 7.374-7.356 13.692-5.727 3.003.773 5.609 2.37 7.358 4.492 1.815 2.222 2.474 4.74 1.864 7.109-.973 3.818-5.081 6.22-9.898 6.22zm-3.151-16.291c-3.893 0-7.159 1.811-7.902 4.723-.956 3.703 2.524 7.817 7.77 9.166 5.23 1.349 10.294-.576 11.251-4.279.445-1.744-.066-3.636-1.468-5.348-1.468-1.793-3.712-3.159-6.302-3.817a12.66 12.66 0 0-3.349-.445z" fill="#fff"/><path d="M260.498 148.1s.181.839-.182 7.471c-.115 2.089 7.209 4.031 9.09 2.139 1.897-1.893 1.138-3.851 1.583-10.943.462-7.092-10.491 1.333-10.491 1.333z" fill="#FFC2B0"/><path d="M271.006 146.767s-1.798 6.582-10.69 9.1l.132-5.973 10.558-3.127z" fill="#EA9C92"/><path d="M276.631 130.048c2.227 8.623-2.953 17.41-11.597 19.632-8.644 2.221-17.453-2.946-19.68-11.569-2.227-8.622 2.953-17.41 11.597-19.631 8.644-2.222 17.453 2.962 19.68 11.568z" fill="#FFC2B0"/><path d="M264.704 134.672s-8.892 3.801-15.045 3.851c-6.153.049-4.8-5.102-4.8-5.102l18.278-2.632 1.567 3.883z" fill="#EA9C92"/><path d="M247.828 135.676s7.754-3.275 14.55-1.909c1.6.329 3.085 1.168 4.108 2.436.33.411.759.789 1.237.905 1.204.279 3.184-4.723 5.526-4.822 2.343-.115 3.91 1.547 1.98 4.608-1.914 3.06-1.27 6.5-.396 6.993.891.494 10.261-6.664 1.996-23.005-8.265-16.34-29.265-7.536-32.531-4.229 0 0-3.448 2.995-6.236.329-.016-.016-3.151 23.417 9.766 18.694z" fill="#9E90B2"/><path d="M277.703 203.226v12.259a4.98 4.98 0 1-1.633 3.686l-25.24 22.956 2.871 4.377 33.339-24.107a6.755 6.755 0 2.755-4.772l2.26-21.376-14.352 6.977z" fill="#FFC2B0"/><path d="M287.7 163.963s7.655 11.486 10.509 41.731c0 0-13.082 4.213-20.506 1.827-7.423-2.403 9.997-43.558 9.997-43.558z" fill="#817199"/><path d="M276.301 178.493s-3.002 16.012-3.167 23.532a4.803 4.803 0 3.167 4.64v-28.172z" fill="#5A4B77"/><path d="M269.752 258.072l-5.576-.74-36.012-20.734c-1.155-.658-3.167-.576-4.503.181l-25.521 14.695-3.365-.445v3.357c-.016.444.231.872.775 1.185l40.813 23.498c1.155.659 3.167.576 4.503-.181l27.797-15.994c.742-.428 1.122-.988 1.105-1.514v-3.308h-.016z" fill="#A99FB7"/><path d="M242.698 244.974l-2.557-1.481h-28.127l-13.874 7.98-3.365-.444v3.357c-.016.444.231.872.775 1.185l40.813 23.498c.61.346 1.468.494 2.326.428l4.009-34.523z" fill="#381E54"/><path d="M196.276 251.227l-1.501-.198v3.357c-.016.444.231.872.775 1.185l.726.411v-4.755z" fill="#5793CE"/><path d="M236.775 279.25c1.089.412 2.656.33 3.828-.23v-5.694h-3.828v5.924z" fill="#fff"/><path d="M236.363 275.713l-40.813-23.499c-1.154-.658-1.006-1.827.33-2.6l27.797-15.995c1.336-.773 3.349-.855 4.504-.181l40.812 23.499c1.155.658 1.006 1.826-.33 2.6l-27.797 15.995c-1.336.773-3.348.855-4.503.181z" fill="#F8F8F8"/><path d="M235.67 272.158l-33.933-19.549c-.957-.56-.842-1.514.264-2.156l14.896-8.359c1.105-.642 2.788-.708 3.745-.148l33.933 19.549c.957.559.842 1.514-.264 2.156l-14.896 8.359c-1.105.625-2.788.691-3.745.148z" fill="#887B9B"/><path d="M225.244 232.846l-.429 2.814a20.73 20.73 0 .182 7.207l.495 2.469a3.459 3.459 0 2.788 2.731 1.931 1.931l2.26-1.678.676-6.007s1.534 2.008 2.277 2.008c.742 0-.825-6.006-2.508-9.412-1.666-3.39-5.741-.132-5.741-.132zM239.068 188.202l-4.371 8.639a16.886 16.886 0 0-1.798 6.566l-1.897 29.571-5.758-.132-2.623-33.207a12.054 12.054 0 1.149-3.078l2.986-16.834 13.312 8.475z" fill="#FFC2B0"/><path d="M234.977 277.967l-3.415-4.46-35.979-20.783c-1.154-.658-2.095-2.452-2.078-3.982l.033-29.39-2.062-2.698 1.946-1.119c.38-.247.875-.231 1.419.082l40.78 23.548c1.154.658 2.095 2.452 2.078 3.982l-.033 32.006c0 .856-.297 1.464-.759 1.711l-1.93 1.103z" fill="#5A4B77"/><path d="M210.1 261.116l-2.557-1.481-14.038-24.321.016-15.962-2.062-2.698 1.947-1.119c.379-.247.874-.231 1.419.082l40.779 23.548c.611.345 1.155 1.02 1.534 1.793l-27.038 20.158z" fill="#9E90B2"/><path d="M192.367 217.855l-.924-1.201 1.946-1.119c.38-.247.875-.231 1.419.082l.726.411-3.167 1.827zm43.584 21.589c.907.741 1.6 2.14 1.699 3.423l-3.992 2.288-1.914-3.308 4.207-2.403z" fill="#5A4B77"/><path d="M233.641 240.3l-40.779-23.548c-1.155-.658-2.095.033-2.095 1.58l-.033 32.006c0 1.53.923 3.324 2.078 3.982l40.78 23.548c1.154.658 2.095-.033 2.095-1.58l.033-32.006c.016-1.53-.924-3.324-2.079-3.982z" fill="#817199"/><path d="M253.701 246.504l-.66 1.349a8.978 8.978 0 1-3.415 3.769l-4.058 2.484c-1.254.774-2.854.84-4.141.099l-.132-.082c-1.286-.806-1.402-2.649-.346-3.735l4.24-4.345s-2.376 1.81-3.052 1.086c-.495-.543 2.309-3.159 4.454-3.241 2.144-.083 4.223-1.761 4.223-1.761l2.887 4.377z" fill="#FFC2B0"/><path d="M242.962 148.577s-15.524 16.851-21.776 32.302c0 0 5.312 9.545 18.295 13.28 12.983 3.735 3.481-45.582 3.481-45.582z" fill="#817199"/><path d="M236.561 193.155l2.507-24.239-5.922 22.709a29.765 29.765 0 3.415 1.53z" fill="#5A4B77"/><path d="M254.592 145.187l-4.174-1.135s1.996 3.126 4.9 3.916c2.903.79 3.365-1.662 3.365-1.662l-4.091-1.119z" fill="#fff"/><path d="M233.954 69.212l2.227-3.752s1.848 1.02 3.844.395c1.584-.494 2.97-1.925 4.091-4.262 3.96-8.195 11.284-8.82 14.6-7.997l-1.039 4.229.527-2.123-.511 2.123c-.627-.148-6.302-1.218-9.634 5.66-1.683 3.489-3.976 5.694-6.797 6.55-3.81 1.135-6.961-.626-7.308-.823z" fill="#A99FB7"/><path d="M164.487 212.178c-11.036 0-20.026-8.952-20.026-19.977 0-11.009 8.974-19.977 20.026-19.977 11.053 0 20.027 8.951 20.027 19.977-.016 11.008-8.99 19.977-20.027 19.977zm0-35.594c-8.627 0-15.655 7.01-15.655 15.617 0 8.606 7.028 15.616 15.655 15.616 8.628 0 15.656-7.01 15.656-15.616 0-8.623-7.028-15.617-15.656-15.617z" fill="#E60D2E"/><path d="M245.204 577.336c-7.836 0-14.204-6.351-14.204-14.168 0-7.816 6.368-14.168 14.204-14.168 7.835 0 14.203 6.352 14.203 14.168 0 7.817-6.368 14.168-14.203 14.168zm0-23.959c-5.428 0-9.832 4.394-9.832 9.808s4.404 9.807 9.832 9.807c5.427 0 9.831-4.393 9.831-9.807 0-5.414-4.404-9.808-9.831-9.808zm-110.047-224.349l-9.634-19.549 19.597-9.61 9.634 19.549-19.597 9.61zm-3.778-17.574l5.79 11.733 11.762-5.776-5.79-11.733-11.762 5.776zm486.716-196.669l-9.015 4.421 4.432 8.994 9.016-4.422-4.433-8.993z" fill="#A99FB7"/><path d="M443.015.002l-14.674 14.638 3.091 3.083 14.674-14.638-3.091-3.083zM431.434-.007l-3.091 3.083 14.674 14.638 3.091-3.084-14.674-14.637zm161.997 16.183c0 5.677-4.619 10.285-10.31 10.285-5.692 0-10.311-4.608-10.311-10.285 0-5.677 4.619-10.285 10.311-10.285 5.691 0 10.31 4.608 10.31 10.285zm-277.39 575.877c0 3.308-2.689 5.974-5.988 5.974-3.299 0-5.988-2.682-5.988-5.974 0-3.291 2.689-5.973 5.988-5.973 3.299 0 5.988 2.682 5.988 5.973z" fill="#E60D2E"/><path d="M534.357 606.403l25.751-14.827 25.751 14.827-25.751 14.826-25.751-14.826zm54.653-31.891l25.751-14.827 25.751 14.827-25.751 14.826-25.751-14.826zm54.488-31.134l25.751-14.826 25.751 14.826-25.751 14.827-25.751-14.827z" fill="#381E54"/><path d="M614.761 574.512v-79.085l-25.751-14.827v79.085l25.751 14.827z" fill="#C13D1A"/><path d="M614.761 495.427l25.751-14.827v79.085l-25.751 14.827v-79.085z" fill="#BA0D37"/><path d="M614.761 574.512v-79.085l-25.751-14.827v79.085l25.751 14.827zm-54.653 31.891v-44.48l-25.751-14.826v44.479l25.751 14.827z" fill="#C40C30"/><path d="M560.108 561.923l25.751-14.826v44.479l-25.751 14.827v-44.48z" fill="#BA0D37"/><path d="M534.357 547.097l25.751-14.826 25.751 14.826-25.751 14.826-25.751-14.826z" fill="#E60D2E"/><path d="M669.249 543.378v-108.738l-25.751-14.827v108.739l25.751 14.826z" fill="#C40C30"/><path d="M669.249 434.64l25.751-14.827v108.739l-25.751 14.826v-108.738z" fill="#BA0D37"/><path d="M643.498 419.813l25.751-14.826 25.751 14.826-25.751 14.827-25.751-14.827zm-54.488 60.787l25.751-14.826 25.751 14.826-25.751 14.827-25.751-14.827z" fill="#E60D2E"/></g><defs><clipPath id="a"><path fill="#fff" d="M0 0h695v630h-695z"/></clipPath></defs></svg>