<svg width="80" height="80" viewBox="0 0 80 80" xmlns="http://www.w3.org/2000/svg" fill="none"><path d="M60.428 36.845l-4.944-3.297-4.945 3.297 2.364 3.155-1.29 9.032 3.87 3.871 3.872-3.87-1.29-9.033 2.363-3.155zm-55.267-31.684h25.807v16.774h-25.808v-16.774zm23.603 61.558l4.784-4.784 7.741 7.742-4.783 4.784-7.742-7.742zm-23.225-23.226l4.783-4.783 7.742 7.74-4.784 4.785-7.741-7.742z" fill="#EB0029"/><path d="M3.871 28.387h9.592l3.784 6.306 4.099-6.306h10.912a3.876 3.876 0 3.871-3.87v-20.647a3.876 3.876 0 32.259 0 NaN NaNhNaNa3.876 3.876 0 0 3.871 NaN NaNv20.645a3.876 3.876 0 3.871 3.871zm-1.29-24.516c0-.71.578-1.29 1.29-1.29h28.387c.712 0 1.29.58 1.29 1.29v20.645c0 .71-.578 1.29-1.29 1.29h-10.912c-.878 0-1.687.439-2.165 1.175l-1.848 2.842-1.657-2.762a2.593 2.593 0 0-2.213-1.255h-9.592c-.712 0-1.29-.58-1.29-1.29v-20.645zM5.161 5.161h2.58v2.58h-2.58v-2.58zm5.162 0h20.645v2.58h-20.645v-2.58zm-5.162 5.162h25.807v2.58h-25.808v-2.58zm0 5.161h25.807v2.58h-25.808v-2.58zm0 5.161h25.807v2.58h-25.808v-2.58zM65.56 19.865a6.478 6.478 0 .246-1.728v-6.219a5.926 5.926 0 0-2.979-5.16 9.674l-7.97-4.177c-5.346 0-9.696 4.35-9.696 9.695v5.861c0 .583.09 1.165.247 1.728l-14.44 14.44v28.387l-2.58 2.58c-.686.687-1.9.686-2.582 0l-8.897-25.912a1.807 1.807 0 1-.534-1.29c0-.488.188-.946.534-1.291l5.161-5.161-9.566-9.567-8.12 8.12a7.467 7.467 0 0 50.323 NaN NaNc0 2.009.782 3.898 2.203 5.317lNaN NaNa7.572 7.572 0 29.677 80 NaN NaNc1.98 0 3.918-.803 5.318-2.203l8.12-8.12hNaNvNaNl-14.44-14.44zm-1.8 31.748l13.66-13.66v27.32l-13.66-13.66zm-23.76-10.857v-4.356a3.85 3.85 0 13.031-3.78l3.547-.788 1.543 9.26 7.363-5.89 7.362 5.89 1.544-9.26 3.547.788a3.848 3.848 0 13.03 3.779v4.357l-35.482 15.483-15.485-15.483zm28.497-10.655l-6.562-1.458v-2.08a6.455 6.455 0 1.29-1.741l1.215-2.427 12.445 12.444-3.337 3.336v-1.775a6.41 6.41 0 0-5.051-6.298zm-16.884-1.069v-.935c.605.186 1.241.29 1.9.29h3.944a6.5 6.5 0 1.9-.289v.934l-3.872 2.904-3.872-2.904zm-1.59 2.034l3.354 2.516-3.434 2.747-.842-5.057.922-.206zm10.921 0l.925.205-.843 5.056-3.434-2.746 3.352-2.515zm2.282-12.929c0 .597-.14 1.196-.408 1.731l-1.9 3.799a3.848 3.848 0 1-3.463 2.14h-3.944a3.848 3.848 0 1-3.462-2.14l-1.9-3.799a3.914 3.914 0 1-.407-1.731v-2.74c1.889-.2 3.671-.888 5.161-2.06a10.025 10.025 0 6.23 2.147h4.093v2.653zm-15.484 6.683a6.454 6.454 0 1.29 1.742v2.079l-6.561 1.459a6.413 6.413 0 0-5.052 6.297v1.777l-3.336-3.335 12.445-12.445 1.214 2.427zm7.115-19.659a7.101 7.101 0 15.92 3.168l.276.414.306.154a3.36 3.36 0 11.867 3.02v.986h-4.093a7.467 7.467 0 1-5.318-2.202l-.912-.914-.912.914a7.458 7.458 0 1-4.25 2.118v-.543c0-3.922 3.193-7.115 7.116-7.115zm-21.309 32.793l13.66 13.659-11.079 11.079-2.58-2.581v-22.157zm-.378 38.019a4.978 4.978 0 1-3.493 1.446c-1.3 0-2.573-.528-3.492-1.446l-22.159-22.157a4.908 4.908 0 1-1.446-3.493c0-1.319.513-2.56 1.446-3.493l6.296-6.296 5.917 5.918-3.337 3.335a4.376 4.376 0 0-1.29 3.116c0 1.178.458 2.284 1.29 3.115l11.079 11.079c1.66 1.663 4.563 1.667 6.23 0l3.336-3.337 5.918 5.917-6.296 6.296zm7.364-8.876l-2.58-2.58 11.078-11.08 6.452 6.452 6.451-6.452 13.66 13.66h-35.06z" fill="#291956"/></svg>