<svg width="0" height="0" class="hidden">
  <symbol viewBox="0 0 16 16" fill="inherit" xmlns="http://www.w3.org/2000/svg" id="icon-telegram">
    <g clip-path="url(#clip0)">
      <path d="M6.278 10.12l-.265 3.723c.38 0 .543-.162.74-.358l1.775-1.696 3.679 2.694c.675.376 1.15.178 1.332-.621l2.415-11.315c.214-.998-.36-1.388-1.018-1.143L.743 6.838c-.969.376-.954.916-.165 1.16l3.629 1.13 8.428-5.275c.397-.262.758-.117.461.146L6.278 10.12z"
        fill="inherit"></path>
    </g>
    <defs>
      <clipPath id="clip0">
        <path fill="#fff" d="M0 0h16v16H0z"></path>
      </clipPath>
    </defs>
  </symbol>
  <symbol viewBox="0 0 13 14" fill="inherit" xmlns="http://www.w3.org/2000/svg" id="icon-habr">
    <path d="M9.126 0v5.591H3.862V0H0v14h3.862V8.74h5.264V14H13V0H9.126z" fill="inherit"></path>
  </symbol>
  <symbol viewBox="0 0 14 14" fill="inherit" xmlns="http://www.w3.org/2000/svg" id="icon-mail">
    <path d="M8.351 5.213a3.751 3.751 0 0 0-.441-.026c-.3 0-.589.068-.865.205-.276.136-.52.321-.73.554-.204.234-.37.507-.495.82a2.67 2.67 0 0 0-.18.98c0 .336.066.586.198.751.138.165.33.248.576.248.133 0 .262-.02.388-.06.132-.04.255-.105.37-.196a1.46 1.46 0 0 0 .305-.376 2.04 2.04 0 0 0 .235-.571l.64-2.33zM9.856 7.26a3.66 3.66 0 0 0-.126.76c0 .199.027.358.08.477.06.114.145.196.253.248.114.045.25.068.405.068a.975.975 0 0 0 .604-.213c.192-.148.357-.35.496-.606.138-.256.246-.557.324-.904.084-.347.126-.726.126-1.135 0-.705-.111-1.325-.333-1.86a3.594 3.594 0 0 0-.955-1.356 4.082 4.082 0 0 0-1.487-.828 6.207 6.207 0 0 0-1.928-.282 5.45 5.45 0 0 0-2.135.41 5.12 5.12 0 0 0-2.775 2.79 5.31 5.31 0 0 0-.387 2.03c0 .91.144 1.71.432 2.398a4.853 4.853 0 0 0 1.208 1.723c.516.46 1.126.805 1.828 1.032.71.233 1.475.35 2.298.35.474 0 .91-.026 1.306-.077a8.694 8.694 0 0 0 1.09-.188c.325-.073.613-.159.865-.255.252-.097.469-.194.649-.29.192-.097.357-.126.495-.086.144.04.25.14.316.299l.378.921c-.3.188-.634.361-1 .52a9.32 9.32 0 0 1-2.54.691c-.487.069-1.007.103-1.56.103-1.128 0-2.167-.168-3.116-.503a7.242 7.242 0 0 1-2.469-1.425A6.547 6.547 0 0 1 .577 9.82C.192 8.938 0 7.95 0 6.86c0-.598.084-1.184.252-1.758A6.61 6.61 0 0 1 .973 3.48 7.284 7.284 0 0 1 3.568.98 7.292 7.292 0 0 1 5.324.256 7.592 7.592 0 0 1 7.315 0c.583 0 1.15.063 1.703.188a7.21 7.21 0 0 1 1.577.546 6.5 6.5 0 0 1 1.369.878c.42.347.78.743 1.081 1.186A5.571 5.571 0 0 1 14 5.955c0 .608-.1 1.183-.297 1.723a4.334 4.334 0 0 1-.82 1.408 3.864 3.864 0 0 1-1.252.947 3.562 3.562 0 0 1-2.136.299 2.27 2.27 0 0 1-.513-.18 1.925 1.925 0 0 1-.432-.324 1.607 1.607 0 0 1-.307-.495c-.36.376-.735.643-1.126.802-.39.16-.81.24-1.261.24a2.61 2.61 0 0 1-1.027-.188 2.09 2.09 0 0 1-.739-.538 2.307 2.307 0 0 1-.45-.81 3.472 3.472 0 0 1-.145-1.024c0-.324.043-.654.127-.99.09-.335.222-.657.396-.964a4.2 4.2 0 0 1 .658-.879 4 4 0 0 1 .946-.716 5.06 5.06 0 0 1 1.225-.487A6.138 6.138 0 0 1 8.378 3.6c.265 0 .505.012.721.034.216.017.418.043.604.077s.36.08.522.137c.168.05.34.11.514.179L9.856 7.26z"
      fill="inherit"></path>
  </symbol>
  <symbol viewBox="0 0 79 79" fill="inherit" xmlns="http://www.w3.org/2000/svg" id="logo-less">
    <path fill-rule="evenodd" clip-rule="evenodd" d="M12.703 12.218c.004.296.11.546.317.75a.997.997 0 0 0 .748.302.994.994 0 0 0 .735-.323c.201-.212.3-.467.293-.763a1.041 1.041 0 0 0-.319-.754.995.995 0 0 0-.746-.298.995.995 0 0 0-.735.327c-.2.211-.298.464-.293.76zm10.956-4.081c.247.089.521.056.824-.1a1.59 1.59 0 0 0 .458-.355c.133-.146.23-.304.291-.474l-.357-.227c-.05-.03-.092-.035-.127-.017a.142.142 0 0 0-.055.063 1.526 1.526 0 0 1-.066.115.896.896 0 0 1-.102.131.61.61 0 0 1-.169.124.45.45 0 0 1-.36.036c-.118-.04-.217-.141-.298-.306l-1.155-2.344 1.105-.568-.244-.497-1.107.568-.663-1.344-.34.174a.165.165 0 0 0-.085.089.191.191 0 0 0-.004.122l.44 1.286-.587.403.135.273c.025.052.057.082.097.091.04.01.08.006.12-.015l.46-.236 1.178 2.39c.16.323.364.53.611.618zM26.044.339l1.953 6.035.718-.243-.989-3.056c.095-.228.218-.426.368-.592.15-.165.33-.284.545-.356.286-.097.528-.083.724.043.197.126.346.347.447.661l.856 2.642.718-.242-.855-2.642a2.282 2.282 0 0 0-.297-.614 1.473 1.473 0 0 0-.42-.41 1.176 1.176 0 0 0-.528-.177 1.518 1.518 0 0 0-.625.087 1.63 1.63 0 0 0-.675.415 2.36 2.36 0 0 0-.431.649L26.762.097l-.718.242zM36.599.06a1.897 1.897 0 0 0-.722-.043 2.034 2.034 0 0 0-.812.266c-.233.14-.423.317-.572.53a2.032 2.032 0 0 0-.31.732c-.06.275-.074.563-.038.866.044.374.133.699.268.975.134.276.304.5.507.674.204.173.435.295.695.367.259.07.535.089.829.053a2.725 2.725 0 0 0 .902-.276c.14-.072.27-.159.388-.259.12-.1.218-.212.297-.337l-.243-.253a.162.162 0 0 0-.15-.055.321.321 0 0 0-.162.086 2.352 2.352 0 0 1-.562.36 1.6 1.6 0 0 1-.478.126 1.43 1.43 0 0 1-.557-.034 1.118 1.118 0 0 1-.456-.252 1.475 1.475 0 0 1-.336-.473 2.46 2.46 0 0 1-.193-.703l2.84-.348c.07-.008.115-.034.136-.077.02-.044.024-.125.01-.245a2.38 2.38 0 0 0-.232-.809 1.735 1.735 0 0 0-.442-.563A1.603 1.603 0 0 0 36.6.06zm-1.453.939c.181-.238.453-.379.814-.422.17-.021.326-.012.468.03a.97.97 0 0 1 .371.207 1.1 1.1 0 0 1 .26.355c.065.141.108.3.13.478l-2.325.285c.005-.383.1-.695.282-.933zm12.387-.38l-1.199 4.197.727.216.893-3.127c.175-.13.353-.223.532-.276a.923.923 0 0 1 .537.001c.254.076.424.216.509.421.085.206.08.476-.016.814l-.764 2.671.726.216.764-2.671a1.28 1.28 0 0 1 .196-.417.842.842 0 0 1 .618-.36.929.929 0 0 1 .357.038c.264.078.444.223.536.435.092.212.09.482-.003.811l-.763 2.672.726.216.763-2.672c.073-.254.106-.49.1-.706a1.448 1.448 0 0 0-.127-.578 1.207 1.207 0 0 0-.34-.437 1.72 1.72 0 0 0-.962-.347 1.34 1.34 0 0 0-.808.227c-.126.082-.241.19-.344.325 0-.29-.062-.54-.188-.748-.127-.208-.33-.354-.605-.437a1.236 1.236 0 0 0-.71-.013c-.224.065-.438.17-.644.316l.07-.447c.005-.109-.044-.18-.147-.21l-.434-.13zM59.32 5.59a2.204 2.204 0 0 0-.65-.573 2.192 2.192 0 0 0-.814-.3 1.778 1.778 0 0 0-.781.059c-.25.077-.484.211-.703.402a2.832 2.832 0 0 0-.582.73 2.85 2.85 0 0 0-.337.878 2.03 2.03 0 0 0 .001.82c.057.261.17.501.335.722.166.22.384.412.656.575.27.16.54.26.808.299.269.038.527.02.777-.059.25-.077.485-.21.703-.4.218-.19.412-.434.582-.732.17-.295.282-.587.338-.876a2.03 2.03 0 0 0-.002-.822 1.866 1.866 0 0 0-.331-.723zm-1.546 2.907c-.323.143-.667.105-1.032-.113-.37-.22-.573-.51-.612-.867-.038-.358.07-.76.326-1.207a2.81 2.81 0 0 1 .412-.562c.147-.15.3-.259.461-.326.161-.067.329-.092.504-.075a1.3 1.3 0 0 1 .537.191c.366.218.566.506.602.864.037.358-.074.762-.331 1.212-.255.447-.544.741-.867.883zm5.246 5.119c-.048.099-.031.184.05.256l.336.302L67.514 9.4l-.564-.507-1.568 1.821a1.66 1.66 0 0 0-.129-.624 1.595 1.595 0 0 0-.419-.556 1.649 1.649 0 0 0-1.443-.421c-.25.046-.497.145-.74.297a2.98 2.98 0 0 0-.677.59 3.593 3.593 0 0 0-.536.8c-.124.261-.193.51-.208.744a1.44 1.44 0 0 0 .11.664c.088.207.223.394.407.56.23.204.477.335.742.39.265.056.539.061.823.014l-.292.444zm-.087-.842a1.216 1.216 0 0 1-.6-.308 1.17 1.17 0 0 1-.287-.379.862.862 0 0 1-.071-.446c.014-.161.07-.334.165-.519a3.17 3.17 0 0 1 .418-.597c.348-.404.696-.643 1.045-.717.349-.074.672.024.97.29.153.137.265.29.338.459.072.168.1.371.083.608L63.63 12.75a1.807 1.807 0 0 1-.697.024zm7.557 3.313a1.994 1.994 0 0 0-.336-.655 2.078 2.078 0 0 0-.64-.575 1.8 1.8 0 0 0-.74-.228 1.945 1.945 0 0 0-.775.104 2.48 2.48 0 0 0-.746.412c-.292.23-.52.475-.682.735-.163.26-.263.524-.305.791-.042.267-.026.533.048.797.074.263.2.514.382.753a2.787 2.787 0 0 0 .695.65c.133.085.272.154.417.206.145.053.29.082.436.086l.088-.342a.172.172 0 0 0-.031-.161.33.33 0 0 0-.156-.097 2.253 2.253 0 0 1-.591-.307 1.612 1.612 0 0 1-.352-.353 1.486 1.486 0 0 1-.257-.506 1.165 1.165 0 0 1-.022-.529 1.48 1.48 0 0 1 .225-.537 2.4 2.4 0 0 1 .49-.53l1.752 2.309c.043.057.088.083.135.079.047-.005.117-.044.21-.118.24-.19.428-.397.562-.618.132-.221.215-.447.245-.676.03-.23.013-.46-.052-.69zm-1.537-.792c.293.037.551.203.773.496.106.14.177.28.215.426a1 1 0 0 1 .017.431 1.1 1.1 0 0 1-.165.41c-.085.13-.197.25-.335.36l-1.434-1.89c.325-.192.636-.27.93-.233zm4.21 5.077l-3.824 1.965.34.69 2.416-1.241a2.44 2.44 0 0 1 .427-.017c.13.008.25.032.356.072.107.04.202.099.287.178a1.242 1.242 0 0 1 .31.55c.02.077.038.134.055.17.03.062.081.084.152.067l.527-.208a.744.744 0 0 0-.017-.244c-.02-.085-.05-.17-.09-.251a1.107 1.107 0 0 0-.546-.548 1.897 1.897 0 0 0-.84-.142l.56-.34c.064-.046.102-.09.115-.132.014-.042.003-.1-.033-.175l-.194-.394zm2.487 5.67l-4.127 1.164.202.745 3.038-.857c.22.108.407.243.561.404.155.16.262.351.322.573.08.296.054.543-.078.737-.133.194-.356.335-.669.423l-2.627.741.201.745 2.627-.742c.234-.066.439-.156.615-.272.176-.115.318-.25.424-.407a1.25 1.25 0 0 0 .198-.53 1.606 1.606 0 0 0-.054-.642 1.682 1.682 0 0 0-.396-.734 2.392 2.392 0 0 0-.647-.48l.432-.184c.094-.054.126-.133.098-.239l-.12-.445zm-2.1 13.735c-.194.18-.297.44-.308.785-.006.199.023.393.086.582.063.189.152.352.27.488l.365-.212c.05-.03.074-.065.076-.106a.148.148 0 0 0-.029-.08 1.53 1.53 0 0 1-.067-.113.815.815 0 0 1-.064-.155.617.617 0 0 1-.026-.21.471.471 0 0 1 .142-.341c.09-.087.225-.126.406-.12l2.568.084-.04 1.264.544.018.04-1.264 1.474.05.013-.39a.172.172 0 0 0-.036-.119.192.192 0 0 0-.102-.062l-1.316-.22-.067-.72-.3-.009c-.055-.002-.097.012-.125.044a.172.172 0 0 0-.045.114l-.016.526-2.62-.086c-.354-.011-.628.073-.823.252zm2.922 8.184a1.99 1.99 0 0 0 .289-.678 2.15 2.15 0 0 0 .036-.87 1.877 1.877 0 0 0-.854-1.282 2.475 2.475 0 0 0-.782-.335 2.862 2.862 0 0 0-.99-.081 1.99 1.99 0 0 0-.794.253c-.23.135-.422.314-.578.539a2.236 2.236 0 0 0-.335.775 2.902 2.902 0 0 0-.06.96c.019.16.054.313.105.461.05.149.119.282.207.401l.316-.145a.167.167 0 0 0 .103-.125.334.334 0 0 0-.023-.185 2.471 2.471 0 0 1-.137-.663 1.68 1.68 0 0 1 .05-.5 1.49 1.49 0 0 1 .224-.523c.103-.147.232-.263.39-.349.158-.085.34-.139.55-.159.211-.02.449 0 .713.058l-.663 2.842c-.016.07-.008.122.024.157.033.035.107.065.221.093.297.073.572.092.824.059a1.624 1.624 0 0 0 1.164-.703zm-.36-1.719c.156.257.191.566.107.927-.04.17-.103.316-.19.437a.966.966 0 0 1-.318.284c-.126.07-.264.11-.417.126-.152.014-.314 0-.483-.041l.541-2.325c.35.138.605.335.76.592zm-3.017 8.968a.33.33 0 0 0 .037.093l.162.3c.236-.089.446-.218.63-.39.184-.17.34-.397.465-.677.136-.3.206-.589.21-.867a1.843 1.843 0 0 0-.153-.78 2.046 2.046 0 0 0-.473-.66 2.808 2.808 0 0 0-.746-.5 2.748 2.748 0 0 0-.908-.265 1.975 1.975 0 0 0-.794.072c-.24.077-.455.201-.64.372-.186.17-.334.38-.446.628-.065.144-.117.29-.156.44a2.138 2.138 0 0 0-.044.89c.024.146.07.286.136.422l.338-.08c.057-.01.1-.044.125-.102a.248.248 0 0 0 .006-.17 2.765 2.765 0 0 1-.052-.242 1.415 1.415 0 0 1-.01-.336 1.38 1.38 0 0 1 .13-.448c.08-.177.185-.32.315-.432.13-.112.279-.189.448-.231.17-.042.36-.048.567-.017.207.03.428.101.663.212.226.106.417.228.577.364.158.136.278.285.361.446.083.16.125.33.126.512 0 .18-.044.369-.132.565a1.356 1.356 0 0 1-.215.349 1.533 1.533 0 0 1-.222.204c-.07.051-.13.093-.183.124a.255.255 0 0 0-.106.107.158.158 0 0 0-.016.097zm.398 5.234l-5.047-3.72-.444.626 2.557 1.884c.054.243.068.477.042.7a1.308 1.308 0 0 1-.237.615c-.177.25-.38.383-.612.398-.231.016-.479-.074-.741-.267l-2.21-1.63-.443.627 2.21 1.629c.196.145.394.251.592.32.199.068.39.096.576.081.185-.014.362-.072.53-.173.167-.102.32-.25.456-.444.17-.24.273-.487.309-.742a2.413 2.413 0 0 0-.023-.783l2.041 1.505.444-.626zm-6.324 5.023l-2.931-3.184-.551.529 2.159 2.345a2.07 2.07 0 0 1-.09.695 1.29 1.29 0 0 1-.346.558c-.22.21-.445.302-.675.272-.23-.03-.457-.165-.678-.407l-1.867-2.028-.55.53 1.865 2.028c.167.18.34.323.523.428.182.105.365.17.55.192.185.023.369 0 .552-.067.184-.068.36-.184.53-.348.22-.21.37-.444.453-.7.081-.256.119-.526.114-.808l.361.304c.09.06.174.052.252-.023l.33-.316zm-8.146 6.459c.267-.047.533-.156.797-.326.267-.172.48-.371.637-.599a1.86 1.86 0 0 0 .308-.734c.048-.263.04-.535-.026-.822a2.862 2.862 0 0 0-.366-.865 2.814 2.814 0 0 0-.607-.71 1.94 1.94 0 0 0-.715-.377 1.753 1.753 0 0 0-.78-.029 2.203 2.203 0 0 0-.803.33 2.22 2.22 0 0 0-.632.595 1.84 1.84 0 0 0-.307.73c-.049.263-.04.536.024.821.064.285.188.573.368.865.179.29.38.527.605.71.225.184.464.309.717.377.252.07.512.08.78.034zm-1.815-2.742c.025-.358.216-.652.574-.883.361-.233.707-.284 1.035-.154.33.13.629.413.9.85.135.22.234.431.297.634.064.202.087.391.071.568-.015.177-.07.34-.166.49-.096.15-.234.283-.414.4-.358.23-.7.279-1.029.147-.328-.132-.628-.419-.9-.858-.271-.438-.393-.836-.368-1.194zm-4.978 1.42l2.525 5.81.687-.31-2.524-5.81-.688.31zm-4.859 5.932c.267.049.553.038.859-.032.308-.07.573-.185.796-.345a1.85 1.85 0 0 0 .533-.586c.131-.23.213-.491.246-.783a2.893 2.893 0 0 0-.06-.94 2.834 2.834 0 0 0-.338-.877 1.969 1.969 0 0 0-.549-.6 1.765 1.765 0 0 0-.725-.296 2.188 2.188 0 0 0-.864.035c-.306.07-.569.184-.791.342-.222.159-.4.352-.53.582a2.004 2.004 0 0 0-.249.782c-.033.29-.012.605.062.941.073.334.185.627.336.877.151.25.335.45.55.601.215.151.456.251.724.3zm-.805-3.204c.142-.329.418-.54.831-.634.418-.095.76-.025 1.026.21.267.236.456.605.567 1.11.055.254.079.487.071.7a1.445 1.445 0 0 1-.12.558 1.052 1.052 0 0 1-.318.405 1.31 1.31 0 0 1-.522.234c-.412.094-.751.022-1.017-.215-.265-.237-.454-.61-.565-1.118-.11-.505-.095-.921.047-1.25zm-6.302 4.097c.16.038.334.055.52.052.237-.004.453-.041.65-.112a1.55 1.55 0 0 0 .51-.29c.141-.126.25-.276.327-.451.077-.176.115-.37.11-.584a1.361 1.361 0 0 0-.189-.696 1.326 1.326 0 0 0-.503-.473 1.142 1.142 0 0 0 .4-.357.758.758 0 0 0 .101-.202.634.634 0 0 0 .03-.198.636.636 0 0 0-.116-.387.76.76 0 0 0-.305-.226c.227-.093.406-.216.535-.368a.8.8 0 0 0 .189-.552.893.893 0 0 0-.125-.435 1.1 1.1 0 0 0-.354-.363 1.901 1.901 0 0 0-.588-.243 3.147 3.147 0 0 0-.822-.08 2.68 2.68 0 0 0-.841.14c-.248.086-.456.2-.625.339-.17.14-.3.298-.387.475-.09.177-.13.359-.127.546a.875.875 0 0 0 .132.489.875.875 0 0 0 .334.291c.136.07.29.12.465.147.174.029.351.048.533.058.182.01.36.015.533.017.174.003.328.015.464.035.136.02.245.057.33.11a.26.26 0 0 1 .129.23.338.338 0 0 1-.068.196.703.703 0 0 1-.2.19 2.158 2.158 0 0 0-.572-.063 2.013 2.013 0 0 0-.64.111c-.197.07-.364.168-.502.294a1.335 1.335 0 0 0-.434 1.036c.004.23.055.437.155.622l-.485.079c-.118.028-.176.09-.174.184l.005.285 1.162-.022c.134.078.281.137.443.176zm-.826-4.346a.375.375 0 0 1-.093-.257.579.579 0 0 1 .082-.316.77.77 0 0 1 .25-.251c.111-.071.247-.127.406-.168.16-.04.342-.062.545-.066a2.39 2.39 0 0 1 .543.045 1.3 1.3 0 0 1 .385.14c.103.059.179.13.23.215a.583.583 0 0 1-.064.676c-.098.114-.225.21-.38.287a5.368 5.368 0 0 0-.44-.035 118.17 118.17 0 0 1-.452-.017 7.123 7.123 0 0 1-.42-.028 1.545 1.545 0 0 1-.351-.074.59.59 0 0 1-.241-.15zm.905 2.162a1.15 1.15 0 0 1 .4-.073c.152-.002.286.016.403.058a.763.763 0 0 1 .479.451c.042.107.065.225.068.354.004.268-.072.482-.228.643-.157.162-.386.245-.69.25-.302.006-.534-.069-.697-.224-.161-.155-.244-.366-.249-.634a1.02 1.02 0 0 1 .053-.356.74.74 0 0 1 .172-.282.822.822 0 0 1 .289-.187zm-5.482-2.541l-.57 4.332.745.102.57-4.332-.745-.102zm-.837 5.47a.536.536 0 0 0-.055.42c.02.07.051.133.094.19a.533.533 0 0 0 .359.211c.072.01.141.005.208-.015a.53.53 0 0 0 .317-.254.548.548 0 0 0-.035-.605.531.531 0 0 0-.15-.141.514.514 0 0 0-.597.039.58.58 0 0 0-.141.154zm-6.264-3.56a.344.344 0 0 0-.084.051l-.266.209c.12.224.276.418.47.578.192.162.435.284.724.37.31.093.6.12.87.084a1.73 1.73 0 0 0 .734-.269 2.01 2.01 0 0 0 .569-.575c.16-.239.286-.515.375-.827.099-.342.14-.66.124-.956a2.085 2.085 0 0 0-.188-.79 1.738 1.738 0 0 0-.454-.592 1.853 1.853 0 0 0-.674-.359 2.639 2.639 0 0 0-.45-.092 1.96 1.96 0 0 0-.446-.005 1.904 1.904 0 0 0-.423.091 1.483 1.483 0 0 0-.387.2l.126.33c.02.056.058.093.117.11a.233.233 0 0 0 .166-.02 2.87 2.87 0 0 1 .227-.087 1.3 1.3 0 0 1 .324-.058c.126-.009.277.012.453.064.184.055.338.14.465.254a1.1 1.1 0 0 1 .29.42c.066.164.1.354.1.568 0 .214-.035.448-.108.702a2.61 2.61 0 0 1-.268.635c-.108.18-.234.324-.378.431a1.063 1.063 0 0 1-.478.203c-.175.027-.363.01-.566-.05a1.314 1.314 0 0 1-.6-.36 2.316 2.316 0 0 1-.148-.166.253.253 0 0 0-.119-.092.151.151 0 0 0-.096-.002zm-4.376-5.788a.326.326 0 0 0-.132-.113l-.296-.157-1.266 2.479c-.11.217-.184.43-.218.643a1.344 1.344 0 0 0 .282 1.119c.128.158.298.294.51.407.296.157.59.25.885.276.294.026.6-.007.914-.102l-.008-.282a.373.373 0 0 0-.037-.133.22.22 0 0 0-.097-.099.336.336 0 0 0-.208-.029c-.08.01-.174.02-.282.03a1.33 1.33 0 0 1-.806-.17c-.245-.13-.392-.306-.441-.528-.048-.222.005-.484.158-.785l.154-.303c.438.22.823.375 1.156.463.333.088.62.126.861.114.241-.01.438-.064.593-.162a.961.961 0 0 0 .35-.377c.09-.176.138-.343.148-.502a1.024 1.024 0 0 0-.307-.81 1.552 1.552 0 0 0-.384-.286 2.083 2.083 0 0 0-.417-.17 1.767 1.767 0 0 0-.785-.038 4.432 4.432 0 0 0-.42.09l.11-.404c.013-.074.008-.13-.017-.17zm1.087 1.066a1.407 1.407 0 0 0-1.001-.145 2.574 2.574 0 0 0-.343.097l-.41.804c.313.153.587.267.823.343.236.076.439.117.607.125a.813.813 0 0 0 .412-.068.541.541 0 0 0 .24-.241.728.728 0 0 0 .087-.29.564.564 0 0 0-.188-.462 1.032 1.032 0 0 0-.227-.163zm-4.92-3.642l-3.643 5.153.61.45L20.16 66.7l-.61-.45zm-6.147-5.93l-5.098 3.647-.434-.633 2.063-1.475a2.294 2.294 0 0 1-.732-.235 1.655 1.655 0 0 1-.585-.54 1.606 1.606 0 0 1-.26-.587 1.253 1.253 0 0 1 .013-.567c.047-.184.136-.36.265-.529a2.24 2.24 0 0 1 .49-.466l2.232-1.597.434.633-2.233 1.597c-.265.19-.43.398-.49.627-.062.228-.006.468.167.72.13.19.293.332.491.43.199.1.42.163.661.19l2.583-1.847.433.632zM7.96 54.405l-2.496 1.13.305.702 2.496-1.13c.221-.1.41-.22.57-.36.157-.14.276-.294.356-.466.08-.171.118-.357.116-.556a1.603 1.603 0 0 0-.144-.625c-.12-.279-.286-.5-.494-.663a2.334 2.334 0 0 0-.707-.379l.397-.246c.084-.07.104-.154.06-.254l-.181-.418-3.913 1.772.305.702 2.885-1.306c.237.075.442.182.616.32s.306.31.395.515c.123.284.133.531.031.743-.102.211-.301.385-.597.519zm-.788-6.517l-4.178.952-.099-.45c-.023-.107.013-.185.11-.233l.44-.162c-.24-.14-.449-.31-.622-.513a1.678 1.678 0 0 1-.36-.753 1.612 1.612 0 0 1-.023-.644c.037-.196.112-.368.224-.52a1.49 1.49 0 0 1 .443-.385c.182-.106.39-.186.627-.24l2.66-.606.165.753-2.66.607c-.316.072-.546.201-.688.388-.143.188-.18.432-.115.732a1.3 1.3 0 0 0 .294.588c.146.17.326.314.54.434l3.077-.703.165.755zm-1.369-7.403c.186-.19.276-.455.27-.8a1.67 1.67 0 0 0-.115-.576 1.427 1.427 0 0 0-.294-.474l-.355.23c-.047.034-.07.07-.07.11 0 .023.011.05.033.079a.945.945 0 0 1 .144.26.615.615 0 0 1 .036.21.473.473 0 0 1-.124.347c-.086.091-.219.138-.4.141l-2.569.048-.022-1.264-.545.01.023 1.265-1.475.027.007.388a.173.173 0 0 0 .041.118.19.19 0 0 0 .106.056l1.325.153.102.714.3-.006c.056-.001.097-.017.123-.05a.173.173 0 0 0 .039-.116l-.01-.526 2.62-.05c.355-.006.625-.105.81-.294zm-3.89-5.927l4.266.362-.063.766-4.266-.362.063-.766zm-1.126-.215a.506.506 0 0 0-.412-.035.579.579 0 0 0-.183.106.544.544 0 0 0 .513.934.572.572 0 0 0 .308-.263.554.554 0 0 0-.068-.607.59.59 0 0 0-.158-.135zm5.846-2.87l-4.11-1.223.126-.443c.03-.105.1-.155.206-.15l.463.074a2.451 2.451 0 0 1-.304-.755 1.702 1.702 0 0 1 .041-.837 1.6 1.6 0 0 1 .285-.575 1.2 1.2 0 0 1 .442-.344c.17-.077.36-.116.57-.12.209-.004.43.03.663.099l2.616.78-.212.74-2.616-.779c-.311-.092-.574-.093-.787.001-.213.094-.361.29-.446.585-.063.221-.07.44-.022.66.05.22.14.436.27.645l3.027.902-.213.74zm-.747-10.528c-.11.127-.208.274-.294.442-.11.215-.18.426-.215.636-.035.211-.032.41.007.596a1.298 1.298 0 0 0 .681.888c.229.122.458.176.688.162.23-.014.446-.089.648-.224a1.161 1.161 0 0 0 .116.53.772.772 0 0 0 .125.187c.048.051.1.092.156.121a.592.592 0 0 0 .389.08.758.758 0 0 0 .34-.163c-.028.247-.008.465.06.655a.783.783 0 0 0 .385.433c.133.07.277.101.434.096.157-.006.318-.053.481-.145.165-.09.328-.227.49-.41.164-.182.318-.415.463-.698.144-.283.238-.558.282-.821.044-.264.046-.504.007-.723a1.487 1.487 0 0 0-.223-.575 1.117 1.117 0 0 0-.41-.375.834.834 0 0 0-.484-.115.87.87 0 0 0-.41.16c-.125.089-.24.204-.349.346a5.18 5.18 0 0 0-.304.451 15.67 15.67 0 0 0-.27.47c-.085.154-.17.287-.252.4a.896.896 0 0 1-.25.242.248.248 0 0 1-.262.005.33.33 0 0 1-.136-.153.732.732 0 0 1-.067-.27c.124-.139.234-.3.327-.483.107-.21.177-.419.211-.628a1.51 1.51 0 0 0-.013-.59 1.352 1.352 0 0 0-.235-.509 1.335 1.335 0 0 0-.448-.376 1.287 1.287 0 0 0-.61-.159l.165-.472c.032-.119.007-.2-.076-.244l-.247-.132-.537 1.052a1.647 1.647 0 0 0-.363.313zm4.4 1.378a.357.357 0 0 0-.267-.04.588.588 0 0 0-.244.144 1.545 1.545 0 0 0-.232.28 6.59 6.59 0 0 0-.225.363l-.175.3-.056.096c-.078.134-.158.26-.24.378-.008.178.014.337.065.48a.57.57 0 0 0 .278.321.502.502 0 0 0 .272.059.616.616 0 0 0 .296-.102c.1-.064.202-.157.304-.28a2.55 2.55 0 0 0 .299-.465c.093-.184.16-.357.202-.52.042-.163.059-.31.05-.444a.8.8 0 0 0-.095-.344.572.572 0 0 0-.232-.226zm-2.56-.262a1.197 1.197 0 0 1-.129.394c-.07.138-.15.248-.241.333a.74.74 0 0 1-.617.213.944.944 0 0 1-.338-.108c-.232-.123-.38-.294-.444-.512-.064-.217-.025-.463.115-.738.14-.273.315-.446.526-.517.211-.07.432-.044.665.08.112.06.205.132.281.218a.746.746 0 0 1 .16.29.848.848 0 0 1 .022.347z"
      fill="#E2061D"></path>
    <path fill-rule="evenodd" clip-rule="evenodd" d="M33.438 18.133c.016-1.065.5-4.61-.798-5.091-1.207-.448-1.403 1.27-1.552 2.125-.591 3.393-.643 8.412-.634 11.893.006 2.024.016 3.848.019 5.634-4.706 1.598-9.072 3.054-10.94 3.652-1.22.392-1.312 1.588-.619 1.862.369.146 5.677-1.58 11.557-3.54-.011 4.56-.103 6.915-.482 14.486-2.79.944-7.413 1.937-10.073 2.84-1.074.364-1.521.45-1.259 1.559a.458.458 0 0 0 .063.148 1.497 1.497 0 0 0 .472.568c.14.104.27.178.428.253 1.639.723 4.018.975 5.713 1.433.393.116.784.256 1.165.405.772.334 1.454.65 2.117 1.186.22.175.471.34.701.505.127.088.338.294.592.556.029 1.5.095 2.827.205 3.66.149 1.126.396 2.184 1.733 2.203 2.141.031 1.776-4.469 1.296-5.818-.27-.761-.521-.517-.62-1.49-.082-.815-.05-3.063.132-6.537 1.435-.611 7.285-2.652 13.267-4.694-.036 4.476-.03 8.942-.104 13.638-.016 1.065-.249 4.667 1.675 4.9 1.924.234 2.012-3.948 1.856-4.801-.636-3.484-.599-5.575-.608-9.056-.006-2.024-.017-3.848-.019-5.634 4.706-1.597 9.071-3.054 10.94-3.652 1.22-.392 1.312-1.588.618-1.862-.368-.146-5.677 1.58-11.557 3.54.012-4.56.104-6.915.482-14.486 2.79-.945 7.42-1.96 10.08-2.863 1.073-.364 1.522-.45 1.26-1.558-.224-.942-2.857-.276-4.142.098-1.993.579-5.587 1.767-7.22 2.2.034-1.034.19-7.843-.076-11.412-.159-2.12-.34-2.191-1.03-2.122-1.89.19-1.425 12.064-1.537 14.186-1.435.611-7.285 2.651-13.266 4.694.036-4.476.09-8.912.165-13.608zm12.502 25.8c-6.004 2.012-11.896 4.003-13.197 4.296.336-6.675.457-9.63.511-14.49 6.005-2.012 11.897-4.003 13.197-4.296-.336 6.675-.458 9.63-.511 14.49zm-24.16 9.73c-.697-.599 5.783-1.737 8.232-2.385-.075 1.384-.12 3.268-.123 5.129-.88-.672-1.72-1.11-2.813-1.543-.66-.25-1.268-.43-1.933-.64-.82-.259-2.56-.29-3.363-.561z"
      fill="currentColor"></path>
  </symbol>
  <symbol viewBox="0 0 143 31" fill="none" xmlns="http://www.w3.org/2000/svg" id="logo">
    <path fill-rule="evenodd" clip-rule="evenodd" d="M27.51 10.04a17.13 17.13 0 0 0-1.471-3.028c-.478-.741-.96-1.407-1.52-2.003a8.83 8.83 0 0 0-1.961-1.578c-.74-.4-1.424-.695-2.13-.919a13.468 13.468 0 0 0-2.276-.49 15.057 15.057 0 0 0-2.421-.087c-.771.039-1.54.148-2.39.332-1.162.286-2.204.666-3.14 1.195a8.948 8.948 0 0 0-2.5 2.093c-.188.223-.34.41-.493.597-.326.398-.64.783-.913 1.082a4.36 4.36 0 0 1-.409.408c-.134.112-.253.18-.352.184l-.062.003-.04-.048c-.083-.105-.11-.241-.087-.402a1.72 1.72 0 0 1 .184-.52c.126-.247.31-.524.525-.812.243-.325.528-.663.82-.984a12.1 12.1 0 0 1 2.795-2.314c1.021-.608 2.147-1.065 3.427-1.41l.004-.001c.91-.217 1.735-.35 2.566-.406a15.93 15.93 0 0 1 2.606.052h.003a14.5 14.5 0 0 1 2.5.504c.78.237 1.534.552 2.349.98l.004.003a9.942 9.942 0 0 1 2.226 1.735c.629.651 1.172 1.38 1.712 2.204l.002.003a18.187 18.187 0 0 1 1.599 3.213v.001a20.373 20.373 0 0 1 .803 2.69v.002c.241 1.157.383 2.204.415 3.254a16.283 16.283 0 0 1-.241 3.273l-.001.004c-.241 1.166-.552 2.161-1.007 3.09-.457.929-1.059 1.79-1.882 2.687l-.003.003a24.597 24.597 0 0 1-2.258 2.062 19.856 19.856 0 0 1-2.555 1.72l-.003.002c-.897.482-1.715.853-2.567 1.138a14.46 14.46 0 0 1-2.76.617h-.003c-1.046.105-1.963.114-2.87.022-.909-.091-1.806-.282-2.811-.577l-.004-.001a18.475 18.475 0 0 1-3.056-1.284c-.933-.498-1.82-1.076-2.777-1.77l-.004-.002c-1.023-.797-1.81-1.602-2.459-2.501-.648-.898-1.157-1.889-1.623-3.059L1 20.993c-.442-1.242-.724-2.377-.872-3.527-.148-1.151-.162-2.315-.07-3.615v-.005c.197-1.86.582-3.597 1.254-5.208a13.92 13.92 0 0 1 2.984-4.472C5.019 3.432 5.9 2.628 6.673 2.13c.615-.398 1.172-.604 1.546-.435l.078.034-.006.085c-.002.041-.188.245-.484.566-.58.628-1.61 1.744-2.445 2.665-1.245 1.372-2.12 2.685-2.734 4.112-.614 1.428-.967 2.973-1.164 4.81-.087 1.198-.077 2.27.056 3.33.133 1.057.388 2.1.792 3.242.413 1.045.863 1.931 1.436 2.734.573.801 1.27 1.52 2.178 2.232.888.646 1.712 1.187 2.577 1.652.866.465 1.774.855 2.832 1.2.905.269 1.711.444 2.525.528.815.085 1.64.08 2.582-.012.928-.12 1.726-.297 2.496-.553.77-.255 1.514-.591 2.332-1.028.9-.51 1.67-1.03 2.394-1.603a23.164 23.164 0 0 0 2.122-1.927c.738-.798 1.275-1.565 1.683-2.39.407-.826.685-1.713.906-2.756a15.09 15.09 0 0 0 .237-3.033c-.025-.972-.153-1.946-.37-3.023a19.466 19.466 0 0 0-.732-2.52z"
      fill="#EB0029"/>
    <path fill-rule="evenodd" clip-rule="evenodd" d="M13.057 7.751c-.006.1-.012.186-.012.239-.018 1.08-.023 2.084-.028 3.09l-.008 1.412c1.087-.368 2.152-.733 2.987-1.025a43.57 43.57 0 0 0 1.457-.53c.005-.159.003-.406.003-.707-.007-1.463-.019-4.142.625-4.206.171-.017.28-.015.37.146.064.113.098.318.127.708.035.46.052 1.067.06 1.669.01.86 0 1.703-.008 2.085.306-.085.688-.202 1.074-.322.349-.108.702-.218.994-.3.23-.067.583-.16.892-.195.358-.04.663.004.722.249.114.477-.055.533-.47.67l-.055.019c-.473.159-1.031.3-1.596.443-.542.137-1.09.275-1.561.429a140.542 140.542 0 0 0-.13 3.25c-.023.874-.032 1.634-.035 2.375.964-.318 1.805-.592 2.44-.787.683-.21 1.123-.32 1.217-.284a.35.35 0 0 1 .175.148c.043.07.062.157.053.246a.505.505 0 0 1-.1.249.698.698 0 0 1-.355.239c-.33.104-.793.256-1.38.45-.637.212-1.31.437-2.05.686l.006 2.097c.002 1.084.003 1.794.212 2.927.023.124.033.426-.005.743-.027.229-.08.468-.168.662-.099.215-.245.374-.454.413a.55.55 0 0 1-.162.005c-.743-.09-.713-1.266-.701-1.75l.002-.088c.017-1.077.023-2.119.027-3.15l.008-1.443c-1.085.367-2.149.73-2.984 1.023-.672.235-1.196.424-1.46.53a44.007 44.007 0 0 0-.054 1.377c-.008.396-.004.67.01.812.017.167.048.207.085.256.038.052.082.109.127.235.075.21.143.619.137 1.02a2.206 2.206 0 0 1-.104.686c-.077.219-.205.388-.398.459a.58.58 0 0 1-.208.033c-.285-.004-.457-.12-.566-.298-.098-.16-.137-.367-.165-.578a7.415 7.415 0 0 1-.047-.537c-.012-.21-.02-.45-.026-.707l-.084-.082a.714.714 0 0 0-.073-.063l-.08-.056a3.208 3.208 0 0 1-.174-.125 2.235 2.235 0 0 0-.34-.222 5.02 5.02 0 0 0-.38-.176 6.816 6.816 0 0 0-.395-.136c-.208-.055-.45-.103-.7-.153-.462-.09-.95-.186-1.335-.354l-.003-.002a1.071 1.071 0 0 1-.17-.099l-.003-.002a.673.673 0 0 1-.178-.194c-.014-.025-.027-.053-.04-.078a.338.338 0 0 1-.017-.048c-.112-.476.056-.533.47-.67l.056-.019c.469-.157 1.107-.322 1.753-.488.617-.16 1.242-.32 1.725-.478.065-1.287.105-2.333.13-3.25.023-.874.033-1.635.036-2.376-.977.322-1.901.623-2.613.843-.77.238-1.297.377-1.39.34a.354.354 0 0 1-.177-.148.399.399 0 0 1-.052-.246.507.507 0 0 1 .1-.249.696.696 0 0 1 .354-.239c.33-.104.879-.283 1.552-.505.694-.23 1.465-.487 2.227-.742l-.007-1.881c-.001-.61-.003-1.335.022-2.053.025-.725.077-1.446.182-2.043l.011-.062c.022-.129.05-.291.101-.434.097-.264.267-.462.598-.34.47.172.409 1.12.374 1.657zm3.81 10.133l.553-.178a138.588 138.588 0 0 1 .175-5.585c-.602.162-2.214.682-3.955 1.244l-.539.173a138.26 138.26 0 0 1-.175 5.585c.6-.161 2.205-.679 3.94-1.239zm-6.05 2.692c-.704.157-1.495.334-1.84.465a8.1 8.1 0 0 0 .394.053c.242.028.483.057.646.11l.142.045c.197.062.386.122.59.2l.002.001c.21.084.396.17.573.267.106.058.208.12.31.189a52.266 52.266 0 0 1 .036-1.526c-.242.06-.54.127-.854.196zM43.946 8.003c-.394 2.949-1.738 15.49-1.503 19.669.028.49 0 1.505.703 1.505 1.41 0 1.381-1.135.85-1.527-.08-.059-.152-.226-.139-.803.144-6.132.631-13.323.953-19.184 3.706-1.692 5.86-2.672 10.217-3.994 2.713-.822 5.127-.53 4.196-1.37-2.072-1.87-16.066 4.97-21.133 6.793-.55.263-3.657 1.311-3.325 1.836.422.669 8.026-2.5 9.181-2.925zm19.969 10.671c-.02 1.365-.36 3.07-.221 4.399-1.47-.996-6.536-1.312-6.512-1.787.029-.564 5.753-2.337 6.733-2.612zm12.41 5.96c-.288.157-.238.468-.037.745 1.354 1.857 3.468 3.663 5.52 3.76 1.68.079 3.343-.416 4.615-1.672.397-.393.692-.645 1.042-1.1.179-.233.187-.17.377.062.43.523.232 1.856.428 2.433.36 1.06 2.456-.619.192-4.088-.109-.166-.272-.432-.489-.443-.712-.037-1.2.882-1.613 1.361-1.22 1.416-2.594 2.4-4.368 2.348-1.614-.048-3.556-2.09-4.555-3.04-.386-.366-.64-.623-1.112-.366zM52.59 29.446c.654-.032 1.019-.03 1.451-1.785-.488-.26-1.526-1.02-2.1-.126-.372.577.027 1.911.649 1.911zm52.254-.28c1.162-.178.525-1.126-.305-1.506-1.511-.722-2.483-2.33-3.867-2.961-2.138-.972-3.57-.344-5.17 1.356a12.31 12.31 0 0 0-1.106 1.33c-.16.224-.08.258-.328-.075-.362-.481-.08-1.445-.2-2.022-.145-.696-.887-.646-1.05.022-.16.653-.097 1.677.169 2.453.217.633.6 1.37 1.2 1.393.763.03 1.027-.936 1.436-1.389 1.094-1.216 2.874-2.671 4.529-1.872 1.263.61 3.379 3.475 4.692 3.272zm29.637-1.69c-.039-.002-.071-.217-.084-.296-.037-.223-.109-1.12-.247-1.694-.225-.937-1.168-.788-1.111.58.039.897.245 3.121 1.366 3.11 1.761-.014.679-3.867 3.851-4.107 1.581-.12 4.459 1.3 4.707.757.414-.908-2.642-1.926-4.215-1.852-4.351.207-3.841 3.52-4.267 3.502zm-15.935-.857c.687-.794 2.93-1.082 4.007-1.23 1.063-.146 3.48-.174 3.593.39.091.346-1.746.407-2.744.406-.422 0-.817.002-.747.518.099.722 1.207.489 1.728.448.777-.063 3.271-.326 3.404-1.34.082-.632-1.119-1.19-1.771-1.333-1.933-.423-9.117-.08-8.955 2.869.195 2.3 3.821 1.81 5.384 1.735 1.259-.062 2.566-.208 3.835-.203 1.145.005 2.288.188 3.433.258.588.037.995-.207.99-.598-.005-.404-.669-.556-1.009-.604-1.48-.208-4.26-.17-5.188-.076-1.384.14-3.062.284-4.45.27-.619-.005-2.394-.486-1.51-1.51zm-6.322-19.456c.007-.477.223-2.065-.356-2.28-.538-.201-.625.57-.692.952-.264 1.52-.26 3.661-.255 5.22.01 3.564.051 6.595-.208 11.8-1.244.423-2.647.681-3.832 1.086-.479.163-.679.201-.562.698.099.422 1.273.123 1.847-.044.889-.26 1.829-.595 2.558-.789-.076 1.4-.086 3.937.044 4.922.067.505.177.979.773.987.955.015.793-2.001.579-2.606-.122-.34-.233-.23-.277-.667-.037-.365-.023-1.372.059-2.928 1.249-.534 4.259-1.629 6.303-2.285.544-.177.585-.712.276-.835-.356-.141-5.295 1.766-6.54 2.047.312-6.217.21-10.63.283-15.278zm-39.486 8.864c2.045-.694 5.705-1.739 7.026-2.228.618-.229.51-.375.418-.49-.116-.144-.371-.217-1.027-.053-1.31.326-3.842.991-6.366 1.686.314-3.272-.664-7.93-.174-10.885.11-.657-.907-.967-1.063-.162-.1.516-.145 1.39-.151 1.573-.11 3.118.52 6.753.327 9.668-1.731.5-5.09 1.496-6.703 1.893.383-3.294.648-6.586.621-9.859-.014-1.778-.963-1.15-.98-.353-.075 3.482-.388 7.064-.815 10.597-2.299.838-8.453 2.89-8.633 3.918-.116.667.828.768 1.424.92 1.694.431 3.984.717 6.02 1.592 1.75.752 1.006 3.523 1.096 5.056.049.84.248 1.623 1.28 1.623.692-.04.98-.92.922-2.237-.09-1.997-.176-3.277-1.222-4.539 0-1.334-.018-2.798.205-5.53a369.729 369.729 0 0 1 6.762-1.876c-.083 3.388-.259 6.367-.445 9.767-.03.535-.28 2.888.75 2.902.912.012 1.376-2.069.45-1.94-.078.01-.063.032-.05-.66.046-3.724.137-6.664.328-10.383z"
      fill="currentColor"/>
  </symbol>
  <symbol viewBox="0 0 99 20" fill="none" xmlns="http://www.w3.org/2000/svg" color="inherit" id="media-bay-logo">
    <path d="M14.604 15h-2.152V9.823c0-.996-.142-1.716-.427-2.161-.278-.446-.751-.668-1.419-.668-.563 0-1.042.281-1.438.844-.39.563-.584 1.237-.584 2.022V15H6.422V9.647c0-1.769-.625-2.653-1.874-2.653-.582 0-1.06.266-1.438.798-.371.531-.557 1.221-.557 2.068V15H.401V5.5h2.152v1.503h.037c.687-1.15 1.686-1.726 2.997-1.726.656 0 1.228.183 1.716.548.495.358.832.832 1.011 1.42.706-1.312 1.757-1.968 3.155-1.968 2.09 0 3.136 1.29 3.136 3.869V15zm12.19-4.165h-6.476c.025.878.294 1.555.807 2.031.52.476 1.23.715 2.134.715a4.695 4.695 0 0 0 2.792-.91v1.735c-.866.544-2.01.817-3.432.817-1.398 0-2.496-.43-3.294-1.29-.791-.866-1.187-2.081-1.187-3.646 0-1.478.436-2.681 1.308-3.609.878-.934 1.967-1.4 3.265-1.4 1.3 0 2.304.417 3.016 1.252.71.835 1.066 1.994 1.066 3.479v.825zm-2.079-1.522c-.006-.773-.188-1.373-.547-1.8-.359-.433-.854-.65-1.484-.65-.619 0-1.145.227-1.578.678-.426.452-.69 1.042-.788 1.772h4.397zM39.001 15h-2.152v-1.614h-.037c-.693 1.224-1.76 1.837-3.201 1.837-1.17 0-2.106-.424-2.811-1.271-.7-.854-1.049-2.014-1.049-3.48 0-1.57.387-2.829 1.16-3.775.78-.947 1.815-1.42 3.108-1.42 1.28 0 2.211.514 2.793 1.54h.037V.936H39V15zm-2.125-4.342V9.415c0-.674-.22-1.246-.658-1.716-.44-.47-1-.705-1.68-.705-.803 0-1.438.3-1.901.9-.458.6-.687 1.431-.687 2.495 0 .965.22 1.729.659 2.292.445.556 1.042.835 1.79.835.736 0 1.333-.27 1.79-.807.459-.545.687-1.228.687-2.05zm7.541-7.153a1.31 1.31 0 0 1-.909-.343 1.136 1.136 0 0 1-.37-.872c0-.353.123-.646.37-.881.254-.235.557-.353.91-.353.364 0 .674.118.927.353.254.235.38.528.38.881 0 .334-.126.622-.38.863a1.315 1.315 0 0 1-.928.352zM45.484 15h-2.152V5.5h2.152V15zm11.633 0h-2.088v-1.484h-.037c-.655 1.138-1.617 1.707-2.885 1.707-.934 0-1.667-.254-2.199-.761-.526-.507-.788-1.178-.788-2.013 0-1.794 1.032-2.84 3.098-3.136l2.82-.399c0-1.354-.643-2.032-1.93-2.032-1.131 0-2.151.39-3.06 1.17V6.167c1.001-.594 2.158-.89 3.469-.89 2.4 0 3.6 1.18 3.6 3.543V15zm-2.078-4.666l-1.995.278c-.619.08-1.086.232-1.401.454-.31.217-.464.6-.464 1.15 0 .403.142.734.427.994.29.253.677.38 1.16.38.655 0 1.196-.229 1.623-.687.433-.463.65-1.045.65-1.744v-.825zm13.654 3.293h-.037V15h-2.152V.936h2.152V7.17h.037c.736-1.262 1.812-1.893 3.229-1.893 1.2 0 2.137.427 2.81 1.28.681.848 1.021 1.986 1.021 3.415 0 1.59-.38 2.863-1.14 3.822-.761.952-1.8 1.429-3.118 1.429-1.237 0-2.17-.532-2.802-1.596zm-.055-3.776v1.178c0 .693.22 1.28.658 1.763.446.482 1.008.724 1.689.724.798 0 1.422-.31 1.874-.928.458-.625.686-1.494.686-2.607 0-.934-.213-1.664-.64-2.19-.42-.531-.993-.797-1.716-.797-.767 0-1.386.272-1.856.816-.463.544-.695 1.225-.695 2.041zM86.54 15h-2.087v-1.484h-.037c-.656 1.138-1.618 1.707-2.885 1.707-.934 0-1.667-.254-2.2-.761-.525-.507-.788-1.178-.788-2.013 0-1.794 1.033-2.84 3.099-3.136l2.82-.399c0-1.354-.643-2.032-1.93-2.032-1.131 0-2.152.39-3.06 1.17V6.167c1.001-.594 2.158-.89 3.469-.89 2.4 0 3.6 1.18 3.6 3.543V15zm-2.078-4.666l-1.994.278c-.619.08-1.086.232-1.401.454-.31.217-.464.6-.464 1.15 0 .403.142.734.427.994.29.253.677.38 1.16.38.655 0 1.196-.229 1.623-.687.433-.463.65-1.045.65-1.744v-.825zM98.925 5.5L94.64 16.521c-.89 1.967-2.14 2.95-3.748 2.95-.452 0-.829-.04-1.132-.12v-1.79c.34.11.65.166.928.166.804 0 1.404-.395 1.8-1.187l.64-1.559L89.35 5.5h2.384L94 12.402c.025.087.08.316.167.687h.046c.031-.142.087-.365.167-.668L96.754 5.5h2.171z"
      fill="currentColor"></path>
  </symbol>
</svg>