<svg width="21" height="18" viewBox="0 0 21 18" fill="none" xmlns="http://www.w3.org/2000/svg">
<path d="M1.4065 7.5738C6.8986 5.18098 10.5609 3.60348 12.3933 2.84131C17.6252 0.665169 18.7124 0.287151 19.421 0.274535C19.5768 0.271923 19.9253 0.310546 20.151 0.493703C20.3416 0.648356 20.394 0.857272 20.4191 1.0039C20.4442 1.15053 20.4755 1.48455 20.4506 1.74555C20.1671 4.72452 18.9403 11.9537 18.3162 15.2902C18.0521 16.702 17.5321 17.1754 17.0287 17.2217C15.9346 17.3224 15.1039 16.4987 14.0442 15.8041C12.3861 14.7172 11.4494 14.0405 9.83988 12.9799C7.97983 11.7542 9.18563 11.0805 10.2457 9.97947C10.5231 9.69134 15.3435 5.30682 15.4368 4.90907C15.4484 4.85933 15.4593 4.6739 15.3491 4.57599C15.239 4.47808 15.0764 4.51156 14.959 4.53819C14.7927 4.57594 12.1439 6.32674 7.01243 9.79061C6.26056 10.3069 5.57953 10.5585 4.96936 10.5453C4.29669 10.5307 3.00275 10.1649 2.04083 9.85226C0.861006 9.46875 -0.0766963 9.26598 0.00495656 8.61465C0.0474864 8.2754 0.514667 7.92845 1.4065 7.5738Z" fill="white"/>
</svg>
