<svg width="30" height="30" viewBox="0 0 30 30" fill="none" xmlns="http://www.w3.org/2000/svg">
<path d="M15 29C7.26801 29 1 22.732 1 15H-1C-1 23.8366 6.16344 31 15 31V29ZM29 15C29 22.732 22.732 29 15 29V31C23.8366 31 31 23.8366 31 15H29ZM15 1C22.732 1 29 7.26801 29 15H31C31 6.16344 23.8366 -1 15 -1V1ZM15 -1C6.16344 -1 -1 6.16344 -1 15H1C1 7.26801 7.26801 1 15 1V-1Z" fill="white"/>
<path d="M8.55487 14.4745C12.674 12.6799 15.4206 11.4968 16.795 10.9252C20.7189 9.29307 21.5343 9.00955 22.0657 9.00009C22.1826 8.99813 22.444 9.0271 22.6132 9.16447C22.7562 9.28046 22.7955 9.43714 22.8143 9.54711C22.8332 9.65709 22.8566 9.9076 22.838 10.1034C22.6253 12.3376 21.7052 17.7595 21.2371 20.2618C21.0391 21.3207 20.6491 21.6757 20.2715 21.7105C19.451 21.786 18.8279 21.1682 18.0332 20.6472C16.7896 19.8321 16.087 19.3246 14.8799 18.5291C13.4849 17.6098 14.3892 17.1045 15.1842 16.2788C15.3923 16.0627 19.0076 12.7743 19.0776 12.476C19.0863 12.4387 19.0945 12.2996 19.0118 12.2262C18.9292 12.1527 18.8073 12.1779 18.7193 12.1978C18.5946 12.2261 16.6079 13.5392 12.7593 16.1371C12.1954 16.5244 11.6846 16.713 11.227 16.7031C10.7225 16.6922 9.75206 16.4179 9.03062 16.1834C8.14575 15.8958 7.44248 15.7437 7.50372 15.2552C7.53561 15.0007 7.886 14.7405 8.55487 14.4745Z" fill="white"/>
</svg>
