<svg width="60" height="60" viewBox="0 0 60 60" xmlns="http://www.w3.org/2000/svg"><title>trust-icon-4</title><desc>Created with Sketch.</desc><g fill="none"><g transform="translate(5)"><path d="M36.32 0l18.43 9.072v8.158h-2.302v-5.69l-4.908 2.57v6.93c3.51.51 5 3.92 3.77 7.06l-3.58 1.44c-1.39 5.04-5.46 9.8-11.01 9.91-.53.03-1.57.08-2.1.1-1.687-1.007-2.917-1.763-3.69-2.27-3.13-1.61-5.28-4.38-6.12-7.79-1.05-.42-2.09-.83-3.14-1.24-1.41-2.45-.67-4.74 1.26-6.65l2.1-.29c0-2.42-.01-4.85-.04-7.27-2.74-1.33-5.49-2.64-8.19-4.06l19.52-9.98zm-14.65 9.98l13.76 6.42c1.4.66 2.7-.45 3.93-.96 2.77-1.46 5.69-2.58 8.52-3.9-.439-.194.194-.715-.34-.86h-12.18l.05-2h12.47c-.2-.43-8.36-4.76-11.75-6.13l-14.46 7.43zm5.62 10.33c3.21 1.42 6.24 3.32 9.68 4.16l8.39-4.29-.09-4.9c-5.571 2.569-8.628 3.969-9.17 4.2-2.87-1.5-5.8-2.85-8.71-4.26l-.1 5.09zm2.63 13.83c2.44 2.99 6.87 3.07 10.24 1.89 4.79-2.16 5.62-8.02 5.15-12.67-2.97.77-5.53 2.6-8.49 3.39-3.4-.25-6.31-2.34-9.44-3.52-.02 3.72-.64 8.19 2.54 10.91zm-4.93-6.836c.022-.592.041-1.907.055-3.944-.595.217-2.115.37-2.115 1.945 0 1.003.687 1.67 2.06 1.999zm22.5-3.094c0 .65 0 1.95.01 2.6.48-.08 1.94-.06 1.94-1.679 0-1.771-1.44-.871-1.95-.921z" fill="#D40227" opacity=".97"/><path fill="#D40227" opacity=".97" d="M.34 24.47l10.43.06v1.86h-10.43zm0 5.173h6.49v2.037h-6.49zm7.797 0h2.633v2.037h-2.633zm12.693 25.887v-1.504h8.3c-.115.789-.115 1.291 0 1.504h-8.3z"/><circle fill="#D60A2E" cx="53.5" cy="20.5" r="1.5"/></g><path d="M27.93 16.24c-.067 1.113-.11 1.857-.13 2.23l-5.7.15v18.66h13.83c1.16.76 2.26 1.51 3.41 2.28-5.53.14-11.71-.08-17.24 0v2.16h17.52v-2.17c.53-.02 1.57-.07 2.1-.1-.01 1.55-.02 3.1-.02 4.64h-37.03c.01 1.66 0 3.76 0 5.42l50.75.09.11-18.25h1.97v18.25c.413.187 1.247.187 2.5 0v5.55c-1.03 2.28-2.82 4.14-5.25 4.85h-49.37c-2.48-.7-4.24-2.62-5.38-4.84v-5.79h2.35v-5.28h-2.35v-27.64l27.93-.21zm-25.53 21.15c5.73.04 11.45-.06 17.18.08v-18.85c-5.66-.29-11.57-.05-17.23-.06.03 6.28-.04 12.55.05 18.83zm17.18 4.33v-2.04l-17.48-.12v2.16h17.48zm-17.47 10.75c.11 2.58 1.87 5.52 4.8 5.23 16.17.04 32.34.28 48.5-.15 2.57-1.339 2.42-3.08 2.57-5.1-18.62-.06-37.25-.08-55.87.02z" fill="#281854"/></g></svg>