<svg width="60" height="60" viewBox="0 0 60 60" xmlns="http://www.w3.org/2000/svg"><title>trust-icon-3</title><desc>Created with Sketch.</desc><g fill="none"><path d="M56.91 0c1.733 0 2.537.793 3.09 2.5v44.47c-2.1 1.2-2.1 3.32-5.87 3.32-6.17-.08-10.449.12-16.619.12.23.92 1.06 2.94 1.3 3.87 4.34.337 5.639 3.18 2.059 5.72h-21.78c-2.784-1.278-3.571-5.72 2.589-5.72.421-1.96.421-1.96.981-3.87-5.65-.16-11.31.16-16.96-.12-2.4.02-4.557-1.579-5.7-4.29v-42.93c0-2.288.896-3.07 3.02-3.07h53.89zm-54.82 8.29c2.769 0 52.9-.15 55.81 0 .658-3.853-.237-5.92-2.684-6.2-11.32-.01-49.024-.01-51.216 0-2.16 0-1.91 1.94-1.91 6.2zm0 31.96c5.58.02 50.2.31 55.81 0l-.01-29.9c-18.59-.03-37.17.01-55.76 0l-.04 29.9zm5.86 7.92h44.943c5.827-.288 4.997-2.94 5.007-5.88-18.68.04-37.37-.06-56.06.05 0 4.84 3.389 5.81 6.11 5.83zm16.11 6.11h12.788c-.5-1.14-.863-2.72-1.353-3.87-3.57.03-7.375-.05-10.945-.05-.17 1.3-.33 2.61-.49 3.92zm-3.82 4.078h19.207c2.449 0 2.449-2.533 0-2.533-2.694-.031-5.29-.031-7.787 0-4.08.051-7.219-.076-11.012 0-2.558.051-2.558 2.181-.408 2.533z" fill="#25164E" opacity=".91"/><path fill="#25164E" opacity=".91" d="M19.436 14.862h8.976v2.232h-8.976zm9.804 0h11.49v2.232h-11.49zm-25.24 3.998h21.003v2.41h-21.003zm22.34-.03h14.39c-.01.61 0 1.83 0 2.44h-14.399l.009-2.44zm-22.34 11.17h13.985c.032.011.032.749 0 2.215-6.51.067-11.172.067-13.985 0v-2.215zm16.24 0h4.763v2.215h-4.763zm6.1 0h14.39v2.31h-14.399zm-22.34 3.85c6.48-.03 13.579-.06 20.049 0-.01.61.02 1.82 0 2.43-6.42-.02-13.629 0-20.049 0v-2.43zm22.34-.02l14.44.04v2.41h-14.44v-2.45z"/><path fill="#392B5E" d="M4 14.862h14v2.232h-14z"/><g transform="translate(4 3)"><path d="M1.14 1.17c1.338-1.17 3.47.371 2.1 1.88-1.301 1.304-3.24-.58-2.1-1.88zm4.48-.08c1.628-.674 2.45 1.096 1.25 2.02-1.57.57-2.324-1.369-1.25-2.02zm3.55.15c1.166-1.055 2.962.518 1.69 1.66-1.068.93-2.622-.714-1.69-1.66zM46.11 7.852c1.57.53 5.06 2.058 6.57 2.708-.2 4.73-2.73 8.79-6.68 11.32-3.87-2.61-5.79-6.77-6.38-11.29l6.49-2.738zm-4 4.358c.77 2.53 2.07 4.82 3.86 6.77 1.95-1.91 3.38-4.25 4.16-6.87l-4.14-1.8c-1.29.63-2.59 1.26-3.88 1.9zm3.89 10.48l6.57 2.85c-.01 4.79-2.67 8.8-6.59 11.37-3.79-2.64-5.77-6.71-6.33-11.21 2.12-.99 4.24-2 6.35-3.01zm-3.89 4.52c.74 2.54 2.08 4.81 3.86 6.77 1.95-1.91 3.38-4.25 4.16-6.87l-4.14-1.8c-1.29.63-2.59 1.26-3.88 1.9z" fill="#9F011D" opacity=".73"/><circle fill="#B9465A" cx="26" cy="42" r="1"/></g></g></svg>