<svg width="60pt" height="60pt" viewBox="0 0 60 60" xmlns="http://www.w3.org/2000/svg"><path fill="#271750" opacity=".93" d="M36.59 0h5.05c9.37 1.34 17.3 9.13 18.36 18.61v5.03c-1.21 8.33-7.49 15.78-15.78 17.72-5.82 1.67-12.02.18-17.12-2.85-7.29 7.09-14.31 14.45-21.64 21.49h-.95c-1.59-1.48-3.1-3.05-4.51-4.7v-.83c7.11-7.24 14.39-14.33 21.5-21.58-3.25-5.31-4.6-11.91-2.61-17.93 2.22-7.97 9.57-13.89 17.7-14.96m-.31 2.24c-8.7 1.14-15.77 8.94-16.22 17.66-.65 9.13 6.16 17.93 15.12 19.69 10.59 2.48 21.86-5.9 22.72-16.7 1.52-11.74-9.94-22.78-21.62-20.65m-28.76 47.69l2.39 2.43c5.14-5.02 10.16-10.14 15.25-15.2-.73-.84-1.47-1.68-2.21-2.51-5.13 5.11-10.36 10.11-15.43 15.28m-4.82 5.06c.78.8 1.57 1.58 2.38 2.36 1.11-1.12 2.22-2.23 3.34-3.34-.78-.8-1.56-1.58-2.35-2.37-1.13 1.12-2.25 2.23-3.37 3.35z"/><path opacity=".89" d="M34.43 5.59c9.81-3.36 21.02 5.09 20.63 15.41.31 8.99-8.22 16.9-17.15 16.03-9.62-.32-17.11-10.6-14.54-19.87 1.33-5.46 5.67-9.99 11.06-11.57m.97 1.91c-7.69 1.88-12.6 11.04-9.45 18.41 2.44 7.01 11.09 11.06 17.98 8.13 7.02-2.45 11.06-11.15 8.09-18.04-2.34-6.48-9.98-10.47-16.62-8.5zm-6.14 10.75c1.38-4.53 5.99-7.63 10.71-7.34l.04 1.9c-5.17-.1-9.32 4.21-9.21 9.34-2.48.34-1.94-2.33-1.54-3.9z" fill="#d5012f"/></svg>