<svg width="80" height="80" viewBox="0 0 80 80" xmlns="http://www.w3.org/2000/svg" fill="none"><path fill-rule="evenodd" clip-rule="evenodd" d="M72.258 18.064h1.29a6.459 6.459 0 180 24.517 NaN NaNv41.29a6.459 6.459 0 1-6.452 6.452hNaNv5.161h3.87vNaNhNaNv-2.58h3.871v-5.162hNaNa6.459 6.459 0 10 65.806 NaN NaNv-41.29a6.459 6.459 0 16.452-6.451h1.29vNaNh64.516v18.064zm-2.58-7.741v-7.743h-59.356v7.742h59.354zm-61.937 10.322h-1.29a3.876 3.876 0 0-3.871 3.871v37.42h74.838v-37.42a3.876 3.876 0 0-3.87-3.87h-1.29v38.709h-64.517v-38.71zm19.356 56.775h25.806v-5.16h-25.806v5.16zm-20.645-7.743h67.096a3.876 3.876 0 3.871-3.87v-1.29h-74.838v1.29a3.876 3.876 0 3.87 3.87zm63.548-56.677h-60v44h60v-44z" fill="#291956"/><path fill-rule="evenodd" clip-rule="evenodd" d="M33.939 54.256c-.568-1.072-1.074-2.083-1.092-3.276h23.124c.043-.379.03-.786.016-1.22l-.015-.707c0-2.954-.065-5.845-1.542-8.414 1.542-4.176 1.413-7.259-.514-9.186-.963-.9-2.57-1.285-4.882-1.156-2.312.192-4.882.835-7.708 2.12-.45-.065-.835-.065-1.22-.065-3.855 0-6.745 1.414-10.278 3.533-3.276 2.056-5.974 4.497-7.9 9.25 3.21-2.826 7.193-5.588 10.277-7.066l-.423.44c-.362.38-.904.951-1.761 1.808-3.35 3.226-4.304 4.834-5.464 6.792l-.125.21c-1.606 2.634-2.697 4.946-3.404 7.13a21.346 21.346 0 20.345 57 NaN NaNh2.848c.331-.75.747-1.594 1.24-2.551.36.977.706 1.812 1.083 2.551h11.09c-1.141-.704-2.03-1.597-2.667-2.744zm10.307 2.744h10.364c.512-.91.944-1.87 1.298-2.872h-8.993c-.7 1.146-1.527 2.166-2.668 2.872zm.613-15.205c1.349 1.22 1.991 2.826 2.12 4.625h-14.069c.129-1.799 1.092-3.34 2.441-4.625 1.35-1.285 2.89-1.799 4.754-1.799 1.798 0 3.404.514 4.753 1.799zm1.349-8.287c3.083 1.542 3.597 1.799 5.91 4.561.77-2.12.899-2.698.578-3.34-.322-.77-.964-1.349-1.67-1.734-1.157-.643-1.928-.643-4.818.514z" fill="#EB0029"/><path d="M25.806 5.161h-2.58v2.58h2.58v-2.58zm-5.161 0h-2.58v2.58h2.58v-2.58zm-5.161 0h-2.58v2.58h2.58v-2.58z" fill="#291956"/></svg>