<svg width="80" height="80" viewBox="0 0 80 80" xmlns="http://www.w3.org/2000/svg" fill="none"><path d="M33.548 22.72h-2.58c0-4.967-4.053-9.008-9.033-9.008-4.979 0-9.032 4.041-9.032 9.009h-2.58c0-6.386 5.208-11.583 11.612-11.583s11.613 5.197 11.613 11.583zM38.71 22.72h-2.58c0-7.805-6.369-14.156-14.194-14.156-7.826 0-14.194 6.351-14.194 14.156h-2.58c0-9.224 7.525-16.73 16.774-16.73s16.774 7.506 16.774 16.73zM43.871 22.72h-2.58c0-10.643-8.683-19.303-19.355-19.303-10.673 0-19.355 8.66-19.355 19.303h-2.581c0-12.062 9.84-21.876 21.936-21.876 12.095 0 21.935 9.814 21.935 21.878zm6.451 20.59a2.577 2.577 0 2.581 2.575h23.227a2.577 2.577 0 2.58-2.574v-20.591a2.577 2.577 0 0-2.58-2.574h-23.227a2.577 2.577 0 0-2.58 2.573v20.59z" fill="#EB0029"/><path d="M63.226 57.466h-59.356a3.87 3.87 0 0 61.326 NaN NaNv10.296a3.87 3.87 0 3.871 3.86h59.355a3.87 3.87 0 3.87-3.86vNaNa3.87 3.87 0 0-3.87-3.86zm1.29 14.156a1.29 1.29 0 1-1.29 1.287h-59.356a1.29 1.29 0 1-1.29-1.287v-1.287h25.806v-2.574h-25.805v-2.573h25.806v-2.574h-25.806v-1.287c0-.71.578-1.287 1.29-1.287h59.355c.712 0 1.29.578 1.29 1.287v10.295zM36.13 70.335h23.225v-7.721h-23.226v7.721zm10.322-2.573h-2.58v-2.574h2.58v2.574zm2.58-2.574h2.581v2.574h-2.58v-2.574zm7.742 2.574h-2.58v-2.574h2.58v2.574zm-18.064-2.574h2.58v2.574h-2.58v-2.574zm38.71-46.091v-5.385c0-7.096-5.79-12.869-12.905-12.869-7.115 0-12.903 5.773-12.903 12.87v5.384c-1.498.532-2.58 1.948-2.58 3.623v20.59a3.87 3.87 0 3.87 3.861h23.228a3.87 3.87 0 80 43.312 NaN NaNvNaNc0-1.676-1.083-3.092-2.58-3.624zm-12.905-15.68c5.692 0 10.323 4.619 10.323 10.295v5.148h-2.581v-5.148c0-4.258-3.472-7.721-7.742-7.721s-7.742 3.463-7.742 7.721v5.148h-2.58v-5.148c0-5.676 4.63-10.295 10.322-10.295zm5.161 15.443h-10.321v-5.148c0-2.839 2.315-5.147 5.161-5.147 2.847 0 5.161 2.308 5.161 5.147v5.148zm7.742 24.45a1.29 1.29 0 1-1.29 1.288h-23.225a1.29 1.29 0 1-1.29-1.287v-20.591c0-.71.578-1.287 1.29-1.287h23.227c.712 0 1.29.577 1.29 1.287v20.59zM64.516 24.007c-3.557 0-6.452 2.886-6.452 6.434 0 2.012.973 3.914 2.581 5.121v6.462h7.742v-6.462c1.608-1.208 2.58-3.11 2.58-5.12 0-3.549-2.894-6.435-6.45-6.435zm1.932 9.756l-.642.372v5.315h-2.58v-5.315l-.642-.372c-1.214-.705-1.939-1.947-1.939-3.322a3.87 3.87 0 13.871-3.86 3.87 3.87l13.871 3.86c0 1.375-.725 2.617-1.94 3.322zm-56.126 44.294h-7.74v2.573h7.742v-2.573zm54.194 0h-7.742v2.573h7.742v-2.573zm-45.161-32.014l1.251-4.994.04-18.329a1.29 1.29 0 12.58 0v18.017l1.29 5.306v8.85h2.58v-9.009l-1.29-5.306v-17.858a3.87 3.87 0 0-3.87-3.86 3.87l-3.872 3.86v17.858l-1.251 4.994-.039 9.32h2.58v-8.85zm14.193 16.571h-2.58v2.574h2.58v-2.574zm0 5.147h-2.58v2.574h2.58v-2.573z" fill="#291956"/></svg>