<?xml version="1.0" standalone="no"?>
<!DOCTYPE svg PUBLIC "-//W3C//DTD SVG 20010904//EN"
 "http://www.w3.org/TR/2001/REC-SVG-20010904/DTD/svg10.dtd">
<svg version="1.0" xmlns="http://www.w3.org/2000/svg"
 width="700.000000pt" height="700.000000pt" viewBox="0 0 700.000000 700.000000"
 preserveAspectRatio="xMidYMid meet">
<metadata>
Created by potrace 1.11, written by Peter Selinger 2001-2013
</metadata>
<g transform="translate(0.000000,700.000000) scale(0.100000,-0.100000)"
fill="#000000" stroke="none">
<path d="M3125 6982 c-50 -24 -71 -47 -89 -98 -26 -76 0 -192 55 -238 59 -50
141 -56 219 -16 52 27 66 45 47 65 -14 13 -21 12 -70 -14 -47 -24 -62 -28 -92
-21 -55 12 -77 36 -99 106 -6 20 -1 22 101 34 60 7 115 14 123 16 8 1 20 3 26
3 16 1 7 68 -14 105 -40 69 -130 94 -207 58z m136 -61 c16 -16 29 -38 29 -49
0 -17 -9 -21 -67 -26 -38 -4 -83 -10 -102 -13 -34 -6 -34 -6 -27 27 16 85 109
118 167 61z"/>
<path d="M2333 6980 c-28 -11 -28 -8 1 -94 14 -39 50 -152 82 -251 31 -99 60
-184 64 -188 4 -4 19 -5 34 -1 33 8 31 18 -22 173 -35 103 -35 104 -17 137 19
35 68 65 99 60 38 -5 61 -45 101 -171 l40 -127 29 6 c16 4 31 8 33 10 2 2 -15
64 -39 137 -36 111 -49 140 -79 170 -31 31 -42 36 -75 34 -52 -3 -97 -27 -122
-66 l-20 -31 -34 103 c-19 56 -38 104 -44 105 -5 2 -19 -1 -31 -6z"/>
<path d="M4191 6873 c-79 -271 -85 -294 -70 -304 30 -19 52 -5 65 41 57 209
65 229 99 240 44 15 83 3 99 -29 11 -21 11 -35 1 -76 -18 -72 -54 -200 -60
-217 -4 -11 3 -19 26 -27 18 -6 33 -10 34 -9 1 2 15 50 30 108 34 123 49 162
68 178 37 31 112 12 122 -31 7 -26 -1 -62 -40 -199 -16 -54 -26 -100 -23 -103
3 -3 18 -7 33 -8 26 -2 27 1 61 118 42 145 46 179 26 222 -17 36 -77 72 -114
68 -13 -1 -30 -3 -39 -4 -8 0 -25 -10 -36 -20 -21 -20 -21 -20 -27 3 -17 67
-84 99 -150 72 -35 -14 -35 -14 -38 12 -2 19 -10 28 -25 30 -19 3 -24 -5 -42
-65z"/>
<path d="M1895 6726 c-17 -12 -17 -15 3 -73 l20 -61 -26 -19 c-23 -17 -25 -22
-13 -36 10 -12 18 -14 31 -7 10 6 21 10 24 10 3 0 32 -53 65 -118 33 -65 66
-124 75 -132 33 -27 108 -6 143 39 31 40 -4 67 -42 31 -39 -37 -55 -24 -117
95 -32 61 -57 113 -58 117 0 3 20 16 45 28 44 21 52 33 37 57 -6 9 -20 6 -57
-12 l-50 -24 -28 57 c-34 69 -30 65 -52 48z"/>
<path d="M5095 6583 c-54 -10 -67 -16 -100 -45 -54 -47 -79 -102 -79 -175 -1
-70 15 -100 80 -146 93 -65 207 -29 265 84 39 77 34 154 -12 214 -33 40 -111
75 -154 68z m72 -71 c39 -21 56 -51 55 -96 -1 -78 -76 -176 -135 -176 -11 0
-35 8 -54 17 -79 37 -76 148 6 230 41 41 83 49 128 25z"/>
<path d="M5869 6136 c-35 -41 -67 -75 -71 -75 -3 -1 -9 12 -13 28 -6 30 -32
62 -68 86 -27 17 -105 27 -113 14 -3 -5 -14 -9 -24 -9 -26 0 -115 -90 -135
-136 -30 -72 -24 -118 22 -170 20 -23 73 -44 109 -44 24 0 32 -14 14 -25 -5
-3 -10 -10 -10 -15 0 -10 29 -40 39 -40 3 0 35 34 71 76 35 42 68 81 74 88 17
17 189 219 203 237 11 13 9 20 -11 38 l-24 22 -63 -75z m-149 -33 c16 -16 33
-41 36 -58 5 -26 -3 -40 -56 -102 -33 -40 -69 -73 -78 -74 -63 -4 -103 16
-122 61 -15 35 -3 76 36 127 57 75 131 94 184 46z"/>
<path d="M1193 6008 c-46 -12 -68 -50 -64 -111 0 -11 14 -31 31 -47 74 -69
187 22 138 113 -23 44 -56 58 -105 45z"/>
<path d="M4222 5833 c-25 -36 -38 -78 -56 -178 -28 -153 -37 -327 -40 -742 -1
-166 -5 -305 -7 -308 -13 -12 -413 -156 -874 -315 -82 -28 -181 -62 -218 -76
-38 -13 -71 -24 -74 -24 -5 0 3 850 13 1247 7 277 -1 339 -46 385 -35 35 -78
37 -108 6 -30 -33 -40 -64 -57 -173 -2 -11 -6 -34 -9 -51 -3 -17 -8 -57 -11
-90 -3 -32 -8 -75 -10 -94 -5 -39 -13 -172 -20 -325 -3 -55 -5 -301 -5 -546
l0 -446 -488 -163 c-268 -89 -499 -169 -514 -176 -55 -28 -77 -103 -40 -137
16 -15 24 -15 82 -1 96 22 298 84 635 196 83 27 190 62 238 78 l88 28 -6 -306
c-6 -305 -9 -377 -19 -587 -3 -60 -8 -171 -12 -245 -3 -74 -9 -138 -13 -141
-15 -13 -114 -43 -401 -119 -325 -86 -518 -143 -562 -166 -72 -37 -47 -144 44
-190 46 -23 218 -73 303 -87 150 -26 270 -61 365 -105 69 -33 209 -130 237
-163 6 -8 14 -70 17 -139 10 -181 14 -217 31 -274 24 -80 64 -116 128 -116
111 0 160 102 152 320 -4 109 -22 193 -50 237 -29 44 -35 84 -35 218 0 265 10
439 25 451 22 17 459 173 945 339 102 35 193 66 202 70 17 7 18 -31 13 -701
-5 -752 -4 -770 41 -860 26 -51 91 -86 136 -73 41 11 63 33 89 86 38 78 56
280 34 383 -3 14 -8 45 -11 70 -3 25 -7 52 -9 60 -5 18 -15 138 -20 235 -2 39
-5 254 -6 479 l-2 409 139 48 c76 27 139 48 139 48 0 0 7 2 15 5 8 3 170 57
360 120 238 79 353 122 372 138 55 50 46 128 -13 128 -51 0 -279 -68 -799
-240 -113 -37 -207 -66 -209 -64 -7 6 1 483 14 744 3 69 8 175 11 235 9 211
14 299 17 300 10 6 354 102 607 170 266 70 369 107 392 140 14 19 8 73 -11 96
-16 20 -29 24 -78 25 -92 2 -222 -30 -633 -159 -80 -25 -175 -54 -211 -65
l-67 -19 1 401 c1 502 -10 710 -39 769 -12 21 -21 27 -49 27 -25 0 -38 -7 -53
-27z m-108 -1474 c-1 -13 -4 -89 -8 -169 -18 -373 -25 -557 -32 -845 -2 -126
-8 -233 -12 -236 -12 -12 -1065 -358 -1134 -373 l-27 -6 4 67 c2 38 7 136 10
218 4 83 8 179 10 215 7 164 18 508 19 638 l1 143 540 178 c698 230 631 212
629 170z m-1462 -2121 c-2 -123 -5 -224 -7 -226 -2 -2 -27 12 -56 31 -125 79
-333 156 -464 171 -27 3 -61 8 -75 10 -14 2 -46 7 -72 11 -119 16 -14 63 302
134 52 12 124 29 160 37 65 15 214 51 216 53 0 1 -1 -99 -4 -221z"/>
<path d="M6029 5694 c-54 -16 -124 -79 -145 -129 -39 -94 15 -206 120 -250 42
-18 43 -18 48 10 2 14 -9 25 -40 43 -91 51 -107 135 -39 209 l20 22 80 -104
c44 -58 83 -105 88 -105 13 0 70 62 80 87 35 92 -34 206 -136 225 -17 3 -51 0
-76 -8z m117 -65 c27 -14 54 -60 54 -92 0 -14 -10 -38 -23 -53 l-23 -27 -39
54 c-22 30 -50 65 -62 79 -29 32 -29 36 5 48 30 10 57 8 88 -9z"/>
<path d="M586 5236 c-9 -14 -16 -30 -16 -36 0 -5 -12 -20 -26 -33 -32 -27 -72
-108 -69 -140 1 -12 3 -30 4 -39 2 -25 56 -75 90 -81 17 -4 42 -2 56 3 22 9
26 6 39 -24 15 -37 43 -51 77 -41 13 5 19 3 15 -3 -12 -19 15 -70 43 -82 37
-15 72 -5 109 31 61 60 97 180 70 233 -22 43 -51 66 -83 66 -39 0 -62 -21
-119 -110 -31 -47 -52 -70 -65 -70 -28 0 -30 29 -4 75 44 78 20 170 -51 196
-31 11 -35 17 -33 42 3 38 -16 45 -37 13z m58 -118 c23 -10 38 -33 41 -63 2
-16 -27 -69 -44 -81 -20 -15 -69 -9 -92 12 -25 23 -28 53 -7 96 24 49 52 59
102 36z m292 -134 c13 -51 -40 -154 -86 -169 -28 -9 -57 10 -63 41 -5 30 51
135 86 159 26 18 54 4 63 -31z"/>
<path d="M6315 5110 c-82 -44 -154 -81 -159 -83 -6 -2 -4 -17 3 -36 8 -17 17
-30 20 -29 4 2 53 27 110 57 88 45 110 52 143 48 48 -6 65 -20 73 -59 6 -26
10 -29 33 -23 40 10 43 17 24 55 -17 35 -54 60 -93 63 -19 1 -19 2 -3 14 9 7
21 14 27 16 14 4 0 57 -16 56 -6 0 -79 -36 -162 -79z"/>
<path d="M6665 4683 c-59 -15 -317 -92 -321 -96 -11 -11 9 -57 25 -57 9 0 70
16 135 35 110 32 121 34 143 20 29 -19 53 -55 59 -89 9 -49 -35 -78 -173 -115
-109 -29 -123 -36 -123 -55 0 -47 10 -48 136 -13 65 19 134 41 151 51 88 45
88 161 1 230 -18 14 -28 26 -21 26 20 0 41 29 36 50 -5 20 -11 22 -48 13z"/>
<path d="M328 4584 c-15 -8 -35 -29 -44 -46 -19 -37 -21 -115 -5 -147 11 -19
9 -21 -14 -21 -17 0 -28 -7 -34 -22 -5 -13 -8 -24 -6 -26 1 -1 77 -25 168 -52
91 -28 172 -53 179 -55 18 -7 41 51 24 63 -6 5 -64 24 -128 42 -66 18 -125 41
-134 51 -39 43 -19 142 31 155 18 4 70 -6 157 -32 109 -32 131 -35 139 -23 5
8 8 23 7 34 -3 16 -24 26 -113 53 -130 39 -190 46 -227 26z"/>
<path d="M8 3936 c-13 -31 -5 -54 24 -65 44 -16 79 29 51 68 -20 29 -61 27
-75 -3z"/>
<path d="M169 3922 c0 -9 -2 -25 -4 -34 -2 -10 2 -18 8 -19 7 0 23 -2 37 -4
54 -6 228 -18 279 -19 53 -1 54 0 55 28 1 15 -3 30 -9 31 -10 4 -79 10 -225
20 -41 3 -90 8 -107 10 -26 4 -33 1 -34 -13z"/>
<path d="M166 3562 c-3 -3 -6 -29 -6 -58 l0 -53 -62 -3 c-57 -3 -63 -5 -66
-25 -2 -13 1 -24 7 -24 6 -1 16 -3 21 -4 6 -1 25 -3 43 -4 42 -2 60 -14 62
-43 1 -15 9 -24 23 -26 19 -3 22 1 22 27 0 17 3 31 8 32 4 0 62 2 130 3 130 3
162 12 180 51 19 42 -3 135 -32 135 -20 0 -40 -27 -26 -35 14 -8 13 -62 -2
-71 -6 -4 -67 -9 -135 -11 l-123 -4 0 54 c0 46 -3 56 -19 60 -11 3 -22 2 -25
-1z"/>
<path d="M6824 3520 l-6 -29 -136 3 -135 4 -29 -28 c-32 -33 -37 -83 -13 -131
14 -25 19 -28 36 -19 19 11 20 19 2 66 -2 6 3 19 12 28 14 14 34 16 118 12 56
-2 112 -5 125 -5 21 -1 23 -5 22 -43 -3 -65 -2 -68 24 -68 17 0 23 6 23 23 1
12 1 37 2 55 l1 33 63 -2 c59 -3 62 -2 62 21 0 21 -7 25 -58 35 -31 6 -59 9
-62 7 -3 -3 -5 11 -5 31 0 30 -4 37 -20 37 -15 0 -22 -8 -26 -30z"/>
<path d="M410 3036 c-145 -37 -164 -47 -184 -97 -23 -57 -8 -114 44 -166 21
-22 27 -33 17 -33 -23 0 -36 -22 -26 -47 7 -19 12 -21 41 -13 18 5 44 11 58
14 14 3 80 17 147 33 121 28 123 28 123 56 0 15 -6 30 -14 33 -8 3 -54 -4
-102 -16 -49 -12 -102 -24 -119 -26 -16 -3 -35 -7 -41 -9 -15 -5 -63 41 -75
73 -14 38 -2 80 29 96 15 7 81 26 147 41 66 15 121 29 123 30 1 1 -1 16 -4 33
-8 39 -6 39 -164 -2z"/>
<path d="M6508 3016 c-57 -30 -92 -96 -92 -174 0 -53 16 -102 32 -102 26 1 34
19 25 61 -20 96 29 169 113 169 39 0 44 -2 44 -23 0 -13 -7 -46 -15 -73 -8
-27 -14 -50 -14 -52 0 -1 -5 -27 -12 -57 -15 -67 -8 -78 50 -77 56 1 81 10
115 41 65 61 69 176 8 244 -54 60 -181 82 -254 43z m207 -82 c59 -39 48 -159
-17 -183 -32 -12 -69 -2 -64 18 2 9 8 32 12 51 9 42 8 37 18 80 13 57 15 58
51 34z"/>
<path d="M670 2442 c-31 -15 -78 -37 -105 -49 -28 -12 -78 -34 -112 -49 -65
-28 -75 -44 -50 -77 11 -14 24 -11 132 39 65 30 128 54 138 54 24 0 87 -62 88
-86 4 -66 -21 -84 -233 -176 l-47 -20 15 -30 c8 -16 19 -28 23 -26 4 2 59 26
121 53 160 70 202 117 178 201 -10 37 -72 104 -97 104 -12 1 -11 5 7 19 18 16
21 24 12 45 -5 14 -11 26 -12 25 -2 0 -28 -13 -58 -27z"/>
<path d="M6315 2423 c-16 -9 -38 -25 -47 -36 -29 -33 -50 -102 -45 -147 5 -49
7 -51 34 -44 19 5 21 11 17 44 -10 72 44 134 114 132 68 -3 155 -63 162 -112
7 -44 -3 -73 -36 -110 -60 -66 -20 -101 41 -36 37 40 60 111 52 163 -19 112
-193 199 -292 146z"/>
<path d="M6044 1944 c-10 -14 -13 -28 -8 -33 5 -4 54 -41 109 -81 55 -40 102
-74 103 -76 4 -3 6 -46 3 -81 -1 -28 -46 -73 -72 -73 -28 0 -50 13 -157 92
-51 39 -99 67 -107 64 -8 -2 -18 -14 -24 -24 -9 -18 0 -28 82 -89 119 -88 136
-99 174 -107 70 -16 142 50 146 134 1 22 5 40 10 40 4 0 43 -27 86 -59 l78
-60 24 25 c14 15 19 28 13 33 -5 5 -81 62 -169 126 -88 65 -183 135 -211 156
-28 22 -54 39 -57 39 -4 0 -14 -11 -23 -26z"/>
<path d="M891 1838 c-118 -85 -151 -123 -151 -171 0 -59 59 -137 103 -137 38
0 22 -22 -53 -75 -43 -31 -82 -59 -84 -64 -3 -4 3 -19 12 -33 l17 -26 210 150
c116 82 218 155 227 162 16 11 15 14 -5 39 l-22 26 -110 -79 c-60 -44 -116
-80 -123 -80 -8 0 -30 8 -49 17 -44 20 -70 74 -54 109 9 21 183 158 217 171
19 7 17 23 -4 50 l-17 23 -114 -82z"/>
<path d="M5673 1463 c-31 -21 -29 -31 15 -78 142 -152 145 -155 144 -185 -2
-62 -58 -118 -106 -105 -11 4 -65 52 -118 108 l-96 102 -26 -24 -25 -23 22
-22 c12 -12 53 -57 91 -99 82 -90 130 -119 182 -107 57 13 101 63 109 125 1
11 3 24 4 30 0 5 6 4 13 -3 16 -16 36 -15 55 4 14 14 12 19 -24 57 -67 71
-169 181 -194 209 -23 25 -25 26 -46 11z"/>
<path d="M1571 902 l-160 -227 26 -22 26 -21 75 106 c41 59 113 160 159 224
45 64 83 121 83 126 0 6 -11 17 -24 26 l-24 15 -161 -227z"/>
<path d="M5141 1015 c-78 -24 -134 -96 -133 -170 2 -75 48 -159 109 -196 104
-64 260 20 267 144 3 52 -9 90 -45 144 -52 75 -120 102 -198 78z m71 -54 c19
-3 71 -58 89 -92 48 -95 7 -179 -90 -184 -27 -2 -41 5 -70 34 -67 67 -90 151
-53 198 30 38 73 54 124 44z"/>
<path d="M1965 789 c-38 -77 -65 -144 -65 -163 0 -75 85 -140 177 -134 41 3
48 6 51 26 2 12 0 23 -5 23 -4 1 -29 2 -54 4 -48 3 -98 28 -100 51 -1 8 -2 20
-2 27 -1 6 4 27 11 46 9 26 15 32 29 26 136 -59 221 -57 250 7 38 84 -43 169
-148 155 -36 -5 -38 -4 -41 26 -2 21 -9 33 -20 35 -14 3 -33 -27 -83 -129z
m198 20 c59 -27 47 -109 -16 -109 -40 0 -127 30 -127 44 0 6 9 26 20 44 17 27
25 32 59 32 22 0 51 -5 64 -11z"/>
<path d="M4652 758 c-26 -13 -24 -19 18 -113 15 -33 60 -136 101 -230 40 -93
75 -174 79 -178 4 -4 19 -2 34 4 18 9 25 18 21 30 -17 52 -213 493 -221 495
-5 2 -19 -2 -32 -8z"/>
<path d="M2533 660 c-24 -10 -27 -18 -17 -43 4 -12 12 -13 42 -5 81 23 145
-27 143 -112 -3 -147 -111 -217 -208 -134 -33 28 -37 29 -53 9 -30 -36 82
-105 162 -100 54 4 98 34 132 89 26 42 30 58 31 124 0 65 -4 82 -23 110 -43
60 -141 89 -209 62z"/>
<path d="M3543 660 c-44 -10 -81 -35 -102 -71 -19 -31 -19 -82 0 -105 16 -20
69 -34 140 -38 82 -5 101 -13 97 -40 -3 -18 -10 -21 -61 -23 -33 -1 -69 -9
-87 -20 -40 -23 -64 -75 -57 -124 4 -28 1 -39 -8 -39 -18 0 -47 -29 -40 -40 3
-5 25 -8 48 -6 23 1 61 -3 84 -10 89 -27 186 19 193 91 5 48 -2 75 -25 104
l-26 30 21 21 c24 24 26 62 5 80 -13 11 -11 16 15 40 23 22 28 33 25 60 -10
77 -110 117 -222 90z m149 -67 c23 -21 23 -55 -1 -77 -15 -13 -34 -17 -83 -15
-85 3 -118 15 -118 43 0 51 50 78 134 70 27 -2 58 -12 68 -21z m-45 -259 c26
-7 52 -56 45 -89 -11 -59 -105 -83 -143 -36 -54 67 10 148 98 125z"/>
<path d="M4180 608 c-49 -13 -94 -50 -115 -94 -14 -29 -16 -52 -12 -106 10
-117 76 -189 175 -190 52 0 114 25 145 60 25 27 45 99 40 142 -15 141 -113
220 -233 188z m93 -59 c75 -34 98 -212 33 -254 -39 -26 -92 -30 -122 -10 -48
31 -81 147 -60 213 16 48 95 76 149 51z"/>
<path d="M3086 533 c-3 -15 -8 -53 -12 -83 -3 -30 -8 -62 -9 -70 -6 -32 -19
-147 -19 -174 -1 -24 4 -31 26 -37 34 -9 32 -15 53 151 3 25 12 87 19 138 11
85 11 92 -5 92 -10 0 -24 3 -32 6 -11 4 -17 -3 -21 -23z"/>
<path d="M3025 84 c-33 -33 -9 -84 39 -84 24 0 48 53 33 74 -17 23 -54 28 -72
10z"/>
</g>
</svg>
