<svg width="137" height="60" viewBox="0 0 137 60" fill="none" xmlns="http://www.w3.org/2000/svg">
<path d="M125.386 56.1281H119.58V50.3217H125.386V56.1281Z" fill="#EB0029"/>
<path d="M107 44.5154C97.9282 44.5154 90.5483 37.1355 90.5483 28.064C90.5483 18.9926 97.9282 11.6127 107 11.6127C116.071 11.6127 123.451 18.9926 123.451 28.064C123.451 37.1355 116.071 44.5154 107 44.5154ZM107 16.4513C100.596 16.4513 95.387 21.6606 95.387 28.064C95.387 34.4675 100.596 39.6767 107 39.6767C113.403 39.6767 118.612 34.4675 118.612 28.064C118.612 21.6606 113.403 16.4513 107 16.4513Z" fill="#EB0029"/>
<path d="M107 44.5154C97.9282 44.5154 90.5483 37.1355 90.5483 28.064C90.5483 18.9926 97.9282 11.6127 107 11.6127C116.071 11.6127 123.451 18.9926 123.451 28.064C123.451 37.1355 116.071 44.5154 107 44.5154ZM107 16.4513C100.596 16.4513 95.387 21.6606 95.387 28.064C95.387 34.4675 100.596 39.6767 107 39.6767C113.403 39.6767 118.612 34.4675 118.612 28.064C118.612 21.6606 113.403 16.4513 107 16.4513Z" fill="#EB0029"/>
<path d="M80.8708 44.5154H94.419V53.2249H80.8708V44.5154Z" fill="#EB0029"/>
<path d="M110.482 46.9076C110.722 46.4847 110.87 46.0037 110.87 45.484V44.0363C110.238 44.1902 109.594 44.3131 108.935 44.3915V45.484C108.935 46.0182 108.5 46.4518 107.967 46.4518H106.032C105.499 46.4518 105.064 46.0182 105.064 45.484V44.3915C104.405 44.3141 103.762 44.1902 103.129 44.0363V45.484C103.129 46.0037 103.277 46.4847 103.517 46.9076C102.705 47.4224 102.161 48.3243 102.161 49.3549V55.1613C102.161 57.8293 104.331 59.9999 107 59.9999C109.668 59.9999 111.838 57.8293 111.838 55.1613V49.3549C111.838 48.3243 111.294 47.4224 110.482 46.9076ZM109.903 55.1613C109.903 56.7619 108.6 58.0645 107 58.0645C105.399 58.0645 104.096 56.7619 104.096 55.1613V49.3549C104.096 48.8208 104.531 48.3872 105.064 48.3872H106.032H107.967H108.935C109.468 48.3872 109.903 48.8208 109.903 49.3549V55.1613Z" fill="#381E54"/>
<path d="M113.09 22.5412L104.096 31.5343L100.91 28.3476L99.5414 29.7159L104.096 34.271L114.458 23.9096L113.09 22.5412Z" fill="#381E54"/>
<path d="M123.402 27.0963C123.421 27.4186 123.451 27.7369 123.451 28.064C123.451 28.3911 123.421 28.7095 123.402 29.0318H135.064V50.3217H127.322V58.0636H117.645V40.5845C117.037 41.1022 116.389 41.5687 115.709 41.9954V59.999H128.69L136.999 51.6901V27.0963H123.402ZM133.695 52.2572L129.257 56.6952V52.2572H133.695Z" fill="#381E54"/>
<path d="M119.58 42.58H133.128V44.5154H119.58V42.58Z" fill="#381E54"/>
<path d="M119.58 46.4509H133.128V48.3863H119.58V46.4509Z" fill="#381E54"/>
<path d="M90.8201 25.1609H79.9032C79.37 25.1609 78.9355 24.7273 78.9355 24.1932V22.2577C78.9355 21.7235 79.37 21.29 79.9032 21.29H92.0249C92.3298 20.6193 92.6801 19.9739 93.0681 19.3545H81.8386V17.4191H94.4791C95.0723 16.7223 95.7207 16.073 96.4203 15.4836H79.9032C79.37 15.4836 78.9355 15.0501 78.9355 14.5159V12.5804C78.9355 12.0463 79.37 11.6127 79.9032 11.6127H101.193C101.646 11.6127 102.01 11.9321 102.114 12.353C102.729 12.1614 103.364 12.0172 104.006 11.8992C103.699 10.6276 102.559 9.67726 101.193 9.67726V7.74181C102.794 7.74181 104.096 6.43925 104.096 4.83863V2.90318C104.096 1.30256 102.794 0 101.193 0H79.9032C78.3026 0 77 1.30256 77 2.90318V4.83863C77 6.43925 78.3026 7.74181 79.9032 7.74181V9.67726C78.3026 9.67726 77 10.9798 77 12.5804V14.5159C77 16.1165 78.3026 17.4191 79.9032 17.4191V19.3545C78.3026 19.3545 77 20.6571 77 22.2577V24.1932C77 25.7938 78.3026 27.0963 79.9032 27.0963H90.5975C90.6353 26.4402 90.7069 25.7938 90.8201 25.1609ZM99.2577 9.67726H81.8386V7.74181H99.2577V9.67726ZM78.9355 4.83863V2.90318C78.9355 2.36899 79.37 1.93545 79.9032 1.93545H101.193C101.726 1.93545 102.161 2.36899 102.161 2.90318V4.83863C102.161 5.37282 101.726 5.80636 101.193 5.80636H79.9032C79.37 5.80636 78.9355 5.37282 78.9355 4.83863Z" fill="#381E54"/>
<path d="M119.58 38.6432V40.6445H133.128V30.9672H123.179C123.061 31.6253 122.917 32.2737 122.723 32.9027H131.193V38.709H121.516V35.7894C120.97 36.8104 120.32 37.7645 119.58 38.6432Z" fill="#381E54"/>
<path d="M119.58 28.0641C119.58 21.1274 113.936 15.4836 107 15.4836C100.063 15.4836 94.4192 21.1274 94.4192 28.0641C94.4192 35.0007 100.063 40.6445 107 40.6445C113.936 40.6445 119.58 35.0007 119.58 28.0641ZM96.3546 28.0641C96.3546 22.1948 101.13 17.4191 107 17.4191C112.869 17.4191 117.645 22.1948 117.645 28.0641C117.645 33.9333 112.869 38.7091 107 38.7091C101.13 38.7091 96.3546 33.9333 96.3546 28.0641Z" fill="#381E54"/>
<path d="M80.8708 43.5477H94.419V45.4831H80.8708V43.5477Z" fill="#381E54"/>
<path d="M80.8708 47.4186H94.419V49.354H80.8708V47.4186Z" fill="#381E54"/>
<path d="M92.4838 51.2895H94.4192V53.2249H92.4838V51.2895Z" fill="#381E54"/>
<path d="M88.6125 51.2895H90.548V53.2249H88.6125V51.2895Z" fill="#381E54"/>
<path d="M80.8708 51.2895H82.8063V53.2249H80.8708V51.2895Z" fill="#381E54"/>
<path d="M84.7417 51.2895H86.6772V53.2249H84.7417V51.2895Z" fill="#381E54"/>
<line y1="35.5" x2="53" y2="35.5" stroke="#DADADA"/>
<circle cx="57.5" cy="35.5" r="5.5" fill="#EB0029"/>
</svg>
