<svg width="137" height="60" viewBox="0 0 137 60" fill="none" xmlns="http://www.w3.org/2000/svg">
<line y1="35.5" x2="53" y2="35.5" stroke="#DADADA"/>
<path d="M93.4505 41.6128C99.8641 41.6128 105.063 36.4136 105.063 29.9999C105.063 23.5863 99.8641 18.387 93.4505 18.387C87.0369 18.387 81.8376 23.5863 81.8376 29.9999C81.8376 36.4136 87.0369 41.6128 93.4505 41.6128Z" fill="white"/>
<path d="M111.838 12.5806H119.58V47.4193H111.838V12.5806Z" fill="white"/>
<path d="M125.387 4.83868H133.128V24.1935H125.387V4.83868Z" fill="white"/>
<path d="M93.4516 17.4193C86.5148 17.4193 80.871 23.0632 80.871 30C80.871 36.9367 86.5148 42.5806 93.4516 42.5806C100.388 42.5806 106.032 36.9367 106.032 30C106.032 23.0632 100.388 17.4193 93.4516 17.4193ZM96.3123 23.0651C95.3881 23.1667 94.431 23.2258 93.4516 23.2258C92.4723 23.2258 91.5152 23.1667 90.591 23.0651C91.3526 20.7667 92.4345 19.3548 93.4516 19.3548C94.4687 19.3548 95.5506 20.7667 96.3123 23.0651ZM97.0458 19.9925C98.3736 20.4706 99.5765 21.2032 100.6 22.1351C99.8842 22.3877 99.1013 22.6016 98.2603 22.77C97.9265 21.7045 97.5161 20.7735 97.0458 19.9925ZM89.601 29.0322C89.6542 27.5496 89.8274 26.1745 90.0868 24.9522C91.1726 25.0848 92.301 25.1612 93.4516 25.1612C94.6023 25.1612 95.7306 25.0848 96.8165 24.9522C97.0758 26.1735 97.249 27.5496 97.3023 29.0322H89.601ZM97.3023 30.9677C97.249 32.4503 97.0758 33.8254 96.8165 35.0477C95.7306 34.9151 94.6023 34.8387 93.4516 34.8387C92.301 34.8387 91.1726 34.9151 90.0868 35.0477C89.8274 33.8264 89.6542 32.4503 89.601 30.9677H97.3023ZM88.6429 22.77C87.8019 22.6025 87.019 22.3877 86.3029 22.1351C87.3268 21.2032 88.5297 20.4706 89.8574 19.9925C89.3871 20.7735 88.9768 21.7045 88.6429 22.77ZM88.1658 24.6445C87.89 25.9829 87.7168 27.4577 87.6665 29.0322H82.8558C83.0368 27.0358 83.7761 25.2019 84.9094 23.6758C85.8742 24.0745 86.9736 24.4006 88.1658 24.6445ZM87.6665 30.9677C87.7168 32.5432 87.889 34.0171 88.1658 35.3554C86.9736 35.5993 85.8742 35.9254 84.9094 36.3242C83.7752 34.798 83.0368 32.9642 82.8558 30.9677H87.6665ZM88.6429 37.23C88.9768 38.2954 89.3871 39.2264 89.8574 40.0074C88.5297 39.5293 87.3268 38.7967 86.3029 37.8648C87.019 37.6122 87.8019 37.3974 88.6429 37.23ZM90.591 36.9348C91.5152 36.8332 92.4723 36.7742 93.4516 36.7742C94.431 36.7742 95.3881 36.8332 96.3123 36.9348C95.5506 39.2332 94.4687 40.6451 93.4516 40.6451C92.4345 40.6451 91.3526 39.2332 90.591 36.9348ZM98.2603 37.23C99.1013 37.3974 99.8842 37.6122 100.6 37.8648C99.5765 38.7967 98.3736 39.5293 97.0458 40.0074C97.5161 39.2264 97.9265 38.2954 98.2603 37.23ZM98.7374 35.3554C99.0132 34.0171 99.1865 32.5422 99.2368 30.9677H104.047C103.866 32.9642 103.127 34.798 101.994 36.3242C101.029 35.9254 99.9297 35.5993 98.7374 35.3554ZM99.2368 29.0322C99.1865 27.4567 99.0142 25.9829 98.7374 24.6445C99.9297 24.4006 101.029 24.0745 101.994 23.6758C103.127 25.2029 103.866 27.0358 104.047 29.0322H99.2368Z" fill="#381E54"/>
<path d="M137 0H100.226V7.74194H86.6774V13.5484H77V46.4516H86.6774V60H123.452V52.2581H137V0ZM78.9355 15.4839H107.968V44.5161H78.9355V15.4839ZM121.516 58.0645H88.6129V46.4516H109.903V13.5484H88.6129V9.67742H121.516V58.0645ZM123.452 29.0323H131.194V46.4516H123.452V29.0323ZM135.065 50.3226H123.452V48.3871H133.129V27.0968H123.452V7.74194H102.161V1.93548H135.065V50.3226Z" fill="#381E54"/>
<path d="M113.773 56.1291H119.58V50.3226H113.773V56.1291ZM115.709 52.2581H117.644V54.1936H115.709V52.2581Z" fill="#381E54"/>
<path d="M106.033 56.1291H111.84V50.3226H106.033V56.1291ZM107.969 52.2581H109.904V54.1936H107.969V52.2581Z" fill="#381E54"/>
<path d="M98.2909 56.1291H104.097V50.3226H98.2909V56.1291ZM100.226 52.2581H102.162V54.1936H100.226V52.2581Z" fill="#381E54"/>
<path d="M90.549 56.1291H96.3554V50.3226H90.549V56.1291ZM92.4844 52.2581H94.4199V54.1936H92.4844V52.2581Z" fill="#381E54"/>
<path d="M111.838 11.6129H119.58V13.5484H111.838V11.6129Z" fill="#EB0029"/>
<path d="M111.838 15.4839H119.58V17.4194H111.838V15.4839Z" fill="#EB0029"/>
<path d="M111.838 19.3549H119.58V21.2903H111.838V19.3549Z" fill="#EB0029"/>
<path d="M111.838 23.2258H119.58V25.1613H111.838V23.2258Z" fill="#EB0029"/>
<path d="M111.838 27.0968H119.58V29.0323H111.838V27.0968Z" fill="#EB0029"/>
<path d="M111.838 30.9678H119.58V32.9033H111.838V30.9678Z" fill="#EB0029"/>
<path d="M111.838 34.8387H119.58V36.7742H111.838V34.8387Z" fill="#EB0029"/>
<path d="M111.838 38.7097H119.58V40.6452H111.838V38.7097Z" fill="#EB0029"/>
<path d="M111.838 42.5807H119.58V44.5162H111.838V42.5807Z" fill="#381E54"/>
<path d="M111.838 46.4517H119.58V48.3871H111.838V46.4517Z" fill="#381E54"/>
<path d="M104.098 3.87097H106.033V5.80646H104.098V3.87097Z" fill="#381E54"/>
<path d="M107.967 3.87097H133.128V5.80646H107.967V3.87097Z" fill="#381E54"/>
<path d="M125.387 7.74194H133.129V9.67743H125.387V7.74194Z" fill="#EB0029"/>
<path d="M125.387 11.6129H133.129V13.5484H125.387V11.6129Z" fill="#EB0029"/>
<path d="M125.387 15.4839H133.129V17.4194H125.387V15.4839Z" fill="#EB0029"/>
<path d="M125.387 19.3549H133.129V21.2903H125.387V19.3549Z" fill="#EB0029"/>
<path d="M125.387 23.2258H133.129V25.1613H125.387V23.2258Z" fill="#EB0029"/>
<path d="M80.871 17.4193H82.8065V19.3548H80.871V17.4193Z" fill="#381E54"/>
<path d="M80.871 40.6451H82.8065V42.5806H80.871V40.6451Z" fill="#381E54"/>
<path d="M104.098 40.6451H106.033V42.5806H104.098V40.6451Z" fill="#381E54"/>
<path d="M104.098 17.4193H106.033V19.3548H104.098V17.4193Z" fill="#381E54"/>
<circle cx="57.5" cy="35.5" r="5.5" fill="#EB0029"/>
</svg>
